v -0.01257182 -0.004400151 -0.116004
v -0.06668934 0.01132456 -0.04692553
v 0.002413562 -0.009603212 -0.04911689
v 0.02574603 -0.004935504 -0.1222254
v 0.06668934 0.01195117 -0.05115527
v 0.06668934 -0.004628759 0.05446019
v -0.003273841 0.009383457 0.05503021
v -0.06668934 -0.01195117 0.05554684
v -0.006943326 0.006325216 0.1222254
vn 0.1662261 0.9853 0.03940392
vn 0.04603817 0.9987601 0.01893773
vn -0.02293808 0.9997367 0.0005350861
vn -0.1812881 0.9834177 0.004929745
vn -0.1084741 0.9939244 -0.01864617
vn -0.02136983 0.9997655 -0.003530574
vn -0.03269146 0.9993698 0.01383433
vn -0.05158383 0.998435 0.02160192
vn -0.05977837 0.9973224 0.04212645
vt 0.5405487 0.6417507
vt 0.6002029 0.5627793
vt 0.5242615 0.5652725
vt 0.4989999 0.6490747
vt 0.4536431 0.5676211
vt 0.4533619 0.4460379
vt 0.5306165 0.4455088
vt 0.6006387 0.4448221
vt 0.5347168 0.3682377
f 1/1/1 2/2/2 3/3/3
f 4/4/4 1/1/1 3/3/3
f 5/5/5 4/4/4 3/3/3
f 6/6/6 5/5/5 3/3/3
f 2/2/2 7/7/7 3/3/3
f 6/6/6 3/3/3 7/7/7
f 2/2/2 8/8/8 7/7/7
f 6/6/6 7/7/7 9/9/9
f 8/8/8 9/9/9 7/7/7
