v 0.03828517 -0.002334759 -0.02657055
v 0.02410905 0.01184127 -0.06597324
v 0.002193344 -0.00116123 -0.02657055
v -0.01327646 -0.0126144 -0.07157344
v 0.03656027 -0.006985279 0.01766495
v -0.0382852 -0.01257752 -0.02722614
v 0.002968705 0.0009291768 0.01766495
v 0.01787383 0.01261439 0.07157344
v -0.03162578 -0.00307805 0.02702232
vn 0.1027027 0.9880574 0.1148687
vn -0.3546594 0.9286005 0.1091681
vn -0.1381671 0.9902249 -0.01909169
vn -0.4235805 0.9019609 -0.08394133
vn 0.1600979 0.9850233 -0.06401458
vn -0.2267365 0.9673497 -0.1132483
vn -0.04433845 0.9937452 -0.1024916
vn 0.03247827 0.9748918 -0.2202975
vn -0.1970994 0.9733773 -0.1169977
vt 0.06538385 0.306954
vt 0.08482666 0.3494642
vt 0.1004707 0.3070872
vt 0.1108615 0.3574527
vt 0.0650352 0.2566076
vt 0.1344673 0.307741
vt 0.100462 0.2566784
vt 0.09046937 0.1964396
vt 0.1318866 0.2466133
f 1/1/1 2/2/2 3/3/3
f 2/2/2 4/4/4 3/3/3
f 5/5/5 1/1/1 3/3/3
f 3/3/3 4/4/4 6/6/6
f 5/5/5 3/3/3 7/7/7
f 7/7/7 3/3/3 6/6/6
f 5/5/5 7/7/7 8/8/8
f 7/7/7 6/6/6 9/9/9
f 8/8/8 7/7/7 9/9/9
