v 0.009650615 0.01608641 0.08838926
v -0.02072273 -0.01608641 0.05645567
v -0.02816281 0.0006907016 0.1032563
v 0.007506522 -0.01538542 0.03865205
v 0.05867998 -0.001573344 0.01001788
v -0.04529284 -0.01526634 0.02644671
v 0.0004887741 -0.01594336 -0.02894739
v 0.048699 0.008990266 -0.04175478
v -0.05867997 -0.01023718 -0.01977956
v -0.006892475 0.01342549 -0.1032563
vn -0.422442 0.7949764 -0.4353793
vn -0.2199659 0.9480613 -0.2297711
vn -0.407612 0.8076801 -0.4260344
vn -0.2684818 0.952856 -0.141361
vn -0.3457681 0.9375472 0.03807415
vn 0.02833581 0.9993807 0.0208646
vn -0.1409468 0.9664297 0.2148196
vn -0.3283379 0.9204205 0.2121795
vn 0.1274886 0.9669078 0.2209887
vn -0.09998897 0.921904 0.3742931
vt 0.5349021 0.1755034
vt 0.5625835 0.2108613
vt 0.5683234 0.159715
vt 0.5365982 0.2304164
vt 0.4901794 0.2619263
vt 0.5854423 0.2440865
vt 0.5432686 0.3053992
vt 0.4989012 0.3192328
vt 0.5979825 0.2953971
vt 0.550072 0.3881209
f 1/1/1 2/2/2 3/3/3
f 1/1/1 4/4/4 2/2/2
f 1/1/1 5/5/5 4/4/4
f 4/4/4 6/6/6 2/2/2
f 5/5/5 7/7/7 4/4/4
f 4/4/4 7/7/7 6/6/6
f 5/5/5 8/8/8 7/7/7
f 7/7/7 9/9/9 6/6/6
f 8/8/8 10/10/10 7/7/7
f 7/7/7 10/10/10 9/9/9
