v 0.0005090713 0.009525379 -0.00996575
v -0.004202397 -0.006529215 0.03777676
v 0.008472177 0.005320525 0.05519829
v -0.004202397 -0.006529215 0.03777676
v -0.05453107 -0.002532095 0.1026774
v 0.008472177 0.005320525 0.05519829
v 0.01971256 -0.001700193 0.08102279
v 0.02440406 0.01030999 -0.008549921
v 0.0005090713 0.009525379 -0.00996575
v 0.05453105 -0.002314481 -0.01052227
v -0.04792895 0.002009003 -0.06408034
v 0.001733898 -0.004427003 -0.06116275
v 0.01938788 -0.008461867 -0.083877
v -0.04879136 -0.01030999 -0.1026775
vn -0.05009648 0.9863061 -0.1571329
vn -0.3762807 0.9254956 -0.04325347
vn 0.1050848 0.9910784 0.08197974
vn -0.3762807 0.9254956 -0.04325347
vn -0.1231235 0.992391 0.0007517177
vn 0.1050848 0.9910784 0.08197974
vn 0.2123956 0.9581428 0.1919651
vn 0.1528833 0.9858744 -0.06839836
vn -0.05009648 0.9863061 -0.1571329
vn 0.2847633 0.9569562 -0.05607861
vn 0.1149452 0.9524068 -0.2823276
vn 0.1281802 0.9609728 -0.2451555
vn 0.1390486 0.9654624 -0.2203353
vn 0.1020807 0.9601182 -0.2602936
vt 0.2224686 0.7857245
vt 0.2278153 0.7302312
vt 0.2136867 0.7100096
vt 0.2278153 0.7302312
vt 0.284569 0.6550654
vt 0.2136867 0.7100096
vt 0.202335 0.6810079
vt 0.1969583 0.7840001
vt 0.2224686 0.7857245
vt 0.1652841 0.7863163
vt 0.2744926 0.8492216
vt 0.2213605 0.8448548
vt 0.2013281 0.8713031
vt 0.2772115 0.8915153
f 1/1/1 2/2/2 3/3/3
f 4/4/4 5/5/5 6/6/6
f 6/6/6 5/5/5 7/7/7
f 8/8/8 6/6/6 7/7/7
f 9/9/9 6/6/6 8/8/8
f 8/8/8 7/7/7 10/10/10
f 11/11/11 9/9/9 8/8/8
f 12/12/12 8/8/8 10/10/10
f 11/11/11 8/8/8 12/12/12
f 12/12/12 10/10/10 13/13/13
f 14/14/14 11/11/11 12/12/12
f 14/14/14 12/12/12 13/13/13
