v 0.003211588 0.01293187 0.07431751
v -0.03744727 0.00574058 0.07431751
v 0.03219048 0.00481462 0.147385
v 0.03744724 0.00341247 0.07431751
v -0.03744727 -0.00818243 0.006908789
v 0 0.01349847 0.006908789
v 0.03744724 -0.005254079 0.006908789
v 0 -0.01193921 -0.06049993
v -0.03744727 0.0003023371 -0.06049993
v 0.03744724 0.006874692 -0.06049993
v -0.002931619 -0.01349847 -0.147385
vn -0.002941381 0.9999511 -0.009447835
vn -0.3100725 0.9503082 -0.02773879
vn 0.04951837 0.994632 0.09085703
vn 0.3354977 0.9410201 -0.04384474
vn -0.2401363 0.9651408 -0.1041052
vn -0.03701539 0.9947898 -0.09499028
vn 0.1897291 0.9783654 -0.08248529
vn -0.07722747 0.9944424 -0.0715564
vn 0.02303378 0.9953585 -0.09343959
vn -0.1591068 0.9850261 -0.06639867
vn -0.09299943 0.9955572 -0.01472857
vt 0.8636208 0.5535596
vt 0.9106585 0.5531944
vt 0.8299876 0.4700505
vt 0.8240432 0.5532036
vt 0.9107277 0.6324906
vt 0.8673508 0.6324937
vt 0.823974 0.6324968
vt 0.8673508 0.7117884
vt 0.9107969 0.7117869
vt 0.8239048 0.7117899
vt 0.8706033 0.8125183
f 1/1/1 2/2/2 3/3/3
f 1/1/1 3/3/3 4/4/4
f 1/1/1 5/5/5 2/2/2
f 4/4/4 6/6/6 1/1/1
f 1/1/1 6/6/6 5/5/5
f 4/4/4 7/7/7 6/6/6
f 8/8/8 5/5/5 6/6/6
f 7/7/7 8/8/8 6/6/6
f 8/8/8 9/9/9 5/5/5
f 7/7/7 10/10/10 8/8/8
f 11/11/11 9/9/9 8/8/8
f 10/10/10 11/11/11 8/8/8
