v 0.05398653 0.009989968 -0.02173778
v -0.007676545 -0.01162069 -0.09984951
v 0.002500811 -0.02313569 -0.02173778
v -0.04438332 0.006056469 -0.03089778
v 0.04770308 0.02313567 0.03624071
v -0.05398653 0.0107689 0.02572636
v 0.005250381 0.00164977 0.03624071
v 0.007999951 0.01724626 0.09984951
vn -0.5084054 0.8480409 -0.1495012
vn -0.02115838 0.9886851 0.1485058
vn -0.06498646 0.992319 -0.1052599
vn 0.4195899 0.8987867 -0.1269916
vn -0.472935 0.840456 -0.2645114
vn 0.3296731 0.9184907 -0.2183813
vn -0.09187946 0.9603289 -0.2632995
vn -0.09579992 0.9677137 -0.2331364
vt 0.3265789 0.5407175
vt 0.3954183 0.6290451
vt 0.3839641 0.5407007
vt 0.4356017 0.5508512
vt 0.3340773 0.4738215
vt 0.4462745 0.4858128
vt 0.3809462 0.473592
vt 0.3779262 0.4007799
f 1/1/1 2/2/2 3/3/3
f 2/2/2 4/4/4 3/3/3
f 5/5/5 1/1/1 3/3/3
f 3/3/3 4/4/4 6/6/6
f 5/5/5 3/3/3 7/7/7
f 3/3/3 6/6/6 7/7/7
f 5/5/5 7/7/7 8/8/8
f 7/7/7 6/6/6 8/8/8
