v -0.01678825 0.003173298 0.1371941
v -0.01595933 0.000193435 0.06237529
v -0.04048327 0.008886558 0.0663449
v 0.018805 0.004720626 0.07594175
v -0.04771803 0.007870936 0.003397151
v -0.005098338 0.002493375 -0.003526934
v 0.04082137 -0.00888657 0.002602155
v -0.04771803 -0.008395206 -0.06051641
v -0.0004508711 0.003746143 -0.06051641
v 0.04771803 -0.001932652 -0.08338478
v 0.0178189 -0.007750419 -0.1371941
vn 0.03529604 0.9986007 -0.03938096
vn 0.1337432 0.9906007 -0.02868627
vn 0.242891 0.9700525 0.001355393
vn 0.03559492 0.9979736 -0.0527405
vn 0.05788157 0.996626 -0.05819308
vn 0.09389796 0.995245 -0.02589146
vn 0.1496125 0.9886475 0.01386877
vn -0.1309532 0.9802637 -0.1481028
vn 0.01673184 0.9982738 -0.05629759
vn 0.134459 0.9908221 -0.01386765
vn -0.0779799 0.9830426 -0.1659712
vt 0.2843885 0.358692
vt 0.2836171 0.4430355
vt 0.3078125 0.4386702
vt 0.2493182 0.4275596
vt 0.3155009 0.5099471
vt 0.2730536 0.517534
vt 0.2276462 0.5102398
vt 0.3156028 0.5824751
vt 0.2683689 0.5821842
vt 0.2208957 0.6072312
vt 0.2503913 0.6677617
f 1/1/1 2/2/2 3/3/3
f 4/4/4 2/2/2 1/1/1
f 2/2/2 5/5/5 3/3/3
f 4/4/4 6/6/6 2/2/2
f 2/2/2 6/6/6 5/5/5
f 4/4/4 7/7/7 6/6/6
f 6/6/6 8/8/8 5/5/5
f 7/7/7 9/9/9 6/6/6
f 6/6/6 9/9/9 8/8/8
f 7/7/7 10/10/10 9/9/9
f 9/9/9 11/11/11 8/8/8
f 10/10/10 11/11/11 9/9/9
