v 0.05890354 0.01567289 -0.02989416
v -0.005927682 -0.009721702 -0.102784
v 0 -0.01567287 -0.02989416
v 0.05890354 0.00439986 0.0386663
v -0.05890354 0.002146784 -0.02989416
v 0 -0.0009187653 0.0386663
v -0.003801113 0.002827631 0.102784
v -0.05890354 0.01469304 0.0386663
vn -0.3394237 0.9406005 0.007884178
vn -0.1090776 0.989978 0.08969839
vn -0.05338839 0.9977563 -0.04039876
vn -0.2597377 0.9651631 -0.03156611
vn 0.2744561 0.9524215 -0.1325409
vn 0.01777126 0.9953983 -0.09416086
vn 0.09544918 0.9940529 -0.05242397
vn 0.266135 0.9508088 -0.1585396
vt 0.3066436 0.8140042
vt 0.379517 0.8980183
vt 0.3729548 0.8139764
vt 0.3068494 0.7342708
vt 0.4392659 0.8139827
vt 0.3729947 0.7343015
vt 0.3772563 0.6602969
vt 0.43914 0.7344003
f 1/1/1 2/2/2 3/3/3
f 4/4/4 1/1/1 3/3/3
f 3/3/3 2/2/2 5/5/5
f 4/4/4 3/3/3 6/6/6
f 6/6/6 3/3/3 5/5/5
f 4/4/4 6/6/6 7/7/7
f 6/6/6 5/5/5 8/8/8
f 7/7/7 6/6/6 8/8/8
