v -0.003858997 0.008723077 0.111432
v 0.0008324087 0.009764171 0.04039237
v -0.04693146 -0.007744706 0.04039237
v 0.04462101 -0.008160708 0.03040207
v -0.06273813 0.006749831 -0.03145071
v 0.0008324087 0.009527951 -0.03145071
v 0.06273813 -0.009764158 -0.03145071
v 0.0008324087 0.007850315 -0.111432
vn -0.03921096 0.9991583 0.01205331
vn 0.04779169 0.996978 0.06124435
vn -0.2128951 0.9728156 0.09113505
vn 0.3424093 0.9389576 0.03338455
vn -0.1395661 0.9872203 0.07692555
vn 0.09305015 0.9948903 0.03917874
vn 0.3226853 0.9463828 0.0152935
vn 0.1319018 0.9910448 -0.0207875
vt 0.6650701 0.1584109
vt 0.6608889 0.2370431
vt 0.7050576 0.2371548
vt 0.6207612 0.2481916
vt 0.7197205 0.3169482
vt 0.6609991 0.317095
vt 0.6038076 0.3168235
vt 0.6611208 0.4055662
f 1/1/1 2/2/2 3/3/3
f 4/4/4 2/2/2 1/1/1
f 2/2/2 5/5/5 3/3/3
f 4/4/4 6/6/6 2/2/2
f 2/2/2 6/6/6 5/5/5
f 4/4/4 7/7/7 6/6/6
f 6/6/6 8/8/8 5/5/5
f 7/7/7 8/8/8 6/6/6
