v 0.01475405 0.01541567 0.1105953
v 0.003550868 -0.01658575 0.03554511
v -0.04726651 -0.02175459 0.03554511
v 0.04726651 -0.01524134 0.03554511
v -0.04726651 0.02175457 -0.03594853
v 0 -0.009643325 -0.03594853
v 0.04726651 0.004518363 -0.03594853
v -0.00587476 -0.00822633 -0.1105953
vn -0.06302325 0.9213977 -0.3834764
vn 0.00791342 0.9994796 0.03127255
vn 0.1730857 0.9721029 0.1582948
vn -0.1305418 0.9912232 0.02086579
vn 0.3441862 0.9127044 0.2202418
vn 0.09461889 0.9790784 0.1801472
vn -0.1970125 0.9690918 0.148483
vn 0.2213781 0.9751874 0.001089022
vt 0.4161584 0.168195
vt 0.4266855 0.2513229
vt 0.4745619 0.2513733
vt 0.3854665 0.251213
vt 0.4745172 0.3313956
vt 0.4300706 0.3312812
vt 0.3856241 0.3311669
vt 0.435604 0.4139257
f 1/1/1 2/2/2 3/3/3
f 4/4/4 2/2/2 1/1/1
f 2/2/2 5/5/5 3/3/3
f 4/4/4 6/6/6 2/2/2
f 2/2/2 6/6/6 5/5/5
f 4/4/4 7/7/7 6/6/6
f 6/6/6 8/8/8 5/5/5
f 7/7/7 8/8/8 6/6/6
