v -0.0005268109 -0.01542388 0.01843766
v 0.01807733 0.1327094 -0.1624552
v -0.02061819 -0.0161486 -0.003719817
v 0.2568574 0.1196045 0.08035677
v 0.3444214 0.1564635 -0.03707646
v 0.1293813 0.1737876 -0.2457499
v 0.3781943 0.122462 -0.2024673
v 0.2575394 0.1448614 -0.3390273
v 0.390012 0.04814508 -0.3472913
v 0.363401 0.03948345 -0.387722
v 0.08636745 0.03241073 0.1470074
v 0.02025039 -0.02761762 -0.02748619
v 0.01849028 -0.03024155 0.02417175
v 0.09373908 0.03628674 -0.148606
v 0.238254 0.09310406 0.1152078
v 0.2586424 0.08928541 -0.1241029
v 0.3636834 0.09264861 0.08232629
v 0.4043072 0.1132203 0.01701041
v -0.01800594 -0.01414985 0.001931912
v 0.1588512 0.1229558 -0.005764666
v -0.0002156967 -0.01487176 -0.02044613
v -0.03365386 0.1103579 0.2567076
v 0.09051269 0.1443961 0.321217
v 0.2541561 0.1609304 0.08615558
v 0.2523564 0.1154058 0.3281441
v 0.361766 0.1371056 0.1926686
v 0.3926534 0.04824017 0.3184537
v 0.4265934 0.03982372 0.2870516
v -0.1358947 0.1087573 0.1180185
v 0.1575204 -0.01789066 -0.04307687
v -0.1570252 -0.01092404 0.0178456
v 0.1824532 0.09970141 0.05401341
v 0.1861877 0.1479716 0.2268444
v -0.0673167 0.156669 0.283879
v 0.1092002 0.1187551 0.4405385
v 0.1714309 0.1218954 0.4159943
v -0.1941048 0.119636 0.0003564072
v 0.1599157 -0.01969857 0.07562717
v -0.1423401 -0.01246705 -0.09508721
v 0.1135568 0.1098544 0.1709995
v -0.005365708 0.1594169 0.3175989
v -0.2548167 0.1687707 0.1870946
v -0.217366 0.1091372 0.4370801
v -0.1490385 0.1138516 0.4609931
v -0.1412934 0.110864 -0.1175908
v 0.06923179 -0.01829322 0.1517199
v -0.04379196 -0.01120033 -0.1553336
v -0.02454028 0.101629 0.1927898
v -0.1988836 0.1494812 0.2252228
v -0.2981516 0.1583333 -0.02086927
v -0.4261268 0.1145519 0.1823897
v -0.3912982 0.1181202 0.2411362
v -0.03535507 0.1104238 -0.1863592
v -0.04606726 -0.01845018 0.1643052
v 0.06912644 -0.01095147 -0.1499781
v -0.1498276 0.1008284 0.1329963
v -0.3085933 0.1436767 0.0422614
v -0.2236189 0.1526756 -0.215579
v -0.4557899 0.09865946 -0.1412023
v -0.4677974 0.102835 -0.07240913
v 0.08845041 0.105212 -0.1449659
v -0.1292261 -0.01714596 0.08614957
v 0.1361581 -0.01064605 -0.06363702
v -0.1795535 0.09682421 0.008548848
v -0.2342093 0.1489729 -0.144754
v -0.02262127 0.1572849 -0.2724663
v -0.2295163 0.1345607 -0.3611656
v -0.2784875 0.1362965 -0.3206593
v 0.1771987 0.1129375 -0.06137527
v -0.1689958 -0.01868664 -0.01959877
v 0.1587508 -0.01147445 0.04363585
v -0.15542 0.1035309 -0.1231098
v -0.0917464 0.1509159 -0.2928333
v 0.1756116 0.159959 -0.2503422
v 0.06540041 0.1102461 -0.4681523
v -0.004245711 0.11423 -0.4688555
v 0.01544999 -0.01617137 -0.01118474
v -0.04234593 0.1392758 0.09234327
v 0.01557936 -0.01669312 0.01377091
v -0.0633015 0.1369416 -0.1912047
v -0.1740078 0.1981651 -0.1630844
v -0.1472712 0.2030383 0.08583117
v -0.2894294 0.1910287 -0.07511041
v -0.2790556 0.2058505 0.07699275
v -0.3888822 0.1576074 0.01230495
v -0.3944803 0.1512543 0.05244758
v 0.1596505 0.1210492 0.01948263
v -0.1560906 -0.01599114 -0.03438631
v 0.1402706 -0.01970719 0.06282647
v -0.1393207 0.1316999 -0.08285683
v -0.05117877 0.2104028 -0.2245169
v 0.1868515 0.1992659 -0.1393324
v 0.1263447 0.1850054 -0.3606562
v 0.06316356 0.1913756 -0.37523
v -0.01904451 -0.01622043 -0.0007074857
v 0.08831342 0.1453886 -0.03986255
v -0.004176462 -0.01611159 -0.02085441
v -0.07128134 0.1226959 0.1954342
v 0.02441162 0.1806876 0.2445521
v 0.1652907 0.2086119 0.03847432
v 0.1657183 0.1793883 0.2519922
v 0.2601335 0.2086435 0.1343501
v 0.2987739 0.1526293 0.2535917
v 0.3311001 0.1496465 0.2282979
v -0.1089135 0.0536969 -0.07935924
v 0.001137057 -0.01373335 0.02777072
v -0.02342054 -0.01706898 -0.009086173
v 0.03085981 0.05920491 0.1323229
v -0.180668 0.1416564 0.003805571
v -0.07615994 0.13839 0.1812231
v -0.2497412 0.1597307 0.08759369
v -0.2427478 0.1829287 0.1522329
v 0.01336803 -0.01739185 0.0107978
v -0.08632725 0.1614828 0.007445092
v -0.01200181 -0.01727527 0.01569054
v 0.1983665 0.1385031 -0.06355146
v 0.168512 0.2303505 -0.1391177
v -0.08132643 0.2604506 -0.07705938
v 0.07241867 0.2763496 -0.2362243
v -0.07931719 0.3115538 -0.2066289
v -0.02294098 0.2975935 -0.3360507
v -0.06489728 0.3008004 -0.3417598
v 0.0160609 0.07059214 0.1432507
v 0.02277077 -0.009440679 -0.02290542
v 0.01602545 -0.01371538 0.02491907
v 0.05710508 0.08221616 -0.1304217
v 0.1013795 0.1987976 0.1262181
v 0.1479828 0.2049518 -0.09381832
v 0.2071051 0.2563586 0.108007
v 0.2379979 0.2924418 0.04955435
v -0.147878 0.07207627 -0.03153177
v 0.01501665 -0.009608279 0.03072129
v -0.03026617 -0.01426169 0.008331537
v 0.1099779 0.08768781 0.0999287
v -0.1615496 0.2030772 0.05855886
v 0.04002426 0.2137037 0.1797214
v -0.181622 0.2592887 0.1698107
v -0.136062 0.2972865 0.2210965
v 0.07934476 0.06645649 -0.1340587
v -0.03468271 -0.009486493 0.004669716
v 0.001418637 -0.01498191 -0.03182457
v -0.1311637 0.09659313 0.07035594
v 0.00824088 0.1907062 -0.1822972
v -0.179934 0.2283479 -0.03911235
v -0.07916086 0.2453542 -0.245997
v -0.1415154 0.2918343 -0.2299011
v -0.01001009 -0.004398549 0.01265221
v 0.1202537 0.008209169 -0.1041469
v -0.003463025 -0.00519813 -0.01381894
v 0.07524805 0.01967377 0.1285191
v 0.2501999 0.02543612 -0.08922894
v 0.1836557 0.03756051 0.190428
v 0.3302827 0.01690418 0.1808421
v 0.3792672 0.008131249 0.001398482
v 0.3870309 0.01005822 0.2320487
v 0.4703704 -5.702972E-05 0.1448757
v 0.01610834 -0.004748636 -0.006736564
v -0.1816452 0.09301349 0.005756504
v -0.002782665 -0.00552944 0.01286022
v 0.006808643 0.07528341 -0.1958351
v -0.1160549 0.09620313 -0.3051874
v -0.2751601 0.1142805 -0.1179405
v -0.250209 0.05713513 -0.3495827
v -0.3444033 0.08290834 -0.2212487
v -0.3337994 0.03926633 -0.3513853
v -0.3695258 0.03688471 -0.3245719
vn -0.4973934 0.6955675 0.5184454
vn -0.3166844 0.8757462 0.3643895
vn -0.4973934 0.6955675 0.5184453
vn -0.2816321 0.8996516 0.333632
vn -0.01537066 0.9945486 0.1031354
vn 0.01297349 0.9967982 0.07889897
vn 0.3225161 0.9268225 -0.1923111
vn 0.3617431 0.904117 -0.2274076
vn 0.5293735 0.7576954 -0.3816561
vn 0.5293735 0.7576954 -0.3816561
vn -0.4548227 0.8904863 -0.01305704
vn -0.6669754 0.7450712 -0.003592953
vn -0.6669754 0.7450712 -0.003592953
vn -0.4465279 0.8946696 -0.0133854
vn -0.2444139 0.9696647 0.003483547
vn -0.2560189 0.9666713 0.000922397
vn -0.09996382 0.994387 0.03466555
vn -0.09996382 0.994387 0.03466555
vn -0.5738442 0.7181194 -0.3937099
vn -0.3976367 0.8844449 -0.2442175
vn -0.5738442 0.7181194 -0.3937099
vn -0.3629367 0.9065363 -0.2155667
vn -0.1075948 0.9941942 -0.001098563
vn -0.08130474 0.9964605 0.02135158
vn 0.2214487 0.9366938 0.2712289
vn 0.2618257 0.9162495 0.3032062
vn 0.4426715 0.7799823 0.4423455
vn 0.4426715 0.7799823 0.4423455
vn -0.08582268 0.8334323 -0.5459167
vn -0.1315368 0.6487156 -0.7495773
vn -0.1315368 0.6487156 -0.7495773
vn -0.0858196 0.8334419 -0.5459027
vn 0.008779338 0.995682 -0.0924136
vn 0.003219836 0.9927531 -0.1201291
vn 0.05755002 0.9861485 0.1555609
vn 0.05755002 0.9861485 0.1555609
vn 0.2894244 0.8317925 -0.4736611
vn 0.3912623 0.6335173 -0.6675101
vn 0.3912623 0.6335173 -0.66751
vn 0.2894089 0.8318144 -0.4736319
vn 0.04447662 0.9987227 -0.02397364
vn 0.06061798 0.9967444 -0.05316007
vn -0.09867229 0.9676664 0.2321327
vn -0.09867229 0.9676664 0.2321327
vn 0.5214845 0.8359358 -0.171071
vn 0.7182875 0.6492246 -0.2501406
vn 0.7182876 0.6492245 -0.2501406
vn 0.5214064 0.8359908 -0.1710402
vn 0.07778342 0.9969702 -0.0004588813
vn 0.1053179 0.9943797 -0.01081919
vn -0.1680161 0.9815823 0.09092268
vn -0.1680162 0.9815823 0.09092271
vn 0.4821505 0.853282 0.198597
vn 0.6898858 0.6724059 0.2681934
vn 0.6898858 0.6724059 0.2681934
vn 0.4820326 0.853358 0.1985568
vn 0.02258208 0.9990413 0.03750465
vn 0.05070638 0.9975808 0.04755461
vn -0.2299604 0.9717046 -0.05392938
vn -0.2299604 0.9717046 -0.05392938
vn 0.2677775 0.8159283 0.5124025
vn 0.3705098 0.6300067 0.6825057
vn 0.3705098 0.6300067 0.6825057
vn 0.2677257 0.8159997 0.5123157
vn 0.04720837 0.9896861 0.1352509
vn 0.06017678 0.9856436 0.1577506
vn -0.06887868 0.9953199 -0.0677782
vn -0.06887868 0.9953199 -0.0677782
vn -0.122493 0.8381373 0.5315273
vn -0.1571396 0.6494432 0.7439964
vn -0.1571396 0.6494432 0.7439964
vn -0.1224742 0.8382104 0.5314163
vn -0.03733375 0.9979449 0.05207936
vn -0.04277033 0.9957421 0.08165929
vn 0.01289358 0.9765344 -0.2149754
vn 0.01289358 0.9765344 -0.2149754
vn 0.920363 0.3855971 -0.06516845
vn 0.7206444 0.6903959 -0.06344417
vn 0.920363 0.3855971 -0.06516845
vn 0.6740631 0.7360479 -0.06222891
vn 0.3084868 0.9496772 -0.05430561
vn 0.2683915 0.9618155 -0.05363625
vn -0.1449086 0.9885553 -0.04195201
vn -0.187219 0.9814931 -0.04025344
vn -0.3866207 0.9217177 -0.0309988
vn -0.3866206 0.9217178 -0.0309988
vn -0.2250545 0.6439615 0.7312072
vn -0.2937428 0.3231613 0.899601
vn -0.2937429 0.3231613 0.899601
vn -0.2250877 0.6438521 0.7312933
vn -0.03133487 0.974318 0.2229856
vn -0.04421778 0.9657217 0.2557858
vn 0.08320284 0.9935643 -0.07685851
vn 0.08320284 0.9935643 -0.07685851
vn -0.7746767 0.3949761 -0.493832
vn -0.6267211 0.6950138 -0.352387
vn -0.7746767 0.3949761 -0.493832
vn -0.5920315 0.7385349 -0.3225909
vn -0.3157814 0.9451156 -0.08389683
vn -0.2839285 0.9572096 -0.05598613
vn 0.02985581 0.9778273 0.2072741
vn 0.06231599 0.9701268 0.2344585
vn 0.2146684 0.9089403 0.3574144
vn 0.2146684 0.9089403 0.3574144
vn 0.6043301 0.6913477 -0.3960097
vn 0.7523933 0.4141794 -0.5122107
vn 0.7523933 0.4141794 -0.5122107
vn 0.5978917 0.6996809 -0.3911165
vn 0.3954372 0.8782663 -0.268845
vn 0.4117926 0.8681937 -0.276887
vn 0.2139097 0.9605675 -0.1776312
vn 0.2139096 0.9605675 -0.1776312
vn 0.2457383 0.1548966 0.9568802
vn 0.2543799 0.4441773 0.8590677
vn 0.2457383 0.1548966 0.9568802
vn 0.2534824 0.489735 0.83421
vn 0.243127 0.7707102 0.5889781
vn 0.2415835 0.7960256 0.5549601
vn 0.2140756 0.954767 0.206377
vn 0.2109951 0.9631217 0.1669659
vn 0.1918296 0.9811754 -0.02227461
vn 0.1918296 0.9811754 -0.02227461
vn -0.8791381 0.4587529 -0.129081
vn -0.9709419 0.1979159 -0.1345401
vn -0.9709419 0.1979159 -0.1345401
vn -0.8744521 0.4677311 -0.1286897
vn -0.7259258 0.6818993 -0.08969367
vn -0.7373955 0.6688752 -0.0940951
vn -0.5792829 0.814254 -0.03770429
vn -0.5792829 0.8142541 -0.03770429
vn 0.3941379 0.4697927 -0.7899052
vn 0.4336175 0.1940971 -0.8799444
vn 0.4336175 0.1940971 -0.8799444
vn 0.392035 0.4791992 -0.7852876
vn 0.2992786 0.7011696 -0.6471425
vn 0.3077873 0.6878708 -0.6573436
vn 0.1947491 0.8350527 -0.5145481
vn 0.1947491 0.8350527 -0.5145481
vn 0.6325622 0.4832491 0.6052564
vn 0.6991056 0.2028122 0.685652
vn 0.6991055 0.2028122 0.6856521
vn 0.6301831 0.4896798 0.6025636
vn 0.5427875 0.7070934 0.4532112
vn 0.5479295 0.6950952 0.4654201
vn 0.4679899 0.832548 0.296394
vn 0.4679899 0.832548 0.296394
vn -0.1665343 0.982814 -0.07964391
vn -0.1364988 0.9878265 -0.07461119
vn -0.1665343 0.982814 -0.07964391
vn -0.1359093 0.9879153 -0.07451192
vn -0.004380513 0.998997 -0.04456247
vn 0.007758811 0.9991008 -0.0416808
vn 0.1278452 0.9917313 -0.01116534
vn 0.1325274 0.9911216 -0.01069751
vn 0.1170917 0.9930457 -0.01223774
vn 0.1170917 0.9930457 -0.01223774
vn 0.4336462 0.8333944 0.3426439
vn 0.2675464 0.94938 0.1646104
vn 0.4336462 0.8333943 0.342644
vn 0.2601412 0.9527429 0.1568675
vn 0.01814677 0.9958168 -0.08955245
vn 0.02421405 0.9962119 -0.08352084
vn -0.1758217 0.9440553 -0.2790094
vn -0.1719513 0.9458816 -0.2752105
vn -0.2242385 0.9183083 -0.3262312
vn -0.2242385 0.9183083 -0.3262312
vt 0.9192747 0.5247755
vt 1.022034 0.66574
vt 0.9412959 0.5246772
vt 0.7498648 0.6663009
vt 0.7604124 0.7713237
vt 1.012547 0.7637088
vt 0.8452957 0.8714464
vt 0.9912347 0.8696934
vt 0.9167016 0.9669083
vt 0.9518124 0.9757047
vt 0.2554915 0.144637
vt 0.4080968 0.0758708
vt 0.3639184 0.07204701
vt 0.5084507 0.1626473
vt 0.2756541 0.2820752
vt 0.4797492 0.3094212
vt 0.2979404 0.3878406
vt 0.3530781 0.4182402
vt 0.9192747 0.5247755
vt 1.022034 0.66574
vt 0.9412959 0.5246772
vt 0.7498648 0.6663009
vt 0.7604124 0.7713237
vt 1.012547 0.7637088
vt 0.8452957 0.8714464
vt 0.9912347 0.8696934
vt 0.9167016 0.9669083
vt 0.9518124 0.9757047
vt -0.01389964 0.171023
vt 0.2378117 0.05356926
vt -0.01039723 0.05820401
vt 0.2423105 0.1710528
vt 0.2161528 0.3056557
vt 0.01108294 0.3073527
vt 0.1206289 0.4496804
vt 0.1727592 0.4418276
vt -0.01389964 0.171023
vt 0.2378117 0.05356926
vt -0.01039723 0.05820401
vt 0.2423105 0.1710528
vt 0.2161528 0.3056557
vt 0.01108294 0.3073527
vt 0.1206289 0.4496804
vt 0.1727592 0.4418276
vt -0.01389964 0.171023
vt 0.2378117 0.05356926
vt -0.01039723 0.05820401
vt 0.2423105 0.1710528
vt 0.2161528 0.3056557
vt 0.01108294 0.3073527
vt 0.1206289 0.4496804
vt 0.1727592 0.4418276
vt -0.01389964 0.171023
vt 0.2378117 0.05356926
vt -0.01039723 0.05820401
vt 0.2423105 0.1710528
vt 0.2161528 0.3056557
vt 0.01108294 0.3073527
vt 0.1206289 0.4496804
vt 0.1727592 0.4418276
vt -0.01389964 0.171023
vt 0.2378117 0.05356926
vt -0.01039723 0.05820401
vt 0.2423105 0.1710528
vt 0.2161528 0.3056557
vt 0.01108294 0.3073527
vt 0.1206289 0.4496804
vt 0.1727592 0.4418276
vt -0.01389964 0.171023
vt 0.2378117 0.05356926
vt -0.01039723 0.05820401
vt 0.2423105 0.1710528
vt 0.2161528 0.3056557
vt 0.01108294 0.3073527
vt 0.1206289 0.4496804
vt 0.1727592 0.4418276
vt 0.9192747 0.5247755
vt 1.022034 0.66574
vt 0.9412959 0.5246772
vt 0.7498648 0.6663009
vt 0.7604124 0.7713237
vt 1.012547 0.7637088
vt 0.8452957 0.8714464
vt 0.9912347 0.8696934
vt 0.9167016 0.9669083
vt 0.9518124 0.9757047
vt -0.01389964 0.171023
vt 0.2378117 0.05356926
vt -0.01039723 0.05820401
vt 0.2423105 0.1710528
vt 0.2161528 0.3056557
vt 0.01108294 0.3073527
vt 0.1206289 0.4496804
vt 0.1727592 0.4418276
vt 0.9192747 0.5247755
vt 1.022034 0.66574
vt 0.9412959 0.5246772
vt 0.7498648 0.6663009
vt 0.7604124 0.7713237
vt 1.012547 0.7637088
vt 0.8452957 0.8714464
vt 0.9912347 0.8696934
vt 0.9167016 0.9669083
vt 0.9518124 0.9757047
vt 0.2554915 0.144637
vt 0.4080968 0.0758708
vt 0.3639184 0.07204701
vt 0.5084507 0.1626473
vt 0.2756541 0.2820752
vt 0.4797492 0.3094212
vt 0.2979404 0.3878406
vt 0.3530781 0.4182402
vt 0.9192747 0.5247755
vt 1.022034 0.66574
vt 0.9412959 0.5246772
vt 0.7498648 0.6663009
vt 0.7604124 0.7713237
vt 1.012547 0.7637088
vt 0.8452957 0.8714464
vt 0.9912347 0.8696934
vt 0.9167016 0.9669083
vt 0.9518124 0.9757047
vt 0.2554915 0.144637
vt 0.4080968 0.0758708
vt 0.3639184 0.07204701
vt 0.5084507 0.1626473
vt 0.2756541 0.2820752
vt 0.4797492 0.3094212
vt 0.2979404 0.3878406
vt 0.3530781 0.4182402
vt 0.2554915 0.144637
vt 0.4080968 0.0758708
vt 0.3639184 0.07204701
vt 0.5084507 0.1626473
vt 0.2756541 0.2820752
vt 0.4797492 0.3094212
vt 0.2979404 0.3878406
vt 0.3530781 0.4182402
vt 0.2554915 0.144637
vt 0.4080968 0.0758708
vt 0.3639184 0.07204701
vt 0.5084507 0.1626473
vt 0.2756541 0.2820752
vt 0.4797492 0.3094212
vt 0.2979404 0.3878406
vt 0.3530781 0.4182402
vt 0.6064948 0.01259202
vt 0.7232805 0.09493127
vt 0.6286127 0.01249218
vt 0.5306213 0.1039937
vt 0.7328098 0.2176546
vt 0.4997472 0.2071716
vt 0.5276575 0.3208684
vt 0.6769704 0.3421744
vt 0.4912709 0.3638928
vt 0.5636496 0.4201484
vt 0.8653993 0.01326272
vt 0.9818271 0.1439409
vt 0.8875172 0.01316291
vt 0.7583702 0.1403797
vt 0.7604114 0.2681676
vt 0.9590787 0.2637299
vt 0.8019271 0.3713064
vt 0.930829 0.3635679
vt 0.8426067 0.4295298
vt 0.8778483 0.4384407
f 1/1/1 2/2/2 3/3/3
f 1/1/1 4/4/4 2/2/2
f 5/5/5 2/2/2 4/4/4
f 5/5/5 6/6/6 2/2/2
f 7/7/7 6/6/6 5/5/5
f 7/7/7 8/8/8 6/6/6
f 9/9/9 8/8/8 7/7/7
f 9/9/9 10/10/10 8/8/8
f 11/11/11 12/12/12 13/13/13
f 11/11/11 14/14/14 12/12/12
f 15/15/15 14/14/14 11/11/11
f 15/15/15 16/16/16 14/14/14
f 17/17/17 16/16/16 15/15/15
f 17/17/17 18/18/18 16/16/16
f 19/19/19 20/20/20 21/21/21
f 19/19/19 22/22/22 20/20/20
f 23/23/23 20/20/20 22/22/22
f 23/23/23 24/24/24 20/20/20
f 25/25/25 24/24/24 23/23/23
f 25/25/25 26/26/26 24/24/24
f 27/27/27 26/26/26 25/25/25
f 27/27/27 28/28/28 26/26/26
f 29/29/29 30/30/30 31/31/31
f 29/29/29 32/32/32 30/30/30
f 29/29/29 33/33/33 32/32/32
f 29/29/29 34/34/34 33/33/33
f 35/35/35 33/33/33 34/34/34
f 35/35/35 36/36/36 33/33/33
f 37/37/37 38/38/38 39/39/39
f 37/37/37 40/40/40 38/38/38
f 37/37/37 41/41/41 40/40/40
f 37/37/37 42/42/42 41/41/41
f 43/43/43 41/41/41 42/42/42
f 43/43/43 44/44/44 41/41/41
f 45/45/45 46/46/46 47/47/47
f 45/45/45 48/48/48 46/46/46
f 45/45/45 49/49/49 48/48/48
f 45/45/45 50/50/50 49/49/49
f 51/51/51 49/49/49 50/50/50
f 51/51/51 52/52/52 49/49/49
f 53/53/53 54/54/54 55/55/55
f 53/53/53 56/56/56 54/54/54
f 53/53/53 57/57/57 56/56/56
f 53/53/53 58/58/58 57/57/57
f 59/59/59 57/57/57 58/58/58
f 59/59/59 60/60/60 57/57/57
f 61/61/61 62/62/62 63/63/63
f 61/61/61 64/64/64 62/62/62
f 61/61/61 65/65/65 64/64/64
f 61/61/61 66/66/66 65/65/65
f 67/67/67 65/65/65 66/66/66
f 67/67/67 68/68/68 65/65/65
f 69/69/69 70/70/70 71/71/71
f 69/69/69 72/72/72 70/70/70
f 69/69/69 73/73/73 72/72/72
f 69/69/69 74/74/74 73/73/73
f 75/75/75 73/73/73 74/74/74
f 75/75/75 76/76/76 73/73/73
f 77/77/77 78/78/78 79/79/79
f 77/77/77 80/80/80 78/78/78
f 81/81/81 78/78/78 80/80/80
f 81/81/81 82/82/82 78/78/78
f 83/83/83 82/82/82 81/81/81
f 83/83/83 84/84/84 82/82/82
f 85/85/85 84/84/84 83/83/83
f 85/85/85 86/86/86 84/84/84
f 87/87/87 88/88/88 89/89/89
f 87/87/87 90/90/90 88/88/88
f 87/87/87 91/91/91 90/90/90
f 87/87/87 92/92/92 91/91/91
f 93/93/93 91/91/91 92/92/92
f 93/93/93 94/94/94 91/91/91
f 95/95/95 96/96/96 97/97/97
f 95/95/95 98/98/98 96/96/96
f 99/99/99 96/96/96 98/98/98
f 99/99/99 100/100/100 96/96/96
f 101/101/101 100/100/100 99/99/99
f 101/101/101 102/102/102 100/100/100
f 103/103/103 102/102/102 101/101/101
f 103/103/103 104/104/104 102/102/102
f 105/105/105 106/106/106 107/107/107
f 105/105/105 108/108/108 106/106/106
f 109/109/109 108/108/108 105/105/105
f 109/109/109 110/110/110 108/108/108
f 111/111/111 110/110/110 109/109/109
f 111/111/111 112/112/112 110/110/110
f 113/113/113 114/114/114 115/115/115
f 113/113/113 116/116/116 114/114/114
f 117/117/117 114/114/114 116/116/116
f 117/117/117 118/118/118 114/114/114
f 119/119/119 118/118/118 117/117/117
f 119/119/119 120/120/120 118/118/118
f 121/121/121 120/120/120 119/119/119
f 121/121/121 122/122/122 120/120/120
f 123/123/123 124/124/124 125/125/125
f 123/123/123 126/126/126 124/124/124
f 127/127/127 126/126/126 123/123/123
f 127/127/127 128/128/128 126/126/126
f 129/129/129 128/128/128 127/127/127
f 129/129/129 130/130/130 128/128/128
f 131/131/131 132/132/132 133/133/133
f 131/131/131 134/134/134 132/132/132
f 135/135/135 134/134/134 131/131/131
f 135/135/135 136/136/136 134/134/134
f 137/137/137 136/136/136 135/135/135
f 137/137/137 138/138/138 136/136/136
f 139/139/139 140/140/140 141/141/141
f 139/139/139 142/142/142 140/140/140
f 143/143/143 142/142/142 139/139/139
f 143/143/143 144/144/144 142/142/142
f 145/145/145 144/144/144 143/143/143
f 145/145/145 146/146/146 144/144/144
f 147/147/147 148/148/148 149/149/149
f 147/147/147 150/150/150 148/148/148
f 150/150/150 151/151/151 148/148/148
f 150/150/150 152/152/152 151/151/151
f 153/153/153 151/151/151 152/152/152
f 153/153/153 154/154/154 151/151/151
f 155/155/155 154/154/154 153/153/153
f 155/155/155 156/156/156 154/154/154
f 157/157/157 158/158/158 159/159/159
f 157/157/157 160/160/160 158/158/158
f 161/161/161 158/158/158 160/160/160
f 161/161/161 162/162/162 158/158/158
f 163/163/163 162/162/162 161/161/161
f 163/163/163 164/164/164 162/162/162
f 165/165/165 164/164/164 163/163/163
f 165/165/165 166/166/166 164/164/164
