v 0.04985877 0.001760442 0.04850005
v 0.08200829 0.00564016 -0.005740079
v 0.02563758 1.982994 0.02098564
v 0.03567417 3.644922 -0.02055749
v -0.008806977 3.186624 -0.07636698
v 0.09107552 4.145996 -0.04410783
v 0.002959291 0.004848351 0.0003621875
v 0.04255287 4.159655 -0.04387295
v -0.04319302 2.978255 -0.02119663
v 0.0003325688 0.004283965 0.0613224
v 0.03567417 3.644922 -0.02055749
v 0.09107552 4.145996 -0.04410783
v 0.02563758 1.982994 0.02098564
v 0.04985877 0.001760442 0.04850005
v -0.2862552 4.186352 -0.07703426
v 0.03603131 4.089251 0.009115817
v -0.004110827 4.123923 -0.1504111
v 0.212635 2.959877 -0.1625524
v 0.4242821 2.929462 -0.08117601
v 0.3969988 3.027122 -0.3383212
v 0.2707588 4.079679 0.1156617
v 0.2316618 4.011531 0.3200593
v 0.4518993 3.964333 0.1897219
v 0.01899724 2.226435 -0.04813458
v -0.2309616 2.24932 0.05309356
v -0.07120907 2.204841 0.1635948
v 0.0008643002 1.709618 -0.03751751
v 0.01466251 1.669087 0.2387612
v 0.2406334 1.73003 0.1815577
v -0.26246 2.236735 -0.17199
v -0.3247714 2.320739 0.02711157
v 0.01899724 2.226435 -0.04813458
v 0.003581161 2.158988 -0.1526812
v 0.4124659 1.826036 0.1226712
v 0.0008643002 1.709618 -0.03751751
v 0.2998032 1.765956 0.183278
v 0.3670637 1.731401 -0.05699951
v 0.05901901 1.637488 -0.1450336
v 0.104987 2.173114 -0.3458067
v -0.01213125 1.992551 -0.03282674
v 0.1253049 2.055873 -0.02764345
v 0.2380722 2.191964 -0.2810379
v -0.1860518 4.028951 -0.288334
v 0.0254687 3.718432 -0.02760566
v -0.02705891 3.758008 -0.1810427
v -0.2662539 4.002207 -0.1576251
v -0.009016428 3.095413 -0.0116195
v 0.06174553 3.161665 -0.1300753
v -0.2099183 3.281841 -0.1806108
v -0.1418149 3.326112 -0.3137366
v -0.2986908 2.681252 -0.02583985
v -0.6367978 2.649384 -0.06391998
v -0.5511069 2.706015 0.07970623
v -0.4652348 2.530319 -0.2663912
v 0.3182758 3.756071 0.2089749
v 0.5408019 3.832381 0.1500544
v 0.5302415 3.810705 0.02190044
v 0.3044239 3.701376 -0.02000451
v -0.2080491 3.829744 0.4841461
v 0.146033 3.681861 0.5839692
v 0.2494864 3.741041 0.4533415
v 0.07153489 3.829063 0.2669719
v 0.04618207 3.928482 -0.2507573
v 0.06643551 4.011137 -0.4946912
v -0.03461975 3.991228 -0.4292062
v 0.2682665 3.928611 -0.3545306
v 0.1109948 2.711525 0.2201113
v -0.07803029 2.800557 0.4244715
v 0.07047977 2.82525 0.4515466
v 0.01935682 2.585128 -0.03814863
v -0.1013406 2.572153 0.1122909
v 0.4287507 2.162131 0.2913925
v -0.03057984 1.954278 0.1620668
v 0.3296666 2.167765 0.4066918
v 0.2718011 2.044756 0.07182106
v 0.02534209 1.86666 -0.03628326
v 0.187113 3.200807 -0.1241071
v -0.01796473 3.147648 -0.01301022
v 0.4470579 3.437941 -0.05361472
v 0.3820117 3.333978 0.1034732
v 0.1988304 3.14228 0.1378063
v -0.3020596 2.442502 -0.2616171
v -0.4652348 2.530319 -0.2663912
v -0.2986908 2.681252 -0.02583985
v -0.001342278 2.476502 -0.03000473
v -0.4283248 2.734697 0.2470284
v -0.5511069 2.706015 0.07970623
v 0.2918692 2.840011 -0.006108322
v 0.4242821 2.929462 -0.08117601
v 0.212635 2.959877 -0.1625524
v 0.0005484772 2.791705 -0.02296814
v 0.18421 3.066216 -0.3413034
v 0.3969988 3.027122 -0.3383212
v 0.1803266 3.630556 0.1784629
v 0.3182758 3.756071 0.2089749
v 0.3044239 3.701376 -0.02000451
v 0.01537392 3.49002 -0.03714642
v 0.4685453 3.753918 -0.1627832
v 0.5302415 3.810705 0.02190044
v -0.2536325 3.799435 0.2484987
v -0.2080491 3.829744 0.4841461
v 0.07153489 3.829063 0.2669719
v 0.02008114 3.679976 -0.05043232
v 0.3725493 3.844283 0.3296348
v 0.2494864 3.741041 0.4533415
v 0.2530866 3.822372 -0.2194658
v 0.2682665 3.928611 -0.3545306
v 0.04618207 3.928482 -0.2507573
v 0.02560459 3.734685 -0.0484824
v -0.1445773 3.953457 -0.3659464
v -0.03461975 3.991228 -0.4292062
v 0.1076906 4.044895 0.2244847
v 0.2316618 4.011531 0.3200593
v 0.2707588 4.079679 0.1156617
v 0.05781174 4.072806 -0.04454242
v 0.4439641 4.086433 0.0390953
v 0.4518993 3.964333 0.1897219
v -0.2805679 1.886962 -0.4073787
v 0.005146457 1.764565 0.02087344
v -0.1328778 1.818835 -0.389411
v -0.3564369 1.781393 -0.204639
v -0.1210344 1.681327 0.08712711
v 0.005146457 1.764565 0.02087344
v 0.1761312 1.712262 -0.249668
v 0.02621422 1.759585 -0.3756978
v -0.1115791 1.774831 -0.2947448
v 0.02551454 2.383616 -0.002882012
v -0.2295046 2.366212 -0.3682069
v -0.2973607 2.308356 -0.1657099
v -0.05060688 2.392957 -0.3698063
v 0.2356886 2.416147 -0.4261992
v 0.02551454 2.383616 -0.002882012
v 0.184645 2.298971 -0.02196766
v 0.04362377 2.524627 -0.5629162
v -0.08674598 2.440872 -0.468227
vn 0.8595553 0.01760123 0.5107396
vn 0.8717983 -0.006097544 -0.489827
vn 0.2846843 0.02072415 0.9583973
vn 0.509272 -0.04526239 0.8594146
vn -0.1766415 0.05594092 -0.9826843
vn 0.05036113 0.02832589 -0.9983293
vn -0.7242479 -0.02669131 -0.689023
vn -0.4092227 0.912431 -0.002534368
vn -0.9338338 0.01330692 0.3574595
vn -0.6011147 0.001502816 0.7991614
vn 0.509272 -0.04526239 0.8594146
vn 0.01750444 0.04500951 0.9988332
vn 0.2846843 0.02072415 0.9583973
vn 0.2513907 0.01651289 0.9677448
vn 0.2496183 0.9573854 0.1452719
vn 0.2496183 0.9573854 0.1452719
vn 0.2496183 0.9573854 0.1452719
vn -0.002256744 0.9347687 0.3552496
vn -0.002256744 0.9347689 0.3552496
vn -0.002256744 0.9347689 0.3552496
vn 0.3931732 0.8470652 0.3576245
vn 0.3931732 0.8470652 0.3576245
vn 0.3931732 0.8470652 0.3576245
vn 0.1563351 0.9736699 0.1659102
vn 0.1563351 0.97367 0.1659103
vn 0.1563351 0.97367 0.1659103
vn -0.221215 0.9632497 0.1523617
vn -0.221215 0.9632497 0.1523617
vn -0.221215 0.9632497 0.1523617
vn 0.2019017 0.901036 -0.3838879
vn 0.1807347 0.9251626 -0.3337802
vn 0.2395163 0.8474211 -0.4738242
vn 0.2708286 0.7902156 -0.5497374
vn -0.2235919 0.966277 -0.1277321
vn -0.1250581 0.8845903 -0.4492888
vn -0.3507479 0.9040692 0.2442025
vn -0.07741138 0.8765808 -0.4749881
vn -0.07913022 0.8075 -0.5845359
vn -0.3242084 0.8807341 0.3452481
vn -0.404209 0.8495756 0.3388752
vn -0.3808099 0.8594678 0.3410262
vn -0.2949365 0.8903177 0.3469103
vn 0.6072068 0.7111509 0.3543504
vn 0.8022213 0.5943018 0.05697797
vn 0.8777896 0.4411615 -0.1867134
vn 0.5055056 0.7302357 0.4595867
vn 0.2376188 0.7803749 0.5784048
vn 0.2532503 0.8007504 0.5428286
vn 0.2815993 0.8352058 0.4723697
vn 0.2956446 0.8509117 0.4342158
vn -0.03264371 0.8899372 -0.4549132
vn -0.03507194 0.8974776 -0.4396635
vn -0.05017491 0.9389783 -0.3402973
vn -0.02183538 0.8536008 -0.52047
vn -0.3842521 0.9073694 -0.1703849
vn -0.3518457 0.9272857 -0.1278502
vn -0.3745044 0.9137549 -0.1574753
vn -0.3990078 0.8970199 -0.1901264
vn 0.2008389 0.9098613 0.3630649
vn 0.1956999 0.8257046 0.5290686
vn 0.2002049 0.8917035 0.4059346
vn 0.200556 0.9458524 0.2552262
vn 0.1129288 0.9381609 0.3272634
vn 0.09105743 0.9408498 0.3263586
vn 0.02256957 0.9462945 0.322517
vn 0.1529625 0.9320318 0.3285106
vn -0.0437247 0.9004588 -0.432738
vn -0.1522304 0.8783707 -0.4530902
vn -0.0662055 0.8908921 -0.4493641
vn -0.3880481 0.8015302 -0.4549376
vn -0.6138849 0.6582311 -0.4357489
vn -0.3256451 0.8999737 -0.2898321
vn -0.3619638 0.8497763 -0.3832263
vn -0.3161006 0.8947736 -0.3153738
vn -0.3544752 0.8857299 -0.2997162
vn -0.3778584 0.8028333 -0.4611742
vn -0.4760718 0.6855866 -0.5507511
vn -0.5649652 0.8042586 0.1843429
vn -0.5188135 0.8471462 0.1147862
vn -0.480933 0.7682031 0.4225722
vn -0.4620763 0.5641054 0.684303
vn 0.3955754 0.6425182 -0.6562701
vn 0.3694068 0.6503187 -0.6637952
vn 0.4573669 0.8525767 -0.2528406
vn 0.5120682 0.7520925 -0.4149012
vn 0.2269917 0.9704187 -0.08223236
vn 0.01987615 0.9828984 -0.183073
vn -0.1506824 0.7464048 0.6482089
vn -0.1405789 0.750249 0.6460372
vn -0.1593412 0.8027783 0.5745931
vn -0.2068053 0.7660022 0.6086643
vn 0.01839281 0.860558 0.5090203
vn 0.1511562 0.8599222 0.4875301
vn -0.6147279 0.781658 -0.1054532
vn -0.6493931 0.7475882 -0.1392859
vn -0.5508573 0.8041595 -0.2233465
vn -0.5770869 0.8018051 -0.1551752
vn -0.4505316 0.8706439 -0.1974851
vn -0.4102999 0.9011375 -0.140018
vn -0.07435513 0.9672776 -0.2425804
vn -0.08391646 0.9902561 -0.1111348
vn -0.03719714 0.9681237 -0.247695
vn -0.01814393 0.9061051 -0.4226633
vn -0.08883251 0.9779115 0.1892032
vn -0.1539587 0.828553 0.5383278
vn 0.2688478 0.7146581 0.6457434
vn 0.2855946 0.7373956 0.6121138
vn -0.03098148 0.7678124 0.6399252
vn 0.04217501 0.7192883 0.6934304
vn -0.1784541 0.8580465 0.4815709
vn -0.1033763 0.9227533 0.3712678
vn -0.05456832 0.9719214 0.2288908
vn 0.009989329 0.9480397 0.3179952
vn 0.0005066275 0.9790155 0.2037854
vn -0.09371717 0.9922161 0.08200245
vn 0.1552228 0.8895732 0.4296106
vn 0.2373954 0.7607039 0.60413
vn 0.1026906 0.9724204 0.2094117
vn -0.1616474 0.8941131 0.4176504
vn 0.4209397 0.9068301 -0.02165862
vn -0.2163247 0.8847277 0.4128689
vn -0.2758512 0.8188395 0.5033964
vn 0.2153368 0.9765395 -0.0008252203
vn 0.2980759 0.9545344 0.003846654
vn 0.2010848 0.9795725 -0.001620445
vn 0.1059889 0.9943436 -0.006857913
vn -0.2351141 0.9647584 0.1181635
vn -0.2260565 0.9676886 0.1117011
vn -0.3027735 0.9383793 0.1666507
vn -0.1471396 0.9875481 0.0556662
vn 0.3676296 0.895366 0.2513327
vn 0.3183965 0.9038807 0.2856981
vn 0.4757983 0.8268921 0.2997756
vn -0.02537364 0.9696146 0.2433183
vn -0.4163829 0.8847679 0.2093112
vt 0.1448975 0.4584961
vt 0.1087646 0.4589844
vt 0.1450195 0.7905273
vt 0.1315918 1.068359
vt 0.08514404 0.9921722
vt 0.1185303 1.153931
vt 0.06829834 0.4589844
vt 0.04684448 1.156982
vt 0.04025269 0.9573975
vt 0.03103638 0.4589844
vt -0.0007405281 1.067444
vt -0.01217651 1.153809
vt 0.006061554 0.7905273
vt 0.001823425 0.4584961
vt 0.8295898 0.5593262
vt 0.9042969 0.7854004
vt 0.7719727 0.7485352
vt 0.6943359 0.3837891
vt 0.4602051 0.4731445
vt 0.7333984 0.6228027
vt 0.6948242 0.3842773
vt 0.4606934 0.4707031
vt 0.7314453 0.6254883
vt 0.8945313 0.02099609
vt 0.7944336 0.2158203
vt 0.7133789 0.0703125
vt 0.8964844 0.02001953
vt 0.7133789 0.0703125
vt 0.7944336 0.2158203
vt 0.996582 0.253418
vt 0.8168945 0.3110352
vt 0.8945313 0.02099609
vt 0.9960938 0.02148438
vt 0.8676758 0.3334961
vt 0.8964844 0.02001953
vt 0.8046875 0.2607422
vt 0.996582 0.253418
vt 0.9960938 0.02148438
vt 0.9057617 0.5769043
vt 0.8803711 0.7979736
vt 0.7734375 0.753418
vt 0.7827148 0.5734863
vt 0.7792969 0.5812988
vt 0.8808594 0.802002
vt 0.7749023 0.7579346
vt 0.9047852 0.5844727
vt 0.8823242 0.7988281
vt 0.7729492 0.7547607
vt 0.90625 0.5900879
vt 0.7827148 0.5734863
vt 0.6806641 0.3857422
vt 0.6567383 0.640625
vt 0.7631836 0.5822754
vt 0.4714355 0.4858398
vt 0.4577637 0.4765625
vt 0.6567383 0.640625
vt 0.7631836 0.5822754
vt 0.6938477 0.3837891
vt 0.4619141 0.4677734
vt 0.6567383 0.640625
vt 0.7631836 0.5822754
vt 0.6953125 0.3842773
vt 0.6948242 0.3857422
vt 0.6567383 0.640625
vt 0.7631836 0.5822754
vt 0.4633789 0.4731445
vt 0.9223633 0.6760254
vt 0.777832 0.581543
vt 0.8701172 0.5637207
vt 0.8813477 0.8009033
vt 0.7749023 0.7559814
vt 0.8691406 0.5632324
vt 0.7734375 0.7563477
vt 0.7827148 0.5734863
vt 0.9223633 0.6760254
vt 0.8818359 0.796875
vt 0.9267578 0.7160645
vt 0.8632813 0.8172607
vt 0.8676758 0.5625
vt 0.7827148 0.5734863
vt 0.769043 0.7387695
vt 0.4753418 0.3022461
vt 0.4614258 0.4658203
vt 0.6962891 0.3823242
vt 0.7104492 0.1171875
vt 0.8847656 0.4912109
vt 0.7631836 0.5822754
vt 0.4753418 0.3022461
vt 0.458252 0.4707031
vt 0.6962891 0.3828125
vt 0.7104492 0.1171875
vt 0.887207 0.4931641
vt 0.7363281 0.6218262
vt 0.4753418 0.3022461
vt 0.4558105 0.4692383
vt 0.6982422 0.3828125
vt 0.7104492 0.1171875
vt 0.8847656 0.4790039
vt 0.7631836 0.5822754
vt 0.4753418 0.3022461
vt 0.4626465 0.4760742
vt 0.6958008 0.3813477
vt 0.7104492 0.1171875
vt 0.8847656 0.4975586
vt 0.7631836 0.5822754
vt 0.4753418 0.3022461
vt 0.4631348 0.4702148
vt 0.6943359 0.3837891
vt 0.7104492 0.1171875
vt 0.8847656 0.4990234
vt 0.7631836 0.5822754
vt 0.4753418 0.3022461
vt 0.4592285 0.472168
vt 0.6958008 0.3828125
vt 0.7104492 0.1171875
vt 0.8862305 0.4946289
vt 0.7333984 0.6289063
vt 0.8676758 0.3334961
vt 0.8964844 0.02001953
vt 0.8046875 0.2607422
vt 0.996582 0.253418
vt 0.9960938 0.02148438
vt 0.8964844 0.02001953
vt 0.7133789 0.0703125
vt 0.7358398 0.1884766
vt 0.8305664 0.2041016
vt 0.8964844 0.02099609
vt 0.7358398 0.1884766
vt 0.7133789 0.0703125
vt 0.8305664 0.2041016
vt 0.996582 0.253418
vt 0.8964844 0.02099609
vt 0.9960938 0.02148438
vt 0.8676758 0.3334961
vt 0.8046875 0.2612305
f 1/1/1 2/2/2 3/3/3
f 4/4/4 3/3/3 2/2/2
f 5/5/5 4/4/4 2/2/2
f 4/4/4 5/5/5 6/6/6
f 2/2/2 7/7/7 5/5/5
f 8/8/8 6/6/6 5/5/5
f 7/7/7 9/9/9 5/5/5
f 5/5/5 9/9/9 8/8/8
f 7/7/7 10/10/10 9/9/9
f 9/9/9 11/11/11 8/8/8
f 12/12/12 8/8/8 11/11/11
f 11/11/11 9/9/9 13/13/13
f 10/10/10 13/13/13 9/9/9
f 13/13/13 10/10/10 14/14/14
f 15/15/15 16/16/16 17/17/17
f 18/18/18 19/19/19 20/20/20
f 21/21/21 22/22/22 23/23/23
f 24/24/24 25/25/25 26/26/26
f 27/27/27 28/28/28 29/29/29
f 30/30/30 31/31/31 32/32/32
f 30/30/30 32/32/32 33/33/33
f 34/34/34 35/35/35 36/36/36
f 37/37/37 35/35/35 34/34/34
f 37/37/37 38/38/38 35/35/35
f 39/39/39 40/40/40 41/41/41
f 42/42/42 39/39/39 41/41/41
f 43/43/43 44/44/44 45/45/45
f 46/46/46 44/44/44 43/43/43
f 47/47/47 48/48/48 49/49/49
f 49/49/49 48/48/48 50/50/50
f 51/51/51 52/52/52 53/53/53
f 54/54/54 52/52/52 51/51/51
f 55/55/55 56/56/56 57/57/57
f 58/58/58 55/55/55 57/57/57
f 59/59/59 60/60/60 61/61/61
f 62/62/62 59/59/59 61/61/61
f 63/63/63 64/64/64 65/65/65
f 66/66/66 64/64/64 63/63/63
f 67/67/67 68/68/68 69/69/69
f 67/67/67 70/70/70 68/68/68
f 68/68/68 70/70/70 71/71/71
f 72/72/72 73/73/73 74/74/74
f 75/75/75 73/73/73 72/72/72
f 75/75/75 76/76/76 73/73/73
f 77/77/77 78/78/78 79/79/79
f 79/79/79 78/78/78 80/80/80
f 80/80/80 78/78/78 81/81/81
f 82/82/82 83/83/83 84/84/84
f 85/85/85 82/82/82 84/84/84
f 86/86/86 85/85/85 84/84/84
f 86/86/86 84/84/84 87/87/87
f 88/88/88 89/89/89 90/90/90
f 91/91/91 88/88/88 90/90/90
f 92/92/92 91/91/91 90/90/90
f 92/92/92 90/90/90 93/93/93
f 94/94/94 95/95/95 96/96/96
f 97/97/97 94/94/94 96/96/96
f 98/98/98 97/97/97 96/96/96
f 98/98/98 96/96/96 99/99/99
f 100/100/100 101/101/101 102/102/102
f 103/103/103 100/100/100 102/102/102
f 104/104/104 103/103/103 102/102/102
f 104/104/104 102/102/102 105/105/105
f 106/106/106 107/107/107 108/108/108
f 109/109/109 106/106/106 108/108/108
f 110/110/110 109/109/109 108/108/108
f 110/110/110 108/108/108 111/111/111
f 112/112/112 113/113/113 114/114/114
f 115/115/115 112/112/112 114/114/114
f 116/116/116 115/115/115 114/114/114
f 116/116/116 114/114/114 117/117/117
f 118/118/118 119/119/119 120/120/120
f 121/121/121 119/119/119 118/118/118
f 121/121/121 122/122/122 119/119/119
f 123/123/123 124/124/124 125/125/125
f 125/125/125 126/126/126 123/123/123
f 127/127/127 128/128/128 129/129/129
f 128/128/128 127/127/127 130/130/130
f 131/131/131 132/132/132 133/133/133
f 131/131/131 134/134/134 132/132/132
f 134/134/134 135/135/135 132/132/132
