v 0.07071929 4.132391 -0.02863647
v 0.0778891 4.134321 -0.0562397
v 0.04255287 4.159655 -0.04387295
v 0.04985877 0.001760442 0.04850005
v 0.07069578 0.001515803 0.002772186
v 0.05045767 1.018071 0.05026888
v 0.06799804 0.9447726 0.01199483
v 0.04767621 0.001446201 -0.03853318
v 0.01899596 2.331179 0.0005459897
v 0.04531233 1.047908 -0.02099098
v 0.002179748 0.001371236 -0.03155329
v 0.03758204 2.257133 -0.03766536
v 0.02044535 3.11422 0.004582296
v 0.03393204 3.126439 -0.03967279
v 0.03350342 3.666483 -0.02695667
v 0.002842436 2.34225 -0.06681143
v 0.003854068 1.351847 -0.02423981
v 0.0426012 3.670527 -0.06575371
v 0.07071929 4.132391 -0.02863647
v 0.0778891 4.134321 -0.0562397
v -0.009707595 0.9164323 0.01405719
v -0.02391868 0.001377106 0.006137276
v -0.002265054 0.001452634 0.0526536
v -0.01105679 3.18219 -0.05405815
v 0.004563217 3.6745 -0.07497433
v 0.04255287 4.159655 -0.04387295
v -0.03792835 2.301402 -0.03692173
v 0.006733658 0.9975159 0.04937612
v 0.04985877 0.001760442 0.04850005
v 0.05045767 1.018071 0.05026888
v -0.02338147 2.319911 -0.002393297
v 0.01899596 2.331179 0.0005459897
v -0.0229191 2.978662 0.0005195996
v 0.02044535 3.11422 0.004582296
v -0.004803772 3.670527 -0.03661938
v 0.03350342 3.666483 -0.02695667
v 0.07071929 4.132391 -0.02863647
v -0.2110056 3.301075 -0.23694
v 0.007014417 3.226703 -0.201642
v -0.1418149 3.326112 -0.3137366
v -0.1430616 3.214379 -0.08909225
v 0.05317103 3.124916 -0.09144226
v -0.009016428 3.095413 -0.0116195
v -0.1220169 1.804543 -0.393911
v -0.2805679 1.886962 -0.4073787
v -0.105494 1.81302 -0.2873308
v -0.02419894 1.802883 -0.07817157
v -0.3564369 1.781393 -0.204639
v -0.1210344 1.681327 0.08712711
v 0.01759396 1.743609 -0.005694694
v 0.02621422 1.759585 -0.3756978
v 0.1761312 1.712262 -0.249668
v -0.1115791 1.774831 -0.2947448
v 0.2946215 1.753656 0.1920329
v 0.4124659 1.826036 0.1226712
v 0.230263 1.758613 0.1248692
v 0.0008643002 1.709618 -0.03751751
v 0.3670637 1.731401 -0.05699951
v 0.05901901 1.637488 -0.1450336
v 0.0008643002 1.709618 -0.03751751
v 0.01466251 1.669087 0.2387612
v 0.1817074 1.713521 0.2529276
v 0.2387759 1.725921 0.1275566
v 0.212635 2.959877 -0.1625524
v 0.398662 2.932124 -0.08115248
v 0.3439643 3.028963 -0.3295378
v 0.4581848 3.002282 -0.304751
v 0.4498883 2.933056 -0.1218981
v 0.3044239 3.701376 -0.02000451
v 0.3095692 3.749528 0.1852062
v 0.5302415 3.810705 0.02190044
v 0.5408019 3.832381 0.1500544
v 0.3601456 3.765248 0.2213036
v 0.07027302 3.833719 0.2680963
v -0.1928551 3.838527 0.4484031
v 0.2494864 3.741041 0.4533415
v 0.146033 3.681861 0.5839692
v -0.1520006 3.77609 0.5341284
v 0.2707588 4.079679 0.1156617
v 0.2278295 4.025366 0.2990529
v 0.4365825 3.99714 0.1507054
v 0.4277598 3.93114 0.2442419
v 0.2674825 3.977758 0.3190941
v -0.09934875 2.424145 -0.4669836
v -0.05214058 2.435482 -0.3547248
v 0.04362377 2.524627 -0.5629162
v -0.006186916 2.425277 -0.109332
v 0.2356886 2.416147 -0.4261992
v 0.184645 2.298971 -0.02196766
v -0.002636261 2.358484 -0.02237305
v -0.2295046 2.366212 -0.3682069
v -0.2973607 2.308356 -0.1657099
v -0.05060688 2.392957 -0.3698063
v 0.04618207 3.928482 -0.2507573
v 0.06643551 4.011137 -0.4946912
v -0.03461975 3.991228 -0.4292062
v 0.2472181 3.942364 -0.3965506
v 0.2538098 3.926478 -0.3361878
v 0.009477844 2.006231 -0.09663963
v 0.0003102335 1.997192 -0.02017999
v 0.06447662 2.068358 -0.2144283
v 0.1433931 2.197465 -0.3421494
v 0.1788037 2.111833 -0.1093633
v 0.2380722 2.191964 -0.2810379
v 0.08624923 2.029328 -0.01519283
v -0.1003044 2.646836 0.2414976
v -0.004526383 2.579729 -0.03343716
v -0.0845826 2.574006 0.06445286
v -0.07803029 2.800557 0.4244715
v 0.1109948 2.711525 0.2201113
v 0.0613076 2.615082 0.0392886
v 0.07047977 2.82525 0.4515466
v 0.4287507 2.162131 0.2913925
v 0.08336932 2.046512 0.2690111
v 0.3296666 2.167765 0.4066918
v 0.2718011 2.044756 0.07182106
v 0.007731647 1.866107 -0.01869993
v 0.1054775 1.915677 -0.0155291
v -0.02860283 1.900824 0.1051663
v -0.09636871 3.858449 -0.2340017
v 0.03435797 3.715998 -0.04724839
v -0.002610092 3.74506 -0.148404
v -0.1860518 4.028951 -0.288334
v -0.1626914 3.879854 -0.08025699
v -0.04321701 3.759234 -0.03633491
v -0.2682548 4.033 -0.1999254
v 0.2530866 3.822372 -0.2194658
v 0.2538098 3.926478 -0.3361878
v 0.04618207 3.928482 -0.2507573
v 0.02560459 3.734685 -0.0484824
v -0.1445773 3.953457 -0.3659464
v -0.03461975 3.991228 -0.4292062
v -0.01407436 4.081922 -0.007125988
v 0.06120258 4.09788 -0.0298278
v -0.137904 4.11368 0.0005600357
v -0.2809857 4.180259 -0.03190396
v -0.2627281 4.187767 -0.1343326
v -0.08989662 4.151217 -0.1591236
v 0.02752831 4.104288 -0.1184818
v 0.01899724 2.226435 -0.04813458
v -0.2058777 2.239929 0.1267574
v -0.07120907 2.204841 0.1635948
v -0.2144626 2.24328 0.01117767
v -0.26246 2.236735 -0.17199
v 0.01899724 2.226435 -0.04813458
v 0.003581161 2.158988 -0.1526812
v -0.3463956 2.324018 -0.04138248
v -0.2774391 2.278419 0.0377522
v -0.4555207 2.708579 0.2319714
v -0.3058368 2.668651 -0.0216365
v -0.5511069 2.706015 0.07970623
v -0.3007402 2.693301 0.1883449
v -0.001342278 2.476502 -0.03000473
v -0.3020596 2.442502 -0.2616171
v -0.4443476 2.544195 -0.2537942
v 0.2119929 3.054719 -0.3522805
v 0.212635 2.959877 -0.1625524
v 0.3439643 3.028963 -0.3295378
v 0.1224794 3.006922 -0.2518049
v 0.0005484772 2.791705 -0.02296814
v 0.2918692 2.840011 -0.006108322
v 0.398662 2.932124 -0.08115248
v 0.5060737 3.768385 -0.12297
v 0.3044239 3.701376 -0.02000451
v 0.5302415 3.810705 0.02190044
v 0.3537049 3.695269 -0.1529861
v 0.01537392 3.49002 -0.03714642
v 0.1803266 3.630556 0.1784629
v 0.3095692 3.749528 0.1852062
v 0.4438101 4.062454 0.04632999
v 0.2707588 4.079679 0.1156617
v 0.4365825 3.99714 0.1507054
v 0.3440586 4.102641 0.01355297
v 0.05781174 4.072806 -0.04454242
v 0.1076906 4.044895 0.2244847
v 0.2278295 4.025366 0.2990529
v 0.08741966 3.164145 -0.0889566
v -0.01796473 3.147648 -0.01301022
v 0.2589765 3.253534 -0.1186705
v 0.4428467 3.421682 -0.05582268
v 0.4215134 3.41076 0.02332672
v 0.3820117 3.333978 0.1034732
v 0.2706071 3.193091 0.1414493
v 0.1104142 3.127494 0.09672122
v -0.2536325 3.799435 0.2484987
v -0.1928551 3.838527 0.4484031
v 0.07027302 3.833719 0.2680963
v 0.05128143 3.779017 0.1531018
v 0.02008114 3.679976 -0.05043232
v 0.2815671 3.835584 0.2177602
v 0.3676179 3.807809 0.3261994
v 0.2494864 3.741041 0.4533415
v -0.4443476 2.544195 -0.2537942
v -0.4211649 2.694764 -0.07192577
v -0.3058368 2.668651 -0.0216365
v -0.50099 2.528896 -0.2547523
v -0.5511069 2.706015 0.07970623
v -0.6367978 2.649384 -0.06391998
vn 0.6174561 0.7571286 0.2133172
vn 0.6174561 0.7571286 0.2133172
vn 0.6174561 0.7571285 0.2133172
vn 0.5728387 0.0006884444 0.8196679
vn 0.999019 0.0033939 -0.04415438
vn 0.5478918 0.03262272 0.8359129
vn 0.9975002 0.008191736 -0.07018635
vn 0.4362957 0.01437314 -0.8996885
vn 0.5013559 0.009376155 0.8651904
vn 0.5132336 0.001464574 -0.8582477
vn -0.530571 0.01814895 -0.8474462
vn 0.9692234 0.01466681 -0.2457459
vn 0.4768542 0.03698878 0.8782038
vn 0.8911202 0.001463898 -0.453765
vn 0.5171202 0.009035941 0.8558651
vn 0.03106664 -0.005370704 -0.9995029
vn -0.4860016 -0.04129876 -0.8729816
vn 0.8383663 -0.04756248 -0.5430284
vn 0.2527414 -0.0181463 0.9673637
vn 0.4835163 0.02657461 -0.8749319
vn -0.9985949 0.005302777 0.05272608
vn -0.9960362 0.01622569 -0.08745597
vn -0.5071981 0.007923178 0.8617931
vn -0.5679397 -0.005661974 -0.8230507
vn -0.5260147 0.02390189 -0.8501395
vn -0.9675698 0.1631604 -0.1928399
vn -0.9597586 -0.01838206 -0.2802242
vn -0.5408797 0.007116201 0.8410699
vn 0.5728387 0.0006884444 0.8196679
vn 0.5478918 0.03262272 0.8359129
vn -0.5889055 0.00935011 0.8081478
vn 0.5013559 0.009376155 0.8651904
vn -0.7702384 0.02002326 0.6374415
vn 0.4768542 0.03698878 0.8782038
vn -0.8602364 0.06816874 0.5053181
vn 0.5171202 0.009035941 0.8558651
vn 0.2527414 -0.0181463 0.9673637
vn 0.223866 0.8672875 0.4446307
vn 0.2909185 0.8194084 0.4938992
vn 0.2150795 0.8547233 0.4724285
vn 0.2935469 0.8254317 0.482175
vn 0.3513037 0.7560622 0.5522279
vn 0.3511353 0.7556762 0.5528631
vn 0.4660287 0.8733473 -0.1417093
vn 0.1080938 0.9802475 0.165622
vn 0.4646569 0.8745146 -0.1389898
vn 0.2919323 0.9133347 0.2838933
vn -0.2156308 0.8832449 0.4163914
vn -0.1554561 0.8370947 0.5245054
vn 0.2997899 0.8600453 0.4128536
vn 0.2326959 0.9719282 -0.03476057
vn 0.2639567 0.9633521 0.04774353
vn 0.02764413 0.9898549 -0.1393664
vn -0.3185377 0.8728612 0.3696581
vn -0.2170642 0.9717579 -0.09257229
vn -0.3338229 0.9101187 0.2454508
vn -0.1187367 0.8788172 -0.4621494
vn -0.07741138 0.8765808 -0.4749881
vn -0.07913022 0.8075 -0.5845359
vn -0.1961228 0.9745 0.1090206
vn -0.2661285 0.9517314 0.152915
vn -0.1841458 0.9776419 0.1015211
vn -0.103536 0.9933112 0.05111959
vn -0.02202795 0.929817 0.3673624
vn 0.1101939 0.9274651 0.3573034
vn 0.07362906 0.9345461 0.3481411
vn 0.1599462 0.9288916 0.3340322
vn 0.2636293 0.8981158 0.3519767
vn -0.3965776 0.8958892 -0.2002719
vn -0.3678534 0.9241046 -0.1035105
vn -0.3712193 0.9148475 -0.1589036
vn -0.34973 0.9307462 -0.1067727
vn -0.3298853 0.9426035 0.05171565
vn 0.08568377 0.988413 -0.1252919
vn 0.1887252 0.8815421 0.4327426
vn 0.1030115 0.8930863 0.4379334
vn 0.1780639 0.8352923 0.5201731
vn 0.1760839 0.8337397 0.5233284
vn 0.360012 0.8682348 0.3414083
vn 0.4317306 0.7594728 0.486631
vn 0.4288027 0.7805082 0.4549013
vn 0.4749992 0.6906401 0.5453367
vn 0.469297 0.6448354 0.6032807
vn -0.5108125 0.8499616 0.1289793
vn -0.5090675 0.8508292 0.1301535
vn -0.05130617 0.9767864 0.207981
vn -0.1398495 0.8984761 0.4161524
vn 0.3682043 0.8940055 0.2553033
vn 0.3805179 0.8409759 0.3846631
vn -0.09049252 0.838212 0.5377842
vn -0.2679715 0.9580678 0.1014758
vn -0.2523039 0.9494604 0.1867289
vn -0.1480073 0.9842293 -0.09688447
vn 0.1193278 0.9416836 0.3146313
vn 0.1061632 0.9390422 0.3270003
vn 0.02256957 0.9462945 0.322517
vn 0.1435666 0.9467732 0.2881134
vn 0.1088151 0.9641922 0.2418527
vn -0.7625999 0.6466969 -0.01498341
vn -0.5315999 0.8059663 0.2604226
vn -0.8974569 0.4170507 -0.1436654
vn -0.3612582 0.8776764 0.3149235
vn -0.3324655 0.8659101 0.3737198
vn -0.1816766 0.9136211 0.3637173
vn -0.340484 0.8472707 0.4076802
vn -0.7035009 0.5940743 -0.3900796
vn -0.2941556 0.846904 -0.4429742
vn -0.5040331 0.7820761 -0.3664798
vn -0.1826772 0.8716238 -0.4548636
vn -0.05053979 0.8940962 -0.4450143
vn 0.06542018 0.8728782 -0.4835327
vn -0.0662055 0.8908921 -0.4493641
vn -0.2872449 0.9137109 -0.2874419
vn -0.3627296 0.8662668 -0.3435246
vn -0.2866973 0.912761 -0.2909846
vn -0.3506718 0.8704186 -0.345544
vn -0.4380813 0.806563 -0.3969142
vn -0.3947282 0.8064986 -0.4401701
vn -0.4923573 0.7897974 -0.3657928
vn 0.8698109 0.3693201 -0.3271568
vn 0.7075674 0.6713467 0.2205492
vn 0.8106497 0.5703681 -0.1323902
vn 0.6232571 0.7022762 0.3440332
vn 0.5192294 0.7171152 0.4649158
vn 0.4542623 0.6655748 0.5921621
vn 0.5255507 0.7183886 0.4557568
vn 0.2603433 0.7028611 0.6619725
vn 0.2709412 0.717537 0.6416631
vn -0.03628124 0.7640008 0.6441944
vn 0.04217501 0.7192883 0.6934304
vn -0.1784541 0.8580465 0.4815709
vn -0.1033763 0.9227533 0.3712678
vn 0.1695255 0.4486279 0.877493
vn 0.2870416 0.9100767 0.298944
vn 0.1632433 0.6771522 0.7175072
vn 0.2273119 0.9496477 0.2156349
vn 0.2299815 0.9660126 0.1180179
vn 0.2484249 0.9627416 0.1068351
vn 0.3946761 0.914993 -0.08377595
vn 0.1473513 0.9825325 0.113655
vn 0.138299 0.9851432 0.1018143
vn 0.2005218 0.9623355 0.1835798
vn 0.07778624 0.996702 0.02311555
vn 0.2339133 0.856367 -0.4603478
vn 0.2683278 0.8693554 -0.4149954
vn 0.2708286 0.7902156 -0.5497374
vn 0.2553497 0.9624851 -0.09175555
vn 0.2506507 0.917089 0.3100354
vn 0.09396102 0.9904919 -0.1004842
vn 0.3929006 0.8622074 -0.3197303
vn 0.1142245 0.9895167 -0.08837079
vn 0.2339576 0.9649425 -0.1189528
vn 0.4657516 0.7579542 -0.4567065
vn 0.4212434 0.6633472 -0.6184857
vn 0.4366523 0.6581421 -0.6133382
vn 0.07249234 0.8922136 0.4457575
vn -0.1184026 0.7999642 0.58825
vn 0.097125 0.8903714 0.4447533
vn -0.06688843 0.8531994 0.5172781
vn -0.176922 0.7510687 0.6360773
vn -0.1680305 0.7395753 0.6517624
vn -0.1760226 0.736331 0.6533244
vn -0.3967544 0.8974071 -0.1929936
vn -0.5396433 0.8216596 -0.1834683
vn -0.3977214 0.8964311 -0.1955225
vn -0.4599873 0.8627144 -0.2100845
vn -0.580037 0.803915 -0.1314455
vn -0.6198078 0.7769627 -0.110305
vn -0.6647155 0.7308769 -0.1548298
vn 0.2715065 0.8405091 0.468859
vn -0.005466689 0.969751 0.2440352
vn 0.2890513 0.8023968 0.5221194
vn 0.09801918 0.9535617 0.2848023
vn -0.1270861 0.9837638 0.1267197
vn -0.07171484 0.9762211 0.2045716
vn -0.01782162 0.9598103 0.2800835
vn -0.4680858 0.7355542 -0.4897508
vn -0.5555255 0.8163756 0.1578679
vn -0.4708747 0.71263 -0.5200341
vn -0.5156395 0.8443365 -0.145643
vn -0.5168431 0.8417276 0.1561016
vn -0.4799327 0.6978802 0.5316276
vn -0.4571547 0.5631121 0.6884145
vn -0.4383504 0.6405657 0.6304955
vn -0.08509862 0.9556793 -0.2818428
vn -0.09405734 0.9820577 -0.1634504
vn 0.08568377 0.988413 -0.1252919
vn -0.05963671 0.915678 -0.3974638
vn -0.08509893 0.9010016 -0.4253872
vn -0.3122683 0.8892795 0.3341713
vn -0.06602914 0.9441329 0.3228826
vn 0.1030115 0.8930863 0.4379334
vn -0.08317179 0.7727881 -0.6291907
vn 0.1261218 0.9183645 -0.3751
vn 0.3349959 0.8913476 -0.3054129
vn -0.1912328 0.76706 -0.6124123
vn -0.1025898 0.981649 -0.1607501
vn -0.1999762 0.8710915 -0.4485634
vt 0.09442139 0.6555176
vt 0.07000732 0.6564941
vt 0.09197998 0.692627
vt 0.1448975 0.4584961
vt 0.1207886 0.4584961
vt 0.1437988 0.6286621
vt 0.1193848 0.6164551
vt 0.09753418 0.4580078
vt 0.1446533 0.848877
vt 0.09625244 0.6337891
vt 0.07476807 0.4580078
vt 0.1166382 0.8369141
vt 0.1431885 0.9815979
vt 0.1108398 0.9837646
vt 0.1446533 1.068787
vt 0.08856201 0.8519287
vt 0.07318115 0.6850586
vt 0.1088867 1.068787
vt 0.1446533 1.151978
vt 0.1030273 1.151611
vt 0.05184937 0.6118164
vt 0.05206299 0.4580078
vt 0.02772522 0.4580078
vt 0.07336426 0.9928284
vt 0.07385254 1.068787
vt 0.04684448 1.156982
vt 0.05554199 0.8449707
vt 0.02804565 0.6252441
vt 0.001823425 0.4584961
vt 0.002168655 0.6286621
vt 0.03010559 0.8475342
vt 0.002490997 0.848999
vt 0.03433228 0.9594421
vt 0.002632141 0.9818878
vt 0.03842163 1.068787
vt 0.00220871 1.068787
vt 0.00220871 1.151489
vt 0.8701172 0.5637207
vt 0.7641602 0.6921387
vt 0.7827148 0.5734863
vt 0.9223633 0.6760254
vt 0.7978516 0.776001
vt 0.8823242 0.7988281
vt 0.7983398 0.2573242
vt 0.8676758 0.3334961
vt 0.8305664 0.2041016
vt 0.8730469 0.07958984
vt 0.996582 0.253418
vt 0.9960938 0.02148438
vt 0.8793945 0.02197266
vt 0.7358398 0.1884766
vt 0.7133789 0.0703125
vt 0.8305664 0.2041016
vt 0.7983398 0.2573242
vt 0.8676758 0.3334961
vt 0.8305664 0.2041016
vt 0.8964844 0.02001953
vt 0.996582 0.253418
vt 0.9960938 0.02148438
vt 0.8964844 0.02001953
vt 0.7133789 0.0703125
vt 0.7358398 0.1884766
vt 0.8305664 0.2041016
vt 0.6943359 0.3837891
vt 0.4787598 0.4560547
vt 0.7631836 0.5822754
vt 0.6567383 0.640625
vt 0.480957 0.5183105
vt 0.6938477 0.3837891
vt 0.4750977 0.4604492
vt 0.7631836 0.5822754
vt 0.6567383 0.640625
vt 0.480957 0.5183105
vt 0.6938477 0.3837891
vt 0.4814453 0.4482422
vt 0.7631836 0.5822754
vt 0.6567383 0.640625
vt 0.480957 0.5183105
vt 0.6948242 0.3842773
vt 0.4799805 0.4526367
vt 0.7631836 0.5822754
vt 0.6567383 0.640625
vt 0.480957 0.5183105
vt 0.7983398 0.2573242
vt 0.8305664 0.2041016
vt 0.8676758 0.3334961
vt 0.8730469 0.08007813
vt 0.996582 0.253418
vt 0.9960938 0.02148438
vt 0.8793945 0.02197266
vt 0.7358398 0.1884766
vt 0.7133789 0.0703125
vt 0.8305664 0.2041016
vt 0.6948242 0.3857422
vt 0.6567383 0.640625
vt 0.7631836 0.5822754
vt 0.480957 0.5183105
vt 0.4794922 0.4545898
vt 0.9013672 0.7648926
vt 0.8652344 0.7994385
vt 0.9223633 0.6760254
vt 0.875 0.5637207
vt 0.7636719 0.6889648
vt 0.7827148 0.5734863
vt 0.7978516 0.7735596
vt 0.7636719 0.6889648
vt 0.8657227 0.8010254
vt 0.7978516 0.7735596
vt 0.777832 0.581543
vt 0.9223633 0.6760254
vt 0.9013672 0.7648926
vt 0.8701172 0.5637207
vt 0.8691406 0.5632324
vt 0.7636719 0.6889648
vt 0.7827148 0.5734863
vt 0.9223633 0.6760254
vt 0.8671875 0.7977295
vt 0.9013672 0.7648926
vt 0.7978516 0.7735596
vt 0.7636719 0.6889648
vt 0.8647461 0.8029785
vt 0.7978516 0.7735596
vt 0.7792969 0.5812988
vt 0.9223633 0.6760254
vt 0.9013672 0.7648926
vt 0.8701172 0.5637207
vt 0.4753418 0.3022461
vt 0.4794922 0.4545898
vt 0.6943359 0.3837891
vt 0.7104492 0.1171875
vt 0.8847656 0.4990234
vt 0.7631836 0.5822754
vt 0.9013672 0.7648926
vt 0.8691406 0.7965088
vt 0.9223633 0.6760254
vt 0.8671875 0.5627441
vt 0.7827148 0.5734863
vt 0.7636719 0.6889648
vt 0.7978516 0.7735596
vt 0.8945313 0.02099609
vt 0.7358398 0.1884766
vt 0.7133789 0.0703125
vt 0.8305664 0.2041016
vt 0.996582 0.253418
vt 0.8945313 0.02099609
vt 0.9960938 0.02148438
vt 0.8676758 0.3334961
vt 0.8051758 0.2607422
vt 0.8759766 0.512207
vt 0.6953125 0.3833008
vt 0.7631836 0.5822754
vt 0.8461914 0.3920898
vt 0.7104492 0.1171875
vt 0.4753418 0.3022461
vt 0.4794922 0.4545898
vt 0.8759766 0.512207
vt 0.6962891 0.3828125
vt 0.7631836 0.5822754
vt 0.8461914 0.3920898
vt 0.7104492 0.1171875
vt 0.4753418 0.3022461
vt 0.4799805 0.4550781
vt 0.8759766 0.512207
vt 0.6982422 0.3828125
vt 0.7631836 0.5822754
vt 0.8461914 0.3920898
vt 0.7104492 0.1171875
vt 0.4753418 0.3022461
vt 0.4799805 0.4550781
vt 0.8759766 0.512207
vt 0.6958008 0.3828125
vt 0.7631836 0.5822754
vt 0.8461914 0.3920898
vt 0.7104492 0.1171875
vt 0.4753418 0.3022461
vt 0.4802246 0.4545898
vt 0.9013672 0.7648926
vt 0.8632813 0.8172607
vt 0.9223633 0.6760254
vt 0.8701172 0.5637207
vt 0.8305664 0.5681152
vt 0.7827148 0.5734863
vt 0.7636719 0.6889648
vt 0.7978516 0.7735596
vt 0.4753418 0.3022461
vt 0.4799805 0.4555664
vt 0.6938477 0.3837891
vt 0.6992188 0.2871094
vt 0.7104492 0.1171875
vt 0.8461914 0.3920898
vt 0.8759766 0.512207
vt 0.7631836 0.5822754
vt 0.4794922 0.4545898
vt 0.6518555 0.4770508
vt 0.6933594 0.3847656
vt 0.480957 0.5183105
vt 0.7631836 0.5822754
vt 0.6567383 0.640625
f 1/1/1 2/2/2 3/3/3
f 4/4/4 5/5/5 6/6/6
f 7/7/7 6/6/6 5/5/5
f 5/5/5 8/8/8 7/7/7
f 6/6/6 7/7/7 9/9/9
f 10/10/10 7/7/7 8/8/8
f 8/8/8 11/11/11 10/10/10
f 12/12/12 9/9/9 7/7/7
f 7/7/7 10/10/10 12/12/12
f 9/9/9 12/12/12 13/13/13
f 14/14/14 13/13/13 12/12/12
f 13/13/13 14/14/14 15/15/15
f 16/16/16 12/12/12 10/10/10
f 12/12/12 16/16/16 14/14/14
f 17/17/17 10/10/10 11/11/11
f 10/10/10 17/17/17 16/16/16
f 18/18/18 15/15/15 14/14/14
f 15/15/15 18/18/18 19/19/19
f 20/20/20 19/19/19 18/18/18
f 11/11/11 21/21/21 17/17/17
f 21/21/21 11/11/11 22/22/22
f 22/22/22 23/23/23 21/21/21
f 24/24/24 14/14/14 16/16/16
f 14/14/14 24/24/24 18/18/18
f 18/18/18 25/25/25 20/20/20
f 25/25/25 18/18/18 24/24/24
f 26/26/26 20/20/20 25/25/25
f 17/17/17 27/27/27 16/16/16
f 27/27/27 17/17/17 21/21/21
f 16/16/16 27/27/27 24/24/24
f 28/28/28 21/21/21 23/23/23
f 21/21/21 28/28/28 27/27/27
f 23/23/23 29/29/29 28/28/28
f 30/30/30 28/28/28 29/29/29
f 28/28/28 30/30/30 31/31/31
f 31/31/31 27/27/27 28/28/28
f 32/32/32 31/31/31 30/30/30
f 27/27/27 33/33/33 24/24/24
f 33/33/33 27/27/27 31/31/31
f 31/31/31 32/32/32 33/33/33
f 24/24/24 33/33/33 25/25/25
f 34/34/34 33/33/33 32/32/32
f 35/35/35 25/25/25 33/33/33
f 33/33/33 34/34/34 35/35/35
f 25/25/25 35/35/35 26/26/26
f 36/36/36 35/35/35 34/34/34
f 35/35/35 36/36/36 26/26/26
f 37/37/37 26/26/26 36/36/36
f 38/38/38 39/39/39 40/40/40
f 41/41/41 39/39/39 38/38/38
f 41/41/41 42/42/42 39/39/39
f 43/43/43 42/42/42 41/41/41
f 44/44/44 45/45/45 46/46/46
f 45/45/45 47/47/47 46/46/46
f 48/48/48 47/47/47 45/45/45
f 48/48/48 49/49/49 47/47/47
f 49/49/49 50/50/50 47/47/47
f 50/50/50 51/51/51 47/47/47
f 50/50/50 52/52/52 51/51/51
f 51/51/51 53/53/53 47/47/47
f 54/54/54 55/55/55 56/56/56
f 55/55/55 57/57/57 56/56/56
f 58/58/58 57/57/57 55/55/55
f 58/58/58 59/59/59 57/57/57
f 60/60/60 61/61/61 62/62/62
f 62/62/62 63/63/63 60/60/60
f 64/64/64 65/65/65 66/66/66
f 65/65/65 67/67/67 66/66/66
f 68/68/68 67/67/67 65/65/65
f 69/69/69 70/70/70 71/71/71
f 70/70/70 72/72/72 71/71/71
f 73/73/73 72/72/72 70/70/70
f 74/74/74 75/75/75 76/76/76
f 75/75/75 77/77/77 76/76/76
f 78/78/78 77/77/77 75/75/75
f 79/79/79 80/80/80 81/81/81
f 80/80/80 82/82/82 81/81/81
f 83/83/83 82/82/82 80/80/80
f 84/84/84 85/85/85 86/86/86
f 86/86/86 85/85/85 87/87/87
f 88/88/88 86/86/86 87/87/87
f 88/88/88 87/87/87 89/89/89
f 89/89/89 87/87/87 90/90/90
f 90/90/90 87/87/87 91/91/91
f 90/90/90 91/91/91 92/92/92
f 91/91/91 87/87/87 93/93/93
f 94/94/94 95/95/95 96/96/96
f 97/97/97 95/95/95 94/94/94
f 98/98/98 97/97/97 94/94/94
f 99/99/99 100/100/100 101/101/101
f 101/101/101 100/100/100 102/102/102
f 102/102/102 100/100/100 103/103/103
f 104/104/104 102/102/102 103/103/103
f 103/103/103 100/100/100 105/105/105
f 106/106/106 107/107/107 108/108/108
f 109/109/109 107/107/107 106/106/106
f 110/110/110 107/107/107 109/109/109
f 111/111/111 107/107/107 110/110/110
f 110/110/110 109/109/109 112/112/112
f 113/113/113 114/114/114 115/115/115
f 116/116/116 114/114/114 113/113/113
f 116/116/116 117/117/117 114/114/114
f 118/118/118 117/117/117 116/116/116
f 114/114/114 117/117/117 119/119/119
f 120/120/120 121/121/121 122/122/122
f 123/123/123 121/121/121 120/120/120
f 124/124/124 121/121/121 123/123/123
f 125/125/125 121/121/121 124/124/124
f 124/124/124 123/123/123 126/126/126
f 127/127/127 128/128/128 129/129/129
f 130/130/130 127/127/127 129/129/129
f 131/131/131 130/130/130 129/129/129
f 131/131/131 129/129/129 132/132/132
f 133/133/133 134/134/134 135/135/135
f 135/135/135 134/134/134 136/136/136
f 136/136/136 134/134/134 137/137/137
f 137/137/137 134/134/134 138/138/138
f 138/138/138 134/134/134 139/139/139
f 140/140/140 141/141/141 142/142/142
f 141/141/141 140/140/140 143/143/143
f 144/144/144 145/145/145 146/146/146
f 144/144/144 147/147/147 145/145/145
f 147/147/147 148/148/148 145/145/145
f 149/149/149 150/150/150 151/151/151
f 149/149/149 152/152/152 150/150/150
f 152/152/152 153/153/153 150/150/150
f 153/153/153 154/154/154 150/150/150
f 154/154/154 155/155/155 150/150/150
f 156/156/156 157/157/157 158/158/158
f 156/156/156 159/159/159 157/157/157
f 159/159/159 160/160/160 157/157/157
f 160/160/160 161/161/161 157/157/157
f 161/161/161 162/162/162 157/157/157
f 163/163/163 164/164/164 165/165/165
f 163/163/163 166/166/166 164/164/164
f 166/166/166 167/167/167 164/164/164
f 167/167/167 168/168/168 164/164/164
f 168/168/168 169/169/169 164/164/164
f 170/170/170 171/171/171 172/172/172
f 170/170/170 173/173/173 171/171/171
f 173/173/173 174/174/174 171/171/171
f 174/174/174 175/175/175 171/171/171
f 175/175/175 176/176/176 171/171/171
f 177/177/177 178/178/178 179/179/179
f 179/179/179 178/178/178 180/180/180
f 180/180/180 178/178/178 181/181/181
f 181/181/181 178/178/178 182/182/182
f 182/182/182 178/178/178 183/183/183
f 183/183/183 178/178/178 184/184/184
f 185/185/185 186/186/186 187/187/187
f 185/185/185 187/187/187 188/188/188
f 189/189/189 185/185/185 188/188/188
f 190/190/190 189/189/189 188/188/188
f 191/191/191 190/190/190 188/188/188
f 191/191/191 188/188/188 187/187/187
f 191/191/191 187/187/187 192/192/192
f 193/193/193 194/194/194 195/195/195
f 193/193/193 196/196/196 194/194/194
f 195/195/195 194/194/194 197/197/197
f 196/196/196 198/198/198 194/194/194
f 194/194/194 198/198/198 197/197/197
