v 1.883634 -2.05 2.083635
v 1.883634 2.450001 2.083635
v -1.883632 2.450001 2.083635
v -1.883632 -2.05 2.083635
v 1.883634 2.450001 -2.083633
v 1.883634 -2.05 -2.083633
v -1.88278 -2.05 -2.082777
v -1.883632 2.450001 -2.083633
v -2.083633 -2.05 1.883634
v -2.083633 2.450001 1.883634
v -2.082777 2.450001 -1.88278
v -2.083633 -2.05 -1.883632
v 2.083635 -2.05 -1.883632
v 2.083635 2.450001 -1.883632
v 2.083635 2.450001 1.883634
v 2.083635 -2.05 1.883634
vn 0.0009775171 0.0009775171 0.999999
vn 0.0009775171 0.0009775171 0.999999
vn 0.0009775171 0.0009775171 0.999999
vn 0.0009775171 0.0009775171 0.999999
vn 0.0009775171 0.0009775171 -0.999999
vn 0.0009775171 0.0009775171 -0.999999
vn -0.0009775171 0.0009775171 -0.999999
vn 0.0009775171 -0.0009775171 -0.999999
vn -0.9999995 0.0009775166 0
vn -0.9999995 0.0009775166 0
vn -0.9999995 0.0009775166 0
vn -0.9999995 0.0009775166 0
vn 0.9999995 0.0009775166 0
vn 0.9999995 0.0009775166 0
vn 0.9999995 0.0009775166 0
vn 0.9999995 0.0009775166 0
vt 0.01504439 0.5077485
vt 0.01499999 0.9849408
vt 0.4144858 0.9849704
vt 0.4145302 0.5077928
vt 0.5853662 0.507778
vt 0.5853218 0.9849556
vt 0.9847188 0.985
vt 0.984852 0.5078225
vt 0.01504439 0.01499999
vt 0.01499999 0.4921775
vt 0.414397 0.492222
vt 0.4145302 0.01504439
vt 0.4304563 0.01504439
vt 0.4305007 0.492222
vt 0.8299865 0.4921775
vt 0.8299421 0.01499999
f 1/1/1 2/2/2 3/3/3
f 1/1/1 3/3/3 4/4/4
f 5/5/5 6/6/6 7/7/7
f 5/5/5 7/7/7 8/8/8
f 9/9/9 10/10/10 11/11/11
f 9/9/9 11/11/11 12/12/12
f 13/13/13 14/14/14 15/15/15
f 13/13/13 15/15/15 16/16/16
