v 0.1106597 0.02326865 0.1106597
v -0.1106599 0.02326865 0.1106597
v -0.1112316 0.001268517 0.1112317
v 0.1112317 0.001268517 0.1112317
v -0.1106599 0.02326865 0.1106597
v -0.1106599 0.02326865 -0.1106599
v -0.1112316 0.001268517 -0.1112316
v -0.1112316 0.001268517 0.1112317
v 0.1106597 0.02326865 0.1106597
v 0.1112317 0.001268517 0.1112317
v 0.1115173 0.001268517 -0.1112316
v 0.1109457 0.02326865 -0.1106599
v 0.1115173 0.001268517 -0.1112316
v -0.1112316 0.001268517 -0.1112316
v -0.1106599 0.02326865 -0.1106599
v 0.1109457 0.02326865 -0.1106599
v 0.1112317 0.001268517 0.1112317
v -0.1112316 0.001268517 0.1112317
v -0.1112316 0.001268517 -0.1112316
v 0.1115173 0.001268517 -0.1112316
v 0.1013477 0.02326896 0.1013477
v 0.1001678 0.009964263 0.1001678
v -0.1001677 0.009964263 0.1001678
v -0.1013476 0.02326896 0.1013477
v -0.1013476 0.02326896 0.1013477
v -0.1001677 0.009964263 0.1001678
v -0.1001677 0.009964263 -0.1001677
v -0.1013476 0.02326896 -0.1013476
v 0.1013477 0.02326896 0.1013477
v 0.1013477 0.02326896 -0.1013476
v 0.1001678 0.009964263 -0.1001677
v 0.1001678 0.009964263 0.1001678
v 0.1001678 0.009964263 0.1001678
v 0.1001678 0.009964263 -0.1001677
v -0.1001677 0.009964263 -0.1001677
v -0.1001677 0.009964263 0.1001678
v 0.1013477 0.02326896 -0.1013476
v -0.1013476 0.02326896 -0.1013476
v -0.1001677 0.009964263 -0.1001677
v 0.1001678 0.009964263 -0.1001677
v -0.08838764 0.01332319 0.08847751
v 0.08838772 0.01332319 0.08935729
v 0.09809487 0.2111863 0.09906444
v -0.09809478 0.2111863 0.09818465
v -0.09809478 0.2111863 -0.09809478
v -0.08838764 0.01332319 -0.08838764
v -0.08838764 0.01332319 0.08847751
v -0.09809478 0.2111863 0.09818465
v 0.08838772 0.01332319 0.08935729
v 0.08838772 0.01332319 -0.08838764
v 0.09809487 0.2111863 -0.09809478
v 0.09809487 0.2111863 0.09906444
v 0.09809487 0.2111863 -0.09809478
v 0.08838772 0.01332319 -0.08838764
v -0.08838764 0.01332319 -0.08838764
v -0.09809478 0.2111863 -0.09809478
v -0.08319011 0.1761478 0.08259732
v -0.08583654 0.2112149 0.08592641
v 0.08583663 0.2112149 0.0868062
v 0.0831902 0.1761478 0.08347711
v 0.0831902 0.1761478 -0.08291121
v 0.0831902 0.1761478 0.08347711
v 0.08583663 0.2112149 0.0868062
v 0.08583663 0.2112149 -0.08583654
v -0.08319011 0.1761478 -0.08291121
v 0.0831902 0.1761478 -0.08291121
v 0.08583663 0.2112149 -0.08583654
v -0.08583654 0.2112149 -0.08583654
v -0.08319011 0.1761478 -0.08291121
v -0.08583654 0.2112149 -0.08583654
v -0.08583654 0.2112149 0.08592641
v -0.08319011 0.1761478 0.08259732
v -0.09809478 0.2111863 0.09818465
v -0.08583654 0.2112149 -0.08583654
v -0.09809478 0.2111863 -0.09809478
v 0.09809487 0.2111863 -0.09809478
v -0.08583654 0.2112149 0.08592641
v 0.08583663 0.2112149 -0.08583654
v 0.09809487 0.2111863 0.09906444
v 0.08583663 0.2112149 0.0868062
v 0.1106597 0.02326865 0.1106597
v -0.1013476 0.02326896 0.1013477
v -0.1106599 0.02326865 0.1106597
v -0.1106599 0.02326865 -0.1106599
v 0.1013477 0.02326896 0.1013477
v -0.1013476 0.02326896 -0.1013476
v 0.1109457 0.02326865 -0.1106599
v 0.1013477 0.02326896 -0.1013476
v -0.08964135 0.1822306 0.08964144
v 0.08964144 0.1822306 0.08964144
v 0.08964144 0.1822306 -0.08964135
v -0.08964135 0.1822306 -0.08964135
vn 0.0009775171 0.02639296 0.9996511
vn 0.0009775171 0.02639296 0.9996511
vn 0.0009775171 0.02639296 0.9996511
vn 0.0009775171 0.02639296 0.9996511
vn -0.9996519 0.02638378 0
vn -0.9996519 0.02638378 0
vn -0.9996519 0.02638378 0
vn -0.9996519 0.02638378 0
vn 0.9996519 0.02638378 0
vn 0.9996519 0.02638378 0
vn 0.9996519 0.02638378 0
vn 0.9996519 0.02638378 0
vn 0.0009775171 0.02639296 -0.9996511
vn 0.0009775171 0.02639296 -0.9996511
vn 0.0009775171 0.02639296 -0.9996511
vn 0.0009775171 0.02639296 -0.9996511
vn 0.0009775166 -0.9999995 0
vn 0.0009775166 -0.9999995 0
vn 0.0009775166 -0.9999995 0
vn 0.0009775166 -0.9999995 0
vn -0.7008798 0.1241447 -0.7023928
vn -0.7008798 0.1241447 -0.7023928
vn 0.7008798 0.1241447 -0.7023928
vn 0.7008798 0.1241447 -0.7023928
vn 0.7008798 0.1241447 -0.7023928
vn 0.7008798 0.1241447 -0.7023928
vn 0.7008798 0.1241447 0.7023928
vn 0.7008798 0.1241447 0.7023928
vn -0.7008798 0.1241447 -0.7023928
vn -0.7008798 0.1241447 0.7023928
vn -0.7008798 0.1241447 0.7023928
vn -0.7008798 0.1241447 -0.7023928
vn 0.0009775166 0.9999995 0
vn 0.0009775166 0.9999995 0
vn 0.0009775166 0.9999995 0
vn 0.0009775166 0.9999995 0
vn -0.7008798 0.1241447 0.7023928
vn 0.7008798 0.1241447 0.7023928
vn 0.7008798 0.1241447 0.7023928
vn -0.7008798 0.1241447 0.7023928
vn -0.004887586 -0.04985337 0.9987446
vn -0.004887586 -0.04985337 0.9987446
vn -0.004887586 -0.04985337 0.9987446
vn -0.004887586 -0.04985337 0.9987446
vn -0.998045 -0.04985337 -0.03769471
vn -0.998045 -0.04985337 -0.03769471
vn -0.998045 -0.04985337 -0.03769471
vn -0.998045 -0.04985337 -0.03769471
vn 0.998045 -0.04985337 -0.03769471
vn 0.998045 -0.04985337 -0.03769471
vn 0.998045 -0.04985337 -0.03769471
vn 0.998045 -0.04985337 -0.03769471
vn 0.0009775171 -0.04985337 -0.9987561
vn 0.0009775171 -0.04985337 -0.9987561
vn 0.0009775171 -0.04985337 -0.9987561
vn 0.0009775171 -0.04985337 -0.9987561
vn 0.004887586 0.09481916 -0.9954825
vn 0.004887586 0.09481916 -0.9954825
vn 0.004887586 0.09481916 -0.9954825
vn 0.004887586 0.09481916 -0.9954825
vn -0.9971683 0.0752027 0
vn -0.9971683 0.0752027 0
vn -0.9971683 0.0752027 0
vn -0.9971683 0.0752027 0
vn 0.0009775171 0.08308896 0.9965417
vn 0.0009775171 0.08308896 0.9965417
vn 0.0009775171 0.08308896 0.9965417
vn 0.0009775171 0.08308896 0.9965417
vn 0.9971683 0.0752027 0
vn 0.9971683 0.0752027 0
vn 0.9971683 0.0752027 0
vn 0.9971683 0.0752027 0
vn -0.0009775166 0.9999995 0
vn -0.002932539 0.9999957 0
vn -0.002932539 0.9999957 0
vn 0.002932539 0.9999957 0
vn -0.0009775166 0.9999995 0
vn 0.002932539 0.9999957 0
vn -0.0009775166 0.9999995 0
vn -0.0009775166 0.9999995 0
vn 0.0009775166 0.9999995 0
vn -0.0009775166 0.9999995 0
vn -0.0009775166 0.9999995 0
vn -0.0009775166 0.9999995 0
vn 0.0009775166 0.9999995 0
vn -0.0009775166 0.9999995 0
vn 0.0009775166 0.9999995 0
vn 0.0009775166 0.9999995 0
vn 0.0009775166 0.9999995 0
vn 0.0009775166 0.9999995 0
vn 0.0009775166 0.9999995 0
vn 0.0009775166 0.9999995 0
vt 0.7509344 0.2110658
vt 0.6399656 0.2110516
vt 0.6397376 0.222365
vt 0.7511624 0.2223793
vt 0.7509344 0.1771539
vt 0.6399656 0.1771397
vt 0.6397376 0.1884532
vt 0.7511624 0.1884674
vt 0.6434423 0.2485969
vt 0.6432285 0.2599103
vt 0.7546675 0.2598961
vt 0.7543826 0.2485826
vt 0.7512336 0.1420167
vt 0.6396378 0.1420452
vt 0.6398516 0.1533586
vt 0.7509486 0.1533301
vt 0 0
vt 0 0
vt 0 0
vt 0 0
vt 0.7336364 0.100382
vt 0.7328812 0.09364238
vt 0.6327558 0.09361388
vt 0.6320006 0.100382
vt 0.6320006 0.07027453
vt 0.6327558 0.07701416
vt 0.7328812 0.07702841
vt 0.7336364 0.07027453
vt 0.7336364 0.1164403
vt 0.6319863 0.116483
vt 0.6327558 0.1232227
vt 0.7328812 0.1232084
vt 0.7363294 0.353225
vt 0.7363294 0.4535785
vt 0.836683 0.4535785
vt 0.836683 0.353225
vt 0.7336364 0.04714891
vt 0.6320006 0.04716316
vt 0.6327558 0.05390279
vt 0.7328812 0.05391704
vt 0.1676216 0.6014941
vt 0.07909447 0.6016651
vt 0.07423566 0.7005937
vt 0.1722666 0.700551
vt 0.4216044 0.7008217
vt 0.4166886 0.6014371
vt 0.3280333 0.6015226
vt 0.3232172 0.7008075
vt 0.3313817 0.3542651
vt 0.2422847 0.3543221
vt 0.2374544 0.4536355
vt 0.3362833 0.4536497
vt 0.6704293 0.7019759
vt 0.6655135 0.602577
vt 0.5769009 0.6026625
vt 0.5720848 0.7019616
vt 0.399063 0.8398889
vt 0.3813946 0.8385353
vt 0.3812521 0.9247968
vt 0.3989918 0.9233435
vt 0.4301251 0.8404446
vt 0.4301821 0.9237852
vt 0.4477935 0.9254808
vt 0.4477935 0.8387347
vt 0.2841473 0.8402024
vt 0.2841473 0.9234717
vt 0.3018015 0.9249963
vt 0.3017445 0.8387205
vt 0.3327496 0.9232723
vt 0.350418 0.9249963
vt 0.350418 0.8387063
vt 0.3327923 0.8403164
vt 0.5847092 0.3524983
vt 0.5784968 0.4446018
vt 0.5847234 0.4508285
vt 0.4864359 0.4508285
vt 0.5784825 0.358725
vt 0.4926484 0.444616
vt 0.4864359 0.3520708
vt 0.4926484 0.3582833
vt 0.0836398 0.0847512
vt 0.1897355 0.08952451
vt 0.1944946 0.08476544
vt 0.1944946 0.1956345
vt 0.08839886 0.08951025
vt 0.1897355 0.1908754
vt 0.08352581 0.1955775
vt 0.08838461 0.1908612
vt 0.8447477 0.8430664
vt 0.7550949 0.8430664
vt 0.7550949 0.9327049
vt 0.8447477 0.9327049
f 1/1/1 2/2/2 3/3/3
f 1/1/1 3/3/3 4/4/4
f 5/5/5 6/6/6 7/7/7
f 5/5/5 7/7/7 8/8/8
f 9/9/9 10/10/10 11/11/11
f 9/9/9 11/11/11 12/12/12
f 13/13/13 14/14/14 15/15/15
f 13/13/13 15/15/15 16/16/16
f 17/17/17 18/18/18 19/19/19
f 17/17/17 19/19/19 20/20/20
f 21/21/21 22/22/22 23/23/23
f 21/21/21 23/23/23 24/24/24
f 25/25/25 26/26/26 27/27/27
f 25/25/25 27/27/27 28/28/28
f 29/29/29 30/30/30 31/31/31
f 29/29/29 31/31/31 32/32/32
f 33/33/33 34/34/34 35/35/35
f 33/33/33 35/35/35 36/36/36
f 37/37/37 38/38/38 39/39/39
f 37/37/37 39/39/39 40/40/40
f 41/41/41 42/42/42 43/43/43
f 41/41/41 43/43/43 44/44/44
f 45/45/45 46/46/46 47/47/47
f 45/45/45 47/47/47 48/48/48
f 49/49/49 50/50/50 51/51/51
f 49/49/49 51/51/51 52/52/52
f 53/53/53 54/54/54 55/55/55
f 53/53/53 55/55/55 56/56/56
f 57/57/57 58/58/58 59/59/59
f 57/57/57 59/59/59 60/60/60
f 61/61/61 62/62/62 63/63/63
f 61/61/61 63/63/63 64/64/64
f 65/65/65 66/66/66 67/67/67
f 65/65/65 67/67/67 68/68/68
f 69/69/69 70/70/70 71/71/71
f 69/69/69 71/71/71 72/72/72
f 73/73/73 74/74/74 75/75/75
f 76/76/76 75/75/75 74/74/74
f 73/73/73 77/77/77 74/74/74
f 76/76/76 74/74/74 78/78/78
f 79/79/79 77/77/77 73/73/73
f 79/79/79 76/76/76 78/78/78
f 79/79/79 80/80/80 77/77/77
f 79/79/79 78/78/78 80/80/80
f 81/81/81 82/82/82 83/83/83
f 82/82/82 84/84/84 83/83/83
f 81/81/81 85/85/85 82/82/82
f 82/82/82 86/86/86 84/84/84
f 85/85/85 81/81/81 87/87/87
f 88/88/88 84/84/84 86/86/86
f 85/85/85 87/87/87 88/88/88
f 88/88/88 87/87/87 84/84/84
f 89/89/89 90/90/90 91/91/91
f 89/89/89 91/91/91 92/92/92
