v -0.429419 0.1994063 0.1817921
v 0.0007109172 0.1994063 0.0001736691
v -0.4566432 0.1994063 0.09419655
v -0.3863483 0.1994063 0.2610883
v -0.4661381 0.1994063 0.0001736691
v -0.3293136 0.1994063 0.3301991
v -0.4566432 0.1994063 -0.09384921
v -0.2602037 0.1994063 0.3872338
v -0.429419 0.1994063 -0.1814456
v -0.1809075 0.1994063 0.4303045
v -0.3863483 0.1994063 -0.2607418
v -0.09331197 0.1994063 0.4575287
v -0.3293136 0.1994063 -0.3298526
v 0.0007109172 0.1994063 0.4670236
v -0.2602037 0.1994063 -0.3868873
v 0.0947338 0.1994063 0.4575287
v -0.1809075 0.1994063 -0.4299581
v 0.1823293 0.1994063 0.4303045
v -0.09331197 0.1994063 -0.4571822
v 0.2616255 0.1994063 0.3872338
v 0.0007109172 0.1994063 -0.4666772
v 0.3307354 0.1994063 0.3301991
v 0.0947338 0.1994063 -0.4571822
v 0.3877701 0.1994063 0.2610883
v 0.1823293 0.1994063 -0.4299581
v 0.4308409 0.1994063 0.1817921
v 0.2616255 0.1994063 -0.3868873
v 0.458065 0.1994063 0.09419655
v 0.3307354 0.1994063 -0.3298526
v 0.46756 0.1994063 0.0001736691
v 0.3877701 0.1994063 -0.2607418
v 0.458065 0.1994063 -0.09384921
v 0.4308409 0.1994063 -0.1814456
vn -2.257847E-07 1 0
vn -2.257847E-07 1 0
vn -2.257847E-07 1 0
vn -2.257847E-07 1 0
vn -2.257847E-07 1 0
vn -2.257847E-07 1 0
vn -2.257847E-07 1 0
vn -2.257847E-07 1 0
vn -2.257847E-07 1 0
vn -2.257847E-07 1 0
vn -2.257847E-07 1 0
vn -2.257847E-07 1 0
vn -2.257847E-07 1 0
vn -2.257847E-07 1 0
vn -2.257847E-07 1 0
vn -2.257847E-07 1 0
vn -2.257847E-07 1 0
vn -2.257847E-07 1 0
vn -2.257847E-07 1 0
vn -2.257847E-07 1 0
vn -2.257847E-07 1 0
vn -2.257847E-07 1 0
vn -2.257847E-07 1 0
vn -2.257847E-07 1 0
vn -2.257847E-07 1 0
vn -2.257847E-07 1 0
vn -2.257847E-07 1 0
vn -2.257847E-07 1 0
vn -2.257847E-07 1 0
vn -2.257847E-07 1 0
vn -2.257847E-07 1 0
vn -2.257847E-07 1 0
vn -2.257847E-07 1 0
vt 0.7479298 0.1490993
vt 0.493074 0.3242638
vt 0.7772743 0.2022999
vt 0.7094014 0.103375
vt 0.7959591 0.2620134
vt 0.6631649 0.06612726
vt 0.8023378 0.3242638
vt 0.6107082 0.03834389
vt 0.7963616 0.3847091
vt 0.5535193 0.02097623
vt 0.778994 0.4419102
vt 0.493074 0.015
vt 0.7511984 0.4943669
vt 0.4308237 0.02137871
vt 0.7139506 0.5405912
vt 0.371098 0.04006358
vt 0.6682507 0.5791196
vt 0.3179095 0.06940809
vt 0.6150501 0.6084518
vt 0.2721974 0.1079243
vt 0.5553244 0.6271489
vt 0.2349497 0.1541608
vt 0.493074 0.6335276
vt 0.2071663 0.2066053
vt 0.4326043 0.6275392
vt 0.1897986 0.2638063
vt 0.3754033 0.6101593
vt 0.1838102 0.3242638
vt 0.3229466 0.582376
vt 0.1901889 0.3865142
vt 0.2767345 0.5451282
vt 0.2088738 0.4462277
vt 0.2382183 0.4994161
f 1/1/1 2/2/2 3/3/3
f 4/4/4 2/2/2 1/1/1
f 3/3/3 2/2/2 5/5/5
f 6/6/6 2/2/2 4/4/4
f 5/5/5 2/2/2 7/7/7
f 8/8/8 2/2/2 6/6/6
f 7/7/7 2/2/2 9/9/9
f 10/10/10 2/2/2 8/8/8
f 9/9/9 2/2/2 11/11/11
f 12/12/12 2/2/2 10/10/10
f 11/11/11 2/2/2 13/13/13
f 14/14/14 2/2/2 12/12/12
f 13/13/13 2/2/2 15/15/15
f 16/16/16 2/2/2 14/14/14
f 15/15/15 2/2/2 17/17/17
f 18/18/18 2/2/2 16/16/16
f 17/17/17 2/2/2 19/19/19
f 20/20/20 2/2/2 18/18/18
f 19/19/19 2/2/2 21/21/21
f 22/22/22 2/2/2 20/20/20
f 21/21/21 2/2/2 23/23/23
f 24/24/24 2/2/2 22/22/22
f 23/23/23 2/2/2 25/25/25
f 26/26/26 2/2/2 24/24/24
f 25/25/25 2/2/2 27/27/27
f 28/28/28 2/2/2 26/26/26
f 27/27/27 2/2/2 29/29/29
f 30/30/30 2/2/2 28/28/28
f 29/29/29 2/2/2 31/31/31
f 32/32/32 2/2/2 30/30/30
f 31/31/31 2/2/2 33/33/33
f 33/33/33 2/2/2 32/32/32
