v -0.429419 0.1994063 0.1817921
v 0.0007109172 0.1994063 0.0001736691
v -0.4566432 0.1994063 0.09419655
v -0.3863483 0.1994063 0.2610883
v -0.4661381 0.1994063 0.0001736691
v -0.3293136 0.1994063 0.3301991
v -0.4566432 0.1994063 -0.09384921
v -0.2602037 0.1994063 0.3872338
v -0.429419 0.1994063 -0.1814456
v -0.1809075 0.1994063 0.4303045
v -0.3863483 0.1994063 -0.2607418
v -0.09331197 0.1994063 0.4575287
v -0.3293136 0.1994063 -0.3298526
v 0.0007109172 0.1994063 0.4670236
v -0.2602037 0.1994063 -0.3868873
v 0.0947338 0.1994063 0.4575287
v -0.1809075 0.1994063 -0.4299581
v 0.1823293 0.1994063 0.4303045
v -0.09331197 0.1994063 -0.4571822
v 0.2616255 0.1994063 0.3872338
v 0.0007109172 0.1994063 -0.4666772
v 0.3307354 0.1994063 0.3301991
v 0.0947338 0.1994063 -0.4571822
v 0.3877701 0.1994063 0.2610883
v 0.1823293 0.1994063 -0.4299581
v 0.4308409 0.1994063 0.1817921
v 0.2616255 0.1994063 -0.3868873
v 0.458065 0.1994063 0.09419655
v 0.3307354 0.1994063 -0.3298526
v 0.46756 0.1994063 0.0001736691
v 0.3877701 0.1994063 -0.2607418
v 0.458065 0.1994063 -0.09384921
v 0.4308409 0.1994063 -0.1814456
vn -2.257847E-07 1 0
vn -2.257847E-07 1 0
vn -2.257847E-07 1 0
vn -2.257847E-07 1 0
vn -2.257847E-07 1 0
vn -2.257847E-07 1 0
vn -2.257847E-07 1 0
vn -2.257847E-07 1 0
vn -2.257847E-07 1 0
vn -2.257847E-07 1 0
vn -2.257847E-07 1 0
vn -2.257847E-07 1 0
vn -2.257847E-07 1 0
vn -2.257847E-07 1 0
vn -2.257847E-07 1 0
vn -2.257847E-07 1 0
vn -2.257847E-07 1 0
vn -2.257847E-07 1 0
vn -2.257847E-07 1 0
vn -2.257847E-07 1 0
vn -2.257847E-07 1 0
vn -2.257847E-07 1 0
vn -2.257847E-07 1 0
vn -2.257847E-07 1 0
vn -2.257847E-07 1 0
vn -2.257847E-07 1 0
vn -2.257847E-07 1 0
vn -2.257847E-07 1 0
vn -2.257847E-07 1 0
vn -2.257847E-07 1 0
vn -2.257847E-07 1 0
vn -2.257847E-07 1 0
vn -2.257847E-07 1 0
vt 0.8996856 0.2252962
vt 0.5000074 0.4999926
vt 0.9456879 0.3087308
vt 0.8392521 0.1535841
vt 0.9749944 0.4023784
vt 0.7667408 0.09519318
vt 0.985 0.4999926
vt 0.6844754 0.0516035
vt 0.9756308 0.5947946
vt 0.5947946 0.02436919
vt 0.9483965 0.684505
vt 0.4999926 0.015
vt 0.9047921 0.7667704
vt 0.4023784 0.02499085
vt 0.8464011 0.8392669
vt 0.308716 0.05431212
vt 0.7747039 0.8996856
vt 0.2252962 0.1003144
vt 0.691284 0.9456879
vt 0.1535989 0.1607331
vt 0.5976217 0.9749944
vt 0.09520798 0.2332297
vt 0.4999926 0.985
vt 0.0516183 0.315495
vt 0.4051758 0.975616
vt 0.02438399 0.4051906
vt 0.3154654 0.9483669
vt 0.015 0.4999926
vt 0.2332001 0.9047772
vt 0.02500565 0.5976217
vt 0.1607183 0.8463715
vt 0.05431212 0.691284
vt 0.1003144 0.774689
f 1/1/1 2/2/2 3/3/3
f 4/4/4 2/2/2 1/1/1
f 3/3/3 2/2/2 5/5/5
f 6/6/6 2/2/2 4/4/4
f 5/5/5 2/2/2 7/7/7
f 8/8/8 2/2/2 6/6/6
f 7/7/7 2/2/2 9/9/9
f 10/10/10 2/2/2 8/8/8
f 9/9/9 2/2/2 11/11/11
f 12/12/12 2/2/2 10/10/10
f 11/11/11 2/2/2 13/13/13
f 14/14/14 2/2/2 12/12/12
f 13/13/13 2/2/2 15/15/15
f 16/16/16 2/2/2 14/14/14
f 15/15/15 2/2/2 17/17/17
f 18/18/18 2/2/2 16/16/16
f 17/17/17 2/2/2 19/19/19
f 20/20/20 2/2/2 18/18/18
f 19/19/19 2/2/2 21/21/21
f 22/22/22 2/2/2 20/20/20
f 21/21/21 2/2/2 23/23/23
f 24/24/24 2/2/2 22/22/22
f 23/23/23 2/2/2 25/25/25
f 26/26/26 2/2/2 24/24/24
f 25/25/25 2/2/2 27/27/27
f 28/28/28 2/2/2 26/26/26
f 27/27/27 2/2/2 29/29/29
f 30/30/30 2/2/2 28/28/28
f 29/29/29 2/2/2 31/31/31
f 32/32/32 2/2/2 30/30/30
f 31/31/31 2/2/2 33/33/33
f 33/33/33 2/2/2 32/32/32
