v 21.02263 5.848923 1.218211E-06
v 19.95916 5.847692 -1.828172E-14
v 21.02263 0.1209879 1.218212E-06
v 19.95915 0.119756 -9.183036E-17
v 14.96936 5.847692 -1.828172E-14
v 14.96936 0.1196575 -9.183036E-17
v 13.97141 0.119781 -9.183036E-17
v 13.97141 5.851935 -9.183036E-17
v 5.987749 5.849158 -9.183036E-17
v 5.987749 0.1197556 -9.183036E-17
v 0.997954 5.847692 -1.828172E-14
v 0.997954 0.1196574 -9.183036E-17
v 0 0.119909 -9.183036E-17
v 0 5.853243 -1.828172E-14
v -0.997954 5.853243 -1.828172E-14
v -0.997959 0.1195481 -9.183036E-17
v 14.96934 -0.002601887 13.15073
v 14.96936 -0.009081571 13.14463
v 13.9714 -0.004761744 13.1487
v 19.95916 -0.002601717 13.15073
v 19.95916 -0.009081551 13.14463
v 19.95916 -0.002601717 13.15073
v 21.02162 -0.007834029 13.14445
v 21.02262 -0.001362967 13.15056
v 14.96934 -0.002601887 13.15073
v 13.9714 -0.004761744 13.1487
v 13.97141 5.827772 16.20203
v 14.96936 5.827773 16.20203
v 19.95916 -0.002601717 13.15073
v 19.95916 5.827772 16.20203
v 21.02262 -0.001362967 13.15056
v 19.95916 -0.002601717 13.15073
v 21.02262 5.829007 16.20203
v 5.987746 5.827772 16.20203
v 13.9714 -0.004761744 13.1487
v 5.987743 -0.005841697 13.14768
v 5.987743 -0.005841697 13.14768
v 0.9979395 -0.002601903 13.15073
v 0.9979516 5.827773 16.20203
v -2.436423E-06 5.827773 16.20203
v -1.218212E-05 -0.002601903 13.15073
v 0.9979516 -0.009081587 13.14463
v 0.9979395 -0.002601903 13.15073
v 5.987743 -0.005841697 13.14768
v -2.436423E-06 -0.009081587 13.14463
v -1.218212E-05 -0.002601903 13.15073
v 0 0.119909 0.009980808
v -0.9908714 0.1195481 0.007088164
v -0.9837449 0.1166658 0.0142147
v 0 0.1169864 0.01703669
v 0.997954 0.1196574 0.009980808
v 0.997954 0.1167348 0.01703669
v 5.987749 0.116832 0.01703547
v 5.987749 0.1197556 0.009977762
v 13.97141 0.1197687 0.009983854
v 13.97141 0.1168391 0.01703852
v 14.96936 0.1167348 0.01703669
v 14.96936 0.1196575 0.009980808
v 19.95915 0.1197559 0.009983854
v 19.95915 0.1168342 0.0170373
v 21.0056 0.1180648 0.01703669
v 21.01265 0.1209885 0.009978373
v -0.9837449 0.1166658 0.0142147
v -0.9806798 0.109633 0.0172785
v 0 0.1169864 0.01703669
v 0 0.1099304 0.01995918
v 0.997954 0.1167348 0.01703669
v 0.997954 0.1096789 0.01995918
v 5.987749 0.109774 0.01995918
v 5.987749 0.116832 0.01703547
v 13.97141 0.109781 0.01995918
v 13.97141 0.1168391 0.01703852
v 14.96936 0.1167348 0.01703669
v 14.96936 0.1096789 0.01995918
v 19.95915 0.1097805 0.01995918
v 19.95915 0.1168342 0.0170373
v 21.00267 0.1110071 0.0199604
v 21.0056 0.1180648 0.01703669
v 0 0.1099304 0.01995918
v -0.9806798 0.109633 0.0172785
v -0.9779972 4.062688E-07 0.01995918
v 0 8.342489E-07 0.01995918
v 0.997954 0.1096789 0.01995918
v 0.997954 8.559603E-07 0.01995918
v 5.987749 8.607188E-07 0.01995918
v 5.987749 0.109774 0.01995918
v 13.97141 8.503093E-07 0.01995918
v 13.97141 0.109781 0.01995918
v 14.96936 0.1096789 0.01995918
v 14.96936 8.720206E-07 0.01995918
v 19.95915 0.1097805 0.01995918
v 19.95916 8.720206E-07 0.01995918
v 21.00267 0.001235267 0.0199604
v 21.00267 0.1110071 0.0199604
v 0 0.119909 -9.183036E-17
v -0.997959 0.1195481 -9.183036E-17
v -0.9908714 0.1195481 0.007088164
v 0 0.119909 0.009980808
v 0.997954 0.1196574 0.009980808
v 0 0.119909 -9.183036E-17
v 0.997954 0.1196574 -9.183036E-17
v 5.987749 0.1197556 0.009977762
v 5.987749 0.1197556 -9.183036E-17
v 13.97141 0.119781 -9.183036E-17
v 13.97141 0.1197687 0.009983854
v 14.96936 0.1196575 0.009980808
v 14.96936 0.1196575 -9.183036E-17
v 19.95915 0.119756 -9.183036E-17
v 19.95915 0.1197559 0.009983854
v 21.01265 0.1209885 0.009978373
v 21.02263 0.1209879 1.218212E-06
vn -1.145504E-06 0 1
vn 0 0 1
vn -1.145504E-06 0 1
vn 0 0 1
vn 0 0 1
vn 0 0 1
vn 0 0 1
vn 0 0 1
vn 0 0 1
vn 0 0 1
vn 0 0 1
vn 0 0 1
vn 0 0 1
vn 0 0 1
vn 0 0 1
vn 0 0 1
vn 0 0.6858223 -0.7277689
vn 0 0.6858223 -0.7277689
vn 1.742042E-07 0.6858265 -0.727765
vn 0 0.6858224 -0.7277688
vn 0 0.6858223 -0.7277689
vn -0.0009238555 0.6862466 -0.7273684
vn -0.0009238555 0.6862466 -0.7273684
vn -0.0009238555 0.6862466 -0.7273684
vn 0 0.4636839 -0.8860008
vn 0.0004015299 0.4637379 -0.8859724
vn 0.0004015299 0.4637378 -0.8859724
vn 0 0.4636839 -0.8860008
vn 0 0.4636839 -0.8860008
vn 0 0.4636839 -0.8860008
vn -0.0006125751 0.4636944 -0.885995
vn -0.0006125751 0.4636944 -0.885995
vn -0.0006125749 0.4636943 -0.885995
vn 2.50669E-05 0.4638189 -0.8859301
vn 2.506689E-05 0.4638189 -0.8859301
vn 2.50669E-05 0.4638188 -0.8859301
vn -0.0001204298 0.4637648 -0.8859584
vn -0.0001204298 0.4637648 -0.8859584
vn -0.0001204298 0.4637648 -0.8859584
vn 0 0.4636839 -0.8860006
vn 0 0.4636839 -0.8860006
vn 0 0.6858267 -0.7277648
vn 0 0.6858267 -0.7277648
vn 0 0.6858267 -0.727765
vn 0 0.6858266 -0.727765
vn 0 0.6858266 -0.727765
vn -0.001417377 0.925225 0.3794161
vn -0.001417377 0.925225 0.3794161
vn -0.001417377 0.925225 0.3794161
vn -0.001417377 0.925225 0.3794161
vn 0.0002329056 0.9238786 0.3826856
vn 0.0002329056 0.9238786 0.3826855
vn -1.792762E-05 0.9238753 0.3826939
vn -1.792762E-05 0.9238753 0.3826939
vn -1.384227E-06 0.9237012 0.3831138
vn -1.384227E-06 0.9237012 0.3831138
vn 0.000100686 0.9237046 0.3831057
vn 0.000100686 0.9237046 0.3831057
vn -1.845951E-05 0.9238769 0.3826899
vn -1.845951E-05 0.9238769 0.3826899
vn -0.001082806 0.9240668 0.3822296
vn -0.001082806 0.9240668 0.3822296
vn -0.002701537 0.3905644 0.9205717
vn -0.002701537 0.3905644 0.9205717
vn -0.002701537 0.3905644 0.9205717
vn -0.002701536 0.3905644 0.9205717
vn 9.646793E-05 0.3826642 0.9238874
vn 9.646793E-05 0.3826642 0.9238874
vn -7.263304E-06 0.3826822 0.92388
vn -7.263304E-06 0.3826822 0.92388
vn -5.123107E-07 0.3825302 0.923943
vn -5.123107E-07 0.3825302 0.923943
vn 4.039503E-05 0.382512 0.9239504
vn 4.039503E-05 0.382512 0.9239504
vn -7.766778E-06 0.3826824 0.92388
vn -7.766778E-06 0.3826824 0.92388
vn -0.0004503163 0.3827889 0.9238357
vn -0.0004503163 0.3827889 0.9238357
vn -0.001370366 0.01219152 0.9999248
vn -0.001370365 0.01219152 0.9999248
vn -0.001370365 0.01219152 0.9999248
vn -0.001370366 0.01219152 0.9999248
vn 0 0 1
vn 0 0 1
vn 0 0 1
vn 0 0 1
vn 0 0 1
vn 0 0 1
vn 0 0 1
vn 0 0 1
vn 0 0 1
vn 0 0 1
vn -1.167414E-06 0 1
vn -1.167415E-06 0 1
vn -0.0003631606 1 0.0001507948
vn -0.0003631605 1 0.0001507948
vn -0.0003631605 1 0.0001507948
vn -0.0003631606 1 0.0001507948
vn -1.96724E-05 1 0
vn 0.0002520955 1 0
vn -1.967239E-05 1 0
vn -1.96724E-05 1 0
vn -1.967239E-05 1 0
vn -2.411246E-06 0.9999999 0.0006136145
vn -2.411246E-06 0.9999999 0.0006136145
vn -1.97363E-05 1 4.767064E-07
vn -1.97363E-05 1 4.767064E-07
vn -1.97363E-05 1 4.767064E-07
vn -1.97363E-05 1 4.767064E-07
vn -0.001164187 0.9999992 -0.0006120788
vn -0.001164187 0.9999992 -0.0006120788
vt -8.000631 -1.058863
vt -7.497779 -1.059222
vt -7.997396 -3.924967
vt -7.497754 -3.926939
vt -4.999637 -1.059191
vt -4.99962 -3.926944
vt -4.499994 -3.926689
vt -4.500005 -1.056431
vt -1.147838E-05 -1.056688
vt -0.1010276 -3.924974
vt 2.499994 -1.056669
vt 2.466215 -3.926161
vt 3.002027 -3.926161
vt 2.999999 -1.05391
vt 3.500371 -1.053889
vt 3.50036 -3.92515
vt 3.501088 1.39894
vt 3.501025 1.394501
vt 3.000916 1.396799
vt 6.001769 1.398662
vt 6.001749 1.394223
vt 6.001769 1.398662
vt 6.501857 1.394838
vt 6.501858 1.399839
vt 3.501088 1.39894
vt 3.000916 1.396799
vt 3.001252 4.685229
vt 3.501376 4.685188
vt 6.001769 1.398662
vt 6.002065 4.685215
vt 6.501858 1.399839
vt 6.001769 1.398662
vt 6.502154 4.686577
vt -0.9999331 4.68551
vt 3.000916 1.396799
vt -1.000013 1.396159
vt -1.000013 1.396159
vt -3.50113 1.398494
vt -3.501034 4.685579
vt -4.001249 4.685634
vt -4.001358 1.398539
vt -3.501193 1.394055
vt -3.50113 1.398494
vt -1.000013 1.396159
vt -4.001424 1.394101
vt -4.001358 1.398539
vt 3.00097 -3.931525
vt 3.500298 -3.92871
vt 3.50021 -3.933705
vt 2.999914 -3.936887
vt 2.466244 -3.931364
vt 2.466274 -3.936566
vt -0.1010292 -3.935311
vt -0.1010284 -3.930142
vt -4.499994 -3.931737
vt -4.499993 -3.936781
vt -4.99962 -3.936936
vt -4.99962 -3.931941
vt -7.497754 -3.931955
vt -7.497753 -3.936967
vt -7.997396 -3.934884
vt -7.997396 -3.929925
vt 3.50021 -3.933705
vt 3.500211 -3.939243
vt 2.999914 -3.936887
vt 2.999913 -3.94222
vt 2.466274 -3.936566
vt 2.466269 -3.941903
vt -0.101029 -3.940481
vt -0.1010292 -3.935311
vt -4.499991 -3.941777
vt -4.499993 -3.936781
vt -4.99962 -3.936936
vt -4.99962 -3.941931
vt -7.497753 -3.941916
vt -7.497753 -3.936967
vt -7.997396 -3.939795
vt -7.997396 -3.934884
vt 2.999913 -3.94222
vt 3.500211 -3.939243
vt 3.500229 -4.000478
vt 2.9999 -4.000976
vt 2.466269 -3.941903
vt 2.466215 -4.000553
vt -0.1010269 -3.997332
vt -0.101029 -3.940481
vt -4.499966 -3.99676
vt -4.499991 -3.941777
vt -4.99962 -3.941931
vt -4.99962 -3.996842
vt -7.497753 -3.941916
vt -7.497748 -3.996382
vt -7.997389 -3.9938
vt -7.997396 -3.939795
vt 3.002027 -3.926161
vt 3.50036 -3.92515
vt 3.500298 -3.92871
vt 3.00097 -3.931525
vt 2.466244 -3.931364
vt 3.002027 -3.926161
vt 2.466215 -3.926161
vt -0.1010284 -3.930142
vt -0.1010276 -3.924974
vt -4.499994 -3.926689
vt -4.499994 -3.931737
vt -4.99962 -3.931941
vt -4.99962 -3.926944
vt -7.497754 -3.926939
vt -7.497754 -3.931955
vt -7.997396 -3.929925
vt -7.997396 -3.924967
f 1/1/1 2/2/2 3/3/3
f 2/2/2 4/4/4 3/3/3
f 5/5/5 4/4/4 2/2/2
f 5/5/5 6/6/6 4/4/4
f 7/7/7 6/6/6 5/5/5
f 5/5/5 8/8/8 7/7/7
f 8/8/8 9/9/9 7/7/7
f 9/9/9 10/10/10 7/7/7
f 11/11/11 10/10/10 9/9/9
f 11/11/11 12/12/12 10/10/10
f 13/13/13 12/12/12 11/11/11
f 11/11/11 14/14/14 13/13/13
f 14/14/14 15/15/15 13/13/13
f 15/15/15 16/16/16 13/13/13
f 17/17/17 18/18/18 19/19/19
f 18/18/18 17/17/17 20/20/20
f 18/18/18 20/20/20 21/21/21
f 21/21/21 22/22/22 23/23/23
f 24/24/24 23/23/23 22/22/22
f 25/25/25 26/26/26 27/27/27
f 27/27/27 28/28/28 25/25/25
f 29/29/29 25/25/25 28/28/28
f 28/28/28 30/30/30 29/29/29
f 31/31/31 32/32/32 30/30/30
f 30/30/30 33/33/33 31/31/31
f 34/34/34 27/27/27 35/35/35
f 35/35/35 36/36/36 34/34/34
f 37/37/37 38/38/38 34/34/34
f 38/38/38 39/39/39 34/34/34
f 40/40/40 39/39/39 38/38/38
f 38/38/38 41/41/41 40/40/40
f 42/42/42 43/43/43 44/44/44
f 45/45/45 43/43/43 42/42/42
f 45/45/45 46/46/46 43/43/43
f 47/47/47 48/48/48 49/49/49
f 49/49/49 50/50/50 47/47/47
f 47/47/47 50/50/50 51/51/51
f 52/52/52 51/51/51 50/50/50
f 51/51/51 52/52/52 53/53/53
f 53/53/53 54/54/54 51/51/51
f 54/54/54 53/53/53 55/55/55
f 56/56/56 55/55/55 53/53/53
f 55/55/55 56/56/56 57/57/57
f 57/57/57 58/58/58 55/55/55
f 58/58/58 57/57/57 59/59/59
f 60/60/60 59/59/59 57/57/57
f 59/59/59 60/60/60 61/61/61
f 61/61/61 62/62/62 59/59/59
f 63/63/63 64/64/64 65/65/65
f 66/66/66 65/65/65 64/64/64
f 67/67/67 65/65/65 66/66/66
f 66/66/66 68/68/68 67/67/67
f 67/67/67 68/68/68 69/69/69
f 69/69/69 70/70/70 67/67/67
f 70/70/70 69/69/69 71/71/71
f 71/71/71 72/72/72 70/70/70
f 73/73/73 72/72/72 71/71/71
f 71/71/71 74/74/74 73/73/73
f 73/73/73 74/74/74 75/75/75
f 75/75/75 76/76/76 73/73/73
f 76/76/76 75/75/75 77/77/77
f 77/77/77 78/78/78 76/76/76
f 79/79/79 80/80/80 81/81/81
f 81/81/81 82/82/82 79/79/79
f 83/83/83 79/79/79 82/82/82
f 82/82/82 84/84/84 83/83/83
f 83/83/83 84/84/84 85/85/85
f 85/85/85 86/86/86 83/83/83
f 86/86/86 85/85/85 87/87/87
f 86/86/86 87/87/87 88/88/88
f 89/89/89 88/88/88 87/87/87
f 87/87/87 90/90/90 89/89/89
f 91/91/91 89/89/89 90/90/90
f 90/90/90 92/92/92 91/91/91
f 91/91/91 92/92/92 93/93/93
f 91/91/91 93/93/93 94/94/94
f 95/95/95 96/96/96 97/97/97
f 97/97/97 98/98/98 95/95/95
f 99/99/99 100/100/100 98/98/98
f 99/99/99 101/101/101 100/100/100
f 102/102/102 101/101/101 99/99/99
f 102/102/102 103/103/103 101/101/101
f 104/104/104 103/103/103 102/102/102
f 102/102/102 105/105/105 104/104/104
f 106/106/106 104/104/104 105/105/105
f 106/106/106 107/107/107 104/104/104
f 108/108/108 107/107/107 106/106/106
f 106/106/106 109/109/109 108/108/108
f 110/110/110 108/108/108 109/109/109
f 108/108/108 110/110/110 111/111/111
