v -0.0005224687 7.31552 -0.3561851
v -4.914707 0.1230726 -0.1723213
v -0.0005175745 0.123198 -0.1795036
v -4.914707 7.316818 -0.3561492
v -4.930247 0.1229543 -0.1655429
v -4.934227 7.321809 -0.3387003
v -4.947858 7.326322 -0.3232227
v -4.947039 0.1227428 -0.1534268
v -4.958083 0.1224532 -0.1368333
v -4.957386 7.33176 -0.3050909
v -4.964702 0.1221641 -0.1202764
v -4.964702 7.337659 -0.2856629
v -4.964706 0.05383661 3.794185
v -4.964706 8.520492 3.518138
v -4.971351 8.520455 3.535296
v -4.971331 0.05353897 3.811236
v -4.982411 8.520464 3.553027
v -4.982409 0.05322976 3.828952
v -4.999596 8.520569 3.564916
v -4.999608 0.05302254 3.840822
v -5.014701 0.05290618 3.847489
v -5.014702 8.520681 3.571608
v -5.387691 8.52068 3.571607
v -5.387689 0.05290616 3.847489
v -5.402797 8.520569 3.564916
v -5.402784 0.05302253 3.840822
v -5.419981 8.520464 3.553026
v -5.419981 0.05322973 3.828952
v -5.431041 8.520455 3.535296
v -5.431059 0.05353896 3.811236
v -5.437684 0.05383659 3.794185
v -5.437685 8.520491 3.518138
v -5.437685 6.090743 -4.394366
v -5.437685 0.1985648 -4.497217
v -4.910664 0.1145875 -0.1526746
v -0.0005078125 0.004013914 -0.1591569
v -0.0005033874 0.1152347 -0.157287
v -4.910664 0.003651262 -0.1546056
v -4.922428 0.1141687 -0.1467084
v -4.922385 0.003179074 -0.1482509
v -4.932875 0.1136957 -0.1395835
v -4.932866 0.002656658 -0.1412066
v -4.939671 0.1131198 -0.1289255
v -4.939676 0.00203193 -0.1305782
v -4.944702 0.112485 -0.1163523
v -4.944701 0.001349286 -0.1180337
v -4.944707 0.04426913 3.798278
v -4.944707 -0.07089161 3.797682
v -4.953826 -0.07067671 3.821165
v -4.954453 0.04442987 3.822853
v -4.967027 0.04457958 3.844937
v -4.967027 -0.07046277 3.844358
v -4.987897 0.04468923 3.858432
v -4.987895 -0.07033271 3.857857
v -5.010669 -0.07023276 3.867921
v -5.010674 0.0447809 3.868495
v -5.391719 -0.0702332 3.867921
v -5.391721 0.04478098 3.868495
v -5.41618 0.04468291 3.85769
v -5.416186 -0.07034034 3.857109
v -5.435359 0.04457819 3.84494
v -5.435363 -0.07046279 3.844359
v -5.447427 0.04443256 3.824674
v -5.447429 -0.07065007 3.824088
v -5.457685 0.044249 3.798272
v -5.457685 -0.07089201 3.797674
v -5.457684 0.1886143 -4.497389
v -5.457685 0.0785368 -4.499313
v -4.928116 0.123562 -0.1563411
v -4.914707 0.1230726 -0.1723213
v -4.930247 0.1229543 -0.1655429
v -4.91277 0.1238561 -0.1621261
v -0.0005175745 0.123198 -0.1795036
v -4.924663 0.1210621 -0.1489169
v -0.0005101731 0.1241436 -0.1690985
v -4.911282 0.1214607 -0.154816
v -4.922428 0.1141687 -0.1467084
v -0.0005051515 0.1219419 -0.1617408
v -4.910664 0.1145875 -0.1526746
v -0.0005033874 0.1152347 -0.157287
v -4.964702 0.1221641 -0.1202764
v -4.949126 0.1228522 -0.1344025
v -4.958083 0.1224532 -0.1368333
v -4.954556 0.1222903 -0.1182182
v -4.964706 0.05383661 3.794185
v -4.954739 0.05401674 3.796307
v -4.971331 0.05353897 3.811236
v -4.96319 0.05394556 3.817908
v -4.982409 0.05322976 3.828952
v -4.974796 0.05388444 3.83688
v -4.999608 0.05302254 3.840822
v -4.993992 0.05384722 3.849658
v -4.947645 0.0512369 3.79772
v -4.956981 0.05134388 3.821708
v -4.947588 0.119469 -0.1168396
v -4.944707 0.04426913 3.798278
v -4.954453 0.04442987 3.822853
v -4.944702 0.112485 -0.1163523
v -4.939671 0.1131198 -0.1289255
v -4.941888 0.1201249 -0.1310875
v -4.932875 0.1136957 -0.1395835
v -4.935096 0.1206452 -0.1417583
v -4.922428 0.1141687 -0.1467084
v -4.924663 0.1210621 -0.1489169
v -4.935096 0.1206452 -0.1417583
v -4.940453 0.1232523 -0.1471978
v -4.924663 0.1210621 -0.1489169
v -4.928116 0.123562 -0.1563411
v -4.947039 0.1227428 -0.1534268
v -4.958083 0.1224532 -0.1368333
v -4.940453 0.1232523 -0.1471978
v -4.928116 0.123562 -0.1563411
v -4.947039 0.1227428 -0.1534268
v -4.930247 0.1229543 -0.1655429
v -5.447742 0.1985648 -4.497217
v -5.437684 0.05383659 3.794185
v -5.437685 0.1985648 -4.497217
v -5.447811 0.05402023 3.796277
v -5.454773 0.1956503 -4.497268
v -5.431059 0.05353896 3.811236
v -5.454793 0.05123242 3.797706
v -5.457684 0.1886143 -4.497389
v -5.457685 0.044249 3.798272
v -5.439268 0.05395292 3.818163
v -5.445196 0.05134682 3.822376
v -5.447427 0.04443256 3.824674
v -5.435359 0.04457819 3.84494
v -5.433119 0.05144265 3.842634
v -5.41618 0.04468291 3.85769
v -5.413936 0.05150782 3.855376
v -5.433119 0.05144265 3.842634
v -5.427715 0.05389502 3.837005
v -5.427715 0.05389502 3.837005
v -5.413936 0.05150782 3.855376
v -5.409134 0.05385672 3.849459
v -5.419981 0.05322973 3.828952
v -5.409134 0.05385672 3.849459
v -5.402784 0.05302253 3.840822
v -5.389708 0.0538304 3.858015
v -5.387689 0.05290616 3.847489
v -5.391131 0.05156252 3.865443
v -5.413936 0.05150782 3.855376
v -5.012698 0.0538252 3.857957
v -5.014701 0.05290618 3.847489
v -5.011267 0.05156104 3.865426
v -5.391721 0.04478098 3.868495
v -5.41618 0.04468291 3.85769
v -5.010674 0.0447809 3.868495
v -4.989326 0.05150695 3.855722
v -4.987897 0.04468923 3.858432
v -4.967027 0.04457958 3.844937
v -4.969303 0.05143958 3.842593
v -4.969303 0.05143958 3.842593
v -4.954453 0.04442987 3.822853
v -4.956981 0.05134388 3.821708
v -4.974796 0.05388444 3.83688
v -4.956981 0.05134388 3.821708
v -4.96319 0.05394556 3.817908
vn 0.0005656755 0.02516884 0.999683
vn 0.002294858 0.02493659 0.9996864
vn 0.00146044 0.02455787 0.9996973
vn 0.003960502 0.02554089 0.9996659
vn 0.506078 0.02117099 0.8622279
vn 0.7120193 0.01727792 0.7019473
vn 0.8342552 0.01320158 0.5512204
vn 0.7200267 0.01643431 0.6937518
vn 0.8835859 0.01099778 0.4681399
vn 0.9173346 0.009167961 0.3980118
vn 0.9999987 3.69946E-05 0.001603546
vn 0.9999993 2.737853E-05 0.001193341
vn 0.999998 6.540573E-05 0.002007194
vn 0.999998 6.634645E-05 0.002033814
vn 0.8924584 0.01469808 0.4508903
vn 0.8897111 0.0148706 0.4562818
vn 0.7254087 0.02242051 0.6879532
vn 0.7193066 0.02262443 0.6943242
vn 0.4991837 0.02821906 0.8660366
vn 0.4961804 0.02827435 0.8677589
vn 0.01694489 0.03255837 0.9993262
vn 0.01730479 0.03255802 0.99932
vn -0.01730682 0.03255802 0.99932
vn -0.01694489 0.03255838 0.9993262
vn -0.4991964 0.02821668 0.8660294
vn -0.4961804 0.02827638 0.8677588
vn -0.7254103 0.02241674 0.6879516
vn -0.719313 0.02262775 0.6943175
vn -0.8924567 0.01469627 0.4508938
vn -0.8897116 0.01487229 0.4562806
vn -0.9999995 3.221658E-05 0.0009913881
vn -0.9999995 3.17217E-05 0.0009773609
vn -1 0 0
vn -1 0 1.471804E-07
vn 0.00212102 -0.01739564 0.9998465
vn 0.0009412493 -0.01681929 0.9998581
vn 0.0009414412 -0.01681077 0.9998583
vn 0.002235029 -0.01739586 0.9998462
vn 0.5080768 -0.01336072 0.8612082
vn 0.5180808 -0.01203957 0.8552469
vn 0.7152038 -0.009785935 0.6988474
vn 0.7184 -0.01022774 0.6955551
vn 0.8903551 -0.006698309 0.4552174
vn 0.8917174 -0.006795305 0.4525415
vn 0.9999992 -1.417187E-05 0.001309939
vn 0.9999993 -1.348843E-05 0.001247586
vn 0.999997 -3.556997E-06 0.002451218
vn 0.9999974 -1.201788E-05 0.00231609
vn 0.9026323 -0.002084475 0.4304073
vn 0.9016809 -0.001432408 0.4323997
vn 0.7283316 -0.00346969 0.6852162
vn 0.7338563 -0.003412845 0.6792961
vn 0.4746854 -0.004405806 0.8801445
vn 0.4753974 -0.00440304 0.8797601
vn 0.025009 -0.004989107 0.9996748
vn 0.02482318 -0.004986895 0.9996794
vn -0.02674928 -0.004988024 0.9996297
vn -0.02654875 -0.004986219 0.9996351
vn -0.4746689 -0.00440557 0.8801534
vn -0.4753988 -0.004425335 0.8797593
vn -0.7253898 -0.003449516 0.6883297
vn -0.7274048 -0.003465933 0.6861998
vn -0.9018409 -0.002175943 0.4320626
vn -0.9024511 -0.00220423 0.4307866
vn -0.9999993 -6.256642E-06 0.001231141
vn -0.9999993 -6.301465E-06 0.001232267
vn -1 1.098369E-05 1.964583E-07
vn -1 1.1086E-05 1.996589E-07
vn 0.02218246 0.9968233 0.07649303
vn -0.000266982 0.9970648 -0.07656235
vn -0.04103002 0.997566 -0.05637917
vn 8.155021E-05 0.9976342 0.0687464
vn -0.0001866752 0.9958975 -0.09048832
vn 0.2825899 0.7866603 0.5489158
vn 2.417369E-05 0.9975166 0.07043169
vn 0.001646924 0.7439924 0.6681859
vn 0.4367838 0.3856582 0.8127039
vn 0.0005474981 0.7984129 0.6021101
vn 0.002446773 0.2979521 0.9545777
vn 0.0007096363 0.553175 0.8330647
vn -0.01601315 0.9997193 0.01745948
vn 0.08556388 0.9942349 0.06462165
vn -0.04323296 0.9990538 -0.00473921
vn 0.1285942 0.9915414 0.01758087
vn -0.02176091 0.9996119 0.01739769
vn 0.1721231 0.9849203 0.01748294
vn -0.03863594 0.9992186 -0.0083339
vn 0.1243992 0.9902029 0.06342722
vn -0.04660581 0.998355 -0.03339542
vn 0.09046162 0.9921645 0.08617575
vn -0.03996611 0.9970259 -0.06589389
vn 0.04727062 0.9948803 0.08932312
vn 0.722832 0.6908892 0.0136449
vn 0.6342942 0.7094775 0.3071034
vn 0.6788661 0.7341318 0.01383493
vn 0.9211546 0.3890944 0.008941574
vn 0.834877 0.3769204 0.4011379
vn 0.9239593 0.3824098 0.007871945
vn 0.818803 0.3889284 0.4222515
vn 0.5659431 0.7614189 0.3161483
vn 0.6474206 0.4076549 0.643944
vn 0.4286026 0.7827063 0.4512989
vn 0.4367838 0.3856582 0.8127039
vn 0.2825899 0.7866603 0.5489158
vn 0.4286026 0.7827063 0.4512989
vn 0.05256403 0.9950053 0.08486195
vn 0.2825899 0.7866603 0.5489158
vn 0.02218246 0.9968233 0.07649303
vn -0.05261379 0.9982758 -0.02602573
vn -0.04323296 0.9990538 -0.00473921
vn 0.05256403 0.9950053 0.08486195
vn 0.02218246 0.9968233 0.07649303
vn -0.05261379 0.9982758 -0.02602573
vn -0.04103002 0.997566 -0.05637917
vn -0.1681742 0.9856074 0.01719179
vn 0.0217045 0.999613 0.01740521
vn 9.483491E-07 0.9998477 0.01745254
vn -0.1721971 0.9849105 0.01730294
vn -0.7074496 0.7066566 0.01230928
vn 0.03902546 0.9991543 -0.01295207
vn -0.7297184 0.6836301 0.01268381
vn -0.9240388 0.3822409 0.00665261
vn -0.9236647 0.3831234 0.007729813
vn -0.1288042 0.9898278 0.06041963
vn -0.6350269 0.7125244 0.2984122
vn -0.8252472 0.3991675 0.3995403
vn -0.6581998 0.4234113 0.6224918
vn -0.4971656 0.7289973 0.4705203
vn -0.4387345 0.4141518 0.7974901
vn -0.3210891 0.7373678 0.5942984
vn -0.4971656 0.7289973 0.4705203
vn -0.08644413 0.992506 0.08636743
vn -0.08644413 0.992506 0.08636743
vn -0.3210891 0.7373678 0.5942984
vn -0.0461195 0.994584 0.09314355
vn 0.05109879 0.998018 -0.03672724
vn -0.0461195 0.994584 0.09314355
vn 0.04337076 0.9968659 -0.06616129
vn -0.002205277 0.9951191 0.09865671
vn 0.001812862 0.9961947 -0.08713668
vn -0.01668167 0.7310297 0.6821417
vn -0.3210891 0.7373678 0.5942984
vn 0.002192596 0.9951014 0.09883567
vn -0.001831656 0.9961957 -0.08712628
vn 0.01617364 0.7315502 0.6815957
vn -0.02296655 0.4119705 0.9109077
vn -0.4387345 0.4141518 0.7974901
vn 0.02199969 0.413868 0.910071
vn 0.3219115 0.7428137 0.587027
vn 0.4346769 0.4098926 0.8019003
vn 0.6624033 0.427969 0.6148693
vn 0.4998758 0.7319498 0.463005
vn 0.4998758 0.7319498 0.463005
vn 0.834877 0.3769204 0.4011379
vn 0.6342942 0.7094775 0.3071034
vn 0.09046162 0.9921645 0.08617575
vn 0.6342942 0.7094775 0.3071034
vn 0.1243992 0.9902029 0.06342722
vt -6.391345 5.003587
vt -4.059989 1.498431
vt -6.435158 1.531464
vt -4.021409 4.971064
vt -4.051911 1.498185
vt -4.008742 4.973064
vt -3.998752 4.974898
vt -4.042044 1.497806
vt -4.032548 1.497347
vt -3.988809 4.977153
vt -4.024055 1.496906
vt -3.978724 4.97961
vt -2.129225 1.392806
vt -2.130938 5.487587
vt -2.122091 5.487297
vt -2.120312 1.392404
vt -2.112041 5.487018
vt -2.110132 1.391985
vt -2.101989 5.486879
vt -2.099949 1.391711
vt -2.091908 1.391557
vt -2.09404 5.486828
vt -1.914608 5.486831
vt -1.910971 1.391709
vt -1.90666 5.486888
vt -1.902928 1.391873
vt -1.896608 5.487032
vt -1.892744 1.39216
vt -1.88656 5.487318
vt -1.882564 1.392593
vt -1.873651 1.393004
vt -1.877714 5.487613
vt 1.973281 4.456852
vt 2.133471 1.619728
vt -4.061575 1.48633
vt -6.436139 1.46511
vt -6.43534 1.518823
vt -4.061553 1.432768
vt -4.051902 1.485988
vt -4.052803 1.432534
vt -4.04265 1.485695
vt -4.044545 1.432198
vt -4.033394 1.485215
vt -4.036325 1.431745
vt -4.023469 1.48469
vt -4.027578 1.431152
vt -2.128239 1.380576
vt -2.131428 1.325025
vt -2.121054 1.324068
vt -2.118727 1.380005
vt -2.10951 1.379226
vt -2.109906 1.323714
vt -2.100393 1.379023
vt -2.099439 1.323684
vt -2.088881 1.32367
vt -2.091259 1.379323
vt -1.914174 1.324225
vt -1.911688 1.379425
vt -1.901897 1.379336
vt -1.902923 1.323949
vt -1.893511 1.379401
vt -1.893269 1.324017
vt -1.884947 1.379931
vt -1.883467 1.324372
vt -1.874797 1.380748
vt -1.871838 1.325222
vt 2.134218 1.607545
vt 2.137482 1.554489
vt -4.051195 1.493624
vt -4.059989 1.498431
vt -4.051911 1.498185
vt -4.060764 1.493508
vt -6.435158 1.531464
vt -4.05121 1.489486
vt -6.435231 1.526419
vt -4.061368 1.489803
vt -4.051902 1.485988
vt -6.435284 1.52271
vt -4.061575 1.48633
vt -6.43534 1.518823
vt -4.024055 1.496906
vt -4.033621 1.492789
vt -4.032548 1.497347
vt -4.023635 1.491979
vt -2.129225 1.392806
vt -2.128633 1.387941
vt -2.120312 1.392404
vt -2.119054 1.38747
vt -2.110132 1.391985
vt -2.109822 1.386737
vt -2.099949 1.391711
vt -2.100162 1.386617
vt -2.128254 1.384234
vt -2.118709 1.383687
vt -4.023362 1.488334
vt -2.128239 1.380576
vt -2.118727 1.380005
vt -4.023469 1.48469
vt -4.033394 1.485215
vt -4.033987 1.488802
vt -4.04265 1.485695
vt -4.042557 1.489477
vt -4.051902 1.485988
vt -4.05121 1.489486
vt -4.042557 1.489477
vt -4.042401 1.493476
vt -4.05121 1.489486
vt -4.051195 1.493624
vt -4.042044 1.497806
vt -4.032548 1.497347
vt -4.042401 1.493476
vt -4.051195 1.493624
vt -4.042044 1.497806
vt -4.051911 1.498185
vt 2.133768 1.614882
vt -1.873651 1.393004
vt 2.133471 1.619728
vt -1.87429 1.388064
vt 2.133993 1.611214
vt -1.882564 1.392593
vt -1.874733 1.384405
vt 2.134218 1.607545
vt -1.874797 1.380748
vt -1.883908 1.387464
vt -1.884481 1.383678
vt -1.884947 1.379931
vt -1.893511 1.379401
vt -1.893428 1.382996
vt -1.901897 1.379336
vt -1.902055 1.383018
vt -1.893428 1.382996
vt -1.893185 1.38684
vt -1.893185 1.38684
vt -1.902055 1.383018
vt -1.90245 1.386838
vt -1.892744 1.39216
vt -1.90245 1.386838
vt -1.902928 1.391873
vt -1.911174 1.386672
vt -1.910971 1.391709
vt -1.9113 1.382969
vt -1.902055 1.383018
vt -2.091735 1.38658
vt -2.091908 1.391557
vt -2.09163 1.382877
vt -1.911688 1.379425
vt -1.901897 1.379336
vt -2.091259 1.379323
vt -2.100522 1.38271
vt -2.100393 1.379023
vt -2.10951 1.379226
vt -2.109626 1.382836
vt -2.109626 1.382836
vt -2.118727 1.380005
vt -2.118709 1.383687
vt -2.109822 1.386737
vt -2.118709 1.383687
vt -2.119054 1.38747
f 1/1/1 2/2/2 3/3/3
f 2/2/2 1/1/1 4/4/4
f 4/4/4 5/5/5 2/2/2
f 5/5/5 4/4/4 6/6/6
f 7/7/7 5/5/5 6/6/6
f 5/5/5 7/7/7 8/8/8
f 7/7/7 9/9/9 8/8/8
f 9/9/9 7/7/7 10/10/10
f 10/10/10 11/11/11 9/9/9
f 11/11/11 10/10/10 12/12/12
f 12/12/12 13/13/13 11/11/11
f 13/13/13 12/12/12 14/14/14
f 15/15/15 13/13/13 14/14/14
f 13/13/13 15/15/15 16/16/16
f 17/17/17 16/16/16 15/15/15
f 16/16/16 17/17/17 18/18/18
f 19/19/19 18/18/18 17/17/17
f 18/18/18 19/19/19 20/20/20
f 19/19/19 21/21/21 20/20/20
f 21/21/21 19/19/19 22/22/22
f 23/23/23 21/21/21 22/22/22
f 21/21/21 23/23/23 24/24/24
f 25/25/25 24/24/24 23/23/23
f 24/24/24 25/25/25 26/26/26
f 27/27/27 26/26/26 25/25/25
f 26/26/26 27/27/27 28/28/28
f 29/29/29 28/28/28 27/27/27
f 28/28/28 29/29/29 30/30/30
f 29/29/29 31/31/31 30/30/30
f 31/31/31 29/29/29 32/32/32
f 33/33/33 31/31/31 32/32/32
f 31/31/31 33/33/33 34/34/34
f 35/35/35 36/36/36 37/37/37
f 36/36/36 35/35/35 38/38/38
f 39/39/39 38/38/38 35/35/35
f 38/38/38 39/39/39 40/40/40
f 41/41/41 40/40/40 39/39/39
f 40/40/40 41/41/41 42/42/42
f 43/43/43 42/42/42 41/41/41
f 42/42/42 43/43/43 44/44/44
f 45/45/45 44/44/44 43/43/43
f 44/44/44 45/45/45 46/46/46
f 47/47/47 46/46/46 45/45/45
f 46/46/46 47/47/47 48/48/48
f 47/47/47 49/49/49 48/48/48
f 49/49/49 47/47/47 50/50/50
f 51/51/51 49/49/49 50/50/50
f 49/49/49 51/51/51 52/52/52
f 53/53/53 52/52/52 51/51/51
f 52/52/52 53/53/53 54/54/54
f 53/53/53 55/55/55 54/54/54
f 55/55/55 53/53/53 56/56/56
f 56/56/56 57/57/57 55/55/55
f 57/57/57 56/56/56 58/58/58
f 59/59/59 57/57/57 58/58/58
f 57/57/57 59/59/59 60/60/60
f 61/61/61 60/60/60 59/59/59
f 60/60/60 61/61/61 62/62/62
f 63/63/63 62/62/62 61/61/61
f 62/62/62 63/63/63 64/64/64
f 65/65/65 64/64/64 63/63/63
f 64/64/64 65/65/65 66/66/66
f 67/67/67 66/66/66 65/65/65
f 66/66/66 67/67/67 68/68/68
f 69/69/69 70/70/70 71/71/71
f 70/70/70 69/69/69 72/72/72
f 72/72/72 73/73/73 70/70/70
f 74/74/74 72/72/72 69/69/69
f 73/73/73 72/72/72 75/75/75
f 72/72/72 74/74/74 76/76/76
f 76/76/76 75/75/75 72/72/72
f 77/77/77 76/76/76 74/74/74
f 75/75/75 76/76/76 78/78/78
f 76/76/76 77/77/77 79/79/79
f 79/79/79 78/78/78 76/76/76
f 78/78/78 79/79/79 80/80/80
f 81/81/81 82/82/82 83/83/83
f 82/82/82 81/81/81 84/84/84
f 85/85/85 84/84/84 81/81/81
f 84/84/84 85/85/85 86/86/86
f 87/87/87 86/86/86 85/85/85
f 86/86/86 87/87/87 88/88/88
f 89/89/89 88/88/88 87/87/87
f 88/88/88 89/89/89 90/90/90
f 91/91/91 90/90/90 89/89/89
f 90/90/90 91/91/91 92/92/92
f 88/88/88 93/93/93 86/86/86
f 93/93/93 88/88/88 94/94/94
f 86/86/86 95/95/95 84/84/84
f 95/95/95 86/86/86 93/93/93
f 94/94/94 96/96/96 93/93/93
f 96/96/96 94/94/94 97/97/97
f 98/98/98 93/93/93 96/96/96
f 93/93/93 98/98/98 95/95/95
f 99/99/99 95/95/95 98/98/98
f 100/100/100 84/84/84 95/95/95
f 95/95/95 99/99/99 100/100/100
f 101/101/101 100/100/100 99/99/99
f 84/84/84 100/100/100 82/82/82
f 100/100/100 101/101/101 102/102/102
f 103/103/103 102/102/102 101/101/101
f 102/102/102 103/103/103 104/104/104
f 105/105/105 82/82/82 100/100/100
f 82/82/82 105/105/105 106/106/106
f 107/107/107 106/106/106 105/105/105
f 106/106/106 107/107/107 108/108/108
f 82/82/82 109/109/109 110/110/110
f 109/109/109 82/82/82 111/111/111
f 112/112/112 113/113/113 111/111/111
f 113/113/113 112/112/112 114/114/114
f 115/115/115 116/116/116 117/117/117
f 116/116/116 115/115/115 118/118/118
f 119/119/119 118/118/118 115/115/115
f 118/118/118 120/120/120 116/116/116
f 118/118/118 119/119/119 121/121/121
f 122/122/122 121/121/121 119/119/119
f 121/121/121 122/122/122 123/123/123
f 120/120/120 118/118/118 124/124/124
f 121/121/121 124/124/124 118/118/118
f 123/123/123 125/125/125 121/121/121
f 124/124/124 121/121/121 125/125/125
f 125/125/125 123/123/123 126/126/126
f 127/127/127 125/125/125 126/126/126
f 125/125/125 127/127/127 128/128/128
f 129/129/129 128/128/128 127/127/127
f 128/128/128 129/129/129 130/130/130
f 131/131/131 124/124/124 125/125/125
f 132/132/132 120/120/120 124/124/124
f 124/124/124 131/131/131 133/133/133
f 134/134/134 133/133/133 131/131/131
f 133/133/133 134/134/134 135/135/135
f 120/120/120 132/132/132 136/136/136
f 137/137/137 136/136/136 132/132/132
f 136/136/136 137/137/137 138/138/138
f 139/139/139 138/138/138 137/137/137
f 138/138/138 139/139/139 140/140/140
f 137/137/137 141/141/141 139/139/139
f 141/141/141 137/137/137 142/142/142
f 143/143/143 140/140/140 139/139/139
f 140/140/140 143/143/143 144/144/144
f 143/143/143 91/91/91 144/144/144
f 91/91/91 143/143/143 92/92/92
f 139/139/139 145/145/145 143/143/143
f 145/145/145 139/139/139 141/141/141
f 145/145/145 92/92/92 143/143/143
f 142/142/142 146/146/146 141/141/141
f 146/146/146 145/145/145 141/141/141
f 146/146/146 142/142/142 147/147/147
f 145/145/145 146/146/146 148/148/148
f 148/148/148 149/149/149 145/145/145
f 92/92/92 145/145/145 149/149/149
f 149/149/149 148/148/148 150/150/150
f 151/151/151 149/149/149 150/150/150
f 152/152/152 92/92/92 149/149/149
f 149/149/149 151/151/151 153/153/153
f 154/154/154 153/153/153 151/151/151
f 153/153/153 154/154/154 155/155/155
f 92/92/92 152/152/152 156/156/156
f 157/157/157 156/156/156 152/152/152
f 156/156/156 157/157/157 158/158/158
