v 6.500005 0.4999969 -0.6899961
v 6.500005 0.4999969 -0.009996192
v 1.384155E-06 0.4999969 -0.009996192
v 1.384155E-06 0.4999969 -0.690003
v 1.384155E-06 0.5499985 -0.690003
v 1.384155E-06 0.5499985 -0.009996192
v 6.500005 0.5499985 -0.009996192
v 6.500005 0.5499985 -0.6899961
v 1.384155E-06 0.5400009 1.384155E-06
v 1.384155E-06 0.5100014 1.384155E-06
v 6.500005 0.5100014 1.384155E-06
v 6.500005 0.5400009 1.384155E-06
v 6.500005 0.5400009 -0.7000006
v 6.500005 0.5100014 -0.7000006
v 1.384155E-06 0.5100014 -0.7000006
v 1.384155E-06 0.5400009 -0.7000006
v 1.384155E-06 0.4999969 -0.690003
v 1.384155E-06 0.4999969 -0.009996192
v 1.384155E-06 0.5100014 1.384155E-06
v 1.384155E-06 0.5100014 -0.7000006
v 1.384155E-06 0.5400009 1.384155E-06
v 1.384155E-06 0.5400009 -0.7000006
v 1.384155E-06 0.5499985 -0.009996192
v 1.384155E-06 0.5499985 -0.690003
v 6.500005 0.5100014 1.384155E-06
v 6.500005 0.4999969 -0.009996192
v 6.500005 0.4999969 -0.6899961
v 6.500005 0.5100014 -0.7000006
v 6.500005 0.5400009 1.384155E-06
v 6.500005 0.5400009 -0.7000006
v 6.500005 0.5499985 -0.6899961
v 6.500005 0.5499985 -0.009996192
v 6.500005 0.5100014 1.384155E-06
v 1.384155E-06 0.5100014 1.384155E-06
v 1.384155E-06 0.4999969 -0.009996192
v 6.500005 0.4999969 -0.009996192
v 6.500005 0.4999969 -0.6899961
v 1.384155E-06 0.4999969 -0.690003
v 1.384155E-06 0.5100014 -0.7000006
v 6.500005 0.5100014 -0.7000006
v 6.500005 0.5400009 -0.7000006
v 1.384155E-06 0.5400009 -0.7000006
v 1.384155E-06 0.5499985 -0.690003
v 6.500005 0.5499985 -0.6899961
v 6.500005 0.5499985 -0.009996192
v 1.384155E-06 0.5499985 -0.009996192
v 1.384155E-06 0.5400009 1.384155E-06
v 6.500005 0.5400009 1.384155E-06
vn 0.0009775166 -0.9999995 0
vn 0.0009775166 -0.9999995 0
vn 0.0009775166 -0.9999995 0
vn 0.0009775166 -0.9999995 0
vn 0.0009775166 0.9999995 0
vn 0.0009775166 0.9999995 0
vn 0.0009775166 0.9999995 0
vn 0.0009775166 0.9999995 0
vn -0.0009775171 0.0009775171 0.999999
vn -0.0009775171 0.0009775171 0.999999
vn -0.0009775171 0.0009775171 0.999999
vn -0.0009775171 0.0009775171 0.999999
vn 0.0009775171 -0.0009775171 -0.999999
vn 0.0009775171 -0.0009775171 -0.999999
vn 0.0009775171 -0.0009775171 -0.999999
vn 0.0009775171 -0.0009775171 -0.999999
vn -0.9999995 0.0009775166 0
vn -0.9999995 0.0009775166 0
vn -0.9999995 0.0009775166 0
vn -0.9999995 0.0009775166 0
vn -0.9999995 0.0009775166 0
vn -0.9999995 0.0009775166 0
vn -0.9999995 0.0009775166 0
vn -0.9999995 0.0009775166 0
vn 0.9999995 -0.0009775166 0
vn 0.9999995 -0.0009775166 0
vn 0.9999995 -0.0009775166 0
vn 0.9999995 -0.0009775166 0
vn 0.9999995 -0.0009775166 0
vn 0.9999995 -0.0009775166 0
vn 0.9999995 -0.0009775166 0
vn 0.9999995 -0.0009775166 0
vn -0.0009775171 -0.7067448 0.7074679
vn -0.0009775171 -0.7067448 0.7074679
vn -0.0009775171 -0.7067448 0.7074679
vn -0.0009775171 -0.7067448 0.7074679
vn 0.0009775171 -0.7067448 -0.7074679
vn 0.0009775171 -0.7067448 -0.7074679
vn 0.0009775171 -0.7067448 -0.7074679
vn 0.0009775171 -0.7067448 -0.7074679
vn 0.0009775171 0.7067448 -0.7074679
vn 0.0009775171 0.7067448 -0.7074679
vn 0.0009775171 0.7067448 -0.7074679
vn 0.0009775171 0.7067448 -0.7074679
vn 0.0009775171 0.7067448 0.7074679
vn 0.0009775171 0.7067448 0.7074679
vn 0.0009775171 0.7067448 0.7074679
vn 0.0009775171 0.7067448 0.7074679
vt 2.250002 0.4296083
vt 2.24994 0.0896095
vt -1.000065 0.09016743
vt -1.000003 0.4301662
vt -1.000003 0.4593146
vt -0.9999413 0.7993134
vt 2.250064 0.7987555
vt 2.250002 0.4587443
vt -1.000065 0.06809844
vt -1.000065 0.08310039
vt 2.24994 0.08254246
vt 2.24994 0.06754051
vt 2.250002 0.4516773
vt 2.250002 0.4366753
vt -1.000003 0.4372456
vt -1.000003 0.4522476
vt -5.464413E-06 -5.464413E-06
vt -5.464413E-06 -5.464413E-06
vt -5.464413E-06 -5.464413E-06
vt -5.464413E-06 -5.464413E-06
vt -5.464413E-06 -5.464413E-06
vt -5.464413E-06 -5.464413E-06
vt -5.464413E-06 -5.464413E-06
vt -5.464413E-06 -5.464413E-06
vt -5.464413E-06 -5.464413E-06
vt -5.464413E-06 -5.464413E-06
vt -5.464413E-06 -5.464413E-06
vt -5.464413E-06 -5.464413E-06
vt -5.464413E-06 -5.464413E-06
vt -5.464413E-06 -5.464413E-06
vt -5.464413E-06 -5.464413E-06
vt -5.464413E-06 -5.464413E-06
vt 2.24994 0.08254246
vt -1.000065 0.08310039
vt -1.000065 0.09016743
vt 2.24994 0.0896095
vt 2.250002 0.4296083
vt -1.000003 0.4301662
vt -1.000003 0.4372456
vt 2.250002 0.4366753
vt 2.250002 0.4516773
vt -1.000003 0.4522476
vt -1.000003 0.4593146
vt 2.250002 0.4587443
vt 2.250064 0.7987555
vt -0.9999413 0.7993134
vt -0.9999413 0.8063805
vt 2.250064 0.8058225
f 1/1/1 2/2/2 3/3/3
f 1/1/1 3/3/3 4/4/4
f 5/5/5 6/6/6 7/7/7
f 5/5/5 7/7/7 8/8/8
f 9/9/9 10/10/10 11/11/11
f 9/9/9 11/11/11 12/12/12
f 13/13/13 14/14/14 15/15/15
f 13/13/13 15/15/15 16/16/16
f 17/17/17 18/18/18 19/19/19
f 19/19/19 20/20/20 17/17/17
f 19/19/19 21/21/21 20/20/20
f 21/21/21 22/22/22 20/20/20
f 21/21/21 23/23/23 22/22/22
f 23/23/23 24/24/24 22/22/22
f 25/25/25 26/26/26 27/27/27
f 27/27/27 28/28/28 25/25/25
f 28/28/28 29/29/29 25/25/25
f 28/28/28 30/30/30 29/29/29
f 30/30/30 31/31/31 29/29/29
f 31/31/31 32/32/32 29/29/29
f 33/33/33 34/34/34 35/35/35
f 33/33/33 35/35/35 36/36/36
f 37/37/37 38/38/38 39/39/39
f 37/37/37 39/39/39 40/40/40
f 41/41/41 42/42/42 43/43/43
f 41/41/41 43/43/43 44/44/44
f 45/45/45 46/46/46 47/47/47
f 45/45/45 47/47/47 48/48/48
