v 0.02499512 2.496571 0.02246551
v 0.007319336 2.489249 -0.9750035
v 0.007319336 2.48925 0.02246551
v 0.02499512 2.49657 -0.9750037
v 0.02499512 2.489248 -0.9926794
v 0.01057129 2.486 -0.9894308
v 0.9750049 2.489248 -0.9926802
v 0.9750049 2.49657 -0.9750043
v 0.9750049 2.496572 0.02246612
v 0.9926807 2.48925 0.02246612
v 0.9926807 2.489249 -0.9750043
v 0.9894287 2.486 -0.9894316
v 0.007319336 2.471572 -0.9926794
v 0.007319336 -3.051758E-07 -0.9926794
v 0 -3.051758E-07 -0.9750035
v 0 2.471572 -0.9750035
v 0 0 0.02246704
v 0 2.471574 0.02246551
v 0.007319336 2.48925 0.02246551
v 0.007319336 2.489249 -0.9750035
v 0.01057129 2.486 -0.9894308
v 0.9926807 2.471572 -0.9926802
v 0.9926807 6.103515E-07 -0.9926783
v 0.9750049 6.103515E-07 -1
v 0.9750049 2.471572 -1.000002
v 0.9750049 2.489248 -0.9926802
v 0.9894287 2.486 -0.9894316
v 0.02499512 2.489248 -0.9926794
v 0.02499512 2.471572 -1.000001
v 0.02499512 -3.051758E-07 -1.000001
v 0.007319336 -3.051758E-07 -0.9926794
v 0.007319336 2.471572 -0.9926794
v 0.01057129 2.486 -0.9894308
v 0.9926807 2.489249 -0.9750043
v 0.9926807 2.48925 0.02246612
v 1 2.471574 0.02246612
v 1 2.471572 -0.9750043
v 1 0 0.02246704
v 1 6.103515E-07 -0.9750024
v 0.9926807 6.103515E-07 -0.9926783
v 0.9926807 2.471572 -0.9926802
v 0.9894287 2.486 -0.9894316
vn -0.007565892 0.9999714 -1.264661E-06
vn -0.3821661 0.9240823 -0.004576032
vn -0.38268 0.9238809 -1.145196E-06
vn -0.007519731 0.9999449 -0.007330766
vn -0.004694173 0.9240803 -0.3821695
vn -0.3252996 0.8878909 -0.325315
vn 0.00469361 0.9240803 -0.3821695
vn 0.007519464 0.9999449 -0.007330779
vn 0.007565593 0.9999714 -1.267896E-06
vn 0.3826793 0.9238812 -1.308792E-06
vn 0.3821654 0.9240826 -0.004576244
vn 0.3252945 0.8878924 -0.3253158
vn -0.9240037 0.001819887 -0.3823793
vn -0.9239215 0 -0.3825823
vn -0.9999728 0 -0.007373118
vn -0.9999688 0.002922294 -0.007355244
vn -1 0 0
vn -0.9999957 0.002940367 0
vn -0.9239227 0.3825791 -4.908122E-07
vn -0.9241236 0.3820662 -0.004576531
vn -0.8878996 0.3252953 -0.3252957
vn 0.3824829 0.001818623 -0.9239607
vn 0.3826864 -6.846408E-07 -0.9238783
vn 0.007566076 -3.771821E-07 -0.9999714
vn 0.007547724 0.002922355 -0.9999672
vn 0.004693204 0.382159 -0.9240847
vn 0.3252988 0.3253041 -0.8878953
vn -0.00469468 0.382159 -0.9240847
vn -0.007547443 0.002922369 -0.9999672
vn -0.00756579 -3.636465E-07 -0.9999714
vn -0.3826898 0 -0.9238769
vn -0.3824864 0.001819291 -0.9239593
vn -0.3253084 0.3253016 -0.8878926
vn 0.9241245 0.382064 -0.004576704
vn 0.9239237 0.3825769 -6.54416E-07
vn 0.9999957 0.002940393 0
vn 0.9999688 0.002922312 -0.007355246
vn 1 0 0
vn 0.9999728 0 -0.007373105
vn 0.9239215 -2.904306E-07 -0.3825822
vn 0.9240037 0.001819608 -0.3823792
vn 0.8879008 0.3252939 -0.3252939
vt 0.5110728 1.744215
vt 0.5018239 1.247217
vt 0.5018239 1.744212
vt 0.5116389 1.247245
vt 0.5116542 1.237719
vt 0.5035847 1.239171
vt 0.9835382 1.237662
vt 0.9835533 1.247194
vt 0.9839843 1.744267
vt 0.9933019 1.744268
vt 0.9933019 1.247168
vt 0.9916185 1.23912
vt 0.5022349 1.228189
vt 0.5023748 0.002711825
vt 0.4928882 0.002711825
vt 0.4927515 1.228162
vt -0.001700284 0.002711825
vt -0.001590743 1.227827
vt -0.001587981 1.237457
vt 0.4927679 1.237457
vt 0.5007781 1.236173
vt 0.9929582 1.228121
vt 0.9924262 0.002711825
vt 0.982941 0.002711825
vt 0.9834726 1.228131
vt 0.9835382 1.237662
vt 0.9915649 1.236186
vt 0.5116542 1.237719
vt 0.5117197 1.228194
vt 0.5118616 0.002711825
vt 0.5023748 0.002711825
vt 0.5022349 1.228189
vt 0.5036356 1.236249
vt 1.002428 1.237297
vt 1.496858 1.237297
vt 1.496849 1.227593
vt 1.002442 1.22809
vt 1.496326 0.002711825
vt 1.001911 0.002711825
vt 0.9924262 0.002711825
vt 0.9929582 1.228121
vt 0.9944233 1.236097
f 1/1/1 2/2/2 3/3/3
f 1/1/1 4/4/4 2/2/2
f 5/5/5 2/2/2 4/4/4
f 5/5/5 6/6/6 2/2/2
f 4/4/4 7/7/7 5/5/5
f 1/1/1 8/8/8 4/4/4
f 4/4/4 8/8/8 7/7/7
f 1/1/1 9/9/9 8/8/8
f 8/8/8 9/9/9 10/10/10
f 8/8/8 10/10/10 11/11/11
f 11/11/11 7/7/7 8/8/8
f 11/11/11 12/12/12 7/7/7
f 13/13/13 14/14/14 15/15/15
f 13/13/13 15/15/15 16/16/16
f 17/17/17 16/16/16 15/15/15
f 17/17/17 18/18/18 16/16/16
f 19/19/19 16/16/16 18/18/18
f 19/19/19 20/20/20 16/16/16
f 20/20/20 13/13/13 16/16/16
f 20/20/20 21/21/21 13/13/13
f 22/22/22 23/23/23 24/24/24
f 22/22/22 24/24/24 25/25/25
f 26/26/26 22/22/22 25/25/25
f 26/26/26 27/27/27 22/22/22
f 28/28/28 26/26/26 25/25/25
f 24/24/24 29/29/29 25/25/25
f 28/28/28 25/25/25 29/29/29
f 24/24/24 30/30/30 29/29/29
f 29/29/29 30/30/30 31/31/31
f 29/29/29 31/31/31 32/32/32
f 32/32/32 28/28/28 29/29/29
f 32/32/32 33/33/33 28/28/28
f 34/34/34 35/35/35 36/36/36
f 34/34/34 36/36/36 37/37/37
f 37/37/37 36/36/36 38/38/38
f 37/37/37 38/38/38 39/39/39
f 37/37/37 39/39/39 40/40/40
f 37/37/37 40/40/40 41/41/41
f 41/41/41 34/34/34 37/37/37
f 41/41/41 42/42/42 34/34/34
