v 0 0 -0.04306566
v 0 3.051758E-07 6.480001
v 2.98 -1.525879E-06 6.480002
v 2.98 -1.068115E-06 -0.04306555
v 3 3.223019 6.500001
v 3 0.12 -0.04327087
v 3 0.1199997 6.500001
v 3 3.223019 -0.04327118
v 3 4.934083 -0.04327148
v 3 4.934084 6.500001
v 0 3.223021 6.500001
v 3 0.1199997 6.500001
v 0 0.1200006 6.500002
v 3 3.223019 6.500001
v 3 4.934084 6.500001
v 0 4.934084 6.5
v 0 4.934083 -0.04327148
v 0 4.934084 6.5
v 0 3.223021 6.500001
v 0 3.223019 -0.04327121
v 0 4.934083 -0.04327148
v 3 4.934083 -0.04327148
v 3 4.934084 6.500001
v 0 4.934084 6.5
v 2.975291 -1.522985E-06 6.480001
v 0 3.051758E-07 6.480001
v 0 0.1100015 6.480001
v 2.975291 0.11 6.480001
v 2.98 -1.525879E-06 6.480002
v 2.98 0.11 6.480001
v 2.98 -1.525097E-06 6.46886
v 2.98 -1.525879E-06 6.480002
v 2.98 0.11 6.480001
v 2.98 0.11 6.46886
v 2.98 -1.068115E-06 -0.04306555
v 2.98 0.1100005 -0.04306549
v 2.989999 0.1199992 6.490001
v 3 0.1199997 6.500001
v 3 0.1199997 6.468861
v 2.989999 0.1199992 6.468861
v 2.982929 0.1170704 6.482931
v 2.982929 0.1170704 6.468861
v 2.989999 0.1199997 -0.04316815
v 2.98 0.11 6.480001
v 2.982929 0.1170708 -0.04309565
v 2.98 0.11 6.46886
v 2.98 0.1100005 -0.04306549
v 2.989999 0.1199997 -0.04316815
v 2.989999 0.1199992 6.468861
v 3 0.1199997 6.468861
v 3 0.12 -0.04327087
v 2.989999 0.1199992 6.490001
v 2.975291 0.1199997 6.500001
v 3 0.1199997 6.500001
v 2.975291 0.1199992 6.490001
v 0 0.1200006 6.500002
v 2.982929 0.1170704 6.482931
v 0 0.1200006 6.49
v 2.975291 0.1170704 6.482931
v 2.98 0.11 6.480001
v 0 0.1170719 6.48293
v 2.975291 0.11 6.480001
v 0 0.1100015 6.480001
vn 4.282725E-07 1 0
vn 6.144479E-07 1 0
vn 5.446033E-07 1 0
vn 3.584279E-07 1 0
vn -1 0 0
vn -1 0 0
vn -1 0 0
vn -1 0 0
vn -1 0 0
vn -1 0 0
vn 0 -1.469778E-07 -1
vn -1.039114E-07 -1.004615E-07 -1
vn -2.034506E-07 -1.96696E-07 -1
vn 0 0 -1
vn 0 -1.177078E-07 -1
vn 2.034505E-07 -3.567089E-07 -1
vn 1 0 0
vn 1 0 0
vn 1 0 0
vn 1 0 0
vn 1.017253E-07 -1 1.865585E-07
vn 1.017253E-07 -1 1.865585E-07
vn 1.017252E-07 -1 1.865585E-07
vn 1.017252E-07 -1 1.865585E-07
vn 0 0 -1
vn 0 0 -1
vn 0 0 -1
vn 0 0 -1
vn -0.9211092 0 -0.3893042
vn -0.9211009 2.391188E-06 -0.3893242
vn -1 2.769854E-06 0
vn -0.9211092 0 -0.3893042
vn -0.9211009 2.391188E-06 -0.3893242
vn -1 2.744508E-06 0
vn -1 0 0
vn -1 0 0
vn -0.0359311 0.9990415 -0.02500072
vn -2.97777E-05 1 -2.362534E-05
vn -5.337846E-05 1 0
vn -0.1690503 0.9856074 0
vn -0.3790285 0.8982106 -0.2226096
vn -0.7070587 0.7071549 0
vn -0.1679071 0.9858028 0
vn -0.7950499 0.4819148 -0.3683121
vn -0.7058641 0.7083474 0
vn -0.9238743 0.3826961 0
vn -0.9238725 0.3827004 0
vn -0.1679071 0.9858028 0
vn -0.1690503 0.9856074 0
vn -5.337846E-05 1 0
vn -3.05143E-05 1 0
vn -0.0359311 0.9990415 -0.02500072
vn 3.077716E-07 1 -5.245508E-05
vn -2.97777E-05 1 -2.362534E-05
vn 4.453652E-07 0.9856133 -0.1690162
vn 4.836249E-07 1 -1.123517E-07
vn -0.3790285 0.8982106 -0.2226096
vn 5.633835E-07 0.9856031 -0.1690756
vn 6.394877E-07 0.7071633 -0.7070503
vn -0.7950499 0.4819148 -0.3683121
vn 4.570015E-07 0.707074 -0.7071394
vn 5.786925E-07 0.3827299 -0.9238603
vn 2.011188E-07 0.3825939 -0.9239166
vt -7.027296E-08 -0.01599898
vt 1.528777E-07 3.240002
vt 1.490001 3.240003
vt 1.490001 -0.01599632
vt -0.001525549 1.500273
vt 3.458299 -0.000638894
vt -0.001330761 -0.0006367755
vt 3.458104 1.499868
vt 3.458107 2.330313
vt -0.001524596 2.330287
vt -0.002256586 1.497675
vt 1.45038 -0.0006367755
vt -0.002256109 -0.0006367755
vt 1.450185 1.500273
vt 1.450186 2.330287
vt -0.002256586 2.327967
vt -4.62011 2.32769
vt -1.453967 2.327967
vt -1.453967 1.497675
vt -4.620111 1.497643
vt -3.500001 0.9740945
vt -5 0.9740942
vt -5 4.249998
vt -3.500001 4.249998
vt -0.004124258 -0.06763696
vt -1.454119 -0.07369836
vt -1.45398 -0.01726855
vt -0.00366774 -0.01726855
vt -0.001829294 -0.06762736
vt -0.001372246 -0.01726855
vt 0.004073904 -0.06763397
vt -0.001829294 -0.06762736
vt -0.001372246 -0.01726855
vt 0.004537628 -0.01725267
vt 3.454578 -0.0714962
vt 3.458921 -0.007971651
vt -0.001330642 -0.007569548
vt -0.001330761 -0.0006367755
vt 0.01513408 -0.0006367856
vt 0.00986458 -0.007523075
vt -0.001330761 -0.01241501
vt 0.006129781 -0.01238315
vt 3.458452 0.006792542
vt -0.001372246 -0.01726855
vt 3.459103 0.002360873
vt 0.004537628 -0.01725267
vt 3.458921 -0.007971651
vt 3.458452 0.006792542
vt 0.00986458 -0.007523075
vt 0.01513408 -0.0006367856
vt 3.458299 -0.000638894
vt -0.001330642 -0.007569548
vt -0.01329524 -0.000653956
vt -0.001330761 -0.0006367755
vt -0.008476409 -0.007569548
vt -1.453967 -0.002722707
vt -0.001330761 -0.01241501
vt -1.453967 -0.007569548
vt -0.005050317 -0.01241501
vt -0.001372246 -0.01726855
vt -1.453967 -0.01241501
vt -0.00366774 -0.01726855
vt -1.45398 -0.01726855
f 1/1/1 2/2/2 3/3/3
f 1/1/1 3/3/3 4/4/4
f 5/5/5 6/6/6 7/7/7
f 5/5/5 8/8/8 6/6/6
f 5/5/5 9/9/9 8/8/8
f 5/5/5 10/10/10 9/9/9
f 11/11/11 12/12/12 13/13/13
f 11/11/11 14/14/14 12/12/12
f 11/11/11 15/15/15 14/14/14
f 11/11/11 16/16/16 15/15/15
f 17/17/17 18/18/18 19/19/19
f 17/17/17 19/19/19 20/20/20
f 21/21/21 22/22/22 23/23/23
f 21/21/21 23/23/23 24/24/24
f 25/25/25 26/26/26 27/27/27
f 25/25/25 27/27/27 28/28/28
f 29/29/29 25/25/25 28/28/28
f 29/29/29 28/28/28 30/30/30
f 31/31/31 32/32/32 33/33/33
f 31/31/31 33/33/33 34/34/34
f 35/35/35 31/31/31 34/34/34
f 35/35/35 34/34/34 36/36/36
f 37/37/37 38/38/38 39/39/39
f 37/37/37 39/39/39 40/40/40
f 40/40/40 41/41/41 37/37/37
f 40/40/40 42/42/42 41/41/41
f 43/43/43 42/42/42 40/40/40
f 42/42/42 44/44/44 41/41/41
f 43/43/43 45/45/45 42/42/42
f 42/42/42 46/46/46 44/44/44
f 45/45/45 46/46/46 42/42/42
f 45/45/45 47/47/47 46/46/46
f 48/48/48 49/49/49 50/50/50
f 48/48/48 50/50/50 51/51/51
f 52/52/52 53/53/53 54/54/54
f 52/52/52 55/55/55 53/53/53
f 55/55/55 56/56/56 53/53/53
f 57/57/57 55/55/55 52/52/52
f 55/55/55 58/58/58 56/56/56
f 57/57/57 59/59/59 55/55/55
f 58/58/58 55/55/55 59/59/59
f 60/60/60 59/59/59 57/57/57
f 58/58/58 59/59/59 61/61/61
f 60/60/60 62/62/62 59/59/59
f 61/61/61 59/59/59 62/62/62
f 61/61/61 62/62/62 63/63/63
