v -0.1117665 -0.08692073 0.3005205
v 0.08189556 -0.04774803 0.313788
v -0.09450391 0.08579828 0.3032432
v 0.05747113 -0.1456169 0.2210089
v 0.09332207 -0.1250541 -0.183051
v 0.2863716 -0.1058891 0.1425396
v 0.08189556 -0.04774803 0.313788
v 0.05747113 -0.1456169 0.2210089
v 0.2863716 -0.1058891 0.1425396
v 0.05747113 -0.1456169 0.2210089
v 0.08189556 -0.04774803 0.313788
v -0.1117665 -0.08692073 0.3005205
v -0.1117665 -0.08692073 0.3005205
v -0.1984061 -0.1341286 0.1488095
v 0.05747113 -0.1456169 0.2210089
v -0.005526811 0.1644128 0.2207533
v -0.2557897 0.1139849 0.2336222
v -0.09450391 0.08579828 0.3032432
v 0.1994217 0.003305569 0.2017728
v 0.08189556 -0.04774803 0.313788
v 0.2863716 -0.1058891 0.1425396
v 0.09332207 -0.1250541 -0.183051
v 0.05845025 -0.07098213 -0.2506756
v 0.3137945 -0.05537456 -0.3744024
v 0.1619168 0.02114098 -0.3406738
v 0.3137945 -0.05537456 -0.3744024
v 0.05845025 -0.07098213 -0.2506756
v 0.3137945 -0.05537456 -0.3744024
v 0.1619168 0.02114098 -0.3406738
v 0.3105175 0.01047213 -0.3280453
v -0.2557897 0.1139849 0.2336222
v -0.3138612 0.02107941 0.1375271
v -0.267897 0.02072777 0.2563153
v 0.1619168 0.02114098 -0.3406738
v 0.05845025 -0.07098213 -0.2506756
v 0.05604491 0.04440768 -0.2383646
v 0.1619168 0.02114098 -0.3406738
v 0.05604491 0.04440768 -0.2383646
v 0.09892508 0.1452131 -0.03745452
v -0.3178424 0.009868518 -0.1049642
v -0.1938788 -0.0311751 -0.1866144
v -0.1941316 -0.0936287 -0.0842866
v -0.1984061 -0.1341286 0.1488095
v -0.3138612 0.02107941 0.1375271
v -0.3178424 0.009868518 -0.1049642
v -0.1941316 -0.0936287 -0.0842866
v 0.05845025 -0.07098213 -0.2506756
v -0.1938788 -0.0311751 -0.1866144
v -0.140401 0.06387107 -0.1975211
v 0.05604491 0.04440768 -0.2383646
v 0.09332207 -0.1250541 -0.183051
v 0.3359079 -0.07899812 -0.1128383
v 0.2863716 -0.1058891 0.1425396
v 0.3137945 -0.05537456 -0.3744024
v -0.267897 0.02072777 0.2563153
v -0.1117665 -0.08692073 0.3005205
v -0.09450391 0.08579828 0.3032432
v -0.2557897 0.1139849 0.2336222
v -0.005526811 0.1644128 0.2207533
v 0.1994217 0.003305569 0.2017728
v 0.3359079 -0.00888861 -0.1128383
v 0.09892508 0.1452131 -0.03745452
v 0.09892508 0.1452131 -0.03745452
v 0.05604491 0.04440768 -0.2383646
v -0.140401 0.06387107 -0.1975211
v -0.2364592 0.1250028 -0.06846324
v -0.005526811 0.1644128 0.2207533
v 0.09892508 0.1452131 -0.03745452
v -0.2364592 0.1250028 -0.06846324
v -0.2557897 0.1139849 0.2336222
v -0.3138612 0.02107941 0.1375271
v -0.2364592 0.1250028 -0.06846324
v -0.3178424 0.009868518 -0.1049642
v -0.2557897 0.1139849 0.2336222
v -0.3178424 0.009868518 -0.1049642
v -0.2364592 0.1250028 -0.06846324
v -0.140401 0.06387107 -0.1975211
v -0.1938788 -0.0311751 -0.1866144
v -0.3138612 0.02107941 0.1375271
v -0.1984061 -0.1341286 0.1488095
v -0.1117665 -0.08692073 0.3005205
v -0.267897 0.02072777 0.2563153
v 0.3359079 -0.00888861 -0.1128383
v 0.1994217 0.003305569 0.2017728
v 0.2863716 -0.1058891 0.1425396
v 0.3359079 -0.07899812 -0.1128383
v -0.1984061 -0.1341286 0.1488095
v -0.1941316 -0.0936287 -0.0842866
v 0.09332207 -0.1250541 -0.183051
v 0.05747113 -0.1456169 0.2210089
v 0.1994217 0.003305569 0.2017728
v -0.005526811 0.1644128 0.2207533
v -0.09450391 0.08579828 0.3032432
v 0.08189556 -0.04774803 0.313788
v 0.05845025 -0.07098213 -0.2506756
v 0.09332207 -0.1250541 -0.183051
v -0.1941316 -0.0936287 -0.0842866
v -0.1938788 -0.0311751 -0.1866144
v 0.3359079 -0.00888861 -0.1128383
v 0.3359079 -0.07899812 -0.1128383
v 0.3137945 -0.05537456 -0.3744024
v 0.3105175 0.01047213 -0.3280453
v 0.09892508 0.1452131 -0.03745452
v 0.3359079 -0.00888861 -0.1128383
v 0.3105175 0.01047213 -0.3280453
v 0.1619168 0.02114098 -0.3406738
vn -0.06651734 -0.009080257 0.997744
vn -0.06651734 -0.009080257 0.997744
vn -0.06651734 -0.009080257 0.997744
vn 0.1588597 -0.9866404 -0.03611563
vn 0.1588597 -0.9866404 -0.03611563
vn 0.1588597 -0.9866404 -0.03611563
vn 0.3389172 -0.6904343 0.6390896
vn 0.3389172 -0.6904343 0.6390896
vn 0.3389172 -0.6904343 0.6390896
vn 0.09228966 -0.6970817 0.7110272
vn 0.09228966 -0.6970817 0.7110272
vn 0.09228966 -0.6970817 0.7110272
vn -0.1452419 -0.9181529 0.3686465
vn -0.1452419 -0.9181529 0.3686465
vn -0.1452419 -0.9181529 0.3686465
vn -0.1263517 0.7826101 0.6095544
vn -0.1263517 0.7826101 0.6095544
vn -0.1263517 0.7826101 0.6095544
vn 0.6572344 0.1196929 0.7441214
vn 0.6572344 0.1196929 0.7441214
vn 0.6572344 0.1196929 0.7441214
vn -0.2124417 -0.8136985 -0.541076
vn -0.2124417 -0.8136985 -0.541076
vn -0.2124417 -0.8136985 -0.541076
vn -0.3822624 -0.389358 -0.838019
vn -0.3822624 -0.389358 -0.838019
vn -0.3822624 -0.389358 -0.838019
vn 0.1101875 0.5758197 -0.8101174
vn 0.1101875 0.5758197 -0.8101174
vn 0.1101875 0.5758197 -0.8101174
vn -0.9126884 0.2045769 0.3537628
vn -0.9126884 0.2045769 0.3537628
vn -0.9126884 0.2045769 0.3537628
vn -0.6863304 0.06299633 -0.7245564
vn -0.6863304 0.06299633 -0.7245564
vn -0.6863304 0.06299633 -0.7245564
vn -0.1961624 0.8925809 -0.4059799
vn -0.1961624 0.8925809 -0.4059799
vn -0.1961624 0.8925809 -0.4059799
vn -0.530772 -0.7228367 -0.4424795
vn -0.530772 -0.7228367 -0.4424795
vn -0.530772 -0.7228367 -0.4424795
vn -0.7310166 -0.6810417 -0.04239262
vn -0.7310166 -0.6810417 -0.04239262
vn -0.7310166 -0.6810417 -0.04239262
vn -0.7310166 -0.6810417 -0.04239262
vn -0.2197157 0.05982256 -0.9737281
vn -0.2197157 0.05982256 -0.9737281
vn -0.2197157 0.05982256 -0.9737281
vn -0.2197157 0.05982256 -0.9737281
vn 0.2094391 -0.9741533 -0.08461975
vn 0.2094391 -0.9741533 -0.08461975
vn 0.2038123 -0.9769589 -0.06333884
vn 0.2149628 -0.9708681 -0.105859
vn -0.2960009 0.1039781 0.9495115
vn -0.2960009 0.1039781 0.9495115
vn -0.2960009 0.1039781 0.9495115
vn -0.2960009 0.1039781 0.9495115
vn 0.5970402 0.7745956 0.2086736
vn 0.5970402 0.7745956 0.2086736
vn 0.5970402 0.7745956 0.2086736
vn 0.5970402 0.7745956 0.2086736
vn -0.009173201 0.8969279 -0.4420817
vn -0.00448728 0.8941775 -0.4476902
vn -0.009173201 0.8969279 -0.4420817
vn -0.01385856 0.8996236 -0.4364461
vn -0.1184077 0.9921328 -0.04064693
vn -0.1184077 0.9921328 -0.04064693
vn -0.1184077 0.9921328 -0.04064693
vn -0.1184077 0.9921328 -0.04064693
vn -0.8232961 0.5671363 -0.02323416
vn -0.8232961 0.5671363 -0.02323416
vn -0.8145064 0.579999 -0.01344199
vn -0.8318073 0.5540816 -0.03301845
vn -0.516928 0.4223535 -0.7445823
vn -0.516928 0.4223535 -0.7445823
vn -0.516928 0.4223535 -0.7445823
vn -0.516928 0.4223535 -0.7445823
vn -0.6709654 -0.6018081 0.4331656
vn -0.6709654 -0.6018081 0.4331656
vn -0.6709654 -0.6018081 0.4331656
vn -0.6709654 -0.6018081 0.4331656
vn 0.8934546 0.3340906 0.3002035
vn 0.8934546 0.3340906 0.3002035
vn 0.8934546 0.3340906 0.3002035
vn 0.8934546 0.3340906 0.3002035
vn -0.08321137 -0.9914756 -0.1002598
vn -0.08321137 -0.9914756 -0.1002598
vn -0.08321137 -0.9914756 -0.1002598
vn -0.08321137 -0.9914756 -0.1002598
vn 0.4047481 0.5019524 0.7643447
vn 0.4047481 0.5019524 0.7643447
vn 0.4047481 0.5019524 0.7643447
vn 0.4047481 0.5019524 0.7643447
vn -0.2617385 -0.8200459 -0.5089377
vn -0.2617385 -0.8200459 -0.5089377
vn -0.2617385 -0.8200459 -0.5089377
vn -0.2617385 -0.8200459 -0.5089377
vn 0.9939966 0.0560062 -0.09398892
vn 0.9939966 0.0560062 -0.09398892
vn 0.9939966 0.0560062 -0.09398892
vn 0.9939966 0.0560062 -0.09398892
vn 0.3660274 0.9169788 -0.1586628
vn 0.3660274 0.9169788 -0.1586628
vn 0.3660274 0.9169788 -0.1586628
vn 0.3660274 0.9169788 -0.1586628
vt 0.8429995 0.8458535
vt 0.8429995 0.8458535
vt 0.8429995 0.8458535
vt 0.8429995 0.8458535
vt 0.8429995 0.8458535
vt 0.8429995 0.8458535
vt 0.8429995 0.8458535
vt 0.8429995 0.8458535
vt 0.8429995 0.8458535
vt 0.8429995 0.8458535
vt 0.8429995 0.8458535
vt 0.8429995 0.8458535
vt 0.8429995 0.8458535
vt 0.8429995 0.8458535
vt 0.8429995 0.8458535
vt 0.8429995 0.8458535
vt 0.8429995 0.8458535
vt 0.8429995 0.8458535
vt 0.8429995 0.8458535
vt 0.8429995 0.8458535
vt 0.8429995 0.8458535
vt 0.8429995 0.8458535
vt 0.8429995 0.8458535
vt 0.8429995 0.8458535
vt 0.8429995 0.8458535
vt 0.8429995 0.8458535
vt 0.8429995 0.8458535
vt 0.8429995 0.8458535
vt 0.8429995 0.8458535
vt 0.8429995 0.8458535
vt 0.8429995 0.8458535
vt 0.8429995 0.8458535
vt 0.8429995 0.8458535
vt 0.8429995 0.8458535
vt 0.8429995 0.8458535
vt 0.8429995 0.8458535
vt 0.8429995 0.8458535
vt 0.8429995 0.8458535
vt 0.8429995 0.8458535
vt 0.8429995 0.8458535
vt 0.8429995 0.8458535
vt 0.8429995 0.8458535
vt 0.8429995 0.8458535
vt 0.8429995 0.8458535
vt 0.8429995 0.8458535
vt 0.8429995 0.8458535
vt 0.8429995 0.8458535
vt 0.8429995 0.8458535
vt 0.8429995 0.8458535
vt 0.8429995 0.8458535
vt 0.8429995 0.8458535
vt 0.8429995 0.8458535
vt 0.8429995 0.8458535
vt 0.8429995 0.8458535
vt 0.8429995 0.8458535
vt 0.8429995 0.8458535
vt 0.8429995 0.8458535
vt 0.8429995 0.8458535
vt 0.8429995 0.8458535
vt 0.8429995 0.8458535
vt 0.8429995 0.8458535
vt 0.8429995 0.8458535
vt 0.8429995 0.8458535
vt 0.8429995 0.8458535
vt 0.8429995 0.8458535
vt 0.8429995 0.8458535
vt 0.8429995 0.8458535
vt 0.8429995 0.8458535
vt 0.8429995 0.8458535
vt 0.8429995 0.8458535
vt 0.8429995 0.8458535
vt 0.8429995 0.8458535
vt 0.8429995 0.8458535
vt 0.8429995 0.8458535
vt 0.8429995 0.8458535
vt 0.8429995 0.8458535
vt 0.8429995 0.8458535
vt 0.8429995 0.8458535
vt 0.8429995 0.8458535
vt 0.8429995 0.8458535
vt 0.8429995 0.8458535
vt 0.8429995 0.8458535
vt 0.8429995 0.8458535
vt 0.8429995 0.8458535
vt 0.8429995 0.8458535
vt 0.8429995 0.8458535
vt 0.8429995 0.8458535
vt 0.8429995 0.8458535
vt 0.8429995 0.8458535
vt 0.8429995 0.8458535
vt 0.8429995 0.8458535
vt 0.8429995 0.8458535
vt 0.8429995 0.8458535
vt 0.8429995 0.8458535
vt 0.8429995 0.8458535
vt 0.8429995 0.8458535
vt 0.8429995 0.8458535
vt 0.8429995 0.8458535
vt 0.8429995 0.8458535
vt 0.8429995 0.8458535
vt 0.8429995 0.8458535
vt 0.8429995 0.8458535
vt 0.8429995 0.8458535
vt 0.8429995 0.8458535
vt 0.8429995 0.8458535
vt 0.8429995 0.8458535
f 1/1/1 2/2/2 3/3/3
f 4/4/4 5/5/5 6/6/6
f 7/7/7 8/8/8 9/9/9
f 10/10/10 11/11/11 12/12/12
f 13/13/13 14/14/14 15/15/15
f 16/16/16 17/17/17 18/18/18
f 19/19/19 20/20/20 21/21/21
f 22/22/22 23/23/23 24/24/24
f 25/25/25 26/26/26 27/27/27
f 28/28/28 29/29/29 30/30/30
f 31/31/31 32/32/32 33/33/33
f 34/34/34 35/35/35 36/36/36
f 37/37/37 38/38/38 39/39/39
f 40/40/40 41/41/41 42/42/42
f 43/43/43 44/44/44 45/45/45
f 43/43/43 45/45/45 46/46/46
f 47/47/47 48/48/48 49/49/49
f 47/47/47 49/49/49 50/50/50
f 51/51/51 52/52/52 53/53/53
f 54/54/54 52/52/52 51/51/51
f 55/55/55 56/56/56 57/57/57
f 55/55/55 57/57/57 58/58/58
f 59/59/59 60/60/60 61/61/61
f 59/59/59 61/61/61 62/62/62
f 63/63/63 64/64/64 65/65/65
f 63/63/63 65/65/65 66/66/66
f 67/67/67 68/68/68 69/69/69
f 67/67/67 69/69/69 70/70/70
f 71/71/71 72/72/72 73/73/73
f 72/72/72 71/71/71 74/74/74
f 75/75/75 76/76/76 77/77/77
f 75/75/75 77/77/77 78/78/78
f 79/79/79 80/80/80 81/81/81
f 79/79/79 81/81/81 82/82/82
f 83/83/83 84/84/84 85/85/85
f 83/83/83 85/85/85 86/86/86
f 87/87/87 88/88/88 89/89/89
f 87/87/87 89/89/89 90/90/90
f 91/91/91 92/92/92 93/93/93
f 91/91/91 93/93/93 94/94/94
f 95/95/95 96/96/96 97/97/97
f 95/95/95 97/97/97 98/98/98
f 99/99/99 100/100/100 101/101/101
f 99/99/99 101/101/101 102/102/102
f 103/103/103 104/104/104 105/105/105
f 103/103/103 105/105/105 106/106/106
