v 0.3393832 1.127499 0.4426864
v 0.3987522 1.020233 0.2609572
v 0.605432 0.9098736 0.4486181
v -0.8457248 0.1181902 -0.5819026
v -0.2835646 0.4437723 -0.4480017
v -0.6543027 0.5119895 -0.2529013
v 0.1262243 -0.7225133 -0.938718
v -0.2786903 -0.669567 -1.045483
v 0.2718857 -0.8052163 -0.2296398
v -0.808584 -0.3848354 -0.9776483
v -0.9870423 -0.6751738 -0.7555581
v -0.6608017 -0.6756264 -1.027516
v 1.239759 -0.657957 0.6588491
v 1.45059 -0.647482 -0.0500388
v 1.172546 -0.708463 -0.4561665
v -1.103786 -0.7280306 -0.01863177
v -0.9508565 -0.668887 0.7552238
v -0.6924807 -0.8184556 0.2546325
v -0.2786903 -0.669567 -1.045483
v -0.6608017 -0.6756264 -1.027516
v -0.367236 -0.8367842 -0.7881051
v 0.7990926 -0.7730201 0.4647278
v 1.239759 -0.657957 0.6588491
v 1.172546 -0.708463 -0.4561665
v 0.7145241 0.4600374 0.1970789
v 0.5465859 0.7354417 -0.05428704
v 0.7988518 0.2489256 -0.2188254
v -1.078789 -0.22539 0.5541092
v -0.9940541 0.4170945 0.369689
v -0.6658023 0.2877596 0.907628
v 0.6519794 -0.01622688 -0.5477105
v 0.7988518 0.2489256 -0.2188254
v 0.3553069 0.1624537 -0.6654504
v -0.6543027 0.5119895 -0.2529013
v -0.8150162 0.7182406 0.2392378
v -0.8457248 0.1181902 -0.5819026
v -1.103786 -0.7280306 -0.01863177
v -0.9870423 -0.6751738 -0.7555581
v -1.166769 -0.2047826 -0.09277062
v 0.5465859 0.7354417 -0.05428704
v 0.1527621 0.6937342 -0.2459254
v 0.05800572 0.3243589 -0.6636805
v 0.8607561 -0.7087381 -0.7540667
v 0.1262243 -0.7225133 -0.938718
v 0.2718857 -0.8052163 -0.2296398
v -0.2835646 0.4437723 -0.4480017
v 0.05800572 0.3243589 -0.6636805
v 0.1527621 0.6937342 -0.2459254
v -0.2835646 0.4437723 -0.4480017
v 0.1527621 0.6937342 -0.2459254
v 0.06677655 0.9640577 0.02785051
v 0.605432 0.9098736 0.4486181
v 0.3987522 1.020233 0.2609572
v 0.5465859 0.7354417 -0.05428704
v -0.808584 -0.3848354 -0.9776483
v -0.56427 -0.08422322 -1.044733
v -0.8457248 0.1181902 -0.5819026
v -0.6608017 -0.6756264 -1.027516
v -0.2786903 -0.669567 -1.045483
v -0.3146068 -0.3240176 -1.114018
v 1.102568 0.002432884 0.6075132
v 0.7747272 0.4873948 0.5452355
v 1.085964 0.2048689 0.3182704
v -0.367236 -0.8367842 -0.7881051
v -0.6608017 -0.6756264 -1.027516
v -0.9870423 -0.6751738 -0.7555581
v -0.6461268 1.03839 0.7218074
v -0.1795224 1.103058 0.1981831
v 0.3393832 1.127499 0.4426864
v 0.6519794 -0.01622688 -0.5477105
v 0.8668056 -0.4284778 -0.8145169
v 1.175254 -0.1420147 -0.5124994
v -0.2786903 -0.669567 -1.045483
v -0.367236 -0.8367842 -0.7881051
v 0.2718857 -0.8052163 -0.2296398
v -0.9870423 -0.6751738 -0.7555581
v -0.2914599 -0.8854078 -0.2316794
v -0.367236 -0.8367842 -0.7881051
v -0.2914599 -0.8854078 -0.2316794
v 0.2718857 -0.8052163 -0.2296398
v -0.367236 -0.8367842 -0.7881051
v 1.239759 -0.657957 0.6588491
v 0.7990926 -0.7730201 0.4647278
v 0.5199811 -0.7617947 0.8046563
v -0.9940541 0.4170945 0.369689
v -0.7290896 0.7399185 0.8365175
v -0.6658023 0.2877596 0.907628
v -0.9940541 0.4170945 0.369689
v -1.078789 -0.22539 0.5541092
v -1.166769 -0.2047826 -0.09277062
v -0.1795224 1.103058 0.1981831
v 0.06677655 0.9640577 0.02785051
v 0.3987522 1.020233 0.2609572
v 0.3393832 1.127499 0.4426864
v 1.358882 0.0319983 -0.1814851
v 1.102568 0.002432884 0.6075132
v 1.085964 0.2048689 0.3182704
v 0.7988518 0.2489256 -0.2188254
v 0.7747272 0.4873948 0.5452355
v 0.605432 0.9098736 0.4486181
v 0.5465859 0.7354417 -0.05428704
v 0.7145241 0.4600374 0.1970789
v 1.175254 -0.1420147 -0.5124994
v 0.8668056 -0.4284778 -0.8145169
v 0.8607561 -0.7087381 -0.7540667
v 1.172546 -0.708463 -0.4561665
v -1.166769 -0.2047826 -0.09277062
v -0.9870423 -0.6751738 -0.7555581
v -0.808584 -0.3848354 -0.9776483
v -0.8457248 0.1181902 -0.5819026
v -0.8457248 0.1181902 -0.5819026
v -0.56427 -0.08422322 -1.044733
v 0.05800572 0.3243589 -0.6636805
v -0.2835646 0.4437723 -0.4480017
v 1.358882 0.0319983 -0.1814851
v 0.7988518 0.2489256 -0.2188254
v 0.6519794 -0.01622688 -0.5477105
v 1.175254 -0.1420147 -0.5124994
v 0.3553069 0.1624537 -0.6654504
v 0.7988518 0.2489256 -0.2188254
v 0.5465859 0.7354417 -0.05428704
v 0.05800572 0.3243589 -0.6636805
v 0.7990926 -0.7730201 0.4647278
v 0.2718857 -0.8052163 -0.2296398
v -0.2914599 -0.8854078 -0.2316794
v 0.5199811 -0.7617947 0.8046563
v 0.8668056 -0.4284778 -0.8145169
v 0.1858912 -0.4340905 -1.051386
v 0.1262243 -0.7225133 -0.938718
v 0.8607561 -0.7087381 -0.7540667
v -0.808584 -0.3848354 -0.9776483
v -0.6608017 -0.6756264 -1.027516
v -0.3146068 -0.3240176 -1.114018
v -0.56427 -0.08422322 -1.044733
v -0.9870423 -0.6751738 -0.7555581
v -1.103786 -0.7280306 -0.01863177
v -0.6924807 -0.8184556 0.2546325
v -0.2914599 -0.8854078 -0.2316794
v 1.172546 -0.708463 -0.4561665
v 0.8607561 -0.7087381 -0.7540667
v 0.2718857 -0.8052163 -0.2296398
v 0.7990926 -0.7730201 0.4647278
v 1.45059 -0.647482 -0.0500388
v 1.239759 -0.657957 0.6588491
v 1.102568 0.002432884 0.6075132
v 1.358882 0.0319983 -0.1814851
v -0.6924807 -0.8184556 0.2546325
v -0.1206682 -0.7326291 0.9401975
v 0.5199811 -0.7617947 0.8046563
v -0.2914599 -0.8854078 -0.2316794
v 0.1858912 -0.4340905 -1.051386
v -0.3146068 -0.3240176 -1.114018
v -0.2786903 -0.669567 -1.045483
v 0.1262243 -0.7225133 -0.938718
v -1.166769 -0.2047826 -0.09277062
v -0.8457248 0.1181902 -0.5819026
v -0.8150162 0.7182406 0.2392378
v -0.9940541 0.4170945 0.369689
v 0.1527621 0.6937342 -0.2459254
v 0.5465859 0.7354417 -0.05428704
v 0.3987522 1.020233 0.2609572
v 0.06677655 0.9640577 0.02785051
v -0.1795224 1.103058 0.1981831
v -0.6543027 0.5119895 -0.2529013
v -0.2835646 0.4437723 -0.4480017
v 0.06677655 0.9640577 0.02785051
v 0.05800572 0.3243589 -0.6636805
v 0.1858912 -0.4340905 -1.051386
v 0.3553069 0.1624537 -0.6654504
v -0.3146068 -0.3240176 -1.114018
v -0.56427 -0.08422322 -1.044733
v -0.9508565 -0.668887 0.7552238
v -1.078789 -0.22539 0.5541092
v -0.6658023 0.2877596 0.907628
v -0.5593622 -0.6564602 1.037743
v -1.078789 -0.22539 0.5541092
v -0.9508565 -0.668887 0.7552238
v -1.103786 -0.7280306 -0.01863177
v -1.166769 -0.2047826 -0.09277062
v -0.9508565 -0.668887 0.7552238
v -0.5593622 -0.6564602 1.037743
v -0.6924807 -0.8184556 0.2546325
v -0.1206682 -0.7326291 0.9401975
v 0.3553069 0.1624537 -0.6654504
v 0.1858912 -0.4340905 -1.051386
v 0.8668056 -0.4284778 -0.8145169
v 0.6519794 -0.01622688 -0.5477105
v 1.45059 -0.647482 -0.0500388
v 1.358882 0.0319983 -0.1814851
v 1.175254 -0.1420147 -0.5124994
v 1.172546 -0.708463 -0.4561665
v 1.239759 -0.657957 0.6588491
v 0.5199811 -0.7617947 0.8046563
v 1.102568 0.002432884 0.6075132
v 0.5743856 0.05276351 0.692727
v -0.1206682 -0.7326291 0.9401975
v 0.0159588 0.1068603 0.7873362
v -0.6658023 0.2877596 0.907628
v -0.5593622 -0.6564602 1.037743
v 0.7145241 0.4600374 0.1970789
v 0.7988518 0.2489256 -0.2188254
v 1.085964 0.2048689 0.3182704
v 0.7747272 0.4873948 0.5452355
v -0.8150162 0.7182406 0.2392378
v -0.6543027 0.5119895 -0.2529013
v -0.1795224 1.103058 0.1981831
v -0.6461268 1.03839 0.7218074
v -0.9940541 0.4170945 0.369689
v -0.8150162 0.7182406 0.2392378
v -0.6461268 1.03839 0.7218074
v -0.7290896 0.7399185 0.8365175
v 0.605432 0.9098736 0.4486181
v -0.6461268 1.03839 0.7218074
v 0.3393832 1.127499 0.4426864
v 0.0159588 0.1068603 0.7873362
v -0.6658023 0.2877596 0.907628
v -0.7290896 0.7399185 0.8365175
v 0.5743856 0.05276351 0.692727
v 0.7747272 0.4873948 0.5452355
v 1.102568 0.002432884 0.6075132
v 0.0159588 0.1068603 0.7873362
v 0.605432 0.9098736 0.4486181
vn 0.6178275 0.7487541 -0.2401175
vn 0.6178275 0.7487541 -0.2401175
vn 0.6178275 0.7487541 -0.2401175
vn -0.2348297 0.6879057 -0.6867611
vn -0.2348297 0.6879057 -0.6867611
vn -0.2348297 0.6879057 -0.6867611
vn -0.1046816 -0.9900563 -0.09397068
vn -0.1046816 -0.9900563 -0.09397068
vn -0.1046816 -0.9900563 -0.09397068
vn -0.6287708 -0.1902511 -0.7539575
vn -0.6287708 -0.1902511 -0.7539575
vn -0.6287708 -0.1902511 -0.7539575
vn 0.1655272 -0.9855958 0.0346658
vn 0.1655272 -0.9855958 0.0346658
vn 0.1655272 -0.9855958 0.0346658
vn -0.2948811 -0.9465644 0.1306178
vn -0.2948811 -0.9465644 0.1306178
vn -0.2948811 -0.9465644 0.1306178
vn -0.01249164 -0.8365257 -0.5477852
vn -0.01249164 -0.8365257 -0.5477852
vn -0.01249164 -0.8365257 -0.5477852
vn 0.2403626 -0.9702361 0.029459
vn 0.2403626 -0.9702361 0.029459
vn 0.2403626 -0.9702361 0.029459
vn 0.8769295 0.4763408 -0.06398523
vn 0.8769295 0.4763408 -0.06398523
vn 0.8769295 0.4763408 -0.06398523
vn -0.794509 0.2620291 0.5478104
vn -0.794509 0.2620291 0.5478104
vn -0.794509 0.2620291 0.5478104
vn 0.562983 0.5022581 -0.6563436
vn 0.562983 0.5022581 -0.6563436
vn 0.562983 0.5022581 -0.6563436
vn -0.5745252 0.670931 -0.4687987
vn -0.5745252 0.670931 -0.4687987
vn -0.5745252 0.670931 -0.4687987
vn -0.9762255 -0.1408513 -0.1647566
vn -0.9762255 -0.1408513 -0.1647566
vn -0.9762255 -0.1408513 -0.1647566
vn 0.2535444 0.6954173 -0.6723912
vn 0.2535444 0.6954173 -0.6723912
vn 0.2535444 0.6954173 -0.6723912
vn 0.05022415 -0.9907739 -0.1258757
vn 0.05022415 -0.9907739 -0.1258757
vn 0.05022415 -0.9907739 -0.1258757
vn -0.1382546 0.7573129 -0.6382498
vn -0.1382546 0.7573129 -0.6382498
vn -0.1382546 0.7573129 -0.6382498
vn -0.0705002 0.6986496 -0.7119819
vn -0.0705002 0.6986496 -0.7119819
vn -0.0705002 0.6986496 -0.7119819
vn 0.6535811 0.6881218 -0.3151511
vn 0.6535811 0.6881218 -0.3151511
vn 0.6535811 0.6881218 -0.3151511
vn -0.6818165 0.4205546 -0.5985483
vn -0.6818165 0.4205546 -0.5985483
vn -0.6818165 0.4205546 -0.5985483
vn -0.04288875 -0.1986562 -0.9791303
vn -0.04288875 -0.1986562 -0.9791303
vn -0.04288875 -0.1986562 -0.9791303
vn 0.7562767 0.5556157 0.3454515
vn 0.7562767 0.5556157 0.3454515
vn 0.7562767 0.5556157 0.3454515
vn -0.2552604 -0.917611 -0.3046836
vn -0.2552604 -0.917611 -0.3046836
vn -0.2552604 -0.917611 -0.3046836
vn -0.07383235 0.9956307 0.05716817
vn -0.07383235 0.9956307 0.05716817
vn -0.07383235 0.9956307 0.05716817
vn 0.1969644 0.6029657 -0.7730702
vn 0.1969644 0.6029657 -0.7730702
vn 0.1969644 0.6029657 -0.7730702
vn 0.3924339 -0.8271055 -0.4023581
vn 0.3924339 -0.8271055 -0.4023581
vn 0.3924339 -0.8271055 -0.4023581
vn -0.2544403 -0.9658082 -0.0497472
vn -0.2544403 -0.9658082 -0.0497472
vn -0.2544403 -0.9658082 -0.0497472
vn 0.1405197 -0.9844767 -0.1051656
vn 0.1405197 -0.9844767 -0.1051656
vn 0.1405197 -0.9844767 -0.1051656
vn 0.1753919 -0.9686392 0.1759995
vn 0.1753919 -0.9686392 0.1759995
vn 0.1753919 -0.9686392 0.1759995
vn -0.8571333 -0.03919677 0.5136011
vn -0.8571333 -0.03919677 0.5136011
vn -0.8571333 -0.03919677 0.5136011
vn -0.9760022 0.1683632 0.1381069
vn -0.9760022 0.1683632 0.1381069
vn -0.9760022 0.1683632 0.1381069
vn 0.1745657 0.8715854 -0.458111
vn 0.1745657 0.8715854 -0.458111
vn 0.1745657 0.8715854 -0.458111
vn 0.1745657 0.8715854 -0.458111
vn 0.5759572 0.8168544 0.03197354
vn 0.5759572 0.8168544 0.03197354
vn 0.5759572 0.8168544 0.03197354
vn 0.5759572 0.8168544 0.03197354
vn 0.9172758 0.3391708 -0.2087298
vn 0.9172758 0.3391708 -0.2087298
vn 0.9172758 0.3391708 -0.2087298
vn 0.9172758 0.3391708 -0.2087298
vn 0.7156786 -0.1026866 -0.6908398
vn 0.7156786 -0.1026866 -0.6908398
vn 0.7156786 -0.1026866 -0.6908398
vn 0.7156786 -0.1026866 -0.6908398
vn -0.8805237 0.2443796 -0.4061484
vn -0.8839256 0.2333035 -0.4052717
vn -0.8805237 0.2443796 -0.4061484
vn -0.8770031 0.2554227 -0.4069704
vn -0.2305869 0.780028 -0.5817095
vn -0.2305869 0.780028 -0.5817095
vn -0.2305869 0.780028 -0.5817095
vn -0.2305869 0.780028 -0.5817095
vn 0.2733697 0.7319965 -0.6240594
vn 0.2733697 0.7319965 -0.6240594
vn 0.2733697 0.7319965 -0.6240594
vn 0.2733697 0.7319965 -0.6240594
vn 0.4653113 0.5684034 -0.6785299
vn 0.4653113 0.5684034 -0.6785299
vn 0.4653113 0.5684034 -0.6785299
vn 0.4653113 0.5684034 -0.6785299
vn 0.08965746 -0.9957658 0.02029802
vn 0.08965746 -0.9957658 0.02029802
vn 0.08965746 -0.9957658 0.02029802
vn 0.08965746 -0.9957658 0.02029802
vn 0.2753349 -0.308946 -0.9103533
vn 0.2753349 -0.308946 -0.9103533
vn 0.2753349 -0.308946 -0.9103533
vn 0.2753349 -0.308946 -0.9103533
vn -0.2678711 0.01567807 -0.9633272
vn -0.2678711 0.01567807 -0.9633272
vn -0.2678711 0.01567807 -0.9633272
vn -0.2678711 0.01567807 -0.9633272
vn -0.2091296 -0.9748291 -0.07728611
vn -0.2091296 -0.9748291 -0.07728611
vn -0.2091296 -0.9748291 -0.07728611
vn -0.2091296 -0.9748291 -0.07728611
vn 0.09483455 -0.9943521 -0.04764635
vn 0.09483455 -0.9943521 -0.04764635
vn 0.09483455 -0.9943521 -0.04764635
vn 0.09483455 -0.9943521 -0.04764635
vn 0.9338328 0.1999919 0.2965798
vn 0.9338328 0.1999919 0.2965798
vn 0.9338328 0.1999919 0.2965798
vn 0.9338328 0.1999919 0.2965798
vn -0.01317227 -0.9912747 0.1311532
vn -0.01317227 -0.9912747 0.1311532
vn -0.01317227 -0.9912747 0.1311532
vn -0.01317227 -0.9912747 0.1311532
vn 0.1282929 -0.2769859 -0.9522708
vn 0.1282929 -0.2769859 -0.9522708
vn 0.1282929 -0.2769859 -0.9522708
vn 0.1282929 -0.2769859 -0.9522708
vn -0.864058 0.4258411 -0.268446
vn -0.864058 0.4258411 -0.268446
vn -0.864058 0.4258411 -0.268446
vn -0.864058 0.4258411 -0.268446
vn 0.2543201 0.7521693 -0.6079167
vn 0.2543201 0.7521693 -0.6079167
vn 0.2543201 0.7521693 -0.6079167
vn 0.2543201 0.7521693 -0.6079167
vn -0.17233 0.7032399 -0.6897508
vn -0.17233 0.7032399 -0.6897508
vn -0.17233 0.7032399 -0.6897508
vn -0.17233 0.7032399 -0.6897508
vn 0.2205578 0.4721099 -0.8535025
vn 0.2263103 0.4733353 -0.851315
vn 0.2263103 0.4733353 -0.851315
vn 0.2205578 0.4721099 -0.8535025
vn 0.2147966 0.4708658 -0.8556564
vn -0.6470711 0.07188708 0.7590331
vn -0.6470711 0.07188708 0.7590331
vn -0.6470711 0.07188708 0.7590331
vn -0.6470711 0.07188708 0.7590331
vn -0.9749476 -0.1443499 0.1692346
vn -0.9749476 -0.1443499 0.1692346
vn -0.9749476 -0.1443499 0.1692346
vn -0.9749476 -0.1443499 0.1692346
vn -0.129475 -0.9664291 0.221926
vn -0.1242681 -0.9672751 0.2212159
vn -0.1242681 -0.9672751 0.2212159
vn -0.1190576 -0.9680936 0.2204995
vn 0.3713443 0.5161269 -0.7718267
vn 0.3713443 0.5161269 -0.7718267
vn 0.3713443 0.5161269 -0.7718267
vn 0.3713443 0.5161269 -0.7718267
vn 0.8500153 -0.01862098 -0.5264287
vn 0.8500153 -0.01862098 -0.5264287
vn 0.8500153 -0.01862098 -0.5264287
vn 0.8500153 -0.01862098 -0.5264287
vn 0.1814809 0.1136341 0.9768071
vn 0.1822444 0.1232163 0.9755023
vn 0.175486 0.1183425 0.9773432
vn 0.1826198 0.1280036 0.9748155
vn 0.2021066 0.1376046 0.9696483
vn 0.2021066 0.1376046 0.9696483
vn 0.2245423 0.1506894 0.9627427
vn 0.2405267 0.1590622 0.9575208
vn 0.6001914 0.7687265 -0.2209748
vn 0.6001914 0.7687265 -0.2209748
vn 0.6001914 0.7687265 -0.2209748
vn 0.6001914 0.7687265 -0.2209748
vn -0.4915581 0.7679593 -0.4106207
vn -0.4915581 0.7679593 -0.4106207
vn -0.4915581 0.7679593 -0.4106207
vn -0.4915581 0.7679593 -0.4106207
vn -0.8928008 0.4361484 0.1126115
vn -0.8928008 0.4361484 0.1126115
vn -0.8928008 0.4361484 0.1126115
vn -0.8928008 0.4361484 0.1126115
vn 0.2307009 0.2448895 0.9417039
vn 0.2424808 0.2355323 0.9411311
vn 0.2307009 0.2448895 0.9417039
vn 0.2424808 0.2355323 0.9411311
vn 0.2542056 0.2261216 0.9403449
vn 0.2542056 0.2261216 0.9403449
vn 0.1737005 0.2531871 0.9516956
vn 0.1737005 0.2531871 0.9516956
vn 0.1769806 0.242147 0.9539616
vn 0.1703965 0.2641924 0.9492984
vn 0.1703965 0.2641924 0.9492984
vt 0.7952859 0.8332275
vt 0.7952859 0.8332275
vt 0.7952859 0.8332275
vt 0.7952859 0.8332275
vt 0.7952859 0.8332275
vt 0.7952859 0.8332275
vt 0.7952859 0.8332275
vt 0.7952859 0.8332275
vt 0.7952859 0.8332275
vt 0.7952859 0.8332275
vt 0.7952859 0.8332275
vt 0.7952859 0.8332275
vt 0.7952859 0.8332275
vt 0.7952859 0.8332275
vt 0.7952859 0.8332275
vt 0.7952859 0.8332275
vt 0.7952859 0.8332275
vt 0.7952859 0.8332275
vt 0.7952859 0.8332275
vt 0.7952859 0.8332274
vt 0.7952859 0.8332275
vt 0.7952859 0.8332275
vt 0.7952859 0.8332275
vt 0.7952859 0.8332275
vt 0.7952859 0.8332275
vt 0.7952859 0.8332275
vt 0.7952859 0.8332275
vt 0.7952859 0.8332275
vt 0.7952859 0.8332275
vt 0.7952859 0.8332275
vt 0.7952859 0.8332275
vt 0.7952859 0.8332275
vt 0.7952859 0.8332275
vt 0.7952859 0.8332275
vt 0.7952859 0.8332275
vt 0.7952859 0.8332275
vt 0.7952859 0.8332275
vt 0.7952859 0.8332275
vt 0.7952859 0.8332275
vt 0.7952859 0.8332275
vt 0.7952859 0.8332275
vt 0.7952859 0.8332275
vt 0.7952859 0.8332275
vt 0.7952859 0.8332275
vt 0.7952859 0.8332275
vt 0.7952859 0.8332275
vt 0.7952859 0.8332275
vt 0.7952859 0.8332275
vt 0.7952859 0.8332275
vt 0.7952859 0.8332275
vt 0.7952859 0.8332275
vt 0.7952859 0.8332275
vt 0.7952859 0.8332275
vt 0.7952859 0.8332275
vt 0.7952859 0.8332275
vt 0.7952859 0.8332275
vt 0.7952859 0.8332275
vt 0.7952859 0.8332275
vt 0.7952859 0.8332275
vt 0.7952859 0.8332275
vt 0.7952859 0.8332275
vt 0.7952859 0.8332275
vt 0.7952859 0.8332275
vt 0.7952859 0.8332275
vt 0.7952859 0.8332274
vt 0.7952859 0.8332275
vt 0.7952859 0.8332275
vt 0.7952859 0.8332275
vt 0.7952859 0.8332275
vt 0.7952859 0.8332275
vt 0.7952859 0.8332275
vt 0.7952859 0.8332275
vt 0.7952859 0.8332275
vt 0.7952859 0.8332275
vt 0.7952859 0.8332275
vt 0.7952859 0.8332275
vt 0.7952859 0.8332275
vt 0.7952859 0.8332275
vt 0.7952859 0.8332275
vt 0.7952859 0.8332275
vt 0.7952859 0.8332275
vt 0.7952859 0.8332275
vt 0.7952859 0.8332275
vt 0.7952859 0.8332275
vt 0.7952859 0.8332275
vt 0.7952859 0.8332275
vt 0.7952859 0.8332275
vt 0.7952859 0.8332275
vt 0.7952859 0.8332275
vt 0.7952859 0.8332275
vt 0.7952859 0.8332275
vt 0.7952859 0.8332275
vt 0.7952859 0.8332275
vt 0.7952859 0.8332275
vt 0.7952859 0.8332275
vt 0.7952859 0.8332275
vt 0.7952859 0.8332275
vt 0.7952859 0.8332275
vt 0.7952859 0.8332275
vt 0.7952859 0.8332275
vt 0.7952859 0.8332275
vt 0.7952859 0.8332275
vt 0.7952859 0.8332275
vt 0.7952859 0.8332275
vt 0.7952859 0.8332275
vt 0.7952859 0.8332275
vt 0.7952859 0.8332275
vt 0.7952859 0.8332275
vt 0.7952859 0.8332275
vt 0.7952859 0.8332275
vt 0.7952859 0.8332275
vt 0.7952859 0.8332275
vt 0.7952859 0.8332275
vt 0.7952859 0.8332275
vt 0.7952859 0.8332275
vt 0.7952859 0.8332275
vt 0.7952859 0.8332275
vt 0.7952859 0.8332275
vt 0.7952859 0.8332275
vt 0.7952859 0.8332275
vt 0.7952859 0.8332275
vt 0.7952859 0.8332275
vt 0.7952859 0.8332275
vt 0.7952859 0.8332275
vt 0.7952859 0.8332275
vt 0.7952859 0.8332275
vt 0.7952859 0.8332275
vt 0.7952859 0.8332275
vt 0.7952859 0.8332275
vt 0.7952859 0.8332275
vt 0.7952859 0.8332275
vt 0.7952859 0.8332275
vt 0.7952859 0.8332275
vt 0.7952859 0.8332275
vt 0.7952859 0.8332275
vt 0.7952859 0.8332275
vt 0.7952859 0.8332275
vt 0.7952859 0.8332275
vt 0.7952859 0.8332275
vt 0.7952859 0.8332275
vt 0.7952859 0.8332275
vt 0.7952859 0.8332275
vt 0.7952859 0.8332275
vt 0.7952859 0.8332275
vt 0.7952859 0.8332275
vt 0.7952859 0.8332275
vt 0.7952859 0.8332275
vt 0.7952859 0.8332275
vt 0.7952859 0.8332275
vt 0.7952859 0.8332275
vt 0.7952859 0.8332275
vt 0.7952859 0.8332275
vt 0.7952859 0.8332275
vt 0.7952859 0.8332275
vt 0.7952859 0.8332275
vt 0.7952859 0.8332275
vt 0.7952859 0.8332275
vt 0.7952859 0.8332275
vt 0.7952859 0.8332275
vt 0.7952859 0.8332275
vt 0.7952859 0.8332275
vt 0.7952859 0.8332275
vt 0.7952859 0.8332275
vt 0.7952859 0.8332275
vt 0.7952859 0.8332275
vt 0.7952859 0.8332275
vt 0.7952859 0.8332275
vt 0.7952859 0.8332275
vt 0.7952859 0.8332275
vt 0.7952859 0.8332275
vt 0.7952859 0.8332275
vt 0.7952859 0.8332275
vt 0.7952859 0.8332275
vt 0.7952859 0.8332275
vt 0.7952859 0.8332275
vt 0.7952859 0.8332275
vt 0.7952859 0.8332275
vt 0.7952859 0.8332275
vt 0.7952859 0.8332275
vt 0.7952859 0.8332275
vt 0.7952859 0.8332275
vt 0.7952859 0.8332275
vt 0.7952859 0.8332275
vt 0.7952859 0.8332275
vt 0.7952859 0.8332275
vt 0.7952859 0.8332275
vt 0.7952859 0.8332275
vt 0.7952859 0.8332275
vt 0.7952859 0.8332275
vt 0.7952859 0.8332275
vt 0.7952859 0.8332275
vt 0.7952859 0.8332275
vt 0.7952859 0.8332275
vt 0.7952859 0.8332275
vt 0.7952859 0.8332275
vt 0.7952859 0.8332275
vt 0.7952859 0.8332275
vt 0.7952859 0.8332275
vt 0.7952859 0.8332275
vt 0.7952859 0.8332275
vt 0.7952859 0.8332275
vt 0.7952859 0.8332275
vt 0.7952859 0.8332275
vt 0.7952859 0.8332275
vt 0.7952859 0.8332275
vt 0.7952859 0.8332275
vt 0.7952859 0.8332275
vt 0.7952859 0.8332275
vt 0.7952859 0.8332275
vt 0.7952859 0.8332275
vt 0.7952859 0.8332275
vt 0.7952858 0.8332275
vt 0.7952859 0.8332275
vt 0.7952859 0.8332275
vt 0.7952859 0.8332275
vt 0.7952859 0.8332274
vt 0.7952859 0.8332275
vt 0.7952859 0.8332275
vt 0.7952859 0.8332275
vt 0.7952859 0.8332275
vt 0.7952859 0.8332275
vt 0.7952858 0.8332275
f 3/3/3 2/2/2 1/1/1
f 6/6/6 5/5/5 4/4/4
f 9/9/9 8/8/8 7/7/7
f 12/12/12 11/11/11 10/10/10
f 15/15/15 14/14/14 13/13/13
f 18/18/18 17/17/17 16/16/16
f 21/21/21 20/20/20 19/19/19
f 24/24/24 23/23/23 22/22/22
f 27/27/27 26/26/26 25/25/25
f 30/30/30 29/29/29 28/28/28
f 33/33/33 32/32/32 31/31/31
f 36/36/36 35/35/35 34/34/34
f 39/39/39 38/38/38 37/37/37
f 42/42/42 41/41/41 40/40/40
f 45/45/45 44/44/44 43/43/43
f 48/48/48 47/47/47 46/46/46
f 51/51/51 50/50/50 49/49/49
f 54/54/54 53/53/53 52/52/52
f 57/57/57 56/56/56 55/55/55
f 60/60/60 59/59/59 58/58/58
f 63/63/63 62/62/62 61/61/61
f 66/66/66 65/65/65 64/64/64
f 69/69/69 68/68/68 67/67/67
f 72/72/72 71/71/71 70/70/70
f 75/75/75 74/74/74 73/73/73
f 78/78/78 77/77/77 76/76/76
f 81/81/81 80/80/80 79/79/79
f 84/84/84 83/83/83 82/82/82
f 87/87/87 86/86/86 85/85/85
f 90/90/90 89/89/89 88/88/88
f 93/93/93 92/92/92 91/91/91
f 94/94/94 93/93/93 91/91/91
f 97/97/97 96/96/96 95/95/95
f 98/98/98 97/97/97 95/95/95
f 101/101/101 100/100/100 99/99/99
f 102/102/102 101/101/101 99/99/99
f 105/105/105 104/104/104 103/103/103
f 106/106/106 105/105/105 103/103/103
f 109/109/109 108/108/108 107/107/107
f 109/109/109 107/107/107 110/110/110
f 113/113/113 112/112/112 111/111/111
f 114/114/114 113/113/113 111/111/111
f 117/117/117 116/116/116 115/115/115
f 118/118/118 117/117/117 115/115/115
f 121/121/121 120/120/120 119/119/119
f 122/122/122 121/121/121 119/119/119
f 125/125/125 124/124/124 123/123/123
f 126/126/126 125/125/125 123/123/123
f 129/129/129 128/128/128 127/127/127
f 130/130/130 129/129/129 127/127/127
f 133/133/133 132/132/132 131/131/131
f 134/134/134 133/133/133 131/131/131
f 137/137/137 136/136/136 135/135/135
f 138/138/138 137/137/137 135/135/135
f 141/141/141 140/140/140 139/139/139
f 142/142/142 141/141/141 139/139/139
f 145/145/145 144/144/144 143/143/143
f 146/146/146 145/145/145 143/143/143
f 149/149/149 148/148/148 147/147/147
f 150/150/150 149/149/149 147/147/147
f 153/153/153 152/152/152 151/151/151
f 154/154/154 153/153/153 151/151/151
f 157/157/157 156/156/156 155/155/155
f 158/158/158 157/157/157 155/155/155
f 161/161/161 160/160/160 159/159/159
f 162/162/162 161/161/161 159/159/159
f 165/165/165 164/164/164 163/163/163
f 166/166/166 165/165/165 163/163/163
f 169/169/169 168/168/168 167/167/167
f 168/168/168 170/170/170 167/167/167
f 170/170/170 171/171/171 167/167/167
f 174/174/174 173/173/173 172/172/172
f 175/175/175 174/174/174 172/172/172
f 178/178/178 177/177/177 176/176/176
f 179/179/179 178/178/178 176/176/176
f 182/182/182 181/181/181 180/180/180
f 181/181/181 182/182/182 183/183/183
f 186/186/186 185/185/185 184/184/184
f 187/187/187 186/186/186 184/184/184
f 190/190/190 189/189/189 188/188/188
f 191/191/191 190/190/190 188/188/188
f 194/194/194 193/193/193 192/192/192
f 195/195/195 193/193/193 194/194/194
f 196/196/196 193/193/193 195/195/195
f 197/197/197 196/196/196 195/195/195
f 196/196/196 197/197/197 198/198/198
f 199/199/199 196/196/196 198/198/198
f 202/202/202 201/201/201 200/200/200
f 203/203/203 202/202/202 200/200/200
f 206/206/206 205/205/205 204/204/204
f 207/207/207 206/206/206 204/204/204
f 210/210/210 209/209/209 208/208/208
f 211/211/211 210/210/210 208/208/208
f 214/214/214 213/213/213 212/212/212
f 213/213/213 215/215/215 212/212/212
f 216/216/216 215/215/215 213/213/213
f 217/217/217 216/216/216 213/213/213
f 220/220/220 219/219/219 218/218/218
f 221/221/221 218/218/218 219/219/219
f 222/222/222 221/221/221 219/219/219
