v -0.1311997 0.4289116 0.1613373
v 0.1301888 0.5076213 0.1774742
v -0.2312428 0.4953795 0.114302
v -0.1311997 0.4289116 0.1613373
v -0.2312428 0.4953795 0.114302
v -0.4558319 0.4877729 0.184019
v 0.8827219 0.4734728 -0.03162716
v 0.8806293 0.3906721 -0.06578539
v 0.1301888 0.5076214 -0.04864032
v 0.1301888 0.5076214 -0.04864032
v 0.8806293 0.3906721 -0.06578539
v 0.8806293 0.4734729 -0.09107968
v -0.8726369 0.3570261 0.03417386
v -0.6652023 0.4806814 0.02975549
v -0.8726408 0.4736556 0.001294389
v -0.8726369 0.3570261 0.03417386
v -0.8726408 0.4736556 0.1068223
v -0.6652023 0.4806814 0.02975549
v -0.8726408 0.4736556 -0.1893239
v 0.1301888 0.359129 -0.1600175
v -0.8726366 0.3251633 -0.1488174
v 0.1301888 0.5076214 -0.200524
v 0.8806293 0.4734729 -0.1892644
v 0.8806261 0.3249805 -0.1487575
v -0.8726366 0.3251633 0.1481677
v -0.8726366 0.2636558 -0.000324841
v 0.1301888 0.2976215 -0.01152493
v 0.1301888 0.359129 0.1369677
v -0.8726366 0.2636558 -0.000324841
v -0.8726366 0.3251633 -0.1488174
v 0.1301888 0.359129 -0.1600175
v 0.1301888 0.2976215 -0.01152493
v -0.4558319 0.4877729 0.184019
v -0.8726408 0.4736556 0.1886739
v -0.8726366 0.3251633 0.1481677
v 0.1301888 0.359129 0.1369677
v -0.1311997 0.4289116 0.1613373
v 0.1301888 0.5076213 0.1774742
v 0.8806261 0.3249804 0.1482276
v 0.8806293 0.4734728 0.1887342
v 0.1301888 0.5076214 -0.04864032
v 0.1301888 0.5076214 -0.200524
v -0.8726408 0.4736556 -0.1893239
v -0.8726408 0.4736556 0.001294389
v -0.6652023 0.4806814 0.02975549
v 0.1301888 0.5076213 0.1774742
v -0.2312428 0.4953795 0.114302
v -0.8726408 0.4736556 0.1068223
v -0.8726408 0.4736556 0.1886739
v -0.4558319 0.4877729 0.184019
v 0.1301888 0.5076213 0.1774742
v 0.8806293 0.4734728 0.1887342
v 0.8827219 0.4734728 -0.03162716
v 0.1301888 0.5076214 -0.04864032
v 0.8806293 0.4734729 -0.09107968
v 0.8806293 0.4734729 -0.1892644
v 0.1301888 0.5076214 -0.200524
v 0.1301888 0.2976215 -0.01152493
v 0.8806261 0.2634729 -0.06406508
v 0.8806261 0.3249804 0.1482276
v 0.1301888 0.359129 0.1369677
v 0.1301888 0.359129 -0.1600175
v 0.8806261 0.3249805 -0.1487575
v 0.8806261 0.2634729 -0.06406508
v 0.1301888 0.2976215 -0.01152493
v -0.8726366 0.3251633 -0.1488174
v -0.8726366 0.2636558 -0.000324841
v -0.8726366 0.3251633 0.1481677
v -0.8726369 0.3570261 0.03417386
v -0.8726408 0.4736556 0.1886739
v -0.8726408 0.4736556 0.1068223
v -0.8726408 0.4736556 -0.1893239
v -0.8726408 0.4736556 0.001294389
v 0.8806261 0.3249804 0.1482276
v 0.8806261 0.2634729 -0.06406508
v 0.8806261 0.3249805 -0.1487575
v 0.8806293 0.4734728 0.1887342
v 0.8806293 0.3906721 -0.06578539
v 0.8827219 0.4734728 -0.03162716
v 0.8806293 0.4734729 -0.1892644
v 0.8806293 0.4734729 -0.09107968
v -0.4859059 0.3550525 0.1221143
v -0.5760866 0.3550525 0.08494371
v -0.589053 5.960464E-08 0.09848462
v -0.4850528 5.960464E-08 0.1414847
v -0.3961686 0.3550526 -0.09560134
v -0.3586846 0.3550526 -0.005550513
v -0.3380528 8.940697E-08 -0.005515523
v -0.3810527 1.192093E-07 -0.1085155
v -0.5764002 0.3550525 -0.09528781
v -0.4863491 0.3550525 -0.1327717
v -0.485053 1.192093E-07 -0.1525154
v -0.589053 1.192093E-07 -0.1095154
v -0.6320529 8.940697E-08 -0.005515423
v -0.589053 5.960464E-08 0.09848462
v -0.5760866 0.3550525 0.08494371
v -0.6135706 0.3550525 -0.005107212
v -0.4850528 5.960464E-08 0.1414847
v -0.3810529 5.960464E-08 0.09848452
v -0.395855 0.3550526 0.08463018
v -0.4859059 0.3550525 0.1221143
v -0.4863491 0.3550525 -0.1327717
v -0.3961686 0.3550526 -0.09560134
v -0.3810527 1.192093E-07 -0.1085155
v -0.485053 1.192093E-07 -0.1525154
v -0.6135706 0.3550525 -0.005107212
v -0.5764002 0.3550525 -0.09528781
v -0.589053 1.192093E-07 -0.1095154
v -0.6320529 8.940697E-08 -0.005515423
v 0.3799471 8.940697E-08 -0.02951547
v 0.3990588 0.3773575 -0.0275875
v 0.4478292 0.3773575 -0.1120605
v 0.4359471 1.192093E-07 -0.1275155
v 0.5069469 5.960464E-08 0.1344845
v 0.5087774 0.3773574 0.1154001
v 0.4243047 0.3773574 0.06662958
v 0.408947 8.940697E-08 0.0784846
v 0.4359471 1.192093E-07 -0.1275155
v 0.4478292 0.3773575 -0.1120605
v 0.5420465 0.3773575 -0.137306
v 0.5449473 1.192093E-07 -0.1565155
v 0.6419472 1.192093E-07 -0.1005155
v 0.6265195 0.3773575 -0.08853575
v 0.6517649 0.3773575 0.005681423
v 0.670947 8.940697E-08 0.008484563
v 0.614947 5.960464E-08 0.1054845
v 0.6029944 0.3773574 0.09015439
v 0.5087774 0.3773574 0.1154001
v 0.5069469 5.960464E-08 0.1344845
v -0.3380528 8.940697E-08 -0.005515523
v -0.3586846 0.3550526 -0.005550513
v -0.395855 0.3550526 0.08463018
v -0.3810529 5.960464E-08 0.09848452
v 0.5449473 1.192093E-07 -0.1565155
v 0.5420465 0.3773575 -0.137306
v 0.6265195 0.3773575 -0.08853575
v 0.6419472 1.192093E-07 -0.1005155
v 0.670947 8.940697E-08 0.008484563
v 0.6517649 0.3773575 0.005681423
v 0.6029944 0.3773574 0.09015439
v 0.614947 5.960464E-08 0.1054845
v 0.4243047 0.3773574 0.06662958
v 0.3990588 0.3773575 -0.0275875
v 0.3799471 8.940697E-08 -0.02951547
v 0.408947 8.940697E-08 0.0784846
vn -0.1715861 0.383804 0.9073328
vn -0.1715861 0.383804 0.9073328
vn -0.1715861 0.383804 0.9073328
vn 0.1787918 0.7332999 0.6559762
vn 0.1787918 0.7332999 0.6559762
vn 0.1787918 0.7332999 0.6559762
vn 0.03814715 0.3802571 -0.9240938
vn 0.03814715 0.3802571 -0.9240938
vn 0.03814715 0.3802571 -0.9240938
vn 0.06722727 0.2914948 0.9542072
vn 0.06722727 0.2914948 0.9542072
vn 0.06722727 0.2914948 0.9542072
vn -0.1398571 0.2686664 0.9530259
vn -0.1398571 0.2686664 0.9530259
vn -0.1398571 0.2686664 0.9530259
vn -0.3161578 0.5015887 -0.8052658
vn -0.3161578 0.5015887 -0.8052658
vn -0.3161578 0.5015887 -0.8052658
vn -0.00186127 -0.263169 -0.964748
vn 0.0003192718 -0.26317 -0.9647494
vn -0.00186127 -0.263169 -0.964748
vn 0.0003192718 -0.26317 -0.9647494
vn 0.002499812 -0.2631698 -0.9647463
vn 0.002499812 -0.2631698 -0.9647463
vn 0.03554334 -0.923296 0.3824411
vn 0.03554334 -0.923296 0.3824411
vn 0.03554334 -0.923296 0.3824411
vn 0.03554334 -0.923296 0.3824411
vn 0.02700795 -0.9235426 -0.3825434
vn 0.02700795 -0.9235426 -0.3825434
vn 0.02700795 -0.9235426 -0.3825434
vn 0.02700795 -0.9235426 -0.3825434
vn 0.01968574 -0.2631109 0.9645647
vn 0.01968395 -0.2631159 0.9645635
vn 0.01968424 -0.2631165 0.9645633
vn 0.0196855 -0.2631119 0.9645645
vn 0.01968599 -0.2631092 0.9645653
vn 0.01968322 -0.2631187 0.9645626
vn -0.02644181 -0.2630774 0.9644123
vn -0.02644181 -0.2630774 0.9644123
vn -0.03385055 0.999427 0
vn -0.03385052 0.999427 0
vn -0.03385054 0.999427 0
vn -0.03385046 0.999427 0
vn -0.03385182 0.9994268 0
vn -0.03385334 0.9994268 0
vn -0.03385175 0.9994268 0
vn -0.03385023 0.999427 0
vn -0.03385041 0.999427 0
vn -0.03385058 0.999427 0
vn 0.04539051 0.9989693 0.0002130114
vn 0.04539051 0.9989693 0.0002130114
vn 0.04539051 0.9989693 0.0002130114
vn 0.04542406 0.9989678 0.0001065057
vn 0.04545761 0.9989662 0
vn 0.04545761 0.9989662 0
vn 0.04545761 0.9989662 0
vn -0.03417396 -0.9459413 0.3225326
vn -0.03417396 -0.9459413 0.3225326
vn -0.03417396 -0.9459413 0.3225326
vn -0.03417396 -0.9459413 0.3225326
vn -0.05300639 -0.8832271 -0.4659403
vn -0.05300639 -0.8832271 -0.4659403
vn -0.05300639 -0.8832271 -0.4659403
vn -0.05300639 -0.8832271 -0.4659403
vn -1 0 0
vn -1 0 0
vn -1 0 0
vn -1 0 0
vn -1 0 0
vn -1 0 0
vn -1 0 0
vn -1 0 0
vn 1 0 0
vn 1 0 0
vn 1 0 0
vn 0.9999477 -0.009726517 0.003164245
vn 0.9999706 -0.007294769 0.002373145
vn 0.9995292 -0.0291765 0.009491742
vn 1 0 0
vn 1 0 0
vn -0.3811562 0.04928937 0.9231958
vn -0.3811562 0.04928937 0.9231958
vn -0.3811562 0.04928937 0.9231958
vn -0.3811562 0.04928937 0.9231958
vn 0.9216833 0.05336806 -0.3842548
vn 0.9216833 0.05336806 -0.3842548
vn 0.9216833 0.05336806 -0.3842548
vn 0.9216833 0.05336806 -0.3842548
vn -0.3826274 0.05025309 -0.9225351
vn -0.3826274 0.05025309 -0.9225351
vn -0.3826274 0.05025309 -0.9225351
vn -0.3826274 0.05025309 -0.9225351
vn -0.9226401 0.04793834 0.3826711
vn -0.9226401 0.04793834 0.3826711
vn -0.9226401 0.04793834 0.3826711
vn -0.9226401 0.04793834 0.3826711
vn 0.3826034 0.05159606 0.9224709
vn 0.3826034 0.05159606 0.9224709
vn 0.3826034 0.05159606 0.9224709
vn 0.3826034 0.05159606 0.9224709
vn 0.3851671 0.0512783 -0.9214211
vn 0.3851671 0.0512783 -0.9214211
vn 0.3851671 0.0512783 -0.9214211
vn 0.3851671 0.0512783 -0.9214211
vn -0.9232392 0.04833629 -0.381173
vn -0.9232392 0.04833629 -0.381173
vn -0.9232392 0.04833629 -0.381173
vn -0.9232392 0.04833629 -0.381173
vn -0.866258 0.04703049 -0.4973784
vn -0.866258 0.04703049 -0.4973784
vn -0.866258 0.04703049 -0.4973784
vn -0.866258 0.04703049 -0.4973784
vn -0.497384 0.04684006 0.866265
vn -0.497384 0.04684006 0.866265
vn -0.497384 0.04684006 0.866265
vn -0.497384 0.04684006 0.866265
vn -0.2576135 0.04739269 -0.965085
vn -0.2576135 0.04739269 -0.965085
vn -0.2576135 0.04739269 -0.965085
vn -0.2576135 0.04739269 -0.965085
vn 0.9650856 0.04738924 -0.2576123
vn 0.9650856 0.04738924 -0.2576123
vn 0.9650856 0.04738924 -0.2576123
vn 0.9650856 0.04738924 -0.2576123
vn 0.2588028 0.04746367 0.9647634
vn 0.2588028 0.04746367 0.9647634
vn 0.2588028 0.04746367 0.9647634
vn 0.2588028 0.04746367 0.9647634
vn 0.9229952 0.05351053 0.3810728
vn 0.9229952 0.05351053 0.3810728
vn 0.9229952 0.05351053 0.3810728
vn 0.9229952 0.05351053 0.3810728
vn 0.4994155 0.04787688 -0.8650388
vn 0.4994155 0.04787688 -0.8650388
vn 0.4994155 0.04787688 -0.8650388
vn 0.4994155 0.04787688 -0.8650388
vn 0.8650463 0.04768563 0.4994207
vn 0.8650463 0.04768563 0.4994207
vn 0.8650463 0.04768563 0.4994207
vn 0.8650463 0.04768563 0.4994207
vn -0.9647633 0.04746684 0.2588026
vn -0.9647633 0.04746684 0.2588026
vn -0.9647633 0.04746684 0.2588026
vn -0.9647633 0.04746684 0.2588026
vt 0.5739543 0.9673643
vt 0.5739543 0.9673643
vt 0.5739543 0.9673643
vt 0.5739543 0.9673643
vt 0.5739543 0.9673643
vt 0.5739543 0.9673643
vt 0.6712746 0.8421832
vt 0.6712746 0.8421832
vt 0.6712746 0.8421832
vt 0.6712746 0.8421832
vt 0.6712746 0.8421832
vt 0.6712746 0.8421832
vt 0.6712746 0.8421832
vt 0.6712746 0.8421832
vt 0.6712746 0.8421832
vt 0.6712746 0.8421832
vt 0.6712746 0.8421832
vt 0.6712746 0.8421832
vt 0.6712746 0.8421832
vt 0.6712746 0.8421832
vt 0.6712746 0.8421832
vt 0.6712746 0.8421832
vt 0.6712746 0.8421832
vt 0.6712746 0.8421832
vt 0.6712746 0.8421832
vt 0.6712746 0.8421832
vt 0.6712746 0.8421832
vt 0.6712746 0.8421832
vt 0.6712746 0.8421832
vt 0.6712746 0.8421832
vt 0.6712746 0.8421832
vt 0.6712746 0.8421832
vt 0.6712746 0.8421832
vt 0.6712746 0.8421832
vt 0.6712746 0.8421832
vt 0.6712746 0.8421832
vt 0.6712746 0.8421832
vt 0.6712746 0.8421832
vt 0.6712746 0.8421832
vt 0.6712746 0.8421832
vt 0.6712746 0.8421832
vt 0.6712746 0.8421832
vt 0.6712746 0.8421832
vt 0.6712746 0.8421832
vt 0.6712746 0.8421832
vt 0.6712746 0.8421832
vt 0.6712746 0.8421832
vt 0.6712746 0.8421832
vt 0.6712746 0.8421832
vt 0.6712745 0.8421832
vt 0.6712746 0.8421832
vt 0.6712746 0.8421832
vt 0.6712746 0.8421832
vt 0.6712746 0.8421832
vt 0.6712746 0.8421832
vt 0.6712746 0.8421832
vt 0.6712746 0.8421832
vt 0.6712746 0.8421832
vt 0.6712746 0.8421832
vt 0.6712746 0.8421832
vt 0.6712746 0.8421832
vt 0.6712746 0.8421832
vt 0.6712746 0.8421832
vt 0.6712746 0.8421832
vt 0.6712746 0.8421832
vt 0.6712746 0.8421832
vt 0.6712746 0.8421832
vt 0.6712746 0.8421832
vt 0.6712746 0.8421832
vt 0.6712746 0.8421832
vt 0.6712747 0.8421832
vt 0.6712746 0.8421832
vt 0.6712747 0.8421832
vt 0.6712746 0.8421832
vt 0.6712746 0.8421832
vt 0.6712746 0.8421832
vt 0.6712746 0.8421832
vt 0.6712746 0.8421832
vt 0.6712747 0.8421832
vt 0.6712746 0.8421832
vt 0.6712747 0.8421832
vt 0.6712746 0.8421832
vt 0.6712746 0.8421832
vt 0.6712746 0.8421832
vt 0.6712746 0.8421832
vt 0.6712746 0.8421832
vt 0.6712746 0.8421832
vt 0.6712746 0.8421832
vt 0.6712746 0.8421832
vt 0.6712746 0.8421832
vt 0.6712746 0.8421832
vt 0.6712746 0.8421832
vt 0.6712746 0.8421832
vt 0.6712746 0.8421832
vt 0.6712746 0.8421832
vt 0.6712746 0.8421832
vt 0.6712746 0.8421832
vt 0.6712746 0.8421832
vt 0.6712746 0.8421832
vt 0.6712746 0.8421832
vt 0.6712746 0.8421832
vt 0.6712746 0.8421832
vt 0.6712746 0.8421832
vt 0.6712746 0.8421832
vt 0.6712746 0.8421832
vt 0.6712746 0.8421832
vt 0.6712746 0.8421832
vt 0.6712746 0.8421832
vt 0.6712746 0.8421832
vt 0.6712746 0.8421832
vt 0.6712746 0.8421832
vt 0.6712746 0.8421832
vt 0.6712746 0.8421832
vt 0.6712746 0.8421832
vt 0.6712746 0.8421832
vt 0.6712746 0.8421832
vt 0.6712746 0.8421832
vt 0.6712746 0.8421832
vt 0.6712746 0.8421832
vt 0.6712746 0.8421832
vt 0.6712746 0.8421832
vt 0.6712746 0.8421832
vt 0.6712746 0.8421832
vt 0.6712746 0.8421832
vt 0.6712746 0.8421832
vt 0.6712746 0.8421832
vt 0.6712746 0.8421832
vt 0.6712746 0.8421832
vt 0.6712746 0.8421832
vt 0.6712746 0.8421832
vt 0.6712746 0.8421832
vt 0.6712746 0.8421832
vt 0.6712746 0.8421832
vt 0.6712746 0.8421832
vt 0.6712746 0.8421832
vt 0.6712746 0.8421832
vt 0.6712746 0.8421832
vt 0.6712746 0.8421832
vt 0.6712746 0.8421832
vt 0.6712746 0.8421832
vt 0.6712746 0.8421832
vt 0.6712746 0.8421832
vt 0.6712746 0.8421832
vt 0.6712746 0.8421832
vt 0.6712746 0.8421832
f 1/1/1 2/2/2 3/3/3
f 4/4/4 5/5/5 6/6/6
f 7/7/7 8/8/8 9/9/9
f 10/10/10 11/11/11 12/12/12
f 13/13/13 14/14/14 15/15/15
f 16/16/16 17/17/17 18/18/18
f 19/19/19 20/20/20 21/21/21
f 19/19/19 22/22/22 20/20/20
f 23/23/23 20/20/20 22/22/22
f 23/23/23 24/24/24 20/20/20
f 25/25/25 26/26/26 27/27/27
f 25/25/25 27/27/27 28/28/28
f 29/29/29 30/30/30 31/31/31
f 29/29/29 31/31/31 32/32/32
f 33/33/33 34/34/34 35/35/35
f 35/35/35 36/36/36 33/33/33
f 36/36/36 37/37/37 33/33/33
f 36/36/36 38/38/38 37/37/37
f 38/38/38 36/36/36 39/39/39
f 38/38/38 39/39/39 40/40/40
f 41/41/41 42/42/42 43/43/43
f 43/43/43 44/44/44 41/41/41
f 44/44/44 45/45/45 41/41/41
f 45/45/45 46/46/46 41/41/41
f 45/45/45 47/47/47 46/46/46
f 45/45/45 48/48/48 47/47/47
f 47/47/47 48/48/48 49/49/49
f 49/49/49 50/50/50 47/47/47
f 51/51/51 52/52/52 53/53/53
f 51/51/51 53/53/53 54/54/54
f 54/54/54 55/55/55 56/56/56
f 54/54/54 56/56/56 57/57/57
f 58/58/58 59/59/59 60/60/60
f 58/58/58 60/60/60 61/61/61
f 62/62/62 63/63/63 64/64/64
f 62/62/62 64/64/64 65/65/65
f 66/66/66 67/67/67 68/68/68
f 68/68/68 69/69/69 66/66/66
f 69/69/69 68/68/68 70/70/70
f 70/70/70 71/71/71 69/69/69
f 69/69/69 72/72/72 66/66/66
f 69/69/69 73/73/73 72/72/72
f 74/74/74 75/75/75 76/76/76
f 76/76/76 77/77/77 74/74/74
f 76/76/76 78/78/78 77/77/77
f 78/78/78 79/79/79 77/77/77
f 78/78/78 76/76/76 80/80/80
f 80/80/80 81/81/81 78/78/78
f 82/82/82 83/83/83 84/84/84
f 82/82/82 84/84/84 85/85/85
f 86/86/86 87/87/87 88/88/88
f 86/86/86 88/88/88 89/89/89
f 90/90/90 91/91/91 92/92/92
f 90/90/90 92/92/92 93/93/93
f 94/94/94 95/95/95 96/96/96
f 94/94/94 96/96/96 97/97/97
f 98/98/98 99/99/99 100/100/100
f 98/98/98 100/100/100 101/101/101
f 102/102/102 103/103/103 104/104/104
f 102/102/102 104/104/104 105/105/105
f 106/106/106 107/107/107 108/108/108
f 106/106/106 108/108/108 109/109/109
f 110/110/110 111/111/111 112/112/112
f 110/110/110 112/112/112 113/113/113
f 114/114/114 115/115/115 116/116/116
f 114/114/114 116/116/116 117/117/117
f 118/118/118 119/119/119 120/120/120
f 118/118/118 120/120/120 121/121/121
f 122/122/122 123/123/123 124/124/124
f 122/122/122 124/124/124 125/125/125
f 126/126/126 127/127/127 128/128/128
f 126/126/126 128/128/128 129/129/129
f 130/130/130 131/131/131 132/132/132
f 130/130/130 132/132/132 133/133/133
f 134/134/134 135/135/135 136/136/136
f 134/134/134 136/136/136 137/137/137
f 138/138/138 139/139/139 140/140/140
f 138/138/138 140/140/140 141/141/141
f 142/142/142 143/143/143 144/144/144
f 142/142/142 144/144/144 145/145/145
