v -2.758547 -1.430513E-06 -0.1395422
v -2.748106 -1.430513E-06 -0.1499993
v -2.669483 -1.430513E-06 -0.1499993
v -2.658548 -1.430513E-06 -0.139064
v -2.758547 -1.430513E-06 0.1395475
v -2.658548 -1.430513E-06 -0.1204034
v -2.658548 -1.430513E-06 0.1325113
v -2.658548 -1.430513E-06 0.1390611
v -2.669483 -1.430513E-06 0.1499964
v -2.748106 -1.430513E-06 0.1499964
v -0.8534912 3.717107 -0.1499993
v -0.8534912 -1.430513E-06 -0.1499993
v -0.9320893 -1.430513E-06 -0.1499993
v -0.9320893 3.638517 -0.1499993
v -0.9430327 -1.430513E-06 -0.139064
v -0.9320893 -1.430513E-06 -0.1499993
v -0.8534912 -1.430513E-06 -0.1499993
v -0.8430341 -1.430513E-06 -0.1395422
v -0.8430341 -1.430513E-06 0.1395475
v -0.9430327 -1.430513E-06 -0.1204034
v -0.9430327 -1.430513E-06 0.1325113
v -0.9430327 -1.430513E-06 0.1390611
v -0.9320893 -1.430513E-06 0.1499964
v -0.8534912 -1.430513E-06 0.1499964
v -2.748106 3.717107 -0.1499993
v -0.8534912 3.717107 -0.1499993
v -0.9320893 3.638517 -0.1499993
v -2.669629 3.638517 -0.1499993
v -2.658702 3.627573 -0.139064
v -0.9430327 3.627573 -0.139064
v -2.658702 3.627573 -0.1204034
v -2.658548 -1.430513E-06 -0.139064
v -2.658702 3.627573 -0.139064
v -2.658548 -1.430513E-06 -0.1204034
v -2.658702 3.627573 0.1325113
v -2.658548 -1.430513E-06 0.1325113
v -2.658702 3.627573 0.1390611
v -2.658548 -1.430513E-06 0.1390611
v -2.669483 -1.430513E-06 0.1499964
v -2.669629 3.638517 0.1499964
v -0.9320893 3.638517 0.1500045
v -0.9320893 -1.430513E-06 0.1499964
v -0.8534912 -1.430513E-06 0.1499964
v -0.8534912 3.717107 0.1500045
v -0.8430341 3.727572 0.1395475
v -2.669629 3.638517 -0.1499993
v -2.748106 -1.430513E-06 -0.1499993
v -2.748106 3.717107 -0.1499993
v -2.669483 -1.430513E-06 -0.1499993
v -2.658548 -1.430513E-06 -0.139064
v -2.658702 3.627573 -0.139064
v -0.8430341 3.727572 0.1395475
v -0.8430341 -1.430513E-06 -0.1395422
v -0.8430341 3.727572 -0.1395422
v -0.8430341 -1.430513E-06 0.1395475
v -0.8534912 -1.430513E-06 0.1499964
v -2.658702 3.627573 0.1325113
v -0.9430327 3.627573 0.1390611
v -2.658702 3.627573 0.1390611
v -0.9430327 3.627573 0.1325113
v -2.658702 3.627573 -0.1204034
v -0.9430327 3.627573 -0.1204034
v -2.658702 3.627573 -0.139064
v -0.9430327 3.627573 -0.139064
v -2.669629 3.638517 0.1499964
v -2.658702 3.627573 0.1390611
v -0.9430327 3.627573 0.1390611
v -0.9320893 3.638517 0.1500045
v -0.8534912 3.717107 0.1500045
v -2.748106 3.717107 0.1499964
v -2.758547 3.727572 0.1395475
v -0.9430327 3.627573 -0.139064
v -0.9320893 3.638517 -0.1499993
v -0.9320893 -1.430513E-06 -0.1499993
v -0.9430327 -1.430513E-06 -0.139064
v -0.9430327 -1.430513E-06 -0.1204034
v -0.9430327 3.627573 -0.1204034
v -0.9430327 -1.430513E-06 0.1325113
v -0.9430327 3.627573 0.1325113
v -0.9430327 -1.430513E-06 0.1390611
v -0.9430327 3.627573 0.1390611
v -0.9320893 3.638517 0.1500045
v -0.9320893 -1.430513E-06 0.1499964
v -2.758547 3.727572 0.1395475
v -0.8430341 3.727572 -0.1395422
v -2.758547 3.727572 -0.1395422
v -0.8430341 3.727572 0.1395475
v -0.8534912 3.717107 0.1500045
v -2.758547 3.727572 -0.1395422
v -2.748106 3.717107 -0.1499993
v -2.748106 -1.430513E-06 -0.1499993
v -2.758547 -1.430513E-06 -0.1395422
v -2.758547 -1.430513E-06 0.1395475
v -2.758547 3.727572 0.1395475
v -2.748106 3.717107 0.1499964
v -2.748106 3.717107 0.1499964
v -2.758547 -1.430513E-06 0.1395475
v -2.748106 -1.430513E-06 0.1499964
v -2.669483 -1.430513E-06 0.1499964
v -2.669629 3.638517 0.1499964
v -0.8534912 3.717107 -0.1499993
v -0.8430341 3.727572 -0.1395422
v -0.8430341 -1.430513E-06 -0.1395422
v -0.8534912 -1.430513E-06 -0.1499993
v -2.748106 3.717107 -0.1499993
v -2.758547 3.727572 -0.1395422
v -0.8430341 3.727572 -0.1395422
v -0.8534912 3.717107 -0.1499993
v -1.430513E-06 0.2000038 -0.1
v -1.430513E-06 -1.430513E-06 0.09999714
v -1.430513E-06 -1.430513E-06 -0.1
v -1.430513E-06 0.2000038 0.09999714
v -1.430513E-06 3.707087 0.09999714
v -1.430513E-06 3.707087 -0.1
v -1.430513E-06 5 0.09999714
v -1.430513E-06 5 -0.1
v -3.5 0.2000038 0.09999714
v -3.5 -1.430513E-06 -0.1
v -3.5 -1.430513E-06 0.09999714
v -3.5 0.2000038 -0.1
v -3.5 3.707087 -0.1
v -3.5 3.707087 0.09999714
v -3.5 5 -0.1
v -3.5 5 0.09999714
v -2.759009 -1.430513E-06 -0.1
v -2.759009 -1.430513E-06 0.09999714
v -3.5 -1.430513E-06 0.09999714
v -3.5 -1.430513E-06 -0.1
v -3.5 0.2000038 -0.1
v -2.759009 0.2000038 -0.1
v -2.759009 -1.430513E-06 -0.1
v -3.5 -1.430513E-06 -0.1
v -1.430513E-06 0.2000038 0.09999714
v -0.8388188 0.2000038 0.09999714
v -0.8388188 -1.430513E-06 0.09999714
v -1.430513E-06 -1.430513E-06 0.09999714
v -1.430513E-06 -1.430513E-06 -0.1
v -1.430513E-06 -1.430513E-06 0.09999714
v -0.8388188 -1.430513E-06 0.09999714
v -0.8388188 -1.430513E-06 -0.1
v -3.5 3.707087 0.09999714
v -3.5 0.2000038 0.09999714
v -2.759009 0.2000038 0.09999714
v -2.759009 3.707087 0.09999714
v -3.5 5 0.09999714
v -2.759009 5 0.09999714
v -0.8388188 5 0.09999714
v -0.8388188 3.707087 0.09999714
v -1.430513E-06 3.707087 0.09999714
v -1.430513E-06 5 0.09999714
v -1.430513E-06 0.2000038 0.09999714
v -0.8388188 0.2000038 0.09999714
v -1.430513E-06 3.707087 -0.1
v -1.430513E-06 0.2000038 -0.1
v -0.8388188 0.2000038 -0.1
v -0.8388188 3.707087 -0.1
v -1.430513E-06 5 -0.1
v -0.8388188 5 -0.1
v -2.759009 5 -0.1
v -2.759009 3.707087 -0.1
v -3.5 3.707087 -0.1
v -3.5 5 -0.1
v -3.5 0.2000038 -0.1
v -2.759009 0.2000038 -0.1
v -0.8388188 0.2000038 -0.1
v -1.430513E-06 0.2000038 -0.1
v -1.430513E-06 -1.430513E-06 -0.1
v -0.8388188 -1.430513E-06 -0.1
v -0.8388188 5 -0.1
v -1.430513E-06 5 0.09999714
v -1.430513E-06 5 -0.1
v -0.8388188 5 0.09999714
v -2.759009 5 0.09999714
v -2.759009 5 -0.1
v -3.5 5 -0.1
v -3.5 5 0.09999714
v -2.759009 0.2000038 0.09999714
v -3.5 0.2000038 0.09999714
v -3.5 -1.430513E-06 0.09999714
v -2.759009 -1.430513E-06 0.09999714
vn 0.0009775166 -0.9999995 0
vn 0.0009775166 -0.9999995 0
vn 0.0009775166 -0.9999995 0
vn 0.0009775166 -0.9999995 0
vn 0.0009775166 -0.9999995 0
vn 0.0009775166 -0.9999995 0
vn 0.0009775166 -0.9999995 0
vn 0.0009775166 -0.9999995 0
vn 0.0009775166 -0.9999995 0
vn 0.0009775166 -0.9999995 0
vn 0.5522972 0.0009775171 -0.8336468
vn 0.3822092 0.0009775171 -0.9240753
vn -0.3822092 0.0009775171 -0.9240753
vn -0.2179863 0.0009775171 -0.9759514
vn 0.0009775166 -0.9999995 0
vn 0.0009775166 -0.9999995 0
vn 0.0009775166 -0.9999995 0
vn 0.0009775166 -0.9999995 0
vn 0.0009775166 -0.9999995 0
vn 0.0009775166 -0.9999995 0
vn 0.0009775166 -0.9999995 0
vn 0.0009775166 -0.9999995 0
vn 0.0009775166 -0.9999995 0
vn 0.0009775166 -0.9999995 0
vn 0.0009775171 0.5522972 -0.8336468
vn 0.0009775171 0.5522972 -0.8336468
vn 0.0009775171 -0.2179863 -0.9759514
vn 0.0009775171 -0.2179863 -0.9759514
vn 0.0009775171 -0.8963832 -0.443279
vn 0.0009775171 -0.8963832 -0.443279
vn 0.9999995 0.0009775166 0
vn 0.9237537 0.0009775171 -0.3829859
vn 0.8963832 0.0009775171 -0.443279
vn 0.9999995 0.0009775166 0
vn 0.9999995 0.0009775166 0
vn 0.9999995 0.0009775166 0
vn 0.8963832 0.0009775171 0.443279
vn 0.9237537 0.0009775171 0.3829859
vn 0.3822092 0.0009775171 0.9240753
vn 0.2179863 0.0009775171 0.9759514
vn -0.2179863 0.0009775171 0.9759514
vn -0.3822092 0.0009775171 0.9240753
vn 0.3822092 0.0009775171 0.9240753
vn 0.5522972 0.0009775171 0.8336468
vn 0.9569892 0.0009775171 0.2901218
vn 0.2179863 0.0009775171 -0.9759514
vn -0.3822092 0.0009775171 -0.9240753
vn -0.5522972 0.0009775171 -0.8336468
vn 0.3822092 0.0009775171 -0.9240753
vn 0.9237537 0.0009775171 -0.3829859
vn 0.8963832 0.0009775171 -0.443279
vn 0.9569892 0.0009775171 0.2901218
vn 0.9237537 0.0009775171 -0.3829859
vn 0.9569892 0.0009775171 -0.2901218
vn 0.9237537 0.0009775171 0.3829859
vn 0.3822092 0.0009775171 0.9240753
vn 0.0009775166 -0.9999995 0
vn 0.0009775171 -0.8963832 0.443279
vn 0.0009775171 -0.8963832 0.443279
vn 0.0009775166 -0.9999995 0
vn 0.0009775166 -0.9999995 0
vn 0.0009775166 -0.9999995 0
vn 0.0009775171 -0.8963832 -0.443279
vn 0.0009775171 -0.8963832 -0.443279
vn 0.0009775171 -0.2179863 0.9759514
vn 0.0009775171 -0.8963832 0.443279
vn 0.0009775171 -0.8963832 0.443279
vn 0.0009775171 -0.2179863 0.9759514
vn 0.0009775171 0.5522972 0.8336468
vn 0.0009775171 0.5522972 0.8336468
vn 0.0009775171 0.9569892 0.2901218
vn -0.8963832 0.0009775171 -0.443279
vn -0.2179863 0.0009775171 -0.9759514
vn -0.3822092 0.0009775171 -0.9240753
vn -0.9237537 0.0009775171 -0.3829859
vn -0.9999995 0.0009775166 0
vn -0.9999995 0.0009775166 0
vn -0.9999995 0.0009775166 0
vn -0.9999995 0.0009775166 0
vn -0.9237537 0.0009775171 0.3829859
vn -0.8963832 0.0009775171 0.443279
vn -0.2179863 0.0009775171 0.9759514
vn -0.3822092 0.0009775171 0.9240753
vn 0.0009775171 0.9569892 0.2901218
vn 0.0009775171 0.9569892 -0.2901218
vn 0.0009775171 0.9569892 -0.2901218
vn 0.0009775171 0.9569892 0.2901218
vn 0.0009775171 0.5522972 0.8336468
vn -0.9569892 0.0009775171 -0.2901218
vn -0.5522972 0.0009775171 -0.8336468
vn -0.3822092 0.0009775171 -0.9240753
vn -0.9237537 0.0009775171 -0.3829859
vn -0.9237537 0.0009775171 0.3829859
vn -0.9569892 0.0009775171 0.2901218
vn -0.5522972 0.0009775171 0.8336468
vn -0.5522972 0.0009775171 0.8336468
vn -0.9237537 0.0009775171 0.3829859
vn -0.3822092 0.0009775171 0.9240753
vn 0.3822092 0.0009775171 0.9240753
vn 0.2179863 0.0009775171 0.9759514
vn 0.5522972 0.0009775171 -0.8336468
vn 0.9569892 0.0009775171 -0.2901218
vn 0.9237537 0.0009775171 -0.3829859
vn 0.3822092 0.0009775171 -0.9240753
vn 0.0009775171 0.5522972 -0.8336468
vn 0.0009775171 0.9569892 -0.2901218
vn 0.0009775171 0.9569892 -0.2901218
vn 0.0009775171 0.5522972 -0.8336468
vn 0.9999995 0.0009775166 0
vn 0.7067448 -0.7067448 -0.03199081
vn 0.7067448 -0.7067448 -0.03199081
vn 0.9999995 0.0009775166 0
vn 0.9999995 0.0009775166 0
vn 0.9999995 0.0009775166 0
vn 0.7067448 0.7067448 -0.03199081
vn 0.7067448 0.7067448 -0.03199081
vn -0.9999995 0.0009775166 0
vn -0.7067448 -0.7067448 -0.03199081
vn -0.7067448 -0.7067448 -0.03199081
vn -0.9999995 0.0009775166 0
vn -0.9999995 0.0009775166 0
vn -0.9999995 0.0009775166 0
vn -0.7067448 0.7067448 -0.03199081
vn -0.7067448 0.7067448 -0.03199081
vn 0.0009775166 -0.9999995 0
vn 0.0009775166 -0.9999995 0
vn -0.7067448 -0.7067448 -0.03199081
vn -0.7067448 -0.7067448 -0.03199081
vn 0.0009775171 0.0009775171 -0.999999
vn 0.0009775171 0.0009775171 -0.999999
vn 0.0009775171 0.0009775171 -0.999999
vn 0.0009775171 0.0009775171 -0.999999
vn 0.0009775171 0.0009775171 0.999999
vn 0.0009775171 0.0009775171 0.999999
vn 0.0009775171 0.0009775171 0.999999
vn 0.0009775171 0.0009775171 0.999999
vn 0.7067448 -0.7067448 -0.03199081
vn 0.7067448 -0.7067448 -0.03199081
vn 0.0009775166 -0.9999995 0
vn 0.0009775166 -0.9999995 0
vn 0.0009775171 0.0009775171 0.999999
vn 0.0009775171 0.0009775171 0.999999
vn 0.0009775171 0.0009775171 0.999999
vn 0.0009775171 0.0009775171 0.999999
vn 0.0009775171 0.0009775171 0.999999
vn 0.0009775171 0.0009775171 0.999999
vn 0.0009775171 0.0009775171 0.999999
vn 0.0009775171 0.0009775171 0.999999
vn 0.0009775171 0.0009775171 0.999999
vn 0.0009775171 0.0009775171 0.999999
vn 0.0009775171 0.0009775171 0.999999
vn 0.0009775171 0.0009775171 0.999999
vn 0.0009775171 0.0009775171 -0.999999
vn 0.0009775171 0.0009775171 -0.999999
vn 0.0009775171 0.0009775171 -0.999999
vn 0.0009775171 0.0009775171 -0.999999
vn 0.0009775171 0.0009775171 -0.999999
vn 0.0009775171 0.0009775171 -0.999999
vn 0.0009775171 0.0009775171 -0.999999
vn 0.0009775171 0.0009775171 -0.999999
vn 0.0009775171 0.0009775171 -0.999999
vn 0.0009775171 0.0009775171 -0.999999
vn 0.0009775171 0.0009775171 -0.999999
vn 0.0009775171 0.0009775171 -0.999999
vn 0.0009775171 0.0009775171 -0.999999
vn 0.0009775171 0.0009775171 -0.999999
vn 0.0009775171 0.0009775171 -0.999999
vn 0.0009775171 0.0009775171 -0.999999
vn 0.0009775166 0.9999995 0
vn 0.7067448 0.7067448 -0.03199081
vn 0.7067448 0.7067448 -0.03199081
vn 0.0009775166 0.9999995 0
vn 0.0009775166 0.9999995 0
vn 0.0009775166 0.9999995 0
vn -0.7067448 0.7067448 -0.03199081
vn -0.7067448 0.7067448 -0.03199081
vn 0.0009775171 0.0009775171 0.999999
vn 0.0009775171 0.0009775171 0.999999
vn 0.0009775171 0.0009775171 0.999999
vn 0.0009775171 0.0009775171 0.999999
vt 0.3639852 0.1206817
vt 0.3654043 0.1192626
vt 0.3654043 0.1086645
vt 0.3639248 0.1072
vt 0.3263634 0.1206817
vt 0.3614036 0.1072
vt 0.3272995 0.1072
vt 0.3264238 0.1072
vt 0.3249443 0.1086645
vt 0.3249443 0.1192626
vt 0.402543 0.06805348
vt 0.2048777 0.06805348
vt 0.2048777 0.07834964
vt 0.402543 0.07834964
vt 0.3639248 0.1071849
vt 0.3654043 0.1057054
vt 0.3654043 0.09510733
vt 0.3639852 0.09370331
vt 0.3263634 0.09370331
vt 0.3614036 0.1071849
vt 0.3272995 0.1071849
vt 0.3264238 0.1071849
vt 0.3249443 0.1057054
vt 0.3249443 0.09510733
vt 0.5011265 0.06805348
vt 0.402543 0.06805348
vt 0.402543 0.07834964
vt 0.5011265 0.07834964
vt 0.5011265 0.08026697
vt 0.402543 0.08026697
vt 0.402543 0.0810973
vt 0.2048777 0.08026697
vt 0.402543 0.08026697
vt 0.2048777 0.0810973
vt 0.402543 0.09229929
vt 0.2048777 0.09229929
vt 0.402543 0.09258613
vt 0.2048777 0.09258613
vt 0.2048777 0.09454874
vt 0.402543 0.09454874
vt 0.402543 0.09454874
vt 0.2048777 0.09454874
vt 0.2048777 0.1051167
vt 0.402543 0.1051167
vt 0.402543 0.1070189
vt 0.402543 0.07834964
vt 0.2048777 0.06805348
vt 0.402543 0.06805348
vt 0.2048777 0.07834964
vt 0.2048777 0.08026697
vt 0.402543 0.08026697
vt 0.402543 0.1070189
vt 0.2048777 0.119957
vt 0.402543 0.119957
vt 0.2048777 0.1070189
vt 0.2048777 0.1051167
vt 0.5011265 0.09229929
vt 0.402543 0.09258613
vt 0.5011265 0.09258613
vt 0.402543 0.09229929
vt 0.5011265 0.0810973
vt 0.402543 0.0810973
vt 0.5011265 0.08026697
vt 0.402543 0.08026697
vt 0.5011265 0.09454874
vt 0.5011265 0.09258613
vt 0.402543 0.09258613
vt 0.402543 0.09454874
vt 0.402543 0.1051167
vt 0.5011265 0.1051167
vt 0.5011265 0.1070189
vt 0.402543 0.08026697
vt 0.402543 0.07834964
vt 0.2048777 0.07834964
vt 0.2048777 0.08026697
vt 0.2048777 0.0810973
vt 0.402543 0.0810973
vt 0.2048777 0.09229929
vt 0.402543 0.09229929
vt 0.2048777 0.09258613
vt 0.402543 0.09258613
vt 0.402543 0.09454874
vt 0.2048777 0.09454874
vt 0.5011265 0.1070189
vt 0.402543 0.119957
vt 0.5011265 0.119957
vt 0.402543 0.1070189
vt 0.402543 0.1051167
vt 0.402543 0.119957
vt 0.4020146 0.1204401
vt 0.2048777 0.1204401
vt 0.2048777 0.119957
vt 0.2048777 0.1070189
vt 0.402543 0.1070189
vt 0.402543 0.1051167
vt 0.402543 0.1051167
vt 0.2048777 0.1070189
vt 0.2048777 0.1051167
vt 0.2048777 0.09454874
vt 0.402543 0.09454874
vt 0.402543 0.06805348
vt 0.402543 0.06667965
vt 0.2048777 0.06667965
vt 0.2048777 0.06805348
vt 0.5011265 0.06805348
vt 0.5011265 0.06667965
vt 0.402543 0.06667965
vt 0.402543 0.06805348
vt 0.8008023 0.8394658
vt 0.8157635 0.8515132
vt 0.8008023 0.8515132
vt 0.8157635 0.8394658
vt 0.8157635 0.6176151
vt 0.8008023 0.6176151
vt 0.8157635 0.5500711
vt 0.8008023 0.5500711
vt 0.8157635 0.5621185
vt 0.8008023 0.5500711
vt 0.8157635 0.5500711
vt 0.8008023 0.5621185
vt 0.8008023 0.7839692
vt 0.8157635 0.7839692
vt 0.8008023 0.8515132
vt 0.8157635 0.8515132
vt 0.8157635 0.6008876
vt 0.8008023 0.6008876
vt 0.8008023 0.5500711
vt 0.8157635 0.5500711
vt 0.8152955 0.2501235
vt 0.8152955 0.3133196
vt 0.8013911 0.3133196
vt 0.8013911 0.2501235
vt 0.8152955 0.5500107
vt 0.8152955 0.4868146
vt 0.8013911 0.4868146
vt 0.8013911 0.5500107
vt 0.8157635 0.7912308
vt 0.8008023 0.7912308
vt 0.8008023 0.7403991
vt 0.8157635 0.7403991
vt 0.8006815 0.883383
vt 0.8006815 0.6705905
vt 0.7586967 0.6705905
vt 0.7586967 0.883383
vt 0.8006815 0.9481794
vt 0.7586967 0.9481794
vt 0.6434914 0.9481794
vt 0.6434914 0.883383
vt 0.6015217 0.883383
vt 0.6015217 0.9481794
vt 0.6015217 0.6705905
vt 0.6434914 0.6705905
vt 0.6015217 0.883383
vt 0.6015217 0.6705905
vt 0.6434914 0.6705905
vt 0.6434914 0.883383
vt 0.6015217 0.9481794
vt 0.6434914 0.9481794
vt 0.7586967 0.9481794
vt 0.7586967 0.883383
vt 0.8006815 0.883383
vt 0.8006815 0.9481794
vt 0.8006815 0.6705905
vt 0.7586967 0.6705905
vt 0.8152955 0.4868146
vt 0.8152955 0.5500107
vt 0.8013911 0.5500107
vt 0.8013911 0.4868146
vt 0.8008023 0.7403991
vt 0.8157635 0.7912308
vt 0.8008023 0.7912308
vt 0.8157635 0.7403991
vt 0.8157635 0.6008876
vt 0.8008023 0.6008876
vt 0.8008023 0.5500711
vt 0.8157635 0.5500711
vt 0.8152955 0.3133196
vt 0.8152955 0.2501235
vt 0.8013911 0.2501235
vt 0.8013911 0.3133196
f 1/1/1 2/2/2 3/3/3
f 3/3/3 4/4/4 1/1/1
f 4/4/4 5/5/5 1/1/1
f 4/4/4 6/6/6 5/5/5
f 6/6/6 7/7/7 5/5/5
f 7/7/7 8/8/8 5/5/5
f 8/8/8 9/9/9 5/5/5
f 9/9/9 10/10/10 5/5/5
f 11/11/11 12/12/12 13/13/13
f 11/11/11 13/13/13 14/14/14
f 15/15/15 16/16/16 17/17/17
f 17/17/17 18/18/18 15/15/15
f 18/18/18 19/19/19 15/15/15
f 19/19/19 20/20/20 15/15/15
f 19/19/19 21/21/21 20/20/20
f 19/19/19 22/22/22 21/21/21
f 19/19/19 23/23/23 22/22/22
f 19/19/19 24/24/24 23/23/23
f 25/25/25 26/26/26 27/27/27
f 25/25/25 27/27/27 28/28/28
f 29/29/29 28/28/28 27/27/27
f 29/29/29 27/27/27 30/30/30
f 31/31/31 32/32/32 33/33/33
f 31/31/31 34/34/34 32/32/32
f 35/35/35 34/34/34 31/31/31
f 35/35/35 36/36/36 34/34/34
f 37/37/37 36/36/36 35/35/35
f 37/37/37 38/38/38 36/36/36
f 39/39/39 38/38/38 37/37/37
f 39/39/39 37/37/37 40/40/40
f 41/41/41 42/42/42 43/43/43
f 41/41/41 43/43/43 44/44/44
f 43/43/43 45/45/45 44/44/44
f 46/46/46 47/47/47 48/48/48
f 46/46/46 49/49/49 47/47/47
f 46/46/46 50/50/50 49/49/49
f 46/46/46 51/51/51 50/50/50
f 52/52/52 53/53/53 54/54/54
f 52/52/52 55/55/55 53/53/53
f 56/56/56 55/55/55 52/52/52
f 57/57/57 58/58/58 59/59/59
f 57/57/57 60/60/60 58/58/58
f 61/61/61 60/60/60 57/57/57
f 61/61/61 62/62/62 60/60/60
f 63/63/63 62/62/62 61/61/61
f 63/63/63 64/64/64 62/62/62
f 65/65/65 66/66/66 67/67/67
f 65/65/65 67/67/67 68/68/68
f 65/65/65 68/68/68 69/69/69
f 65/65/65 69/69/69 70/70/70
f 69/69/69 71/71/71 70/70/70
f 72/72/72 73/73/73 74/74/74
f 72/72/72 74/74/74 75/75/75
f 72/72/72 75/75/75 76/76/76
f 72/72/72 76/76/76 77/77/77
f 77/77/77 76/76/76 78/78/78
f 77/77/77 78/78/78 79/79/79
f 79/79/79 78/78/78 80/80/80
f 79/79/79 80/80/80 81/81/81
f 82/82/82 81/81/81 80/80/80
f 82/82/82 80/80/80 83/83/83
f 84/84/84 85/85/85 86/86/86
f 84/84/84 87/87/87 85/85/85
f 88/88/88 87/87/87 84/84/84
f 89/89/89 90/90/90 91/91/91
f 89/89/89 91/91/91 92/92/92
f 89/89/89 92/92/92 93/93/93
f 89/89/89 93/93/93 94/94/94
f 95/95/95 94/94/94 93/93/93
f 96/96/96 97/97/97 98/98/98
f 96/96/96 98/98/98 99/99/99
f 96/96/96 99/99/99 100/100/100
f 101/101/101 102/102/102 103/103/103
f 101/101/101 103/103/103 104/104/104
f 105/105/105 106/106/106 107/107/107
f 105/105/105 107/107/107 108/108/108
f 109/109/109 110/110/110 111/111/111
f 109/109/109 112/112/112 110/110/110
f 113/113/113 112/112/112 109/109/109
f 113/113/113 109/109/109 114/114/114
f 115/115/115 113/113/113 114/114/114
f 115/115/115 114/114/114 116/116/116
f 117/117/117 118/118/118 119/119/119
f 117/117/117 120/120/120 118/118/118
f 121/121/121 120/120/120 117/117/117
f 121/121/121 117/117/117 122/122/122
f 123/123/123 121/121/121 122/122/122
f 123/123/123 122/122/122 124/124/124
f 125/125/125 126/126/126 127/127/127
f 125/125/125 127/127/127 128/128/128
f 129/129/129 130/130/130 131/131/131
f 129/129/129 131/131/131 132/132/132
f 133/133/133 134/134/134 135/135/135
f 133/133/133 135/135/135 136/136/136
f 137/137/137 138/138/138 139/139/139
f 137/137/137 139/139/139 140/140/140
f 141/141/141 142/142/142 143/143/143
f 141/141/141 143/143/143 144/144/144
f 145/145/145 141/141/141 144/144/144
f 145/145/145 144/144/144 146/146/146
f 147/147/147 146/146/146 144/144/144
f 147/147/147 144/144/144 148/148/148
f 147/147/147 148/148/148 149/149/149
f 147/147/147 149/149/149 150/150/150
f 148/148/148 151/151/151 149/149/149
f 148/148/148 152/152/152 151/151/151
f 153/153/153 154/154/154 155/155/155
f 153/153/153 155/155/155 156/156/156
f 157/157/157 153/153/153 156/156/156
f 157/157/157 156/156/156 158/158/158
f 159/159/159 158/158/158 156/156/156
f 159/159/159 156/156/156 160/160/160
f 159/159/159 160/160/160 161/161/161
f 159/159/159 161/161/161 162/162/162
f 160/160/160 163/163/163 161/161/161
f 160/160/160 164/164/164 163/163/163
f 165/165/165 166/166/166 167/167/167
f 165/165/165 167/167/167 168/168/168
f 169/169/169 170/170/170 171/171/171
f 169/169/169 172/172/172 170/170/170
f 169/169/169 173/173/173 172/172/172
f 169/169/169 174/174/174 173/173/173
f 175/175/175 173/173/173 174/174/174
f 175/175/175 176/176/176 173/173/173
f 177/177/177 178/178/178 179/179/179
f 177/177/177 179/179/179 180/180/180
