v 5.340581E-06 0.1000024 5.6
v 5.340581E-06 -0.1999994 5.6
v 2.200004 -0.1999994 5.6
v 2.200004 0.1000024 5.6
v 0.2831736 -0.1999994 5.316832
v 1.916836 -0.1999994 5.340581E-06
v 1.916836 -0.1999994 5.316832
v 0.2831736 -0.1999994 5.340581E-06
v 1.916836 -0.1999994 -5.316832
v 0.2831736 -0.1999994 -5.316832
v 0.2831736 0.1000024 5.340581E-06
v 1.916836 0.1000024 -5.316832
v 0.2831736 0.1000024 -5.316832
v 1.916836 0.1000024 5.340581E-06
v 0.2831736 0.1000024 5.316832
v 1.916836 0.1000024 5.316832
v 2.200004 0.1000024 -5.6
v 2.200004 -0.1999994 -5.6
v 5.340581E-06 -0.1999994 -5.6
v 5.340581E-06 0.1000024 -5.6
v 0.2831736 0.1000024 5.316832
v 5.340581E-06 0.1000024 5.6
v 2.200004 0.1000024 5.6
v 1.916836 0.1000024 5.316832
v 1.916836 0.1000024 5.340581E-06
v 2.200004 0.1000024 -5.6
v 1.916836 0.1000024 -5.316832
v 2.200004 0.1000024 5.340581E-06
v 1.916836 0.1000024 5.316832
v 2.200004 0.1000024 5.6
v 1.916836 0.1000024 -5.316832
v 2.200004 0.1000024 -5.6
v 5.340581E-06 0.1000024 -5.6
v 0.2831736 0.1000024 -5.316832
v 0.2831736 0.1000024 -5.316832
v 5.340581E-06 0.1000024 -5.6
v 5.340581E-06 0.1000024 5.340581E-06
v 0.2831736 0.1000024 5.340581E-06
v 5.340581E-06 0.1000024 5.6
v 0.2831736 0.1000024 5.316832
v 5.340581E-06 0.1000024 -5.6
v 5.340581E-06 -0.1999994 -5.6
v 5.340581E-06 -0.1999994 5.340581E-06
v 5.340581E-06 0.1000024 5.340581E-06
v 5.340581E-06 -0.1999994 5.6
v 5.340581E-06 0.1000024 5.6
v 2.200004 0.1000024 -5.6
v 2.200004 -0.1999994 5.340581E-06
v 2.200004 -0.1999994 -5.6
v 2.200004 0.1000024 5.340581E-06
v 2.200004 -0.1999994 5.6
v 2.200004 0.1000024 5.6
v 0.2831736 -0.1999994 5.316832
v 1.916836 -0.1999994 5.316832
v 2.200004 -0.1999994 5.6
v 5.340581E-06 -0.1999994 5.6
v 1.916836 -0.1999994 5.340581E-06
v 1.916836 -0.1999994 -5.316832
v 2.200004 -0.1999994 -5.6
v 2.200004 -0.1999994 5.340581E-06
v 1.916836 -0.1999994 5.316832
v 2.200004 -0.1999994 5.6
v 1.916836 -0.1999994 -5.316832
v 0.2831736 -0.1999994 -5.316832
v 5.340581E-06 -0.1999994 -5.6
v 2.200004 -0.1999994 -5.6
v 0.2831736 -0.1999994 -5.316832
v 5.340581E-06 -0.1999994 5.340581E-06
v 5.340581E-06 -0.1999994 -5.6
v 0.2831736 -0.1999994 5.340581E-06
v 5.340581E-06 -0.1999994 5.6
v 0.2831736 -0.1999994 5.316832
vn 0.0009775171 0.0009775171 0.999999
vn 0.0009775171 0.0009775171 0.999999
vn 0.0009775171 0.0009775171 0.999999
vn 0.0009775171 0.0009775171 0.999999
vn 0.0009775166 -0.9999995 0
vn 0.0009775166 -0.9999995 0
vn 0.0009775166 -0.9999995 0
vn 0.0009775166 -0.9999995 0
vn 0.0009775166 -0.9999995 0
vn 0.0009775166 -0.9999995 0
vn 0.0009775166 0.9999995 0
vn 0.0009775166 0.9999995 0
vn 0.0009775166 0.9999995 0
vn 0.0009775166 0.9999995 0
vn 0.0009775166 0.9999995 0
vn 0.0009775166 0.9999995 0
vn 0.0009775171 0.0009775171 -0.999999
vn 0.0009775171 0.0009775171 -0.999999
vn 0.0009775171 0.0009775171 -0.999999
vn 0.0009775171 0.0009775171 -0.999999
vn 0.0009775166 0.9999995 0
vn 0.0009775166 0.9999995 0
vn 0.0009775166 0.9999995 0
vn 0.0009775166 0.9999995 0
vn 0.0009775166 0.9999995 0
vn 0.0009775166 0.9999995 0
vn 0.0009775166 0.9999995 0
vn 0.0009775166 0.9999995 0
vn 0.0009775166 0.9999995 0
vn 0.0009775166 0.9999995 0
vn 0.0009775166 0.9999995 0
vn 0.0009775166 0.9999995 0
vn 0.0009775166 0.9999995 0
vn 0.0009775166 0.9999995 0
vn 0.0009775166 0.9999995 0
vn 0.0009775166 0.9999995 0
vn 0.0009775166 0.9999995 0
vn 0.0009775166 0.9999995 0
vn 0.0009775166 0.9999995 0
vn 0.0009775166 0.9999995 0
vn -0.9999995 0.0009775166 0
vn -0.9999995 0.0009775166 0
vn -0.9999995 0.0009775166 0
vn -0.9999995 0.0009775166 0
vn -0.9999995 0.0009775166 0
vn -0.9999995 0.0009775166 0
vn 0.9999995 0.0009775166 0
vn 0.9999995 0.0009775166 0
vn 0.9999995 0.0009775166 0
vn 0.9999995 0.0009775166 0
vn 0.9999995 0.0009775166 0
vn 0.9999995 0.0009775166 0
vn 0.0009775166 -0.9999995 0
vn 0.0009775166 -0.9999995 0
vn 0.0009775166 -0.9999995 0
vn 0.0009775166 -0.9999995 0
vn 0.0009775166 -0.9999995 0
vn 0.0009775166 -0.9999995 0
vn 0.0009775166 -0.9999995 0
vn 0.0009775166 -0.9999995 0
vn 0.0009775166 -0.9999995 0
vn 0.0009775166 -0.9999995 0
vn 0.0009775166 -0.9999995 0
vn 0.0009775166 -0.9999995 0
vn 0.0009775166 -0.9999995 0
vn 0.0009775166 -0.9999995 0
vn 0.0009775166 -0.9999995 0
vn 0.0009775166 -0.9999995 0
vn 0.0009775166 -0.9999995 0
vn 0.0009775166 -0.9999995 0
vn 0.0009775166 -0.9999995 0
vn 0.0009775166 -0.9999995 0
vt 0.4565234 0.1331476
vt 0.4565234 0.1474858
vt 0.595485 0.1474858
vt 0.595485 0.1331476
vt 0.2057474 0.01308154
vt 0.3971414 0.06689171
vt 0.2057474 0.06689171
vt 0.3971414 0.01308154
vt 0.5885203 0.06689171
vt 0.5885203 0.01308154
vt 0.3971414 0.01308154
vt 0.5885203 0.06689171
vt 0.5885203 0.01308154
vt 0.3971414 0.06689171
vt 0.2057474 0.01308154
vt 0.2057474 0.06689171
vt 0.3453601 0.1474858
vt 0.3453601 0.1331476
vt 0.2063984 0.1331476
vt 0.2063984 0.1474858
vt 0.5025209 0.1065907
vt 0.4927097 0.1206262
vt 0.5934865 0.1206262
vt 0.5836601 0.1065907
vt 0.3992763 0.1065907
vt 0.5934865 0.1206262
vt 0.5836601 0.1065907
vt 0.3992763 0.1206262
vt 0.2149075 0.1065907
vt 0.2050812 0.1206262
vt 0.5025209 0.1065907
vt 0.4927097 0.1206262
vt 0.5934865 0.1206262
vt 0.5836601 0.1065907
vt 0.5836601 0.1065907
vt 0.5934865 0.1206262
vt 0.3992763 0.1206262
vt 0.3992763 0.1065907
vt 0.2050812 0.1206262
vt 0.2149075 0.1065907
vt 0.2063984 0.1331476
vt 0.2063984 0.1474858
vt 0.4009417 0.1474858
vt 0.4009417 0.1331476
vt 0.595485 0.1474858
vt 0.595485 0.1331476
vt 0.2063984 0.1474858
vt 0.4009417 0.1331476
vt 0.2063984 0.1331476
vt 0.4009417 0.1474858
vt 0.595485 0.1331476
vt 0.595485 0.1474858
vt 0.5025209 0.1065907
vt 0.5836601 0.1065907
vt 0.5934865 0.1206262
vt 0.4927097 0.1206262
vt 0.3992763 0.1065907
vt 0.5836601 0.1065907
vt 0.5934865 0.1206262
vt 0.3992763 0.1206262
vt 0.2149075 0.1065907
vt 0.2050812 0.1206262
vt 0.5025209 0.1065907
vt 0.5836601 0.1065907
vt 0.5934865 0.1206262
vt 0.4927097 0.1206262
vt 0.5836601 0.1065907
vt 0.3992763 0.1206262
vt 0.5934865 0.1206262
vt 0.3992763 0.1065907
vt 0.2050812 0.1206262
vt 0.2149075 0.1065907
f 1/1/1 2/2/2 3/3/3
f 1/1/1 3/3/3 4/4/4
f 5/5/5 6/6/6 7/7/7
f 5/5/5 8/8/8 6/6/6
f 8/8/8 9/9/9 6/6/6
f 8/8/8 10/10/10 9/9/9
f 11/11/11 12/12/12 13/13/13
f 11/11/11 14/14/14 12/12/12
f 15/15/15 14/14/14 11/11/11
f 15/15/15 16/16/16 14/14/14
f 17/17/17 18/18/18 19/19/19
f 17/17/17 19/19/19 20/20/20
f 21/21/21 22/22/22 23/23/23
f 21/21/21 23/23/23 24/24/24
f 25/25/25 26/26/26 27/27/27
f 25/25/25 28/28/28 26/26/26
f 29/29/29 28/28/28 25/25/25
f 29/29/29 30/30/30 28/28/28
f 31/31/31 32/32/32 33/33/33
f 31/31/31 33/33/33 34/34/34
f 35/35/35 36/36/36 37/37/37
f 35/35/35 37/37/37 38/38/38
f 38/38/38 37/37/37 39/39/39
f 38/38/38 39/39/39 40/40/40
f 41/41/41 42/42/42 43/43/43
f 41/41/41 43/43/43 44/44/44
f 44/44/44 43/43/43 45/45/45
f 44/44/44 45/45/45 46/46/46
f 47/47/47 48/48/48 49/49/49
f 47/47/47 50/50/50 48/48/48
f 50/50/50 51/51/51 48/48/48
f 50/50/50 52/52/52 51/51/51
f 53/53/53 54/54/54 55/55/55
f 53/53/53 55/55/55 56/56/56
f 57/57/57 58/58/58 59/59/59
f 57/57/57 59/59/59 60/60/60
f 61/61/61 57/57/57 60/60/60
f 61/61/61 60/60/60 62/62/62
f 63/63/63 64/64/64 65/65/65
f 63/63/63 65/65/65 66/66/66
f 67/67/67 68/68/68 69/69/69
f 67/67/67 70/70/70 68/68/68
f 70/70/70 71/71/71 68/68/68
f 70/70/70 72/72/72 71/71/71
