v -2.734728E-06 0.1999982 -0.1000032
v -2.734728E-06 -2.734728E-06 0.09999774
v -2.734728E-06 -2.734728E-06 -0.1000032
v -2.734728E-06 0.1999982 0.09999774
v -2.734728E-06 5 0.09999774
v -2.734728E-06 5 -0.1000032
v -2.4 0.1999982 0.09999774
v -2.4 -2.734728E-06 -0.1000032
v -2.4 -2.734728E-06 0.09999774
v -2.4 0.1999982 -0.1000032
v -2.4 5 -0.1000032
v -2.4 5 0.09999774
v -2.734728E-06 0.1999982 0.09999774
v -2.4 0.1999982 0.09999774
v -2.4 -2.734728E-06 0.09999774
v -2.734728E-06 -2.734728E-06 0.09999774
v -2.4 0.1999982 -0.1000032
v -2.734728E-06 0.1999982 -0.1000032
v -2.734728E-06 -2.734728E-06 -0.1000032
v -2.4 -2.734728E-06 -0.1000032
v -2.734728E-06 -2.734728E-06 -0.1000032
v -2.734728E-06 -2.734728E-06 0.09999774
v -2.4 -2.734728E-06 0.09999774
v -2.4 -2.734728E-06 -0.1000032
v -2.4 5 -0.1000032
v -2.4 5 0.09999774
v -2.734728E-06 5 0.09999774
v -2.734728E-06 5 -0.1000032
v -2.4 5 0.09999774
v -2.4 0.1999982 0.09999774
v -2.734728E-06 0.1999982 0.09999774
v -2.734728E-06 5 0.09999774
v -2.734728E-06 5 -0.1000032
v -2.734728E-06 0.1999982 -0.1000032
v -2.4 0.1999982 -0.1000032
v -2.4 5 -0.1000032
vn 0.9999995 0.0009775166 0
vn 0.7067448 -0.7067448 -0.03199081
vn 0.7067448 -0.7067448 -0.03199081
vn 0.9999995 0.0009775166 0
vn 0.7067448 0.7067448 -0.03199081
vn 0.7067448 0.7067448 -0.03199081
vn -0.9999995 0.0009775166 0
vn -0.7067448 -0.7067448 -0.03199081
vn -0.7067448 -0.7067448 -0.03199081
vn -0.9999995 0.0009775166 0
vn -0.7067448 0.7067448 -0.03199081
vn -0.7067448 0.7067448 -0.03199081
vn 0.0009775171 0.0009775171 0.999999
vn 0.0009775171 0.0009775171 0.999999
vn 0.0009775171 0.0009775171 0.999999
vn 0.0009775171 0.0009775171 0.999999
vn 0.0009775171 0.0009775171 -0.999999
vn 0.0009775171 0.0009775171 -0.999999
vn 0.0009775171 0.0009775171 -0.999999
vn 0.0009775171 0.0009775171 -0.999999
vn 0.7067448 -0.7067448 -0.03199081
vn 0.7067448 -0.7067448 -0.03199081
vn -0.7067448 -0.7067448 -0.03199081
vn -0.7067448 -0.7067448 -0.03199081
vn -0.7067448 0.7067448 -0.03199081
vn -0.7067448 0.7067448 -0.03199081
vn 0.7067448 0.7067448 -0.03199081
vn 0.7067448 0.7067448 -0.03199081
vn 0.0009775171 0.0009775171 0.999999
vn 0.0009775171 0.0009775171 0.999999
vn 0.0009775171 0.0009775171 0.999999
vn 0.0009775171 0.0009775171 0.999999
vn 0.0009775171 0.0009775171 -0.999999
vn 0.0009775171 0.0009775171 -0.999999
vn 0.0009775171 0.0009775171 -0.999999
vn 0.0009775171 0.0009775171 -0.999999
vt 0.8008024 0.8394545
vt 0.8157664 0.8515105
vt 0.8008024 0.8515105
vt 0.8157664 0.8394545
vt 0.8157664 0.5500637
vt 0.8008024 0.5500637
vt 0.8157664 0.5621197
vt 0.8008024 0.5500637
vt 0.8157664 0.5500637
vt 0.8008024 0.5621197
vt 0.8008024 0.8515105
vt 0.8157664 0.8515105
vt 0.8152969 0.3998325
vt 0.8152969 0.2501163
vt 0.801393 0.2501163
vt 0.801393 0.3998325
vt 0.8152969 0.2501163
vt 0.8152969 0.3998325
vt 0.801393 0.3998325
vt 0.801393 0.2501163
vt 0.8157664 0.6998859
vt 0.8008024 0.6998859
vt 0.8008024 0.5500637
vt 0.8157664 0.5500637
vt 0.8008024 0.5500637
vt 0.8157664 0.5500637
vt 0.8157664 0.6998859
vt 0.8008024 0.6998859
vt 0.7380382 0.9481861
vt 0.7380382 0.670594
vt 0.6015291 0.670594
vt 0.6015291 0.9481861
vt 0.6015291 0.9481861
vt 0.6015291 0.670594
vt 0.7380382 0.670594
vt 0.7380382 0.9481861
f 1/1/1 2/2/2 3/3/3
f 1/1/1 4/4/4 2/2/2
f 5/5/5 4/4/4 1/1/1
f 5/5/5 1/1/1 6/6/6
f 7/7/7 8/8/8 9/9/9
f 7/7/7 10/10/10 8/8/8
f 11/11/11 10/10/10 7/7/7
f 11/11/11 7/7/7 12/12/12
f 13/13/13 14/14/14 15/15/15
f 13/13/13 15/15/15 16/16/16
f 17/17/17 18/18/18 19/19/19
f 17/17/17 19/19/19 20/20/20
f 21/21/21 22/22/22 23/23/23
f 21/21/21 23/23/23 24/24/24
f 25/25/25 26/26/26 27/27/27
f 25/25/25 27/27/27 28/28/28
f 29/29/29 30/30/30 31/31/31
f 29/29/29 31/31/31 32/32/32
f 33/33/33 34/34/34 35/35/35
f 33/33/33 35/35/35 36/36/36
