v 0.1118067 5.812736 -0.1428555
v 0.1749559 5.771539 -0.1369252
v 0.1369254 5.771539 -0.1749496
v 0.1369254 6.254125 0.1749497
v 0.1749559 6.254125 0.1369254
v 0.1749559 6.284203 0.1369254
v 0.1749559 6.254125 -0.1369252
v 0.1749559 6.284203 -0.1369252
v 0.1749559 5.851792 -0.1369252
v 0.1369254 6.254125 -0.1749496
v 0.1369254 5.851792 -0.1749496
v 0.1749559 5.851792 0.1369254
v 0.1428557 5.812736 -0.1118065
v 0.1118067 5.812736 -0.1428555
v 0.1428557 5.812736 0.1118067
v 0.1118067 5.812736 0.1428557
v 0.1369254 5.851792 0.1749497
v 0.1369254 6.254125 0.1749497
v 0.1749559 6.284203 0.1369254
v 0.1369254 6.284203 0.1749497
v -0.1369252 6.284203 0.1749497
v -0.1369252 6.254125 0.1749497
v -0.1749496 6.254125 0.1369254
v -0.1749496 5.851792 0.1369254
v 0.1369254 5.851792 0.1749497
v 0.1749559 6.254125 0.1369254
v 0.1749559 5.851792 0.1369254
v -0.1369252 5.851792 0.1749497
v -0.1428555 5.812736 0.1118067
v 0.1118067 5.812736 0.1428557
v -0.1118065 5.812736 0.1428557
v 0.1369254 5.771539 0.1749497
v -0.1369252 5.771539 0.1749497
v 0.1369254 5.771539 0.1749497
v 0.1428557 5.812736 0.1118067
v 0.1118067 5.812736 0.1428557
v 0.1749559 5.771539 0.1369254
v 0.1749559 5.771539 -0.1369252
v 0.1428557 5.812736 -0.1118065
v 0.1118067 5.812736 -0.1428555
v -0.1118065 5.812736 0.1428557
v -0.1749496 5.771539 0.1369254
v -0.1369252 5.771539 0.1749497
v -0.1428555 5.812736 0.1118067
v -0.1428555 5.812736 -0.1118065
v -0.1749496 5.771539 -0.1369252
v -0.1369252 5.771539 -0.1749496
v -0.1118065 5.812736 -0.1428555
v -0.1749496 5.851792 -0.1369252
v -0.1749496 5.851792 0.1369254
v -0.1369252 5.851792 -0.1749496
v -0.1749496 6.254125 -0.1369252
v -0.1369252 6.254125 -0.1749496
v -0.1749496 6.284203 -0.1369252
v -0.1749496 6.254125 0.1369254
v -0.1749496 6.284203 0.1369254
v -0.1369252 6.284203 0.1749497
v 0.1118067 5.812736 -0.1428555
v 0.1369254 5.771539 -0.1749496
v -0.1369252 5.771539 -0.1749496
v -0.1118065 5.812736 -0.1428555
v 0.1369254 5.851792 -0.1749496
v -0.1369252 5.851792 -0.1749496
v 0.1369254 6.254125 -0.1749496
v -0.1369252 6.254125 -0.1749496
v 0.1369254 6.284203 -0.1749496
v -0.1369252 6.284203 -0.1749496
v -0.1749496 6.284203 -0.1369252
v -0.1369252 6.284203 -0.1749496
v -0.1749496 6.284203 -0.1369252
v -0.1749496 6.284203 0.1369254
v -0.1369252 6.284203 0.1749497
v 0.1369254 6.284203 -0.1749496
v 0.1369254 6.284203 0.1749497
v 0.1749559 6.284203 -0.1369252
v 0.1749559 6.284203 0.1369254
v 0.1369254 6.284203 -0.1749496
v 0.1749559 6.284203 -0.1369252
v 0.1749559 6.254125 -0.1369252
v 0.1369254 6.254125 -0.1749496
v -0.2000002 5.800003 0.1644991
v -0.2000002 -3.01759E-06 0.1813129
v -0.2000002 5.800003 0.1813129
v -0.2000002 -3.01759E-06 0.1645052
v -0.2000002 5.800003 -0.1644556
v -0.2000002 -3.01759E-06 -0.1644556
v -0.2000002 5.800003 -0.1813127
v -0.2000002 -3.01759E-06 -0.1813127
v 0.1564848 5.800003 0.2000004
v 0.1813129 -3.01759E-06 0.2000004
v 0.1813129 5.800003 0.2000004
v 0.1564848 -3.01759E-06 0.2000004
v -0.1584635 5.800003 0.2000004
v -0.1584635 -3.01759E-06 0.2000004
v -0.1813127 5.800003 0.2000004
v -0.1813127 -3.01759E-06 0.2000004
v -0.2000002 -3.01759E-06 0.1813129
v -0.2000002 5.800003 0.1813129
v 0.1813129 -3.01759E-06 0.2000004
v 0.2000004 5.800003 0.1813129
v 0.1813129 5.800003 0.2000004
v 0.2000004 -3.01759E-06 0.1813129
v 0.2000004 -3.01759E-06 0.1645052
v 0.2000004 5.800003 0.1644991
v 0.2000004 -3.01759E-06 -0.1644556
v 0.2000004 5.800003 -0.1644556
v 0.2000004 -3.01759E-06 -0.1813127
v 0.2000004 5.800003 -0.1813127
v 0.1813129 5.800003 -0.2000002
v 0.2000004 5.800003 -0.1813127
v 0.2000004 -3.01759E-06 -0.1813127
v 0.1813129 -3.01759E-06 -0.2000002
v 0.1564848 -3.01759E-06 -0.2000002
v 0.1564848 5.800003 -0.2000002
v -0.1584635 -3.01759E-06 -0.2000002
v -0.1584635 5.800003 -0.2000002
v -0.1813127 -3.01759E-06 -0.2000002
v -0.1813127 5.800003 -0.2000002
v -0.2000002 5.800003 -0.1813127
v -0.2000002 -3.01759E-06 -0.1813127
v -0.2000002 -3.01759E-06 -0.1644556
v -0.2000002 -3.01759E-06 -0.1813127
v -0.1813127 -3.01759E-06 -0.2000002
v -0.1813127 -3.01759E-06 -0.1814117
v -0.2000002 -3.01759E-06 0.1645052
v -0.1584635 -3.01759E-06 -0.2000002
v -0.1813127 -3.01759E-06 0.1814551
v -0.2000002 -3.01759E-06 0.1813129
v -0.1813127 -3.01759E-06 0.2000004
v -0.1584635 -3.01759E-06 -0.1814117
v 0.1564848 -3.01759E-06 -0.2000002
v -0.1584635 -3.01759E-06 0.1814551
v -0.1584635 -3.01759E-06 0.2000004
v 0.1564848 -3.01759E-06 -0.1814117
v 0.1813129 -3.01759E-06 -0.2000002
v 0.1564848 -3.01759E-06 0.1814551
v 0.1564848 -3.01759E-06 0.2000004
v 0.1813129 -3.01759E-06 -0.1814117
v 0.2000004 -3.01759E-06 -0.1813127
v 0.2000004 -3.01759E-06 -0.1644556
v 0.1813129 -3.01759E-06 0.1814551
v 0.1813129 -3.01759E-06 0.2000004
v 0.2000004 -3.01759E-06 0.1645052
v 0.2000004 -3.01759E-06 0.1813129
v 0.1813129 5.800003 0.2000004
v 0.2000004 5.800003 0.1813129
v 0.2000004 5.800003 0.1644991
v 0.1813129 5.800003 0.1814551
v 0.2000004 5.800003 -0.1644556
v 0.1564848 5.800003 0.1814551
v 0.1564848 5.800003 0.2000004
v 0.1813129 5.800003 -0.1814117
v 0.2000004 5.800003 -0.1813127
v 0.1813129 5.800003 -0.2000002
v 0.1564848 5.800003 -0.2000002
v 0.1564848 5.800003 -0.1814117
v -0.1584635 5.800003 -0.2000002
v -0.1584635 5.800003 -0.1814117
v -0.1813127 5.800003 -0.2000002
v -0.1584635 5.800003 0.1814551
v -0.1584635 5.800003 0.2000004
v -0.1813127 5.800003 -0.1814117
v -0.2000002 5.800003 -0.1813127
v -0.2000002 5.800003 -0.1644556
v -0.1813127 5.800003 0.1814551
v -0.1813127 5.800003 0.2000004
v -0.2000002 5.800003 0.1644991
v -0.2000002 5.800003 0.1813129
vn 0.3235582 -0.01661779 -0.9460623
vn 0.6559139 0.6930596 -0.299074
vn 0.3000978 0.6930596 -0.6554462
vn 0.3822092 0.0009775171 0.9240753
vn 0.9237537 0.0009775171 0.3829859
vn 0.71652 0.6304985 0.2984472
vn 0.9237537 0.0009775171 -0.3829859
vn 0.71652 0.6304985 -0.2984472
vn 0.8572825 -0.3567937 -0.371167
vn 0.3822092 0.0009775171 -0.9240753
vn 0.370479 -0.3567937 -0.8575801
vn 0.8572825 -0.3567937 0.371167
vn 0.945259 -0.01661779 -0.3258975
vn 0.3235582 -0.01661779 -0.9460623
vn 0.945259 -0.01661779 0.3258975
vn 0.3235582 -0.01661779 0.9460623
vn 0.370479 -0.3567937 0.8575801
vn 0.3822092 0.0009775171 0.9240753
vn 0.71652 0.6304985 0.2984472
vn 0.2961877 0.6304985 0.717457
vn -0.2961877 0.6304985 0.717457
vn -0.3822092 0.0009775171 0.9240753
vn -0.9237537 0.0009775171 0.3829859
vn -0.8572825 -0.3567937 0.371167
vn 0.370479 -0.3567937 0.8575801
vn 0.9237537 0.0009775171 0.3829859
vn 0.8572825 -0.3567937 0.371167
vn -0.370479 -0.3567937 0.8575801
vn -0.945259 -0.01661779 0.3258975
vn 0.3235582 -0.01661779 0.9460623
vn -0.3235582 -0.01661779 0.9460623
vn 0.3000978 0.6930596 0.6554462
vn -0.3000978 0.6930596 0.6554462
vn 0.3000978 0.6930596 0.6554462
vn 0.945259 -0.01661779 0.3258975
vn 0.3235582 -0.01661779 0.9460623
vn 0.6559139 0.6930596 0.299074
vn 0.6559139 0.6930596 -0.299074
vn 0.945259 -0.01661779 -0.3258975
vn 0.3235582 -0.01661779 -0.9460623
vn -0.3235582 -0.01661779 0.9460623
vn -0.6559139 0.6930596 0.299074
vn -0.3000978 0.6930596 0.6554462
vn -0.945259 -0.01661779 0.3258975
vn -0.945259 -0.01661779 -0.3258975
vn -0.6559139 0.6930596 -0.299074
vn -0.3000978 0.6930596 -0.6554462
vn -0.3235582 -0.01661779 -0.9460623
vn -0.8572825 -0.3567937 -0.371167
vn -0.8572825 -0.3567937 0.371167
vn -0.370479 -0.3567937 -0.8575801
vn -0.9237537 0.0009775171 -0.3829859
vn -0.3822092 0.0009775171 -0.9240753
vn -0.71652 0.6304985 -0.2984472
vn -0.9237537 0.0009775171 0.3829859
vn -0.71652 0.6304985 0.2984472
vn -0.2961877 0.6304985 0.717457
vn 0.3235582 -0.01661779 -0.9460623
vn 0.3000978 0.6930596 -0.6554462
vn -0.3000978 0.6930596 -0.6554462
vn -0.3235582 -0.01661779 -0.9460623
vn 0.370479 -0.3567937 -0.8575801
vn -0.370479 -0.3567937 -0.8575801
vn 0.3822092 0.0009775171 -0.9240753
vn -0.3822092 0.0009775171 -0.9240753
vn 0.2961877 0.6304985 -0.717457
vn -0.2961877 0.6304985 -0.717457
vn -0.71652 0.6304985 -0.2984472
vn -0.2961877 0.6304985 -0.717457
vn -0.71652 0.6304985 -0.2984472
vn -0.71652 0.6304985 0.2984472
vn -0.2961877 0.6304985 0.717457
vn 0.2961877 0.6304985 -0.717457
vn 0.2961877 0.6304985 0.717457
vn 0.71652 0.6304985 -0.2984472
vn 0.71652 0.6304985 0.2984472
vn 0.2961877 0.6304985 -0.717457
vn 0.71652 0.6304985 -0.2984472
vn 0.9237537 0.0009775171 -0.3829859
vn 0.3822092 0.0009775171 -0.9240753
vn -0.9999995 0.0009775166 0
vn -0.9237537 0.0009775171 0.3829859
vn -0.9237537 0.0009775171 0.3829859
vn -0.9999995 0.0009775166 0
vn -0.9999995 0.0009775166 0
vn -0.9999995 0.0009775166 0
vn -0.9237537 0.0009775171 -0.3829859
vn -0.9237537 0.0009775171 -0.3829859
vn 0.0009775171 0.0009775171 0.999999
vn 0.3822092 0.0009775171 0.9240753
vn 0.3822092 0.0009775171 0.9240753
vn 0.0009775171 0.0009775171 0.999999
vn 0.0009775171 0.0009775171 0.999999
vn 0.0009775171 0.0009775171 0.999999
vn -0.3822092 0.0009775171 0.9240753
vn -0.3822092 0.0009775171 0.9240753
vn -0.9237537 0.0009775171 0.3829859
vn -0.9237537 0.0009775171 0.3829859
vn 0.3822092 0.0009775171 0.9240753
vn 0.9237537 0.0009775171 0.3829859
vn 0.3822092 0.0009775171 0.9240753
vn 0.9237537 0.0009775171 0.3829859
vn 0.9999995 0.0009775166 0
vn 0.9999995 0.0009775166 0
vn 0.9999995 0.0009775166 0
vn 0.9999995 0.0009775166 0
vn 0.9237537 0.0009775171 -0.3829859
vn 0.9237537 0.0009775171 -0.3829859
vn 0.3822092 0.0009775171 -0.9240753
vn 0.9237537 0.0009775171 -0.3829859
vn 0.9237537 0.0009775171 -0.3829859
vn 0.3822092 0.0009775171 -0.9240753
vn 0.0009775171 0.0009775171 -0.999999
vn 0.0009775171 0.0009775171 -0.999999
vn 0.0009775171 0.0009775171 -0.999999
vn 0.0009775171 0.0009775171 -0.999999
vn -0.3822092 0.0009775171 -0.9240753
vn -0.3822092 0.0009775171 -0.9240753
vn -0.9237537 0.0009775171 -0.3829859
vn -0.9237537 0.0009775171 -0.3829859
vn 0.0009775166 -0.9999995 0
vn 0.0009775166 -0.9999995 0
vn 0.0009775166 -0.9999995 0
vn 0.0009775166 -0.9999995 0
vn 0.0009775166 -0.9999995 0
vn 0.0009775166 -0.9999995 0
vn 0.0009775166 -0.9999995 0
vn 0.0009775166 -0.9999995 0
vn 0.0009775166 -0.9999995 0
vn 0.0009775166 -0.9999995 0
vn 0.0009775166 -0.9999995 0
vn 0.0009775166 -0.9999995 0
vn 0.0009775166 -0.9999995 0
vn 0.0009775166 -0.9999995 0
vn 0.0009775166 -0.9999995 0
vn 0.0009775166 -0.9999995 0
vn 0.0009775166 -0.9999995 0
vn 0.0009775166 -0.9999995 0
vn 0.0009775166 -0.9999995 0
vn 0.0009775166 -0.9999995 0
vn 0.0009775166 -0.9999995 0
vn 0.0009775166 -0.9999995 0
vn 0.0009775166 -0.9999995 0
vn 0.0009775166 -0.9999995 0
vn 0.0009775166 0.9999995 0
vn 0.0009775166 0.9999995 0
vn 0.0009775166 0.9999995 0
vn 0.0009775166 0.9999995 0
vn 0.0009775166 0.9999995 0
vn 0.0009775166 0.9999995 0
vn 0.0009775166 0.9999995 0
vn 0.0009775166 0.9999995 0
vn 0.0009775166 0.9999995 0
vn 0.0009775166 0.9999995 0
vn 0.0009775166 0.9999995 0
vn 0.0009775166 0.9999995 0
vn 0.0009775166 0.9999995 0
vn 0.0009775166 0.9999995 0
vn 0.0009775166 0.9999995 0
vn 0.0009775166 0.9999995 0
vn 0.0009775166 0.9999995 0
vn 0.0009775166 0.9999995 0
vn 0.0009775166 0.9999995 0
vn 0.0009775166 0.9999995 0
vn 0.0009775166 0.9999995 0
vn 0.0009775166 0.9999995 0
vn 0.0009775166 0.9999995 0
vn 0.0009775166 0.9999995 0
vt 0.680442 0.1643701
vt 0.6788684 0.16204
vt 0.6809413 0.1621761
vt 0.664615 0.1847818
vt 0.667157 0.1847364
vt 0.6672024 0.1861436
vt 0.6798065 0.184116
vt 0.6798821 0.185493
vt 0.6789591 0.1667154
vt 0.682182 0.1839799
vt 0.6810472 0.1665036
vt 0.6668543 0.1674115
vt 0.6784749 0.1644155
vt 0.680442 0.1643701
vt 0.66693 0.1647333
vt 0.6642972 0.1648543
vt 0.664736 0.1674871
vt 0.664615 0.1847818
vt 0.6672024 0.1861436
vt 0.6646301 0.1862192
vt 0.6514208 0.1860679
vt 0.6514661 0.1846456
vt 0.6489242 0.1845548
vt 0.6495445 0.1671996
vt 0.664736 0.1674871
vt 0.667157 0.1847364
vt 0.6668543 0.1674115
vt 0.6516931 0.1673207
vt 0.6493781 0.1644155
vt 0.6642972 0.1648543
vt 0.6520411 0.1643247
vt 0.664615 0.161813
vt 0.6516175 0.161586
vt 0.664615 0.161813
vt 0.66693 0.1647333
vt 0.6642972 0.1648543
vt 0.6667484 0.1619038
vt 0.6788684 0.16204
vt 0.6784749 0.1644155
vt 0.680442 0.1643701
vt 0.6520411 0.1643247
vt 0.6494991 0.1616466
vt 0.6516175 0.161586
vt 0.6493781 0.1644155
vt 0.6375154 0.1644307
vt 0.6371674 0.1618887
vt 0.6352004 0.1619492
vt 0.6350945 0.1643853
vt 0.6370766 0.1669273
vt 0.6495445 0.1671996
vt 0.6351247 0.1667608
vt 0.6363201 0.1837226
vt 0.6338991 0.1835713
vt 0.6362141 0.1850844
vt 0.6489242 0.1845548
vt 0.6488636 0.185962
vt 0.6514208 0.1860679
vt 0.6248054 0.1640978
vt 0.6238673 0.1622064
vt 0.6352004 0.1619492
vt 0.6350945 0.1643853
vt 0.6237765 0.1658681
vt 0.6351247 0.1667608
vt 0.6222482 0.1826483
vt 0.6338991 0.1835713
vt 0.6221424 0.1839345
vt 0.6338083 0.1848877
vt 0.6362141 0.1850844
vt 0.6654623 0.2089157
vt 0.6631321 0.211261
vt 0.6462762 0.211261
vt 0.6439309 0.2089157
vt 0.6654623 0.1920598
vt 0.6439309 0.1920598
vt 0.6631321 0.1897145
vt 0.6462762 0.1897145
vt 0.6822728 0.1853265
vt 0.6798821 0.185493
vt 0.6798065 0.184116
vt 0.682182 0.1839799
vt 0.6937421 0.2736157
vt 0.6929553 0.007159407
vt 0.6929553 0.2736157
vt 0.6937421 0.007159407
vt 0.7092513 0.2736157
vt 0.7092513 0.007159407
vt 0.7100381 0.2736157
vt 0.7100381 0.007159407
vt 0.7662194 0.2736157
vt 0.7643734 0.007159407
vt 0.7643734 0.2736157
vt 0.7662194 0.007159407
vt 0.7896724 0.2736157
vt 0.7896724 0.007159407
vt 0.7913671 0.2736157
vt 0.7913671 0.007159407
vt 0.7927591 0.007159407
vt 0.7927591 0.2736157
vt 0.7643734 0.007159407
vt 0.7619979 0.2736157
vt 0.7643734 0.2736157
vt 0.7619979 0.007159407
vt 0.7611203 0.007159407
vt 0.7611203 0.2736157
vt 0.7438407 0.007159407
vt 0.7438407 0.2736157
vt 0.7429631 0.007159407
vt 0.7429631 0.2736157
vt 0.740527 0.2736157
vt 0.7429631 0.2736157
vt 0.7429631 0.007159407
vt 0.740527 0.007159407
vt 0.7385902 0.007159407
vt 0.7385902 0.2736157
vt 0.7141538 0.007159407
vt 0.7141538 0.2736157
vt 0.7123683 0.007159407
vt 0.7123683 0.2736157
vt 0.7100381 0.2736157
vt 0.7100381 0.007159407
vt 0.6258948 0.2090216
vt 0.6267119 0.2090216
vt 0.6276046 0.2081138
vt 0.6267119 0.2081138
vt 0.6100224 0.2090216
vt 0.6276046 0.2070092
vt 0.6092054 0.2081138
vt 0.6092054 0.2090216
vt 0.6083127 0.2081138
vt 0.6267119 0.2070092
vt 0.6276046 0.1918177
vt 0.6092054 0.2070092
vt 0.6083127 0.2070092
vt 0.6267119 0.1918177
vt 0.6276046 0.1906224
vt 0.6092054 0.1918177
vt 0.6083127 0.1918177
vt 0.6267119 0.1906224
vt 0.6267119 0.1897145
vt 0.6258948 0.1897145
vt 0.6092054 0.1906224
vt 0.6083127 0.1906224
vt 0.6100224 0.1897145
vt 0.6092054 0.1897145
vt 0.6267119 0.2092032
vt 0.6276046 0.2083105
vt 0.6276046 0.2074934
vt 0.6267119 0.2083105
vt 0.6276046 0.191621
vt 0.6255014 0.2083105
vt 0.6255014 0.2092032
vt 0.6267119 0.1908039
vt 0.6276046 0.1908039
vt 0.6267119 0.1899112
vt 0.6255014 0.1899112
vt 0.6255014 0.1908039
vt 0.61031 0.1899112
vt 0.61031 0.1908039
vt 0.6092054 0.1899112
vt 0.61031 0.2083105
vt 0.61031 0.2092032
vt 0.6092054 0.1908039
vt 0.6083127 0.1908039
vt 0.6083127 0.191621
vt 0.6092054 0.2083105
vt 0.6092054 0.2092032
vt 0.6083127 0.2074934
vt 0.6083127 0.2083105
f 1/1/1 2/2/2 3/3/3
f 4/4/4 5/5/5 6/6/6
f 6/6/6 5/5/5 7/7/7
f 6/6/6 7/7/7 8/8/8
f 5/5/5 9/9/9 7/7/7
f 10/10/10 7/7/7 9/9/9
f 10/10/10 9/9/9 11/11/11
f 5/5/5 12/12/12 9/9/9
f 11/11/11 9/9/9 13/13/13
f 12/12/12 13/13/13 9/9/9
f 11/11/11 13/13/13 14/14/14
f 12/12/12 15/15/15 13/13/13
f 16/16/16 15/15/15 12/12/12
f 16/16/16 12/12/12 17/17/17
f 18/18/18 19/19/19 20/20/20
f 21/21/21 18/18/18 20/20/20
f 21/21/21 22/22/22 18/18/18
f 21/21/21 23/23/23 22/22/22
f 22/22/22 23/23/23 24/24/24
f 22/22/22 25/25/25 18/18/18
f 25/25/25 26/26/26 18/18/18
f 25/25/25 27/27/27 26/26/26
f 22/22/22 24/24/24 28/28/28
f 22/22/22 28/28/28 25/25/25
f 28/28/28 24/24/24 29/29/29
f 28/28/28 30/30/30 25/25/25
f 28/28/28 29/29/29 31/31/31
f 28/28/28 31/31/31 30/30/30
f 31/31/31 32/32/32 30/30/30
f 31/31/31 33/33/33 32/32/32
f 34/34/34 35/35/35 36/36/36
f 34/34/34 37/37/37 35/35/35
f 35/35/35 37/37/37 38/38/38
f 35/35/35 38/38/38 39/39/39
f 40/40/40 39/39/39 38/38/38
f 41/41/41 42/42/42 43/43/43
f 41/41/41 44/44/44 42/42/42
f 45/45/45 42/42/42 44/44/44
f 45/45/45 46/46/46 42/42/42
f 45/45/45 47/47/47 46/46/46
f 45/45/45 48/48/48 47/47/47
f 49/49/49 45/45/45 44/44/44
f 49/49/49 48/48/48 45/45/45
f 49/49/49 44/44/44 50/50/50
f 49/49/49 51/51/51 48/48/48
f 52/52/52 49/49/49 50/50/50
f 52/52/52 51/51/51 49/49/49
f 52/52/52 53/53/53 51/51/51
f 54/54/54 53/53/53 52/52/52
f 52/52/52 50/50/50 55/55/55
f 54/54/54 52/52/52 55/55/55
f 54/54/54 55/55/55 56/56/56
f 57/57/57 56/56/56 55/55/55
f 58/58/58 59/59/59 60/60/60
f 58/58/58 60/60/60 61/61/61
f 62/62/62 58/58/58 61/61/61
f 62/62/62 61/61/61 63/63/63
f 64/64/64 62/62/62 63/63/63
f 64/64/64 63/63/63 65/65/65
f 66/66/66 64/64/64 65/65/65
f 66/66/66 65/65/65 67/67/67
f 68/68/68 67/67/67 65/65/65
f 69/69/69 70/70/70 71/71/71
f 69/69/69 71/71/71 72/72/72
f 73/73/73 69/69/69 72/72/72
f 73/73/73 72/72/72 74/74/74
f 75/75/75 73/73/73 74/74/74
f 75/75/75 74/74/74 76/76/76
f 77/77/77 78/78/78 79/79/79
f 77/77/77 79/79/79 80/80/80
f 81/81/81 82/82/82 83/83/83
f 81/81/81 84/84/84 82/82/82
f 85/85/85 84/84/84 81/81/81
f 85/85/85 86/86/86 84/84/84
f 87/87/87 86/86/86 85/85/85
f 87/87/87 88/88/88 86/86/86
f 89/89/89 90/90/90 91/91/91
f 89/89/89 92/92/92 90/90/90
f 93/93/93 92/92/92 89/89/89
f 93/93/93 94/94/94 92/92/92
f 95/95/95 94/94/94 93/93/93
f 95/95/95 96/96/96 94/94/94
f 95/95/95 97/97/97 96/96/96
f 95/95/95 98/98/98 97/97/97
f 99/99/99 100/100/100 101/101/101
f 99/99/99 102/102/102 100/100/100
f 100/100/100 102/102/102 103/103/103
f 100/100/100 103/103/103 104/104/104
f 104/104/104 103/103/103 105/105/105
f 104/104/104 105/105/105 106/106/106
f 106/106/106 105/105/105 107/107/107
f 106/106/106 107/107/107 108/108/108
f 109/109/109 110/110/110 111/111/111
f 109/109/109 111/111/111 112/112/112
f 109/109/109 112/112/112 113/113/113
f 109/109/109 113/113/113 114/114/114
f 114/114/114 113/113/113 115/115/115
f 114/114/114 115/115/115 116/116/116
f 116/116/116 115/115/115 117/117/117
f 116/116/116 117/117/117 118/118/118
f 119/119/119 118/118/118 117/117/117
f 119/119/119 117/117/117 120/120/120
f 121/121/121 122/122/122 123/123/123
f 121/121/121 123/123/123 124/124/124
f 125/125/125 121/121/121 124/124/124
f 124/124/124 123/123/123 126/126/126
f 125/125/125 124/124/124 127/127/127
f 128/128/128 125/125/125 127/127/127
f 128/128/128 127/127/127 129/129/129
f 124/124/124 126/126/126 130/130/130
f 127/127/127 124/124/124 130/130/130
f 130/130/130 126/126/126 131/131/131
f 129/129/129 127/127/127 132/132/132
f 127/127/127 130/130/130 132/132/132
f 129/129/129 132/132/132 133/133/133
f 130/130/130 131/131/131 134/134/134
f 132/132/132 130/130/130 134/134/134
f 134/134/134 131/131/131 135/135/135
f 133/133/133 132/132/132 136/136/136
f 132/132/132 134/134/134 136/136/136
f 133/133/133 136/136/136 137/137/137
f 134/134/134 135/135/135 138/138/138
f 136/136/136 134/134/134 138/138/138
f 138/138/138 135/135/135 139/139/139
f 138/138/138 139/139/139 140/140/140
f 137/137/137 136/136/136 141/141/141
f 136/136/136 138/138/138 141/141/141
f 141/141/141 138/138/138 140/140/140
f 137/137/137 141/141/141 142/142/142
f 141/141/141 140/140/140 143/143/143
f 142/142/142 141/141/141 143/143/143
f 142/142/142 143/143/143 144/144/144
f 145/145/145 146/146/146 147/147/147
f 145/145/145 147/147/147 148/148/148
f 148/148/148 147/147/147 149/149/149
f 145/145/145 148/148/148 150/150/150
f 145/145/145 150/150/150 151/151/151
f 148/148/148 149/149/149 152/152/152
f 152/152/152 149/149/149 153/153/153
f 152/152/152 153/153/153 154/154/154
f 152/152/152 154/154/154 155/155/155
f 148/148/148 152/152/152 156/156/156
f 152/152/152 155/155/155 156/156/156
f 148/148/148 156/156/156 150/150/150
f 156/156/156 155/155/155 157/157/157
f 156/156/156 157/157/157 158/158/158
f 150/150/150 156/156/156 158/158/158
f 158/158/158 157/157/157 159/159/159
f 151/151/151 150/150/150 160/160/160
f 150/150/150 158/158/158 160/160/160
f 151/151/151 160/160/160 161/161/161
f 158/158/158 159/159/159 162/162/162
f 160/160/160 158/158/158 162/162/162
f 162/162/162 159/159/159 163/163/163
f 162/162/162 163/163/163 164/164/164
f 161/161/161 160/160/160 165/165/165
f 160/160/160 162/162/162 165/165/165
f 165/165/165 162/162/162 164/164/164
f 161/161/161 165/165/165 166/166/166
f 165/165/165 164/164/164 167/167/167
f 166/166/166 165/165/165 167/167/167
f 166/166/166 167/167/167 168/168/168
