v -1.800107 1.336633 -0.08063474
v -1.598948 1.336633 -0.08063474
v -1.598948 1.325775 -0.09202904
v -1.540361 1.370558 0.0900369
v -1.798943 1.370558 0.0900369
v -1.798943 1.346266 0.0900369
v -1.542801 1.346266 0.0900369
v -1.540361 1.370558 0.0900369
v -1.542801 1.346266 0.0900369
v -1.542801 1.336289 0.07934113
v -1.540361 1.38141 0.07934113
v -1.542801 1.335889 0.04655529
v -1.540361 1.38141 0.04655529
v -1.542801 1.335889 0.04655529
v -1.542801 1.336289 0.07934113
v -1.798943 1.336365 0.07934113
v -1.798943 1.335889 0.04655529
v -1.542801 1.336289 0.07934113
v -1.542801 1.346266 0.0900369
v -1.798943 1.346266 0.0900369
v -1.798943 1.336365 0.07934113
v -1.798943 1.38141 0.07934113
v -1.540361 1.38141 0.07934113
v -1.540361 1.38141 0.04655529
v -1.798943 1.38141 0.04655529
v -1.798943 1.38141 0.07934113
v -1.798943 1.370558 0.0900369
v -1.540361 1.370558 0.0900369
v -1.540361 1.38141 0.07934113
v -1.798943 1.38141 0.07934113
v -1.798943 1.346266 0.0900369
v -1.798943 1.370558 0.0900369
v -1.798943 1.336365 0.07934113
v -1.798943 1.38141 0.04655529
v -1.798943 1.335889 0.04655529
v -1.597778 1.325775 0.0900369
v -1.798943 1.325775 0.0900369
v -1.798943 1.301488 0.0900369
v -1.600223 1.301488 0.0900369
v -1.597778 1.325775 0.0900369
v -1.600223 1.301488 0.0900369
v -1.600223 1.291511 0.07934113
v -1.597778 1.336633 0.07934113
v -1.600223 1.291111 0.04655529
v -1.597778 1.336633 0.04655529
v -1.600223 1.291111 0.04655529
v -1.600223 1.291511 0.07934113
v -1.798943 1.291587 0.07934113
v -1.798943 1.291111 0.04655529
v -1.600223 1.291511 0.07934113
v -1.600223 1.301488 0.0900369
v -1.798943 1.301488 0.0900369
v -1.798943 1.291587 0.07934113
v -1.798943 1.336633 0.07934113
v -1.597778 1.336633 0.07934113
v -1.597778 1.336633 0.04655529
v -1.798943 1.336633 0.04655529
v -1.798943 1.336633 0.07934113
v -1.798943 1.325775 0.0900369
v -1.597778 1.325775 0.0900369
v -1.597778 1.336633 0.07934113
v -1.798943 1.336633 0.07934113
v -1.798943 1.301488 0.0900369
v -1.798943 1.325775 0.0900369
v -1.798943 1.291587 0.07934113
v -1.798943 1.336633 0.04655529
v -1.798943 1.291111 0.04655529
v -1.541526 1.370558 -0.09202904
v -1.54397 1.346266 -0.09202904
v -1.800107 1.346266 -0.09202904
v -1.800107 1.370558 -0.09202904
v -1.541526 1.370558 -0.09202904
v -1.54397 1.336289 -0.08063474
v -1.54397 1.346266 -0.09202904
v -1.541526 1.38141 -0.08063474
v -1.54397 1.335889 -0.04570772
v -1.541526 1.38141 -0.04570772
v -1.54397 1.335889 -0.04570772
v -1.800107 1.335889 -0.04570772
v -1.800107 1.336365 -0.08063474
v -1.54397 1.336289 -0.08063474
v -1.54397 1.336289 -0.08063474
v -1.800107 1.336365 -0.08063474
v -1.800107 1.346266 -0.09202904
v -1.54397 1.346266 -0.09202904
v -1.800107 1.38141 -0.08063474
v -1.800107 1.38141 -0.04570772
v -1.541526 1.38141 -0.04570772
v -1.541526 1.38141 -0.08063474
v -1.800107 1.38141 -0.08063474
v -1.541526 1.38141 -0.08063474
v -1.541526 1.370558 -0.09202904
v -1.800107 1.370558 -0.09202904
v -1.800107 1.38141 -0.08063474
v -1.800107 1.370558 -0.09202904
v -1.800107 1.346266 -0.09202904
v -1.800107 1.336365 -0.08063474
v -1.800107 1.38141 -0.04570772
v -1.800107 1.335889 -0.04570772
v -1.598948 1.325775 -0.09202904
v -1.601388 1.301488 -0.09202904
v -1.800107 1.301488 -0.09202904
v -1.800107 1.325775 -0.09202904
v -1.800107 1.336633 -0.08063474
v -1.598948 1.325775 -0.09202904
v -1.601388 1.291511 -0.08063474
v -1.601388 1.301488 -0.09202904
v -1.598948 1.336633 -0.08063474
v -1.601388 1.291111 -0.04570772
v -1.598948 1.336633 -0.04570772
v -1.601388 1.291111 -0.04570772
v -1.800107 1.291111 -0.04570772
v -1.800107 1.291587 -0.08063474
v -1.601388 1.291511 -0.08063474
v -1.601388 1.291511 -0.08063474
v -1.800107 1.291587 -0.08063474
v -1.800107 1.301488 -0.09202904
v -1.601388 1.301488 -0.09202904
v -1.800107 1.336633 -0.08063474
v -1.800107 1.336633 -0.04570772
v -1.598948 1.336633 -0.04570772
v -1.598948 1.336633 -0.08063474
v -1.800107 1.336633 -0.08063474
v -1.800107 1.325775 -0.09202904
v -1.800107 1.301488 -0.09202904
v -1.800107 1.291587 -0.08063474
v -1.800107 1.336633 -0.04570772
v -1.800107 1.291111 -0.04570772
v 0.0003250799 0.1840868 -0.02870484
v -0.02413902 0.1840868 -0.01458218
v -0.02413902 0.6515824 -0.01458218
v 0.0003250799 0.6515824 -0.02870484
v -0.02413902 0.1840868 0.01366821
v 0.0003250799 0.1840868 0.02779088
v 0.0003250799 0.6515824 0.02779088
v -0.02413902 0.6515824 0.01366821
v 0.0003250799 0.1840868 0.02779088
v 0.02478918 0.1840868 0.01366821
v 0.02478918 0.6515824 0.01366821
v 0.0003250799 0.6515824 0.02779088
v 0.02478918 0.6515824 -0.01458218
v 0.0003250799 0.6515824 -0.02870484
v -0.02413902 0.6515824 -0.01458218
v 0.02478918 0.6515824 0.01366821
v -0.02413902 0.6515824 0.01366821
v 0.0003250799 0.6515824 0.02779088
v 0.02478918 0.1840868 -0.01458218
v 0.0003250799 0.1840868 -0.02870484
v 0.0003250799 0.6515824 -0.02870484
v 0.02478918 0.6515824 -0.01458218
v 0.02478918 0.1840868 0.01366821
v 0.02478918 0.1840868 -0.01458218
v 0.02478918 0.6515824 -0.01458218
v 0.02478918 0.6515824 0.01366821
v -0.02413902 0.1840868 -0.01458218
v 0.0003250799 0.1840868 -0.02870484
v 0.02478918 0.1840868 -0.01458218
v -0.02413902 0.1840868 0.01366821
v 0.02478918 0.1840868 0.01366821
v 0.0003250799 0.1840868 0.02779088
v 0.0003250799 2.626194 -0.02870484
v -0.02413902 2.626194 -0.01458218
v -0.02413902 3.09369 -0.01458218
v 0.0003250799 3.09369 -0.02870484
v -0.02413902 2.626194 0.01366821
v 0.0003250799 2.626194 0.02779088
v 0.0003250799 3.09369 0.02779088
v -0.02413902 3.09369 0.01366821
v 0.0003250799 2.626194 0.02779088
v 0.02478918 2.626194 0.01366821
v 0.02478918 3.09369 0.01366821
v 0.0003250799 3.09369 0.02779088
v 0.02478918 3.09369 -0.01458218
v 0.0003250799 3.09369 -0.02870484
v -0.02413902 3.09369 -0.01458218
v 0.02478918 3.09369 0.01366821
v -0.02413902 3.09369 0.01366821
v 0.0003250799 3.09369 0.02779088
v 0.02478918 2.626194 -0.01458218
v 0.0003250799 2.626194 -0.02870484
v 0.0003250799 3.09369 -0.02870484
v 0.02478918 3.09369 -0.01458218
v 0.02478918 2.626194 0.01366821
v 0.02478918 2.626194 -0.01458218
v 0.02478918 3.09369 -0.01458218
v 0.02478918 3.09369 0.01366821
v -0.02413902 2.626194 -0.01458218
v 0.0003250799 2.626194 -0.02870484
v 0.02478918 2.626194 -0.01458218
v -0.02413902 2.626194 0.01366821
v 0.02478918 2.626194 0.01366821
v 0.0003250799 2.626194 0.02779088
v -0.02386061 3.505682 0.0484535
v -0.02386061 1.119191E-06 0.0484535
v -0.02386061 1.119191E-06 -0.05154407
v -0.02386061 3.505682 -0.05154407
v -0.02386061 3.505682 -0.05154407
v -0.02386061 1.119191E-06 -0.05154407
v -1.802086 1.119191E-06 -0.05154407
v -1.802086 3.505682 -0.05154407
v -1.802086 3.505682 -0.05154407
v -1.802086 1.119191E-06 -0.05154407
v -1.802086 1.119191E-06 0.0484535
v -1.802086 3.505682 0.0484535
v -1.802086 3.505682 0.0484535
v -1.802086 1.119191E-06 0.0484535
v -0.02386061 1.119191E-06 0.0484535
v -0.02386061 3.505682 0.0484535
v -0.02386061 1.119191E-06 0.0484535
v -1.802086 1.119191E-06 0.0484535
v -1.802086 1.119191E-06 -0.05154407
v -0.02386061 1.119191E-06 -0.05154407
v -1.802086 3.505682 0.0484535
v -0.02386061 3.505682 0.0484535
v -0.02386061 3.505682 -0.05154407
v -1.802086 3.505682 -0.05154407
vn 0.0009775171 0.9276637 -0.3734154
vn 0.0009775171 0.9276637 -0.3734154
vn 0.0009775171 0.4076246 -0.9131491
vn 0.0009775171 0.3919844 0.9199713
vn 0.0009775171 0.3802541 0.9248815
vn -0.0009775171 -0.3998045 0.9165999
vn -0.0009775171 -0.3880743 0.9216276
vn 0.9975908 -0.06937213 0
vn 0.9975908 -0.06937213 0
vn 0.998045 -0.05962854 -0.01872664
vn 0.998045 -0.05962854 -0.01872664
vn 0.998045 -0.05376344 0.03187071
vn 0.998045 -0.05376344 0.03187071
vn -0.0009775166 -0.9999995 0
vn -0.0009775171 -0.9276637 0.3734154
vn -0.0009775171 -0.9276637 0.3734154
vn -0.0009775166 -0.9999995 0
vn -0.0009775171 -0.9276637 0.3734154
vn -0.0009775171 -0.3880743 0.9216276
vn -0.0009775171 -0.3998045 0.9165999
vn -0.0009775171 -0.9276637 0.3734154
vn 0.0009775171 0.9217986 0.3876678
vn 0.0009775171 0.9217986 0.3876678
vn 0.0009775166 0.9999995 0
vn 0.0009775166 0.9999995 0
vn 0.0009775171 0.9217986 0.3876678
vn 0.0009775171 0.3802541 0.9248815
vn 0.0009775171 0.3919844 0.9199713
vn 0.0009775171 0.9217986 0.3876678
vn -0.9999995 0.0009775166 0
vn -0.9999995 0.0009775166 0
vn -0.9999995 0.0009775166 0
vn -0.9999995 0.0009775166 0
vn -0.9999995 0.0009775166 0
vn -0.9999995 0.0009775166 0
vn 0.0009775171 0.3919844 0.9199713
vn 0.0009775171 0.3802541 0.9248815
vn -0.0009775171 -0.3998045 0.9165999
vn -0.0009775171 -0.3880743 0.9216276
vn 0.9975908 -0.06937213 0
vn 0.9975908 -0.06937213 0
vn 0.998045 -0.05962854 -0.01872664
vn 0.998045 -0.05962854 -0.01872664
vn 0.998045 -0.05376344 0.03187071
vn 0.998045 -0.05376344 0.03187071
vn -0.0009775166 -0.9999995 0
vn -0.0009775171 -0.9276637 0.3734154
vn -0.0009775171 -0.9276637 0.3734154
vn -0.0009775166 -0.9999995 0
vn -0.0009775171 -0.9276637 0.3734154
vn -0.0009775171 -0.3880743 0.9216276
vn -0.0009775171 -0.3998045 0.9165999
vn -0.0009775171 -0.9276637 0.3734154
vn 0.0009775171 0.9217986 0.3876678
vn 0.0009775171 0.9217986 0.3876678
vn 0.0009775166 0.9999995 0
vn 0.0009775166 0.9999995 0
vn 0.0009775171 0.9217986 0.3876678
vn 0.0009775171 0.3802541 0.9248815
vn 0.0009775171 0.3919844 0.9199713
vn 0.0009775171 0.9217986 0.3876678
vn -0.9999995 0.0009775166 0
vn -0.9999995 0.0009775166 0
vn -0.9999995 0.0009775166 0
vn -0.9999995 0.0009775166 0
vn -0.9999995 0.0009775166 0
vn -0.9999995 0.0009775166 0
vn 0.0009775171 0.4076246 -0.9131491
vn -0.0009775171 -0.4017595 -0.9157447
vn -0.0009775171 -0.4134897 -0.9105083
vn 0.0009775171 0.3939394 -0.9191359
vn 0.9975908 -0.06937213 0
vn 0.998045 -0.05962854 0.01872664
vn 0.9975908 -0.06937213 0
vn 0.998045 -0.05962854 0.01872664
vn 0.998045 -0.05376344 -0.03187071
vn 0.998045 -0.05376344 -0.03187071
vn -0.0009775166 -0.9999995 0
vn -0.0009775166 -0.9999995 0
vn -0.0009775171 -0.9335288 -0.358501
vn -0.0009775171 -0.9335288 -0.358501
vn -0.0009775171 -0.9335288 -0.358501
vn -0.0009775171 -0.9335288 -0.358501
vn -0.0009775171 -0.4134897 -0.9105083
vn -0.0009775171 -0.4017595 -0.9157447
vn 0.0009775171 0.9276637 -0.3734154
vn 0.0009775166 0.9999995 0
vn 0.0009775166 0.9999995 0
vn 0.0009775171 0.9276637 -0.3734154
vn 0.0009775171 0.9276637 -0.3734154
vn 0.0009775171 0.9276637 -0.3734154
vn 0.0009775171 0.4076246 -0.9131491
vn 0.0009775171 0.3939394 -0.9191359
vn -0.9999995 0.0009775166 0
vn -0.9999995 0.0009775166 0
vn -0.9999995 0.0009775166 0
vn -0.9999995 0.0009775166 0
vn -0.9999995 0.0009775166 0
vn -0.9999995 0.0009775166 0
vn 0.0009775171 0.4076246 -0.9131491
vn -0.0009775171 -0.4017595 -0.9157447
vn -0.0009775171 -0.4134897 -0.9105083
vn 0.0009775171 0.3939394 -0.9191359
vn 0.0009775171 0.9276637 -0.3734154
vn 0.9975908 -0.06937213 0
vn 0.998045 -0.05962854 0.01872664
vn 0.9975908 -0.06937213 0
vn 0.998045 -0.05962854 0.01872664
vn 0.998045 -0.05376344 -0.03187071
vn 0.998045 -0.05376344 -0.03187071
vn -0.0009775166 -0.9999995 0
vn -0.0009775166 -0.9999995 0
vn -0.0009775171 -0.9335288 -0.358501
vn -0.0009775171 -0.9335288 -0.358501
vn -0.0009775171 -0.9335288 -0.358501
vn -0.0009775171 -0.9335288 -0.358501
vn -0.0009775171 -0.4134897 -0.9105083
vn -0.0009775171 -0.4017595 -0.9157447
vn 0.0009775171 0.9276637 -0.3734154
vn 0.0009775166 0.9999995 0
vn 0.0009775166 0.9999995 0
vn 0.0009775171 0.9276637 -0.3734154
vn -0.9999995 0.0009775166 0
vn -0.9999995 0.0009775166 0
vn -0.9999995 0.0009775166 0
vn -0.9999995 0.0009775166 0
vn -0.9999995 0.0009775166 0
vn -0.9999995 0.0009775166 0
vn 0.0009775171 0.0009775171 -0.999999
vn -0.4995112 0.0009775171 -0.8663068
vn -0.4995112 0.0009775171 -0.8663068
vn 0.0009775171 0.0009775171 -0.999999
vn -0.4995112 0.0009775171 0.8663068
vn 0.0009775171 0.0009775171 0.999999
vn 0.0009775171 0.0009775171 0.999999
vn -0.4995112 0.0009775171 0.8663068
vn 0.0009775171 0.0009775171 0.999999
vn 0.8651026 0.0009775171 0.5015939
vn 0.8651026 0.0009775171 0.5015939
vn 0.0009775171 0.0009775171 0.999999
vn 0.0009775166 0.9999995 0
vn 0.0009775166 0.9999995 0
vn 0.0009775166 0.9999995 0
vn 0.0009775166 0.9999995 0
vn 0.0009775166 0.9999995 0
vn 0.0009775166 0.9999995 0
vn 0.8651026 0.0009775171 -0.5015939
vn 0.0009775171 0.0009775171 -0.999999
vn 0.0009775171 0.0009775171 -0.999999
vn 0.8651026 0.0009775171 -0.5015939
vn 0.8651026 0.0009775171 0.5015939
vn 0.8651026 0.0009775171 -0.5015939
vn 0.8651026 0.0009775171 -0.5015939
vn 0.8651026 0.0009775171 0.5015939
vn 0.0009775166 -0.9999995 0
vn 0.0009775166 -0.9999995 0
vn 0.0009775166 -0.9999995 0
vn 0.0009775166 -0.9999995 0
vn 0.0009775166 -0.9999995 0
vn 0.0009775166 -0.9999995 0
vn 0.0009775171 0.0009775171 -0.999999
vn -0.4995112 0.0009775171 -0.8663068
vn -0.4995112 0.0009775171 -0.8663068
vn 0.0009775171 0.0009775171 -0.999999
vn -0.4995112 0.0009775171 0.8663068
vn 0.0009775171 0.0009775171 0.999999
vn 0.0009775171 0.0009775171 0.999999
vn -0.4995112 0.0009775171 0.8663068
vn 0.0009775171 0.0009775171 0.999999
vn 0.8651026 0.0009775171 0.5015939
vn 0.8651026 0.0009775171 0.5015939
vn 0.0009775171 0.0009775171 0.999999
vn 0.0009775166 0.9999995 0
vn 0.0009775166 0.9999995 0
vn 0.0009775166 0.9999995 0
vn 0.0009775166 0.9999995 0
vn 0.0009775166 0.9999995 0
vn 0.0009775166 0.9999995 0
vn 0.8651026 0.0009775171 -0.5015939
vn 0.0009775171 0.0009775171 -0.999999
vn 0.0009775171 0.0009775171 -0.999999
vn 0.8651026 0.0009775171 -0.5015939
vn 0.8651026 0.0009775171 0.5015939
vn 0.8651026 0.0009775171 -0.5015939
vn 0.8651026 0.0009775171 -0.5015939
vn 0.8651026 0.0009775171 0.5015939
vn 0.0009775166 -0.9999995 0
vn 0.0009775166 -0.9999995 0
vn 0.0009775166 -0.9999995 0
vn 0.0009775166 -0.9999995 0
vn 0.0009775166 -0.9999995 0
vn 0.0009775166 -0.9999995 0
vn 0.9999995 0.0009775166 0
vn 0.9999995 0.0009775166 0
vn 0.9999995 0.0009775166 0
vn 0.9999995 0.0009775166 0
vn 0.0009775171 0.0009775171 -0.999999
vn 0.0009775171 0.0009775171 -0.999999
vn 0.0009775171 0.0009775171 -0.999999
vn 0.0009775171 0.0009775171 -0.999999
vn -0.9999995 0.0009775166 0
vn -0.9999995 0.0009775166 0
vn -0.9999995 0.0009775166 0
vn -0.9999995 0.0009775166 0
vn 0.0009775171 0.0009775171 0.999999
vn 0.0009775171 0.0009775171 0.999999
vn 0.0009775171 0.0009775171 0.999999
vn 0.0009775171 0.0009775171 0.999999
vn 0.0009775166 -0.9999995 0
vn 0.0009775166 -0.9999995 0
vn 0.0009775166 -0.9999995 0
vn 0.0009775166 -0.9999995 0
vn 0.0009775166 0.9999995 0
vn 0.0009775166 0.9999995 0
vn 0.0009775166 0.9999995 0
vn 0.0009775166 0.9999995 0
vt 0.6030248 0.3842785
vt 0.5664053 0.3842785
vt 0.5664053 0.3828076
vt 0.5664053 0.3828076
vt 0.6030248 0.3828076
vt 0.6030248 0.3779251
vt 0.5664053 0.3779251
vt 0.6376882 0.3842785
vt 0.6416003 0.3842785
vt 0.6440416 0.3828076
vt 0.6352468 0.3828076
vt 0.6440416 0.3769546
vt 0.6352468 0.3769546
vt 0.5664053 0.3803664
vt 0.5664053 0.3759842
vt 0.6030248 0.3759842
vt 0.6030248 0.3803664
vt 0.5664053 0.3759842
vt 0.5664053 0.3779251
vt 0.6030248 0.3779251
vt 0.6030248 0.3759842
vt 0.6030248 0.3842785
vt 0.5664053 0.3842785
vt 0.5664053 0.3803664
vt 0.6030248 0.3803664
vt 0.6030248 0.3842785
vt 0.6030248 0.3828076
vt 0.5664053 0.3828076
vt 0.5664053 0.3842785
vt 0.6440416 0.3823224
vt 0.6376882 0.3842785
vt 0.6416003 0.3842785
vt 0.6352468 0.3823224
vt 0.6440416 0.3759842
vt 0.6352468 0.3759842
vt 0.5664053 0.3828076
vt 0.6030248 0.3828076
vt 0.6030248 0.3779251
vt 0.5664053 0.3779251
vt 0.6376882 0.3842785
vt 0.6416003 0.3842785
vt 0.6440416 0.3828076
vt 0.6352468 0.3828076
vt 0.6440416 0.3769546
vt 0.6352468 0.3769546
vt 0.5664053 0.3803664
vt 0.5664053 0.3759842
vt 0.6030248 0.3759842
vt 0.6030248 0.3803664
vt 0.5664053 0.3759842
vt 0.5664053 0.3779251
vt 0.6030248 0.3779251
vt 0.6030248 0.3759842
vt 0.6030248 0.3842785
vt 0.5664053 0.3842785
vt 0.5664053 0.3803664
vt 0.6030248 0.3803664
vt 0.6030248 0.3842785
vt 0.6030248 0.3828076
vt 0.5664053 0.3828076
vt 0.5664053 0.3842785
vt 0.6440416 0.3823224
vt 0.6376882 0.3842785
vt 0.6416003 0.3842785
vt 0.6352468 0.3823224
vt 0.6440416 0.3759842
vt 0.6352468 0.3759842
vt 0.5664053 0.3828076
vt 0.5664053 0.3779251
vt 0.6030248 0.3779251
vt 0.6030248 0.3828076
vt 0.6376882 0.3842785
vt 0.6440416 0.3828076
vt 0.6416003 0.3842785
vt 0.6352468 0.3828076
vt 0.6440416 0.3769546
vt 0.6352468 0.3769546
vt 0.5664053 0.3803664
vt 0.6030248 0.3803664
vt 0.6030248 0.3759842
vt 0.5664053 0.3759842
vt 0.5664053 0.3759842
vt 0.6030248 0.3759842
vt 0.6030248 0.3779251
vt 0.5664053 0.3779251
vt 0.6030248 0.3842785
vt 0.6030248 0.3803664
vt 0.5664053 0.3803664
vt 0.5664053 0.3842785
vt 0.6030248 0.3842785
vt 0.5664053 0.3842785
vt 0.5664053 0.3828076
vt 0.6030248 0.3828076
vt 0.6440416 0.3823224
vt 0.6416003 0.3842785
vt 0.6376882 0.3842785
vt 0.6352468 0.3823224
vt 0.6440416 0.3759842
vt 0.6352468 0.3759842
vt 0.5664053 0.3828076
vt 0.5664053 0.3779251
vt 0.6030248 0.3779251
vt 0.6030248 0.3828076
vt 0.6030248 0.3842785
vt 0.6376882 0.3842785
vt 0.6440416 0.3828076
vt 0.6416003 0.3842785
vt 0.6352468 0.3828076
vt 0.6440416 0.3769546
vt 0.6352468 0.3769546
vt 0.5664053 0.3803664
vt 0.6030248 0.3803664
vt 0.6030248 0.3759842
vt 0.5664053 0.3759842
vt 0.5664053 0.3759842
vt 0.6030248 0.3759842
vt 0.6030248 0.3779251
vt 0.5664053 0.3779251
vt 0.6030248 0.3842785
vt 0.6030248 0.3803664
vt 0.5664053 0.3803664
vt 0.5664053 0.3842785
vt 0.6440416 0.3823224
vt 0.6416003 0.3842785
vt 0.6376882 0.3842785
vt 0.6352468 0.3823224
vt 0.6440416 0.3759842
vt 0.6352468 0.3759842
vt 0.2135393 0.9262009
vt 0.2113255 0.9262009
vt 0.2113255 0.9628658
vt 0.2135393 0.9628658
vt 0.2224099 0.9262009
vt 0.2201961 0.9262009
vt 0.2201961 0.9628658
vt 0.2224099 0.9628658
vt 0.2201961 0.9262009
vt 0.2179822 0.9262009
vt 0.2179822 0.9628658
vt 0.2201961 0.9628658
vt 0.2262462 0.9295217
vt 0.2262462 0.9273078
vt 0.2243356 0.9262009
vt 0.2243356 0.9306286
vt 0.2224099 0.9273078
vt 0.2224099 0.9295217
vt 0.2157532 0.9262009
vt 0.2135393 0.9262009
vt 0.2135393 0.9628658
vt 0.2157532 0.9628658
vt 0.2179822 0.9262009
vt 0.2157532 0.9262009
vt 0.2157532 0.9628658
vt 0.2179822 0.9628658
vt 0.2262462 0.9339646
vt 0.2262462 0.9317507
vt 0.2243356 0.9306437
vt 0.2243356 0.9350715
vt 0.2224099 0.9317507
vt 0.2224099 0.9339646
vt 0.2135393 0.9262009
vt 0.2113255 0.9262009
vt 0.2113255 0.9628658
vt 0.2135393 0.9628658
vt 0.2224099 0.9262009
vt 0.2201961 0.9262009
vt 0.2201961 0.9628658
vt 0.2224099 0.9628658
vt 0.2201961 0.9262009
vt 0.2179822 0.9262009
vt 0.2179822 0.9628658
vt 0.2201961 0.9628658
vt 0.2262462 0.9295217
vt 0.2262462 0.9273078
vt 0.2243356 0.9262009
vt 0.2243356 0.9306286
vt 0.2224099 0.9273078
vt 0.2224099 0.9295217
vt 0.2157532 0.9262009
vt 0.2135393 0.9262009
vt 0.2135393 0.9628658
vt 0.2157532 0.9628658
vt 0.2179822 0.9262009
vt 0.2157532 0.9262009
vt 0.2157532 0.9628658
vt 0.2179822 0.9628658
vt 0.2262462 0.9339646
vt 0.2262462 0.9317507
vt 0.2243356 0.9306437
vt 0.2243356 0.9350715
vt 0.2224099 0.9317507
vt 0.2224099 0.9339646
vt 0.9863235 0.4101623
vt 0.9863235 0.01952448
vt 0.9970743 0.01952448
vt 0.9970743 0.4101623
vt 0.7885785 0.4101623
vt 0.7885785 0.01855403
vt 0.9848678 0.01855403
vt 0.9848678 0.4101623
vt 0.9970743 0.4101623
vt 0.9970743 0.01952448
vt 0.9863235 0.01952448
vt 0.9863235 0.4101623
vt 0.9848678 0.4101623
vt 0.9848678 0.01855403
vt 0.7885785 0.01855403
vt 0.7885785 0.4101623
vt 0.7890637 0.4101623
vt 0.9970743 0.4101623
vt 0.9970743 0.4199275
vt 0.7890637 0.4199275
vt 0.9970743 0.4101623
vt 0.7890637 0.4101623
vt 0.7890637 0.4199275
vt 0.9970743 0.4199275
f 1/1/1 2/2/2 3/3/3
f 4/4/4 5/5/5 6/6/6
f 4/4/4 6/6/6 7/7/7
f 8/8/8 9/9/9 10/10/10
f 8/8/8 10/10/10 11/11/11
f 11/11/11 10/10/10 12/12/12
f 11/11/11 12/12/12 13/13/13
f 14/14/14 15/15/15 16/16/16
f 14/14/14 16/16/16 17/17/17
f 18/18/18 19/19/19 20/20/20
f 18/18/18 20/20/20 21/21/21
f 22/22/22 23/23/23 24/24/24
f 22/22/22 24/24/24 25/25/25
f 26/26/26 27/27/27 28/28/28
f 26/26/26 28/28/28 29/29/29
f 30/30/30 31/31/31 32/32/32
f 30/30/30 33/33/33 31/31/31
f 34/34/34 33/33/33 30/30/30
f 34/34/34 35/35/35 33/33/33
f 36/36/36 37/37/37 38/38/38
f 36/36/36 38/38/38 39/39/39
f 40/40/40 41/41/41 42/42/42
f 40/40/40 42/42/42 43/43/43
f 43/43/43 42/42/42 44/44/44
f 43/43/43 44/44/44 45/45/45
f 46/46/46 47/47/47 48/48/48
f 46/46/46 48/48/48 49/49/49
f 50/50/50 51/51/51 52/52/52
f 50/50/50 52/52/52 53/53/53
f 54/54/54 55/55/55 56/56/56
f 54/54/54 56/56/56 57/57/57
f 58/58/58 59/59/59 60/60/60
f 58/58/58 60/60/60 61/61/61
f 62/62/62 63/63/63 64/64/64
f 62/62/62 65/65/65 63/63/63
f 66/66/66 65/65/65 62/62/62
f 66/66/66 67/67/67 65/65/65
f 68/68/68 69/69/69 70/70/70
f 68/68/68 70/70/70 71/71/71
f 72/72/72 73/73/73 74/74/74
f 72/72/72 75/75/75 73/73/73
f 75/75/75 76/76/76 73/73/73
f 75/75/75 77/77/77 76/76/76
f 78/78/78 79/79/79 80/80/80
f 78/78/78 80/80/80 81/81/81
f 82/82/82 83/83/83 84/84/84
f 82/82/82 84/84/84 85/85/85
f 86/86/86 87/87/87 88/88/88
f 86/86/86 88/88/88 89/89/89
f 90/90/90 91/91/91 92/92/92
f 90/90/90 92/92/92 93/93/93
f 94/94/94 95/95/95 96/96/96
f 94/94/94 96/96/96 97/97/97
f 98/98/98 94/94/94 97/97/97
f 98/98/98 97/97/97 99/99/99
f 100/100/100 101/101/101 102/102/102
f 100/100/100 102/102/102 103/103/103
f 104/104/104 100/100/100 103/103/103
f 105/105/105 106/106/106 107/107/107
f 105/105/105 108/108/108 106/106/106
f 108/108/108 109/109/109 106/106/106
f 108/108/108 110/110/110 109/109/109
f 111/111/111 112/112/112 113/113/113
f 111/111/111 113/113/113 114/114/114
f 115/115/115 116/116/116 117/117/117
f 115/115/115 117/117/117 118/118/118
f 119/119/119 120/120/120 121/121/121
f 119/119/119 121/121/121 122/122/122
f 123/123/123 124/124/124 125/125/125
f 123/123/123 125/125/125 126/126/126
f 127/127/127 123/123/123 126/126/126
f 127/127/127 126/126/126 128/128/128
f 129/129/129 130/130/130 131/131/131
f 129/129/129 131/131/131 132/132/132
f 133/133/133 134/134/134 135/135/135
f 133/133/133 135/135/135 136/136/136
f 137/137/137 138/138/138 139/139/139
f 137/137/137 139/139/139 140/140/140
f 141/141/141 142/142/142 143/143/143
f 143/143/143 144/144/144 141/141/141
f 143/143/143 145/145/145 144/144/144
f 145/145/145 146/146/146 144/144/144
f 147/147/147 148/148/148 149/149/149
f 147/147/147 149/149/149 150/150/150
f 151/151/151 152/152/152 153/153/153
f 151/151/151 153/153/153 154/154/154
f 155/155/155 156/156/156 157/157/157
f 157/157/157 158/158/158 155/155/155
f 157/157/157 159/159/159 158/158/158
f 159/159/159 160/160/160 158/158/158
f 161/161/161 162/162/162 163/163/163
f 161/161/161 163/163/163 164/164/164
f 165/165/165 166/166/166 167/167/167
f 165/165/165 167/167/167 168/168/168
f 169/169/169 170/170/170 171/171/171
f 169/169/169 171/171/171 172/172/172
f 173/173/173 174/174/174 175/175/175
f 175/175/175 176/176/176 173/173/173
f 175/175/175 177/177/177 176/176/176
f 177/177/177 178/178/178 176/176/176
f 179/179/179 180/180/180 181/181/181
f 179/179/179 181/181/181 182/182/182
f 183/183/183 184/184/184 185/185/185
f 183/183/183 185/185/185 186/186/186
f 187/187/187 188/188/188 189/189/189
f 189/189/189 190/190/190 187/187/187
f 189/189/189 191/191/191 190/190/190
f 191/191/191 192/192/192 190/190/190
f 193/193/193 194/194/194 195/195/195
f 193/193/193 195/195/195 196/196/196
f 197/197/197 198/198/198 199/199/199
f 197/197/197 199/199/199 200/200/200
f 201/201/201 202/202/202 203/203/203
f 201/201/201 203/203/203 204/204/204
f 205/205/205 206/206/206 207/207/207
f 205/205/205 207/207/207 208/208/208
f 209/209/209 210/210/210 211/211/211
f 209/209/209 211/211/211 212/212/212
f 213/213/213 214/214/214 215/215/215
f 213/213/213 215/215/215 216/216/216
