v 0.01773045 -1.936544 -0.869521
v 0.01773045 -3.01933 -0.869521
v -0.01773303 -3.01933 -0.869521
v -0.01773303 -1.936544 -0.869521
v 0.01773045 0.1428104 -0.869521
v -0.01773303 0.1428104 -0.869521
v 0.01773045 2.333728 -0.869521
v -0.01773303 2.333728 -0.869521
v 0.01773045 2.630264 -0.8166011
v -0.01773303 2.630264 -0.8166011
v -0.01773303 -1.936544 0.8695244
v -0.01773303 -3.01933 0.8695244
v 0.01773045 -3.01933 0.8695244
v 0.01773045 -1.936544 0.8695244
v -0.01773303 0.1428104 0.8695244
v 0.01773045 0.1428104 0.8695244
v -0.01773303 2.333728 0.8695244
v 0.01773045 2.333728 0.8695244
v -0.01773303 2.630264 0.8166045
v 0.01773045 2.630264 0.8166045
v -0.01773303 3.157936 -0.3536543
v 0.01773045 3.157936 -0.3536543
v 0.01773045 2.630264 -0.8166011
v -0.01773303 2.630264 -0.8166011
v -0.01773303 3.156446 0.3589317
v 0.01773045 3.156446 0.3589317
v 0.01773045 3.257867 -1.288788E-06
v -0.01773303 3.257867 -1.288788E-06
v 0.01773045 -3.01933 0.8695244
v -0.01773303 -3.01933 0.8695244
v -0.01773303 -3.01933 0.3589317
v 0.01773045 -3.01933 0.3589317
v -0.01773303 -3.01933 -1.288788E-06
v 0.01773045 -3.01933 -1.288788E-06
v -0.01773303 -3.01933 -0.3536543
v 0.01773045 -3.01933 -0.3536543
v -0.01773303 -3.01933 -0.869521
v 0.01773045 -3.01933 -0.869521
v -0.01773303 2.630264 0.8166045
v 0.01773045 2.630264 0.8166045
v 0.01773045 3.156446 0.3589317
v -0.01773303 3.156446 0.3589317
v 0.01773045 -1.936544 0.8695244
v 0.01773045 -3.01933 0.8695244
v 0.01773045 -3.01933 0.3589317
v 0.01773045 -1.936544 0.3589317
v 0.01773045 0.1428104 0.8695244
v 0.01773045 -3.01933 -1.288788E-06
v 0.01773045 0.1428104 0.3589317
v 0.01773045 2.333728 0.8695244
v 0.01773045 -1.936544 -1.288788E-06
v 0.01773045 -3.01933 -0.3536543
v 0.01773045 2.333728 0.3589317
v 0.01773045 2.630264 0.8166045
v 0.01773045 3.156446 0.3589317
v 0.01773045 3.257867 -1.288788E-06
v 0.01773045 0.1428104 -1.288788E-06
v 0.01773045 -1.936544 -0.3536543
v 0.01773045 -3.01933 -0.869521
v 0.01773045 -1.936544 -0.869521
v 0.01773045 0.1428104 -0.3536543
v 0.01773045 0.1428104 -0.869521
v 0.01773045 2.333728 -1.288788E-06
v 0.01773045 2.333728 -0.3536543
v 0.01773045 2.333728 -0.869521
v 0.01773045 3.157936 -0.3536543
v 0.01773045 2.630264 -0.8166011
v -0.01773303 3.257867 -1.288788E-06
v 0.01773045 3.257867 -1.288788E-06
v 0.01773045 3.157936 -0.3536543
v -0.01773303 3.157936 -0.3536543
v -0.01773303 -1.936544 -0.869521
v -0.01773303 -3.01933 -0.869521
v -0.01773303 -3.01933 -0.3536543
v -0.01773303 -1.936544 -0.3536543
v -0.01773303 0.1428104 -0.869521
v -0.01773303 -3.01933 -1.288788E-06
v -0.01773303 0.1428104 -0.3536543
v -0.01773303 2.333728 -0.869521
v -0.01773303 -1.936544 -1.288788E-06
v -0.01773303 -3.01933 0.3589317
v -0.01773303 2.333728 -0.3536543
v -0.01773303 2.630264 -0.8166011
v -0.01773303 3.157936 -0.3536543
v -0.01773303 3.257867 -1.288788E-06
v -0.01773303 0.1428104 -1.288788E-06
v -0.01773303 -1.936544 0.3589317
v -0.01773303 -3.01933 0.8695244
v -0.01773303 -1.936544 0.8695244
v -0.01773303 0.1428104 0.3589317
v -0.01773303 0.1428104 0.8695244
v -0.01773303 2.333728 -1.288788E-06
v -0.01773303 2.333728 0.3589317
v -0.01773303 2.333728 0.8695244
v -0.01773303 3.156446 0.3589317
v -0.01773303 2.630264 0.8166045
vn 0.0009775171 0.0009775171 -0.999999
vn 0.0009775171 0.0009775171 -0.999999
vn 0.0009775171 0.0009775171 -0.999999
vn 0.0009775171 0.0009775171 -0.999999
vn 0.0009775171 0.0009775171 -0.999999
vn 0.0009775171 0.0009775171 -0.999999
vn 0.0009775171 0.08895405 -0.9960353
vn 0.0009775171 0.08895405 -0.9960353
vn 0.0009775171 0.1749756 -0.9845723
vn 0.0009775171 0.1749756 -0.9845723
vn 0.0009775171 0.0009775171 0.999999
vn 0.0009775171 0.0009775171 0.999999
vn 0.0009775171 0.0009775171 0.999999
vn 0.0009775171 0.0009775171 0.999999
vn 0.0009775171 0.0009775171 0.999999
vn 0.0009775171 0.0009775171 0.999999
vn 0.0009775171 0.08895405 0.9960353
vn 0.0009775171 0.08895405 0.9960353
vn 0.0009775171 0.1749756 0.9845723
vn 0.0009775171 0.1749756 0.9845723
vn 0.0009775171 0.6598241 -0.7514195
vn 0.0009775171 0.6598241 -0.7514195
vn 0.0009775171 0.6598241 -0.7514195
vn 0.0009775171 0.6598241 -0.7514195
vn 0.0009775171 0.9628543 0.2700197
vn 0.0009775171 0.9628543 0.2700197
vn 0.0009775171 0.9628543 0.2700197
vn 0.0009775171 0.9628543 0.2700197
vn 0.0009775166 -0.9999995 0
vn 0.0009775166 -0.9999995 0
vn 0.0009775166 -0.9999995 0
vn 0.0009775166 -0.9999995 0
vn 0.0009775166 -0.9999995 0
vn 0.0009775166 -0.9999995 0
vn 0.0009775166 -0.9999995 0
vn 0.0009775166 -0.9999995 0
vn 0.0009775166 -0.9999995 0
vn 0.0009775166 -0.9999995 0
vn 0.0009775171 0.6559139 0.7548351
vn 0.0009775171 0.6559139 0.7548351
vn 0.0009775171 0.6559139 0.7548351
vn 0.0009775171 0.6559139 0.7548351
vn 0.9999995 0.0009775166 0
vn 0.9999995 0.0009775166 0
vn 0.9999995 0.0009775166 0
vn 0.9999995 0.0009775166 0
vn 0.9999995 0.0009775166 0
vn 0.9999995 0.0009775166 0
vn 0.9999995 0.0009775166 0
vn 0.9999995 0.0009775166 0
vn 0.9999995 0.0009775166 0
vn 0.9999995 0.0009775166 0
vn 0.9999995 0.0009775166 0
vn 0.9999995 0.0009775166 0
vn 0.9999995 0.0009775166 0
vn 0.9999995 0.0009775166 0
vn 0.9999995 0.0009775166 0
vn 0.9999995 0.0009775166 0
vn 0.9999995 0.0009775166 0
vn 0.9999995 0.0009775166 0
vn 0.9999995 0.0009775166 0
vn 0.9999995 0.0009775166 0
vn 0.9999995 0.0009775166 0
vn 0.9999995 0.0009775166 0
vn 0.9999995 0.0009775166 0
vn 0.9999995 0.0009775166 0
vn 0.9999995 0.0009775166 0
vn 0.0009775171 0.9628543 -0.2700197
vn 0.0009775171 0.9628543 -0.2700197
vn 0.0009775171 0.9628543 -0.2700197
vn 0.0009775171 0.9628543 -0.2700197
vn -0.9999995 0.0009775166 0
vn -0.9999995 0.0009775166 0
vn -0.9999995 0.0009775166 0
vn -0.9999995 0.0009775166 0
vn -0.9999995 0.0009775166 0
vn -0.9999995 0.0009775166 0
vn -0.9999995 0.0009775166 0
vn -0.9999995 0.0009775166 0
vn -0.9999995 0.0009775166 0
vn -0.9999995 0.0009775166 0
vn -0.9999995 0.0009775166 0
vn -0.9999995 0.0009775166 0
vn -0.9999995 0.0009775166 0
vn -0.9999995 0.0009775166 0
vn -0.9999995 0.0009775166 0
vn -0.9999995 0.0009775166 0
vn -0.9999995 0.0009775166 0
vn -0.9999995 0.0009775166 0
vn -0.9999995 0.0009775166 0
vn -0.9999995 0.0009775166 0
vn -0.9999995 0.0009775166 0
vn -0.9999995 0.0009775166 0
vn -0.9999995 0.0009775166 0
vn -0.9999995 0.0009775166 0
vn -0.9999995 0.0009775166 0
vt 1.30078 0.777348
vt 1.30078 -0.0078125
vt 1.30078 -0.0078125
vt 1.30078 0.777348
vt 1.30078 2.312502
vt 1.30078 2.312502
vt 1.30078 3.917973
vt 1.30078 3.917973
vt 1.269534 4.140622
vt 1.269534 4.140622
vt 0.03515255 0.777348
vt 0.03515255 -0.0078125
vt 0.03515255 -0.0078125
vt 0.03515255 0.777348
vt 0.03515255 2.312502
vt 0.03515255 2.312502
vt 0.03515255 3.917973
vt 0.03515255 3.917973
vt 0.07812639 4.140622
vt 0.07812639 4.140622
vt 0.9296907 4.527343
vt 0.9296907 4.527343
vt 1.269534 4.140622
vt 1.269534 4.140622
vt 0.4023468 4.527343
vt 0.4023468 4.527343
vt 0.6640581 4.601563
vt 0.6640581 4.601563
vt 0.03515255 -0.0078125
vt 0.03515255 -0.0078125
vt 0.4023468 -0.0078125
vt 0.4023468 -0.0078125
vt 0.6640581 -0.0078125
vt 0.6640581 -0.0078125
vt 0.9296907 -0.0078125
vt 0.9296907 -0.0078125
vt 1.30078 -0.0078125
vt 1.30078 -0.0078125
vt 0.07812639 4.140622
vt 0.07812639 4.140622
vt 0.4023468 4.527343
vt 0.4023468 4.527343
vt 0.03515255 0.777348
vt 0.03515255 -0.0078125
vt 0.4023468 -0.0078125
vt 0.4023468 0.777348
vt 0.03515255 2.312502
vt 0.6640581 -0.0078125
vt 0.4023468 2.312502
vt 0.03515255 3.917973
vt 0.6640581 0.777348
vt 0.9296907 -0.0078125
vt 0.4023468 3.917973
vt 0.07812639 4.140622
vt 0.4023468 4.527343
vt 0.6640581 4.601563
vt 0.6640581 2.312502
vt 0.9296907 0.777348
vt 1.30078 -0.0078125
vt 1.30078 0.777348
vt 0.9296907 2.312502
vt 1.30078 2.312502
vt 0.6640581 3.917973
vt 0.9296907 3.917973
vt 1.30078 3.917973
vt 0.9296907 4.527343
vt 1.269534 4.140622
vt 0.6640581 4.601563
vt 0.6640581 4.601563
vt 0.9296907 4.527343
vt 0.9296907 4.527343
vt 1.30078 0.777348
vt 1.30078 -0.0078125
vt 0.9296907 -0.0078125
vt 0.9296907 0.777348
vt 1.30078 2.312502
vt 0.6640581 -0.0078125
vt 0.9296907 2.312502
vt 1.30078 3.917973
vt 0.6640581 0.777348
vt 0.4023468 -0.0078125
vt 0.9296907 3.917973
vt 1.269534 4.140622
vt 0.9296907 4.527343
vt 0.6640581 4.601563
vt 0.6640581 2.312502
vt 0.4023468 0.777348
vt 0.03515255 -0.0078125
vt 0.03515255 0.777348
vt 0.4023468 2.312502
vt 0.03515255 2.312502
vt 0.6640581 3.917973
vt 0.4023468 3.917973
vt 0.03515255 3.917973
vt 0.4023468 4.527343
vt 0.07812639 4.140622
f 1/1/1 2/2/2 3/3/3
f 1/1/1 3/3/3 4/4/4
f 5/5/5 1/1/1 4/4/4
f 5/5/5 4/4/4 6/6/6
f 7/7/7 5/5/5 6/6/6
f 7/7/7 6/6/6 8/8/8
f 9/9/9 7/7/7 8/8/8
f 9/9/9 8/8/8 10/10/10
f 11/11/11 12/12/12 13/13/13
f 11/11/11 13/13/13 14/14/14
f 15/15/15 11/11/11 14/14/14
f 15/15/15 14/14/14 16/16/16
f 17/17/17 15/15/15 16/16/16
f 17/17/17 16/16/16 18/18/18
f 19/19/19 17/17/17 18/18/18
f 19/19/19 18/18/18 20/20/20
f 21/21/21 22/22/22 23/23/23
f 21/21/21 23/23/23 24/24/24
f 25/25/25 26/26/26 27/27/27
f 25/25/25 27/27/27 28/28/28
f 29/29/29 30/30/30 31/31/31
f 29/29/29 31/31/31 32/32/32
f 32/32/32 31/31/31 33/33/33
f 32/32/32 33/33/33 34/34/34
f 34/34/34 33/33/33 35/35/35
f 34/34/34 35/35/35 36/36/36
f 36/36/36 35/35/35 37/37/37
f 36/36/36 37/37/37 38/38/38
f 39/39/39 40/40/40 41/41/41
f 39/39/39 41/41/41 42/42/42
f 43/43/43 44/44/44 45/45/45
f 43/43/43 45/45/45 46/46/46
f 47/47/47 43/43/43 46/46/46
f 46/46/46 45/45/45 48/48/48
f 47/47/47 46/46/46 49/49/49
f 50/50/50 47/47/47 49/49/49
f 46/46/46 48/48/48 51/51/51
f 49/49/49 46/46/46 51/51/51
f 51/51/51 48/48/48 52/52/52
f 50/50/50 49/49/49 53/53/53
f 54/54/54 50/50/50 53/53/53
f 54/54/54 53/53/53 55/55/55
f 53/53/53 56/56/56 55/55/55
f 49/49/49 51/51/51 57/57/57
f 53/53/53 49/49/49 57/57/57
f 51/51/51 52/52/52 58/58/58
f 57/57/57 51/51/51 58/58/58
f 58/58/58 52/52/52 59/59/59
f 58/58/58 59/59/59 60/60/60
f 61/61/61 58/58/58 60/60/60
f 57/57/57 58/58/58 61/61/61
f 61/61/61 60/60/60 62/62/62
f 53/53/53 57/57/57 63/63/63
f 53/53/53 63/63/63 56/56/56
f 63/63/63 57/57/57 61/61/61
f 64/64/64 61/61/61 62/62/62
f 63/63/63 61/61/61 64/64/64
f 56/56/56 63/63/63 64/64/64
f 64/64/64 62/62/62 65/65/65
f 56/56/56 64/64/64 66/66/66
f 66/66/66 64/64/64 65/65/65
f 66/66/66 65/65/65 67/67/67
f 68/68/68 69/69/69 70/70/70
f 68/68/68 70/70/70 71/71/71
f 72/72/72 73/73/73 74/74/74
f 72/72/72 74/74/74 75/75/75
f 76/76/76 72/72/72 75/75/75
f 75/75/75 74/74/74 77/77/77
f 76/76/76 75/75/75 78/78/78
f 79/79/79 76/76/76 78/78/78
f 75/75/75 77/77/77 80/80/80
f 78/78/78 75/75/75 80/80/80
f 80/80/80 77/77/77 81/81/81
f 79/79/79 78/78/78 82/82/82
f 83/83/83 79/79/79 82/82/82
f 83/83/83 82/82/82 84/84/84
f 82/82/82 85/85/85 84/84/84
f 78/78/78 80/80/80 86/86/86
f 82/82/82 78/78/78 86/86/86
f 80/80/80 81/81/81 87/87/87
f 86/86/86 80/80/80 87/87/87
f 87/87/87 81/81/81 88/88/88
f 87/87/87 88/88/88 89/89/89
f 90/90/90 87/87/87 89/89/89
f 86/86/86 87/87/87 90/90/90
f 90/90/90 89/89/89 91/91/91
f 82/82/82 86/86/86 92/92/92
f 82/82/82 92/92/92 85/85/85
f 92/92/92 86/86/86 90/90/90
f 93/93/93 90/90/90 91/91/91
f 92/92/92 90/90/90 93/93/93
f 85/85/85 92/92/92 93/93/93
f 93/93/93 91/91/91 94/94/94
f 85/85/85 93/93/93 95/95/95
f 95/95/95 93/93/93 94/94/94
f 95/95/95 94/94/94 96/96/96
