v -2.517648 -0.908943 0.01937539
v -3.745979 -1.401043 -0.1972844
v -3.718791 -1.449359 -0.1922275
v -2.517648 -0.908943 0.01937539
v -3.718791 -1.449359 -0.1922275
v -2.492221 -0.9583207 0.02162819
v -1.991406 -0.7867702 -1.35668
v -2.254859 -0.8371381 -1.357167
v -1.070646 -0.3367147 -1.364275
v -1.070646 -0.3827074 -1.488309
v -2.254859 -0.8371381 -1.357167
v -1.991406 -0.7867702 -1.35668
v -0.07542586 0.1427694 1.394767
v -1.070646 -0.2841001 2.28228
v -0.07542586 0.1448384 2.261306
v -1.070646 -0.2909415 1.399634
v -2.507925 -0.9035718 2.31258
v -1.947565 -0.6731048 1.403921
v -2.517648 -0.9056408 1.403921
v -2.517648 -0.908943 0.01937539
v -3.740401 -1.389826 -0.04755639
v -3.740401 -1.362733 1.336989
v -3.740401 -1.345772 2.303978
v -1.070646 -0.2841001 2.28228
v -0.07542586 0.08957966 2.263392
v -0.07542586 0.1448384 2.261306
v -1.070646 -0.3414693 2.284503
v -2.507925 -0.9035718 2.31258
v -2.482901 -0.9531452 2.314454
v -3.740401 -1.345772 2.303978
v -3.714209 -1.394771 2.305834
v -3.740401 -1.362733 1.336989
v -3.714209 -1.394771 2.305834
v -3.740401 -1.345772 2.303978
v -3.713901 -1.41156 1.339165
v -3.740401 -1.389826 -0.04755639
v -3.713403 -1.438386 -0.04487082
v -2.517648 -0.908943 0.01937539
v -2.492221 -0.9583207 0.02162819
v -3.713403 -1.438386 -0.04487082
v -3.740401 -1.389826 -0.04755639
v -3.831307 -1.328669 -1.451511
v -3.718791 -1.449359 -0.1922275
v -3.745979 -1.401043 -0.1972844
v -3.803307 -1.376719 -1.450213
v -3.901932 -1.268768 -2.489666
v -3.873262 -1.316593 -2.491485
v -2.512543 -0.9430314 -2.495137
v -3.873262 -1.316593 -2.491485
v -3.901932 -1.268768 -2.489666
v -2.48612 -0.991923 -2.494556
v -1.070646 -0.3858791 -2.475971
v -1.070646 -0.3283438 -2.476
v -0.05235841 0.05010829 -2.462602
v -0.05324174 0.1053848 -2.462502
v -2.48612 -0.991923 -2.494556
v -3.803307 -1.376719 -1.450213
v -3.873262 -1.316593 -2.491485
v -2.488883 -0.9942232 -1.35505
v -3.718791 -1.449359 -0.1922275
v -2.492221 -0.9583207 0.02162819
v -1.991406 -0.7867702 -1.35668
v -2.48612 -0.991923 -2.494556
v -1.070646 -0.3858791 -2.475971
v -1.070646 -0.3827074 -1.488309
v -0.08783403 0.04857875 -1.628812
v -0.05235841 0.05010829 -2.462602
v -1.070646 -0.3951392 -1.362822
v -1.070646 -0.4413809 0.01702181
v 0.007399998 -0.04936456 0.01352998
v -0.02872182 0.04803334 -1.369776
v 0.0452292 0.0869593 1.174106
v -1.070646 -0.3716687 1.312001
v -1.830693 -0.6840486 1.405925
v -2.49247 -0.9551372 1.405942
v -3.713901 -1.41156 1.339165
v -3.713403 -1.438386 -0.04487082
v -3.714209 -1.394771 2.305834
v -2.482901 -0.9531452 2.314454
v -1.070646 -0.3499885 1.401947
v -1.070646 -0.3414693 2.284503
v -0.07542586 0.08957966 2.263392
v -0.07526579 0.08751065 1.396735
v -2.512543 -0.9430314 -2.495137
v -3.901932 -1.268768 -2.489666
v -3.831307 -1.328669 -1.451511
v -2.514855 -0.9451122 -1.356384
v -3.745979 -1.401043 -0.1972844
v -2.254859 -0.8371381 -1.357167
v -2.517648 -0.908943 0.01937539
v -1.070646 -0.3367147 -1.364275
v -1.070646 -0.3845985 0.01501208
v -0.02939766 0.1033039 -1.370523
v -1.947565 -0.6731048 1.403921
v 0.006973152 0.005900109 0.01176331
v -1.070646 -0.3142935 1.302314
v 0.04505135 0.142224 1.173045
v -0.05324174 0.1053848 -2.462502
v -1.070646 -0.3227415 -1.505608
v -0.08859287 0.1038494 -1.628712
v -1.070646 -0.3283438 -2.476
v -2.254859 -0.8371381 -1.357167
v -2.512543 -0.9430314 -2.495137
v -0.08783403 0.04857875 -1.628812
v -0.08859287 0.1038494 -1.628712
v -1.070646 -0.3227415 -1.505608
v -1.070646 -0.3827074 -1.488309
v -2.254859 -0.8371381 -1.357167
v -1.991406 -0.7867702 -1.35668
v -1.070646 -0.3367147 -1.364275
v -1.070646 -0.3951392 -1.362822
v -0.02939766 0.1033039 -1.370523
v -0.02872182 0.04803334 -1.369776
v -0.05324174 0.1053848 -2.462502
v -0.08859287 0.1038494 -1.628712
v -0.08783403 0.04857875 -1.628812
v -0.05235841 0.05010829 -2.462602
v -0.02939766 0.1033039 -1.370523
v 0.006973152 0.005900109 0.01176331
v 0.007399998 -0.04936456 0.01352998
v -0.02872182 0.04803334 -1.369776
v 0.006973152 0.005900109 0.01176331
v 0.04505135 0.142224 1.173045
v 0.0452292 0.0869593 1.174106
v 0.007399998 -0.04936456 0.01352998
v -1.070646 -0.3142935 1.302314
v 0.0452292 0.0869593 1.174106
v 0.04505135 0.142224 1.173045
v -1.070646 -0.3716687 1.312001
v -1.947565 -0.6731048 1.403921
v -1.830693 -0.6840486 1.405925
v -1.830693 -0.6840486 1.405925
v -1.947565 -0.6731048 1.403921
v -1.070646 -0.2909415 1.399634
v -1.070646 -0.3499885 1.401947
v -0.07542586 0.1427694 1.394767
v -0.07526579 0.08751065 1.396735
v -0.07542586 0.1448384 2.261306
v -0.07542586 0.08957966 2.263392
v -0.07526579 0.08751065 1.396735
v -0.07542586 0.1427694 1.394767
vn -0.1665635 -0.01665928 0.98589
vn -0.1665635 -0.01665928 0.98589
vn -0.1665635 -0.01665928 0.98589
vn -0.1665635 -0.01665928 0.98589
vn -0.1665635 -0.01665928 0.98589
vn -0.1665635 -0.01665928 0.98589
vn 0.006402908 -0.03011223 -0.999526
vn 0.006402908 -0.03011223 -0.999526
vn 0.004481059 -0.02242483 -0.9997385
vn -0.005128187 0.3042895 0.9525658
vn -0.04740887 0.3907727 0.9192655
vn -0.04740887 0.3907727 0.9192655
vn -0.3971854 0.9173594 -0.02637171
vn -0.3971854 0.9173594 -0.02637171
vn -0.3971854 0.9173594 -0.02637171
vn -0.3971854 0.9173594 -0.02637171
vn -0.36631 0.9304928 0
vn -0.3779669 0.9250468 -0.03780792
vn -0.364514 0.9308124 -0.02679436
vn -0.3549047 0.9346561 -0.02146217
vn -0.3566648 0.9342324 0
vn -0.350987 0.9363803 0
vn -0.3433736 0.9384997 -0.03623248
vn 0.004481059 0.03907434 0.9992262
vn 0.2581652 -0.5509334 0.793614
vn 0.004481059 0.03907434 0.9992262
vn 0.2889147 -0.6278073 0.7227629
vn -0.007050036 0.0333088 0.9994202
vn 0.260087 -0.6470258 0.7167373
vn -0.6643224 -0.3318425 0.6697434
vn -0.2934056 -0.746962 0.5966247
vn -0.8776477 -0.4779031 0.03664957
vn -0.2934056 -0.746962 0.5966247
vn -0.6643224 -0.3318425 0.6697434
vn -0.3490888 -0.9370896 0
vn -0.8757259 -0.4817468 0.03200408
vn -0.3683577 -0.9295377 0.01650434
vn 0.06213653 -0.01665928 -0.9979286
vn 0.06213653 -0.01665928 -0.9979286
vn 0.06213653 -0.01665928 -0.9979286
vn 0.06213653 -0.01665928 -0.9979286
vn -0.8641948 -0.5028871 0.01649169
vn -0.258781 -0.965936 0
vn -0.8680385 -0.4951997 0.03586708
vn -0.3683577 -0.9295377 -0.01650434
vn -0.8603511 -0.5086527 0.0326875
vn -0.4026329 -0.9153616 0
vn 0.002559209 0.004481059 -0.9999866
vn -0.005128187 0.01024661 -0.9999344
vn -0.005128187 0.01024661 -0.9999344
vn 0.006402908 0.002559209 -0.9999762
vn 0.0140903 -0.001284489 -0.9998999
vn 0.0140903 0.0006373603 -0.9999005
vn 0.6444568 0.01024661 -0.7645721
vn 0.8174233 0.01216845 -0.575909
vn 0.3254299 -0.9449124 -0.0351554
vn -0.3683577 -0.9295377 -0.01650434
vn -0.4026329 -0.9153616 0
vn 0.3388063 -0.9408562 0
vn -0.258781 -0.965936 0
vn 0.3542062 -0.9351674 0
vn 0.3811635 -0.9237721 0.0368717
vn 0.3254299 -0.9449124 -0.0351554
vn 0.3965383 -0.9180065 0.004625805
vn 0.3965383 -0.9180065 0.004625805
vn 0.3981604 -0.9173158 0
vn 0.3981604 -0.9173158 0
vn 0.363864 -0.9314522 0
vn 0.361945 -0.9314595 0.03713506
vn 0.3655296 -0.9307997 0
vn 0.3657887 -0.9295377 -0.04645862
vn 0.3638669 -0.9276158 0.08443878
vn 0.3600231 -0.9314595 0.052598
vn 0.3791026 -0.9253546 0
vn 0.363864 -0.9314522 0
vn -0.3490888 -0.9370896 0
vn -0.3683577 -0.9295377 0.01650434
vn -0.2934056 -0.746962 0.5966247
vn 0.260087 -0.6470258 0.7167373
vn 0.400382 -0.9160847 0.02197944
vn 0.2889147 -0.6278073 0.7227629
vn 0.2581652 -0.5509334 0.793614
vn 0.400382 -0.9160847 0.02197944
vn -0.324099 0.9460232 0
vn -0.2548754 0.966974 0
vn -0.289407 0.9572061 0
vn -0.3395299 0.9404216 0.01807465
vn -0.3279988 0.9442653 0.02792503
vn -0.3798836 0.9250343 0
vn -0.3549047 0.9346561 -0.02146217
vn -0.364514 0.9308124 0.02679436
vn -0.3623266 0.9320512 0
vn -0.364514 0.9288905 0.06551298
vn -0.3779669 0.9250468 -0.03780792
vn -0.364514 0.9308124 -0.02679436
vn -0.3587484 0.9308124 -0.06991379
vn -0.3625921 0.9288905 -0.0754276
vn -0.3950047 0.9186791 0
vn -0.3950047 0.9186791 0
vn -0.3950047 0.9186791 0
vn -0.3950047 0.9186791 0
vn -0.3798836 0.9250343 0
vn -0.324099 0.9460232 0
vn 0.06790208 0.1486197 0.9865604
vn 0.06790208 0.1486197 0.9865604
vn 0.0256214 0.2389467 0.9706946
vn -0.005128187 0.3042895 0.9525658
vn -0.04740887 0.3907727 0.9192655
vn 0.006402908 -0.03011223 -0.999526
vn 0.004481059 -0.02242483 -0.9997385
vn 0.004481059 -0.02626853 -0.9996449
vn 0.002559209 -0.01858113 -0.9998241
vn 0.002559209 -0.01858113 -0.9998241
vn 0.8174233 0.01216845 -0.575909
vn 0.9980771 0.0140903 0.06036206
vn 0.9980771 0.0140903 0.06036206
vn 0.6444568 0.01024661 -0.7645721
vn 0.9999475 0.01024608 0
vn 0.9999795 0.006402784 0
vn 0.9999795 0.006402784 0
vn 0.9999475 0.01024608 0
vn 0.9999795 0.006402784 0
vn 0.99999 0.004481019 0
vn 0.99999 0.004481019 0
vn 0.9999795 0.006402784 0
vn 0.06021468 0.1409324 0.9881864
vn 0.07943317 0.09480797 0.9923214
vn 0.07943317 0.09480797 0.9923214
vn 0.04676174 0.1716819 0.984042
vn 0.02754325 0.2158845 0.9760303
vn 0.02754325 0.2158845 0.9760303
vn 0.01216845 -0.03972147 -0.9991367
vn 0.01216845 -0.03972147 -0.9991367
vn 0.01216845 -0.03779962 -0.9992113
vn 0.01216845 -0.03972147 -0.9991367
vn 0.01216845 -0.03779962 -0.9992113
vn 0.01216845 -0.03779962 -0.9992113
vn 0.9999989 0.0006373603 0.001318916
vn 0.9999989 0.0006373603 0.001318916
vn 0.9999989 0.0006373603 0.001318916
vn 0.9999989 0.0006373603 0.001318916
vt 0.116451 0.2871116
vt 0.1099807 0.2231497
vt 0.1100865 0.2231497
vt 0.116451 0.2871116
vt 0.1100865 0.2231497
vt 0.116451 0.2871116
vt 0.1098598 0.3549737
vt 0.1054757 0.3549737
vt 0.1054757 0.2788121
vt 0.1098598 0.2656297
vt 0.1054757 0.3549737
vt 0.1098598 0.3549737
vt 0.1748042 0.3559563
vt 0.2114186 0.3014126
vt 0.2114186 0.3559563
vt 0.1748042 0.300808
vt 0.2114186 0.2226509
vt 0.1748042 0.2522205
vt 0.1748042 0.2226509
vt 0.1162091 0.2226509
vt 0.1162091 0.1000939
vt 0.1748042 0.1000939
vt 0.2114186 0.1000939
vt 0.07177897 0.1857946
vt 0.06884618 0.2099673
vt 0.07177897 0.2099673
vt 0.06884618 0.1855376
vt 0.07177897 0.1508733
vt 0.06884618 0.1508733
vt 0.07177897 0.07177897
vt 0.06884618 0.07177897
vt 0.07519551 0.3389643
vt 0.06884618 0.39892
vt 0.07519551 0.39892
vt 0.06884618 0.3389643
vt 0.07519551 0.2431652
vt 0.06884618 0.2431652
vt 0.1738216 0.1958023
vt 0.1806698 0.1958023
vt 0.1806698 0.3393574
vt 0.1738216 0.3393574
vt 0.07519551 0.3080946
vt 0.06884618 0.39892
vt 0.07519551 0.39892
vt 0.06884618 0.3078224
vt 0.07519551 0.2329156
vt 0.06884618 0.2324167
vt 0.1386736 0.2851614
vt 0.1435565 0.1782207
vt 0.1386736 0.1782207
vt 0.1435565 0.2851614
vt 0.1435565 0.3277472
vt 0.1386736 0.3280949
vt 0.1435565 0.3584054
vt 0.1386736 0.3584054
vt 0.003417969 0.2192343
vt 0.05371364 0.1000939
vt 0.006834507 0.1000939
vt 0.05468116 0.2216834
vt 0.1098598 0.1000939
vt 0.1162091 0.2226509
vt 0.05468116 0.248411
vt 0.003417969 0.2226509
vt 0.003417969 0.3001882
vt 0.04815043 0.30043
vt 0.0411813 0.3559563
vt 0.003417969 0.3559563
vt 0.05468116 0.2988578
vt 0.1162091 0.2984647
vt 0.1162091 0.3559563
vt 0.05468116 0.3559563
vt 0.1650535 0.3559563
vt 0.1708586 0.2972856
vt 0.1748042 0.2573151
vt 0.1748042 0.2226509
vt 0.1748042 0.1000939
vt 0.1162091 0.1000939
vt 0.2114186 0.1000939
vt 0.2114186 0.2226509
vt 0.1748042 0.3000219
vt 0.2114186 0.3008533
vt 0.2114186 0.3559563
vt 0.1748042 0.3559563
vt 0.003417969 0.2226509
vt 0.006834507 0.1000939
vt 0.05371364 0.1000939
vt 0.05468116 0.2226509
vt 0.1098598 0.1000939
vt 0.05468116 0.2363775
vt 0.1162091 0.2226509
vt 0.05468116 0.3000067
vt 0.1162091 0.2990543
vt 0.05468116 0.3559563
vt 0.1748042 0.2522205
vt 0.1162091 0.3559563
vt 0.170526 0.2978752
vt 0.1650837 0.3559563
vt 0.003417969 0.3559563
vt 0.04731897 0.3017452
vt 0.04121153 0.3559563
vt 0.003417969 0.300808
vt 0.05468116 0.2363775
vt 0.003417969 0.2226509
vt 0.1098598 0.1943359
vt 0.1054757 0.1943359
vt 0.1054757 0.2656297
vt 0.1098598 0.2656297
vt 0.1054757 0.3549737
vt 0.1098598 0.3549737
vt 0.1054757 0.2788121
vt 0.1098598 0.2788121
vt 0.1054757 0.2031192
vt 0.1098598 0.2031192
vt 0.1054757 0.1459904
vt 0.1054757 0.1943359
vt 0.1098598 0.1943359
vt 0.1098598 0.1459904
vt 0.1054757 0.2031192
vt 0.1054757 0.1362246
vt 0.1098598 0.1362246
vt 0.1098598 0.2031192
vt 0.1054757 0.1342744
vt 0.1054757 0.1992189
vt 0.1098598 0.1992189
vt 0.1098598 0.1342744
vt 0.1054757 0.2748967
vt 0.1098598 0.1992189
vt 0.1054757 0.1992189
vt 0.1098598 0.2748967
vt 0.1054757 0.3549737
vt 0.1098598 0.3549737
vt 0.1098598 0.3549737
vt 0.1054757 0.3549737
vt 0.1054757 0.2783132
vt 0.1098598 0.2783132
vt 0.1054757 0.2070346
vt 0.1098598 0.2070346
vt 0.1054757 0.1596717
vt 0.1098598 0.1596717
vt 0.1098598 0.2070346
vt 0.1054757 0.2070346
f 1/1/1 2/2/2 3/3/3
f 4/4/4 5/5/5 6/6/6
f 7/7/7 8/8/8 9/9/9
f 10/10/10 11/11/11 12/12/12
f 13/13/13 14/14/14 15/15/15
f 13/13/13 16/16/16 14/14/14
f 16/16/16 17/17/17 14/14/14
f 16/16/16 18/18/18 17/17/17
f 18/18/18 19/19/19 17/17/17
f 20/20/20 19/19/19 18/18/18
f 19/19/19 20/20/20 21/21/21
f 19/19/19 21/21/21 22/22/22
f 17/17/17 19/19/19 22/22/22
f 17/17/17 22/22/22 23/23/23
f 24/24/24 25/25/25 26/26/26
f 24/24/24 27/27/27 25/25/25
f 28/28/28 27/27/27 24/24/24
f 28/28/28 29/29/29 27/27/27
f 30/30/30 29/29/29 28/28/28
f 30/30/30 31/31/31 29/29/29
f 32/32/32 33/33/33 34/34/34
f 32/32/32 35/35/35 33/33/33
f 36/36/36 35/35/35 32/32/32
f 36/36/36 37/37/37 35/35/35
f 38/38/38 39/39/39 40/40/40
f 38/38/38 40/40/40 41/41/41
f 42/42/42 43/43/43 44/44/44
f 42/42/42 45/45/45 43/43/43
f 46/46/46 45/45/45 42/42/42
f 46/46/46 47/47/47 45/45/45
f 48/48/48 49/49/49 50/50/50
f 48/48/48 51/51/51 49/49/49
f 48/48/48 52/52/52 51/51/51
f 48/48/48 53/53/53 52/52/52
f 53/53/53 54/54/54 52/52/52
f 53/53/53 55/55/55 54/54/54
f 56/56/56 57/57/57 58/58/58
f 56/56/56 59/59/59 57/57/57
f 59/59/59 60/60/60 57/57/57
f 59/59/59 61/61/61 60/60/60
f 59/59/59 62/62/62 61/61/61
f 63/63/63 62/62/62 59/59/59
f 64/64/64 62/62/62 63/63/63
f 64/64/64 65/65/65 62/62/62
f 64/64/64 66/66/66 65/65/65
f 64/64/64 67/67/67 66/66/66
f 61/61/61 62/62/62 68/68/68
f 61/61/61 68/68/68 69/69/69
f 68/68/68 70/70/70 69/69/69
f 68/68/68 71/71/71 70/70/70
f 69/69/69 70/70/70 72/72/72
f 69/69/69 72/72/72 73/73/73
f 69/69/69 73/73/73 74/74/74
f 69/69/69 74/74/74 61/61/61
f 61/61/61 74/74/74 75/75/75
f 61/61/61 75/75/75 76/76/76
f 61/61/61 76/76/76 77/77/77
f 75/75/75 78/78/78 76/76/76
f 75/75/75 79/79/79 78/78/78
f 75/75/75 74/74/74 79/79/79
f 79/79/79 74/74/74 80/80/80
f 79/79/79 80/80/80 81/81/81
f 80/80/80 82/82/82 81/81/81
f 80/80/80 83/83/83 82/82/82
f 84/84/84 85/85/85 86/86/86
f 84/84/84 86/86/86 87/87/87
f 87/87/87 86/86/86 88/88/88
f 84/84/84 87/87/87 89/89/89
f 87/87/87 88/88/88 90/90/90
f 89/89/89 87/87/87 90/90/90
f 91/91/91 89/89/89 90/90/90
f 91/91/91 90/90/90 92/92/92
f 93/93/93 91/91/91 92/92/92
f 92/92/92 90/90/90 94/94/94
f 93/93/93 92/92/92 95/95/95
f 92/92/92 94/94/94 96/96/96
f 95/95/95 92/92/92 96/96/96
f 95/95/95 96/96/96 97/97/97
f 98/98/98 99/99/99 100/100/100
f 98/98/98 101/101/101 99/99/99
f 101/101/101 102/102/102 99/99/99
f 101/101/101 103/103/103 102/102/102
f 104/104/104 105/105/105 106/106/106
f 104/104/104 106/106/106 107/107/107
f 107/107/107 106/106/106 108/108/108
f 109/109/109 110/110/110 111/111/111
f 111/111/111 110/110/110 112/112/112
f 111/111/111 112/112/112 113/113/113
f 114/114/114 115/115/115 116/116/116
f 114/114/114 116/116/116 117/117/117
f 118/118/118 119/119/119 120/120/120
f 118/118/118 120/120/120 121/121/121
f 122/122/122 123/123/123 124/124/124
f 122/122/122 124/124/124 125/125/125
f 126/126/126 127/127/127 128/128/128
f 126/126/126 129/129/129 127/127/127
f 130/130/130 129/129/129 126/126/126
f 130/130/130 131/131/131 129/129/129
f 132/132/132 133/133/133 134/134/134
f 132/132/132 134/134/134 135/135/135
f 135/135/135 134/134/134 136/136/136
f 135/135/135 136/136/136 137/137/137
f 138/138/138 139/139/139 140/140/140
f 138/138/138 140/140/140 141/141/141
