v 3.139223 4.700001 0.1183086
v 3.09938 4.700001 0.07846573
v 3.099991 4.700001 -3.000004
v 3.139223 4.700001 0.1183086
v 3.099991 4.700001 -3.000004
v 3.139834 4.700001 -3.000004
v 3.080188 4.700001 0.09768127
v 3.09938 4.700001 0.07846573
v 3.12003 4.700001 0.1375241
v -6.61851E-06 4.700001 0.1000012
v -6.61851E-06 4.700001 0.139844
v 3.099953 1.01276E-06 -3.000004
v 3.10389 1.01276E-06 0.09788731
v 2.80389 1.01276E-06 -0.2021132
v 2.79996 1.01276E-06 -3.000004
v 3.099945 5.000001 -2.999996
v 3.099953 1.01276E-06 -3.000004
v 2.79996 1.01276E-06 -3.000004
v 2.799952 5.000001 -2.999996
v 3.10389 5.000001 0.09788731
v 3.099945 5.000001 -2.999996
v 2.799952 5.000001 -2.999996
v 2.803897 5.000001 -0.2021055
v 3.099945 5.000001 -2.999996
v 3.10389 5.000001 0.09788731
v 3.10389 1.01276E-06 0.09788731
v 3.099953 1.01276E-06 -3.000004
v 2.803897 5.000001 -0.2021055
v 2.799952 5.000001 -2.999996
v 2.79996 1.01276E-06 -3.000004
v 2.80389 1.01276E-06 -0.2021132
v -6.61851E-06 1.01276E-06 0.09995539
v -6.61851E-06 1.01276E-06 -0.2000375
v 2.80389 1.01276E-06 -0.2021132
v 3.10389 1.01276E-06 0.09788731
v 1.01276E-06 5.000001 0.09995539
v 1.01276E-06 5.000001 -0.2000451
v -6.61851E-06 1.01276E-06 -0.2000375
v -6.61851E-06 1.01276E-06 0.09995539
v 1.01276E-06 5.000001 0.09995539
v -6.61851E-06 1.01276E-06 0.09995539
v 3.10389 1.01276E-06 0.09788731
v 3.10389 5.000001 0.09788731
v 3.10389 5.000001 0.09788731
v 2.803897 5.000001 -0.2021055
v 1.01276E-06 5.000001 -0.2000451
v 1.01276E-06 5.000001 0.09995539
v 2.803897 5.000001 -0.2021055
v 2.80389 1.01276E-06 -0.2021132
v -6.61851E-06 1.01276E-06 -0.2000375
v 1.01276E-06 5.000001 -0.2000451
v 2.78092 5.001955 -0.200999
v 2.690558 5.001955 -0.2913609
v -6.61851E-06 5.001955 -0.2890562
v -6.61851E-06 5.001955 -0.1986944
v 2.710338 5.001955 -0.3111564
v 2.690558 5.001955 -0.2913609
v 2.8007 5.001955 -0.2207945
v 2.710941 5.001955 -3.000004
v 2.801303 5.001955 -3.000004
v 2.7007 4.992317 -0.3207947
v 2.701303 4.992317 -3.000004
v 2.701341 4.679755 -3.000004
v 2.70073 4.679755 -0.3207642
v 2.701341 4.661959 -3.000004
v 2.70073 4.661959 -0.3207565
v 2.70131 0.001954618 -3.000004
v 2.70131 0.3536188 -3.000004
v 2.743671 0.3959876 -3.000004
v 2.801311 0.001954618 -3.000004
v 2.801311 0.3959876 -3.000004
v 2.70131 0.3536188 -3.000004
v 2.70131 0.001954618 -3.000004
v 2.700692 0.001954618 -0.310233
v 2.700692 0.3536188 -0.310233
v 2.733842 0.3959876 -0.2586456
v 2.691481 0.3536188 -0.3010144
v -6.61851E-06 0.3536188 -0.2986869
v -6.61851E-06 0.3959876 -0.2563181
v -6.61851E-06 5.000001 0.1896381
v 3.080188 5.000001 0.09768127
v -6.61851E-06 5.000001 0.1000012
v 3.169825 5.000001 0.1873258
v 3.180188 4.989638 0.1976814
v -6.61851E-06 4.989638 0.2000013
v -6.61851E-06 4.989638 0.2000013
v 3.180188 4.766149 0.1976814
v 3.180188 4.989638 0.1976814
v -6.61851E-06 4.766149 0.2000013
v 3.175952 4.755923 0.1934461
v -6.61851E-06 4.755923 0.195766
v 3.12003 4.700001 0.1375241
v -6.61851E-06 4.700001 0.139844
v 3.139834 4.700001 -3.000004
v 3.099991 4.700001 -3.000004
v 3.099991 5.000001 -3.000004
v 3.189635 5.000001 -3.000004
v 3.195755 4.755923 -3.000004
v 3.199991 4.989638 -3.000004
v 3.199991 4.766149 -3.000004
v 2.791474 0.3959876 -0.2010143
v 2.733842 0.3959876 -0.2586456
v -6.61851E-06 0.3959876 -0.2563181
v -6.61851E-06 0.3959876 -0.1986867
v 2.68095 4.679755 -0.3009686
v 2.68095 4.661959 -0.3009686
v -6.61851E-06 4.661959 -0.2986487
v -6.61851E-06 4.679755 -0.2986487
v 2.68092 4.992317 -0.3009992
v -6.61851E-06 4.992317 -0.2986945
v 2.691473 0.001954618 -0.3010144
v -6.61851E-06 0.001954618 -0.1986867
v -6.61851E-06 0.001954618 -0.2986869
v 2.791474 0.001954618 -0.2010143
v 2.800692 0.001954618 -0.2102405
v 2.700692 0.001954618 -0.310233
v 2.801311 0.001954618 -3.000004
v 2.70131 0.001954618 -3.000004
v -6.61851E-06 4.992317 -0.2986945
v -6.61851E-06 5.001955 -0.2890562
v 2.690558 5.001955 -0.2913609
v 2.68092 4.992317 -0.3009992
v 2.68095 4.661959 -0.3009686
v -6.61851E-06 4.655725 -0.2924216
v -6.61851E-06 4.661959 -0.2986487
v 2.687185 4.655725 -0.2947339
v -6.61851E-06 4.601954 -0.1986486
v 2.780958 4.601954 -0.2009685
v -6.61851E-06 0.3536188 -0.2986869
v 2.691481 0.3536188 -0.3010144
v 2.691473 0.001954618 -0.3010144
v -6.61851E-06 0.001954618 -0.2986869
v 2.70073 4.661959 -0.3207565
v 2.701341 4.661959 -3.000004
v 2.707568 4.655725 -3.000004
v 2.706965 4.655725 -0.3145294
v 2.68095 4.661959 -0.3009686
v 2.801341 4.601954 -3.000004
v 2.687185 4.655725 -0.2947339
v 2.80073 4.601954 -0.2207564
v 2.780958 4.601954 -0.2009685
v -6.61851E-06 0.3536188 -0.2986869
v -6.61851E-06 0.001954618 -0.2986869
v -6.61851E-06 0.001954618 -0.1986867
v -6.61851E-06 0.3959876 -0.1986867
v -6.61851E-06 0.3959876 -0.2563181
v -6.61851E-06 5.000001 0.1000012
v -6.61851E-06 4.700001 0.1000012
v -6.61851E-06 4.700001 0.139844
v -6.61851E-06 4.755923 0.195766
v -6.61851E-06 4.766149 0.2000013
v -6.61851E-06 4.989638 0.2000013
v -6.61851E-06 5.000001 0.1896381
v 3.189635 5.000001 -3.000004
v 3.099991 5.000001 -3.000004
v 3.09938 5.000001 0.07846573
v 3.189025 5.000001 0.1681103
v 3.19938 4.989638 0.1784659
v 3.199991 4.989638 -3.000004
v 3.180188 4.989638 0.1976814
v 3.169825 5.000001 0.1873258
v 3.080188 5.000001 0.09768127
v 2.701303 4.992317 -3.000004
v 2.710338 5.001955 -0.3111564
v 2.710941 5.001955 -3.000004
v 2.7007 4.992317 -0.3207947
v 2.690558 5.001955 -0.2913609
v 2.68092 4.992317 -0.3009992
v 3.139223 4.700001 0.1183086
v 3.139834 4.700001 -3.000004
v 3.195755 4.755923 -3.000004
v 3.195153 4.755923 0.1742305
v 3.199991 4.766149 -3.000004
v 3.19938 4.766149 0.1784659
v 3.199991 4.989638 -3.000004
v 3.175952 4.755923 0.1934461
v 3.19938 4.989638 0.1784659
v 3.180188 4.766149 0.1976814
v 3.180188 4.989638 0.1976814
v 2.800692 0.3959876 -0.2102328
v 2.801311 0.3959876 -3.000004
v 2.743671 0.3959876 -3.000004
v 2.743061 0.3959876 -0.2678718
v 2.791474 0.3959876 -0.2010143
v 2.733842 0.3959876 -0.2586456
v 3.195153 4.755923 0.1742305
v 3.175952 4.755923 0.1934461
v 3.12003 4.700001 0.1375241
v 3.139223 4.700001 0.1183086
v 2.70073 4.661959 -0.3207565
v 2.68095 4.661959 -0.3009686
v 2.68095 4.679755 -0.3009686
v 2.70073 4.679755 -0.3207642
v 2.68092 4.992317 -0.3009992
v 2.7007 4.992317 -0.3207947
v 2.701341 4.679755 -3.000004
v 2.701303 4.992317 -3.000004
v 2.710941 5.001955 -3.000004
v 2.701341 4.661959 -3.000004
v 2.707568 4.655725 -3.000004
v 2.801341 4.601954 -3.000004
v 2.801303 5.001955 -3.000004
v 2.691481 0.3536188 -0.3010144
v 2.700692 0.3536188 -0.310233
v 2.700692 0.001954618 -0.310233
v 2.691473 0.001954618 -0.3010144
v 2.733842 0.3959876 -0.2586456
v 2.700692 0.3536188 -0.310233
v 2.691481 0.3536188 -0.3010144
v 2.743061 0.3959876 -0.2678718
v 2.70131 0.3536188 -3.000004
v 2.743671 0.3959876 -3.000004
v -6.61851E-06 4.655725 -0.2924216
v -6.61851E-06 4.601954 -0.1986486
v -6.61851E-06 5.001955 -0.1986944
v -6.61851E-06 4.661959 -0.2986487
v -6.61851E-06 4.679755 -0.2986487
v -6.61851E-06 4.992317 -0.2986945
v -6.61851E-06 5.001955 -0.2890562
vn 0.3861192 -0.9159335 0.1094426
vn 0.0009775166 -0.9999995 0
vn 0.0009775166 -0.9999995 0
vn 0.3861192 -0.9159335 0.1094426
vn 0.0009775166 -0.9999995 0
vn 0.3822092 -0.9237537 0.02439941
vn 0.0009775166 -0.9999995 0
vn 0.0009775166 -0.9999995 0
vn 0.1143695 -0.9159335 0.3846887
vn 0.0009775166 -0.9999995 0
vn 0.0009775171 -0.9237537 0.3829859
vn 0.0009775166 -0.9999995 0
vn 0.0009775166 -0.9999995 0
vn 0.0009775166 -0.9999995 0
vn 0.0009775166 -0.9999995 0
vn 0.0009775171 0.0009775171 -0.999999
vn 0.0009775171 0.0009775171 -0.999999
vn 0.0009775171 0.0009775171 -0.999999
vn 0.0009775171 0.0009775171 -0.999999
vn 0.0009775166 0.9999995 0
vn 0.0009775166 0.9999995 0
vn 0.0009775166 0.9999995 0
vn 0.0009775166 0.9999995 0
vn 0.9999995 0.0009775166 0
vn 0.9999995 0.0009775166 0
vn 0.9999995 0.0009775166 0
vn 0.9999995 0.0009775166 0
vn -0.9999995 0.0009775166 0
vn -0.9999995 0.0009775166 0
vn -0.9999995 0.0009775166 0
vn -0.9999995 0.0009775166 0
vn 0.0009775166 -0.9999995 0
vn 0.0009775166 -0.9999995 0
vn 0.0009775166 -0.9999995 0
vn 0.0009775166 -0.9999995 0
vn -0.9999995 0.0009775166 0
vn -0.9999995 0.0009775166 0
vn -0.9999995 0.0009775166 0
vn -0.9999995 0.0009775166 0
vn 0.0009775171 0.0009775171 0.999999
vn 0.0009775171 0.0009775171 0.999999
vn 0.0009775171 0.0009775171 0.999999
vn 0.0009775171 0.0009775171 0.999999
vn 0.0009775166 0.9999995 0
vn 0.0009775166 0.9999995 0
vn 0.0009775166 0.9999995 0
vn 0.0009775166 0.9999995 0
vn -0.0009775171 0.0009775171 -0.999999
vn -0.0009775171 0.0009775171 -0.999999
vn -0.0009775171 0.0009775171 -0.999999
vn -0.0009775171 0.0009775171 -0.999999
vn 0.0009775166 0.9999995 0
vn -0.1065494 0.9706745 -0.2154953
vn -0.0009775171 0.9237537 -0.3829859
vn 0.0009775166 0.9999995 0
vn -0.2179863 0.9706745 -0.1013557
vn -0.1065494 0.9706745 -0.2154953
vn 0.0009775166 0.9999995 0
vn -0.3822092 0.9237537 -0.02439941
vn 0.0009775166 0.9999995 0
vn -0.8260019 0.4799609 -0.2955644
vn -0.9237537 0.3822092 -0.0243988
vn -0.9999995 -0.0009775166 0
vn -0.9237537 -0.0009775171 -0.3829859
vn -0.9237537 -0.3822092 -0.0243988
vn -0.8260019 -0.4799609 -0.2955644
vn 0.0009775171 0.0009775171 -0.999999
vn 0.0009775171 0.0009775171 -0.999999
vn 0.0009775171 0.0009775171 -0.999999
vn 0.0009775171 0.0009775171 -0.999999
vn 0.0009775171 0.0009775171 -0.999999
vn -0.9237537 0.3822092 -0.0243988
vn -0.9999995 0.0009775166 0
vn -0.9237537 0.0009775171 -0.3829859
vn -0.8260019 0.4799609 -0.2955644
vn -0.1065494 0.9706745 -0.2154953
vn -0.2981427 0.4799609 -0.8250749
vn -0.0009775171 0.3822092 -0.9240753
vn -0.0009775171 0.9237537 -0.3829859
vn 0.0009775171 0.9237537 0.3829859
vn 0.0009775166 0.9999995 0
vn 0.0009775166 0.9999995 0
vn 0.1143695 0.9159335 0.3846887
vn 0.3665689 0.4095797 0.8353872
vn 0.0009775171 0.3822092 0.9240753
vn 0.0009775171 0.3822092 0.9240753
vn 0.3880743 -0.2355816 0.8910105
vn 0.3665689 0.4095797 0.8353872
vn 0.0009775171 -0.1945259 0.9808969
vn 0.2864125 -0.6246334 0.7264991
vn 0.0009775171 -0.5562072 0.8310431
vn 0.1143695 -0.9159335 0.3846887
vn 0.0009775171 -0.9237537 0.3829859
vn 0.0009775171 0.0009775171 -0.999999
vn 0.0009775171 0.0009775171 -0.999999
vn 0.0009775171 0.0009775171 -0.999999
vn 0.0009775171 0.0009775171 -0.999999
vn 0.0009775171 0.0009775171 -0.999999
vn 0.0009775171 0.0009775171 -0.999999
vn 0.0009775171 0.0009775171 -0.999999
vn 0.0009775166 0.9999995 0
vn -0.1065494 0.9706745 -0.2154953
vn -0.0009775171 0.9237537 -0.3829859
vn 0.0009775166 0.9999995 0
vn -0.3841642 -0.0009775171 -0.9232643
vn -0.2981427 -0.4799609 -0.8250749
vn -0.0009775171 -0.3822092 -0.9240753
vn -0.0009775171 -0.0009775171 -0.999999
vn -0.2981427 0.4799609 -0.8250749
vn -0.0009775171 0.3822092 -0.9240753
vn 0.0009775166 -0.9999995 0
vn 0.0009775166 -0.9999995 0
vn 0.0009775166 -0.9999995 0
vn 0.0009775166 -0.9999995 0
vn 0.0009775166 -0.9999995 0
vn 0.0009775166 -0.9999995 0
vn 0.0009775166 -0.9999995 0
vn 0.0009775166 -0.9999995 0
vn -0.0009775171 0.3822092 -0.9240753
vn -0.0009775171 0.9237537 -0.3829859
vn -0.1065494 0.9706745 -0.2154953
vn -0.2981427 0.4799609 -0.8250749
vn -0.2981427 -0.4799609 -0.8250749
vn -0.0009775171 -0.7947214 -0.6069736
vn -0.0009775171 -0.3822092 -0.9240753
vn -0.1710655 -0.8690127 -0.4642774
vn -0.0009775171 -0.8670577 -0.4982068
vn -0.1749756 -0.9198436 -0.3511001
vn -0.0009775171 0.3822092 -0.9240753
vn -0.2981427 0.4799609 -0.8250749
vn -0.3841642 0.0009775171 -0.9232643
vn -0.0009775171 0.0009775171 -0.999999
vn -0.8260019 -0.4799609 -0.2955644
vn -0.9237537 -0.3822092 -0.0243988
vn -0.6070146 -0.7946906 0
vn -0.4623656 -0.8690127 -0.1761674
vn -0.2981427 -0.4799609 -0.8250749
vn -0.4975562 -0.8670577 -0.02547148
vn -0.1710655 -0.8690127 -0.4642774
vn -0.3528837 -0.9198436 -0.1713502
vn -0.1749756 -0.9198436 -0.3511001
vn -0.9999995 0.0009775166 0
vn -0.9999995 0.0009775166 0
vn -0.9999995 0.0009775166 0
vn -0.9999995 0.0009775166 0
vn -0.9999995 0.0009775166 0
vn -0.9999995 0.0009775166 0
vn -0.9999995 0.0009775166 0
vn -0.9999995 0.0009775166 0
vn -0.9999995 0.0009775166 0
vn -0.9999995 0.0009775166 0
vn -0.9999995 0.0009775166 0
vn -0.9999995 0.0009775166 0
vn 0.3822092 0.9237537 0.02439941
vn 0.0009775166 0.9999995 0
vn 0.0009775166 0.9999995 0
vn 0.3861192 0.9159335 0.1094426
vn 0.8357771 0.4095797 0.365679
vn 0.9237537 0.3822092 0.0243988
vn 0.3665689 0.4095797 0.8353872
vn 0.1143695 0.9159335 0.3846887
vn 0.0009775166 0.9999995 0
vn -0.9237537 0.3822092 -0.0243988
vn -0.2179863 0.9706745 -0.1013557
vn -0.3822092 0.9237537 -0.02439941
vn -0.8260019 0.4799609 -0.2955644
vn -0.1065494 0.9706745 -0.2154953
vn -0.2981427 0.4799609 -0.8250749
vn 0.3861192 -0.9159335 0.1094426
vn 0.3822092 -0.9237537 0.02439941
vn 0.8312981 -0.5558268 0
vn 0.7262952 -0.6246334 0.2869291
vn 0.9804497 -0.1945259 0.02963236
vn 0.8905181 -0.2355816 0.3892028
vn 0.9237537 0.3822092 0.0243988
vn 0.2864125 -0.6246334 0.7264991
vn 0.8357771 0.4095797 0.365679
vn 0.3880743 -0.2355816 0.8910105
vn 0.3665689 0.4095797 0.8353872
vn 0.0009775166 0.9999995 0
vn 0.0009775166 0.9999995 0
vn -0.3822092 0.9237537 -0.02439941
vn -0.2179863 0.9706745 -0.1013557
vn 0.0009775166 0.9999995 0
vn -0.1065494 0.9706745 -0.2154953
vn 0.7262952 -0.6246334 0.2869291
vn 0.2864125 -0.6246334 0.7264991
vn 0.1143695 -0.9159335 0.3846887
vn 0.3861192 -0.9159335 0.1094426
vn -0.8260019 -0.4799609 -0.2955644
vn -0.2981427 -0.4799609 -0.8250749
vn -0.3841642 -0.0009775171 -0.9232643
vn -0.9237537 -0.0009775171 -0.3829859
vn -0.2981427 0.4799609 -0.8250749
vn -0.8260019 0.4799609 -0.2955644
vn 0.0009775171 0.0009775171 -0.999999
vn 0.0009775171 0.0009775171 -0.999999
vn 0.0009775171 0.0009775171 -0.999999
vn 0.0009775171 0.0009775171 -0.999999
vn 0.0009775171 0.0009775171 -0.999999
vn 0.0009775171 0.0009775171 -0.999999
vn 0.0009775171 0.0009775171 -0.999999
vn -0.2981427 0.4799609 -0.8250749
vn -0.8260019 0.4799609 -0.2955644
vn -0.9237537 0.0009775171 -0.3829859
vn -0.3841642 0.0009775171 -0.9232643
vn -0.1065494 0.9706745 -0.2154953
vn -0.8260019 0.4799609 -0.2955644
vn -0.2981427 0.4799609 -0.8250749
vn -0.2179863 0.9706745 -0.1013557
vn -0.9237537 0.3822092 -0.0243988
vn -0.3822092 0.9237537 -0.02439941
vn -0.9999995 0.0009775166 0
vn -0.9999995 0.0009775166 0
vn -0.9999995 0.0009775166 0
vn -0.9999995 0.0009775166 0
vn -0.9999995 0.0009775166 0
vn -0.9999995 0.0009775166 0
vn -0.9999995 0.0009775166 0
vt 0.006326779 0.661138
vt 0.008796327 0.661138
vt 0.1997137 0.661138
vt 0.006326779 0.661138
vt 0.1997137 0.661138
vt 0.1997137 0.661138
vt 0.00858291 0.661138
vt 0.008796327 0.661138
vt 0.006113362 0.661138
vt 0.1997137 0.661138
vt 0.1997137 0.661138
vt 0.2006893 0.6801779
vt 0.4946264 0.6796901
vt 0.4663029 0.7085015
vt 0.2006893 0.7085015
vt 0.3998995 0.6801779
vt 0.0004882813 0.6801779
vt 0.0004882813 0.7045837
vt 0.3998995 0.7045837
vt 0.4858458 0.6811535
vt 0.1997137 0.6811535
vt 0.1997137 0.7089893
vt 0.4584979 0.7085015
vt 0.4003873 0.6606502
vt 0.2006893 0.6606502
vt 0.2006893 0.3496091
vt 0.4003873 0.3496091
vt 0.6010761 0.6796901
vt 0.8002863 0.6796901
vt 0.8002863 0.3466823
vt 0.6010761 0.3466823
vt 0.2006893 0.6801779
vt 0.2006893 0.7085015
vt 0.4663029 0.7085015
vt 0.4946264 0.6801779
vt 0.3998995 0.7045837
vt 0.3998995 0.6801779
vt 0.0004882813 0.6801779
vt 0.0004882813 0.7045837
vt 0.6001005 0.6606502
vt 0.6001005 0.3496091
vt 0.4013629 0.3496091
vt 0.4013629 0.6606502
vt 0.4868215 0.6806657
vt 0.4589857 0.7085015
vt 0.1997137 0.7085015
vt 0.1997137 0.6806657
vt 0.8002863 0.6796901
vt 0.8002863 0.3466823
vt 0.9995117 0.3466823
vt 0.9995117 0.6796901
vt 0.2998066 0.8613238
vt 0.3061481 0.869144
vt 0.5073248 0.8681684
vt 0.5073248 0.8613238
vt 0.3080994 0.8671927
vt 0.3071238 0.869144
vt 0.3017578 0.8603482
vt 0.5102516 0.8671927
vt 0.5102516 0.8603482
vt 0.6336681 0.6790498
vt 0.7997985 0.6790498
vt 0.7997985 0.6584093
vt 0.6336681 0.6584093
vt 0.7997985 0.6572202
vt 0.6336681 0.6572202
vt 0.6542934 0.6704064
vt 0.7016568 0.6704064
vt 0.707038 0.6645527
vt 0.6542934 0.6572202
vt 0.707038 0.6572202
vt 0.9995117 0.3691368
vt 0.9995117 0.3461944
vt 0.8327258 0.3461944
vt 0.8327258 0.3691368
vt 0.8298752 0.3730393
vt 0.8325124 0.3691368
vt 0.9995117 0.3691368
vt 0.9995117 0.3730393
vt 0.1997137 0.6806657
vt 0.008796327 0.6860316
vt 0.1997137 0.6860316
vt 0.002927341 0.6806657
vt 0.002378552 0.6799645
vt 0.1997137 0.6799645
vt 0.1997137 0.6799645
vt 0.002378552 0.664949
vt 0.002378552 0.6799645
vt 0.1997137 0.664949
vt 0.002637702 0.6643087
vt 0.1997137 0.6643087
vt 0.006113362 0.661138
vt 0.1997137 0.661138
vt 0.3173831 0.6601623
vt 0.3232368 0.6601623
vt 0.3232368 0.707038
vt 0.3095628 0.707038
vt 0.3087549 0.6687753
vt 0.3080994 0.7055593
vt 0.3080994 0.6703759
vt 0.826308 0.3691368
vt 0.8298752 0.3730393
vt 0.9995117 0.3730393
vt 0.9995117 0.3691368
vt 0.6334547 0.6584093
vt 0.6334547 0.6572202
vt 0.7997985 0.6572202
vt 0.7997985 0.6584093
vt 0.6334547 0.6790498
vt 0.7997985 0.6790498
vt 0.3071238 0.869144
vt 0.5083004 0.8613238
vt 0.5083004 0.869144
vt 0.2998066 0.8613238
vt 0.3007822 0.8603482
vt 0.3080994 0.8681684
vt 0.5102516 0.8603482
vt 0.5102516 0.8681684
vt 0.7997985 0.6790498
vt 0.7997985 0.6796901
vt 0.6328601 0.6796901
vt 0.6334547 0.6790498
vt 0.6334547 0.6572202
vt 0.7997985 0.6568239
vt 0.7997985 0.6572202
vt 0.6330736 0.6568239
vt 0.7997985 0.6533177
vt 0.6297351 0.6533177
vt 0.9995117 0.3691368
vt 0.8325124 0.3691368
vt 0.8325124 0.3461944
vt 0.9995117 0.3461944
vt 0.6336681 0.6572202
vt 0.7997985 0.6572202
vt 0.7997985 0.6568239
vt 0.633287 0.6568239
vt 0.6334547 0.6572202
vt 0.7997985 0.6533177
vt 0.6330736 0.6568239
vt 0.6299485 0.6533177
vt 0.6297351 0.6533177
vt 0.7016568 0.6572202
vt 0.6542934 0.6572202
vt 0.6542934 0.6704064
vt 0.707038 0.6704064
vt 0.707038 0.6630892
vt 0.3232368 0.707038
vt 0.3232368 0.6601623
vt 0.3173831 0.6601623
vt 0.3087549 0.6687753
vt 0.3080994 0.6703759
vt 0.3080994 0.7055593
vt 0.3095628 0.707038
vt 0.1997137 0.6806657
vt 0.1997137 0.6860316
vt 0.008796327 0.6860316
vt 0.003415152 0.6806657
vt 0.00259197 0.6799645
vt 0.1997137 0.6799645
vt 0.002378552 0.6799645
vt 0.002439529 0.6806657
vt 0.007317647 0.6860316
vt 0.7997985 0.6790498
vt 0.6330736 0.6796901
vt 0.7997985 0.6796901
vt 0.6336681 0.6790498
vt 0.6328601 0.6796901
vt 0.6334547 0.6790498
vt 0.006326779 0.661138
vt 0.1997137 0.661138
vt 0.1997137 0.6643087
vt 0.00285112 0.6643087
vt 0.1997137 0.664949
vt 0.00259197 0.664949
vt 0.1997137 0.6799645
vt 0.002637702 0.6643087
vt 0.00259197 0.6799645
vt 0.002378552 0.664949
vt 0.002378552 0.6799645
vt 0.8265215 0.3691368
vt 0.9995117 0.3691368
vt 0.9995117 0.3730393
vt 0.8300886 0.3730393
vt 0.826308 0.3691368
vt 0.8298752 0.3730393
vt 0.00285112 0.6643087
vt 0.002637702 0.6643087
vt 0.006113362 0.661138
vt 0.006326779 0.661138
vt 0.6336681 0.6572202
vt 0.6334547 0.6572202
vt 0.6334547 0.6584093
vt 0.6336681 0.6584093
vt 0.6334547 0.6790498
vt 0.6336681 0.6790498
vt 0.6650405 0.6704064
vt 0.7065502 0.6704064
vt 0.7080137 0.668943
vt 0.6621136 0.6704064
vt 0.6616258 0.6699186
vt 0.6542934 0.6567324
vt 0.7080137 0.6572202
vt 0.8325124 0.3691368
vt 0.8327258 0.3691368
vt 0.8327258 0.3461944
vt 0.8325124 0.3461944
vt 0.8298752 0.3730393
vt 0.8327258 0.3691368
vt 0.8325124 0.3691368
vt 0.8300886 0.3730393
vt 0.9995117 0.3691368
vt 0.9995117 0.3730393
vt 0.6616258 0.657708
vt 0.6542934 0.6704064
vt 0.7075258 0.6704064
vt 0.6621136 0.6572202
vt 0.6650405 0.6567324
vt 0.7065502 0.6567324
vt 0.7075258 0.6581959
f 1/1/1 2/2/2 3/3/3
f 4/4/4 5/5/5 6/6/6
f 4/4/4 7/7/7 8/8/8
f 4/4/4 9/9/9 7/7/7
f 9/9/9 10/10/10 7/7/7
f 9/9/9 11/11/11 10/10/10
f 12/12/12 13/13/13 14/14/14
f 12/12/12 14/14/14 15/15/15
f 16/16/16 17/17/17 18/18/18
f 16/16/16 18/18/18 19/19/19
f 20/20/20 21/21/21 22/22/22
f 20/20/20 22/22/22 23/23/23
f 24/24/24 25/25/25 26/26/26
f 24/24/24 26/26/26 27/27/27
f 28/28/28 29/29/29 30/30/30
f 28/28/28 30/30/30 31/31/31
f 32/32/32 33/33/33 34/34/34
f 32/32/32 34/34/34 35/35/35
f 36/36/36 37/37/37 38/38/38
f 36/36/36 38/38/38 39/39/39
f 40/40/40 41/41/41 42/42/42
f 40/40/40 42/42/42 43/43/43
f 44/44/44 45/45/45 46/46/46
f 44/44/44 46/46/46 47/47/47
f 48/48/48 49/49/49 50/50/50
f 48/48/48 50/50/50 51/51/51
f 52/52/52 53/53/53 54/54/54
f 52/52/52 54/54/54 55/55/55
f 52/52/52 56/56/56 57/57/57
f 52/52/52 58/58/58 56/56/56
f 58/58/58 59/59/59 56/56/56
f 58/58/58 60/60/60 59/59/59
f 61/61/61 62/62/62 63/63/63
f 61/61/61 63/63/63 64/64/64
f 64/64/64 63/63/63 65/65/65
f 64/64/64 65/65/65 66/66/66
f 67/67/67 68/68/68 69/69/69
f 69/69/69 70/70/70 67/67/67
f 69/69/69 71/71/71 70/70/70
f 72/72/72 73/73/73 74/74/74
f 72/72/72 74/74/74 75/75/75
f 76/76/76 77/77/77 78/78/78
f 76/76/76 78/78/78 79/79/79
f 80/80/80 81/81/81 82/82/82
f 80/80/80 83/83/83 81/81/81
f 80/80/80 84/84/84 83/83/83
f 80/80/80 85/85/85 84/84/84
f 86/86/86 87/87/87 88/88/88
f 86/86/86 89/89/89 87/87/87
f 89/89/89 90/90/90 87/87/87
f 89/89/89 91/91/91 90/90/90
f 92/92/92 90/90/90 91/91/91
f 92/92/92 91/91/91 93/93/93
f 94/94/94 95/95/95 96/96/96
f 96/96/96 97/97/97 94/94/94
f 97/97/97 98/98/98 94/94/94
f 97/97/97 99/99/99 98/98/98
f 99/99/99 100/100/100 98/98/98
f 101/101/101 102/102/102 103/103/103
f 101/101/101 103/103/103 104/104/104
f 105/105/105 106/106/106 107/107/107
f 105/105/105 107/107/107 108/108/108
f 109/109/109 105/105/105 108/108/108
f 109/109/109 108/108/108 110/110/110
f 111/111/111 112/112/112 113/113/113
f 111/111/111 114/114/114 112/112/112
f 115/115/115 114/114/114 111/111/111
f 115/115/115 111/111/111 116/116/116
f 116/116/116 117/117/117 115/115/115
f 116/116/116 118/118/118 117/117/117
f 119/119/119 120/120/120 121/121/121
f 119/119/119 121/121/121 122/122/122
f 123/123/123 124/124/124 125/125/125
f 123/123/123 126/126/126 124/124/124
f 126/126/126 127/127/127 124/124/124
f 126/126/126 128/128/128 127/127/127
f 129/129/129 130/130/130 131/131/131
f 129/129/129 131/131/131 132/132/132
f 133/133/133 134/134/134 135/135/135
f 133/133/133 135/135/135 136/136/136
f 136/136/136 137/137/137 133/133/133
f 136/136/136 135/135/135 138/138/138
f 136/136/136 139/139/139 137/137/137
f 136/136/136 138/138/138 140/140/140
f 140/140/140 139/139/139 136/136/136
f 140/140/140 141/141/141 139/139/139
f 142/142/142 143/143/143 144/144/144
f 144/144/144 145/145/145 142/142/142
f 145/145/145 146/146/146 142/142/142
f 147/147/147 148/148/148 149/149/149
f 149/149/149 150/150/150 147/147/147
f 150/150/150 151/151/151 147/147/147
f 151/151/151 152/152/152 147/147/147
f 152/152/152 153/153/153 147/147/147
f 154/154/154 155/155/155 156/156/156
f 154/154/154 156/156/156 157/157/157
f 154/154/154 157/157/157 158/158/158
f 154/154/154 158/158/158 159/159/159
f 160/160/160 158/158/158 157/157/157
f 160/160/160 157/157/157 161/161/161
f 161/161/161 157/157/157 156/156/156
f 161/161/161 156/156/156 162/162/162
f 163/163/163 164/164/164 165/165/165
f 163/163/163 166/166/166 164/164/164
f 167/167/167 164/164/164 166/166/166
f 167/167/167 166/166/166 168/168/168
f 169/169/169 170/170/170 171/171/171
f 169/169/169 171/171/171 172/172/172
f 173/173/173 172/172/172 171/171/171
f 173/173/173 174/174/174 172/172/172
f 175/175/175 174/174/174 173/173/173
f 174/174/174 176/176/176 172/172/172
f 175/175/175 177/177/177 174/174/174
f 174/174/174 178/178/178 176/176/176
f 178/178/178 174/174/174 177/177/177
f 178/178/178 177/177/177 179/179/179
f 180/180/180 181/181/181 182/182/182
f 180/180/180 182/182/182 183/183/183
f 184/184/184 180/180/180 183/183/183
f 184/184/184 183/183/183 185/185/185
f 186/186/186 187/187/187 188/188/188
f 186/186/186 188/188/188 189/189/189
f 190/190/190 191/191/191 192/192/192
f 190/190/190 192/192/192 193/193/193
f 193/193/193 192/192/192 194/194/194
f 193/193/193 194/194/194 195/195/195
f 196/196/196 197/197/197 198/198/198
f 198/198/198 199/199/199 196/196/196
f 198/198/198 200/200/200 199/199/199
f 198/198/198 201/201/201 200/200/200
f 198/198/198 202/202/202 201/201/201
f 203/203/203 204/204/204 205/205/205
f 203/203/203 205/205/205 206/206/206
f 207/207/207 208/208/208 209/209/209
f 207/207/207 210/210/210 208/208/208
f 210/210/210 211/211/211 208/208/208
f 210/210/210 212/212/212 211/211/211
f 213/213/213 214/214/214 215/215/215
f 215/215/215 216/216/216 213/213/213
f 215/215/215 217/217/217 216/216/216
f 215/215/215 218/218/218 217/217/217
f 215/215/215 219/219/219 218/218/218
