v 0.2673033 1.563751 0.4999991
v 5.466603E-07 5.466603E-07 0.4999991
v 0.2673033 5.466603E-07 0.4999991
v 5.466603E-07 1.563751 0.4999991
v -0.2673022 1.563751 0.4999991
v -0.2673022 5.466603E-07 0.4999991
v 0.2637525 1.6 -0.4310545
v 0.2999997 1.563751 5.466603E-07
v 0.2999997 1.563751 -0.4673037
v 0.2637525 1.6 5.466603E-07
v 0.2637525 1.6 0.4310556
v 0.2999997 1.563751 0.4673028
v -0.2310551 1.6 -0.4637509
v 5.466603E-07 1.563751 -0.5000001
v -0.2673022 1.563751 -0.5000001
v 5.466603E-07 1.6 -0.4637509
v 0.2310541 1.6 -0.4637509
v 0.2673033 1.563751 -0.5000001
v -0.2637514 1.6 0.4310556
v -0.3000006 1.563751 5.466603E-07
v -0.3000006 1.563751 0.4673028
v -0.2637514 1.6 5.466603E-07
v -0.2637514 1.6 -0.4310545
v -0.3000006 1.563751 -0.4673037
v 0.2310541 1.6 0.4637519
v 5.466603E-07 1.563751 0.4999991
v 0.2673033 1.563751 0.4999991
v 5.466603E-07 1.6 0.4637519
v -0.2310551 1.6 0.4637519
v -0.2673022 1.563751 0.4999991
v -0.2673022 1.563751 -0.5000001
v 5.466603E-07 5.466603E-07 -0.5000001
v -0.2673022 5.466603E-07 -0.5000001
v 5.466603E-07 1.563751 -0.5000001
v 0.2673033 1.563751 -0.5000001
v 0.2673033 5.466603E-07 -0.5000001
v 0.2999997 1.563751 -0.4673037
v 0.2999997 5.466603E-07 -0.4673037
v -0.3000006 1.563751 -0.4673037
v -0.2310551 1.6 -0.4637509
v -0.2673022 1.563751 -0.5000001
v -0.2637514 1.6 -0.4310545
v 5.466603E-07 1.6 -0.4310545
v 5.466603E-07 1.6 -0.4637509
v 0.2310541 1.6 -0.4637509
v 5.466603E-07 1.6 5.466603E-07
v -0.2637514 1.6 5.466603E-07
v 0.2637525 1.6 -0.4310545
v 0.2673033 1.563751 -0.5000001
v 0.2999997 1.563751 -0.4673037
v 0.2637525 1.6 5.466603E-07
v 0.2637525 1.6 0.4310556
v 5.466603E-07 1.6 0.4310556
v -0.2637514 1.6 0.4310556
v 0.2310541 1.6 0.4637519
v 0.2999997 1.563751 0.4673028
v 0.2673033 1.563751 0.4999991
v 5.466603E-07 1.6 0.4637519
v -0.2310551 1.6 0.4637519
v -0.3000006 1.563751 0.4673028
v -0.2673022 1.563751 0.4999991
v -0.3000006 1.563751 0.4673028
v -0.2673022 5.466603E-07 0.4999991
v -0.2673022 1.563751 0.4999991
v -0.3000006 5.466603E-07 0.4673028
v -0.3000006 1.563751 5.466603E-07
v -0.3000006 5.466603E-07 5.466603E-07
v -0.3000006 1.563751 -0.4673037
v -0.3000006 5.466603E-07 -0.4673037
v -0.2673022 1.563751 -0.5000001
v -0.2673022 5.466603E-07 -0.5000001
v 0.2999997 1.563751 -0.4673037
v 0.2999997 1.563751 5.466603E-07
v 0.2999997 5.466603E-07 -0.4673037
v 0.2999997 5.466603E-07 5.466603E-07
v 0.2999997 1.563751 0.4673028
v 0.2999997 5.466603E-07 0.4673028
v 0.2673033 1.563751 0.4999991
v 0.2673033 5.466603E-07 0.4999991
v 5.466603E-07 5.466603E-07 0.4999991
v -0.2673022 5.466603E-07 0.4999991
v 5.466603E-07 5.466603E-07 0.4673028
v 0.2673033 5.466603E-07 0.4999991
v -0.3000006 5.466603E-07 0.4673028
v 0.2999997 5.466603E-07 0.4673028
v 0.2999997 5.466603E-07 5.466603E-07
v -0.3000006 5.466603E-07 5.466603E-07
v 5.466603E-07 5.466603E-07 5.466603E-07
v 0.2999997 5.466603E-07 -0.4673037
v 5.466603E-07 5.466603E-07 -0.4673037
v -0.3000006 5.466603E-07 -0.4673037
v 0.2673033 5.466603E-07 -0.5000001
v -0.2673022 5.466603E-07 -0.5000001
v 5.466603E-07 5.466603E-07 -0.5000001
vn 0.3665689 0.4095797 0.8353872
vn 0.0009775171 -0.7067448 0.7074679
vn 0.2961877 -0.6304985 0.717457
vn 0.0009775171 0.3822092 0.9240753
vn -0.3665689 0.4095797 0.8353872
vn -0.2961877 -0.6304985 0.717457
vn 0.3861192 0.9159335 -0.1094426
vn 0.9237537 0.3822092 -0.0243988
vn 0.8357771 0.4095797 -0.365679
vn 0.3822092 0.9237537 -0.02439941
vn 0.3861192 0.9159335 0.1094426
vn 0.8357771 0.4095797 0.365679
vn -0.1124145 0.9159335 -0.3852645
vn 0.0009775171 0.3822092 -0.9240753
vn -0.3665689 0.4095797 -0.8353872
vn 0.0009775171 0.9237537 -0.3829859
vn 0.1124145 0.9159335 -0.3852645
vn 0.3665689 0.4095797 -0.8353872
vn -0.3861192 0.9159335 0.1094426
vn -0.9237537 0.3822092 -0.0243988
vn -0.8357771 0.4095797 0.365679
vn -0.3822092 0.9237537 -0.02439941
vn -0.3861192 0.9159335 -0.1094426
vn -0.8357771 0.4095797 -0.365679
vn 0.1124145 0.9159335 0.3852645
vn 0.0009775171 0.3822092 0.9240753
vn 0.3665689 0.4095797 0.8353872
vn 0.0009775171 0.9237537 0.3829859
vn -0.1124145 0.9159335 0.3852645
vn -0.3665689 0.4095797 0.8353872
vn -0.3665689 0.4095797 -0.8353872
vn 0.0009775171 -0.7067448 -0.7074679
vn -0.2961877 -0.6304985 -0.717457
vn 0.0009775171 0.3822092 -0.9240753
vn 0.3665689 0.4095797 -0.8353872
vn 0.2961877 -0.6304985 -0.717457
vn 0.8357771 0.4095797 -0.365679
vn 0.71652 -0.6304985 -0.2984472
vn -0.8357771 0.4095797 -0.365679
vn -0.1124145 0.9159335 -0.3852645
vn -0.3665689 0.4095797 -0.8353872
vn -0.3861192 0.9159335 -0.1094426
vn 0.0009775166 0.9999995 0
vn 0.0009775171 0.9237537 -0.3829859
vn 0.1124145 0.9159335 -0.3852645
vn 0.0009775166 0.9999995 0
vn -0.3822092 0.9237537 -0.02439941
vn 0.3861192 0.9159335 -0.1094426
vn 0.3665689 0.4095797 -0.8353872
vn 0.8357771 0.4095797 -0.365679
vn 0.3822092 0.9237537 -0.02439941
vn 0.3861192 0.9159335 0.1094426
vn 0.0009775166 0.9999995 0
vn -0.3861192 0.9159335 0.1094426
vn 0.1124145 0.9159335 0.3852645
vn 0.8357771 0.4095797 0.365679
vn 0.3665689 0.4095797 0.8353872
vn 0.0009775171 0.9237537 0.3829859
vn -0.1124145 0.9159335 0.3852645
vn -0.8357771 0.4095797 0.365679
vn -0.3665689 0.4095797 0.8353872
vn -0.8357771 0.4095797 0.365679
vn -0.2961877 -0.6304985 0.717457
vn -0.3665689 0.4095797 0.8353872
vn -0.71652 -0.6304985 0.2984472
vn -0.9237537 0.3822092 -0.0243988
vn -0.7067448 -0.7067448 -0.03199081
vn -0.8357771 0.4095797 -0.365679
vn -0.71652 -0.6304985 -0.2984472
vn -0.3665689 0.4095797 -0.8353872
vn -0.2961877 -0.6304985 -0.717457
vn 0.8357771 0.4095797 -0.365679
vn 0.9237537 0.3822092 -0.0243988
vn 0.71652 -0.6304985 -0.2984472
vn 0.7067448 -0.7067448 -0.03199081
vn 0.8357771 0.4095797 0.365679
vn 0.71652 -0.6304985 0.2984472
vn 0.3665689 0.4095797 0.8353872
vn 0.2961877 -0.6304985 0.717457
vn 0.0009775171 -0.7067448 0.7074679
vn -0.2961877 -0.6304985 0.717457
vn 0.0009775166 -0.9999995 0
vn 0.2961877 -0.6304985 0.717457
vn -0.71652 -0.6304985 0.2984472
vn 0.71652 -0.6304985 0.2984472
vn 0.7067448 -0.7067448 -0.03199081
vn -0.7067448 -0.7067448 -0.03199081
vn 0.0009775166 -0.9999995 0
vn 0.71652 -0.6304985 -0.2984472
vn 0.0009775166 -0.9999995 0
vn -0.71652 -0.6304985 -0.2984472
vn 0.2961877 -0.6304985 -0.717457
vn -0.2961877 -0.6304985 -0.717457
vn 0.0009775171 -0.7067448 -0.7074679
vt 0.5903252 0.08300249
vt 0.5727582 0.1870101
vt 0.5903252 0.1870101
vt 0.5727582 0.08300249
vt 0.5541971 0.08300249
vt 0.5541971 0.1870101
vt 0.7050748 0.1928707
vt 0.7329091 0.188479
vt 0.702152 0.1899478
vt 0.7333988 0.1914019
vt 0.7617227 0.1918915
vt 0.7641559 0.1894582
vt 0.702152 0.2255864
vt 0.6987246 0.2104526
vt 0.6992142 0.2280345
vt 0.7016624 0.2104526
vt 0.702152 0.1943396
vt 0.6992142 0.1918915
vt 0.761233 0.2265656
vt 0.7333988 0.231447
vt 0.7646456 0.2299782
vt 0.7329091 0.2285093
vt 0.7040956 0.2275449
vt 0.702152 0.2309574
vt 0.7627019 0.1948292
vt 0.7680729 0.2094734
vt 0.7670937 0.1914019
vt 0.7646456 0.2094734
vt 0.7636663 0.2250968
vt 0.7670937 0.2280345
vt 0.6953121 0.08300249
vt 0.6772406 0.1870101
vt 0.6953121 0.1870101
vt 0.6772406 0.08300249
vt 0.6591839 0.08300249
vt 0.6591839 0.1870101
vt 0.6557565 0.08300249
vt 0.6557565 0.1870101
vt 0.702152 0.2309574
vt 0.702152 0.2255864
vt 0.6992142 0.2280345
vt 0.7040956 0.2275449
vt 0.7045853 0.2104526
vt 0.7016624 0.2104526
vt 0.702152 0.1943396
vt 0.7329091 0.2104526
vt 0.7329091 0.2285093
vt 0.7050748 0.1928707
vt 0.6992142 0.1918915
vt 0.702152 0.1899478
vt 0.7333988 0.1914019
vt 0.7617227 0.1918915
vt 0.7627019 0.2094734
vt 0.761233 0.2265656
vt 0.7627019 0.1948292
vt 0.7641559 0.1894582
vt 0.7670937 0.1914019
vt 0.7646456 0.2094734
vt 0.7636663 0.2250968
vt 0.7646456 0.2299782
vt 0.7670937 0.2280345
vt 0.5512742 0.08300249
vt 0.5541971 0.1870101
vt 0.5541971 0.08300249
vt 0.5512742 0.1870101
vt 0.5205022 0.08300249
vt 0.5205022 0.1870101
vt 0.489745 0.08300249
vt 0.489745 0.1870101
vt 0.4858428 0.08300249
vt 0.4858428 0.1870101
vt 0.6557565 0.08300249
vt 0.6245098 0.08300249
vt 0.6557565 0.1870101
vt 0.6245098 0.1870101
vt 0.5937526 0.08300249
vt 0.5937526 0.1870101
vt 0.5903252 0.08300249
vt 0.5903252 0.1870101
vt 0.7680729 0.2617146
vt 0.7680729 0.2441475
vt 0.7661144 0.2617146
vt 0.7680729 0.2797861
vt 0.7661144 0.2426787
vt 0.7661144 0.2822194
vt 0.7353573 0.2822194
vt 0.7353573 0.2426787
vt 0.7353573 0.2617146
vt 0.7040956 0.2822194
vt 0.7040956 0.2617146
vt 0.7040956 0.2426787
vt 0.7011727 0.2797861
vt 0.7011727 0.2441475
vt 0.7011727 0.2617146
f 1/1/1 2/2/2 3/3/3
f 4/4/4 2/2/2 1/1/1
f 5/5/5 2/2/2 4/4/4
f 6/6/6 2/2/2 5/5/5
f 7/7/7 8/8/8 9/9/9
f 10/10/10 8/8/8 7/7/7
f 11/11/11 8/8/8 10/10/10
f 12/12/12 8/8/8 11/11/11
f 13/13/13 14/14/14 15/15/15
f 16/16/16 14/14/14 13/13/13
f 17/17/17 14/14/14 16/16/16
f 18/18/18 14/14/14 17/17/17
f 19/19/19 20/20/20 21/21/21
f 22/22/22 20/20/20 19/19/19
f 23/23/23 20/20/20 22/22/22
f 24/24/24 20/20/20 23/23/23
f 25/25/25 26/26/26 27/27/27
f 28/28/28 26/26/26 25/25/25
f 29/29/29 26/26/26 28/28/28
f 30/30/30 26/26/26 29/29/29
f 31/31/31 32/32/32 33/33/33
f 34/34/34 32/32/32 31/31/31
f 35/35/35 32/32/32 34/34/34
f 36/36/36 32/32/32 35/35/35
f 37/37/37 36/36/36 35/35/35
f 38/38/38 36/36/36 37/37/37
f 39/39/39 40/40/40 41/41/41
f 42/42/42 40/40/40 39/39/39
f 42/42/42 43/43/43 40/40/40
f 40/40/40 43/43/43 44/44/44
f 43/43/43 45/45/45 44/44/44
f 42/42/42 46/46/46 43/43/43
f 47/47/47 46/46/46 42/42/42
f 48/48/48 45/45/45 43/43/43
f 45/45/45 48/48/48 49/49/49
f 49/49/49 48/48/48 50/50/50
f 43/43/43 51/51/51 48/48/48
f 46/46/46 51/51/51 43/43/43
f 46/46/46 52/52/52 51/51/51
f 47/47/47 53/53/53 46/46/46
f 53/53/53 52/52/52 46/46/46
f 54/54/54 53/53/53 47/47/47
f 53/53/53 55/55/55 52/52/52
f 52/52/52 55/55/55 56/56/56
f 56/56/56 55/55/55 57/57/57
f 58/58/58 55/55/55 53/53/53
f 58/58/58 53/53/53 59/59/59
f 59/59/59 53/53/53 54/54/54
f 54/54/54 60/60/60 59/59/59
f 59/59/59 60/60/60 61/61/61
f 62/62/62 63/63/63 64/64/64
f 65/65/65 63/63/63 62/62/62
f 62/62/62 66/66/66 65/65/65
f 65/65/65 66/66/66 67/67/67
f 66/66/66 68/68/68 67/67/67
f 67/67/67 68/68/68 69/69/69
f 70/70/70 69/69/69 68/68/68
f 71/71/71 69/69/69 70/70/70
f 72/72/72 73/73/73 74/74/74
f 74/74/74 73/73/73 75/75/75
f 73/73/73 76/76/76 75/75/75
f 75/75/75 76/76/76 77/77/77
f 78/78/78 77/77/77 76/76/76
f 79/79/79 77/77/77 78/78/78
f 80/80/80 81/81/81 82/82/82
f 80/80/80 82/82/82 83/83/83
f 82/82/82 81/81/81 84/84/84
f 83/83/83 82/82/82 85/85/85
f 85/85/85 82/82/82 86/86/86
f 84/84/84 87/87/87 82/82/82
f 86/86/86 82/82/82 88/88/88
f 82/82/82 87/87/87 88/88/88
f 86/86/86 88/88/88 89/89/89
f 88/88/88 87/87/87 90/90/90
f 89/89/89 88/88/88 90/90/90
f 90/90/90 87/87/87 91/91/91
f 89/89/89 90/90/90 92/92/92
f 91/91/91 93/93/93 90/90/90
f 92/92/92 90/90/90 94/94/94
f 90/90/90 93/93/93 94/94/94
