v 0.2576919 0.02951579 0.2937123
v 0.409524 0.1109505 0.2984928
v 0.2330938 0.1576056 0.6932256
v 0.4931873 0.5136406 0.5021545
v 0.3903291 0.3129445 0.654442
v -0.05214334 1.503672 0.2517057
v -0.01417156 1.422407 0.4866512
v 0.226529 1.368734 0.2232643
v 0.2330938 0.1576056 0.6932256
v 0.1504271 0.3623189 0.8157209
v -0.01405496 0.096677 0.7072549
v 0.1504271 0.3623189 0.8157209
v -0.2660877 0.1653232 0.787011
v -0.284044 0.6519208 0.8020523
v -0.03344345 0.921989 0.8646001
v -0.3802934 1.058615 0.7195484
v -0.1083354 1.287123 0.7231365
v 0.3932639 1.059121 0.6703435
v 0.3903291 0.3129445 0.654442
v 0.4931873 0.5136406 0.5021545
v 0.1504271 0.3623189 0.8157209
v 0.2330938 0.1576056 0.6932256
v 0.409524 0.1109505 0.2984928
v -0.01417156 1.422407 0.4866512
v 0.3932639 1.059121 0.6703435
v 0.226529 1.368734 0.2232643
v -0.1083354 1.287123 0.7231365
v -0.4484248 0.3287866 0.4526305
v -0.1485864 -0.009054387 0.2752852
v -0.3776931 0.1640164 0.4978007
v -0.4780257 0.3687934 0.6978081
v -0.4710913 0.6761382 0.4742938
v -0.2660877 0.1653232 0.787011
v -0.284044 0.6519208 0.8020523
v -0.3802934 1.058615 0.7195484
v -0.5420673 0.3417864 0.3125551
v -0.4647532 1.049839 0.5137506
v -0.1083354 1.287123 0.7231365
v -0.05214334 1.503672 0.2517057
v -0.01417156 1.422407 0.4866512
v -0.1222943 1.398621 -0.2192742
v -0.4953418 0.9778203 0.2136041
v -0.3166456 1.104878 -0.2119042
v -0.253462 0.9413335 -0.4421483
v -0.4460885 0.9081313 -0.3374421
v -0.498105 0.7084693 0.265889
v -0.4829646 0.5680441 0.004013537
v -0.482287 0.795844 -0.3620358
v -0.4967366 0.235549 -0.04820536
v -0.4031315 0.02916599 0.1335994
v -0.2091608 0.09325822 -0.3113282
v -0.4505302 0.4346126 -0.3088554
v -0.3983091 0.5422734 -0.65679
v -0.3936363 0.2466589 -0.3266203
v -0.2954135 0.2955295 -0.6837223
v -0.240449 0.3847609 -0.7687628
v -0.4440513 0.4024422 -0.5917562
v 0.226529 1.368734 0.2232643
v -0.1222943 1.398621 -0.2192742
v -0.05214334 1.503672 0.2517057
v 0.09963818 1.271965 -0.2896584
v 0.4688378 1.176591 0.1164615
v 0.40057 0.9386363 -0.2156706
v 0.2313558 0.9076451 -0.4465328
v -0.253462 0.9413335 -0.4421483
v 0.0792135 0.6869314 -0.6174124
v 0.4497617 0.583048 -0.4174622
v 0.4193623 0.3920209 -0.6328542
v 0.5264489 0.4047258 -0.4698725
v 0.03226577 0.4235093 -0.8031794
v 0.1747392 0.172878 -0.7783239
v -0.240449 0.3847609 -0.7687628
v -0.3983091 0.5422734 -0.65679
v -0.482287 0.795844 -0.3620358
v -0.4460885 0.9081313 -0.3374421
v -0.3166456 1.104878 -0.2119042
v 0.4322872 1.088178 0.332773
v 0.4931873 0.5136406 0.5021545
v 0.4832323 0.6561161 -0.02230931
v 0.3932639 1.059121 0.6703435
v 0.226529 1.368734 0.2232643
v 0.1747392 0.172878 -0.7783239
v -0.2954135 0.2955295 -0.6837223
v -0.240449 0.3847609 -0.7687628
v 0.03795494 0.09847879 -0.6104341
v -0.2091608 0.09325822 -0.3113282
v 0.2694464 0.06084801 -0.5758129
v 0.06126821 0.03146498 -0.282438
v 0.2240475 -0.01957033 -0.4295577
v 0.3684194 0.07099655 -0.222055
v 0.5192637 0.2122247 -0.4792379
v 0.1110033 -0.000162039 -0.005083411
v -0.102281 -0.03191005 -0.1144756
v -0.4031315 0.02916599 0.1335994
v -0.1485864 -0.009054387 0.2752852
v 0.2576919 0.02951579 0.2937123
v -0.1108038 0.02890199 0.5498788
v 0.2330938 0.1576056 0.6932256
v -0.3776931 0.1640164 0.4978007
v -0.01405496 0.096677 0.7072549
v -0.2660877 0.1653232 0.787011
v 0.4879667 0.2769901 0.07716091
v 0.3684194 0.07099655 -0.222055
v 0.4171337 0.1441659 0.1625776
v 0.1110033 -0.000162039 -0.005083411
v 0.2576919 0.02951579 0.2937123
v 0.409524 0.1109505 0.2984928
v 0.4931873 0.5136406 0.5021545
v -0.4031315 0.02916599 0.1335994
v -0.1485864 -0.009054387 0.2752852
v -0.4484248 0.3287866 0.4526305
v -0.5420673 0.3417864 0.3125551
v 0.4879667 0.2769901 0.07716091
v 0.4832323 0.6561161 -0.02230931
v 0.4931873 0.5136406 0.5021545
v 0.5264489 0.4047258 -0.4698725
v 0.5192637 0.2122247 -0.4792379
v 0.4193623 0.3920209 -0.6328542
v 0.1747392 0.172878 -0.7783239
v 0.2694464 0.06084801 -0.5758129
v 0.4497617 0.583048 -0.4174622
v 0.40057 0.9386363 -0.2156706
v 0.2313558 0.9076451 -0.4465328
v 0.4688378 1.176591 0.1164615
v 0.4322872 1.088178 0.332773
v 0.226529 1.368734 0.2232643
vn 0.3357926 -0.9373381 0.09295476
vn 0.7329159 -0.6725892 0.1022645
vn 0.4156066 -0.6628558 0.6228109
vn 0.9645712 -0.05549072 0.257921
vn 0.7562761 -0.2929861 0.5849834
vn -0.1469848 0.9879314 0.04885741
vn 0.1216574 0.9022774 0.4136363
vn 0.5557678 0.8302501 0.04250852
vn 0.4156066 -0.6628558 0.6228109
vn 0.2696053 -0.1781318 0.9463519
vn 0.1372309 -0.7816035 0.6084929
vn 0.2696053 -0.1781318 0.9463519
vn -0.3494399 -0.563575 0.7485152
vn -0.483761 0.02432328 0.8748621
vn 0.03600338 0.1566977 0.9869902
vn -0.6959494 0.351366 0.6262558
vn -0.1625583 0.7056624 0.6896488
vn 0.7192891 0.3786196 0.5824692
vn 0.7562761 -0.2929861 0.5849834
vn 0.9645712 -0.05549072 0.257921
vn 0.2696053 -0.1781318 0.9463519
vn 0.4156066 -0.6628558 0.6228109
vn 0.7329159 -0.6725892 0.1022645
vn 0.1216574 0.9022774 0.4136363
vn 0.7192891 0.3786196 0.5824692
vn 0.5557678 0.8302501 0.04250852
vn -0.1625583 0.7056624 0.6896488
vn -0.9139779 -0.3591733 0.1887828
vn -0.1859185 -0.9684851 0.1657438
vn -0.7504566 -0.6570158 -0.07173
vn -0.8711509 -0.1469848 0.4684992
vn -0.9587517 0.05741689 0.2783856
vn -0.3494399 -0.563575 0.7485152
vn -0.483761 0.02432328 0.8748621
vn -0.6959494 0.351366 0.6262558
vn -0.9509649 -0.213172 0.2241057
vn -0.9022979 0.382513 0.1988528
vn -0.1625583 0.7056624 0.6896488
vn -0.1469848 0.9879314 0.04885741
vn 0.1216574 0.9022774 0.4136363
vn -0.2637858 0.8321967 -0.4877148
vn -0.9490182 0.3124324 -0.0418379
vn -0.7524033 0.5655012 -0.3377836
vn -0.3221863 0.5363009 -0.7801137
vn -0.7796568 0.4487002 -0.4368104
vn -0.9976853 0.05936358 0.03316587
vn -0.9957386 0.03795006 -0.08404976
vn -0.919818 0.265712 -0.2886729
vn -0.9159246 -0.3377598 -0.2167958
vn -0.6083487 -0.7874435 0.09921966
vn -0.4331472 -0.8419507 -0.3217182
vn -0.9840586 -0.1158379 -0.1349456
vn -0.6589625 0.265712 -0.7036801
vn -0.7757635 -0.5810952 -0.2460071
vn -0.5557883 -0.5888819 -0.5867858
vn -0.3766934 -0.06522414 -0.9240389
vn -0.9081379 -0.2053853 -0.364832
vn 0.5557678 0.8302501 0.04250852
vn -0.2637858 0.8321967 -0.4877148
vn -0.1469848 0.9879314 0.04885741
vn 0.3552594 0.6706221 -0.6511964
vn 0.8730771 0.4837405 -0.06108641
vn 0.8380368 0.3474727 -0.4206627
vn 0.5148874 0.43118 -0.7409283
vn -0.3221863 0.5363009 -0.7801137
vn 0.191738 0.505154 -0.8414606
vn 0.781583 0.4428601 -0.4393209
vn 0.6433685 0.2073115 -0.7369525
vn 0.9373176 0.1897913 -0.2922584
vn 0.08661714 0.2618186 -0.9612224
vn 0.1878447 -0.4779209 -0.8580827
vn -0.3766934 -0.06522414 -0.9240389
vn -0.6589625 0.265712 -0.7036801
vn -0.919818 0.265712 -0.2886729
vn -0.7796568 0.4487002 -0.4368104
vn -0.7524033 0.5655012 -0.3377836
vn 0.9217442 0.3494194 0.1682077
vn 0.9645712 -0.05549072 0.257921
vn 0.9937714 0.1041373 -0.03967059
vn 0.7192891 0.3786196 0.5824692
vn 0.5557678 0.8302501 0.04250852
vn 0.1878447 -0.4779209 -0.8580827
vn -0.5557883 -0.5888819 -0.5867858
vn -0.3766934 -0.06522414 -0.9240389
vn -0.2676792 -0.8672575 -0.4197764
vn -0.4331472 -0.8419507 -0.3217182
vn 0.3533127 -0.8185905 -0.4528574
vn -0.06522414 -0.9879519 -0.1403458
vn 0.1528044 -0.9821119 -0.1100324
vn 0.5363009 -0.8419507 0.0591647
vn 0.861397 -0.4175738 -0.289184
vn 0.2209383 -0.9743251 -0.04332241
vn -0.1041578 -0.9743251 -0.1996039
vn -0.6083487 -0.7874435 0.09921966
vn -0.1859185 -0.9684851 0.1657438
vn 0.3357926 -0.9373381 0.09295476
vn -0.1314114 -0.956805 0.2593362
vn 0.4156066 -0.6628558 0.6228109
vn -0.7504566 -0.6570158 -0.07173
vn 0.1372309 -0.7816035 0.6084929
vn -0.3494399 -0.563575 0.7485152
vn 0.9665179 -0.250159 0.05712871
vn 0.5363009 -0.8419507 0.0591647
vn 0.7134491 -0.6978961 -0.06270137
vn 0.2209383 -0.9743251 -0.04332241
vn 0.3357926 -0.9373381 0.09295476
vn 0.7329159 -0.6725892 0.1022645
vn 0.9645712 -0.05549072 0.257921
vn -0.6083487 -0.7874435 0.09921966
vn -0.1859185 -0.9684851 0.1657438
vn -0.9139779 -0.3591733 0.1887828
vn -0.9509649 -0.213172 0.2241057
vn 0.9665179 -0.250159 0.05712871
vn 0.9937714 0.1041373 -0.03967059
vn 0.9645712 -0.05549072 0.257921
vn 0.9373176 0.1897913 -0.2922584
vn 0.861397 -0.4175738 -0.289184
vn 0.6433685 0.2073115 -0.7369525
vn 0.1878447 -0.4779209 -0.8580827
vn 0.3533127 -0.8185905 -0.4528574
vn 0.781583 0.4428601 -0.4393209
vn 0.8380368 0.3474727 -0.4206627
vn 0.5148874 0.43118 -0.7409283
vn 0.8730771 0.4837405 -0.06108641
vn 0.9217442 0.3494194 0.1682077
vn 0.5557678 0.8302501 0.04250852
vt 0.4751565 0.4394178
vt 0.465389 0.4002273
vt 0.3929319 0.4361168
vt 0.3992626 0.347697
vt 0.389872 0.3914547
vt 0.2224685 0.318063
vt 0.2511076 0.3012262
vt 0.2045162 0.2990406
vt 0.3196909 0.4693834
vt 0.3452702 0.4188277
vt 0.289258 0.439252
vt 0.3452702 0.4188277
vt 0.2789479 0.4150443
vt 0.2817515 0.3785821
vt 0.2969303 0.3494154
vt 0.2655327 0.3515558
vt 0.271351 0.324228
vt 0.3255092 0.3064868
vt 0.389872 0.3914547
vt 0.3992626 0.347697
vt 0.3452702 0.4188277
vt 0.3929319 0.4361168
vt 0.465389 0.4002273
vt 0.2511076 0.3012262
vt 0.3255092 0.3064868
vt 0.286786 0.2673717
vt 0.271351 0.324228
vt 0.2525547 0.4040107
vt 0.2383858 0.4415733
vt 0.2558105 0.4153458
vt 0.2663015 0.3986597
vt 0.2527657 0.3795468
vt 0.2789479 0.4150443
vt 0.2817515 0.3785821
vt 0.2655327 0.3515558
vt 0.2410085 0.4001218
vt 0.2526149 0.3547513
vt 0.271351 0.324228
vt 0.2224685 0.318063
vt 0.2511076 0.3012262
vt 0.2037776 0.3395876
vt 0.2348134 0.3620317
vt 0.2089779 0.3560326
vt 0.1953366 0.3640364
vt 0.2064456 0.3693422
vt 0.2397273 0.3779641
vt 0.2239607 0.385953
vt 0.2055412 0.3749495
vt 0.21971 0.4036037
vt 0.2270356 0.4184811
vt 0.1972961 0.4154664
vt 0.2070033 0.3918014
vt 0.1933168 0.3852596
vt 0.2037927 0.4010262
vt 0.1885687 0.3939719
vt 0.1856445 0.3898569
vt 0.1951406 0.3905804
vt 0.2045162 0.2990406
vt 0.2037776 0.3395876
vt 0.2224685 0.318063
vt 0.1889757 0.3390299
vt 0.1693352 0.3012111
vt 0.1597185 0.3381255
vt 0.171973 0.3547363
vt 0.1953366 0.3640364
vt 0.1751083 0.3729749
vt 0.1497099 0.3659658
vt 0.1546087 0.3858474
vt 0.1420677 0.3820942
vt 0.1750178 0.3872493
vt 0.1691242 0.3972579
vt 0.1856445 0.3898569
vt 0.1933168 0.3852596
vt 0.2055412 0.3749495
vt 0.2064456 0.3693422
vt 0.2089779 0.3560326
vt 0.3448331 0.2596994
vt 0.3992626 0.347697
vt 0.4184509 0.2836056
vt 0.3255092 0.3064868
vt 0.286786 0.2673717
vt 0.1691242 0.3972579
vt 0.1885687 0.3939719
vt 0.1856445 0.3898569
vt 0.1757715 0.4057441
vt 0.1972961 0.4154664
vt 0.1621453 0.4085779
vt 0.1796152 0.4275401
vt 0.1643008 0.4200185
vt 0.1436353 0.4379557
vt 0.140274 0.3971524
vt 0.1946583 0.4599777
vt 0.2022552 0.4316852
vt 0.2270356 0.4184811
vt 0.2383858 0.4415733
vt 0.2394861 0.4905764
vt 0.2662864 0.4402619
vt 0.3196909 0.4693834
vt 0.2558105 0.4153458
vt 0.289258 0.439252
vt 0.2789479 0.4150443
vt 0.08888926 0.3669305
vt 0.1066003 0.4150896
vt 0.06202872 0.3815968
vt 0.06335517 0.4324238
vt 0.037806 0.4091206
vt 0.03956957 0.3743918
vt 0.06044603 0.3362263
vt 0.2270356 0.4184811
vt 0.2383858 0.4415733
vt 0.2525547 0.4040107
vt 0.2410085 0.4001218
vt 0.08888926 0.3669305
vt 0.120106 0.3390902
vt 0.06044603 0.3362263
vt 0.1420677 0.3820942
vt 0.140274 0.3971524
vt 0.1546087 0.3858474
vt 0.1691242 0.3972579
vt 0.1621453 0.4085779
vt 0.1497099 0.3659658
vt 0.1597185 0.3381255
vt 0.171973 0.3547363
vt 0.1693352 0.3012111
vt 0.1613162 0.2722705
vt 0.2045162 0.2990406
f 1/1/1 2/2/2 3/3/3
f 4/4/4 5/5/5 2/2/2
f 6/6/6 7/7/7 8/8/8
f 9/9/9 10/10/10 11/11/11
f 11/11/11 12/12/12 13/13/13
f 12/12/12 14/14/14 13/13/13
f 15/15/15 14/14/14 12/12/12
f 16/16/16 14/14/14 15/15/15
f 17/17/17 16/16/16 15/15/15
f 15/15/15 12/12/12 18/18/18
f 17/17/17 15/15/15 18/18/18
f 19/19/19 20/20/20 18/18/18
f 18/18/18 21/21/21 19/19/19
f 22/22/22 19/19/19 21/21/21
f 23/23/23 19/19/19 22/22/22
f 24/24/24 25/25/25 26/26/26
f 27/27/27 25/25/25 24/24/24
f 28/28/28 29/29/29 30/30/30
f 28/28/28 30/30/30 31/31/31
f 32/32/32 28/28/28 31/31/31
f 31/31/31 30/30/30 33/33/33
f 31/31/31 33/33/33 34/34/34
f 32/32/32 31/31/31 34/34/34
f 35/35/35 32/32/32 34/34/34
f 28/28/28 32/32/32 36/36/36
f 37/37/37 32/32/32 35/35/35
f 37/37/37 35/35/35 38/38/38
f 37/37/37 38/38/38 39/39/39
f 39/39/39 38/38/38 40/40/40
f 37/37/37 39/39/39 41/41/41
f 37/37/37 42/42/42 32/32/32
f 42/42/42 37/37/37 41/41/41
f 42/42/42 41/41/41 43/43/43
f 44/44/44 43/43/43 41/41/41
f 42/42/42 43/43/43 45/45/45
f 42/42/42 46/46/46 32/32/32
f 36/36/36 32/32/32 46/46/46
f 47/47/47 42/42/42 45/45/45
f 47/47/47 46/46/46 42/42/42
f 46/46/46 47/47/47 36/36/36
f 45/45/45 48/48/48 47/47/47
f 36/36/36 47/47/47 49/49/49
f 36/36/36 49/49/49 50/50/50
f 49/49/49 51/51/51 50/50/50
f 52/52/52 47/47/47 48/48/48
f 52/52/52 49/49/49 47/47/47
f 53/53/53 52/52/52 48/48/48
f 54/54/54 51/51/51 49/49/49
f 52/52/52 54/54/54 49/49/49
f 54/54/54 55/55/55 51/51/51
f 56/56/56 55/55/55 53/53/53
f 52/52/52 57/57/57 54/54/54
f 57/57/57 55/55/55 54/54/54
f 53/53/53 55/55/55 57/57/57
f 57/57/57 52/52/52 53/53/53
f 58/58/58 59/59/59 60/60/60
f 61/61/61 59/59/59 58/58/58
f 62/62/62 61/61/61 58/58/58
f 61/61/61 62/62/62 63/63/63
f 61/61/61 63/63/63 64/64/64
f 65/65/65 59/59/59 61/61/61
f 61/61/61 64/64/64 66/66/66
f 66/66/66 65/65/65 61/61/61
f 67/67/67 66/66/66 64/64/64
f 66/66/66 67/67/67 68/68/68
f 68/68/68 67/67/67 69/69/69
f 66/66/66 68/68/68 70/70/70
f 70/70/70 68/68/68 71/71/71
f 71/71/71 72/72/72 70/70/70
f 72/72/72 73/73/73 70/70/70
f 70/70/70 73/73/73 66/66/66
f 66/66/66 73/73/73 65/65/65
f 73/73/73 74/74/74 65/65/65
f 65/65/65 74/74/74 75/75/75
f 76/76/76 65/65/65 75/75/75
f 77/77/77 78/78/78 79/79/79
f 78/78/78 77/77/77 80/80/80
f 80/80/80 77/77/77 81/81/81
f 82/82/82 83/83/83 84/84/84
f 83/83/83 82/82/82 85/85/85
f 86/86/86 83/83/83 85/85/85
f 87/87/87 85/85/85 82/82/82
f 86/86/86 85/85/85 88/88/88
f 89/89/89 85/85/85 87/87/87
f 85/85/85 89/89/89 88/88/88
f 89/89/89 87/87/87 90/90/90
f 88/88/88 89/89/89 90/90/90
f 90/90/90 87/87/87 91/91/91
f 90/90/90 92/92/92 88/88/88
f 86/86/86 88/88/88 93/93/93
f 88/88/88 92/92/92 93/93/93
f 94/94/94 86/86/86 93/93/93
f 94/94/94 93/93/93 95/95/95
f 95/95/95 93/93/93 92/92/92
f 95/95/95 92/92/92 96/96/96
f 96/96/96 97/97/97 95/95/95
f 98/98/98 97/97/97 96/96/96
f 95/95/95 97/97/97 99/99/99
f 100/100/100 97/97/97 98/98/98
f 99/99/99 97/97/97 101/101/101
f 97/97/97 100/100/100 101/101/101
f 102/102/102 103/103/103 91/91/91
f 104/104/104 103/103/103 102/102/102
f 104/104/104 105/105/105 103/103/103
f 104/104/104 106/106/106 105/105/105
f 107/107/107 106/106/106 104/104/104
f 102/102/102 107/107/107 104/104/104
f 108/108/108 107/107/107 102/102/102
f 109/109/109 110/110/110 111/111/111
f 109/109/109 111/111/111 112/112/112
f 113/113/113 114/114/114 115/115/115
f 116/116/116 114/114/114 113/113/113
f 117/117/117 116/116/116 113/113/113
f 117/117/117 118/118/118 116/116/116
f 119/119/119 118/118/118 117/117/117
f 117/117/117 120/120/120 119/119/119
f 121/121/121 114/114/114 116/116/116
f 114/114/114 121/121/121 122/122/122
f 122/122/122 121/121/121 123/123/123
f 124/124/124 114/114/114 122/122/122
f 124/124/124 125/125/125 114/114/114
f 124/124/124 126/126/126 125/125/125
