v 0.6008653 0.3211161 0.4062961
v 0.5819331 0.120756 0.487289
v 0.6351634 0.2150251 -0.05244385
v 0.4673165 0.1213085 -0.2815477
v 0.5481191 0.3037176 -0.1831249
v 0.4128556 0.209746 -0.5196872
v 0.5481191 0.3037176 -0.1831249
v 0.4128556 0.209746 -0.5196872
v 0.3695146 0.3061696 -0.4862501
v 0.3947901 0.3070861 1.084421
v 0.451047 0.415485 0.910029
v 0.3734928 0.3863292 1.039217
v 0.5651703 0.2494784 0.8234577
v 0.6008653 0.3211161 0.4062961
v 0.5819331 0.120756 0.487289
v 0.5346323 0.4057103 0.4020906
v 0.5071358 0.3936703 0.02687314
v 0.6351634 0.2150251 -0.05244385
v 0.5481191 0.3037176 -0.1831249
v 0.5819331 0.120756 0.487289
v 0.5637179 0.06079803 -0.005556914
v 0.6351634 0.2150251 -0.05244385
v 0.4673165 0.1213085 -0.2815477
v 0.2181885 -0.05532636 -0.3111932
v 0.3467797 0.09980981 -0.5040643
v 0.4128556 0.209746 -0.5196872
v 0.1876265 0.2550845 -0.7193803
v 0.5481191 0.3037176 -0.1831249
v 0.3695146 0.3061696 -0.4862501
v 0.5071358 0.3936703 0.02687314
v 0.376791 0.4184211 0.04675689
v 0.3645681 0.442078 0.3728036
v -0.08572017 0.4054202 -0.5222149
v 0.5346323 0.4057103 0.4020906
v 0.451047 0.415485 0.910029
v 0.1876265 0.2550845 -0.7193803
v 0.4128556 0.209746 -0.5196872
v 0.05837931 0.468695 0.8832586
v 0.3734928 0.3863292 1.039217
v -0.1107148 0.3353919 -0.6633229
v -0.007234681 0.212089 -0.7904248
v -0.4165987 0.2383789 -0.6505253
v -0.04319581 0.312415 1.106052
v 0.3947901 0.3070861 1.084421
v -0.3798098 0.3169975 0.967014
v -0.5019191 0.2421484 0.9093065
v -0.4413569 0.3859245 0.7434663
v -0.1244326 0.4261429 0.5222893
v -0.2389753 0.4360007 -0.03183947
v -0.6134776 0.3885945 0.1667098
v -0.3320729 0.3966009 -0.3419769
v -0.5975112 0.2847652 -0.4202739
v -0.6271141 0.1938147 -0.4542764
v -0.6967673 0.2852548 -0.1534998
v -0.815704 0.1295163 -0.02846546
v -0.8314636 0.1805884 0.1140505
v -0.6406435 0.2422722 0.7127916
v -0.7114773 0.1273932 0.6673108
v -0.5195079 0.3979146 0.5325961
v -0.7677694 0.2736194 0.4678062
v -0.8027882 0.1330492 0.316408
v -0.007234681 0.212089 -0.7904248
v 0.1876265 0.2550845 -0.7193803
v 0.3467797 0.09980981 -0.5040643
v -0.01234374 0.006008222 -0.5569695
v 0.2181885 -0.05532636 -0.3111932
v -0.4731587 -0.02625369 -0.06789298
v -0.4620684 0.07590348 -0.504445
v -0.4165987 0.2383789 -0.6505253
v -0.6271141 0.1938147 -0.4542764
v -0.6311533 0.06187712 -0.2457843
v -0.815704 0.1295163 -0.02846546
v -0.6913072 0.01606189 0.360394
v -0.8314636 0.1805884 0.1140505
v -0.8027882 0.1330492 0.316408
v -0.7114773 0.1273932 0.6673108
v -0.330543 -0.07624671 0.5664508
v 0.06238156 -0.06199493 0.2937379
v -0.2058727 0.02047065 0.8689329
v -0.5019191 0.2421484 0.9093065
v -0.04319581 0.312415 1.106052
v 0.3544017 -0.06431017 0.2602897
v 0.5637179 0.06079803 -0.005556914
v 0.5819331 0.120756 0.487289
v 0.1975638 -0.04071242 0.6557383
v 0.2496004 0.1373231 0.9907188
v 0.3947901 0.3070861 1.084421
v 0.4855761 0.09439033 0.8112921
v 0.5651703 0.2494784 0.8234577
vn 0.944002 0.3291832 0.02232886
vn 0.8405563 -0.5276597 0.1226394
vn 0.9732791 0.03641227 -0.2267199
vn 0.7702913 -0.5218042 -0.3665675
vn 0.793713 0.4736168 -0.3817157
vn 0.8054238 -0.02994913 -0.5919422
vn 0.793713 0.4736168 -0.3817157
vn 0.8054238 -0.02994913 -0.5919422
vn 0.5009421 0.7605323 -0.4130953
vn 0.4697132 -0.0201901 0.8825882
vn 0.5594962 0.7761467 0.2907925
vn 0.3038097 0.7312552 0.6107091
vn 0.9381466 -0.00847927 0.3461345
vn 0.944002 0.3291832 0.02232886
vn 0.8405563 -0.5276597 0.1226394
vn 0.5477699 0.836629 0
vn 0.4970385 0.8581225 -0.1287575
vn 0.9732791 0.03641227 -0.2267199
vn 0.793713 0.4736168 -0.3817157
vn 0.8405563 -0.5276597 0.1226394
vn 0.7136889 -0.6857559 -0.142783
vn 0.9732791 0.03641227 -0.2267199
vn 0.7702913 -0.5218042 -0.3665675
vn 0.2354965 -0.9433943 -0.2335563
vn 0.54193 -0.6662378 -0.512288
vn 0.8054238 -0.02994913 -0.5919422
vn 0.4580023 0.2530627 -0.8521696
vn 0.793713 0.4736168 -0.3817157
vn 0.5009421 0.7605323 -0.4130953
vn 0.4970385 0.8581225 -0.1287575
vn 0.1320508 0.9849899 -0.1111639
vn 0.1085571 0.9940902 0
vn -0.0201901 0.9557129 -0.2936074
vn 0.5477699 0.836629 0
vn 0.5594962 0.7761467 0.2907925
vn 0.4580023 0.2530627 -0.8521696
vn 0.8054238 -0.02994913 -0.5919422
vn -0.06312983 0.9674237 0.2451653
vn 0.3038097 0.7312552 0.6107091
vn -0.1099732 0.8073756 -0.5796987
vn 0.03641227 -0.0533708 -0.9979107
vn -0.4886235 0.2062194 -0.8477739
vn -0.1704792 0.1769423 0.9693443
vn 0.4697132 -0.0201901 0.8825882
vn -0.4398284 0.5048457 0.7427529
vn -0.6369607 0.03250865 0.7702105
vn -0.373467 0.8952069 0.2431605
vn -0.08069609 0.9967008 -0.008700454
vn -0.07288887 0.9967008 -0.03570385
vn -0.4105513 0.9108213 -0.04303736
vn -0.2290333 0.9498574 -0.2128723
vn -0.5979246 0.7039299 -0.3833651
vn -0.8126233 -0.1002141 -0.5741084
vn -0.7013704 0.6766046 -0.2242452
vn -0.9180208 -0.3168646 -0.2383999
vn -0.9921895 0.1203399 -0.0328389
vn -0.7111294 0.532171 0.4594443
vn -0.7794426 -0.3676116 0.507278
vn -0.3110092 0.9400984 0.1396004
vn -0.8282378 0.5126529 0.2262945
vn -0.925828 -0.3637079 0.1027567
vn 0.03641227 -0.0533708 -0.9979107
vn 0.4580023 0.2530627 -0.8521696
vn 0.54193 -0.6662378 -0.512288
vn 0.01299059 -0.8789847 -0.476673
vn 0.2354965 -0.9433943 -0.2335563
vn -0.2270815 -0.9668159 -0.1170509
vn -0.3812742 -0.7677318 -0.5149931
vn -0.4886235 0.2062194 -0.8477739
vn -0.8126233 -0.1002141 -0.5741084
vn -0.5081416 -0.8145751 -0.2797492
vn -0.9180208 -0.3168646 -0.2383999
vn -0.5198524 -0.8497076 0.08803698
vn -0.9921895 0.1203399 -0.0328389
vn -0.925828 -0.3637079 0.1027567
vn -0.7794426 -0.3676116 0.507278
vn -0.1665756 -0.9687678 0.183689
vn -0.002623852 -0.9999965 0
vn -0.1548647 -0.7911534 0.5916867
vn -0.6369607 0.03250865 0.7702105
vn -0.1704792 0.1769423 0.9693443
vn 0.3018579 -0.9512015 0.06401235
vn 0.7136889 -0.6857559 -0.142783
vn 0.8405563 -0.5276597 0.1226394
vn 0.1808459 -0.9531533 0.2424738
vn 0.139858 -0.7208884 0.6787927
vn 0.4697132 -0.0201901 0.8825882
vn 0.5673035 -0.7345511 0.3722922
vn 0.9381466 -0.00847927 0.3461345
vt 0.1997373 0.03204144
vt 0.2197085 0.01107388
vt 0.1332805 0.009423246
vt 0.08355322 0.01065751
vt 0.113577 0.02911193
vt 0.05436222 0.04130583
vt 0.113577 0.02911193
vt 0.05436222 0.04130583
vt 0.06555979 0.05709841
vt 0.2519331 0.08135238
vt 0.2399771 0.0717757
vt 0.2463418 0.08205129
vt 0.2505502 0.05101633
vt 0.1997373 0.03204144
vt 0.2197085 0.01107388
vt 0.1952612 0.04590084
vt 0.145638 0.04035411
vt 0.1332805 0.009423246
vt 0.113577 0.02911193
vt 0.3036085 0.02844275
vt 0.3791363 0.03922394
vt 0.3904825 0.01526739
vt 0.4236143 0.05083789
vt 0.4143499 0.09540509
vt 0.4474667 0.08309224
vt 0.462486 0.06410247
vt 0.4885542 0.1065283
vt 0.113577 0.02911193
vt 0.06555979 0.05709841
vt 0.145638 0.04035411
vt 0.1468128 0.06142576
vt 0.1898632 0.07156751
vt 0.06856365 0.1279569
vt 0.1952612 0.04590084
vt 0.2399771 0.0717757
vt 0.02465075 0.08688424
vt 0.05436222 0.04130583
vt 0.2333895 0.1012344
vt 0.2463418 0.08205129
vt 0.04477068 0.1353327
vt 0.01547558 0.12702
vt 0.04716485 0.1852682
vt 0.2506542 0.1065432
vt 0.2519331 0.08135238
vt 0.2470704 0.1307971
vt 0.2510855 0.1414296
vt 0.2321552 0.142887
vt 0.2040051 0.1191386
vt 0.1384258 0.1394221
vt 0.1763309 0.1872757
vt 0.09674345 0.1652375
vt 0.08794005 0.2079905
vt 0.08068319 0.2204372
vt 0.1336077 0.2176861
vt 0.1533856 0.2434271
vt 0.1854169 0.2355754
vt 0.2458659 0.1653416
vt 0.2590412 0.1802568
vt 0.2176861 0.1597205
vt 0.2253296 0.1932388
vt 0.2211956 0.2237682
vt 0.4835725 0.1393477
vt 0.4885542 0.1065283
vt 0.4474667 0.08309224
vt 0.4422471 0.1309161
vt 0.4143499 0.09540509
vt 0.3676859 0.1787251
vt 0.4280755 0.1907406
vt 0.4573408 0.1970308
vt 0.4238522 0.22356
vt 0.3875977 0.2095519
vt 0.3502724 0.2303707
vt 0.3056457 0.1909785
vt 0.3268215 0.2349806
vt 0.298954 0.2164667
vt 0.2590412 0.1802568
vt 0.2980022 0.1421137
vt 0.3356992 0.1059186
vt 0.2729155 0.123109
vt 0.2510855 0.1414296
vt 0.2506542 0.1065432
vt 0.3418408 0.06955998
vt 0.3791363 0.03922394
vt 0.3036085 0.02844275
vt 0.2974372 0.08808876
vt 0.264811 0.08791031
vt 0.2519331 0.08135238
vt 0.2711608 0.06222877
vt 0.2505502 0.05101633
f 1/1/1 2/2/2 3/3/3
f 4/4/4 5/5/5 3/3/3
f 6/6/6 5/5/5 4/4/4
f 7/7/7 8/8/8 9/9/9
f 10/10/10 11/11/11 12/12/12
f 13/13/13 11/11/11 10/10/10
f 14/14/14 11/11/11 13/13/13
f 13/13/13 15/15/15 14/14/14
f 16/16/16 11/11/11 14/14/14
f 14/14/14 17/17/17 16/16/16
f 18/18/18 17/17/17 14/14/14
f 19/19/19 17/17/17 18/18/18
f 20/20/20 21/21/21 22/22/22
f 22/22/22 21/21/21 23/23/23
f 23/23/23 21/21/21 24/24/24
f 25/25/25 23/23/23 24/24/24
f 26/26/26 23/23/23 25/25/25
f 25/25/25 27/27/27 26/26/26
f 28/28/28 29/29/29 30/30/30
f 30/30/30 29/29/29 31/31/31
f 32/32/32 30/30/30 31/31/31
f 33/33/33 31/31/31 29/29/29
f 32/32/32 31/31/31 33/33/33
f 34/34/34 30/30/30 32/32/32
f 34/34/34 32/32/32 35/35/35
f 29/29/29 36/36/36 33/33/33
f 37/37/37 36/36/36 29/29/29
f 32/32/32 38/38/38 35/35/35
f 39/39/39 35/35/35 38/38/38
f 36/36/36 40/40/40 33/33/33
f 41/41/41 40/40/40 36/36/36
f 42/42/42 40/40/40 41/41/41
f 40/40/40 42/42/42 33/33/33
f 39/39/39 38/38/38 43/43/43
f 43/43/43 44/44/44 39/39/39
f 45/45/45 43/43/43 38/38/38
f 46/46/46 43/43/43 45/45/45
f 45/45/45 38/38/38 47/47/47
f 45/45/45 47/47/47 46/46/46
f 48/48/48 38/38/38 32/32/32
f 48/48/48 47/47/47 38/38/38
f 33/33/33 49/49/49 32/32/32
f 49/49/49 48/48/48 32/32/32
f 50/50/50 48/48/48 49/49/49
f 49/49/49 33/33/33 51/51/51
f 33/33/33 42/42/42 51/51/51
f 51/51/51 50/50/50 49/49/49
f 42/42/42 52/52/52 51/51/51
f 50/50/50 51/51/51 52/52/52
f 42/42/42 53/53/53 52/52/52
f 52/52/52 53/53/53 54/54/54
f 52/52/52 54/54/54 50/50/50
f 54/54/54 53/53/53 55/55/55
f 54/54/54 55/55/55 56/56/56
f 50/50/50 54/54/54 56/56/56
f 46/46/46 47/47/47 57/57/57
f 46/46/46 57/57/57 58/58/58
f 59/59/59 47/47/47 48/48/48
f 59/59/59 48/48/48 50/50/50
f 59/59/59 57/57/57 47/47/47
f 60/60/60 50/50/50 56/56/56
f 60/60/60 59/59/59 50/50/50
f 59/59/59 60/60/60 57/57/57
f 57/57/57 60/60/60 58/58/58
f 56/56/56 61/61/61 60/60/60
f 60/60/60 61/61/61 58/58/58
f 62/62/62 63/63/63 64/64/64
f 62/62/62 64/64/64 65/65/65
f 65/65/65 64/64/64 66/66/66
f 66/66/66 67/67/67 65/65/65
f 65/65/65 68/68/68 62/62/62
f 65/65/65 67/67/67 68/68/68
f 68/68/68 69/69/69 62/62/62
f 69/69/69 68/68/68 70/70/70
f 70/70/70 68/68/68 71/71/71
f 67/67/67 71/71/71 68/68/68
f 71/71/71 72/72/72 70/70/70
f 67/67/67 72/72/72 71/71/71
f 73/73/73 72/72/72 67/67/67
f 72/72/72 73/73/73 74/74/74
f 74/74/74 73/73/73 75/75/75
f 76/76/76 75/75/75 73/73/73
f 77/77/77 73/73/73 67/67/67
f 73/73/73 77/77/77 76/76/76
f 66/66/66 78/78/78 67/67/67
f 67/67/67 78/78/78 77/77/77
f 76/76/76 77/77/77 79/79/79
f 76/76/76 79/79/79 80/80/80
f 80/80/80 79/79/79 81/81/81
f 82/82/82 78/78/78 66/66/66
f 66/66/66 83/83/83 82/82/82
f 83/83/83 84/84/84 82/82/82
f 77/77/77 78/78/78 85/85/85
f 85/85/85 78/78/78 82/82/82
f 85/85/85 79/79/79 77/77/77
f 84/84/84 85/85/85 82/82/82
f 81/81/81 79/79/79 86/86/86
f 79/79/79 85/85/85 86/86/86
f 86/86/86 87/87/87 81/81/81
f 88/88/88 85/85/85 84/84/84
f 86/86/86 85/85/85 88/88/88
f 88/88/88 87/87/87 86/86/86
f 89/89/89 88/88/88 84/84/84
f 89/89/89 87/87/87 88/88/88
