v 0.4641958 0.2793108 0.1574429
v 0.4735486 0.2831441 -0.219027
v 0.4698745 0.407741 0.03400747
v 0.3656609 0.1764679 -0.309581
v 0.3923723 0.3566526 -0.3906823
v 0.2905026 0.4749755 0.3549072
v 0.09049975 0.3187431 0.4701264
v 0.3735388 0.3944436 0.347098
v 0.1076794 0.5283818 0.3505597
v -0.1640855 0.4956388 0.4065493
v -0.07514273 0.5817891 0.3462112
v -0.163689 0.2211032 0.4632549
v -0.328019 0.3541349 0.4105647
v 0.3735388 0.3944436 0.347098
v 0.09049975 0.3187431 0.4701264
v 0.3147307 0.1838712 0.3563643
v 0.2239821 0.120495 0.3571814
v -0.163689 0.2211032 0.4632549
v -0.163689 0.2211032 0.4632549
v -0.328019 0.3541349 0.4105647
v -0.3589072 0.1346272 0.2332474
v -0.4008364 0.4192618 0.2896939
v -0.4750517 0.3539736 0.1159529
v -0.4088486 0.4964746 0.1722318
v -0.4238811 0.4644716 -0.008980242
v -0.4372784 0.3761523 -0.1165869
v -0.3835464 0.1803803 -0.231498
v -0.2961929 0.02706316 0.1343212
v -0.275411 0.07137167 -0.2078424
v 0.2346473 0.0246391 -0.1738785
v 0.2699778 0.1973008 -0.3972498
v 0.3656609 0.1764679 -0.309581
v 0.06683996 0.01215349 -0.2455407
v 0.02101603 0.1144864 -0.3801513
v -0.1667438 0.12103 -0.3895665
v -0.1640855 0.4956388 0.4065493
v -0.4008364 0.4192618 0.2896939
v -0.328019 0.3541349 0.4105647
v -0.2689767 0.5721605 0.2504719
v -0.4088486 0.4964746 0.1722318
v -0.07514273 0.5817891 0.3462112
v -0.2070004 0.5790122 0.05173254
v -0.4238811 0.4644716 -0.008980242
v 0.009880355 0.6110016 0.1124464
v 0.1076794 0.5283818 0.3505597
v -0.1485618 0.5540337 -0.3544817
v -0.2905819 0.4987134 -0.3201671
v -0.01710796 0.6159247 -0.2900917
v -0.08605254 0.50179 -0.4317028
v 0.1343087 0.5108045 -0.4383703
v 0.2660019 0.5453773 -0.2539619
v 0.2917297 0.4112912 -0.4495788
v 0.3923723 0.3566526 -0.3906823
v 0.1772412 0.5532989 0.1597087
v 0.2905026 0.4749755 0.3549072
v 0.4228901 0.5017307 -0.1815369
v 0.4735486 0.2831441 -0.219027
v 0.4698745 0.407741 0.03400747
v 0.344601 0.4955972 0.206971
v 0.3735388 0.3944436 0.347098
v 0.4641958 0.2793108 0.1574429
v 0.3923723 0.3566526 -0.3906823
v 0.3656609 0.1764679 -0.309581
v 0.2699778 0.1973008 -0.3972498
v 0.2917297 0.4112912 -0.4495788
v 0.08479089 0.3746348 -0.4616918
v 0.02101603 0.1144864 -0.3801513
v -0.150226 0.3330053 -0.4754472
v -0.1667438 0.12103 -0.3895665
v -0.1667438 0.12103 -0.3895665
v -0.2588714 0.2141662 -0.4122864
v -0.150226 0.3330053 -0.4754472
v -0.3335238 0.3684232 -0.3182905
v -0.3599345 0.2882919 -0.3171362
v -0.3835464 0.1803803 -0.231498
v -0.4372784 0.3761523 -0.1165869
v -0.2905819 0.4987134 -0.3201671
v -0.4238811 0.4644716 -0.008980242
v -0.08605254 0.50179 -0.4317028
v -0.1485618 0.5540337 -0.3544817
v 0.08479089 0.3746348 -0.4616918
v 0.1343087 0.5108045 -0.4383703
v 0.2917297 0.4112912 -0.4495788
v 0.06683996 0.01215349 -0.2455407
v 0.2346473 0.0246391 -0.1738785
v 0.1753625 0.008722969 0.1393545
v -0.246797 0.003660448 0.09105034
v -0.06583369 0.1093052 0.3643411
v 0.2239821 0.120495 0.3571814
v -0.163689 0.2211032 0.4632549
v -0.3589072 0.1346272 0.2332474
v -0.2961929 0.02706316 0.1343212
v -0.275411 0.07137167 -0.2078424
v -0.1667438 0.12103 -0.3895665
v -0.2588714 0.2141662 -0.4122864
v -0.3835464 0.1803803 -0.231498
v 0.2346473 0.0246391 -0.1738785
v 0.3656609 0.1764679 -0.309581
v 0.4735486 0.2831441 -0.219027
v 0.3921028 0.136791 0.2060447
v 0.1753625 0.008722969 0.1393545
v 0.2239821 0.120495 0.3571814
v 0.4641958 0.2793108 0.1574429
v 0.3147307 0.1838712 0.3563643
v 0.3735388 0.3944436 0.347098
vn 0.9625335 -0.0888238 0.2562023
vn 0.9470153 -0.2246079 -0.2295938
vn 0.9217982 0.3612037 0.1407834
vn 0.6385913 -0.6280808 -0.4446523
vn 0.7200618 0.1167922 -0.6840107
vn 0.3941798 0.6715674 0.627391
vn 0.1594672 0.03726149 0.9864998
vn 0.7375197 0.2448173 0.6293879
vn 0.2118411 0.7763152 0.5936818
vn -0.2110295 0.5144458 0.8311511
vn 0.01592398 0.8461471 0.5327116
vn -0.2343068 -0.352633 0.9059527
vn -0.6145024 0.07411718 0.7854256
vn 0.7375197 0.2448173 0.6293879
vn 0.1594672 0.03726149 0.9864998
vn 0.5668197 -0.3914285 0.7249132
vn 0.2583957 -0.6959729 0.6699652
vn -0.2343068 -0.352633 0.9059527
vn -0.2343068 -0.352633 0.9059527
vn -0.6145024 0.07411718 0.7854256
vn -0.7231297 -0.5621285 0.4013663
vn -0.8104196 0.2700343 0.5199053
vn -0.9927583 -0.03063059 0.1161584
vn -0.7250695 0.6735072 0.1437435
vn -0.7561059 0.6385913 -0.1431959
vn -0.9481435 0.1691661 -0.269085
vn -0.8317571 -0.4476819 -0.3282698
vn -0.5349717 -0.8142991 0.225216
vn -0.4612603 -0.8336968 -0.3036256
vn 0.4077582 -0.8860707 -0.220481
vn 0.2971911 -0.5116944 -0.8061304
vn 0.6385913 -0.6280808 -0.4446523
vn 0.06247854 -0.9306855 -0.3604454
vn 0.08187628 -0.6028638 -0.7936319
vn -0.2168489 -0.6746354 -0.7055804
vn -0.2110295 0.5144458 0.8311511
vn -0.8104196 0.2700343 0.5199053
vn -0.6145024 0.07411718 0.7854256
vn -0.3991876 0.8713641 0.2852611
vn -0.7250695 0.6735072 0.1437435
vn 0.01592398 0.8461471 0.5327116
vn -0.3002591 0.9508948 -0.07512315
vn -0.7561059 0.6385913 -0.1431959
vn 0.101274 0.9916301 0.08008371
vn 0.2118411 0.7763152 0.5936818
vn -0.335175 0.82093 -0.4623112
vn -0.6145024 0.6288924 -0.4763204
vn -0.03257036 0.9625335 -0.2691997
vn -0.1741738 0.5280242 -0.8311762
vn 0.161407 0.615314 -0.7715805
vn 0.3650832 0.8965812 -0.2507119
vn 0.4174571 0.2952514 -0.8593929
vn 0.7200618 0.1167922 -0.6840107
vn 0.2836127 0.9489551 0.138015
vn 0.3941798 0.6715674 0.627391
vn 0.6870856 0.7026038 -0.1850978
vn 0.9470153 -0.2246079 -0.2295938
vn 0.9217982 0.3612037 0.1407834
vn 0.5823379 0.7821345 0.2216938
vn 0.7375197 0.2448173 0.6293879
vn 0.9625335 -0.0888238 0.2562023
vn 0.7200618 0.1167922 -0.6840107
vn 0.6385913 -0.6280808 -0.4446523
vn 0.2971911 -0.5116944 -0.8061304
vn 0.4174571 0.2952514 -0.8593929
vn 0.04308081 -0.05390787 -0.9976161
vn 0.08187628 -0.6028638 -0.7936319
vn -0.2420659 0.01204443 -0.970185
vn -0.2168489 -0.6746354 -0.7055804
vn -0.2168489 -0.6746354 -0.7055804
vn -0.5310922 -0.3021989 -0.7915914
vn -0.2420659 0.01204443 -0.970185
vn -0.7483468 0.2331786 -0.6209708
vn -0.8084798 0.0217433 -0.5881221
vn -0.8317571 -0.4476819 -0.3282698
vn -0.9481435 0.1691661 -0.269085
vn -0.6145024 0.6288924 -0.4763204
vn -0.7561059 0.6385913 -0.1431959
vn -0.1741738 0.5280242 -0.8311762
vn -0.335175 0.82093 -0.4623112
vn 0.04308081 -0.05390787 -0.9976161
vn 0.161407 0.615314 -0.7715805
vn 0.4174571 0.2952514 -0.8593929
vn 0.06247854 -0.9306855 -0.3604454
vn 0.4077582 -0.8860707 -0.220481
vn 0.2157207 -0.9559026 0.1992859
vn -0.2362466 -0.969481 0.06552982
vn -0.0810647 -0.8007207 0.5935275
vn 0.2583957 -0.6959729 0.6699652
vn -0.2343068 -0.352633 0.9059527
vn -0.7231297 -0.5621285 0.4013663
vn -0.5349717 -0.8142991 0.225216
vn -0.4612603 -0.8336968 -0.3036256
vn -0.2168489 -0.6746354 -0.7055804
vn -0.5310922 -0.3021989 -0.7915914
vn -0.8317571 -0.4476819 -0.3282698
vn 0.4077582 -0.8860707 -0.220481
vn 0.6385913 -0.6280808 -0.4446523
vn 0.9470153 -0.2246079 -0.2295938
vn 0.7297606 -0.6261411 0.2745847
vn 0.2157207 -0.9559026 0.1992859
vn 0.2583957 -0.6959729 0.6699652
vn 0.9625335 -0.0888238 0.2562023
vn 0.5668197 -0.3914285 0.7249132
vn 0.7375197 0.2448173 0.6293879
vt 0.9223408 0.6907792
vt 0.9223408 0.5997229
vt 0.8963419 0.6580331
vt 0.9119802 0.5494343
vt 0.879384 0.5818356
vt 0.8482423 0.7129998
vt 0.7950449 0.7488195
vt 0.8716773 0.7283083
vt 0.8169206 0.6990258
vt 0.7787918 0.6876755
vt 0.7954497 0.6817681
vt 0.7286831 0.7138994
vt 0.754802 0.677075
vt 0.6048357 0.7262991
vt 0.6720822 0.7357001
vt 0.6345531 0.6971815
vt 0.6522306 0.6910191
vt 0.7286831 0.7138994
vt 0.7286831 0.7138994
vt 0.754802 0.677075
vt 0.7329713 0.6567437
vt 0.7612942 0.6625013
vt 0.7568111 0.6450187
vt 0.7693458 0.6523656
vt 0.7697507 0.6357976
vt 0.7630785 0.6235328
vt 0.7439317 0.6052406
vt 0.7197619 0.6451686
vt 0.724185 0.6024967
vt 0.6423948 0.6031715
vt 0.6216736 0.5482199
vt 0.6033664 0.5728694
vt 0.6706128 0.5887926
vt 0.6817081 0.5564064
vt 0.7239152 0.5613843
vt 0.7787918 0.6876755
vt 0.7612942 0.6625013
vt 0.754802 0.677075
vt 0.7808009 0.6639556
vt 0.7693458 0.6523656
vt 0.7954497 0.6817681
vt 0.792391 0.6461132
vt 0.7697507 0.6357976
vt 0.8156911 0.6593526
vt 0.8169206 0.6990258
vt 0.801957 0.6030216
vt 0.7857639 0.6049857
vt 0.8173404 0.611223
vt 0.8072497 0.5909217
vt 0.8350479 0.5892424
vt 0.8544196 0.613637
vt 0.8587078 0.5797215
vt 0.879384 0.5818356
vt 0.8375068 0.6727419
vt 0.8482423 0.7129998
vt 0.8790842 0.6229481
vt 0.9223408 0.5997229
vt 0.8963419 0.6580331
vt 0.8657848 0.6881403
vt 0.8716773 0.7283083
vt 0.9223408 0.6907792
vt 0.879384 0.5818356
vt 0.9119802 0.5494343
vt 0.8764603 0.5352953
vt 0.8587078 0.5797215
vt 0.8284507 0.5681164
vt 0.8074296 0.5090115
vt 0.7899171 0.5711451
vt 0.7610993 0.5316969
vt 0.7610993 0.5316969
vt 0.7549369 0.5658224
vt 0.7899171 0.5711451
vt 0.7709501 0.5990033
vt 0.7600498 0.597129
vt 0.7439317 0.6052406
vt 0.7630785 0.6235328
vt 0.7857639 0.6049857
vt 0.7697507 0.6357976
vt 0.8072497 0.5909217
vt 0.801957 0.6030216
vt 0.8284507 0.5681164
vt 0.8350479 0.5892424
vt 0.8587078 0.5797215
vt 0.6706128 0.5887926
vt 0.6423948 0.6031715
vt 0.6580482 0.6525455
vt 0.7129248 0.6400858
vt 0.6999403 0.6860563
vt 0.6522306 0.6910191
vt 0.7286831 0.7138994
vt 0.7329713 0.6567437
vt 0.7197619 0.6451686
vt 0.724185 0.6024967
vt 0.7239152 0.5613843
vt 0.7549369 0.5658224
vt 0.7439317 0.6052406
vt 0.6423948 0.6031715
vt 0.6033664 0.5728694
vt 0.5675017 0.5941153
vt 0.6209839 0.6708077
vt 0.6580482 0.6525455
vt 0.6522306 0.6910191
vt 0.5886276 0.6758306
vt 0.6345531 0.6971815
vt 0.6048357 0.7262991
f 1/1/1 2/2/2 3/3/3
f 2/2/2 4/4/4 5/5/5
f 6/6/6 7/7/7 8/8/8
f 7/7/7 6/6/6 9/9/9
f 7/7/7 9/9/9 10/10/10
f 10/10/10 9/9/9 11/11/11
f 7/7/7 10/10/10 12/12/12
f 12/12/12 10/10/10 13/13/13
f 14/14/14 15/15/15 16/16/16
f 15/15/15 17/17/17 16/16/16
f 15/15/15 18/18/18 17/17/17
f 19/19/19 20/20/20 21/21/21
f 22/22/22 21/21/21 20/20/20
f 23/23/23 21/21/21 22/22/22
f 24/24/24 23/23/23 22/22/22
f 25/25/25 23/23/23 24/24/24
f 23/23/23 25/25/25 26/26/26
f 26/26/26 27/27/27 23/23/23
f 27/27/27 21/21/21 23/23/23
f 28/28/28 21/21/21 27/27/27
f 29/29/29 28/28/28 27/27/27
f 30/30/30 31/31/31 32/32/32
f 33/33/33 31/31/31 30/30/30
f 34/34/34 31/31/31 33/33/33
f 35/35/35 34/34/34 33/33/33
f 36/36/36 37/37/37 38/38/38
f 39/39/39 37/37/37 36/36/36
f 37/37/37 39/39/39 40/40/40
f 39/39/39 36/36/36 41/41/41
f 42/42/42 40/40/40 39/39/39
f 43/43/43 40/40/40 42/42/42
f 39/39/39 41/41/41 44/44/44
f 44/44/44 42/42/42 39/39/39
f 41/41/41 45/45/45 44/44/44
f 43/43/43 42/42/42 46/46/46
f 46/46/46 47/47/47 43/43/43
f 46/46/46 42/42/42 48/48/48
f 48/48/48 42/42/42 44/44/44
f 46/46/46 48/48/48 49/49/49
f 49/49/49 48/48/48 50/50/50
f 48/48/48 51/51/51 50/50/50
f 48/48/48 44/44/44 51/51/51
f 52/52/52 50/50/50 51/51/51
f 51/51/51 53/53/53 52/52/52
f 44/44/44 45/45/45 54/54/54
f 51/51/51 44/44/44 54/54/54
f 45/45/45 55/55/55 54/54/54
f 56/56/56 53/53/53 51/51/51
f 51/51/51 54/54/54 56/56/56
f 56/56/56 57/57/57 53/53/53
f 58/58/58 57/57/57 56/56/56
f 54/54/54 55/55/55 59/59/59
f 56/56/56 54/54/54 59/59/59
f 59/59/59 58/58/58 56/56/56
f 55/55/55 60/60/60 59/59/59
f 58/58/58 59/59/59 61/61/61
f 61/61/61 59/59/59 60/60/60
f 62/62/62 63/63/63 64/64/64
f 64/64/64 65/65/65 62/62/62
f 64/64/64 66/66/66 65/65/65
f 67/67/67 66/66/66 64/64/64
f 67/67/67 68/68/68 66/66/66
f 69/69/69 68/68/68 67/67/67
f 70/70/70 71/71/71 72/72/72
f 71/71/71 73/73/73 72/72/72
f 74/74/74 73/73/73 71/71/71
f 75/75/75 74/74/74 71/71/71
f 74/74/74 75/75/75 76/76/76
f 76/76/76 73/73/73 74/74/74
f 76/76/76 77/77/77 73/73/73
f 73/73/73 77/77/77 72/72/72
f 78/78/78 77/77/77 76/76/76
f 77/77/77 79/79/79 72/72/72
f 80/80/80 79/79/79 77/77/77
f 72/72/72 79/79/79 81/81/81
f 81/81/81 79/79/79 82/82/82
f 81/81/81 82/82/82 83/83/83
f 84/84/84 85/85/85 86/86/86
f 86/86/86 87/87/87 84/84/84
f 86/86/86 88/88/88 87/87/87
f 88/88/88 86/86/86 89/89/89
f 89/89/89 90/90/90 88/88/88
f 91/91/91 88/88/88 90/90/90
f 92/92/92 88/88/88 91/91/91
f 87/87/87 88/88/88 92/92/92
f 87/87/87 92/92/92 93/93/93
f 84/84/84 87/87/87 93/93/93
f 93/93/93 94/94/94 84/84/84
f 93/93/93 95/95/95 94/94/94
f 96/96/96 95/95/95 93/93/93
f 97/97/97 98/98/98 99/99/99
f 99/99/99 100/100/100 97/97/97
f 100/100/100 101/101/101 97/97/97
f 100/100/100 102/102/102 101/101/101
f 103/103/103 100/100/100 99/99/99
f 104/104/104 102/102/102 100/100/100
f 103/103/103 104/104/104 100/100/100
f 105/105/105 104/104/104 103/103/103
