v -0.3917273 0.3256685 -0.3307406
v -0.375353 0.2166586 -0.4148833
v -0.6759704 0.2172374 -0.2138315
v -0.7703841 0.2480729 -0.03268805
v -0.7734966 0.1551791 -0.01884288
v -0.6759704 0.2172374 -0.2138315
v -0.6421649 0.1309352 -0.2466099
v -0.375353 0.2166586 -0.4148833
v 0.6431352 0.2096336 0.411101
v 0.7564049 0.0554992 0.2516262
v 0.7828603 0.2742597 0.1962737
v 0.7805048 0.1737976 -0.2298496
v 0.7320675 0.3637293 0.05563724
v 0.742812 0.3403894 -0.1790256
v -0.7335463 0.1546447 0.1540273
v -0.4175104 0.1662843 0.4453309
v -0.6733803 0.2866488 0.1507486
v -0.3325648 0.2972345 0.4032269
v 0.08285261 0.1625603 0.4984897
v -0.3536056 0.3827026 0.1242857
v -0.3920702 0.3742186 -0.1974452
v -0.7703841 0.2480729 -0.03268805
v -0.6759704 0.2172374 -0.2138315
v -0.3917273 0.3256685 -0.3307406
v 0.2339472 0.3188899 0.4185697
v 0.57922 0.3663268 0.3005103
v 0.6431352 0.2096336 0.411101
v 0.7828603 0.2742597 0.1962737
v 0.7320675 0.3637293 0.05563724
v 0.742812 0.3403894 -0.1790256
v 0.338258 0.4342717 0.003140482
v 0.5534073 0.3381734 -0.3344231
v 0.2318188 0.37456 -0.3597341
v 0.2539491 0.2970238 -0.460079
v -0.1211024 0.3159644 -0.4158362
v -0.375353 0.2166586 -0.4148833
v -0.0809235 0.2151417 -0.4889255
v -0.7703841 0.2480729 -0.03268805
v -0.7335463 0.1546447 0.1540273
v -0.6733803 0.2866488 0.1507486
v -0.7734966 0.1551791 -0.01884288
v 0.7805048 0.1737976 -0.2298496
v 0.5534073 0.3381734 -0.3344231
v 0.742812 0.3403894 -0.1790256
v 0.5588961 0.2617637 -0.3964829
v 0.2539491 0.2970238 -0.460079
v 0.6188824 0.07902174 -0.3570847
v 0.5588961 0.2617637 -0.3964829
v 0.7805048 0.1737976 -0.2298496
v 0.2983373 0.09971083 -0.4430085
v 0.5185865 -0.02207114 -0.2859472
v 0.2539491 0.2970238 -0.460079
v -0.04097467 0.04957404 -0.4345111
v -0.0809235 0.2151417 -0.4889255
v -0.2688975 0.09109174 -0.4270512
v -0.375353 0.2166586 -0.4148833
v -0.04097467 0.04957404 -0.4345111
v 0.2983373 0.09971083 -0.4430085
v 0.5185865 -0.02207114 -0.2859472
v -0.005333153 -0.02279101 -0.3261988
v -0.2688975 0.09109174 -0.4270512
v -0.3643532 0.04175051 -0.2833646
v -0.375353 0.2166586 -0.4148833
v -0.6421649 0.1309352 -0.2466099
v -0.6006026 0.001218367 -0.07564844
v -0.7734966 0.1551791 -0.01884288
v -0.1495512 -0.04381405 0.02816064
v 0.469557 -0.07163797 0.1427024
v -0.673125 0.063581 0.1393791
v -0.7335463 0.1546447 0.1540273
v -0.4981977 -0.01231956 0.1731104
v -0.4416237 0.0400451 0.3754802
v -0.4175104 0.1662843 0.4453309
v 0.08285261 0.1625603 0.4984897
v 0.4186707 -0.02349306 0.3908571
v 0.6431352 0.2096336 0.411101
v 0.7564049 0.0554992 0.2516262
v 0.6681212 -5.512744E-05 -0.1887505
v 0.6188824 0.07902174 -0.3570847
v 0.7805048 0.1737976 -0.2298496
vn -0.3163809 0.7660118 -0.5595794
vn -0.4255953 0.08147152 -0.9012386
vn -0.7181339 0.3701096 -0.5893239
vn -0.8449006 0.5202793 -0.1243075
vn -0.9365627 -0.3339332 -0.1064843
vn -0.7181339 0.3701096 -0.5893239
vn -0.61282 -0.4041425 -0.6790586
vn -0.4255953 0.08147152 -0.9012386
vn 0.4754235 0.1477803 0.8672563
vn 0.7660118 -0.5328594 0.3595647
vn 0.8849775 0.3681593 0.2850852
vn 0.9025298 -0.07844957 -0.4234214
vn 0.4929758 0.8693754 -0.03407752
vn 0.6802005 0.6782502 -0.278036
vn -0.8644032 -0.1116039 0.4902568
vn -0.3943912 0.03466535 0.9182886
vn -0.5816159 0.7211558 0.3763737
vn -0.2091168 0.7231061 0.6583219
vn -0.004339797 -0.0452952 0.9989643
vn -0.1623106 0.9746892 0.1537406
vn -0.2383706 0.9512862 -0.1955352
vn -0.8449006 0.5202793 -0.1243075
vn -0.7181339 0.3701096 -0.5893239
vn -0.3163809 0.7660118 -0.5595794
vn 0.1146259 0.6782502 0.7258358
vn 0.2511439 0.8459723 0.4703802
vn 0.4754235 0.1477803 0.8672563
vn 0.8849775 0.3681593 0.2850852
vn 0.4929758 0.8693754 -0.03407752
vn 0.6802005 0.6782502 -0.278036
vn 0.05806843 0.9980924 0.02096911
vn 0.3369552 0.7913651 -0.5101005
vn 0.03076483 0.9161816 -0.3995809
vn 0.0912228 0.411065 -0.9070303
vn -0.1291562 0.7543102 -0.6436884
vn -0.4255953 0.08147152 -0.9012386
vn -0.06479777 0.1165761 -0.9910657
vn -0.8449006 0.5202793 -0.1243075
vn -0.8644032 -0.1116039 0.4902568
vn -0.5816159 0.7211558 0.3763737
vn -0.9365627 -0.3339332 -0.1064843
vn 0.9025298 -0.07844957 -0.4234214
vn 0.3369552 0.7913651 -0.5101005
vn 0.6802005 0.6782502 -0.278036
vn 0.4247168 0.2862485 -0.8588815
vn 0.0912228 0.411065 -0.9070303
vn 0.479324 -0.4177943 -0.7718138
vn 0.4247168 0.2862485 -0.8588815
vn 0.9025298 -0.07844957 -0.4234214
vn 0.1165761 -0.3904907 -0.913196
vn 0.1828849 -0.8878062 -0.4223188
vn 0.0912228 0.411065 -0.9070303
vn -0.03359365 -0.6089195 -0.7925203
vn -0.06479777 0.1165761 -0.9910657
vn -0.331983 -0.544561 -0.7702212
vn -0.4255953 0.08147152 -0.9012386
vn -0.03359365 -0.6089195 -0.7925203
vn 0.1165761 -0.3904907 -0.913196
vn 0.1828849 -0.8878062 -0.4223188
vn -0.06674802 -0.9385129 -0.3387302
vn -0.331983 -0.544561 -0.7702212
vn -0.271525 -0.8410001 -0.4679669
vn -0.4255953 0.08147152 -0.9012386
vn -0.61282 -0.4041425 -0.6790586
vn -0.408043 -0.8897565 -0.2045342
vn -0.9365627 -0.3339332 -0.1064843
vn -0.07649931 -0.9970207 0.009880912
vn 0.1516808 -0.9853191 0.07835279
vn -0.6284221 -0.7220344 0.2893994
vn -0.8644032 -0.1116039 0.4902568
vn -0.2266691 -0.954115 0.1956671
vn -0.3339332 -0.7025318 0.6284406
vn -0.3943912 0.03466535 0.9182886
vn -0.004339797 -0.0452952 0.9989643
vn 0.153631 -0.749338 0.6441196
vn 0.4754235 0.1477803 0.8672563
vn 0.7660118 -0.5328594 0.3595647
vn 0.5573342 -0.8000447 -0.2220516
vn 0.479324 -0.4177943 -0.7718138
vn 0.9025298 -0.07844957 -0.4234214
vt 0.6917767 0.956942
vt 0.6881433 0.9780916
vt 0.7400257 0.9553372
vt 0.7509109 0.9310386
vt 0.7637187 0.9324617
vt 0.7886683 0.9571993
vt 0.7986452 0.9473891
vt 0.8405811 0.9646782
vt 0.5808357 0.7953296
vt 0.5383093 0.8052762
vt 0.5569609 0.8269709
vt 0.5203541 0.8803824
vt 0.5607912 0.8494982
vt 0.5468327 0.8781266
vt 0.7609937 0.9088898
vt 0.7445675 0.8492711
vt 0.7447795 0.9071336
vt 0.7204506 0.8573858
vt 0.676062 0.8048372
vt 0.7046905 0.8949615
vt 0.6957129 0.9386082
vt 0.7509109 0.9310386
vt 0.7400257 0.9553372
vt 0.6917767 0.956942
vt 0.644648 0.8206123
vt 0.5894045 0.8260171
vt 0.5808357 0.7953296
vt 0.5569609 0.8269709
vt 0.5607912 0.8494982
vt 0.5468327 0.8781266
vt 0.6074355 0.8801402
vt 0.5585809 0.9088746
vt 0.6022124 0.932068
vt 0.5908276 0.9495842
vt 0.6493109 0.9596216
vt 0.6881433 0.9780916
vt 0.6392583 0.9780916
vt 0.7509109 0.9310386
vt 0.7609937 0.9088898
vt 0.7447795 0.9071336
vt 0.7637187 0.9324617
vt 0.5203541 0.8803824
vt 0.5585809 0.9088746
vt 0.5468327 0.8781266
vt 0.5481196 0.9205621
vt 0.5908276 0.9495842
vt 0.9485245 0.8765976
vt 0.9648598 0.8995185
vt 0.9687961 0.8538432
vt 0.9219247 0.9103583
vt 0.9297215 0.8732518
vt 0.9347931 0.9368824
vt 0.880125 0.9291613
vt 0.8855298 0.9545802
vt 0.8541308 0.9444369
vt 0.8405811 0.9646782
vt 0.880125 0.9291613
vt 0.9219247 0.9103583
vt 0.9297215 0.8732518
vt 0.8754167 0.9120842
vt 0.8541308 0.9444369
vt 0.8331023 0.9330673
vt 0.8405811 0.9646782
vt 0.7986452 0.9473891
vt 0.7956778 0.921955
vt 0.7637187 0.9324617
vt 0.8369628 0.8838493
vt 0.8980197 0.8308616
vt 0.772984 0.9056499
vt 0.7609937 0.9088898
vt 0.7916356 0.8898596
vt 0.7820525 0.8648646
vt 0.7674581 0.8485746
vt 0.8248059 0.8036563
vt 0.8772939 0.8063813
vt 0.9004874 0.768957
vt 0.9253613 0.7956627
vt 0.9411819 0.8545244
vt 0.9485245 0.8765976
vt 0.9687961 0.8538432
f 1/1/1 2/2/2 3/3/3
f 4/4/4 3/3/3 5/5/5
f 5/5/5 6/6/6 7/7/7
f 6/6/6 8/8/8 7/7/7
f 9/9/9 10/10/10 11/11/11
f 11/11/11 10/10/10 12/12/12
f 12/12/12 13/13/13 11/11/11
f 14/14/14 13/13/13 12/12/12
f 15/15/15 16/16/16 17/17/17
f 18/18/18 17/17/17 16/16/16
f 18/18/18 16/16/16 19/19/19
f 18/18/18 20/20/20 17/17/17
f 20/20/20 21/21/21 17/17/17
f 17/17/17 21/21/21 22/22/22
f 21/21/21 23/23/23 22/22/22
f 24/24/24 23/23/23 21/21/21
f 18/18/18 19/19/19 25/25/25
f 25/25/25 20/20/20 18/18/18
f 19/19/19 26/26/26 25/25/25
f 27/27/27 26/26/26 19/19/19
f 28/28/28 26/26/26 27/27/27
f 28/28/28 29/29/29 26/26/26
f 30/30/30 26/26/26 29/29/29
f 31/31/31 20/20/20 25/25/25
f 26/26/26 31/31/31 25/25/25
f 31/31/31 26/26/26 30/30/30
f 31/31/31 21/21/21 20/20/20
f 32/32/32 31/31/31 30/30/30
f 33/33/33 31/31/31 32/32/32
f 31/31/31 33/33/33 21/21/21
f 32/32/32 34/34/34 33/33/33
f 35/35/35 24/24/24 21/21/21
f 33/33/33 35/35/35 21/21/21
f 33/33/33 34/34/34 35/35/35
f 35/35/35 36/36/36 24/24/24
f 35/35/35 34/34/34 37/37/37
f 37/37/37 36/36/36 35/35/35
f 38/38/38 39/39/39 40/40/40
f 39/39/39 38/38/38 41/41/41
f 42/42/42 43/43/43 44/44/44
f 45/45/45 43/43/43 42/42/42
f 45/45/45 46/46/46 43/43/43
f 47/47/47 48/48/48 49/49/49
f 50/50/50 48/48/48 47/47/47
f 50/50/50 47/47/47 51/51/51
f 52/52/52 48/48/48 50/50/50
f 53/53/53 52/52/52 50/50/50
f 54/54/54 52/52/52 53/53/53
f 55/55/55 54/54/54 53/53/53
f 55/55/55 56/56/56 54/54/54
f 57/57/57 58/58/58 59/59/59
f 57/57/57 59/59/59 60/60/60
f 60/60/60 61/61/61 57/57/57
f 62/62/62 61/61/61 60/60/60
f 63/63/63 61/61/61 62/62/62
f 62/62/62 64/64/64 63/63/63
f 64/64/64 62/62/62 65/65/65
f 66/66/66 64/64/64 65/65/65
f 60/60/60 67/67/67 62/62/62
f 62/62/62 67/67/67 65/65/65
f 60/60/60 59/59/59 68/68/68
f 67/67/67 60/60/60 68/68/68
f 65/65/65 69/69/69 66/66/66
f 69/69/69 70/70/70 66/66/66
f 71/71/71 69/69/69 65/65/65
f 71/71/71 65/65/65 67/67/67
f 69/69/69 72/72/72 70/70/70
f 72/72/72 69/69/69 71/71/71
f 67/67/67 72/72/72 71/71/71
f 70/70/70 72/72/72 73/73/73
f 73/73/73 72/72/72 74/74/74
f 67/67/67 75/75/75 72/72/72
f 74/74/74 72/72/72 75/75/75
f 68/68/68 75/75/75 67/67/67
f 74/74/74 75/75/75 76/76/76
f 76/76/76 75/75/75 77/77/77
f 75/75/75 68/68/68 77/77/77
f 68/68/68 59/59/59 78/78/78
f 68/68/68 78/78/78 77/77/77
f 59/59/59 79/79/79 78/78/78
f 78/78/78 80/80/80 77/77/77
f 80/80/80 78/78/78 79/79/79
