v -0.06440744 0.2147803 0.4990539
v -0.143253 0.6047423 0.3390684
v -0.3535107 0.3761565 0.3873678
v -0.06440744 0.2147803 0.4990539
v 0.3310112 0.4698821 0.3486674
v -0.3556631 0.1261417 -0.2275256
v -0.3903446 0.3243753 -0.2734092
v -0.2215851 0.1942926 -0.4442293
v -0.2604856 0.5121542 -0.3427078
v -0.2215851 0.1942926 -0.4442293
v -0.01248527 0.5756747 -0.4032039
v -0.2215851 0.1942926 -0.4442293
v 0.3413137 0.3811893 -0.4443314
v -0.2215851 0.1942926 -0.4442293
v 0.4295633 0.2487981 -0.3572774
v 0.3310112 0.4698821 0.3486674
v -0.06440744 0.2147803 0.4990539
v 0.336967 0.1297889 0.319809
v 0.4789093 0.3226374 0.1268421
v -0.06440744 0.2147803 0.4990539
v -0.3535107 0.3761565 0.3873678
v -0.327399 0.03867008 0.1647808
v -0.4659208 0.4429097 0.1182968
v -0.3556631 0.1261417 -0.2275256
v -0.3903446 0.3243753 -0.2734092
v -0.3535107 0.3761565 0.3873678
v -0.143253 0.6047423 0.3390684
v -0.4659208 0.4429097 0.1182968
v -0.2604856 0.5121542 -0.3427078
v -0.3903446 0.3243753 -0.2734092
v -0.01248527 0.5756747 -0.4032039
v 0.4156687 0.5037049 -0.1806884
v 0.3413137 0.3811893 -0.4443314
v 0.3310112 0.4698821 0.3486674
v 0.4789093 0.3226374 0.1268421
v 0.4156687 0.5037049 -0.1806884
v 0.4295633 0.2487981 -0.3572774
v 0.3413137 0.3811893 -0.4443314
v 0.4789093 0.3226374 0.1268421
v -0.2215851 0.1942926 -0.4442293
v 0.4295633 0.2487981 -0.3572774
v 0.1774961 -0.03298315 -0.1089432
v -0.3556631 0.1261417 -0.2275256
v -0.327399 0.03867008 0.1647808
v -0.06440744 0.2147803 0.4990539
v 0.336967 0.1297889 0.319809
v 0.4789093 0.3226374 0.1268421
v 0.1774961 -0.03298315 -0.1089432
v 0.4295633 0.2487981 -0.3572774
v 0.336967 0.1297889 0.319809
vn -0.0548299 -0.3478097 0.9359605
vn -0.1474493 0.8505721 0.5047631
vn -0.6823736 0.1096168 0.7227381
vn -0.0548299 -0.3478097 0.9359605
vn 0.5575923 0.5368002 0.6331953
vn -0.6899344 -0.6483502 -0.3219201
vn -0.8902948 0.07181297 -0.4496866
vn -0.3345783 -0.3969547 -0.8546838
vn -0.5273779 0.6483216 -0.5491372
vn -0.3345783 -0.3969547 -0.8546838
vn -0.03970836 0.7692938 -0.6376599
vn -0.3345783 -0.3969547 -0.8546838
vn 0.4649729 0.2079068 -0.8605667
vn -0.3345783 -0.3969547 -0.8546838
vn 0.7598429 -0.3723822 -0.5328887
vn 0.5575923 0.5368002 0.6331953
vn -0.0548299 -0.3478097 0.9359605
vn 0.5594825 -0.6143267 0.556401
vn 0.9828855 -0.04537893 0.1785407
vn -0.0548299 -0.3478097 0.9359605
vn -0.6823736 0.1096168 0.7227381
vn -0.5538406 -0.7901146 0.2626396
vn -0.9224281 0.3761339 0.08746293
vn -0.6899344 -0.6483502 -0.3219201
vn -0.8902948 0.07181297 -0.4496866
vn -0.6823736 0.1096168 0.7227381
vn -0.1474493 0.8505721 0.5047631
vn -0.9224281 0.3761339 0.08746293
vn -0.5273779 0.6483216 -0.5491372
vn -0.8902948 0.07181297 -0.4496866
vn -0.03970836 0.7692938 -0.6376599
vn 0.6974666 0.6993567 -0.1563348
vn 0.4649729 0.2079068 -0.8605667
vn 0.5575923 0.5368002 0.6331953
vn 0.9828855 -0.04537893 0.1785407
vn 0.6974666 0.6993567 -0.1563348
vn 0.7598429 -0.3723822 -0.5328887
vn 0.4649729 0.2079068 -0.8605667
vn 0.9828855 -0.04537893 0.1785407
vn -0.3345783 -0.3969547 -0.8546838
vn 0.7598429 -0.3723822 -0.5328887
vn 0.268393 -0.9507809 -0.1548575
vn -0.6899344 -0.6483502 -0.3219201
vn -0.5538406 -0.7901146 0.2626396
vn -0.0548299 -0.3478097 0.9359605
vn 0.5594825 -0.6143267 0.556401
vn 0.9828855 -0.04537893 0.1785407
vn 0.268393 -0.9507809 -0.1548575
vn 0.7598429 -0.3723822 -0.5328887
vn 0.5594825 -0.6143267 0.556401
vt 0.7073527 0.714461
vt 0.7903228 0.6775433
vt 0.75643 0.6733993
vt 0.7414119 0.7181059
vt 0.862071 0.7184234
vt 0.7365419 0.6042223
vt 0.7608159 0.6040408
vt 0.7543278 0.5658528
vt 0.789612 0.6045247
vt 0.7543278 0.5658528
vt 0.8196482 0.5965847
vt 0.7543278 0.5658528
vt 0.8674702 0.5804777
vt 0.7670924 0.557958
vt 0.9052045 0.5659586
vt 0.6048424 0.726303
vt 0.7073527 0.714461
vt 0.6345307 0.6869353
vt 0.5886295 0.6758343
vt 0.7073527 0.714461
vt 0.75643 0.6733993
vt 0.7228094 0.6480818
vt 0.7651263 0.6468719
vt 0.7365419 0.6042223
vt 0.7608159 0.6040408
vt 0.75643 0.6733993
vt 0.7903228 0.6775433
vt 0.7651263 0.6468719
vt 0.789612 0.6045247
vt 0.7608159 0.6040408
vt 0.8196482 0.5965847
vt 0.878178 0.622613
vt 0.8674702 0.5804777
vt 0.862071 0.7184234
vt 0.9146268 0.6810672
vt 0.878178 0.622613
vt 0.9052045 0.5659586
vt 0.8674702 0.5804777
vt 0.9146268 0.6810672
vt 0.7543278 0.5658528
vt 0.5941497 0.5740197
vt 0.652982 0.612722
vt 0.7365419 0.6042223
vt 0.7228094 0.6480818
vt 0.7073527 0.714461
vt 0.6345307 0.6869353
vt 0.5886295 0.6758343
vt 0.652982 0.612722
vt 0.5941497 0.5740197
vt 0.6345307 0.6869353
f 1/1/1 2/2/2 3/3/3
f 4/4/4 5/5/5 2/2/2
f 6/6/6 7/7/7 8/8/8
f 7/7/7 9/9/9 10/10/10
f 9/9/9 11/11/11 10/10/10
f 12/12/12 11/11/11 13/13/13
f 14/14/14 13/13/13 15/15/15
f 16/16/16 17/17/17 18/18/18
f 16/16/16 18/18/18 19/19/19
f 20/20/20 21/21/21 22/22/22
f 23/23/23 22/22/22 21/21/21
f 24/24/24 22/22/22 23/23/23
f 25/25/25 24/24/24 23/23/23
f 26/26/26 27/27/27 28/28/28
f 28/28/28 27/27/27 29/29/29
f 28/28/28 29/29/29 30/30/30
f 29/29/29 27/27/27 31/31/31
f 31/31/31 27/27/27 32/32/32
f 33/33/33 31/31/31 32/32/32
f 32/32/32 27/27/27 34/34/34
f 34/34/34 35/35/35 32/32/32
f 36/36/36 37/37/37 38/38/38
f 39/39/39 37/37/37 36/36/36
f 40/40/40 41/41/41 42/42/42
f 43/43/43 40/40/40 42/42/42
f 42/42/42 44/44/44 43/43/43
f 42/42/42 45/45/45 44/44/44
f 45/45/45 42/42/42 46/46/46
f 47/47/47 48/48/48 49/49/49
f 50/50/50 48/48/48 47/47/47
