v 0.410071 0.1196064 0.2820752
v 0.1830901 0.003199546 0.2028757
v 0.3113403 0.004888 -0.4504268
v 0.4931868 0.5136412 0.5021532
v 0.3903292 0.3129454 0.654443
v 0.410071 0.1196064 0.2820752
v 0.4541199 1.175794 0.08349761
v 0.5045126 0.3195457 -0.08293794
v 0.3932654 1.059119 0.670343
v 0.2078183 0.2155369 0.7676857
v -0.204761 0.1062391 0.7645631
v 0.1830901 0.003199546 0.2028757
v 0.1830901 0.003199546 0.2028757
v -0.1485859 -0.00905381 0.2752841
v -0.4645067 0.2784264 0.6881682
v -0.5006835 0.3903994 0.4419017
v 0.01446614 0.01980122 -0.2770378
v -0.4031303 0.02916666 0.1335987
v -0.3262771 0.1542767 -0.2967774
v -0.4784551 0.2603512 -0.09637979
v 0.1633264 0.1467467 -0.7676808
v -0.2632934 0.3338121 -0.7556072
v 0.3113403 0.004888 -0.4504268
v 0.1830901 0.003199546 0.2028757
v 0.410071 0.1196064 0.2820752
v 0.3903292 0.3129454 0.654443
v 0.2078183 0.2155369 0.7676857
v 0.1830901 0.003199546 0.2028757
v 0.2078183 0.2155369 0.7676857
v -0.1464764 0.9042443 0.8678812
v -0.204761 0.1062391 0.7645631
v 0.3903292 0.3129454 0.654443
v 0.3932654 1.059119 0.670343
v 0.4931868 0.5136412 0.5021532
v -0.1083349 1.287122 0.7231346
v 0.5045126 0.3195457 -0.08293794
v 0.5070387 0.3863581 -0.5333079
v 0.4541199 1.175794 0.08349761
v 0.5192658 0.2122258 -0.4792379
v 0.1633264 0.1467467 -0.7676808
v 0.5192658 0.2122258 -0.4792379
v 0.3113403 0.004888 -0.4504268
v 0.3113403 0.004888 -0.4504268
v 0.5192658 0.2122258 -0.4792379
v 0.410071 0.1196064 0.2820752
v 0.4931868 0.5136412 0.5021532
v -0.4317068 0.4767277 -0.6517782
v -0.2632934 0.3338121 -0.7556072
v -0.3262771 0.1542767 -0.2967774
v -0.4784551 0.2603512 -0.09637979
v -0.4459929 0.8951113 -0.3200474
v -0.2534609 0.9413333 -0.4421489
v -0.1222943 1.398622 -0.219273
v -0.4885288 0.7108001 0.383582
v -0.4953418 0.9778193 0.2136051
v -0.4228633 1.061255 0.6703583
v -0.002778022 1.504692 0.3157083
v -0.1083349 1.287122 0.7231346
v -0.1464764 0.9042443 0.8678812
v -0.5006835 0.3903994 0.4419017
v -0.4031303 0.02916666 0.1335987
v -0.4645067 0.2784264 0.6881682
v -0.204761 0.1062391 0.7645631
v 0.3932654 1.059119 0.670343
v 0.4541199 1.175794 0.08349761
v -0.002778022 1.504692 0.3157083
v -0.1083349 1.287122 0.7231346
v -0.2632934 0.3338121 -0.7556072
v -0.4317068 0.4767277 -0.6517782
v 0.03878427 0.4240983 -0.7946215
v 0.1633264 0.1467467 -0.7676808
v -0.2534609 0.9413333 -0.4421489
v 0.5070387 0.3863581 -0.5333079
v 0.1230381 1.244935 -0.3081208
v -0.1222943 1.398622 -0.219273
v 0.4541199 1.175794 0.08349761
v -0.002778022 1.504692 0.3157083
vn 0.7238441 -0.6631328 0.1905376
vn 0.2222947 -0.9659915 0.1320814
vn 0.345753 -0.9100494 -0.2286151
vn 0.9630446 -0.06513165 0.2613484
vn 0.7354183 -0.300474 0.607351
vn 0.7238441 -0.6631328 0.1905376
vn 0.8376573 0.5328695 -0.1199183
vn 0.9746188 -0.2194545 0.0442483
vn 0.7006957 0.3631144 0.6141446
vn 0.3881918 -0.4837325 0.784417
vn -0.2213836 -0.6920684 0.6870449
vn 0.2222947 -0.9659915 0.1320814
vn 0.2222947 -0.9659915 0.1320814
vn -0.18859 -0.9679205 0.1660232
vn -0.8135977 -0.3313386 0.4777798
vn -0.9756367 -0.2098093 0.06413401
vn -0.190519 -0.9621334 -0.1949406
vn -0.6226231 -0.7750169 0.1081168
vn -0.5686101 -0.7537975 -0.3293507
vn -0.9467012 -0.2869708 -0.1463033
vn 0.1509204 -0.5512487 -0.8205778
vn -0.4702292 -0.3120483 -0.8255364
vn 0.345753 -0.9100494 -0.2286151
vn 0.2222947 -0.9659915 0.1320814
vn 0.7238441 -0.6631328 0.1905376
vn 0.7354183 -0.300474 0.607351
vn 0.3881918 -0.4837325 0.784417
vn 0.2222947 -0.9659915 0.1320814
vn 0.3881918 -0.4837325 0.784417
vn -0.190519 0.1065526 0.9758837
vn -0.2213836 -0.6920684 0.6870449
vn 0.7354183 -0.300474 0.607351
vn 0.7006957 0.3631144 0.6141446
vn 0.9630446 -0.06513165 0.2613484
vn -0.1287898 0.7122699 0.689989
vn 0.9746188 -0.2194545 0.0442483
vn 0.8337992 0.1470623 -0.5321199
vn 0.8376573 0.5328695 -0.1199183
vn 0.8839541 -0.3892097 -0.2591157
vn 0.1509204 -0.5512487 -0.8205778
vn 0.8839541 -0.3892097 -0.2591157
vn 0.345753 -0.9100494 -0.2286151
vn 0.345753 -0.9100494 -0.2286151
vn 0.8839541 -0.3892097 -0.2591157
vn 0.7238441 -0.6631328 0.1905376
vn 0.9630446 -0.06513165 0.2613484
vn -0.7673008 0.0178169 -0.6410398
vn -0.4702292 -0.3120483 -0.8255364
vn -0.5686101 -0.7537975 -0.3293507
vn -0.9467012 -0.2869708 -0.1463033
vn -0.8637526 0.3553982 -0.3572444
vn -0.3390548 0.5077921 -0.7919527
vn -0.2503191 0.8492315 -0.4649153
vn -0.9814238 0.04289437 0.1869958
vn -0.9486302 0.3129594 -0.04644579
vn -0.8135977 0.2666626 0.516672
vn -0.01497671 0.9919801 0.1255035
vn -0.1287898 0.7122699 0.689989
vn -0.190519 0.1065526 0.9758837
vn -0.9756367 -0.2098093 0.06413401
vn -0.6226231 -0.7750169 0.1081168
vn -0.8135977 -0.3313386 0.4777798
vn -0.2213836 -0.6920684 0.6870449
vn 0.7006957 0.3631144 0.6141446
vn 0.8376573 0.5328695 -0.1199183
vn -0.01497671 0.9919801 0.1255035
vn -0.1287898 0.7122699 0.689989
vn -0.4702292 -0.3120483 -0.8255364
vn -0.7673008 0.0178169 -0.6410398
vn 0.1219849 0.2415851 -0.9626818
vn 0.1509204 -0.5512487 -0.8205778
vn -0.3390548 0.5077921 -0.7919527
vn 0.8337992 0.1470623 -0.5321199
vn 0.3727596 0.6543988 -0.6578849
vn -0.2503191 0.8492315 -0.4649153
vn 0.8376573 0.5328695 -0.1199183
vn -0.01497671 0.9919801 0.1255035
vt 0.04245877 0.3753177
vt 0.04670046 0.4172364
vt 0.1065972 0.4150929
vt 0.3992583 0.3476939
vt 0.3898692 0.3914542
vt 0.4653893 0.4002244
vt 0.344841 0.2597054
vt 0.4184591 0.2836007
vt 0.3255043 0.3064847
vt 0.328946 0.4510793
vt 0.2795251 0.4246631
vt 0.2238851 0.4799257
vt 0.2238851 0.4799257
vt 0.2383913 0.4415845
vt 0.2638112 0.4026093
vt 0.2496522 0.403032
vt 0.1831891 0.4281953
vt 0.2270399 0.4184892
vt 0.2007596 0.4077869
vt 0.2193566 0.4011301
vt 0.1697998 0.3981111
vt 0.1867515 0.3914089
vt 0.1604712 0.4197874
vt 0.2238851 0.4799257
vt 0.4653893 0.4002244
vt 0.3898692 0.3914542
vt 0.37568 0.4298558
vt 0.4751557 0.4394109
vt 0.328946 0.4510793
vt 0.2933521 0.356298
vt 0.2795251 0.4246631
vt 0.3898692 0.3914542
vt 0.3255043 0.3064847
vt 0.3992583 0.3476939
vt 0.2713436 0.3242213
vt 0.09538169 0.3611435
vt 0.1474895 0.3818538
vt 0.1691206 0.3029374
vt 0.1402741 0.397145
vt 0.1697998 0.3981111
vt 0.1402741 0.397145
vt 0.1604712 0.4197874
vt 0.1065972 0.4150929
vt 0.1402741 0.397145
vt 0.04245877 0.3753177
vt 0.06045196 0.3362217
vt 0.1942235 0.3871219
vt 0.1867515 0.3914089
vt 0.2007596 0.4077869
vt 0.2193566 0.4011301
vt 0.2064353 0.3694156
vt 0.1953405 0.3640417
vt 0.2037786 0.3395879
vt 0.2468445 0.3788348
vt 0.2348138 0.3620341
vt 0.2619545 0.3524488
vt 0.2385725 0.3072998
vt 0.2713436 0.3242213
vt 0.2933521 0.356298
vt 0.2496522 0.403032
vt 0.2270399 0.4184892
vt 0.2638112 0.4026093
vt 0.2795251 0.4246631
vt 0.3255043 0.3064847
vt 0.344841 0.2597054
vt 0.2385725 0.3072998
vt 0.2713436 0.3242213
vt 0.1867515 0.3914089
vt 0.1942235 0.3871219
vt 0.1750227 0.386971
vt 0.1697998 0.3981111
vt 0.1953405 0.3640417
vt 0.1474895 0.3818538
vt 0.1874307 0.3404483
vt 0.2037786 0.3395879
vt 0.1691206 0.3029374
vt 0.2303306 0.3104697
f 1/1/1 2/2/2 3/3/3
f 4/4/4 5/5/5 6/6/6
f 7/7/7 4/4/4 8/8/8
f 4/4/4 7/7/7 9/9/9
f 10/10/10 11/11/11 12/12/12
f 13/13/13 11/11/11 14/14/14
f 14/14/14 11/11/11 15/15/15
f 16/16/16 14/14/14 15/15/15
f 14/14/14 17/17/17 13/13/13
f 18/18/18 14/14/14 16/16/16
f 18/18/18 17/17/17 14/14/14
f 18/18/18 19/19/19 17/17/17
f 20/20/20 19/19/19 18/18/18
f 19/19/19 21/21/21 17/17/17
f 19/19/19 22/22/22 21/21/21
f 21/21/21 23/23/23 17/17/17
f 23/23/23 24/24/24 17/17/17
f 25/25/25 26/26/26 27/27/27
f 28/28/28 25/25/25 27/27/27
f 29/29/29 30/30/30 31/31/31
f 32/32/32 30/30/30 29/29/29
f 33/33/33 30/30/30 32/32/32
f 32/32/32 34/34/34 33/33/33
f 35/35/35 30/30/30 33/33/33
f 36/36/36 37/37/37 38/38/38
f 39/39/39 37/37/37 36/36/36
f 40/40/40 37/37/37 41/41/41
f 41/41/41 42/42/42 40/40/40
f 36/36/36 43/43/43 44/44/44
f 45/45/45 43/43/43 36/36/36
f 46/46/46 45/45/45 36/36/36
f 47/47/47 48/48/48 49/49/49
f 50/50/50 47/47/47 49/49/49
f 51/51/51 47/47/47 50/50/50
f 52/52/52 47/47/47 51/51/51
f 52/52/52 51/51/51 53/53/53
f 50/50/50 54/54/54 51/51/51
f 55/55/55 53/53/53 51/51/51
f 51/51/51 54/54/54 55/55/55
f 55/55/55 56/56/56 53/53/53
f 56/56/56 55/55/55 54/54/54
f 56/56/56 57/57/57 53/53/53
f 57/57/57 56/56/56 58/58/58
f 58/58/58 56/56/56 59/59/59
f 56/56/56 54/54/54 59/59/59
f 54/54/54 50/50/50 60/60/60
f 60/60/60 50/50/50 61/61/61
f 54/54/54 60/60/60 62/62/62
f 54/54/54 62/62/62 59/59/59
f 62/62/62 63/63/63 59/59/59
f 64/64/64 65/65/65 66/66/66
f 67/67/67 64/64/64 66/66/66
f 68/68/68 69/69/69 70/70/70
f 71/71/71 68/68/68 70/70/70
f 72/72/72 70/70/70 69/69/69
f 70/70/70 73/73/73 71/71/71
f 70/70/70 72/72/72 74/74/74
f 73/73/73 70/70/70 74/74/74
f 72/72/72 75/75/75 74/74/74
f 76/76/76 73/73/73 74/74/74
f 74/74/74 75/75/75 77/77/77
f 76/76/76 74/74/74 77/77/77
