v -0.6179852 0.2904228 -0.3747582
v -0.5590203 0.220995 -0.5764727
v -0.8364278 0.1440776 0.03328722
v 0.583582 0.2984163 0.7688297
v 0.3911967 0.3422167 1.088963
v 0.5392352 0.1233592 0.7818583
v 0.583582 0.2984163 0.7688297
v 0.4510471 0.4154848 0.9100288
v 0.5045435 0.4253345 0.2264376
v 0.583582 0.2984163 0.7688297
v 0.6351648 0.2150244 -0.05244255
v 0.5392352 0.1233592 0.7818583
v 0.4961572 0.3228026 -0.2814332
v 0.5484291 0.08626858 -0.09406812
v 0.4085805 0.1741195 -0.5338635
v -0.4414295 0.2855711 0.9580677
v -0.763195 0.262728 0.5051882
v -0.7114788 0.127394 0.6673093
v -0.8364278 0.1440776 0.03328722
v 0.5392352 0.1233592 0.7818583
v 0.5484291 0.08626858 -0.09406812
v 0.6351648 0.2150244 -0.05244255
v 0.2728204 -0.06564158 0.5058439
v 0.1193319 -0.05103651 -0.4537375
v 0.4085805 0.1741195 -0.5338635
v 0.04078056 0.2316487 -0.7983313
v -0.5042551 0.07240451 -0.4739723
v -0.5590203 0.220995 -0.5764727
v -0.8364278 0.1440776 0.03328722
v -0.4731572 -0.02625383 -0.06789237
v -0.05342253 0.03548798 0.9311824
v 0.3911967 0.3422167 1.088963
v -0.0431949 0.3124138 1.106052
v -0.4414295 0.2855711 0.9580677
v -0.7114788 0.127394 0.6673093
v -0.3305447 -0.07624527 0.566452
v -0.691307 0.01606087 0.3603934
v 0.4085805 0.1741195 -0.5338635
v 0.04078056 0.2316487 -0.7983313
v 0.4961572 0.3228026 -0.2814332
v -0.1256143 0.4144085 -0.5241156
v -0.5590203 0.220995 -0.5764727
v -0.6179852 0.2904228 -0.3747582
v 0.5045435 0.4253345 0.2264376
v -0.6134781 0.3885958 0.1667113
v -0.8364278 0.1440776 0.03328722
v -0.763195 0.262728 0.5051882
v -0.4766325 0.4042068 0.6088631
v -0.4414295 0.2855711 0.9580677
v 0.05837927 0.4686958 0.8832583
v 0.4510471 0.4154848 0.9100288
v -0.0431949 0.3124138 1.106052
v 0.3911967 0.3422167 1.088963
vn -0.6403856 0.7025523 -0.3103653
vn -0.6365758 0.1196601 -0.7618745
vn -0.9737389 -0.1489275 -0.172201
vn 0.9425667 0.2282381 0.2438758
vn 0.4244403 0.1749015 0.888403
vn 0.6930279 -0.6137173 0.3782373
vn 0.9425667 0.2282381 0.2438758
vn 0.5044451 0.8092254 0.3011468
vn 0.4815866 0.875896 -0.02967288
vn 0.9425667 0.2282381 0.2438758
vn 0.9749496 0.01108216 -0.2221497
vn 0.6930279 -0.6137173 0.3782373
vn 0.7082669 0.5958792 -0.3785313
vn 0.7025523 -0.6765782 -0.2205951
vn 0.7368401 -0.1184494 -0.6656098
vn -0.5394271 0.2187137 0.8131315
vn -0.8632561 0.4492037 0.230228
vn -0.7661074 -0.3641785 0.5295786
vn -0.9737389 -0.1489275 -0.172201
vn 0.6930279 -0.6137173 0.3782373
vn 0.7025523 -0.6765782 -0.2205951
vn 0.9749496 0.01108216 -0.2221497
vn 0.260621 -0.9584999 0.1155621
vn 0.1539479 -0.9165926 -0.368996
vn 0.7368401 -0.1184494 -0.6656098
vn 0.1406137 0.08537234 -0.9863769
vn -0.4194199 -0.7794415 -0.4653578
vn -0.6365758 0.1196601 -0.7618745
vn -0.9737389 -0.1489275 -0.172201
vn -0.2556005 -0.9584999 -0.1262785
vn -0.04415925 -0.7832513 0.6201349
vn 0.4244403 0.1749015 0.888403
vn -0.1660713 0.2015698 0.9652927
vn -0.5394271 0.2187137 0.8131315
vn -0.7661074 -0.3641785 0.5295786
vn -0.1698811 -0.9642145 0.2035455
vn -0.5527613 -0.8270634 0.1020838
vn 0.7368401 -0.1184494 -0.6656098
vn 0.1406137 0.08537234 -0.9863769
vn 0.7082669 0.5958792 -0.3785313
vn -0.05368363 0.9311374 -0.3606954
vn -0.6365758 0.1196601 -0.7618745
vn -0.6403856 0.7025523 -0.3103653
vn 0.4815866 0.875896 -0.02967288
vn -0.4270394 0.9025643 -0.05490993
vn -0.9737389 -0.1489275 -0.172201
vn -0.8632561 0.4492037 0.230228
vn -0.3013175 0.9387569 0.167162
vn -0.5394271 0.2187137 0.8131315
vn -0.06320801 0.9673301 0.2455142
vn 0.5044451 0.8092254 0.3011468
vn -0.1660713 0.2015698 0.9652927
vn 0.4244403 0.1749015 0.888403
vt 0.09593753 0.2096949
vt 0.06506999 0.2040416
vt 0.1667991 0.2399159
vt 0.2429681 0.04818531
vt 0.2502452 0.08156375
vt 0.2755346 0.0576726
vt 0.2429681 0.04818531
vt 0.239976 0.07177575
vt 0.163386 0.04421598
vt 0.2429681 0.04818531
vt 0.1332703 0.009424217
vt 0.2197084 0.0110781
vt 0.09840332 0.03796128
vt 0.08356345 0.01065711
vt 0.05436483 0.04131416
vt 0.2488168 0.1354353
vt 0.2280079 0.1895926
vt 0.2590408 0.1802557
vt 0.1667991 0.2399159
vt 0.2755346 0.0576726
vt 0.3928252 0.04280266
vt 0.3904797 0.01525793
vt 0.3154985 0.08124801
vt 0.4281583 0.1129876
vt 0.4589055 0.06863336
vt 0.484646 0.132308
vt 0.4217081 0.1936973
vt 0.4394498 0.2111984
vt 0.3403369 0.2305489
vt 0.3676862 0.1787221
vt 0.2702121 0.1113487
vt 0.2502452 0.08156375
vt 0.2506661 0.1065374
vt 0.2488168 0.1354353
vt 0.2590408 0.1802557
vt 0.2979974 0.1421261
vt 0.3056504 0.1909759
vt 0.05436483 0.04131416
vt 0.01743805 0.1184003
vt 0.09840332 0.03796128
vt 0.0686484 0.1351797
vt 0.06506999 0.2040416
vt 0.09593753 0.2096949
vt 0.163386 0.04421598
vt 0.1763315 0.1872772
vt 0.1667991 0.2399159
vt 0.2280079 0.1895926
vt 0.2231064 0.1505308
vt 0.2488168 0.1354353
vt 0.2333906 0.101245
vt 0.239976 0.07177575
vt 0.2506661 0.1065374
vt 0.2502452 0.08156375
f 1/1/1 2/2/2 3/3/3
f 4/4/4 5/5/5 6/6/6
f 7/7/7 8/8/8 5/5/5
f 9/9/9 8/8/8 10/10/10
f 11/11/11 9/9/9 10/10/10
f 10/10/10 12/12/12 11/11/11
f 13/13/13 9/9/9 11/11/11
f 14/14/14 13/13/13 11/11/11
f 15/15/15 13/13/13 14/14/14
f 16/16/16 17/17/17 18/18/18
f 17/17/17 19/19/19 18/18/18
f 20/20/20 21/21/21 22/22/22
f 21/21/21 20/20/20 23/23/23
f 24/24/24 21/21/21 23/23/23
f 25/25/25 21/21/21 24/24/24
f 26/26/26 25/25/25 24/24/24
f 24/24/24 27/27/27 26/26/26
f 27/27/27 28/28/28 26/26/26
f 27/27/27 29/29/29 28/28/28
f 24/24/24 30/30/30 27/27/27
f 30/30/30 29/29/29 27/27/27
f 24/24/24 23/23/23 30/30/30
f 31/31/31 23/23/23 20/20/20
f 20/20/20 32/32/32 31/31/31
f 31/31/31 32/32/32 33/33/33
f 34/34/34 31/31/31 33/33/33
f 35/35/35 31/31/31 34/34/34
f 23/23/23 31/31/31 36/36/36
f 30/30/30 23/23/23 36/36/36
f 35/35/35 36/36/36 31/31/31
f 35/35/35 29/29/29 37/37/37
f 37/37/37 29/29/29 30/30/30
f 36/36/36 37/37/37 30/30/30
f 37/37/37 36/36/36 35/35/35
f 38/38/38 39/39/39 40/40/40
f 40/40/40 39/39/39 41/41/41
f 42/42/42 41/41/41 39/39/39
f 42/42/42 43/43/43 41/41/41
f 41/41/41 44/44/44 40/40/40
f 45/45/45 41/41/41 43/43/43
f 45/45/45 43/43/43 46/46/46
f 47/47/47 45/45/45 46/46/46
f 45/45/45 48/48/48 41/41/41
f 47/47/47 48/48/48 45/45/45
f 41/41/41 48/48/48 44/44/44
f 49/49/49 48/48/48 47/47/47
f 48/48/48 50/50/50 44/44/44
f 49/49/49 50/50/50 48/48/48
f 44/44/44 50/50/50 51/51/51
f 49/49/49 52/52/52 50/50/50
f 53/53/53 51/51/51 50/50/50
f 53/53/53 50/50/50 52/52/52
