v -0.5198597 0.4001025 0.7511878
v -0.273442 0.31198 0.8337063
v -0.3959125 0.4829384 0.8653773
v -0.4655225 0.1148607 0.3989889
v -0.7440659 0.4262153 0.4938699
v -0.8365561 0.4528235 0.2746977
v -0.7722856 0.2785075 -0.02026813
v -0.3150223 0.8050368 0.8380476
v -0.3320965 1.066518 0.6394708
v -0.6232405 0.7646495 0.6626685
v -0.4343276 1.163145 0.4447277
v -0.1898508 1.481783 0.3957179
v -0.01846186 1.398687 0.5945497
v 0.02863349 1.513256 0.4614339
v -0.1991684 1.569523 0.1745278
v 0.179646 1.609467 0.1022096
v 0.2851914 1.528457 0.3985127
v -0.08083234 1.553855 -0.086179
v 0.05304341 1.484839 -0.3954194
v -0.41322 1.318078 -0.1479314
v -0.3773904 1.20493 -0.6037251
v -0.1875876 1.227683 -0.6849616
v -0.6869916 0.8850924 -0.4776276
v -0.5649107 0.8436588 -0.7256881
v -0.6506184 1.023146 -0.03461247
v -0.7598726 0.6052309 -0.5877693
v -0.6187766 0.5139337 -0.7471349
v -0.8186858 0.7632641 -0.1969556
v -0.9125181 0.6342515 -0.1171935
v -0.8370516 0.3053634 -0.433582
v -0.7021344 0.9125159 0.2405204
v -0.8633904 0.4940502 0.1024405
v -0.7722856 0.2785075 -0.02026813
v -0.8365561 0.4528235 0.2746977
v -0.8565093 0.589595 0.2100664
v -0.7122794 0.7990624 0.4478039
v -0.8293238 0.6424652 0.4369518
v -0.7440659 0.4262153 0.4938699
v -0.6925715 0.6827876 0.6452455
v 0.4236514 1.5301 0.01521272
v 0.2851914 1.528457 0.3985127
v 0.6015655 1.425928 0.08095042
v 0.179646 1.609467 0.1022096
v 0.02863349 1.513256 0.4614339
v -0.01846186 1.398687 0.5945497
v 0.5931138 1.139784 0.551596
v 0.6015655 1.425928 0.08095042
v 0.3203956 0.9681544 0.7963614
v 0.7210175 1.091087 0.3497169
v 0.5409508 0.7021034 0.7607627
v 0.217758 0.6521531 0.8911486
v 0.67252 0.6702062 0.6633563
v -0.7440659 0.4262153 0.4938699
v -0.6925715 0.6827876 0.6452455
v -0.8293238 0.6424652 0.4369518
v -0.5198597 0.4001025 0.7511878
v -0.3959125 0.4829384 0.8653773
v -0.6232405 0.7646495 0.6626685
v -0.3150223 0.8050368 0.8380476
v 0.217758 0.6521531 0.8911486
v -0.273442 0.31198 0.8337063
v 0.2015545 0.3244483 0.8877838
v 0.5409508 0.7021034 0.7607627
v 0.617074 0.4232304 0.6951212
v 0.67252 0.6702062 0.6633563
v -0.0636451 1.167679 0.6865516
v -0.3320965 1.066518 0.6394708
v 0.3203956 0.9681544 0.7963614
v -0.01846186 1.398687 0.5945497
v 0.3361807 1.032533 -0.6858274
v 0.2888111 1.428749 -0.4593003
v 0.5543547 1.161281 -0.4951925
v -0.1875876 1.227683 -0.6849616
v 0.05304341 1.484839 -0.3954194
v -0.3220694 0.8820282 -0.8161532
v -0.3773904 1.20493 -0.6037251
v -0.5649107 0.8436588 -0.7256881
v -0.4234178 0.4584419 -0.8011522
v -0.6187766 0.5139337 -0.7471349
v -0.8370516 0.3053634 -0.433582
v -0.7598726 0.6052309 -0.5877693
v -0.01406523 0.820538 -0.8114439
v -0.4234178 0.4584419 -0.8011522
v 0.3282653 0.4919409 -0.7518466
v 0.1318195 0.3190175 -0.7551416
v 0.2845324 0.07021622 -0.5059652
v 0.5664863 0.2086112 -0.4328701
v -0.4051194 0.2090802 -0.6257996
v -0.09660775 0.0327463 -0.36548
v -0.4234178 0.4584419 -0.8011522
v -0.8370516 0.3053634 -0.433582
v -0.6113807 0.1030129 -0.311316
v -0.273442 0.31198 0.8337063
v 0.09093903 0.1510414 0.7551851
v 0.2015545 0.3244483 0.8877838
v -0.1547187 0.09544148 0.641152
v -0.6113807 0.1030129 -0.311316
v -0.4051194 0.2090802 -0.6257996
v -0.09660775 0.0327463 -0.36548
v -0.05054422 -0.03946127 0.1951135
v 0.3890051 0.02413344 -0.2508047
v 0.2845324 0.07021622 -0.5059652
v 0.2176354 -0.02209364 0.2900522
v -0.4655225 0.1148607 0.3989889
v -0.7722856 0.2785075 -0.02026813
v -0.8370516 0.3053634 -0.433582
v -0.1547187 0.09544148 0.641152
v -0.273442 0.31198 0.8337063
v 0.09093903 0.1510414 0.7551851
v 0.4471329 0.1507384 0.5691705
v 0.09093903 0.1510414 0.7551851
v 0.4471329 0.1507384 0.5691705
v 0.2015545 0.3244483 0.8877838
v 0.617074 0.4232304 0.6951212
v 0.5916057 0.2663686 0.5829328
v 0.6116166 0.1764639 0.3012097
v 0.2176354 -0.02209364 0.2900522
v 0.7577971 0.5965002 0.4425968
v 0.7747126 0.4953586 0.05796916
v 0.610568 0.1569052 -0.1487419
v 0.3890051 0.02413344 -0.2508047
v 0.5664863 0.2086112 -0.4328701
v 0.2845324 0.07021622 -0.5059652
v 0.4236514 1.5301 0.01521272
v 0.05304341 1.484839 -0.3954194
v 0.179646 1.609467 0.1022096
v 0.2888111 1.428749 -0.4593003
v 0.6015655 1.425928 0.08095042
v 0.5543547 1.161281 -0.4951925
v 0.7525034 1.098235 0.1223167
v 0.7668189 0.7068704 -0.2122091
v 0.5564857 0.6724069 -0.5998889
v 0.3361807 1.032533 -0.6858274
v 0.3282653 0.4919409 -0.7518466
v 0.5664863 0.2086112 -0.4328701
v 0.610568 0.1569052 -0.1487419
v 0.7747126 0.4953586 0.05796916
v 0.7577971 0.5965002 0.4425968
v 0.617074 0.4232304 0.6951212
v 0.5916057 0.2663686 0.5829328
v 0.67252 0.6702062 0.6633563
v 0.7210175 1.091087 0.3497169
v 0.7471471 0.6770753 0.1112241
v 0.7747126 0.4953586 0.05796916
v 0.7668189 0.7068704 -0.2122091
v 0.7525034 1.098235 0.1223167
v 0.6015655 1.425928 0.08095042
vn -0.5956257 -0.4479012 0.6667942
vn -0.2476957 -0.5062135 0.8260718
vn -0.3448829 -0.1135775 0.9317489
vn -0.4751137 -0.8308186 0.2898405
vn -0.7725063 -0.4615075 0.4361707
vn -0.8969058 -0.3934765 0.2018321
vn -0.7627876 -0.6306131 0.1431163
vn -0.2729644 0.3334833 0.9023743
vn -0.4712262 0.5492388 0.6901323
vn -0.6170069 0.4384454 0.6535045
vn -0.7005878 0.6017199 0.3835492
vn -0.5042698 0.7338943 0.4550946
vn -0.1232962 0.6114386 0.7816271
vn -0.06304019 0.8660688 0.4959342
vn -0.4770574 0.8757876 0.07356901
vn 0.1079871 0.9941524 0
vn 0.3159896 0.819419 0.478229
vn -0.2826831 0.9282686 -0.2416768
vn -0.0863651 0.8971688 -0.4331619
vn -0.6986441 0.7086257 -0.09872221
vn -0.5392572 0.6697508 -0.5105248
vn -0.1310712 0.6017199 -0.7878791
vn -0.8152686 0.4967577 -0.2976051
vn -0.5839633 0.3295959 -0.7418581
vn -0.7915354 0.6111233 0
vn -0.8483123 0.1507715 -0.5075768
vn -0.5081573 -0.2010459 -0.8374705
vn -0.842481 0.5103639 -0.1724946
vn -0.9824305 0.1857589 -0.0179974
vn -0.8133249 -0.4615075 -0.3542787
vn -0.8152686 0.5531263 0.1714304
vn -0.9610494 -0.2554707 0.1054456
vn -0.7627876 -0.6306131 0.1431163
vn -0.8969058 -0.3934765 0.2018321
vn -0.9746556 0.1585465 0.1578275
vn -0.7919437 0.5375763 0.289546
vn -0.9318932 0.2168588 0.2907701
vn -0.7725063 -0.4615075 0.4361707
vn -0.7433501 0.1954776 0.6397023
vn 0.4170643 0.9010562 -0.1189749
vn 0.3159896 0.819419 0.478229
vn 0.7375116 0.6753346 0
vn 0.1079871 0.9941524 0
vn -0.06304019 0.8660688 0.4959342
vn -0.1232962 0.6114386 0.7816271
vn 0.6483697 0.4481642 0.6154394
vn 0.7375116 0.6753346 0
vn 0.2246337 0.3762457 0.8988764
vn 0.9127187 0.2926647 0.2851174
vn 0.5259139 0.1371653 0.8394047
vn 0.1371653 0.1118967 0.9842077
vn 0.7883192 0.1216154 0.6031274
vn -0.7725063 -0.4615075 0.4361707
vn -0.7433501 0.1954776 0.6397023
vn -0.9318932 0.2168588 0.2907701
vn -0.5956257 -0.4479012 0.6667942
vn -0.3448829 -0.1135775 0.9317489
vn -0.6170069 0.4384454 0.6535045
vn -0.2729644 0.3334833 0.9023743
vn 0.1371653 0.1118967 0.9842077
vn -0.2476957 -0.5062135 0.8260718
vn 0.1857589 -0.3565454 0.9156249
vn 0.5259139 0.1371653 0.8394047
vn 0.6950195 -0.3098955 0.6487778
vn 0.7883192 0.1216154 0.6031274
vn -0.1680023 0.4073456 0.8976886
vn -0.4712262 0.5492388 0.6901323
vn 0.2246337 0.3762457 0.8988764
vn -0.1232962 0.6114386 0.7816271
vn 0.358752 0.3023835 -0.8830975
vn 0.3179334 0.7630505 -0.5627364
vn 0.7164007 0.4054018 -0.5678199
vn -0.1310712 0.6017199 -0.7878791
vn -0.0863651 0.8971688 -0.4331619
vn -0.169946 0.2343525 -0.9571819
vn -0.5392572 0.6697508 -0.5105248
vn -0.5839633 0.3295959 -0.7418581
vn -0.2068772 -0.3001768 -0.9311798
vn -0.5081573 -0.2010459 -0.8374705
vn -0.8133249 -0.4615075 -0.3542787
vn -0.8483123 0.1507715 -0.5075768
vn 0.1138404 0.1449403 -0.9828696
vn -0.2068772 -0.3001768 -0.9311798
vn 0.4073456 -0.1738335 -0.8965777
vn 0.1449403 -0.44207 -0.8851929
vn 0.2324087 -0.8113812 -0.5363272
vn 0.7202882 -0.5042698 -0.476337
vn -0.2340896 -0.7258565 -0.6467878
vn -0.08442136 -0.9552181 -0.2836042
vn -0.2068772 -0.3001768 -0.9311798
vn -0.8133249 -0.4615075 -0.3542787
vn -0.4323513 -0.8832996 -0.1812569
vn -0.2476957 -0.5062135 0.8260718
vn 0.07496555 -0.7802812 0.6209198
vn 0.1857589 -0.3565454 0.9156249
vn -0.2088209 -0.8560873 0.4727668
vn -0.4323513 -0.8832996 -0.1812569
vn -0.2340896 -0.7258565 -0.6467878
vn -0.08442136 -0.9552181 -0.2836042
vn -0.101915 -0.9921492 0.07247894
vn 0.3295959 -0.9318932 -0.1514646
vn 0.2324087 -0.8113812 -0.5363272
vn 0.2032526 -0.9649369 0.1660881
vn -0.4751137 -0.8308186 0.2898405
vn -0.7627876 -0.6306131 0.1431163
vn -0.8133249 -0.4615075 -0.3542787
vn -0.2088209 -0.8560873 0.4727668
vn -0.2476957 -0.5062135 0.8260718
vn 0.07496555 -0.7802812 0.6209198
vn 0.4170643 -0.7919437 0.4459625
vn 0.07496555 -0.7802812 0.6209198
vn 0.4170643 -0.7919437 0.4459625
vn 0.1857589 -0.3565454 0.9156249
vn 0.6950195 -0.3098955 0.6487778
vn 0.6891882 -0.5684133 0.4493616
vn 0.7241756 -0.6772629 0.1299409
vn 0.2032526 -0.9649369 0.1660881
vn 0.9749184 -0.101915 0.197857
vn 0.9822907 -0.1873629 0
vn 0.766938 -0.6325568 -0.1080651
vn 0.3295959 -0.9318932 -0.1514646
vn 0.7202882 -0.5042698 -0.476337
vn 0.2324087 -0.8113812 -0.5363272
vn 0.4170643 0.9010562 -0.1189749
vn -0.0863651 0.8971688 -0.4331619
vn 0.1079871 0.9941524 0
vn 0.3179334 0.7630505 -0.5627364
vn 0.7375116 0.6753346 0
vn 0.7164007 0.4054018 -0.5678199
vn 0.971031 0.2382399 -0.01845524
vn 0.9671435 -0.004727904 -0.2541872
vn 0.7319506 -0.01250288 -0.681243
vn 0.358752 0.3023835 -0.8830975
vn 0.4073456 -0.1738335 -0.8965777
vn 0.7202882 -0.5042698 -0.476337
vn 0.766938 -0.6325568 -0.1080651
vn 0.9822907 -0.1873629 0
vn 0.9749184 -0.101915 0.197857
vn 0.6950195 -0.3098955 0.6487778
vn 0.6891882 -0.5684133 0.4493616
vn 0.7883192 0.1216154 0.6031274
vn 0.9127187 0.2926647 0.2851174
vn 0.9962996 0.07690929 0.03836669
vn 0.9822907 -0.1873629 0
vn 0.9671435 -0.004727904 -0.2541872
vn 0.971031 0.2382399 -0.01845524
vn 0.7375116 0.6753346 0
vt 0.3994483 0.9266912
vt 0.4281073 0.9139152
vt 0.4036918 0.9100657
vt 0.4086325 0.9779621
vt 0.3754421 0.9445595
vt 0.3566493 0.9556381
vt 0.3385992 0.9894954
vt 0.3826106 0.8900302
vt 0.3589984 0.8852562
vt 0.3697891 0.9133847
vt 0.3431306 0.8911971
vt 0.3303395 0.8687519
vt 0.3433883 0.8572035
vt 0.3316277 0.8547786
vt 0.3168057 0.8706767
vt 0.3061514 0.8492469
vt 0.326293 0.8374256
vt 0.3004984 0.8694946
vt 0.2797506 0.8697674
vt 0.3032112 0.8941979
vt 0.275598 0.9019272
vt 0.2670806 0.8926976
vt 0.2854642 0.9313288
vt 0.2647618 0.9284796
vt 0.3156538 0.9170069
vt 0.27531 0.9551228
vt 0.2526375 0.9555017
vt 0.3080306 0.9418618
vt 0.3165177 0.9534406
vt 0.2853732 0.9971186
vt 0.3372807 0.920038
vt 0.3399025 0.9596392
vt 0.3385992 0.9894954
vt 0.3566493 0.9556381
vt 0.3452827 0.9474542
vt 0.3543912 0.9214929
vt 0.3594076 0.9350267
vt 0.3754421 0.9445595
vt 0.3714713 0.9217354
vt 0.2932389 0.8313938
vt 0.326293 0.8374256
vt 0.2880861 0.802265
vt 0.3061514 0.8492469
vt 0.3316277 0.8547786
vt 0.3433883 0.8572035
vt 0.3571191 0.8064479
vt 0.2880861 0.802265
vt 0.3818983 0.8347886
vt 0.3461921 0.7789862
vt 0.4082233 0.8101913
vt 0.4120728 0.8481405
vt 0.4091629 0.7913228
vt 0.3754421 0.9445595
vt 0.3714713 0.9217354
vt 0.3594076 0.9350267
vt 0.3994483 0.9266912
vt 0.4036918 0.9100657
vt 0.3697891 0.9133847
vt 0.3826106 0.8900302
vt 0.4120728 0.8481405
vt 0.4281073 0.9139152
vt 0.4481579 0.8566124
vt 0.4082233 0.8101913
vt 0.440171 0.7980214
vt 0.4091629 0.7913228
vt 0.3595743 0.8638567
vt 0.3589984 0.8852562
vt 0.3818983 0.8347886
vt 0.3433883 0.8572035
vt 0.2432411 0.8703129
vt 0.2679596 0.8600982
vt 0.247227 0.8513838
vt 0.2670806 0.8926976
vt 0.2797506 0.8697674
vt 0.2526223 0.9134757
vt 0.275598 0.9019272
vt 0.2647618 0.9284796
vt 0.2234784 0.9527737
vt 0.2526375 0.9555017
vt 0.2853732 0.9971186
vt 0.27531 0.9551228
vt 0.2393007 0.8967592
vt 0.2234784 0.9527737
vt 0.2141881 0.8812097
vt 0.2059284 0.8951982
vt 0.1843167 0.8826495
vt 0.1910912 0.8641295
vt 0.1866203 0.9416345
vt 0.1655997 0.9062617
vt 0.2234784 0.9527737
vt 0.158219 0.9916475
vt 0.1466706 0.9529556
vt 0.03764228 0.8473373
vt 0.08450293 0.8285597
vt 0.0779103 0.7983397
vt 0.07604618 0.8584917
vt 0.1466706 0.9529556
vt 0.1866203 0.9416345
vt 0.1655997 0.9062617
vt 0.1208305 0.8802701
vt 0.1711315 0.8691157
vt 0.1843167 0.8826495
vt 0.1287568 0.8549302
vt 0.07090849 0.9085956
vt 0.1057054 0.9710057
vt 0.158219 0.9916475
vt 0.07604618 0.8584917
vt 0.03764228 0.8473373
vt 0.08450293 0.8285597
vt 0.1256197 0.8167839
vt 0.08450293 0.8285597
vt 0.1256197 0.8167839
vt 0.0779103 0.7983397
vt 0.1372894 0.7791378
vt 0.1388504 0.8025529
vt 0.1543544 0.8259075
vt 0.1287568 0.8549302
vt 0.1782394 0.7864124
vt 0.1905608 0.8223156
vt 0.1780575 0.8506867
vt 0.1711315 0.8691157
vt 0.1910912 0.8641295
vt 0.1843167 0.8826495
vt 0.2932389 0.8313938
vt 0.2797506 0.8697674
vt 0.3061514 0.8492469
vt 0.2679596 0.8600982
vt 0.2880861 0.802265
vt 0.247227 0.8513838
vt 0.2427864 0.7966272
vt 0.2140517 0.833955
vt 0.2198259 0.8626595
vt 0.2432411 0.8703129
vt 0.2141881 0.8812097
vt 0.1910912 0.8641295
vt 0.1780575 0.8506867
vt 0.1905608 0.8223156
vt 0.1782394 0.7864124
vt 0.1372894 0.7791378
vt 0.1388504 0.8025529
vt 0.1664484 0.758102
vt 0.2376336 0.7670892
vt 0.2022456 0.810358
vt 0.1905608 0.8223156
vt 0.2140517 0.833955
vt 0.2427864 0.7966272
vt 0.2880861 0.802265
f 1/1/1 2/2/2 3/3/3
f 1/1/1 4/4/4 2/2/2
f 1/1/1 5/5/5 4/4/4
f 5/5/5 6/6/6 4/4/4
f 6/6/6 7/7/7 4/4/4
f 8/8/8 9/9/9 10/10/10
f 9/9/9 11/11/11 10/10/10
f 9/9/9 12/12/12 11/11/11
f 13/13/13 12/12/12 9/9/9
f 14/14/14 12/12/12 13/13/13
f 12/12/12 14/14/14 15/15/15
f 12/12/12 15/15/15 11/11/11
f 16/16/16 15/15/15 14/14/14
f 17/17/17 16/16/16 14/14/14
f 18/18/18 15/15/15 16/16/16
f 16/16/16 19/19/19 18/18/18
f 15/15/15 18/18/18 20/20/20
f 20/20/20 11/11/11 15/15/15
f 18/18/18 19/19/19 21/21/21
f 20/20/20 18/18/18 21/21/21
f 19/19/19 22/22/22 21/21/21
f 21/21/21 23/23/23 20/20/20
f 23/23/23 21/21/21 24/24/24
f 25/25/25 11/11/11 20/20/20
f 23/23/23 25/25/25 20/20/20
f 26/26/26 23/23/23 24/24/24
f 24/24/24 27/27/27 26/26/26
f 23/23/23 26/26/26 28/28/28
f 28/28/28 25/25/25 23/23/23
f 26/26/26 29/29/29 28/28/28
f 29/29/29 25/25/25 28/28/28
f 26/26/26 30/30/30 29/29/29
f 25/25/25 31/31/31 11/11/11
f 31/31/31 25/25/25 29/29/29
f 29/29/29 30/30/30 32/32/32
f 30/30/30 33/33/33 32/32/32
f 32/32/32 33/33/33 34/34/34
f 29/29/29 32/32/32 35/35/35
f 29/29/29 35/35/35 31/31/31
f 32/32/32 34/34/34 35/35/35
f 11/11/11 31/31/31 36/36/36
f 31/31/31 35/35/35 36/36/36
f 10/10/10 11/11/11 36/36/36
f 34/34/34 37/37/37 35/35/35
f 36/36/36 35/35/35 37/37/37
f 36/36/36 37/37/37 10/10/10
f 38/38/38 37/37/37 34/34/34
f 10/10/10 37/37/37 39/39/39
f 40/40/40 41/41/41 42/42/42
f 43/43/43 41/41/41 40/40/40
f 41/41/41 44/44/44 45/45/45
f 41/41/41 45/45/45 46/46/46
f 41/41/41 46/46/46 47/47/47
f 48/48/48 46/46/46 45/45/45
f 47/47/47 46/46/46 49/49/49
f 50/50/50 46/46/46 48/48/48
f 46/46/46 50/50/50 49/49/49
f 50/50/50 48/48/48 51/51/51
f 50/50/50 52/52/52 49/49/49
f 53/53/53 54/54/54 55/55/55
f 56/56/56 54/54/54 53/53/53
f 57/57/57 54/54/54 56/56/56
f 57/57/57 58/58/58 54/54/54
f 59/59/59 58/58/58 57/57/57
f 60/60/60 59/59/59 57/57/57
f 61/61/61 60/60/60 57/57/57
f 62/62/62 60/60/60 61/61/61
f 62/62/62 63/63/63 60/60/60
f 64/64/64 63/63/63 62/62/62
f 64/64/64 65/65/65 63/63/63
f 59/59/59 60/60/60 66/66/66
f 59/59/59 66/66/66 67/67/67
f 66/66/66 60/60/60 68/68/68
f 66/66/66 69/69/69 67/67/67
f 66/66/66 68/68/68 69/69/69
f 70/70/70 71/71/71 72/72/72
f 73/73/73 71/71/71 70/70/70
f 71/71/71 73/73/73 74/74/74
f 75/75/75 73/73/73 70/70/70
f 73/73/73 75/75/75 76/76/76
f 77/77/77 76/76/76 75/75/75
f 78/78/78 77/77/77 75/75/75
f 79/79/79 77/77/77 78/78/78
f 79/79/79 78/78/78 80/80/80
f 81/81/81 79/79/79 80/80/80
f 82/82/82 75/75/75 70/70/70
f 75/75/75 82/82/82 83/83/83
f 70/70/70 84/84/84 82/82/82
f 82/82/82 85/85/85 83/83/83
f 82/82/82 84/84/84 85/85/85
f 84/84/84 86/86/86 85/85/85
f 87/87/87 86/86/86 84/84/84
f 88/88/88 85/85/85 86/86/86
f 86/86/86 89/89/89 88/88/88
f 85/85/85 88/88/88 90/90/90
f 91/91/91 90/90/90 88/88/88
f 91/91/91 88/88/88 92/92/92
f 93/93/93 94/94/94 95/95/95
f 96/96/96 94/94/94 93/93/93
f 97/97/97 98/98/98 99/99/99
f 97/97/97 99/99/99 100/100/100
f 99/99/99 101/101/101 100/100/100
f 99/99/99 102/102/102 101/101/101
f 100/100/100 101/101/101 103/103/103
f 100/100/100 104/104/104 97/97/97
f 105/105/105 97/97/97 104/104/104
f 106/106/106 97/97/97 105/105/105
f 107/107/107 104/104/104 100/100/100
f 103/103/103 107/107/107 100/100/100
f 107/107/107 108/108/108 104/104/104
f 109/109/109 107/107/107 103/103/103
f 103/103/103 110/110/110 109/109/109
f 111/111/111 112/112/112 113/113/113
f 113/113/113 112/112/112 114/114/114
f 114/114/114 112/112/112 115/115/115
f 116/116/116 115/115/115 112/112/112
f 116/116/116 112/112/112 117/117/117
f 115/115/115 116/116/116 118/118/118
f 118/118/118 116/116/116 119/119/119
f 119/119/119 116/116/116 120/120/120
f 121/121/121 116/116/116 117/117/117
f 120/120/120 116/116/116 121/121/121
f 121/121/121 122/122/122 120/120/120
f 123/123/123 122/122/122 121/121/121
f 124/124/124 125/125/125 126/126/126
f 127/127/127 125/125/125 124/124/124
f 128/128/128 127/127/127 124/124/124
f 129/129/129 127/127/127 128/128/128
f 129/129/129 128/128/128 130/130/130
f 129/129/129 130/130/130 131/131/131
f 129/129/129 131/131/131 132/132/132
f 133/133/133 129/129/129 132/132/132
f 133/133/133 132/132/132 134/134/134
f 132/132/132 135/135/135 134/134/134
f 131/131/131 135/135/135 132/132/132
f 135/135/135 131/131/131 136/136/136
f 136/136/136 131/131/131 137/137/137
f 138/138/138 139/139/139 140/140/140
f 141/141/141 139/139/139 138/138/138
f 141/141/141 138/138/138 142/142/142
f 138/138/138 143/143/143 142/142/142
f 138/138/138 144/144/144 143/143/143
f 143/143/143 144/144/144 145/145/145
f 145/145/145 146/146/146 143/143/143
f 142/142/142 143/143/143 146/146/146
f 147/147/147 142/142/142 146/146/146
