v -0.5874999 0.878634 0.2437519
v -0.4012673 0.7502921 0.4892361
v -0.3736814 0.9446875 0.3154763
v -0.5982059 0.6283591 0.4384013
v -0.231311 0.2517486 0.5425965
v -0.5087437 0.09320264 0.3047927
v -0.3108979 0.04412337 0.3985999
v 0.003200545 0.5914889 0.4952281
v 0.2618108 0.06304007 0.4189495
v 0.469968 0.3553528 0.341821
v 0.4878688 0.1959442 0.2603891
v 0.4878688 0.1959442 0.2603891
v 0.2618108 0.06304007 0.4189495
v 0.5316526 0.1746505 -0.25029
v -0.1139146 -0.0566885 0.07956702
v -0.3108979 0.04412337 0.3985999
v -0.5087437 0.09320264 0.3047927
v 0.1075699 -0.03403702 -0.3399343
v -0.4790268 0.06118067 -0.2504609
v -0.1414367 0.1345935 -0.5306252
v -0.6496221 0.8490465 -0.03089488
v -0.3486929 0.7742694 -0.3870775
v -0.677379 0.4548692 -0.2352758
v -0.3292059 0.3812502 -0.5293904
v -0.4790268 0.06118067 -0.2504609
v -0.1414367 0.1345935 -0.5306252
v 0.05403219 0.6229262 -0.4885522
v 0.4134272 0.2866396 -0.4658832
v 0.2670456 0.6650663 -0.3554948
v -0.3736814 0.9446875 0.3154763
v -0.6496221 0.8490465 -0.03089488
v -0.5874999 0.878634 0.2437519
v -0.2224964 0.9976405 -0.1278777
v -0.3486929 0.7742694 -0.3870775
v 0.05403219 0.6229262 -0.4885522
v 0.2670456 0.6650663 -0.3554948
v -0.3736814 0.9446875 0.3154763
v -0.4012673 0.7502921 0.4892361
v 0.003200545 0.5914889 0.4952281
v 0.1062616 0.8480321 0.04408343
v -0.2224964 0.9976405 -0.1278777
v 0.469968 0.3553528 0.341821
v 0.2670456 0.6650663 -0.3554948
v 0.3971526 0.5779491 -0.05004801
v 0.4878688 0.1959442 0.2603891
v 0.4134272 0.2866396 -0.4658832
v 0.5316526 0.1746505 -0.25029
v 0.4134272 0.2866396 -0.4658832
v 0.1075699 -0.03403702 -0.3399343
v -0.1414367 0.1345935 -0.5306252
v 0.5316526 0.1746505 -0.25029
v -0.5874999 0.878634 0.2437519
v -0.6496221 0.8490465 -0.03089488
v -0.5982059 0.6283591 0.4384013
v -0.677379 0.4548692 -0.2352758
v -0.5087437 0.09320264 0.3047927
v -0.4790268 0.06118067 -0.2504609
vn -0.6730793 0.6838256 0.2816858
vn -0.1510452 0.4362432 0.8870611
vn -0.04356757 0.8911037 0.4517034
vn -0.757526 0.07734474 0.6482069
vn -0.1299335 -0.2393304 0.9622049
vn -0.6903524 -0.6193405 0.3739397
vn -0.2642805 -0.7709607 0.5794613
vn 0.3326041 0.403616 0.8523313
vn 0.3825044 -0.6577253 0.6489128
vn 0.8047378 0.2289649 0.5476971
vn 0.8891845 -0.3736774 0.2640381
vn 0.8891845 -0.3736774 0.2640381
vn 0.3825044 -0.6577253 0.6489128
vn 0.8987808 -0.3717581 -0.2323554
vn -0.01861741 -0.9974313 0.06916724
vn -0.2642805 -0.7709607 0.5794613
vn -0.6903524 -0.6193405 0.3739397
vn 0.2097725 -0.9072269 -0.3646023
vn -0.607825 -0.7153026 -0.3448057
vn -0.1241758 -0.4638818 -0.8771511
vn -0.7997493 0.5744287 -0.1744498
vn -0.3084231 0.5686709 -0.7625539
vn -0.9187424 -0.05700227 -0.3907214
vn -0.3736774 -0.01094044 -0.9274942
vn -0.607825 -0.7153026 -0.3448057
vn -0.1241758 -0.4638818 -0.8771511
vn 0.1637107 0.4420009 -0.881949
vn 0.6435214 -0.0493253 -0.7638371
vn 0.5974596 0.6435214 -0.4784581
vn -0.04356757 0.8911037 0.4517034
vn -0.7997493 0.5744287 -0.1744498
vn -0.6730793 0.6838256 0.2816858
vn 0.04471761 0.9659542 -0.254819
vn -0.3084231 0.5686709 -0.7625539
vn 0.1637107 0.4420009 -0.881949
vn 0.5974596 0.6435214 -0.4784581
vn -0.04356757 0.8911037 0.4517034
vn -0.1510452 0.4362432 0.8870611
vn 0.3326041 0.403616 0.8523313
vn 0.5322053 0.8277687 0.1776411
vn 0.04471761 0.9659542 -0.254819
vn 0.8047378 0.2289649 0.5476971
vn 0.5974596 0.6435214 -0.4784581
vn 0.8369461 0.5472854 0
vn 0.8891845 -0.3736774 0.2640381
vn 0.6435214 -0.0493253 -0.7638371
vn 0.8987808 -0.3717581 -0.2323554
vn 0.6435214 -0.0493253 -0.7638371
vn 0.2097725 -0.9072269 -0.3646023
vn -0.1241758 -0.4638818 -0.8771511
vn 0.8987808 -0.3717581 -0.2323554
vn -0.6730793 0.6838256 0.2816858
vn -0.7997493 0.5744287 -0.1744498
vn -0.757526 0.07734474 0.6482069
vn -0.9187424 -0.05700227 -0.3907214
vn -0.6903524 -0.6193405 0.3739397
vn -0.607825 -0.7153026 -0.3448057
vt 0.2916299 0.5955101
vt 0.2754278 0.601548
vt 0.2877918 0.6062964
vt 0.2767932 0.587758
vt 0.2382449 0.6006226
vt 0.216809 0.5437635
vt 0.2145941 0.5877731
vt 0.2616075 0.6250926
vt 0.214139 0.6481062
vt 0.2460122 0.6676003
vt 0.2267305 0.6884142
vt 0.2267305 0.6884142
vt 0.214139 0.6481062
vt 0.1413965 0.7240801
vt 0.1683999 0.6073886
vt 0.2145941 0.5877731
vt 0.216809 0.5437635
vt 0.1103728 0.6469381
vt 0.1174271 0.5368306
vt 0.05685128 0.6088601
vt 0.3071948 0.5920512
vt 0.3302995 0.6063418
vt 0.32634 0.5645775
vt 0.3682409 0.592294
vt 0.3565293 0.5191873
vt 0.4169382 0.6054013
vt 0.3488985 0.6422504
vt 0.3631436 0.7197565
vt 0.3280542 0.6651731
vt 0.2877918 0.6062964
vt 0.3071948 0.5920512
vt 0.2916299 0.5955101
vt 0.308727 0.6163392
vt 0.3302995 0.6063418
vt 0.3488985 0.6422504
vt 0.3280542 0.6651731
vt 0.2877918 0.6062964
vt 0.2754278 0.601548
vt 0.2616075 0.6250926
vt 0.2960597 0.6375628
vt 0.308727 0.6163392
vt 0.2460122 0.6676003
vt 0.3280542 0.6651731
vt 0.2943909 0.6767633
vt 0.2267305 0.6884142
vt 0.3631436 0.7197565
vt 0.3120646 0.7395843
vt 0.08629721 0.7262798
vt 0.1103728 0.6469381
vt 0.05685128 0.6088601
vt 0.1413965 0.7240801
vt 0.2916299 0.5955101
vt 0.3071948 0.5920512
vt 0.2767932 0.587758
vt 0.32634 0.5645775
vt 0.216809 0.5437635
vt 0.3565293 0.5191873
f 1/1/1 2/2/2 3/3/3
f 4/4/4 2/2/2 1/1/1
f 4/4/4 5/5/5 2/2/2
f 6/6/6 5/5/5 4/4/4
f 7/7/7 5/5/5 6/6/6
f 2/2/2 5/5/5 8/8/8
f 5/5/5 7/7/7 9/9/9
f 9/9/9 8/8/8 5/5/5
f 8/8/8 9/9/9 10/10/10
f 11/11/11 10/10/10 9/9/9
f 12/12/12 13/13/13 14/14/14
f 15/15/15 14/14/14 13/13/13
f 13/13/13 16/16/16 15/15/15
f 15/15/15 16/16/16 17/17/17
f 18/18/18 14/14/14 15/15/15
f 15/15/15 17/17/17 19/19/19
f 18/18/18 15/15/15 19/19/19
f 20/20/20 18/18/18 19/19/19
f 21/21/21 22/22/22 23/23/23
f 22/22/22 24/24/24 23/23/23
f 25/25/25 23/23/23 24/24/24
f 26/26/26 25/25/25 24/24/24
f 24/24/24 22/22/22 27/27/27
f 27/27/27 26/26/26 24/24/24
f 28/28/28 26/26/26 27/27/27
f 27/27/27 29/29/29 28/28/28
f 30/30/30 31/31/31 32/32/32
f 33/33/33 31/31/31 30/30/30
f 34/34/34 31/31/31 33/33/33
f 33/33/33 35/35/35 34/34/34
f 36/36/36 35/35/35 33/33/33
f 37/37/37 38/38/38 39/39/39
f 37/37/37 39/39/39 40/40/40
f 37/37/37 40/40/40 41/41/41
f 40/40/40 39/39/39 42/42/42
f 40/40/40 43/43/43 41/41/41
f 44/44/44 40/40/40 42/42/42
f 44/44/44 43/43/43 40/40/40
f 42/42/42 45/45/45 44/44/44
f 43/43/43 44/44/44 46/46/46
f 44/44/44 45/45/45 47/47/47
f 46/46/46 44/44/44 47/47/47
f 48/48/48 49/49/49 50/50/50
f 49/49/49 48/48/48 51/51/51
f 52/52/52 53/53/53 54/54/54
f 55/55/55 54/54/54 53/53/53
f 56/56/56 54/54/54 55/55/55
f 55/55/55 57/57/57 56/56/56
