v 0.780505 0.1737977 -0.2298495
v 0.5232551 0.3089865 -0.3985383
v 0.7428122 0.3403894 -0.1790247
v -0.7325075 0.1241359 0.1509779
v -0.4416229 0.04004597 0.3754791
v -0.3979531 0.2263201 0.4519814
v -0.3979531 0.2263201 0.4519814
v -0.6030459 0.3259116 0.1926329
v -0.7890804 0.2098769 -0.03014848
v 0.6190536 -0.01840549 -0.2604142
v 0.780505 0.1737977 -0.2298495
v 0.7564053 0.0554997 0.2516262
v 0.2339466 0.3188898 0.4185697
v -0.6030459 0.3259116 0.1926329
v -0.3979531 0.2263201 0.4519814
v 0.3382578 0.4342719 0.003140521
v 0.5792202 0.3663257 0.3005112
v 0.7428122 0.3403894 -0.1790247
v 0.7620156 0.3363927 0.159275
v 0.5232551 0.3089865 -0.3985383
v 0.1059144 0.3313513 -0.456391
v -0.3947857 0.3582232 -0.2770984
v -0.7890804 0.2098769 -0.03014848
v -0.2852968 0.201701 -0.4630013
v -0.6573375 0.1771387 -0.2565792
v 0.6431353 0.2096344 0.4111018
v 0.7564053 0.0554997 0.2516262
v 0.7620156 0.3363927 0.159275
v 0.780505 0.1737977 -0.2298495
v 0.7428122 0.3403894 -0.1790247
v -0.2664436 0.06829349 -0.4019377
v -0.6573375 0.1771387 -0.2565792
v -0.2852968 0.201701 -0.4630013
v -0.04953301 0.005471155 -0.4020111
v 0.1059144 0.3313513 -0.456391
v 0.5780422 0.09132142 -0.3848898
v 0.5232551 0.3089865 -0.3985383
v 0.780505 0.1737977 -0.2298495
v 0.6190536 -0.01840549 -0.2604142
v -0.04953301 0.005471155 -0.4020111
v 0.5780422 0.09132142 -0.3848898
v 0.6190536 -0.01840549 -0.2604142
v 0.4745483 -0.05192651 0.3582711
v 0.7564053 0.0554997 0.2516262
v -0.594596 -0.01201534 0.02099973
v -0.4416229 0.04004597 0.3754791
v -0.2664436 0.06829349 -0.4019377
v -0.7325075 0.1241359 0.1509779
v -0.6573375 0.1771387 -0.2565792
v -0.7890804 0.2098769 -0.03014848
v -0.3979531 0.2263201 0.4519814
v 0.08285359 0.1625592 0.4984908
v 0.2339466 0.3188898 0.4185697
v 0.5792202 0.3663257 0.3005112
v 0.6431353 0.2096344 0.4111018
v 0.7620156 0.3363927 0.159275
v -0.3979531 0.2263201 0.4519814
v -0.4416229 0.04004597 0.3754791
v 0.08285359 0.1625592 0.4984908
v 0.4745483 -0.05192651 0.3582711
v 0.6431353 0.2096344 0.4111018
v 0.7564053 0.0554997 0.2516262
vn 0.8988067 -0.1141739 -0.4232149
vn 0.2960254 0.5598626 -0.773901
vn 0.6523019 0.7004473 -0.2896132
vn -0.8613915 -0.2817202 0.4226563
vn -0.3568271 -0.6707355 0.6502217
vn -0.3298656 0.3364676 0.8820307
vn -0.3298656 0.3364676 0.8820307
vn -0.5012635 0.7871092 0.3594357
vn -0.9711632 0.1804763 -0.1557894
vn 0.4096487 -0.8382818 -0.3598216
vn 0.8988067 -0.1141739 -0.4232149
vn 0.8025157 -0.4916344 0.3380297
vn 0.1034436 0.6850408 0.7211232
vn -0.5012635 0.7871092 0.3594357
vn -0.3298656 0.3364676 0.8820307
vn 0.04566902 0.9989492 0.003836971
vn 0.2382509 0.8487354 0.4721068
vn 0.6523019 0.7004473 -0.2896132
vn 0.7562961 0.6253404 0.1922643
vn 0.2960254 0.5598626 -0.773901
vn 0.03218829 0.5598626 -0.82796
vn -0.2971267 0.8679936 -0.3978729
vn -0.9711632 0.1804763 -0.1557894
vn -0.2759427 0.1111468 -0.9547262
vn -0.7304359 -0.06025101 -0.6803185
vn 0.4866815 0.1535149 0.8599851
vn 0.8025157 -0.4916344 0.3380297
vn 0.7562961 0.6253404 0.1922643
vn 0.8988067 -0.1141739 -0.4232149
vn 0.6523019 0.7004473 -0.2896132
vn -0.283646 -0.6707355 -0.6853166
vn -0.7304359 -0.06025101 -0.6803185
vn -0.2759427 0.1111468 -0.9547262
vn -0.01980882 -0.7554715 -0.654882
vn 0.03218829 0.5598626 -0.82796
vn 0.374984 -0.3375689 -0.8633853
vn 0.2960254 0.5598626 -0.773901
vn 0.8988067 -0.1141739 -0.4232149
vn 0.4096487 -0.8382818 -0.3598216
vn -0.01980882 -0.7554715 -0.654882
vn 0.374984 -0.3375689 -0.8633853
vn 0.4096487 -0.8382818 -0.3598216
vn 0.1978087 -0.824801 0.5296933
vn 0.8025157 -0.4916344 0.3380297
vn -0.4223049 -0.9037595 -0.06983745
vn -0.3568271 -0.6707355 0.6502217
vn -0.283646 -0.6707355 -0.6853166
vn -0.8613915 -0.2817202 0.4226563
vn -0.7304359 -0.06025101 -0.6803185
vn -0.9711632 0.1804763 -0.1557894
vn -0.3298656 0.3364676 0.8820307
vn 0.007152643 -0.07180592 0.997393
vn 0.1034436 0.6850408 0.7211232
vn 0.2382509 0.8487354 0.4721068
vn 0.4866815 0.1535149 0.8599851
vn 0.7562961 0.6253404 0.1922643
vn -0.3298656 0.3364676 0.8820307
vn -0.3568271 -0.6707355 0.6502217
vn 0.007152643 -0.07180592 0.997393
vn 0.1978087 -0.824801 0.5296933
vn 0.4866815 0.1535149 0.8599851
vn 0.8025157 -0.4916344 0.3380297
vt 0.5203584 0.8803847
vt 0.5520771 0.9161391
vt 0.5468454 0.8781276
vt 0.7638388 0.9081123
vt 0.7820448 0.8648542
vt 0.7674561 0.8485763
vt 0.7360364 0.8521488
vt 0.7357823 0.9044054
vt 0.7562006 0.9316248
vt 0.9359596 0.8630455
vt 0.9687993 0.8538378
vt 0.9253618 0.795662
vt 0.6446471 0.8206095
vt 0.7357823 0.9044054
vt 0.7360364 0.8521488
vt 0.6074278 0.8801455
vt 0.589416 0.8260055
vt 0.5468454 0.8781276
vt 0.5584447 0.8357364
vt 0.5520771 0.9161391
vt 0.6133919 0.9500999
vt 0.6934807 0.9489938
vt 0.7562006 0.9316248
vt 0.6721805 0.9780967
vt 0.7400273 0.9553316
vt 0.5808361 0.7953182
vt 0.5383104 0.8052883
vt 0.5584447 0.8357364
vt 0.5203584 0.8803847
vt 0.5468454 0.8781276
vt 0.8511921 0.9428504
vt 0.7943317 0.9516246
vt 0.8552579 0.9613853
vt 0.8784714 0.9231645
vt 0.9347787 0.9368714
vt 0.9447338 0.8814011
vt 0.9648681 0.8995175
vt 0.9687993 0.8538378
vt 0.9359596 0.8630455
vt 0.8784714 0.9231645
vt 0.9447338 0.8814011
vt 0.9359596 0.8630455
vt 0.881132 0.8109086
vt 0.9253618 0.795662
vt 0.7946606 0.9096519
vt 0.7820448 0.8648542
vt 0.8511921 0.9428504
vt 0.7638388 0.9081123
vt 0.7943317 0.9516246
vt 0.7562006 0.9316248
vt 0.7360364 0.8521488
vt 0.6760669 0.8048398
vt 0.6446471 0.8206095
vt 0.589416 0.8260055
vt 0.5808361 0.7953182
vt 0.5584447 0.8357364
vt 0.7674561 0.8485763
vt 0.7820448 0.8648542
vt 0.8248097 0.803659
vt 0.881132 0.8109086
vt 0.9004891 0.7689658
vt 0.9253618 0.795662
f 1/1/1 2/2/2 3/3/3
f 4/4/4 5/5/5 6/6/6
f 4/4/4 7/7/7 8/8/8
f 9/9/9 4/4/4 8/8/8
f 10/10/10 11/11/11 12/12/12
f 13/13/13 14/14/14 15/15/15
f 16/16/16 14/14/14 13/13/13
f 17/17/17 16/16/16 13/13/13
f 16/16/16 17/17/17 18/18/18
f 18/18/18 17/17/17 19/19/19
f 20/20/20 16/16/16 18/18/18
f 21/21/21 16/16/16 20/20/20
f 16/16/16 22/22/22 14/14/14
f 16/16/16 21/21/21 22/22/22
f 14/14/14 22/22/22 23/23/23
f 21/21/21 24/24/24 22/22/22
f 22/22/22 25/25/25 23/23/23
f 22/22/22 24/24/24 25/25/25
f 26/26/26 27/27/27 28/28/28
f 28/28/28 27/27/27 29/29/29
f 30/30/30 28/28/28 29/29/29
f 31/31/31 32/32/32 33/33/33
f 31/31/31 33/33/33 34/34/34
f 33/33/33 35/35/35 34/34/34
f 34/34/34 35/35/35 36/36/36
f 35/35/35 37/37/37 36/36/36
f 36/36/36 37/37/37 38/38/38
f 38/38/38 39/39/39 36/36/36
f 40/40/40 41/41/41 42/42/42
f 40/40/40 42/42/42 43/43/43
f 43/43/43 42/42/42 44/44/44
f 45/45/45 40/40/40 43/43/43
f 45/45/45 43/43/43 46/46/46
f 40/40/40 45/45/45 47/47/47
f 46/46/46 48/48/48 45/45/45
f 49/49/49 47/47/47 45/45/45
f 45/45/45 48/48/48 50/50/50
f 50/50/50 49/49/49 45/45/45
f 51/51/51 52/52/52 53/53/53
f 52/52/52 54/54/54 53/53/53
f 55/55/55 54/54/54 52/52/52
f 56/56/56 54/54/54 55/55/55
f 57/57/57 58/58/58 59/59/59
f 59/59/59 58/58/58 60/60/60
f 59/59/59 60/60/60 61/61/61
f 61/61/61 60/60/60 62/62/62
