v -0.2932521 1.109236 0.4576477
v -0.2746922 1.11967 0.4731136
v -0.2561322 1.109236 0.4576477
v 0.2568571 1.109236 0.4576477
v 0.2754171 1.11967 0.4731136
v 0.293977 1.109236 0.4576477
v 0.2949015 1.207364 -0.006332258
v 0.2949015 -0.003190992 0.02307972
v 0.2949015 -0.003192423 -0.006332258
v 0.2949015 1.207364 0.02307829
v -0.2930332 1.207364 -0.006332258
v 0.2949015 -0.003192423 -0.006332258
v -0.2930332 -0.003192423 -0.006332258
v 0.2949015 1.207364 -0.006332258
v -0.2930332 1.207364 0.02307829
v -0.2930332 -0.003192423 -0.006332258
v -0.2930332 -0.003190992 0.02307972
v -0.2930332 1.207364 -0.006332258
v 0.2949015 1.207364 0.02307829
v -0.2930332 -0.003190992 0.02307972
v 0.2949015 -0.003190992 0.02307972
v -0.2930332 1.207364 0.02307829
v 0.2949015 -0.003192423 -0.006332258
v -0.2930332 -0.003190992 0.02307972
v -0.2930332 -0.003192423 -0.006332258
v 0.2949015 -0.003190992 0.02307972
v -0.2930332 1.207364 -0.006332258
v 0.2949015 1.207364 0.02307829
v 0.2949015 1.207364 -0.006332258
v -0.2930332 1.207364 0.02307829
v -0.1705553 0.2022363 0.4671917
v -0.2617951 0.1255508 0.4821481
v -0.2617951 0.1255508 0.4671917
v -0.1705553 0.2022363 0.4821481
v -0.1965484 0.2153466 0.4671917
v -0.2617951 0.1255508 0.4671917
v -0.2857188 0.1411584 0.4671917
v -0.1705553 0.2022363 0.4671917
v -0.1965484 0.2153466 0.4671917
v -0.2857188 0.1411584 0.4821481
v -0.1965484 0.2153466 0.4821481
v -0.2857188 0.1411584 0.4671917
v -0.1965484 0.2153466 0.4821481
v -0.2617951 0.1255508 0.4821481
v -0.1705553 0.2022363 0.4821481
v -0.2857188 0.1411584 0.4821481
v -0.2561322 -0.005314745 0.4576477
v -0.2932521 -0.005314745 0.4885809
v -0.2932521 -0.005314745 0.4576477
v -0.2561322 -0.005314745 0.4885809
v -0.2561322 1.109236 0.4885809
v -0.2932521 -0.005314745 0.4885809
v -0.2561322 -0.005314745 0.4885809
v -0.2932521 1.109236 0.4885809
v -0.2932521 1.109236 0.4885809
v -0.2932521 -0.005314745 0.4576477
v -0.2932521 -0.005314745 0.4885809
v -0.2932521 1.109236 0.4576477
v -0.2932521 1.109236 0.4576477
v -0.2561322 -0.005314745 0.4576477
v -0.2932521 -0.005314745 0.4576477
v -0.2561322 1.109236 0.4576477
v -0.2561322 1.109236 0.4576477
v -0.2561322 -0.005314745 0.4885809
v -0.2561322 -0.005314745 0.4576477
v -0.2561322 1.109236 0.4885809
v -0.2932521 1.109236 0.4885809
v -0.2746922 1.11967 0.4731136
v -0.2932521 1.109236 0.4576477
v -0.2561322 1.109236 0.4885809
v -0.2561322 1.109236 0.4576477
v 0.2794542 1.08727 0.01638217
v 0.2794542 1.050809 0.4774441
v 0.2794542 1.050809 0.01638217
v 0.2794542 1.08727 0.4774441
v -0.2738221 1.08727 0.01638217
v 0.2794542 1.050809 0.01638217
v -0.2738221 1.050809 0.01638217
v 0.2794542 1.08727 0.01638217
v -0.2738221 1.08727 0.4774441
v -0.2738221 1.050809 0.01638217
v -0.2738221 1.050809 0.4774441
v -0.2738221 1.08727 0.01638217
v 0.2794542 1.08727 0.4774441
v -0.2738221 1.050809 0.4774441
v 0.2794542 1.050809 0.4774441
v -0.2738221 1.08727 0.4774441
v 0.2794542 1.050809 0.01638217
v -0.2738221 1.050809 0.4774441
v -0.2738221 1.050809 0.01638217
v 0.2794542 1.050809 0.4774441
v -0.2738221 1.08727 0.01638217
v 0.2794542 1.08727 0.4774441
v 0.2794542 1.08727 0.01638217
v -0.2738221 1.08727 0.4774441
v 0.2794542 0.5642532 0.01638217
v 0.2794542 0.5380383 0.4774441
v 0.2794542 0.5380383 0.01638217
v 0.2794542 0.5642532 0.4774441
v -0.2738221 0.5642532 0.01638217
v 0.2794542 0.5380383 0.01638217
v -0.2738221 0.5380383 0.01638217
v 0.2794542 0.5642532 0.01638217
v -0.2738221 0.5642532 0.4774441
v -0.2738221 0.5380383 0.01638217
v -0.2738221 0.5380383 0.4774441
v -0.2738221 0.5642532 0.01638217
v 0.2794542 0.5642532 0.4774441
v -0.2738221 0.5380383 0.4774441
v 0.2794542 0.5380383 0.4774441
v -0.2738221 0.5642532 0.4774441
v 0.2794542 0.5380383 0.01638217
v -0.2738221 0.5380383 0.4774441
v -0.2738221 0.5380383 0.01638217
v 0.2794542 0.5380383 0.4774441
v -0.2738221 0.5642532 0.01638217
v 0.2794542 0.5642532 0.4774441
v 0.2794542 0.5642532 0.01638217
v -0.2738221 0.5642532 0.4774441
v 0.2794542 0.2273135 -0.01735602
v 0.2788746 0.1974936 0.5001227
v 0.2794542 0.1974936 -0.01735602
v 0.2788746 0.2273135 0.5001227
v -0.2738221 0.2273135 -0.01735602
v 0.2794542 0.1974936 -0.01735602
v -0.2738221 0.1974936 -0.01735602
v 0.2794542 0.2273135 -0.01735602
v -0.2744017 0.2273135 0.5001227
v -0.2738221 0.1974936 -0.01735602
v -0.2744017 0.1974936 0.5001227
v -0.2738221 0.2273135 -0.01735602
v 0.2788746 0.2273135 0.5001227
v -0.2744017 0.1974936 0.5001227
v 0.2788746 0.1974936 0.5001227
v -0.2744017 0.2273135 0.5001227
v 0.2788746 0.1974936 0.5001227
v -0.2738221 0.1974936 -0.01735602
v 0.2794542 0.1974936 -0.01735602
v -0.2744017 0.1974936 0.5001227
v -0.2738221 0.2273135 -0.01735602
v 0.2788746 0.2273135 0.5001227
v 0.2794542 0.2273135 -0.01735602
v -0.2744017 0.2273135 0.5001227
v 0.293977 -0.005314745 0.4576477
v 0.2568571 -0.005314745 0.4885809
v 0.2568571 -0.005314745 0.4576477
v 0.293977 -0.005314745 0.4885809
v 0.293977 1.109236 0.4885809
v 0.2568571 -0.005314745 0.4885809
v 0.293977 -0.005314745 0.4885809
v 0.2568571 1.109236 0.4885809
v 0.2568571 1.109236 0.4885809
v 0.2568571 -0.005314745 0.4576477
v 0.2568571 -0.005314745 0.4885809
v 0.2568571 1.109236 0.4576477
v 0.2568571 1.109236 0.4576477
v 0.293977 -0.005314745 0.4576477
v 0.2568571 -0.005314745 0.4576477
v 0.293977 1.109236 0.4576477
v 0.293977 1.109236 0.4576477
v 0.293977 -0.005314745 0.4885809
v 0.293977 -0.005314745 0.4576477
v 0.293977 1.109236 0.4885809
v 0.2568571 1.109236 0.4885809
v 0.2754171 1.11967 0.4731136
v 0.2568571 1.109236 0.4576477
v 0.293977 1.109236 0.4885809
v 0.293977 1.109236 0.4576477
v 0.2586088 0.1255508 0.4821481
v 0.1673704 0.2022363 0.4671917
v 0.2586088 0.1255508 0.4671917
v 0.1673704 0.2022363 0.4821481
v 0.2586088 0.1255508 0.4671917
v 0.1933635 0.2153466 0.4671917
v 0.2825339 0.1411584 0.4671917
v 0.1673704 0.2022363 0.4671917
v 0.1933635 0.2153466 0.4671917
v 0.2825339 0.1411584 0.4821481
v 0.2825339 0.1411584 0.4671917
v 0.1933635 0.2153466 0.4821481
v 0.1933635 0.2153466 0.4821481
v 0.2586088 0.1255508 0.4821481
v 0.2825339 0.1411584 0.4821481
v 0.1673704 0.2022363 0.4821481
vn -0.1827957 0.5816227 -0.7926543
vn 0.0009775166 0.9999995 0
vn 0.1827957 0.5816227 -0.7926543
vn -0.1827957 0.5816227 -0.7926543
vn 0.0009775166 0.9999995 0
vn 0.1827957 0.5816227 -0.7926543
vn 0.9999995 0.0009775166 0
vn 0.9999995 0.0009775166 0
vn 0.9999995 0.0009775166 0
vn 0.9999995 0.0009775166 0
vn 0.0009775171 0.0009775171 -0.999999
vn 0.0009775171 0.0009775171 -0.999999
vn 0.0009775171 0.0009775171 -0.999999
vn 0.0009775171 0.0009775171 -0.999999
vn -0.9999995 0.0009775166 0
vn -0.9999995 0.0009775166 0
vn -0.9999995 0.0009775166 0
vn -0.9999995 0.0009775166 0
vn 0.0009775171 0.0009775171 0.999999
vn 0.0009775171 0.0009775171 0.999999
vn 0.0009775171 0.0009775171 0.999999
vn 0.0009775171 0.0009775171 0.999999
vn 0.0009775166 -0.9999995 0
vn 0.0009775166 -0.9999995 0
vn 0.0009775166 -0.9999995 0
vn 0.0009775166 -0.9999995 0
vn 0.0009775166 0.9999995 0
vn 0.0009775166 0.9999995 0
vn 0.0009775166 0.9999995 0
vn 0.0009775166 0.9999995 0
vn 0.6439251 -0.7650885 0
vn 0.6439251 -0.7650885 0
vn 0.6439251 -0.7650885 0
vn 0.6439251 -0.7650885 0
vn 0.0009775171 0.0009775171 -0.999999
vn 0.0009775171 0.0009775171 -0.999999
vn 0.0009775171 0.0009775171 -0.999999
vn 0.0009775171 0.0009775171 -0.999999
vn -0.639704 0.7686214 0
vn -0.639704 0.7686214 0
vn -0.639704 0.7686214 0
vn -0.639704 0.7686214 0
vn 0.0009775171 0.0009775171 0.999999
vn 0.0009775171 0.0009775171 0.999999
vn 0.0009775171 0.0009775171 0.999999
vn 0.0009775171 0.0009775171 0.999999
vn 0.0009775166 -0.9999995 0
vn 0.0009775166 -0.9999995 0
vn 0.0009775166 -0.9999995 0
vn 0.0009775166 -0.9999995 0
vn 0.1827957 0.5816227 0.7926543
vn 0.0009775171 0.0009775171 0.999999
vn 0.0009775171 0.0009775171 0.999999
vn -0.1827957 0.5816227 0.7926543
vn -0.9999995 0.0009775166 0
vn -0.9999995 0.0009775166 0
vn -0.9999995 0.0009775166 0
vn -0.9999995 0.0009775166 0
vn -0.1827957 0.5816227 -0.7926543
vn 0.0009775171 0.0009775171 -0.999999
vn 0.0009775171 0.0009775171 -0.999999
vn 0.1827957 0.5816227 -0.7926543
vn 0.9999995 0.0009775166 0
vn 0.9999995 0.0009775166 0
vn 0.9999995 0.0009775166 0
vn 0.9999995 0.0009775166 0
vn -0.1827957 0.5816227 0.7926543
vn 0.0009775166 0.9999995 0
vn -0.1827957 0.5816227 -0.7926543
vn 0.1827957 0.5816227 0.7926543
vn 0.1827957 0.5816227 -0.7926543
vn 0.9999995 0.0009775166 0
vn 0.9999995 0.0009775166 0
vn 0.9999995 0.0009775166 0
vn 0.9999995 0.0009775166 0
vn 0.0009775171 0.0009775171 -0.999999
vn 0.0009775171 0.0009775171 -0.999999
vn 0.0009775171 0.0009775171 -0.999999
vn 0.0009775171 0.0009775171 -0.999999
vn -0.9999995 0.0009775166 0
vn -0.9999995 0.0009775166 0
vn -0.9999995 0.0009775166 0
vn -0.9999995 0.0009775166 0
vn 0.0009775171 0.0009775171 0.999999
vn 0.0009775171 0.0009775171 0.999999
vn 0.0009775171 0.0009775171 0.999999
vn 0.0009775171 0.0009775171 0.999999
vn 0.0009775166 -0.9999995 0
vn 0.0009775166 -0.9999995 0
vn 0.0009775166 -0.9999995 0
vn 0.0009775166 -0.9999995 0
vn 0.0009775166 0.9999995 0
vn 0.0009775166 0.9999995 0
vn 0.0009775166 0.9999995 0
vn 0.0009775166 0.9999995 0
vn 0.9999995 0.0009775166 0
vn 0.9999995 0.0009775166 0
vn 0.9999995 0.0009775166 0
vn 0.9999995 0.0009775166 0
vn 0.0009775171 0.0009775171 -0.999999
vn 0.0009775171 0.0009775171 -0.999999
vn 0.0009775171 0.0009775171 -0.999999
vn 0.0009775171 0.0009775171 -0.999999
vn -0.9999995 0.0009775166 0
vn -0.9999995 0.0009775166 0
vn -0.9999995 0.0009775166 0
vn -0.9999995 0.0009775166 0
vn 0.0009775171 0.0009775171 0.999999
vn 0.0009775171 0.0009775171 0.999999
vn 0.0009775171 0.0009775171 0.999999
vn 0.0009775171 0.0009775171 0.999999
vn 0.0009775166 -0.9999995 0
vn 0.0009775166 -0.9999995 0
vn 0.0009775166 -0.9999995 0
vn 0.0009775166 -0.9999995 0
vn 0.0009775166 0.9999995 0
vn 0.0009775166 0.9999995 0
vn 0.0009775166 0.9999995 0
vn 0.0009775166 0.9999995 0
vn 0.9999995 0.0009775166 0
vn 0.9999995 0.0009775166 0
vn 0.9999995 0.0009775166 0
vn 0.9999995 0.0009775166 0
vn 0.0009775171 0.0009775171 -0.999999
vn 0.0009775171 0.0009775171 -0.999999
vn 0.0009775171 0.0009775171 -0.999999
vn 0.0009775171 0.0009775171 -0.999999
vn -0.9999995 0.0009775166 0
vn -0.9999995 0.0009775166 0
vn -0.9999995 0.0009775166 0
vn -0.9999995 0.0009775166 0
vn 0.0009775171 0.0009775171 0.999999
vn 0.0009775171 0.0009775171 0.999999
vn 0.0009775171 0.0009775171 0.999999
vn 0.0009775171 0.0009775171 0.999999
vn 0.0009775166 -0.9999995 0
vn 0.0009775166 -0.9999995 0
vn 0.0009775166 -0.9999995 0
vn 0.0009775166 -0.9999995 0
vn 0.0009775166 0.9999995 0
vn 0.0009775166 0.9999995 0
vn 0.0009775166 0.9999995 0
vn 0.0009775166 0.9999995 0
vn 0.0009775166 -0.9999995 0
vn 0.0009775166 -0.9999995 0
vn 0.0009775166 -0.9999995 0
vn 0.0009775166 -0.9999995 0
vn 0.1827957 0.5816227 0.7926543
vn 0.0009775171 0.0009775171 0.999999
vn 0.0009775171 0.0009775171 0.999999
vn -0.1827957 0.5816227 0.7926543
vn -0.9999995 0.0009775166 0
vn -0.9999995 0.0009775166 0
vn -0.9999995 0.0009775166 0
vn -0.9999995 0.0009775166 0
vn -0.1827957 0.5816227 -0.7926543
vn 0.0009775171 0.0009775171 -0.999999
vn 0.0009775171 0.0009775171 -0.999999
vn 0.1827957 0.5816227 -0.7926543
vn 0.9999995 0.0009775166 0
vn 0.9999995 0.0009775166 0
vn 0.9999995 0.0009775166 0
vn 0.9999995 0.0009775166 0
vn -0.1827957 0.5816227 0.7926543
vn 0.0009775166 0.9999995 0
vn -0.1827957 0.5816227 -0.7926543
vn 0.1827957 0.5816227 0.7926543
vn 0.1827957 0.5816227 -0.7926543
vn -0.6439251 -0.7650885 0
vn -0.6439251 -0.7650885 0
vn -0.6439251 -0.7650885 0
vn -0.6439251 -0.7650885 0
vn 0.0009775171 0.0009775171 -0.999999
vn 0.0009775171 0.0009775171 -0.999999
vn 0.0009775171 0.0009775171 -0.999999
vn 0.0009775171 0.0009775171 -0.999999
vn 0.639704 0.7686214 0
vn 0.639704 0.7686214 0
vn 0.639704 0.7686214 0
vn 0.639704 0.7686214 0
vn 0.0009775171 0.0009775171 0.999999
vn 0.0009775171 0.0009775171 0.999999
vn 0.0009775171 0.0009775171 0.999999
vn 0.0009775171 0.0009775171 0.999999
vt 0.3105107 0.3610982
vt 0.3178978 0.3537262
vt 0.3105107 0.3463391
vt 0.3105107 0.3610982
vt 0.3178978 0.3537262
vt 0.3105107 0.3463391
vt 0.2957212 0.1472806
vt 0.01246138 0.140394
vt 0.01246138 0.1472806
vt 0.2957212 0.140394
vt 0.2937645 0.2756227
vt 0.01050462 0.1609931
vt 0.01050462 0.2756227
vt 0.2937645 0.1609931
vt 0.2957212 0.02574914
vt 0.01246138 0.01887773
vt 0.01246138 0.02574914
vt 0.2957212 0.01887773
vt 0.2957212 0.140394
vt 0.01246138 0.02574914
vt 0.01246138 0.140394
vt 0.2957212 0.02574914
vt 0.005589973 0.140394
vt 0.01246138 0.02574914
vt 0.005589973 0.02574914
vt 0.01246138 0.140394
vt 0.3026078 0.02574914
vt 0.2957212 0.140394
vt 0.3026078 0.140394
vt 0.2957212 0.02574914
vt 0.3279698 0.4382613
vt 0.334462 0.3913445
vt 0.3279698 0.3913445
vt 0.334462 0.4382613
vt 0.3172759 0.4356826
vt 0.3279698 0.3913445
vt 0.3170484 0.3900704
vt 0.3279698 0.4382613
vt 0.3172759 0.4356826
vt 0.3105562 0.3901007
vt 0.3107837 0.4357129
vt 0.3170484 0.3900704
vt 0.3451559 0.4356826
vt 0.334462 0.3913445
vt 0.334462 0.4382613
vt 0.3453986 0.3900704
vt 0.3476891 0.3610982
vt 0.3611285 0.3476588
vt 0.3476891 0.3476588
vt 0.3611285 0.3610982
vt 0.2721187 0.4491827
vt 0.01132373 0.4419473
vt 0.01132373 0.4491827
vt 0.2721187 0.4419473
vt 0.2721187 0.4709042
vt 0.01132373 0.4636536
vt 0.01132373 0.4709042
vt 0.2721187 0.4636536
vt 0.2721187 0.4636536
vt 0.01132373 0.4564182
vt 0.01132373 0.4636536
vt 0.2721187 0.4564182
vt 0.2721187 0.4564182
vt 0.01132373 0.4491827
vt 0.01132373 0.4564182
vt 0.2721187 0.4491827
vt 0.3252698 0.3610982
vt 0.3178978 0.3537262
vt 0.3105107 0.3610982
vt 0.3252698 0.3463391
vt 0.3105107 0.3463391
vt 0.2760626 0.3042005
vt 0.2845874 0.4120801
vt 0.2845874 0.3042005
vt 0.2760626 0.4120801
vt 0.168183 0.3042005
vt 0.2760626 0.2956757
vt 0.168183 0.2956757
vt 0.2760626 0.3042005
vt 0.168183 0.4120801
vt 0.159643 0.3042005
vt 0.159643 0.4120801
vt 0.168183 0.3042005
vt 0.2760626 0.4120801
vt 0.168183 0.4206201
vt 0.2760626 0.4206201
vt 0.168183 0.4120801
vt 0.3744466 0.2876515
vt 0.470434 0.3836389
vt 0.470434 0.2876515
vt 0.3744466 0.3836389
vt 0.168183 0.3042005
vt 0.2760626 0.4120801
vt 0.2760626 0.3042005
vt 0.168183 0.4120801
vt 0.3556375 0.1314748
vt 0.3497217 0.02737219
vt 0.3497217 0.1314748
vt 0.3556375 0.02737219
vt 0.4597249 0.1314748
vt 0.3556375 0.1373906
vt 0.4597249 0.1373906
vt 0.3556375 0.1314748
vt 0.4597249 0.02737219
vt 0.4656407 0.1314748
vt 0.4656407 0.02737219
vt 0.4597249 0.1314748
vt 0.3556375 0.02737219
vt 0.4597249 0.02145641
vt 0.3556375 0.02145641
vt 0.4597249 0.02737219
vt 0.3806961 0.392285
vt 0.4766683 0.4882724
vt 0.4766683 0.392285
vt 0.3806961 0.4882724
vt 0.4597249 0.1314748
vt 0.3556375 0.02737219
vt 0.3556375 0.1314748
vt 0.4597249 0.02737219
vt 0.1269394 0.2987701
vt 0.1338715 0.4198465
vt 0.133917 0.2987701
vt 0.1268939 0.4198465
vt 0.01905976 0.2988156
vt 0.1269394 0.2917925
vt 0.01905976 0.291838
vt 0.1269394 0.2987701
vt 0.01901425 0.4199072
vt 0.01208217 0.2988156
vt 0.01203666 0.419892
vt 0.01905976 0.2988156
vt 0.1268939 0.4198465
vt 0.01901425 0.4268847
vt 0.1268939 0.4268241
vt 0.01901425 0.4199072
vt 0.3493122 0.2800368
vt 0.4534148 0.1633139
vt 0.3493122 0.1632077
vt 0.4533996 0.280143
vt 0.01905976 0.2988156
vt 0.1268939 0.4198465
vt 0.1269394 0.2987701
vt 0.01901425 0.4199072
vt 0.3476891 0.3610982
vt 0.3611285 0.3476588
vt 0.3476891 0.3476588
vt 0.3611285 0.3610982
vt 0.2721187 0.4491827
vt 0.01132373 0.4419473
vt 0.01132373 0.4491827
vt 0.2721187 0.4419473
vt 0.2721187 0.4709042
vt 0.01132373 0.4636536
vt 0.01132373 0.4709042
vt 0.2721187 0.4636536
vt 0.2721187 0.4636536
vt 0.01132373 0.4564182
vt 0.01132373 0.4636536
vt 0.2721187 0.4564182
vt 0.2721187 0.4564182
vt 0.01132373 0.4491827
vt 0.01132373 0.4564182
vt 0.2721187 0.4491827
vt 0.3252698 0.3610982
vt 0.3178978 0.3537262
vt 0.3105107 0.3610982
vt 0.3252698 0.3463391
vt 0.3105107 0.3463391
vt 0.334462 0.3913445
vt 0.3279698 0.4382613
vt 0.3279698 0.3913445
vt 0.334462 0.4382613
vt 0.3279698 0.3913445
vt 0.3172759 0.4356826
vt 0.3170484 0.3900704
vt 0.3279698 0.4382613
vt 0.3172759 0.4356826
vt 0.3105562 0.3901007
vt 0.3170484 0.3900704
vt 0.3107837 0.4357129
vt 0.3451559 0.4356826
vt 0.334462 0.3913445
vt 0.3453986 0.3900704
vt 0.334462 0.4382613
f 1/1/1 2/2/2 3/3/3
f 4/4/4 5/5/5 6/6/6
f 7/7/7 8/8/8 9/9/9
f 10/10/10 8/8/8 7/7/7
f 11/11/11 12/12/12 13/13/13
f 14/14/14 12/12/12 11/11/11
f 15/15/15 16/16/16 17/17/17
f 18/18/18 16/16/16 15/15/15
f 19/19/19 20/20/20 21/21/21
f 22/22/22 20/20/20 19/19/19
f 23/23/23 24/24/24 25/25/25
f 26/26/26 24/24/24 23/23/23
f 27/27/27 28/28/28 29/29/29
f 30/30/30 28/28/28 27/27/27
f 31/31/31 32/32/32 33/33/33
f 34/34/34 32/32/32 31/31/31
f 35/35/35 36/36/36 37/37/37
f 38/38/38 36/36/36 35/35/35
f 39/39/39 40/40/40 41/41/41
f 42/42/42 40/40/40 39/39/39
f 43/43/43 44/44/44 45/45/45
f 46/46/46 44/44/44 43/43/43
f 47/47/47 48/48/48 49/49/49
f 50/50/50 48/48/48 47/47/47
f 51/51/51 52/52/52 53/53/53
f 54/54/54 52/52/52 51/51/51
f 55/55/55 56/56/56 57/57/57
f 58/58/58 56/56/56 55/55/55
f 59/59/59 60/60/60 61/61/61
f 62/62/62 60/60/60 59/59/59
f 63/63/63 64/64/64 65/65/65
f 66/66/66 64/64/64 63/63/63
f 67/67/67 68/68/68 69/69/69
f 70/70/70 68/68/68 67/67/67
f 71/71/71 68/68/68 70/70/70
f 72/72/72 73/73/73 74/74/74
f 75/75/75 73/73/73 72/72/72
f 76/76/76 77/77/77 78/78/78
f 79/79/79 77/77/77 76/76/76
f 80/80/80 81/81/81 82/82/82
f 83/83/83 81/81/81 80/80/80
f 84/84/84 85/85/85 86/86/86
f 87/87/87 85/85/85 84/84/84
f 88/88/88 89/89/89 90/90/90
f 91/91/91 89/89/89 88/88/88
f 92/92/92 93/93/93 94/94/94
f 95/95/95 93/93/93 92/92/92
f 96/96/96 97/97/97 98/98/98
f 99/99/99 97/97/97 96/96/96
f 100/100/100 101/101/101 102/102/102
f 103/103/103 101/101/101 100/100/100
f 104/104/104 105/105/105 106/106/106
f 107/107/107 105/105/105 104/104/104
f 108/108/108 109/109/109 110/110/110
f 111/111/111 109/109/109 108/108/108
f 112/112/112 113/113/113 114/114/114
f 115/115/115 113/113/113 112/112/112
f 116/116/116 117/117/117 118/118/118
f 119/119/119 117/117/117 116/116/116
f 120/120/120 121/121/121 122/122/122
f 123/123/123 121/121/121 120/120/120
f 124/124/124 125/125/125 126/126/126
f 127/127/127 125/125/125 124/124/124
f 128/128/128 129/129/129 130/130/130
f 131/131/131 129/129/129 128/128/128
f 132/132/132 133/133/133 134/134/134
f 135/135/135 133/133/133 132/132/132
f 136/136/136 137/137/137 138/138/138
f 139/139/139 137/137/137 136/136/136
f 140/140/140 141/141/141 142/142/142
f 143/143/143 141/141/141 140/140/140
f 144/144/144 145/145/145 146/146/146
f 147/147/147 145/145/145 144/144/144
f 148/148/148 149/149/149 150/150/150
f 151/151/151 149/149/149 148/148/148
f 152/152/152 153/153/153 154/154/154
f 155/155/155 153/153/153 152/152/152
f 156/156/156 157/157/157 158/158/158
f 159/159/159 157/157/157 156/156/156
f 160/160/160 161/161/161 162/162/162
f 163/163/163 161/161/161 160/160/160
f 164/164/164 165/165/165 166/166/166
f 167/167/167 165/165/165 164/164/164
f 168/168/168 165/165/165 167/167/167
f 169/169/169 170/170/170 171/171/171
f 172/172/172 170/170/170 169/169/169
f 173/173/173 174/174/174 175/175/175
f 176/176/176 174/174/174 173/173/173
f 177/177/177 178/178/178 179/179/179
f 180/180/180 178/178/178 177/177/177
f 181/181/181 182/182/182 183/183/183
f 184/184/184 182/182/182 181/181/181
