v 0.8970427 0.00147319 0.7848858
v 0.8418509 0.00147319 0.7848858
v 0.8970427 0.00147319 0.729694
v 0.8970427 0.00147319 0.08662978
v 0.8418509 0.00147319 0.03143805
v 0.8970427 0.00147319 0.03143805
v -0.811856 0.00147319 0.03143805
v -0.8670478 0.00147319 0.08662978
v -0.8670478 0.00147319 0.03143805
v -0.811856 0.00147319 0.7572899
v -0.8670478 0.00147319 0.7848858
v -0.8670478 0.00147319 0.729694
v 0.9172338 0.2296492 0.7095029
v 0.8970427 0.00147319 0.7848858
v 0.8970427 0.00147319 0.729694
v 0.9172338 0.2296492 0.8050769
v 0.9172338 0.2296492 0.8050769
v 0.8418509 0.00147319 0.7848858
v 0.8970427 0.00147319 0.7848858
v 0.8216555 0.2296492 0.8050769
v 0.9172338 0.2296492 0.1068209
v 0.8970427 0.00147319 0.03143805
v 0.9172338 0.2296492 0.01124253
v 0.8970427 0.00147319 0.08662978
v 0.9172338 0.2296492 0.01124253
v 0.8418509 0.00147319 0.03143805
v 0.8216555 0.2296492 0.01124253
v 0.8970427 0.00147319 0.03143805
v 0.9172338 0.2296492 0.7095029
v 0.8418509 0.00147319 0.7848858
v 0.8216555 0.2296492 0.8050769
v 0.8970427 0.00147319 0.729694
v 0.9652704 3.12207 -0.05648601
v 0.9652704 3.071375 0.9001254
v 0.9652704 3.071375 -0.05648601
v 0.9652704 3.12207 0.9001254
v -0.9623854 3.12207 -0.05648601
v 0.9652704 3.071375 -0.05648601
v -0.9623854 3.071375 -0.05648601
v 0.9652704 3.12207 -0.05648601
v -0.9623854 3.12207 0.9001254
v -0.9623854 3.071375 -0.05648601
v -0.9623854 3.071375 0.9001254
v -0.9623854 3.12207 -0.05648601
v 0.9652704 3.12207 0.9001254
v -0.9623854 3.071375 0.9001254
v 0.9652704 3.071375 0.9001254
v -0.9623854 3.12207 0.9001254
v 0.9652704 3.071375 -0.05648601
v -0.9623854 3.071375 0.9001254
v -0.9623854 3.071375 -0.05648601
v 0.9652704 3.071375 0.9001254
v -0.9623854 3.12207 -0.05648601
v 0.9652704 3.12207 0.9001254
v 0.9652704 3.12207 -0.05648601
v -0.9623854 3.12207 0.9001254
v 0.9810739 0.2783689 -0.05648601
v 0.9810739 0.2287778 0.9001254
v 0.9810739 0.2287778 -0.05648601
v 0.9810739 0.2783689 0.9001254
v -0.9797696 0.2783689 -0.05648601
v 0.9810739 0.2287778 -0.05648601
v -0.9797696 0.2287778 -0.05648601
v 0.9810739 0.2783689 -0.05648601
v -0.9797696 0.2783689 -0.05648601
v -0.9797696 0.2287778 0.9001254
v -0.9797696 0.2783689 0.9001254
v -0.9797696 0.2287778 -0.05648601
v 0.9810739 0.2783689 0.9001254
v -0.9797696 0.2287778 0.9001254
v 0.9810739 0.2287778 0.9001254
v -0.9797696 0.2783689 0.9001254
v 0.9810739 0.2287778 -0.05648601
v -0.9797696 0.2287778 0.9001254
v -0.9797696 0.2287778 -0.05648601
v 0.9810739 0.2287778 0.9001254
v -0.9797696 0.2783689 -0.05648601
v 0.9810739 0.2783689 0.9001254
v 0.9810739 0.2783689 -0.05648601
v -0.9797696 0.2783689 0.9001254
v 0.9356515 3.191839 0.7233971
v 0.9356515 3.081836 0.8333997
v 0.9356515 3.081836 0.7233971
v 0.9356515 3.191839 0.8333997
v -0.9343472 3.191839 0.7233971
v 0.0006499559 3.081836 0.7233971
v -0.9343472 3.081836 0.7233971
v 0.0006499559 3.191839 0.7233971
v -0.04183857 3.611842 0.7233971
v 0.9356515 3.081836 0.7233971
v 0.04314286 3.611842 0.7233971
v 0.9356515 3.191839 0.7233971
v -0.9343472 3.191839 0.8333997
v -0.9343472 3.081836 0.7233971
v -0.9343472 3.081836 0.8333997
v -0.9343472 3.191839 0.7233971
v 0.9356515 3.191839 0.8333997
v 0.0006499559 3.081836 0.8333997
v 0.9356515 3.081836 0.8333997
v 0.0006499559 3.191839 0.8333997
v 0.04314286 3.611842 0.8333997
v -0.9343472 3.081836 0.8333997
v -0.04183857 3.611842 0.8333997
v -0.9343472 3.191839 0.8333997
v -0.04183857 3.611842 0.8333997
v -0.9343472 3.191839 0.7233971
v -0.9343472 3.191839 0.8333997
v -0.04183857 3.611842 0.7233971
v 0.04314286 3.611842 0.8333997
v 0.04314286 3.611842 0.7233971
v 0.9356515 3.191839 0.7233971
v 0.9356515 3.191839 0.8333997
v 0.0006499559 3.081836 0.7233971
v -0.9343472 3.081836 0.8333997
v -0.9343472 3.081836 0.7233971
v 0.0006499559 3.081836 0.8333997
v 0.9356515 3.081836 0.7233971
v 0.9356515 3.081836 0.8333997
v -0.9343472 0.2291369 -0.04660282
v 0.9356515 3.081836 -0.04660282
v 0.9356515 0.2291369 -0.04660282
v -0.9343472 3.081836 -0.04660282
v -0.9343472 3.081836 0.8333997
v -0.9343472 0.2291369 -0.04660282
v -0.9343472 0.2291369 0.8333997
v -0.9343472 3.081836 -0.04660282
v 0.9356515 3.081836 0.8333997
v 0.9356515 0.2291369 -0.04660282
v 0.9356515 3.081836 -0.04660282
v 0.9356515 0.2291369 0.8333997
v -0.865813 0.3977642 0.8686805
v 0.8450651 2.995603 0.8686805
v -0.865813 2.995603 0.8686805
v 0.8450651 0.3977642 0.8686805
v -0.8872389 0.2296492 0.8050769
v -0.8670478 0.00147319 0.729694
v -0.8670478 0.00147319 0.7848858
v -0.8872389 0.2296492 0.7095029
v -0.7916605 0.2296492 0.01124253
v -0.8670478 0.00147319 0.08662978
v -0.811856 0.00147319 0.03143805
v -0.8872389 0.2296492 0.1068209
v 0.9172338 0.2296492 0.1068209
v 0.8418509 0.00147319 0.03143805
v 0.8970427 0.00147319 0.08662978
v 0.8216555 0.2296492 0.01124253
v -0.7916605 0.2296492 0.01124253
v -0.8670478 0.00147319 0.03143805
v -0.8872389 0.2296492 0.01124253
v -0.811856 0.00147319 0.03143805
v -0.8872389 0.2296492 0.1068209
v -0.8670478 0.00147319 0.03143805
v -0.8670478 0.00147319 0.08662978
v -0.8872389 0.2296492 0.01124253
v 0.8450651 2.995603 0.8686805
v 0.8485419 0.394283 0.8252199
v 0.8485419 3.000161 0.8252199
v 0.8450651 0.3977642 0.8686805
v 0.8485419 3.000161 0.8252199
v -0.865813 2.995603 0.8686805
v 0.8450651 2.995603 0.8686805
v -0.8692898 3.000161 0.8252199
v -0.865813 2.995603 0.8686805
v -0.8692898 0.394283 0.8252199
v -0.865813 0.3977642 0.8686805
v -0.8692898 3.000161 0.8252199
v 0.8485419 0.394283 0.8252199
v -0.865813 0.3977642 0.8686805
v -0.8692898 0.394283 0.8252199
v 0.8450651 0.3977642 0.8686805
v -0.9343472 3.081836 0.8333997
v 0.9356515 0.2291369 0.8333997
v 0.9356515 3.081836 0.8333997
v -0.9343472 0.2291369 0.8333997
v -0.7916605 0.2296492 0.7572899
v -0.8670478 0.00147319 0.729694
v -0.8872389 0.2296492 0.7095029
v -0.811856 0.00147319 0.7572899
v -0.7916605 0.2296492 0.7572899
v -0.8670478 0.00147319 0.7848858
v -0.811856 0.00147319 0.7572899
v -0.8872389 0.2296492 0.8050769
vn 0.0009775166 -0.9999995 0
vn 0.0009775166 -0.9999995 0
vn 0.0009775166 -0.9999995 0
vn 0.0009775166 -0.9999995 0
vn 0.0009775166 -0.9999995 0
vn 0.0009775166 -0.9999995 0
vn 0.0009775166 -0.9999995 0
vn 0.0009775166 -0.9999995 0
vn 0.0009775166 -0.9999995 0
vn 0.0009775166 -0.9999995 0
vn 0.0009775166 -0.9999995 0
vn 0.0009775166 -0.9999995 0
vn 0.9960362 -0.08894925 0
vn 0.9960362 -0.08894925 0
vn 0.9960362 -0.08894925 0
vn 0.9960362 -0.08894925 0
vn 0.0009775171 -0.08895405 0.9960353
vn 0.0009775171 -0.08895405 0.9960353
vn 0.0009775171 -0.08895405 0.9960353
vn 0.0009775171 -0.08895405 0.9960353
vn 0.9960362 -0.08894925 0
vn 0.9960362 -0.08894925 0
vn 0.9960362 -0.08894925 0
vn 0.9960362 -0.08894925 0
vn 0.0009775171 -0.08895405 -0.9960353
vn 0.0009775171 -0.08895405 -0.9960353
vn 0.0009775171 -0.08895405 -0.9960353
vn 0.0009775171 -0.08895405 -0.9960353
vn -0.7067448 0.0009775171 -0.7074679
vn -0.7067448 0.0009775171 -0.7074679
vn -0.7067448 0.0009775171 -0.7074679
vn -0.7067448 0.0009775171 -0.7074679
vn 0.9999995 0.0009775166 0
vn 0.9999995 0.0009775166 0
vn 0.9999995 0.0009775166 0
vn 0.9999995 0.0009775166 0
vn 0.0009775171 0.0009775171 -0.999999
vn 0.0009775171 0.0009775171 -0.999999
vn 0.0009775171 0.0009775171 -0.999999
vn 0.0009775171 0.0009775171 -0.999999
vn -0.9999995 0.0009775166 0
vn -0.9999995 0.0009775166 0
vn -0.9999995 0.0009775166 0
vn -0.9999995 0.0009775166 0
vn 0.0009775171 0.0009775171 0.999999
vn 0.0009775171 0.0009775171 0.999999
vn 0.0009775171 0.0009775171 0.999999
vn 0.0009775171 0.0009775171 0.999999
vn 0.0009775166 -0.9999995 0
vn 0.0009775166 -0.9999995 0
vn 0.0009775166 -0.9999995 0
vn 0.0009775166 -0.9999995 0
vn 0.0009775166 0.9999995 0
vn 0.0009775166 0.9999995 0
vn 0.0009775166 0.9999995 0
vn 0.0009775166 0.9999995 0
vn 0.9999995 0.0009775166 0
vn 0.9999995 0.0009775166 0
vn 0.9999995 0.0009775166 0
vn 0.9999995 0.0009775166 0
vn 0.0009775171 0.0009775171 -0.999999
vn 0.0009775171 0.0009775171 -0.999999
vn 0.0009775171 0.0009775171 -0.999999
vn 0.0009775171 0.0009775171 -0.999999
vn -0.9999995 0.0009775166 0
vn -0.9999995 0.0009775166 0
vn -0.9999995 0.0009775166 0
vn -0.9999995 0.0009775166 0
vn 0.0009775171 0.0009775171 0.999999
vn 0.0009775171 0.0009775171 0.999999
vn 0.0009775171 0.0009775171 0.999999
vn 0.0009775171 0.0009775171 0.999999
vn 0.0009775166 -0.9999995 0
vn 0.0009775166 -0.9999995 0
vn 0.0009775166 -0.9999995 0
vn 0.0009775166 -0.9999995 0
vn 0.0009775166 0.9999995 0
vn 0.0009775166 0.9999995 0
vn 0.0009775166 0.9999995 0
vn 0.0009775166 0.9999995 0
vn 0.9999995 0.0009775166 0
vn 0.9999995 0.0009775166 0
vn 0.9999995 0.0009775166 0
vn 0.9999995 0.0009775166 0
vn 0.0009775171 0.0009775171 -0.999999
vn 0.0009775171 0.0009775171 -0.999999
vn 0.0009775171 0.0009775171 -0.999999
vn 0.0009775171 0.0009775171 -0.999999
vn 0.0009775171 0.0009775171 -0.999999
vn 0.0009775171 0.0009775171 -0.999999
vn 0.0009775171 0.0009775171 -0.999999
vn 0.0009775171 0.0009775171 -0.999999
vn -0.9999995 0.0009775166 0
vn -0.9999995 0.0009775166 0
vn -0.9999995 0.0009775166 0
vn -0.9999995 0.0009775166 0
vn 0.0009775171 0.0009775171 0.999999
vn 0.0009775171 0.0009775171 0.999999
vn 0.0009775171 0.0009775171 0.999999
vn 0.0009775171 0.0009775171 0.999999
vn 0.0009775171 0.0009775171 0.999999
vn 0.0009775171 0.0009775171 0.999999
vn 0.0009775171 0.0009775171 0.999999
vn 0.0009775171 0.0009775171 0.999999
vn -0.2178613 0.9759797 0
vn -0.42522 0.9042033 -0.04005469
vn -0.42522 0.9042033 -0.04005469
vn -0.2178613 0.9759797 0
vn 0.2178613 0.9759797 0
vn 0.2178613 0.9759797 0
vn 0.42522 0.9042033 -0.04005469
vn 0.42522 0.9042033 -0.04005469
vn 0.0009775166 -0.9999995 0
vn 0.0009775166 -0.9999995 0
vn 0.0009775166 -0.9999995 0
vn 0.0009775166 -0.9999995 0
vn 0.0009775166 -0.9999995 0
vn 0.0009775166 -0.9999995 0
vn 0.0009775171 0.0009775171 -0.999999
vn 0.0009775171 0.0009775171 -0.999999
vn 0.0009775171 0.0009775171 -0.999999
vn 0.0009775171 0.0009775171 -0.999999
vn -0.9999995 0.0009775166 0
vn -0.9999995 0.0009775166 0
vn -0.9999995 0.0009775166 0
vn -0.9999995 0.0009775166 0
vn 0.9999995 0.0009775166 0
vn 0.9999995 0.0009775166 0
vn 0.9999995 0.0009775166 0
vn 0.9999995 0.0009775166 0
vn 0.0009775171 0.0009775171 0.999999
vn 0.0009775171 0.0009775171 0.999999
vn 0.0009775171 0.0009775171 0.999999
vn 0.0009775171 0.0009775171 0.999999
vn -0.9960362 -0.08894925 0
vn -0.9960362 -0.08894925 0
vn -0.9960362 -0.08894925 0
vn -0.9960362 -0.08894925 0
vn 0.7067448 0.0009775171 0.7074679
vn 0.7067448 0.0009775171 0.7074679
vn 0.7067448 0.0009775171 0.7074679
vn 0.7067448 0.0009775171 0.7074679
vn -0.7067448 0.0009775171 0.7074679
vn -0.7067448 0.0009775171 0.7074679
vn -0.7067448 0.0009775171 0.7074679
vn -0.7067448 0.0009775171 0.7074679
vn 0.0009775171 -0.08895405 -0.9960353
vn 0.0009775171 -0.08895405 -0.9960353
vn 0.0009775171 -0.08895405 -0.9960353
vn 0.0009775171 -0.08895405 -0.9960353
vn -0.9960362 -0.08894925 0
vn -0.9960362 -0.08894925 0
vn -0.9960362 -0.08894925 0
vn -0.9960362 -0.08894925 0
vn 0.9960899 0.0009775171 0.08833943
vn 0.9960899 0.0009775171 0.08833943
vn 0.9960899 0.0009775171 0.08833943
vn 0.9960899 0.0009775171 0.08833943
vn 0.0009775171 0.9941349 0.1081427
vn 0.0009775171 0.9941349 0.1081427
vn 0.0009775171 0.9941349 0.1081427
vn 0.0009775171 0.9941349 0.1081427
vn -0.9960899 0.0009775171 0.08833943
vn -0.9960899 0.0009775171 0.08833943
vn -0.9960899 0.0009775171 0.08833943
vn -0.9960899 0.0009775171 0.08833943
vn 0.0009775171 -0.9960899 0.08833944
vn 0.0009775171 -0.9960899 0.08833944
vn 0.0009775171 -0.9960899 0.08833944
vn 0.0009775171 -0.9960899 0.08833944
vn 0.0009775171 0.0009775171 0.999999
vn 0.0009775171 0.0009775171 0.999999
vn 0.0009775171 0.0009775171 0.999999
vn 0.0009775171 0.0009775171 0.999999
vn 0.4467253 -0.0400782 -0.893773
vn 0.4467253 -0.0400782 -0.893773
vn 0.4467253 -0.0400782 -0.893773
vn 0.4467253 -0.0400782 -0.893773
vn 0.4467253 -0.0400782 0.893773
vn 0.4467253 -0.0400782 0.893773
vn 0.4467253 -0.0400782 0.893773
vn 0.4467253 -0.0400782 0.893773
vt 0.2213918 0.955313
vt 0.2196212 0.9509999
vt 0.2181532 0.9582791
vt 0.1890815 0.9499859
vt 0.1829524 0.9485785
vt 0.1858429 0.9529521
vt 0.1858429 0.9529521
vt 0.1873109 0.9456879
vt 0.1829524 0.9485785
vt 0.2197725 0.9567961
vt 0.2196212 0.9509999
vt 0.2152476 0.9539055
vt 0.2356477 0.9664513
vt 0.2213918 0.955313
vt 0.2181532 0.9582791
vt 0.2382356 0.957129
vt 0.2382356 0.957129
vt 0.2196212 0.9509999
vt 0.2213918 0.955313
vt 0.2382356 0.9493654
vt 0.2059252 0.951802
vt 0.1858429 0.9529521
vt 0.2033374 0.9611243
vt 0.1890815 0.9499859
vt 0.2033374 0.9611243
vt 0.1835275 0.9569625
vt 0.1993118 0.9680706
vt 0.1858429 0.9529521
vt 0.2356477 0.9664513
vt 0.2196212 0.9509999
vt 0.2382356 0.9493654
vt 0.2181532 0.9582791
vt 0.4867754 0.8877261
vt 0.4150722 0.8915247
vt 0.4867754 0.8915247
vt 0.4150722 0.8877261
vt 0.4867754 0.7432301
vt 0.4905739 0.8877261
vt 0.4905739 0.7432301
vt 0.4867754 0.8877261
vt 0.4150722 0.7432301
vt 0.4867754 0.7394316
vt 0.4150722 0.7394316
vt 0.4867754 0.7432301
vt 0.4150722 0.8877261
vt 0.4112736 0.7432301
vt 0.4112736 0.8877261
vt 0.4150722 0.7432301
vt 0.3395553 0.8877261
vt 0.4112736 0.7432301
vt 0.3395553 0.7432301
vt 0.4112736 0.8877261
vt 0.4867754 0.7432301
vt 0.4150722 0.8877261
vt 0.4867754 0.8877261
vt 0.4150722 0.7432301
vt 0.3157198 0.8909345
vt 0.2440166 0.8946422
vt 0.3157198 0.8946422
vt 0.2440166 0.8909345
vt 0.3157198 0.7439414
vt 0.3194275 0.8909345
vt 0.3194275 0.7439414
vt 0.3157198 0.8909345
vt 0.3157198 0.7439414
vt 0.2440166 0.7402336
vt 0.2440166 0.7439414
vt 0.3157198 0.7402336
vt 0.2440166 0.8909345
vt 0.2402937 0.7439414
vt 0.2402937 0.8909345
vt 0.2440166 0.7439414
vt 0.1685905 0.8909345
vt 0.2402937 0.7439414
vt 0.1685905 0.7439414
vt 0.2402937 0.8909345
vt 0.3157198 0.7439414
vt 0.2440166 0.8909345
vt 0.3157198 0.8909345
vt 0.2440166 0.7439414
vt 0.3016758 0.9628798
vt 0.2969844 0.9525889
vt 0.2941847 0.96008
vt 0.3044604 0.9553886
vt 0.44257 0.9309175
vt 0.3726828 0.9361689
vt 0.4422219 0.9391654
vt 0.372698 0.9280421
vt 0.3759215 0.896655
vt 0.303734 0.9390292
vt 0.3695199 0.896655
vt 0.3033859 0.9308419
vt 0.4414804 0.9556761
vt 0.4524977 0.9608216
vt 0.4495617 0.9527403
vt 0.4444163 0.9637575
vt 0.3044604 0.9553886
vt 0.3726677 0.94422
vt 0.3040972 0.9472165
vt 0.3726375 0.9521954
vt 0.3698075 0.9799808
vt 0.4418739 0.9474283
vt 0.3753312 0.9799203
vt 0.4414804 0.9556761
vt 0.3753312 0.9799203
vt 0.4444163 0.9637575
vt 0.4414804 0.9556761
vt 0.3759063 0.9881227
vt 0.3698075 0.9799808
vt 0.3688389 0.9878957
vt 0.3016758 0.9628798
vt 0.3044604 0.9553886
vt 0.3726828 0.9361689
vt 0.4418739 0.9474283
vt 0.4422219 0.9391654
vt 0.3726677 0.94422
vt 0.303734 0.9390292
vt 0.3040972 0.9472165
vt 0.1581937 0.726916
vt 0.004708333 0.4927683
vt 0.004708333 0.726916
vt 0.1581937 0.4927683
vt 0.2304266 0.4927683
vt 0.1581937 0.726916
vt 0.2304266 0.726916
vt 0.1581937 0.4927683
vt 0.383912 0.4927683
vt 0.4561298 0.726916
vt 0.4561298 0.4927683
vt 0.383912 0.726916
vt 0.1555302 0.761678
vt 0.01356151 0.9736095
vt 0.1540169 0.9738517
vt 0.01505974 0.7614056
vt 0.2382356 0.9493654
vt 0.2188342 0.9465808
vt 0.2196212 0.9509999
vt 0.2368735 0.9417229
vt 0.2033374 0.9611243
vt 0.1873109 0.9456879
vt 0.1858429 0.9529521
vt 0.2059252 0.9440384
vt 0.2059252 0.951802
vt 0.1865391 0.9412689
vt 0.1890815 0.9499859
vt 0.2045632 0.9363959
vt 0.2033374 0.9611243
vt 0.1835275 0.9569625
vt 0.1993118 0.9680706
vt 0.1858429 0.9529521
vt 0.2059252 0.9440384
vt 0.1865391 0.9412689
vt 0.1873109 0.9456879
vt 0.2045632 0.9363959
vt 0.01356151 0.9736095
vt 0.01094339 0.7609819
vt 0.009414895 0.974351
vt 0.01505974 0.7614056
vt 0.01233569 0.9779378
vt 0.1540169 0.9738517
vt 0.01356151 0.9736095
vt 0.155167 0.9779983
vt 0.1540169 0.9738517
vt 0.1596768 0.761345
vt 0.1555302 0.761678
vt 0.1581332 0.9746537
vt 0.0142728 0.7567596
vt 0.1555302 0.761678
vt 0.1562718 0.7569109
vt 0.01505974 0.7614056
vt 0.2304266 0.4927683
vt 0.383912 0.726916
vt 0.383912 0.4927683
vt 0.2304266 0.726916
vt 0.2369341 0.9617901
vt 0.2158378 0.9622896
vt 0.2316222 0.9733825
vt 0.2197725 0.9567961
vt 0.2369341 0.9617901
vt 0.2196212 0.9509999
vt 0.2197725 0.9567961
vt 0.2382356 0.9493654
f 1/1/1 2/2/2 3/3/3
f 4/4/4 5/5/5 6/6/6
f 7/7/7 8/8/8 9/9/9
f 10/10/10 11/11/11 12/12/12
f 13/13/13 14/14/14 15/15/15
f 16/16/16 14/14/14 13/13/13
f 17/17/17 18/18/18 19/19/19
f 20/20/20 18/18/18 17/17/17
f 21/21/21 22/22/22 23/23/23
f 24/24/24 22/22/22 21/21/21
f 25/25/25 26/26/26 27/27/27
f 28/28/28 26/26/26 25/25/25
f 29/29/29 30/30/30 31/31/31
f 32/32/32 30/30/30 29/29/29
f 33/33/33 34/34/34 35/35/35
f 36/36/36 34/34/34 33/33/33
f 37/37/37 38/38/38 39/39/39
f 40/40/40 38/38/38 37/37/37
f 41/41/41 42/42/42 43/43/43
f 44/44/44 42/42/42 41/41/41
f 45/45/45 46/46/46 47/47/47
f 48/48/48 46/46/46 45/45/45
f 49/49/49 50/50/50 51/51/51
f 52/52/52 50/50/50 49/49/49
f 53/53/53 54/54/54 55/55/55
f 56/56/56 54/54/54 53/53/53
f 57/57/57 58/58/58 59/59/59
f 60/60/60 58/58/58 57/57/57
f 61/61/61 62/62/62 63/63/63
f 64/64/64 62/62/62 61/61/61
f 65/65/65 66/66/66 67/67/67
f 68/68/68 66/66/66 65/65/65
f 69/69/69 70/70/70 71/71/71
f 72/72/72 70/70/70 69/69/69
f 73/73/73 74/74/74 75/75/75
f 76/76/76 74/74/74 73/73/73
f 77/77/77 78/78/78 79/79/79
f 80/80/80 78/78/78 77/77/77
f 81/81/81 82/82/82 83/83/83
f 84/84/84 82/82/82 81/81/81
f 85/85/85 86/86/86 87/87/87
f 88/88/88 86/86/86 85/85/85
f 89/89/89 88/88/88 85/85/85
f 88/88/88 90/90/90 86/86/86
f 91/91/91 88/88/88 89/89/89
f 92/92/92 90/90/90 88/88/88
f 92/92/92 88/88/88 91/91/91
f 93/93/93 94/94/94 95/95/95
f 96/96/96 94/94/94 93/93/93
f 97/97/97 98/98/98 99/99/99
f 100/100/100 98/98/98 97/97/97
f 101/101/101 100/100/100 97/97/97
f 100/100/100 102/102/102 98/98/98
f 103/103/103 100/100/100 101/101/101
f 104/104/104 102/102/102 100/100/100
f 104/104/104 100/100/100 103/103/103
f 105/105/105 106/106/106 107/107/107
f 108/108/108 106/106/106 105/105/105
f 105/105/105 109/109/109 108/108/108
f 108/108/108 109/109/109 110/110/110
f 109/109/109 111/111/111 110/110/110
f 112/112/112 111/111/111 109/109/109
f 113/113/113 114/114/114 115/115/115
f 116/116/116 114/114/114 113/113/113
f 117/117/117 116/116/116 113/113/113
f 118/118/118 116/116/116 117/117/117
f 119/119/119 120/120/120 121/121/121
f 122/122/122 120/120/120 119/119/119
f 123/123/123 124/124/124 125/125/125
f 126/126/126 124/124/124 123/123/123
f 127/127/127 128/128/128 129/129/129
f 130/130/130 128/128/128 127/127/127
f 131/131/131 132/132/132 133/133/133
f 134/134/134 132/132/132 131/131/131
f 135/135/135 136/136/136 137/137/137
f 138/138/138 136/136/136 135/135/135
f 139/139/139 140/140/140 141/141/141
f 142/142/142 140/140/140 139/139/139
f 143/143/143 144/144/144 145/145/145
f 146/146/146 144/144/144 143/143/143
f 147/147/147 148/148/148 149/149/149
f 150/150/150 148/148/148 147/147/147
f 151/151/151 152/152/152 153/153/153
f 154/154/154 152/152/152 151/151/151
f 155/155/155 156/156/156 157/157/157
f 158/158/158 156/156/156 155/155/155
f 159/159/159 160/160/160 161/161/161
f 162/162/162 160/160/160 159/159/159
f 163/163/163 164/164/164 165/165/165
f 166/166/166 164/164/164 163/163/163
f 167/167/167 168/168/168 169/169/169
f 170/170/170 168/168/168 167/167/167
f 171/171/171 172/172/172 173/173/173
f 174/174/174 172/172/172 171/171/171
f 175/175/175 176/176/176 177/177/177
f 178/178/178 176/176/176 175/175/175
f 179/179/179 180/180/180 181/181/181
f 182/182/182 180/180/180 179/179/179
