v 0.9840284 0.001618931 0.863375
v 0.9233204 0.001618931 0.863375
v 0.9840284 0.001618931 0.8026627
v 0.9840284 0.001618931 0.09529191
v 0.9233204 0.001618931 0.03457962
v 0.9840284 0.001618931 0.03457962
v -0.888953 0.001618931 0.863375
v -0.949661 0.001618931 0.863375
v -0.949661 0.001618931 0.8026627
v -0.888953 0.001618931 0.03457962
v -0.949661 0.001618931 0.09529191
v -0.949661 0.001618931 0.03457962
v 1.006243 0.2526156 0.780452
v 0.9840284 0.001618931 0.863375
v 0.9840284 0.001618931 0.8026627
v 1.006243 0.2526156 0.8855858
v 1.006243 0.2526156 0.1175027
v 0.9233204 0.001618931 0.03457962
v 0.9840284 0.001618931 0.09529191
v 0.9011053 0.2526156 0.01236886
v 1.006243 0.2526156 0.8855858
v 0.9233204 0.001618931 0.863375
v 0.9840284 0.001618931 0.863375
v 0.9011053 0.2526156 0.8855858
v 1.006243 0.2526156 0.1175027
v 0.9840284 0.001618931 0.03457962
v 1.006243 0.2526156 0.01236886
v 0.9840284 0.001618931 0.09529191
v 0.9011053 0.2526156 0.01236886
v 0.9840284 0.001618931 0.03457962
v 0.9233204 0.001618931 0.03457962
v 1.006243 0.2526156 0.01236886
v -0.971876 0.2526156 0.780452
v -0.888953 0.001618931 0.863375
v -0.949661 0.001618931 0.8026627
v -0.8667379 0.2526156 0.8855858
v 1.079179 3.44013 -0.06213522
v 1.079179 3.390021 0.9901336
v 1.079179 3.390021 -0.06213522
v 1.079179 3.44013 0.9901336
v -1.077747 3.44013 -0.06213522
v 1.079179 3.390021 -0.06213522
v -1.077747 3.390021 -0.06213522
v 1.079179 3.44013 -0.06213522
v -1.077747 3.44013 0.9901336
v -1.077747 3.390021 -0.06213522
v -1.077747 3.390021 0.9901336
v -1.077747 3.44013 -0.06213522
v 1.079179 3.44013 0.9901336
v -1.077747 3.390021 0.9901336
v 1.079179 3.390021 0.9901336
v -1.077747 3.44013 0.9901336
v 1.079179 3.390021 -0.06213522
v -1.077747 3.390021 0.9901336
v -1.077747 3.390021 -0.06213522
v 1.079179 3.390021 0.9901336
v -1.077747 3.44013 -0.06213522
v 1.079179 3.44013 0.9901336
v 1.079179 3.44013 -0.06213522
v -1.077747 3.44013 0.9901336
v 1.079179 0.2845983 -0.06213522
v 1.079179 0.2372168 0.9901379
v 1.079179 0.2372168 -0.06213522
v 1.079179 0.2845983 0.9901379
v -1.077747 0.2845983 -0.06213522
v 1.079179 0.2372168 -0.06213522
v -1.077747 0.2372168 -0.06213522
v 1.079179 0.2845983 -0.06213522
v -1.077747 0.2845983 0.9901379
v -1.077747 0.2372168 -0.06213522
v -1.077747 0.2372168 0.9901379
v -1.077747 0.2845983 -0.06213522
v 1.079179 0.2845983 0.9901379
v -1.077747 0.2372168 0.9901379
v 1.079179 0.2372168 0.9901379
v -1.077747 0.2845983 0.9901379
v 1.079179 0.2372168 -0.06213522
v -1.077747 0.2372168 0.9901379
v -1.077747 0.2372168 -0.06213522
v 1.079179 0.2372168 0.9901379
v -1.077747 0.2845983 -0.06213522
v 1.079179 0.2845983 0.9901379
v 1.079179 0.2845983 -0.06213522
v -1.077747 0.2845983 0.9901379
v -1.027784 0.2520512 -0.05126035
v 1.029217 3.390021 -0.05126035
v 1.029217 0.2520512 -0.05126035
v -1.027784 3.390021 -0.05126035
v 1.029217 0.2520512 0.9167368
v -1.027784 3.390021 0.9167368
v -1.027784 0.2520512 0.9167368
v 1.029217 3.390021 0.9167368
v 1.05166 3.333927 -0.06213522
v 1.05166 3.208853 0.9386331
v 1.05166 3.208853 -0.06213522
v 1.05166 3.333927 0.9386331
v -1.052128 3.333927 -0.06213522
v 1.05166 3.208853 -0.06213522
v -1.052128 3.208853 -0.06213522
v 1.05166 3.333927 -0.06213522
v -1.052128 3.333927 0.9386331
v -1.052128 3.208853 -0.06213522
v -1.052128 3.208853 0.9386331
v -1.052128 3.333927 -0.06213522
v 1.05166 3.333927 0.9386331
v -1.052128 3.208853 0.9386331
v 1.05166 3.208853 0.9386331
v -1.052128 3.333927 0.9386331
v 1.05166 3.208853 -0.06213522
v -1.052128 3.208853 0.9386331
v -1.052128 3.208853 -0.06213522
v 1.05166 3.208853 0.9386331
v -1.052128 3.333927 -0.06213522
v 1.05166 3.333927 0.9386331
v 1.05166 3.333927 -0.06213522
v -1.052128 3.333927 0.9386331
v 1.029217 3.390021 -0.05126035
v 1.029217 0.2520512 0.9167368
v 1.029217 0.2520512 -0.05126035
v 1.029217 3.390021 0.9167368
v -1.027784 3.390021 0.9167368
v -1.027784 0.2520512 -0.05126035
v -1.027784 0.2520512 0.9167368
v -1.027784 3.390021 -0.05126035
v -0.9474894 3.104012 0.9524034
v -0.9509708 0.4278243 0.9089426
v -0.9474894 0.4313014 0.9524034
v -0.9509708 3.108571 0.9089426
v -0.9509708 3.108571 0.9089426
v 0.9340531 3.11487 0.9524034
v 0.9375301 3.119428 0.9089426
v -0.9474894 3.104012 0.9524034
v -0.9474894 3.104012 0.9524034
v 0.9340531 0.4313014 0.9524034
v 0.9340531 3.11487 0.9524034
v -0.9474894 0.4313014 0.9524034
v 0.9340531 3.11487 0.9524034
v 0.9375301 0.4278243 0.9089426
v 0.9375301 3.119428 0.9089426
v 0.9340531 0.4313014 0.9524034
v -0.971876 0.2526156 0.1175027
v -0.888953 0.001618931 0.03457962
v -0.8667379 0.2526156 0.01236886
v -0.949661 0.001618931 0.09529191
v -0.971876 0.2526156 0.8855858
v -0.949661 0.001618931 0.8026627
v -0.949661 0.001618931 0.863375
v -0.971876 0.2526156 0.780452
v -0.8667379 0.2526156 0.8855858
v -0.949661 0.001618931 0.863375
v -0.888953 0.001618931 0.863375
v -0.971876 0.2526156 0.8855858
v -0.971876 0.2526156 0.01236886
v -0.888953 0.001618931 0.03457962
v -0.949661 0.001618931 0.03457962
v -0.8667379 0.2526156 0.01236886
v -0.971876 0.2526156 0.1175027
v -0.949661 0.001618931 0.03457962
v -0.949661 0.001618931 0.09529191
v -0.971876 0.2526156 0.01236886
v 0.9011053 0.2526156 0.8855858
v 0.9840284 0.001618931 0.8026627
v 0.9233204 0.001618931 0.863375
v 1.006243 0.2526156 0.780452
v 0.9375301 0.4278243 0.9089426
v -0.9474894 0.4313014 0.9524034
v -0.9509708 0.4278243 0.9089426
v 0.9340531 0.4313014 0.9524034
vn 0.0009775166 -0.9999995 0
vn 0.0009775166 -0.9999995 0
vn 0.0009775166 -0.9999995 0
vn 0.0009775166 -0.9999995 0
vn 0.0009775166 -0.9999995 0
vn 0.0009775166 -0.9999995 0
vn 0.0009775166 -0.9999995 0
vn 0.0009775166 -0.9999995 0
vn 0.0009775166 -0.9999995 0
vn 0.0009775166 -0.9999995 0
vn 0.0009775166 -0.9999995 0
vn 0.0009775166 -0.9999995 0
vn 0.9960362 -0.08894925 0
vn 0.9960362 -0.08894925 0
vn 0.9960362 -0.08894925 0
vn 0.9960362 -0.08894925 0
vn -0.7067448 0.0009775171 0.7074679
vn -0.7067448 0.0009775171 0.7074679
vn -0.7067448 0.0009775171 0.7074679
vn -0.7067448 0.0009775171 0.7074679
vn 0.0009775171 -0.08895405 0.9960353
vn 0.0009775171 -0.08895405 0.9960353
vn 0.0009775171 -0.08895405 0.9960353
vn 0.0009775171 -0.08895405 0.9960353
vn 0.9960362 -0.08894925 0
vn 0.9960362 -0.08894925 0
vn 0.9960362 -0.08894925 0
vn 0.9960362 -0.08894925 0
vn 0.0009775171 -0.08895405 -0.9960353
vn 0.0009775171 -0.08895405 -0.9960353
vn 0.0009775171 -0.08895405 -0.9960353
vn 0.0009775171 -0.08895405 -0.9960353
vn 0.7067448 0.0009775171 -0.7074679
vn 0.7067448 0.0009775171 -0.7074679
vn 0.7067448 0.0009775171 -0.7074679
vn 0.7067448 0.0009775171 -0.7074679
vn 0.9999995 0.0009775166 0
vn 0.9999995 0.0009775166 0
vn 0.9999995 0.0009775166 0
vn 0.9999995 0.0009775166 0
vn 0.0009775171 0.0009775171 -0.999999
vn 0.0009775171 0.0009775171 -0.999999
vn 0.0009775171 0.0009775171 -0.999999
vn 0.0009775171 0.0009775171 -0.999999
vn -0.9999995 0.0009775166 0
vn -0.9999995 0.0009775166 0
vn -0.9999995 0.0009775166 0
vn -0.9999995 0.0009775166 0
vn 0.0009775171 0.0009775171 0.999999
vn 0.0009775171 0.0009775171 0.999999
vn 0.0009775171 0.0009775171 0.999999
vn 0.0009775171 0.0009775171 0.999999
vn 0.0009775166 -0.9999995 0
vn 0.0009775166 -0.9999995 0
vn 0.0009775166 -0.9999995 0
vn 0.0009775166 -0.9999995 0
vn 0.0009775166 0.9999995 0
vn 0.0009775166 0.9999995 0
vn 0.0009775166 0.9999995 0
vn 0.0009775166 0.9999995 0
vn 0.9999995 0.0009775166 0
vn 0.9999995 0.0009775166 0
vn 0.9999995 0.0009775166 0
vn 0.9999995 0.0009775166 0
vn 0.0009775171 0.0009775171 -0.999999
vn 0.0009775171 0.0009775171 -0.999999
vn 0.0009775171 0.0009775171 -0.999999
vn 0.0009775171 0.0009775171 -0.999999
vn -0.9999995 0.0009775166 0
vn -0.9999995 0.0009775166 0
vn -0.9999995 0.0009775166 0
vn -0.9999995 0.0009775166 0
vn 0.0009775171 0.0009775171 0.999999
vn 0.0009775171 0.0009775171 0.999999
vn 0.0009775171 0.0009775171 0.999999
vn 0.0009775171 0.0009775171 0.999999
vn 0.0009775166 -0.9999995 0
vn 0.0009775166 -0.9999995 0
vn 0.0009775166 -0.9999995 0
vn 0.0009775166 -0.9999995 0
vn 0.0009775166 0.9999995 0
vn 0.0009775166 0.9999995 0
vn 0.0009775166 0.9999995 0
vn 0.0009775166 0.9999995 0
vn 0.0009775171 0.0009775171 -0.999999
vn 0.0009775171 0.0009775171 -0.999999
vn 0.0009775171 0.0009775171 -0.999999
vn 0.0009775171 0.0009775171 -0.999999
vn 0.0009775171 0.0009775171 0.999999
vn 0.0009775171 0.0009775171 0.999999
vn 0.0009775171 0.0009775171 0.999999
vn 0.0009775171 0.0009775171 0.999999
vn 0.9999995 0.0009775166 0
vn 0.9999995 0.0009775166 0
vn 0.9999995 0.0009775166 0
vn 0.9999995 0.0009775166 0
vn 0.0009775171 0.0009775171 -0.999999
vn 0.0009775171 0.0009775171 -0.999999
vn 0.0009775171 0.0009775171 -0.999999
vn 0.0009775171 0.0009775171 -0.999999
vn -0.9999995 0.0009775166 0
vn -0.9999995 0.0009775166 0
vn -0.9999995 0.0009775166 0
vn -0.9999995 0.0009775166 0
vn 0.0009775171 0.0009775171 0.999999
vn 0.0009775171 0.0009775171 0.999999
vn 0.0009775171 0.0009775171 0.999999
vn 0.0009775171 0.0009775171 0.999999
vn 0.0009775166 -0.9999995 0
vn 0.0009775166 -0.9999995 0
vn 0.0009775166 -0.9999995 0
vn 0.0009775166 -0.9999995 0
vn 0.0009775166 0.9999995 0
vn 0.0009775166 0.9999995 0
vn 0.0009775166 0.9999995 0
vn 0.0009775166 0.9999995 0
vn 0.9999995 0.0009775166 0
vn 0.9999995 0.0009775166 0
vn 0.9999995 0.0009775166 0
vn 0.9999995 0.0009775166 0
vn -0.9999995 0.0009775166 0
vn -0.9999995 0.0009775166 0
vn -0.9999995 0.0009775166 0
vn -0.9999995 0.0009775166 0
vn -0.9960899 0.0009775171 0.08833943
vn -0.9960899 0.0009775171 0.08833943
vn -0.9960899 0.0009775171 0.08833943
vn -0.9960899 0.0009775171 0.08833943
vn -0.004887586 0.9941349 0.1080366
vn -0.004887586 0.9941349 0.1080366
vn -0.004887586 0.9941349 0.1080366
vn -0.004887586 0.9941349 0.1080366
vn 0.0009775171 0.0009775171 0.999999
vn 0.0009775171 0.0009775171 0.999999
vn 0.0009775171 0.0009775171 0.999999
vn 0.0009775171 0.0009775171 0.999999
vn 0.9960899 0.0009775171 0.08833943
vn 0.9960899 0.0009775171 0.08833943
vn 0.9960899 0.0009775171 0.08833943
vn 0.9960899 0.0009775171 0.08833943
vn 0.7067448 0.0009775171 0.7074679
vn 0.7067448 0.0009775171 0.7074679
vn 0.7067448 0.0009775171 0.7074679
vn 0.7067448 0.0009775171 0.7074679
vn -0.9960362 -0.08894925 0
vn -0.9960362 -0.08894925 0
vn -0.9960362 -0.08894925 0
vn -0.9960362 -0.08894925 0
vn 0.0009775171 -0.08895405 0.9960353
vn 0.0009775171 -0.08895405 0.9960353
vn 0.0009775171 -0.08895405 0.9960353
vn 0.0009775171 -0.08895405 0.9960353
vn 0.0009775171 -0.08895405 -0.9960353
vn 0.0009775171 -0.08895405 -0.9960353
vn 0.0009775171 -0.08895405 -0.9960353
vn 0.0009775171 -0.08895405 -0.9960353
vn -0.9960362 -0.08894925 0
vn -0.9960362 -0.08894925 0
vn -0.9960362 -0.08894925 0
vn -0.9960362 -0.08894925 0
vn -0.7067448 0.0009775171 -0.7074679
vn -0.7067448 0.0009775171 -0.7074679
vn -0.7067448 0.0009775171 -0.7074679
vn -0.7067448 0.0009775171 -0.7074679
vn 0.0009775171 -0.9960899 0.08833944
vn 0.0009775171 -0.9960899 0.08833944
vn 0.0009775171 -0.9960899 0.08833944
vn 0.0009775171 -0.9960899 0.08833944
vt 0.8400693 0.5017905
vt 0.844651 0.5009891
vt 0.8392528 0.4972239
vt 0.8509718 0.5445989
vt 0.854737 0.5392157
vt 0.8501703 0.5400172
vt 0.8400693 0.5017905
vt 0.844651 0.5009891
vt 0.8438345 0.4964073
vt 0.8501703 0.5400172
vt 0.8555535 0.5437824
vt 0.854737 0.5392157
vt 0.8625244 0.5152485
vt 0.844651 0.5056313
vt 0.8438345 0.5101979
vt 0.8639307 0.5073249
vt 0.8748332 0.5501333
vt 0.854737 0.5392157
vt 0.8555535 0.5484246
vt 0.8734269 0.5341652
vt 0.8639307 0.5073249
vt 0.844651 0.5009891
vt 0.844651 0.5056313
vt 0.8639307 0.4992804
vt 0.8748332 0.5501333
vt 0.854737 0.5530064
vt 0.8734269 0.5580569
vt 0.8555535 0.5484246
vt 0.8706597 0.5656024
vt 0.854737 0.5530064
vt 0.8531341 0.5573613
vt 0.8734269 0.5580569
vt 0.8597421 0.5228091
vt 0.844651 0.5056313
vt 0.8422316 0.514568
vt 0.8639307 0.5073249
vt 0.8482197 0.7305456
vt 0.844893 0.6606247
vt 0.844893 0.7305456
vt 0.8482197 0.6606247
vt 0.9915546 0.7305456
vt 0.8482197 0.7338724
vt 0.9915546 0.7338724
vt 0.8482197 0.7305456
vt 0.9915546 0.6606247
vt 0.9948813 0.7305456
vt 0.9948813 0.6606247
vt 0.9915546 0.7305456
vt 0.8482197 0.6606247
vt 0.9915546 0.657298
vt 0.8482197 0.657298
vt 0.9915546 0.6606247
vt 0.8482197 0.5873771
vt 0.9915546 0.657298
vt 0.9915546 0.5873771
vt 0.8482197 0.657298
vt 0.9915546 0.7305456
vt 0.8482197 0.6606247
vt 0.8482197 0.7305456
vt 0.9915546 0.6606247
vt 0.6873894 0.5755976
vt 0.6842744 0.5056767
vt 0.6842442 0.5755976
vt 0.6874197 0.5056767
vt 0.8307244 0.5756429
vt 0.6873894 0.5787429
vt 0.8307244 0.5787882
vt 0.6873894 0.5755976
vt 0.8307546 0.505722
vt 0.8338696 0.5756429
vt 0.8338998 0.505722
vt 0.8307244 0.5756429
vt 0.6874197 0.5056767
vt 0.8307546 0.5025768
vt 0.6874197 0.5025163
vt 0.8307546 0.505722
vt 0.6874499 0.4325954
vt 0.8307546 0.5025768
vt 0.8307697 0.4326407
vt 0.6874197 0.5025163
vt 0.8307244 0.5756429
vt 0.6874197 0.5056767
vt 0.6873894 0.5755976
vt 0.8307546 0.505722
vt 0.8080575 0.7461206
vt 0.9654703 0.9862621
vt 0.9654703 0.7461206
vt 0.8080575 0.9862621
vt 0.5765654 0.7461206
vt 0.7339782 0.9862621
vt 0.7339782 0.7461206
vt 0.5765654 0.9862621
vt 0.6888562 0.7282926
vt 0.6805546 0.6617891
vt 0.6805546 0.7282926
vt 0.6888562 0.6617891
vt 0.8286678 0.7282926
vt 0.6888562 0.7365942
vt 0.8286678 0.7365942
vt 0.6888562 0.7282926
vt 0.8286678 0.6617891
vt 0.8369694 0.7282926
vt 0.8369694 0.6617891
vt 0.8286678 0.7282926
vt 0.6888562 0.6617891
vt 0.8286678 0.6534724
vt 0.6888562 0.6534724
vt 0.8286678 0.6617891
vt 0.6888562 0.5869688
vt 0.8286678 0.6534724
vt 0.8286678 0.5869688
vt 0.6888562 0.6534724
vt 0.8286678 0.7282926
vt 0.6888562 0.6617891
vt 0.6888562 0.7282926
vt 0.8286678 0.6617891
vt 0.5024861 0.9862621
vt 0.5765654 0.7461206
vt 0.5024861 0.7461206
vt 0.5765654 0.9862621
vt 0.7339782 0.9862621
vt 0.8080575 0.7461206
vt 0.7339782 0.7461206
vt 0.8080575 0.9862621
vt 0.6573283 0.5238525
vt 0.6607608 0.728096
vt 0.6573132 0.7280506
vt 0.6607608 0.523671
vt 0.6588253 0.5200722
vt 0.5132071 0.5221438
vt 0.5122393 0.5183483
vt 0.6573283 0.5238525
vt 0.6573283 0.5238525
vt 0.5129954 0.7280658
vt 0.5132071 0.5221438
vt 0.6573132 0.7280506
vt 0.5132071 0.5221438
vt 0.5095477 0.7281262
vt 0.5097443 0.5219623
vt 0.5129954 0.7280658
vt 0.8748332 0.5420888
vt 0.854737 0.5530064
vt 0.8734269 0.5580569
vt 0.8555535 0.5437824
vt 0.8639307 0.4992804
vt 0.8438345 0.4964073
vt 0.844651 0.5009891
vt 0.8625244 0.4913568
vt 0.8639307 0.5073249
vt 0.844651 0.5009891
vt 0.844651 0.5056313
vt 0.8639307 0.4992804
vt 0.8706597 0.5656024
vt 0.854737 0.5530064
vt 0.8531341 0.5573613
vt 0.8734269 0.5580569
vt 0.8748332 0.5420888
vt 0.854737 0.5392157
vt 0.8555535 0.5437824
vt 0.8734269 0.5341652
vt 0.8639307 0.4992804
vt 0.8438345 0.5101979
vt 0.844651 0.5009891
vt 0.8625244 0.5152485
vt 0.5120428 0.7318159
vt 0.6573132 0.7280506
vt 0.6582053 0.7317554
vt 0.5129954 0.7280658
f 1/1/1 2/2/2 3/3/3
f 4/4/4 5/5/5 6/6/6
f 7/7/7 8/8/8 9/9/9
f 10/10/10 11/11/11 12/12/12
f 13/13/13 14/14/14 15/15/15
f 16/16/16 14/14/14 13/13/13
f 17/17/17 18/18/18 19/19/19
f 20/20/20 18/18/18 17/17/17
f 21/21/21 22/22/22 23/23/23
f 24/24/24 22/22/22 21/21/21
f 25/25/25 26/26/26 27/27/27
f 28/28/28 26/26/26 25/25/25
f 29/29/29 30/30/30 31/31/31
f 32/32/32 30/30/30 29/29/29
f 33/33/33 34/34/34 35/35/35
f 36/36/36 34/34/34 33/33/33
f 37/37/37 38/38/38 39/39/39
f 40/40/40 38/38/38 37/37/37
f 41/41/41 42/42/42 43/43/43
f 44/44/44 42/42/42 41/41/41
f 45/45/45 46/46/46 47/47/47
f 48/48/48 46/46/46 45/45/45
f 49/49/49 50/50/50 51/51/51
f 52/52/52 50/50/50 49/49/49
f 53/53/53 54/54/54 55/55/55
f 56/56/56 54/54/54 53/53/53
f 57/57/57 58/58/58 59/59/59
f 60/60/60 58/58/58 57/57/57
f 61/61/61 62/62/62 63/63/63
f 64/64/64 62/62/62 61/61/61
f 65/65/65 66/66/66 67/67/67
f 68/68/68 66/66/66 65/65/65
f 69/69/69 70/70/70 71/71/71
f 72/72/72 70/70/70 69/69/69
f 73/73/73 74/74/74 75/75/75
f 76/76/76 74/74/74 73/73/73
f 77/77/77 78/78/78 79/79/79
f 80/80/80 78/78/78 77/77/77
f 81/81/81 82/82/82 83/83/83
f 84/84/84 82/82/82 81/81/81
f 85/85/85 86/86/86 87/87/87
f 88/88/88 86/86/86 85/85/85
f 89/89/89 90/90/90 91/91/91
f 92/92/92 90/90/90 89/89/89
f 93/93/93 94/94/94 95/95/95
f 96/96/96 94/94/94 93/93/93
f 97/97/97 98/98/98 99/99/99
f 100/100/100 98/98/98 97/97/97
f 101/101/101 102/102/102 103/103/103
f 104/104/104 102/102/102 101/101/101
f 105/105/105 106/106/106 107/107/107
f 108/108/108 106/106/106 105/105/105
f 109/109/109 110/110/110 111/111/111
f 112/112/112 110/110/110 109/109/109
f 113/113/113 114/114/114 115/115/115
f 116/116/116 114/114/114 113/113/113
f 117/117/117 118/118/118 119/119/119
f 120/120/120 118/118/118 117/117/117
f 121/121/121 122/122/122 123/123/123
f 124/124/124 122/122/122 121/121/121
f 125/125/125 126/126/126 127/127/127
f 128/128/128 126/126/126 125/125/125
f 129/129/129 130/130/130 131/131/131
f 132/132/132 130/130/130 129/129/129
f 133/133/133 134/134/134 135/135/135
f 136/136/136 134/134/134 133/133/133
f 137/137/137 138/138/138 139/139/139
f 140/140/140 138/138/138 137/137/137
f 141/141/141 142/142/142 143/143/143
f 144/144/144 142/142/142 141/141/141
f 145/145/145 146/146/146 147/147/147
f 148/148/148 146/146/146 145/145/145
f 149/149/149 150/150/150 151/151/151
f 152/152/152 150/150/150 149/149/149
f 153/153/153 154/154/154 155/155/155
f 156/156/156 154/154/154 153/153/153
f 157/157/157 158/158/158 159/159/159
f 160/160/160 158/158/158 157/157/157
f 161/161/161 162/162/162 163/163/163
f 164/164/164 162/162/162 161/161/161
f 165/165/165 166/166/166 167/167/167
f 168/168/168 166/166/166 165/165/165
