v 0.1732055 0.6706638 0.1446814
v -0.1607082 0.6947819 0.1446814
v -0.1607082 0.6706638 0.1446814
v -0.1607082 0.6706638 -0.1460053
v 0.1732055 0.6947819 -0.1460053
v 0.1732055 0.6706638 -0.1460053
v 0.1732055 0.6947819 0.1446814
v -0.1607082 0.6947819 0.1446814
v 0.1732055 0.6706638 0.1446814
v -0.1607082 0.6947819 -0.1460053
v 0.1732055 0.6947819 -0.1460053
v -0.1607082 0.6706638 -0.1460053
v 0.1732055 0.6706638 0.1446814
v -0.1607082 0.6706638 -0.1460053
v 0.1732055 0.6706638 -0.1460053
v -0.1607082 0.6706638 0.1446814
v -0.1607082 0.6706638 0.1446814
v -0.1607082 0.6947819 -0.1460053
v -0.1607082 0.6706638 -0.1460053
v -0.1607082 0.6947819 0.1446814
v -0.1607082 0.6947819 0.1446814
v 0.1732055 0.6947819 -0.1460053
v -0.1607082 0.6947819 -0.1460053
v 0.1732055 0.6947819 0.1446814
v 0.1331359 0.002663282 0.1256198
v -0.1206386 0.002663282 -0.1269437
v 0.1331359 0.002663282 -0.1269437
v -0.1206386 0.002663282 0.1256198
v -0.1326589 0.6745539 0.1375856
v 0.09069157 0.0838787 0.08336645
v 0.1451562 0.6745539 0.1375856
v -0.07819427 0.0838787 0.08336645
v -0.1206386 0.03747015 0.1256198
v 0.1331359 0.03747015 0.1256198
v -0.1206386 0.002663282 0.1256198
v 0.1331359 0.002663282 0.1256198
v -0.1206386 0.03747015 0.1256198
v -0.1206386 0.002663282 -0.1269437
v -0.1206386 0.002663282 0.1256198
v -0.1206386 0.03747015 -0.1269437
v -0.07819427 0.0838787 -0.08469032
v -0.07819427 0.0838787 0.08336645
v -0.1326589 0.6745539 0.1375856
v -0.1326589 0.6745539 -0.1389086
v -0.1206386 0.03747015 -0.1269437
v 0.1331359 0.002663282 -0.1269437
v -0.1206386 0.002663282 -0.1269437
v 0.1331359 0.03747015 -0.1269437
v -0.07819427 0.0838787 -0.08469032
v 0.09069157 0.0838787 -0.08469032
v -0.1326589 0.6745539 -0.1389086
v 0.1451562 0.6745539 -0.1389086
v 0.1331359 0.03747015 -0.1269437
v 0.1331359 0.002663282 0.1256198
v 0.1331359 0.002663282 -0.1269437
v 0.1331359 0.03747015 0.1256198
v 0.09069157 0.0838787 -0.08469032
v 0.09069157 0.0838787 0.08336645
v 0.1451562 0.6745539 -0.1389086
v 0.1451562 0.6745539 0.1375856
v 0.1732055 0.6706638 -0.1460053
v 0.1732055 0.6947819 0.1446814
v 0.1732055 0.6706638 0.1446814
v 0.1732055 0.6947819 -0.1460053
v 0.09449782 0.7446103 -0.01901939
v 0.0348437 0.6867607 -0.1113341
v 0.02794159 0.7446103 -0.08557563
v 0.1202563 0.6867607 -0.0259215
v 0.08899327 0.6867607 0.09075493
v 0.07013694 0.7446103 0.07189862
v -0.02768318 0.6867607 0.1220179
v 0.07013694 0.7446103 0.07189862
v -0.02078106 0.7446103 0.09626038
v 0.08899327 0.6867607 0.09075493
v -0.0873373 0.7446103 0.02970326
v -0.02768318 0.6867607 0.1220179
v -0.02078106 0.7446103 0.09626038
v -0.1130957 0.6867607 0.03660537
v -0.06297642 0.7446103 -0.06121475
v -0.1130957 0.6867607 0.03660537
v -0.0873373 0.7446103 0.02970326
v -0.08183274 0.6867607 -0.08007018
v 0.02794159 0.7446103 -0.08557563
v 0.0348437 0.6867607 -0.1113341
v -0.02078106 0.7446103 0.09626038
v 0.07875343 0.7507039 0.0805151
v -0.02393494 0.7507039 0.1080299
v 0.07013694 0.7446103 0.07189862
v 0.1062682 0.7507039 -0.02217326
v 0.09449782 0.7446103 -0.01901939
v 0.03109546 0.7507039 -0.09734599
v 0.02794159 0.7446103 -0.08557563
v -0.0715929 0.7507039 -0.06983034
v -0.06297642 0.7446103 -0.06121475
v -0.09910766 0.7507039 0.03285713
v -0.0873373 0.7446103 0.02970326
v -0.02393494 0.7507039 0.1080299
v -0.02078106 0.7446103 0.09626038
v 0.1062682 0.7507039 -0.02217326
v 0.03109546 0.7750799 -0.09734599
v 0.1062682 0.7750799 -0.02217326
v 0.03109546 0.7507039 -0.09734599
v 0.1062682 0.7507039 -0.02217326
v 0.07875343 0.7750799 0.0805151
v 0.07875343 0.7507039 0.0805151
v 0.1062682 0.7750799 -0.02217326
v -0.02393494 0.7507039 0.1080299
v 0.07875343 0.7750799 0.0805151
v -0.02393494 0.7750799 0.1080299
v 0.07875343 0.7507039 0.0805151
v -0.09910766 0.7507039 0.03285713
v -0.02393494 0.7750799 0.1080299
v -0.09910766 0.7750799 0.03285713
v -0.02393494 0.7507039 0.1080299
v -0.0715929 0.7507039 -0.06983034
v -0.09910766 0.7750799 0.03285713
v -0.0715929 0.7750799 -0.06983034
v -0.09910766 0.7507039 0.03285713
v 0.03109546 0.7507039 -0.09734599
v -0.0715929 0.7750799 -0.06983034
v 0.03109546 0.7750799 -0.09734599
v -0.0715929 0.7507039 -0.06983034
v -0.02393494 0.7750799 0.1080299
v 0.06082882 0.7750799 0.06259049
v -0.01737374 0.7750799 0.08354493
v 0.07875343 0.7750799 0.0805151
v 0.08178326 0.7750799 -0.01561206
v 0.1062682 0.7750799 -0.02217326
v 0.02453426 0.7750799 -0.07286106
v 0.03109546 0.7750799 -0.09734599
v -0.05366829 0.7750799 -0.05190662
v -0.0715929 0.7750799 -0.06983034
v -0.07462274 0.7750799 0.02629682
v -0.09910766 0.7750799 0.03285713
v -0.01737374 0.7750799 0.08354493
v -0.02393494 0.7750799 0.1080299
v 0.08178326 0.7750799 -0.01561206
v 0.02453426 0.7282965 -0.07286106
v 0.08178326 0.7282965 -0.01561206
v 0.02453426 0.7750799 -0.07286106
v 0.06082882 0.7750799 0.06259049
v 0.08178326 0.7282965 -0.01561206
v 0.06082882 0.7282965 0.06259049
v 0.08178326 0.7750799 -0.01561206
v -0.01737374 0.7750799 0.08354493
v 0.06082882 0.7282965 0.06259049
v -0.01737374 0.7282965 0.08354493
v 0.06082882 0.7750799 0.06259049
v -0.01737374 0.7750799 0.08354493
v -0.07462274 0.7282965 0.02629682
v -0.07462274 0.7750799 0.02629682
v -0.01737374 0.7282965 0.08354493
v -0.07462274 0.7750799 0.02629682
v -0.05366829 0.7282965 -0.05190662
v -0.05366829 0.7750799 -0.05190662
v -0.07462274 0.7282965 0.02629682
v 0.02453426 0.7750799 -0.07286106
v -0.05366829 0.7282965 -0.05190662
v 0.02453426 0.7282965 -0.07286106
v -0.05366829 0.7750799 -0.05190662
v -0.05366829 0.7282965 -0.05190662
v 0.08178326 0.7282965 -0.01561206
v 0.02453426 0.7282965 -0.07286106
v 0.06082882 0.7282965 0.06259049
v -0.01737374 0.7282965 0.08354493
v -0.07462274 0.7282965 0.02629682
vn 0.7067448 0.0009775171 0.7074679
vn -0.7067448 0.0009775171 0.7074679
vn -0.7067448 0.0009775171 0.7074679
vn -0.7067448 0.0009775171 -0.7074679
vn 0.7067448 0.0009775171 -0.7074679
vn 0.7067448 0.0009775171 -0.7074679
vn 0.7067448 0.0009775171 0.7074679
vn -0.7067448 0.0009775171 0.7074679
vn 0.7067448 0.0009775171 0.7074679
vn -0.7067448 0.0009775171 -0.7074679
vn 0.7067448 0.0009775171 -0.7074679
vn -0.7067448 0.0009775171 -0.7074679
vn 0.0009775166 -0.9999995 0
vn 0.0009775166 -0.9999995 0
vn 0.0009775166 -0.9999995 0
vn 0.0009775166 -0.9999995 0
vn -0.7067448 0.0009775171 0.7074679
vn -0.7067448 0.0009775171 -0.7074679
vn -0.7067448 0.0009775171 -0.7074679
vn -0.7067448 0.0009775171 0.7074679
vn 0.0009775166 0.9999995 0
vn 0.0009775166 0.9999995 0
vn 0.0009775166 0.9999995 0
vn 0.0009775166 0.9999995 0
vn 0.0009775166 -0.9999995 0
vn 0.0009775166 -0.9999995 0
vn 0.0009775166 -0.9999995 0
vn 0.0009775166 -0.9999995 0
vn -0.7008798 -0.1280547 0.7016905
vn 0.6148583 0.4936461 0.6150308
vn 0.7008798 -0.1280547 0.7016905
vn -0.6148583 0.4936461 0.6150308
vn -0.6559139 0.3763441 0.6543256
vn 0.6559139 0.3763441 0.6543256
vn -0.7067448 0.0009775171 0.7074679
vn 0.7067448 0.0009775171 0.7074679
vn -0.6559139 0.3763441 0.6543256
vn -0.7067448 0.0009775171 -0.7074679
vn -0.7067448 0.0009775171 0.7074679
vn -0.6559139 0.3763441 -0.6543256
vn -0.6148583 0.4936461 -0.6150308
vn -0.6148583 0.4936461 0.6150308
vn -0.7008798 -0.1280547 0.7016905
vn -0.7008798 -0.1280547 -0.7016905
vn -0.6559139 0.3763441 -0.6543256
vn 0.7067448 0.0009775171 -0.7074679
vn -0.7067448 0.0009775171 -0.7074679
vn 0.6559139 0.3763441 -0.6543256
vn -0.6148583 0.4936461 -0.6150308
vn 0.6148583 0.4936461 -0.6150308
vn -0.7008798 -0.1280547 -0.7016905
vn 0.7008798 -0.1280547 -0.7016905
vn 0.6559139 0.3763441 -0.6543256
vn 0.7067448 0.0009775171 0.7074679
vn 0.7067448 0.0009775171 -0.7074679
vn 0.6559139 0.3763441 0.6543256
vn 0.6148583 0.4936461 -0.6150308
vn 0.6148583 0.4936461 0.6150308
vn 0.7008798 -0.1280547 -0.7016905
vn 0.7008798 -0.1280547 0.7016905
vn 0.7067448 0.0009775171 -0.7074679
vn 0.7067448 0.0009775171 0.7074679
vn 0.7067448 0.0009775171 0.7074679
vn 0.7067448 0.0009775171 -0.7074679
vn 0.8768328 0.4193548 -0.2351716
vn 0.2355816 0.4193548 -0.8767228
vn 0.2355816 0.4193548 -0.8767228
vn 0.8768328 0.4193548 -0.2351716
vn 0.6422287 0.4193548 0.6416259
vn 0.6422287 0.4193548 0.6416259
vn -0.2355816 0.4193548 0.8767228
vn 0.6422287 0.4193548 0.6416259
vn -0.2355816 0.4193548 0.8767228
vn 0.6422287 0.4193548 0.6416259
vn -0.8768328 0.4193548 0.2351716
vn -0.2355816 0.4193548 0.8767228
vn -0.2355816 0.4193548 0.8767228
vn -0.8768328 0.4193548 0.2351716
vn -0.6422287 0.4193548 -0.6416259
vn -0.8768328 0.4193548 0.2351716
vn -0.8768328 0.4193548 0.2351716
vn -0.6422287 0.4193548 -0.6416259
vn 0.2355816 0.4193548 -0.8767228
vn 0.2355816 0.4193548 -0.8767228
vn -0.1163245 -0.8944281 0.4318182
vn 0.315738 -0.8944281 0.3167141
vn -0.1163245 -0.8944281 0.4318182
vn 0.315738 -0.8944281 0.3167141
vn 0.4310851 -0.8944281 -0.1190127
vn 0.4310851 -0.8944281 -0.1190127
vn 0.1163245 -0.8944281 -0.4318182
vn 0.1163245 -0.8944281 -0.4318182
vn -0.315738 -0.8944281 -0.3167141
vn -0.315738 -0.8944281 -0.3167141
vn -0.4310851 -0.8944281 0.1190127
vn -0.4310851 -0.8944281 0.1190127
vn -0.1163245 -0.8944281 0.4318182
vn -0.1163245 -0.8944281 0.4318182
vn 0.9667644 0.0009775171 -0.2556671
vn 0.259042 0.0009775171 -0.9658656
vn 0.9667644 0.0009775171 -0.2556671
vn 0.259042 0.0009775171 -0.9658656
vn 0.9667644 0.0009775171 -0.2556671
vn 0.7067448 0.0009775171 0.7074679
vn 0.7067448 0.0009775171 0.7074679
vn 0.9667644 0.0009775171 -0.2556671
vn -0.259042 0.0009775171 0.9658656
vn 0.7067448 0.0009775171 0.7074679
vn -0.259042 0.0009775171 0.9658656
vn 0.7067448 0.0009775171 0.7074679
vn -0.9667644 0.0009775171 0.2556671
vn -0.259042 0.0009775171 0.9658656
vn -0.9667644 0.0009775171 0.2556671
vn -0.259042 0.0009775171 0.9658656
vn -0.7067448 0.0009775171 -0.7074679
vn -0.9667644 0.0009775171 0.2556671
vn -0.7067448 0.0009775171 -0.7074679
vn -0.9667644 0.0009775171 0.2556671
vn 0.259042 0.0009775171 -0.9658656
vn -0.7067448 0.0009775171 -0.7074679
vn 0.259042 0.0009775171 -0.9658656
vn -0.7067448 0.0009775171 -0.7074679
vn 0.0009775166 0.9999995 0
vn -0.3861192 0.8377321 -0.3861564
vn 0.14174 0.8377321 -0.5273657
vn 0.0009775166 0.9999995 0
vn -0.5268817 0.8377321 0.1435287
vn 0.0009775166 0.9999995 0
vn -0.14174 0.8377321 0.5273657
vn 0.0009775166 0.9999995 0
vn 0.3861192 0.8377321 0.3861564
vn 0.0009775166 0.9999995 0
vn 0.5268817 0.8377321 -0.1435287
vn 0.0009775166 0.9999995 0
vn 0.14174 0.8377321 -0.5273657
vn 0.0009775166 0.9999995 0
vn -0.5268817 0.8377321 0.1435287
vn -0.259042 0.0009775171 0.9658656
vn -0.9667644 0.0009775171 0.2556671
vn -0.14174 0.8377321 0.5273657
vn -0.3861192 0.8377321 -0.3861564
vn -0.9667644 0.0009775171 0.2556671
vn -0.7067448 0.0009775171 -0.7074679
vn -0.5268817 0.8377321 0.1435287
vn 0.14174 0.8377321 -0.5273657
vn -0.7067448 0.0009775171 -0.7074679
vn 0.259042 0.0009775171 -0.9658656
vn -0.3861192 0.8377321 -0.3861564
vn 0.14174 0.8377321 -0.5273657
vn 0.9667644 0.0009775171 -0.2556671
vn 0.5268817 0.8377321 -0.1435287
vn 0.259042 0.0009775171 -0.9658656
vn 0.5268817 0.8377321 -0.1435287
vn 0.7067448 0.0009775171 0.7074679
vn 0.3861192 0.8377321 0.3861564
vn 0.9667644 0.0009775171 -0.2556671
vn -0.14174 0.8377321 0.5273657
vn 0.7067448 0.0009775171 0.7074679
vn -0.259042 0.0009775171 0.9658656
vn 0.3861192 0.8377321 0.3861564
vn 0.0009775166 0.9999995 0
vn 0.0009775166 0.9999995 0
vn 0.0009775166 0.9999995 0
vn 0.0009775166 0.9999995 0
vn 0.0009775166 0.9999995 0
vn 0.0009775166 0.9999995 0
vt 0.08474474 0.9019128
vt 0.0825755 0.9794444
vt 0.08435033 0.9852695
vt 0.02030453 0.9851178
vt 0.02248894 0.9075862
vt 0.0207141 0.9017611
vt 0.08243898 0.9072222
vt 0.0825755 0.9794444
vt 0.08474474 0.9019128
vt 0.0226103 0.9798084
vt 0.02248894 0.9075862
vt 0.02030453 0.9851178
vt 0.01928817 0.720121
vt 0.08251482 0.7927528
vt 0.08251482 0.720121
vt 0.01928817 0.7927528
vt 0.08435033 0.9852695
vt 0.0226103 0.9798084
vt 0.02030453 0.9851178
vt 0.0825755 0.9794444
vt 0.0825755 0.9794444
vt 0.02248894 0.9075862
vt 0.0226103 0.9798084
vt 0.08243898 0.9072222
vt 0.02104783 0.8324212
vt 0.07599191 0.8876231
vt 0.07599191 0.8324212
vt 0.02104783 0.8876231
vt 0.2747433 0.8772624
vt 0.2316921 0.7444226
vt 0.2316921 0.8772624
vt 0.2747433 0.7444226
vt 0.2747433 0.7275237
vt 0.2316921 0.7275237
vt 0.2747433 0.7197722
vt 0.2316921 0.7197722
vt 0.1015678 0.7275237
vt 0.1439515 0.7197722
vt 0.1015678 0.7197722
vt 0.1439515 0.7275237
vt 0.1439515 0.7444226
vt 0.1015678 0.7444226
vt 0.1015678 0.8772624
vt 0.1439515 0.8772624
vt 0.1439515 0.7275237
vt 0.1870178 0.7197722
vt 0.1439515 0.7197722
vt 0.1870178 0.7275237
vt 0.1439515 0.7444226
vt 0.1870178 0.7444226
vt 0.1439515 0.8772624
vt 0.1870178 0.8772624
vt 0.1870178 0.7275237
vt 0.2316921 0.7197722
vt 0.1870178 0.7197722
vt 0.2316921 0.7275237
vt 0.1870178 0.7444226
vt 0.2316921 0.7444226
vt 0.1870178 0.8772624
vt 0.2316921 0.8772624
vt 0.0207141 0.9017611
vt 0.08243898 0.9072222
vt 0.08474474 0.9019128
vt 0.02248894 0.9075862
vt 0.2321017 0.9133506
vt 0.2090288 0.8982873
vt 0.2090288 0.9133506
vt 0.2321017 0.8982873
vt 0.2551745 0.8982873
vt 0.2551745 0.9133506
vt 0.272483 0.8982873
vt 0.2551745 0.9133506
vt 0.272483 0.9133506
vt 0.2551745 0.8982873
vt 0.1628831 0.9133506
vt 0.1398102 0.8982873
vt 0.1398102 0.9133506
vt 0.1628831 0.8982873
vt 0.1859559 0.9133506
vt 0.1628831 0.8982873
vt 0.1628831 0.9133506
vt 0.1859559 0.8982873
vt 0.2090288 0.9133506
vt 0.2090288 0.8982873
vt 0.272483 0.9133506
vt 0.2551745 0.9166273
vt 0.272483 0.9166273
vt 0.2551745 0.9133506
vt 0.2321017 0.9166273
vt 0.2321017 0.9133506
vt 0.2090288 0.9166273
vt 0.2090288 0.9133506
vt 0.1859559 0.9166273
vt 0.1859559 0.9133506
vt 0.1628831 0.9166273
vt 0.1628831 0.9133506
vt 0.1398102 0.9166273
vt 0.1398102 0.9133506
vt 0.2321017 0.9166273
vt 0.2090288 0.9223614
vt 0.2321017 0.9223614
vt 0.2090288 0.9166273
vt 0.2321017 0.9166273
vt 0.2551745 0.9223614
vt 0.2551745 0.9166273
vt 0.2321017 0.9223614
vt 0.272483 0.9166273
vt 0.2551745 0.9223614
vt 0.272483 0.9223614
vt 0.2551745 0.9166273
vt 0.1628831 0.9166273
vt 0.1398102 0.9223614
vt 0.1628831 0.9223614
vt 0.1398102 0.9166273
vt 0.1859559 0.9166273
vt 0.1628831 0.9223614
vt 0.1859559 0.9223614
vt 0.1628831 0.9166273
vt 0.2090288 0.9166273
vt 0.1859559 0.9223614
vt 0.2090288 0.9223614
vt 0.1859559 0.9166273
vt 0.272483 0.9223614
vt 0.2551745 0.9285202
vt 0.272483 0.9285202
vt 0.2551745 0.9223614
vt 0.2321017 0.9285202
vt 0.2321017 0.9223614
vt 0.2090288 0.9285202
vt 0.2090288 0.9223614
vt 0.1859559 0.9285202
vt 0.1859559 0.9223614
vt 0.1628831 0.9285202
vt 0.1628831 0.9223614
vt 0.1398102 0.9285202
vt 0.1398102 0.9223614
vt 0.2321017 0.9285202
vt 0.2090288 0.9395182
vt 0.2321017 0.9395182
vt 0.2090288 0.9285202
vt 0.2551745 0.9285202
vt 0.2321017 0.9395182
vt 0.2551745 0.9395182
vt 0.2321017 0.9285202
vt 0.272483 0.9285202
vt 0.2551745 0.9395182
vt 0.272483 0.9395182
vt 0.2551745 0.9285202
vt 0.1398102 0.9285202
vt 0.1628831 0.9395182
vt 0.1628831 0.9285202
vt 0.1398102 0.9395182
vt 0.1628831 0.9285202
vt 0.1859559 0.9395182
vt 0.1859559 0.9285202
vt 0.1628831 0.9395182
vt 0.2090288 0.9285202
vt 0.1859559 0.9395182
vt 0.2090288 0.9395182
vt 0.1859559 0.9285202
vt 0.1251867 0.9747266
vt 0.1404473 0.9483013
vt 0.1251867 0.9571148
vt 0.1556927 0.9571148
vt 0.1556927 0.9747266
vt 0.1404473 0.983525
f 1/1/1 2/2/2 3/3/3
f 4/4/4 5/5/5 6/6/6
f 7/7/7 8/8/8 9/9/9
f 10/10/10 11/11/11 12/12/12
f 13/13/13 14/14/14 15/15/15
f 16/16/16 14/14/14 13/13/13
f 17/17/17 18/18/18 19/19/19
f 20/20/20 18/18/18 17/17/17
f 21/21/21 22/22/22 23/23/23
f 24/24/24 22/22/22 21/21/21
f 25/25/25 26/26/26 27/27/27
f 28/28/28 26/26/26 25/25/25
f 29/29/29 30/30/30 31/31/31
f 32/32/32 30/30/30 29/29/29
f 32/32/32 33/33/33 30/30/30
f 30/30/30 33/33/33 34/34/34
f 33/33/33 35/35/35 34/34/34
f 34/34/34 35/35/35 36/36/36
f 37/37/37 38/38/38 39/39/39
f 40/40/40 38/38/38 37/37/37
f 40/40/40 37/37/37 41/41/41
f 41/41/41 37/37/37 42/42/42
f 43/43/43 41/41/41 42/42/42
f 44/44/44 41/41/41 43/43/43
f 45/45/45 46/46/46 47/47/47
f 48/48/48 46/46/46 45/45/45
f 49/49/49 48/48/48 45/45/45
f 50/50/50 48/48/48 49/49/49
f 51/51/51 50/50/50 49/49/49
f 52/52/52 50/50/50 51/51/51
f 53/53/53 54/54/54 55/55/55
f 56/56/56 54/54/54 53/53/53
f 57/57/57 56/56/56 53/53/53
f 58/58/58 56/56/56 57/57/57
f 59/59/59 58/58/58 57/57/57
f 60/60/60 58/58/58 59/59/59
f 61/61/61 62/62/62 63/63/63
f 64/64/64 62/62/62 61/61/61
f 65/65/65 66/66/66 67/67/67
f 68/68/68 66/66/66 65/65/65
f 68/68/68 65/65/65 69/69/69
f 69/69/69 65/65/65 70/70/70
f 71/71/71 72/72/72 73/73/73
f 74/74/74 72/72/72 71/71/71
f 75/75/75 76/76/76 77/77/77
f 78/78/78 76/76/76 75/75/75
f 79/79/79 80/80/80 81/81/81
f 82/82/82 80/80/80 79/79/79
f 83/83/83 82/82/82 79/79/79
f 84/84/84 82/82/82 83/83/83
f 85/85/85 86/86/86 87/87/87
f 88/88/88 86/86/86 85/85/85
f 88/88/88 89/89/89 86/86/86
f 90/90/90 89/89/89 88/88/88
f 90/90/90 91/91/91 89/89/89
f 92/92/92 91/91/91 90/90/90
f 92/92/92 93/93/93 91/91/91
f 94/94/94 93/93/93 92/92/92
f 94/94/94 95/95/95 93/93/93
f 96/96/96 95/95/95 94/94/94
f 96/96/96 97/97/97 95/95/95
f 98/98/98 97/97/97 96/96/96
f 99/99/99 100/100/100 101/101/101
f 102/102/102 100/100/100 99/99/99
f 103/103/103 104/104/104 105/105/105
f 106/106/106 104/104/104 103/103/103
f 107/107/107 108/108/108 109/109/109
f 110/110/110 108/108/108 107/107/107
f 111/111/111 112/112/112 113/113/113
f 114/114/114 112/112/112 111/111/111
f 115/115/115 116/116/116 117/117/117
f 118/118/118 116/116/116 115/115/115
f 119/119/119 120/120/120 121/121/121
f 122/122/122 120/120/120 119/119/119
f 123/123/123 124/124/124 125/125/125
f 126/126/126 124/124/124 123/123/123
f 126/126/126 127/127/127 124/124/124
f 128/128/128 127/127/127 126/126/126
f 128/128/128 129/129/129 127/127/127
f 130/130/130 129/129/129 128/128/128
f 130/130/130 131/131/131 129/129/129
f 132/132/132 131/131/131 130/130/130
f 132/132/132 133/133/133 131/131/131
f 134/134/134 133/133/133 132/132/132
f 134/134/134 135/135/135 133/133/133
f 136/136/136 135/135/135 134/134/134
f 137/137/137 138/138/138 139/139/139
f 140/140/140 138/138/138 137/137/137
f 141/141/141 142/142/142 143/143/143
f 144/144/144 142/142/142 141/141/141
f 145/145/145 146/146/146 147/147/147
f 148/148/148 146/146/146 145/145/145
f 149/149/149 150/150/150 151/151/151
f 152/152/152 150/150/150 149/149/149
f 153/153/153 154/154/154 155/155/155
f 156/156/156 154/154/154 153/153/153
f 157/157/157 158/158/158 159/159/159
f 160/160/160 158/158/158 157/157/157
f 161/161/161 162/162/162 163/163/163
f 162/162/162 161/161/161 164/164/164
f 161/161/161 165/165/165 164/164/164
f 165/165/165 161/161/161 166/166/166
