v -0.2561322 -0.005314745 0.4885809
v -0.2932521 -0.005314745 0.4885809
v -0.2746922 -0.005314745 0.4576477
v 0.293977 -0.005314745 0.4885809
v 0.2568571 -0.005314745 0.4885809
v 0.2754171 -0.005314745 0.4576477
v 0.2754171 1.109236 0.4576477
v 0.2568571 1.109236 0.4885809
v 0.293977 1.109236 0.4885809
v -0.2746922 1.109236 0.4576477
v -0.2932521 1.109236 0.4885809
v -0.2561322 1.109236 0.4885809
v 0.2949015 1.207364 -0.006332258
v 0.2949015 -0.003190992 0.02307972
v 0.2949015 -0.003192423 -0.006332258
v 0.2949015 1.207364 0.02307829
v -0.2930332 1.207364 -0.006332258
v 0.2949015 -0.003192423 -0.006332258
v -0.2930332 -0.003192423 -0.006332258
v 0.2949015 1.207364 -0.006332258
v -0.2930332 1.207364 0.02307829
v -0.2930332 -0.003192423 -0.006332258
v -0.2930332 -0.003190992 0.02307972
v -0.2930332 1.207364 -0.006332258
v 0.2949015 1.207364 0.02307829
v -0.2930332 -0.003190992 0.02307972
v 0.2949015 -0.003190992 0.02307972
v -0.2930332 1.207364 0.02307829
v 0.2949015 -0.003192423 -0.006332258
v -0.2930332 -0.003190992 0.02307972
v -0.2930332 -0.003192423 -0.006332258
v 0.2949015 -0.003190992 0.02307972
v -0.2930332 1.207364 -0.006332258
v 0.2949015 1.207364 0.02307829
v 0.2949015 1.207364 -0.006332258
v -0.2930332 1.207364 0.02307829
v -0.2932521 1.109236 0.4885809
v -0.2746922 -0.005314745 0.4576477
v -0.2932521 -0.005314745 0.4885809
v -0.2746922 1.109236 0.4576477
v -0.1965484 0.2153466 0.4671917
v -0.2617951 0.1255508 0.4671917
v -0.2857188 0.1411584 0.4671917
v -0.1705553 0.2022363 0.4671917
v -0.1965484 0.2153466 0.4821481
v -0.2617951 0.1255508 0.4821481
v -0.1705553 0.2022363 0.4821481
v -0.2857188 0.1411584 0.4821481
v 0.2568571 1.109236 0.4885809
v 0.2754171 -0.005314745 0.4576477
v 0.2568571 -0.005314745 0.4885809
v 0.2754171 1.109236 0.4576477
v -0.2561322 1.109236 0.4885809
v -0.2932521 -0.005314745 0.4885809
v -0.2561322 -0.005314745 0.4885809
v -0.2932521 1.109236 0.4885809
v 0.2794542 1.08727 0.01638217
v 0.2794542 1.050809 0.4774441
v 0.2794542 1.050809 0.01638217
v 0.2794542 1.08727 0.4774441
v -0.2738221 1.08727 0.01638217
v 0.2794542 1.050809 0.01638217
v -0.2738221 1.050809 0.01638217
v 0.2794542 1.08727 0.01638217
v -0.2738221 1.08727 0.4774441
v -0.2738221 1.050809 0.01638217
v -0.2738221 1.050809 0.4774441
v -0.2738221 1.08727 0.01638217
v 0.2794542 1.08727 0.4774441
v -0.2738221 1.050809 0.4774441
v 0.2794542 1.050809 0.4774441
v -0.2738221 1.08727 0.4774441
v 0.2794542 1.050809 0.01638217
v -0.2738221 1.050809 0.4774441
v -0.2738221 1.050809 0.01638217
v 0.2794542 1.050809 0.4774441
v -0.2738221 1.08727 0.01638217
v 0.2794542 1.08727 0.4774441
v 0.2794542 1.08727 0.01638217
v -0.2738221 1.08727 0.4774441
v 0.2794542 0.5642532 0.01638217
v 0.2794542 0.5380383 0.4774441
v 0.2794542 0.5380383 0.01638217
v 0.2794542 0.5642532 0.4774441
v -0.2738221 0.5642532 0.01638217
v 0.2794542 0.5380383 0.01638217
v -0.2738221 0.5380383 0.01638217
v 0.2794542 0.5642532 0.01638217
v -0.2738221 0.5642532 0.4774441
v -0.2738221 0.5380383 0.01638217
v -0.2738221 0.5380383 0.4774441
v -0.2738221 0.5642532 0.01638217
v 0.2794542 0.5642532 0.4774441
v -0.2738221 0.5380383 0.4774441
v 0.2794542 0.5380383 0.4774441
v -0.2738221 0.5642532 0.4774441
v 0.2794542 0.5380383 0.01638217
v -0.2738221 0.5380383 0.4774441
v -0.2738221 0.5380383 0.01638217
v 0.2794542 0.5380383 0.4774441
v -0.2738221 0.5642532 0.01638217
v 0.2794542 0.5642532 0.4774441
v 0.2794542 0.5642532 0.01638217
v -0.2738221 0.5642532 0.4774441
v 0.2794542 0.2273135 -0.01735602
v 0.2788746 0.1974936 0.5001227
v 0.2794542 0.1974936 -0.01735602
v 0.2788746 0.2273135 0.5001227
v -0.2738221 0.2273135 -0.01735602
v 0.2794542 0.1974936 -0.01735602
v -0.2738221 0.1974936 -0.01735602
v 0.2794542 0.2273135 -0.01735602
v -0.2744017 0.2273135 0.5001227
v -0.2738221 0.1974936 -0.01735602
v -0.2744017 0.1974936 0.5001227
v -0.2738221 0.2273135 -0.01735602
v 0.2788746 0.2273135 0.5001227
v -0.2744017 0.1974936 0.5001227
v 0.2788746 0.1974936 0.5001227
v -0.2744017 0.2273135 0.5001227
v 0.2788746 0.1974936 0.5001227
v -0.2738221 0.1974936 -0.01735602
v 0.2794542 0.1974936 -0.01735602
v -0.2744017 0.1974936 0.5001227
v -0.2738221 0.2273135 -0.01735602
v 0.2788746 0.2273135 0.5001227
v 0.2794542 0.2273135 -0.01735602
v -0.2744017 0.2273135 0.5001227
v 0.293977 1.109236 0.4885809
v 0.2568571 -0.005314745 0.4885809
v 0.293977 -0.005314745 0.4885809
v 0.2568571 1.109236 0.4885809
v 0.2754171 1.109236 0.4576477
v 0.293977 -0.005314745 0.4885809
v 0.2754171 -0.005314745 0.4576477
v 0.293977 1.109236 0.4885809
v 0.2586088 0.1255508 0.4671917
v 0.1933635 0.2153466 0.4671917
v 0.2825339 0.1411584 0.4671917
v 0.1673704 0.2022363 0.4671917
v -0.2746922 1.109236 0.4576477
v -0.2561322 -0.005314745 0.4885809
v -0.2746922 -0.005314745 0.4576477
v -0.2561322 1.109236 0.4885809
v 0.1933635 0.2153466 0.4821481
v 0.2586088 0.1255508 0.4821481
v 0.2825339 0.1411584 0.4821481
v 0.1673704 0.2022363 0.4821481
vn 0.0009775166 -0.9999995 0
vn 0.0009775166 -0.9999995 0
vn 0.0009775166 -0.9999995 0
vn 0.0009775166 -0.9999995 0
vn 0.0009775166 -0.9999995 0
vn 0.0009775166 -0.9999995 0
vn 0.0009775166 0.9999995 0
vn 0.0009775166 0.9999995 0
vn 0.0009775166 0.9999995 0
vn 0.0009775166 0.9999995 0
vn 0.0009775166 0.9999995 0
vn 0.0009775166 0.9999995 0
vn 0.9999995 0.0009775166 0
vn 0.9999995 0.0009775166 0
vn 0.9999995 0.0009775166 0
vn 0.9999995 0.0009775166 0
vn 0.0009775171 0.0009775171 -0.999999
vn 0.0009775171 0.0009775171 -0.999999
vn 0.0009775171 0.0009775171 -0.999999
vn 0.0009775171 0.0009775171 -0.999999
vn -0.9999995 0.0009775166 0
vn -0.9999995 0.0009775166 0
vn -0.9999995 0.0009775166 0
vn -0.9999995 0.0009775166 0
vn 0.0009775171 0.0009775171 0.999999
vn 0.0009775171 0.0009775171 0.999999
vn 0.0009775171 0.0009775171 0.999999
vn 0.0009775171 0.0009775171 0.999999
vn 0.0009775166 -0.9999995 0
vn 0.0009775166 -0.9999995 0
vn 0.0009775166 -0.9999995 0
vn 0.0009775166 -0.9999995 0
vn 0.0009775166 0.9999995 0
vn 0.0009775166 0.9999995 0
vn 0.0009775166 0.9999995 0
vn 0.0009775166 0.9999995 0
vn -0.8572825 0.0009775171 -0.5148454
vn -0.8572825 0.0009775171 -0.5148454
vn -0.8572825 0.0009775171 -0.5148454
vn -0.8572825 0.0009775171 -0.5148454
vn 0.0009775171 0.0009775171 -0.999999
vn 0.0009775171 0.0009775171 -0.999999
vn 0.0009775171 0.0009775171 -0.999999
vn 0.0009775171 0.0009775171 -0.999999
vn 0.0009775171 0.0009775171 0.999999
vn 0.0009775171 0.0009775171 0.999999
vn 0.0009775171 0.0009775171 0.999999
vn 0.0009775171 0.0009775171 0.999999
vn -0.8572825 0.0009775171 -0.5148454
vn -0.8572825 0.0009775171 -0.5148454
vn -0.8572825 0.0009775171 -0.5148454
vn -0.8572825 0.0009775171 -0.5148454
vn 0.0009775171 0.0009775171 0.999999
vn 0.0009775171 0.0009775171 0.999999
vn 0.0009775171 0.0009775171 0.999999
vn 0.0009775171 0.0009775171 0.999999
vn 0.9999995 0.0009775166 0
vn 0.9999995 0.0009775166 0
vn 0.9999995 0.0009775166 0
vn 0.9999995 0.0009775166 0
vn 0.0009775171 0.0009775171 -0.999999
vn 0.0009775171 0.0009775171 -0.999999
vn 0.0009775171 0.0009775171 -0.999999
vn 0.0009775171 0.0009775171 -0.999999
vn -0.9999995 0.0009775166 0
vn -0.9999995 0.0009775166 0
vn -0.9999995 0.0009775166 0
vn -0.9999995 0.0009775166 0
vn 0.0009775171 0.0009775171 0.999999
vn 0.0009775171 0.0009775171 0.999999
vn 0.0009775171 0.0009775171 0.999999
vn 0.0009775171 0.0009775171 0.999999
vn 0.0009775166 -0.9999995 0
vn 0.0009775166 -0.9999995 0
vn 0.0009775166 -0.9999995 0
vn 0.0009775166 -0.9999995 0
vn 0.0009775166 0.9999995 0
vn 0.0009775166 0.9999995 0
vn 0.0009775166 0.9999995 0
vn 0.0009775166 0.9999995 0
vn 0.9999995 0.0009775166 0
vn 0.9999995 0.0009775166 0
vn 0.9999995 0.0009775166 0
vn 0.9999995 0.0009775166 0
vn 0.0009775171 0.0009775171 -0.999999
vn 0.0009775171 0.0009775171 -0.999999
vn 0.0009775171 0.0009775171 -0.999999
vn 0.0009775171 0.0009775171 -0.999999
vn -0.9999995 0.0009775166 0
vn -0.9999995 0.0009775166 0
vn -0.9999995 0.0009775166 0
vn -0.9999995 0.0009775166 0
vn 0.0009775171 0.0009775171 0.999999
vn 0.0009775171 0.0009775171 0.999999
vn 0.0009775171 0.0009775171 0.999999
vn 0.0009775171 0.0009775171 0.999999
vn 0.0009775166 -0.9999995 0
vn 0.0009775166 -0.9999995 0
vn 0.0009775166 -0.9999995 0
vn 0.0009775166 -0.9999995 0
vn 0.0009775166 0.9999995 0
vn 0.0009775166 0.9999995 0
vn 0.0009775166 0.9999995 0
vn 0.0009775166 0.9999995 0
vn 0.9999995 0.0009775166 0
vn 0.9999995 0.0009775166 0
vn 0.9999995 0.0009775166 0
vn 0.9999995 0.0009775166 0
vn 0.0009775171 0.0009775171 -0.999999
vn 0.0009775171 0.0009775171 -0.999999
vn 0.0009775171 0.0009775171 -0.999999
vn 0.0009775171 0.0009775171 -0.999999
vn -0.9999995 0.0009775166 0
vn -0.9999995 0.0009775166 0
vn -0.9999995 0.0009775166 0
vn -0.9999995 0.0009775166 0
vn 0.0009775171 0.0009775171 0.999999
vn 0.0009775171 0.0009775171 0.999999
vn 0.0009775171 0.0009775171 0.999999
vn 0.0009775171 0.0009775171 0.999999
vn 0.0009775166 -0.9999995 0
vn 0.0009775166 -0.9999995 0
vn 0.0009775166 -0.9999995 0
vn 0.0009775166 -0.9999995 0
vn 0.0009775166 0.9999995 0
vn 0.0009775166 0.9999995 0
vn 0.0009775166 0.9999995 0
vn 0.0009775166 0.9999995 0
vn 0.0009775171 0.0009775171 0.999999
vn 0.0009775171 0.0009775171 0.999999
vn 0.0009775171 0.0009775171 0.999999
vn 0.0009775171 0.0009775171 0.999999
vn 0.8572825 0.0009775171 -0.5148454
vn 0.8572825 0.0009775171 -0.5148454
vn 0.8572825 0.0009775171 -0.5148454
vn 0.8572825 0.0009775171 -0.5148454
vn 0.0009775171 0.0009775171 -0.999999
vn 0.0009775171 0.0009775171 -0.999999
vn 0.0009775171 0.0009775171 -0.999999
vn 0.0009775171 0.0009775171 -0.999999
vn 0.8572825 0.0009775171 -0.5148454
vn 0.8572825 0.0009775171 -0.5148454
vn 0.8572825 0.0009775171 -0.5148454
vn 0.8572825 0.0009775171 -0.5148454
vn 0.0009775171 0.0009775171 0.999999
vn 0.0009775171 0.0009775171 0.999999
vn 0.0009775171 0.0009775171 0.999999
vn 0.0009775171 0.0009775171 0.999999
vt 0.3611295 0.3610992
vt 0.3611295 0.3476651
vt 0.3476802 0.3543746
vt 0.3611295 0.3610992
vt 0.3611295 0.3476651
vt 0.3476802 0.3543746
vt 0.310513 0.3537233
vt 0.32528 0.3610992
vt 0.32528 0.3463323
vt 0.310513 0.3537233
vt 0.32528 0.3610992
vt 0.32528 0.3463323
vt 0.2957158 0.1472742
vt 0.01246349 0.1403981
vt 0.01246349 0.1472742
vt 0.2957158 0.1403981
vt 0.293762 0.2756328
vt 0.01050972 0.160996
vt 0.01050972 0.2756328
vt 0.293762 0.160996
vt 0.2957158 0.0257613
vt 0.01246349 0.01887007
vt 0.01246349 0.0257613
vt 0.2957158 0.01887007
vt 0.2957158 0.1403981
vt 0.01246349 0.0257613
vt 0.01246349 0.1403981
vt 0.2957158 0.0257613
vt 0.005587407 0.1403981
vt 0.01246349 0.0257613
vt 0.005587407 0.0257613
vt 0.01246349 0.1403981
vt 0.3026071 0.0257613
vt 0.2957158 0.1403981
vt 0.3026071 0.1403981
vt 0.2957158 0.0257613
vt 0.272119 0.4709046
vt 0.01132758 0.4600452
vt 0.01132758 0.4709046
vt 0.272119 0.4600452
vt 0.3172831 0.4356911
vt 0.3279759 0.3913449
vt 0.3170408 0.3900727
vt 0.3279759 0.4382659
vt 0.3451661 0.4356911
vt 0.3344733 0.3913449
vt 0.3344733 0.4382659
vt 0.3453933 0.3900727
vt 0.272119 0.4709046
vt 0.01132758 0.4600452
vt 0.01132758 0.4709046
vt 0.272119 0.4600452
vt 0.272119 0.4491858
vt 0.01132758 0.4419462
vt 0.01132758 0.4491858
vt 0.272119 0.4419462
vt 0.2760569 0.3042125
vt 0.284599 0.4120943
vt 0.284599 0.3042125
vt 0.2760569 0.4120943
vt 0.168175 0.3042125
vt 0.2760569 0.2956704
vt 0.168175 0.2956704
vt 0.2760569 0.3042125
vt 0.168175 0.4120943
vt 0.1596481 0.3042125
vt 0.1596481 0.4120943
vt 0.168175 0.3042125
vt 0.2760569 0.4120943
vt 0.168175 0.4206213
vt 0.2760569 0.4206213
vt 0.168175 0.4120943
vt 0.3744576 0.2876432
vt 0.4704351 0.3836358
vt 0.4704351 0.2876432
vt 0.3744576 0.3836358
vt 0.168175 0.3042125
vt 0.2760569 0.4120943
vt 0.2760569 0.3042125
vt 0.168175 0.4120943
vt 0.3556317 0.1314773
vt 0.3497097 0.02738187
vt 0.3497097 0.1314773
vt 0.3556317 0.02738187
vt 0.4597271 0.1314773
vt 0.3556317 0.1373841
vt 0.4597271 0.1373841
vt 0.3556317 0.1314773
vt 0.4597271 0.02738187
vt 0.465649 0.1314773
vt 0.465649 0.02738187
vt 0.4597271 0.1314773
vt 0.3556317 0.02738187
vt 0.4597271 0.02145996
vt 0.3556317 0.02145996
vt 0.4597271 0.02738187
vt 0.3806824 0.3922839
vt 0.476675 0.4882765
vt 0.476675 0.3922839
vt 0.3806824 0.4882765
vt 0.4597271 0.1314773
vt 0.3556317 0.02738187
vt 0.3556317 0.1314773
vt 0.4597271 0.02738187
vt 0.1269488 0.2987752
vt 0.1338703 0.4198489
vt 0.1339309 0.2987752
vt 0.1268882 0.4198489
vt 0.01906696 0.2988207
vt 0.1269488 0.2917931
vt 0.01906696 0.2918386
vt 0.1269488 0.2987752
vt 0.01900638 0.4198943
vt 0.01208485 0.2988207
vt 0.01202427 0.4198943
vt 0.01906696 0.2988207
vt 0.1268882 0.4198489
vt 0.01900638 0.4268764
vt 0.1268882 0.426831
vt 0.01900638 0.4198943
vt 0.349316 0.2800402
vt 0.4534114 0.1633133
vt 0.349316 0.1632073
vt 0.4533963 0.2801462
vt 0.01906696 0.2988207
vt 0.1268882 0.4198489
vt 0.1269488 0.2987752
vt 0.01900638 0.4198943
vt 0.272119 0.4491858
vt 0.01132758 0.4419462
vt 0.01132758 0.4491858
vt 0.272119 0.4419462
vt 0.272119 0.4600452
vt 0.01132758 0.4491858
vt 0.01132758 0.4600452
vt 0.272119 0.4491858
vt 0.3279759 0.3913449
vt 0.3172831 0.4356911
vt 0.3170408 0.3900727
vt 0.3279759 0.4382659
vt 0.272119 0.4600452
vt 0.01132758 0.4491858
vt 0.01132758 0.4600452
vt 0.272119 0.4491858
vt 0.3451661 0.4356911
vt 0.3344733 0.3913449
vt 0.3453933 0.3900727
vt 0.3344733 0.4382659
f 1/1/1 2/2/2 3/3/3
f 4/4/4 5/5/5 6/6/6
f 7/7/7 8/8/8 9/9/9
f 10/10/10 11/11/11 12/12/12
f 13/13/13 14/14/14 15/15/15
f 16/16/16 14/14/14 13/13/13
f 17/17/17 18/18/18 19/19/19
f 20/20/20 18/18/18 17/17/17
f 21/21/21 22/22/22 23/23/23
f 24/24/24 22/22/22 21/21/21
f 25/25/25 26/26/26 27/27/27
f 28/28/28 26/26/26 25/25/25
f 29/29/29 30/30/30 31/31/31
f 32/32/32 30/30/30 29/29/29
f 33/33/33 34/34/34 35/35/35
f 36/36/36 34/34/34 33/33/33
f 37/37/37 38/38/38 39/39/39
f 40/40/40 38/38/38 37/37/37
f 41/41/41 42/42/42 43/43/43
f 44/44/44 42/42/42 41/41/41
f 45/45/45 46/46/46 47/47/47
f 48/48/48 46/46/46 45/45/45
f 49/49/49 50/50/50 51/51/51
f 52/52/52 50/50/50 49/49/49
f 53/53/53 54/54/54 55/55/55
f 56/56/56 54/54/54 53/53/53
f 57/57/57 58/58/58 59/59/59
f 60/60/60 58/58/58 57/57/57
f 61/61/61 62/62/62 63/63/63
f 64/64/64 62/62/62 61/61/61
f 65/65/65 66/66/66 67/67/67
f 68/68/68 66/66/66 65/65/65
f 69/69/69 70/70/70 71/71/71
f 72/72/72 70/70/70 69/69/69
f 73/73/73 74/74/74 75/75/75
f 76/76/76 74/74/74 73/73/73
f 77/77/77 78/78/78 79/79/79
f 80/80/80 78/78/78 77/77/77
f 81/81/81 82/82/82 83/83/83
f 84/84/84 82/82/82 81/81/81
f 85/85/85 86/86/86 87/87/87
f 88/88/88 86/86/86 85/85/85
f 89/89/89 90/90/90 91/91/91
f 92/92/92 90/90/90 89/89/89
f 93/93/93 94/94/94 95/95/95
f 96/96/96 94/94/94 93/93/93
f 97/97/97 98/98/98 99/99/99
f 100/100/100 98/98/98 97/97/97
f 101/101/101 102/102/102 103/103/103
f 104/104/104 102/102/102 101/101/101
f 105/105/105 106/106/106 107/107/107
f 108/108/108 106/106/106 105/105/105
f 109/109/109 110/110/110 111/111/111
f 112/112/112 110/110/110 109/109/109
f 113/113/113 114/114/114 115/115/115
f 116/116/116 114/114/114 113/113/113
f 117/117/117 118/118/118 119/119/119
f 120/120/120 118/118/118 117/117/117
f 121/121/121 122/122/122 123/123/123
f 124/124/124 122/122/122 121/121/121
f 125/125/125 126/126/126 127/127/127
f 128/128/128 126/126/126 125/125/125
f 129/129/129 130/130/130 131/131/131
f 132/132/132 130/130/130 129/129/129
f 133/133/133 134/134/134 135/135/135
f 136/136/136 134/134/134 133/133/133
f 137/137/137 138/138/138 139/139/139
f 140/140/140 138/138/138 137/137/137
f 141/141/141 142/142/142 143/143/143
f 144/144/144 142/142/142 141/141/141
f 145/145/145 146/146/146 147/147/147
f 148/148/148 146/146/146 145/145/145
