v 0.5165766 1.808514 -0.08101439
v 0.5021238 1.763345 -0.1229348
v 0.5165766 1.808514 -0.1229348
v 0.5021238 1.763345 -0.08101439
v 0.4715778 1.736083 -0.08139512
v 0.5165766 1.808514 0.08742111
v 0.5021238 1.763345 0.08742111
v 0.4715778 1.736083 0.08779933
v 0.5165766 1.808514 0.1293415
v 0.5021238 1.763345 0.1293415
v 0.5759129 0.166881 -0.1252893
v 0.5759129 -0.008112089 0.131696
v 0.5759129 -0.008112089 -0.1252893
v 0.5759129 0.166881 0.131696
v 0.5267962 0.2458775 -0.09679715
v 0.5267962 0.2458775 0.1032039
v 0.4750544 1.642203 0.0887712
v 0.4750544 1.642203 -0.08236448
v 0.4715778 1.736083 0.08779933
v 0.4715778 1.736083 -0.08139512
v 9.694641E-07 -0.008112089 0.131696
v -0.5759134 0.166881 0.131696
v -0.5759134 -0.008112089 0.131696
v 9.694641E-07 0.166881 0.131696
v 0.5759129 -0.008112089 0.131696
v 0.5759129 0.166881 0.131696
v -0.5267968 0.2458775 0.1032039
v 0.5267962 0.2458775 0.1032039
v 9.694641E-07 0.2458775 0.1032039
v -0.4745616 1.642203 0.08803979
v 0.4750544 1.642203 0.0887712
v 0.0002464402 1.642203 0.0884055
v -0.4710098 1.737155 0.08701032
v 0.4715778 1.736083 0.08779933
v -0.0545286 1.97575 0.08701032
v 0.05453054 1.97575 0.08701032
v 0.05834034 2.002904 0.1293415
v 0.5021238 1.763345 0.1293415
v 0.5165766 1.808514 0.1293415
v 0.06569444 2.050561 0.1293415
v -0.06569501 2.050561 0.1293415
v -0.05834091 2.002904 0.1293415
v -0.5021244 1.763345 0.1293415
v -0.5165771 1.808514 0.1293415
v -0.5759134 -0.008112089 -0.1252893
v 9.694641E-07 -0.008112089 0.131696
v -0.5759134 -0.008112089 0.131696
v 9.694641E-07 -0.008112089 -0.1252893
v 0.5759129 -0.008112089 0.131696
v 0.5759129 -0.008112089 -0.1252893
v 9.694641E-07 -0.008112089 -0.1252893
v 0.5759129 0.166881 -0.1252893
v 0.5759129 -0.008112089 -0.1252893
v 9.694641E-07 0.166881 -0.1252893
v -0.5759134 -0.008112089 -0.1252893
v -0.5759134 0.166881 -0.1252893
v 0.5267962 0.2458775 -0.09679715
v -0.5267968 0.2458775 -0.09679715
v 9.694641E-07 0.2458775 -0.09679715
v 0.4750544 1.642203 -0.08236448
v -0.475055 1.642203 -0.08236448
v 9.694641E-07 1.642203 -0.08236448
v 0.4715778 1.736083 -0.08139512
v -0.4715784 1.736083 -0.08139512
v 0.05453054 1.97575 -0.0806036
v 0.05834034 2.002904 -0.1229348
v 0.5021238 1.763345 -0.1229348
v 0.5165766 1.808514 -0.1229348
v 0.06569444 2.050561 -0.1229348
v -0.06569501 2.050561 -0.1229348
v -0.0545286 1.97575 -0.0806036
v -0.05834091 2.002904 -0.1229348
v -0.5165771 1.808514 -0.1229348
v -0.5021244 1.763345 -0.1229348
v -0.5759134 -0.008112089 -0.1252893
v -0.5759134 -0.008112089 0.131696
v -0.5759134 0.166881 -0.1252893
v -0.5759134 0.166881 0.131696
v -0.5267968 0.2458775 0.1032039
v -0.5267968 0.2458775 -0.09679715
v -0.4745616 1.642203 0.08803979
v -0.475055 1.642203 -0.08236448
v -0.4715784 1.736083 -0.08139512
v -0.4710098 1.737155 0.08701032
v -0.5165771 1.808514 -0.1229348
v -0.5021244 1.763345 -0.1229348
v -0.5165771 1.808514 -0.08101439
v -0.5021244 1.763345 -0.08101439
v -0.4715784 1.736083 -0.08139512
v -0.5165771 1.808514 0.08742111
v -0.4710098 1.737155 0.08701032
v -0.5021244 1.763345 0.08742111
v -0.5165771 1.808514 0.1293415
v -0.5021244 1.763345 0.1293415
v -0.5165771 1.808514 0.1293415
v -0.06569501 2.050561 0.1293415
v -0.5165771 1.808514 0.08742111
v -0.06569501 2.050561 0.08742111
v 0.06569444 2.050561 0.1293415
v -0.06569501 2.050561 -0.08101439
v -0.5165771 1.808514 -0.08101439
v -0.5165771 1.808514 -0.1229348
v -0.06569501 2.050561 -0.1229348
v 0.06569444 2.050561 -0.08101439
v 0.06569444 2.050561 -0.1229348
v 0.06569444 2.050561 0.08742111
v 0.5165766 1.808514 0.1293415
v 0.5165766 1.808514 0.08742111
v 0.5165766 1.808514 -0.08101439
v 0.5165766 1.808514 -0.1229348
vn 0.9271651 0.3745959 -0.006539597
vn 0.4617461 -0.5692219 -0.6802772
vn 0.7510105 0.3041341 -0.5860765
vn 0.8381607 -0.5451165 -0.01829426
vn 0.496977 -0.5636591 -0.6597744
vn 0.9271651 0.3745959 -0.006539597
vn 0.8381607 -0.5451165 -0.01829426
vn 0.496977 -0.5636591 0.6597744
vn 0.7510105 0.3041341 0.5860765
vn 0.4617461 -0.5692219 0.6802772
vn 0.6935285 0.2689032 -0.6683632
vn 0.5767102 -0.5766389 0.5786994
vn 0.5767102 -0.5766389 -0.5786994
vn 0.6935285 0.2689032 0.6683632
vn 0.6249209 0.3523448 -0.6966541
vn 0.6249209 0.3523448 0.6966541
vn 0.7065083 0.0334123 0.7069156
vn 0.7065083 0.0334123 -0.7069156
vn 0.496977 -0.5636591 0.6597744
vn 0.496977 -0.5636591 -0.6597744
vn 3.564515E-05 -0.706437 0.707776
vn -0.6934572 0.2689032 0.6684371
vn -0.5766389 -0.5766389 0.5787705
vn 3.564515E-05 0.1724817 0.9850127
vn 0.5767102 -0.5766389 0.5786994
vn 0.6935285 0.2689032 0.6683632
vn -0.6248496 0.3523448 0.6967181
vn 0.6249209 0.3523448 0.6966541
vn 3.564515E-05 0.1780445 0.9840224
vn -0.706437 0.0334123 0.7069868
vn 0.7065083 0.0334123 0.7069156
vn 3.564515E-05 0.007452681 0.9999722
vn -0.4857802 -0.5784931 0.6552582
vn 0.496977 -0.5636591 0.6597744
vn 0.1446678 -0.5154483 0.8446208
vn -0.1445965 -0.5154483 0.844633
vn -0.1019486 -0.4004843 0.9106146
vn 0.4617461 -0.5692219 0.6802772
vn 0.7510105 0.3041341 0.5860765
vn 0.1836073 0.7324679 0.6555755
vn -0.183536 0.7324679 0.6555954
vn 0.1020199 -0.4004843 0.9106066
vn -0.4561121 -0.5766389 0.6778269
vn -0.7509392 0.3041341 0.5861679
vn -0.5766389 -0.5766389 -0.5787705
vn 3.564515E-05 -0.706437 0.707776
vn -0.5766389 -0.5766389 0.5787705
vn 3.564515E-05 -0.706437 -0.707776
vn 0.5767102 -0.5766389 0.5786994
vn 0.5767102 -0.5766389 -0.5786994
vn 3.564515E-05 -0.706437 -0.707776
vn 0.6935285 0.2689032 -0.6683632
vn 0.5767102 -0.5766389 -0.5786994
vn 3.564515E-05 0.1724817 -0.9850127
vn -0.5766389 -0.5766389 -0.5787705
vn -0.6934572 0.2689032 -0.6684371
vn 0.6249209 0.3523448 -0.6966541
vn -0.6248496 0.3523448 -0.6967181
vn 3.564515E-05 0.1780445 -0.9840224
vn 0.7065083 0.0334123 -0.7069156
vn -0.7082912 0.0334123 -0.7051291
vn 3.564515E-05 0.007452681 -0.9999722
vn 0.496977 -0.5636591 -0.6597744
vn -0.5006143 -0.5655133 -0.6554236
vn -0.1445965 -0.5135941 -0.8457618
vn -0.1019486 -0.4004843 -0.9106146
vn 0.4617461 -0.5692219 -0.6802772
vn 0.7510105 0.3041341 -0.5860765
vn 0.1836073 0.7324679 -0.6555755
vn -0.183536 0.7324679 -0.6555954
vn 0.1446678 -0.5135941 -0.8457496
vn 0.1020199 -0.4004843 -0.9106066
vn -0.7509392 0.3041341 -0.5861679
vn -0.4616748 -0.5692219 -0.6803255
vn -0.5766389 -0.5766389 -0.5787705
vn -0.5766389 -0.5766389 0.5787705
vn -0.6934572 0.2689032 -0.6684371
vn -0.6934572 0.2689032 0.6684371
vn -0.6248496 0.3523448 0.6967181
vn -0.6248496 0.3523448 -0.6967181
vn -0.706437 0.0334123 0.7069868
vn -0.7082912 0.0334123 -0.7051291
vn -0.5006143 -0.5655133 -0.6554236
vn -0.4857802 -0.5784931 0.6552582
vn -0.7509392 0.3041341 -0.5861679
vn -0.4616748 -0.5692219 -0.6803255
vn -0.9270938 0.3745959 -0.0132276
vn -0.8380894 -0.5451165 0.02131167
vn -0.5006143 -0.5655133 -0.6554236
vn -0.9270938 0.3745959 -0.0132276
vn -0.4857802 -0.5784931 0.6552582
vn -0.8306723 -0.556242 -0.02404754
vn -0.7509392 0.3041341 0.5861679
vn -0.4561121 -0.5766389 0.6778269
vn -0.7509392 0.3041341 0.5861679
vn -0.183536 0.7324679 0.6555954
vn -0.9270938 0.3745959 -0.0132276
vn -0.2446741 0.9696053 0
vn 0.1836073 0.7324679 0.6555755
vn -0.2446741 0.9696053 0
vn -0.9270938 0.3745959 -0.0132276
vn -0.7509392 0.3041341 -0.5861679
vn -0.183536 0.7324679 -0.6555954
vn 0.2429436 0.969813 -0.02100177
vn 0.1836073 0.7324679 -0.6555755
vn 0.2429436 0.969813 -0.02100177
vn 0.7510105 0.3041341 0.5860765
vn 0.9271651 0.3745959 -0.006539597
vn 0.9271651 0.3745959 -0.006539597
vn 0.7510105 0.3041341 -0.5860765
vt 0.02733953 0.9570252
vt 0.01952844 0.9609383
vt 0.02733953 0.9609383
vt 0.01952844 0.9570252
vt 0.01563041 0.9570252
vt 0.02733953 0.9296939
vt 0.01952844 0.9296939
vt 0.01563041 0.9296939
vt 0.02733953 0.9257808
vt 0.01952844 0.9257808
vt 0.4023473 0.5937567
vt 0.4453158 0.5703083
vt 0.4023473 0.5703083
vt 0.4453158 0.5937567
vt 0.4062453 0.6054658
vt 0.4414027 0.6054658
vt 0.4335916 0.8203084
vt 0.4062453 0.8203084
vt 0.4335916 0.8359306
vt 0.4062453 0.8359306
vt 0.2773397 0.5703083
vt 0.3632767 0.5937567
vt 0.3632767 0.5703083
vt 0.2773397 0.5937567
vt 0.1914026 0.5703083
vt 0.1914026 0.5937567
vt 0.3515676 0.6054658
vt 0.1992137 0.6054658
vt 0.2773397 0.6054658
vt 0.3476546 0.8203084
vt 0.2031268 0.8203084
vt 0.2773397 0.8164104
vt 0.3476546 0.8359306
vt 0.2070248 0.8359306
vt 0.2851508 0.863277
vt 0.2656305 0.863277
vt 0.2656305 0.8750012
vt 0.1992137 0.8398438
vt 0.1992137 0.8476548
vt 0.2656305 0.8828123
vt 0.2851508 0.8828123
vt 0.2851508 0.8750012
vt 0.3476546 0.8398438
vt 0.3515676 0.8476548
vt 0.4023473 0.9257808
vt 0.3085991 0.9648363
vt 0.4023473 0.9648363
vt 0.3085991 0.9257808
vt 0.22656 0.9648363
vt 0.22656 0.9257808
vt 0.1015675 0.5703083
vt 0.1914026 0.5937567
vt 0.1914026 0.5703083
vt 0.1015675 0.5937567
vt 0.01563041 0.5703083
vt 0.01563041 0.5937567
vt 0.1835915 0.6054658
vt 0.01952844 0.6054658
vt 0.1015675 0.6054658
vt 0.1757804 0.8203084
vt 0.02733953 0.8203084
vt 0.1015675 0.8164104
vt 0.1757804 0.8359306
vt 0.02733953 0.8359306
vt 0.1054655 0.863277
vt 0.1093786 0.8750012
vt 0.1796935 0.8398438
vt 0.1835915 0.8476548
vt 0.1093786 0.8828123
vt 0.0937564 0.8828123
vt 0.0937564 0.863277
vt 0.0937564 0.8750012
vt 0.02344151 0.8476548
vt 0.02344151 0.8398438
vt 0.4023473 0.5703083
vt 0.3632767 0.5703083
vt 0.4023473 0.5937567
vt 0.3632767 0.5937567
vt 0.3671898 0.6054658
vt 0.4023473 0.6054658
vt 0.3710878 0.8203084
vt 0.3984342 0.8203084
vt 0.3984342 0.8359306
vt 0.3710878 0.8359306
vt 0.2031268 0.9609383
vt 0.2070248 0.9609383
vt 0.2031268 0.9570252
vt 0.2070248 0.9570252
vt 0.2187489 0.9570252
vt 0.2031268 0.9296939
vt 0.2187489 0.9296939
vt 0.2070248 0.9296939
vt 0.2031268 0.9257808
vt 0.2070248 0.9257808
vt 0.2031268 0.9257808
vt 0.1250008 0.9257808
vt 0.2031268 0.9296939
vt 0.1250008 0.9296939
vt 0.1015675 0.9257808
vt 0.1250008 0.9570252
vt 0.2031268 0.9570252
vt 0.2031268 0.9609383
vt 0.1250008 0.9609383
vt 0.1015675 0.9570252
vt 0.1015675 0.9609383
vt 0.1015675 0.9296939
vt 0.02733953 0.9257808
vt 0.02733953 0.9296939
vt 0.02733953 0.9570252
vt 0.02733953 0.9609383
f 1/1/1 2/2/2 3/3/3
f 4/4/4 2/2/2 1/1/1
f 4/4/4 5/5/5 2/2/2
f 1/1/1 6/6/6 4/4/4
f 7/7/7 5/5/5 4/4/4
f 4/4/4 6/6/6 7/7/7
f 8/8/8 5/5/5 7/7/7
f 9/9/9 7/7/7 6/6/6
f 10/10/10 8/8/8 7/7/7
f 10/10/10 7/7/7 9/9/9
f 11/11/11 12/12/12 13/13/13
f 14/14/14 12/12/12 11/11/11
f 15/15/15 14/14/14 11/11/11
f 16/16/16 14/14/14 15/15/15
f 15/15/15 17/17/17 16/16/16
f 18/18/18 17/17/17 15/15/15
f 18/18/18 19/19/19 17/17/17
f 20/20/20 19/19/19 18/18/18
f 21/21/21 22/22/22 23/23/23
f 24/24/24 22/22/22 21/21/21
f 25/25/25 24/24/24 21/21/21
f 26/26/26 24/24/24 25/25/25
f 24/24/24 27/27/27 22/22/22
f 28/28/28 24/24/24 26/26/26
f 29/29/29 27/27/27 24/24/24
f 29/29/29 24/24/24 28/28/28
f 29/29/29 30/30/30 27/27/27
f 31/31/31 29/29/29 28/28/28
f 32/32/32 30/30/30 29/29/29
f 32/32/32 29/29/29 31/31/31
f 32/32/32 33/33/33 30/30/30
f 34/34/34 32/32/32 31/31/31
f 35/35/35 33/33/33 32/32/32
f 36/36/36 32/32/32 34/34/34
f 36/36/36 35/35/35 32/32/32
f 34/34/34 37/37/37 36/36/36
f 36/36/36 37/37/37 35/35/35
f 38/38/38 37/37/37 34/34/34
f 39/39/39 37/37/37 38/38/38
f 40/40/40 37/37/37 39/39/39
f 41/41/41 37/37/37 40/40/40
f 42/42/42 33/33/33 35/35/35
f 35/35/35 37/37/37 42/42/42
f 42/42/42 37/37/37 41/41/41
f 43/43/43 33/33/33 42/42/42
f 44/44/44 42/42/42 41/41/41
f 43/43/43 42/42/42 44/44/44
f 45/45/45 46/46/46 47/47/47
f 48/48/48 46/46/46 45/45/45
f 48/48/48 49/49/49 46/46/46
f 50/50/50 49/49/49 48/48/48
f 51/51/51 52/52/52 53/53/53
f 54/54/54 52/52/52 51/51/51
f 55/55/55 54/54/54 51/51/51
f 56/56/56 54/54/54 55/55/55
f 54/54/54 57/57/57 52/52/52
f 58/58/58 54/54/54 56/56/56
f 59/59/59 57/57/57 54/54/54
f 59/59/59 54/54/54 58/58/58
f 59/59/59 60/60/60 57/57/57
f 61/61/61 59/59/59 58/58/58
f 62/62/62 60/60/60 59/59/59
f 62/62/62 59/59/59 61/61/61
f 62/62/62 63/63/63 60/60/60
f 64/64/64 62/62/62 61/61/61
f 65/65/65 63/63/63 62/62/62
f 65/65/65 66/66/66 63/63/63
f 63/63/63 66/66/66 67/67/67
f 67/67/67 66/66/66 68/68/68
f 68/68/68 66/66/66 69/69/69
f 69/69/69 66/66/66 70/70/70
f 71/71/71 65/65/65 62/62/62
f 71/71/71 62/62/62 64/64/64
f 71/71/71 66/66/66 65/65/65
f 70/70/70 66/66/66 72/72/72
f 72/72/72 66/66/66 71/71/71
f 64/64/64 72/72/72 71/71/71
f 70/70/70 72/72/72 73/73/73
f 74/74/74 72/72/72 64/64/64
f 73/73/73 72/72/72 74/74/74
f 75/75/75 76/76/76 77/77/77
f 77/77/77 76/76/76 78/78/78
f 79/79/79 77/77/77 78/78/78
f 80/80/80 77/77/77 79/79/79
f 79/79/79 81/81/81 80/80/80
f 80/80/80 81/81/81 82/82/82
f 81/81/81 83/83/83 82/82/82
f 84/84/84 83/83/83 81/81/81
f 85/85/85 86/86/86 87/87/87
f 87/87/87 86/86/86 88/88/88
f 86/86/86 89/89/89 88/88/88
f 87/87/87 88/88/88 90/90/90
f 89/89/89 91/91/91 88/88/88
f 90/90/90 88/88/88 92/92/92
f 88/88/88 91/91/91 92/92/92
f 90/90/90 92/92/92 93/93/93
f 91/91/91 94/94/94 92/92/92
f 93/93/93 92/92/92 94/94/94
f 95/95/95 96/96/96 97/97/97
f 97/97/97 96/96/96 98/98/98
f 96/96/96 99/99/99 98/98/98
f 100/100/100 97/97/97 98/98/98
f 101/101/101 97/97/97 100/100/100
f 101/101/101 100/100/100 102/102/102
f 102/102/102 100/100/100 103/103/103
f 100/100/100 104/104/104 103/103/103
f 100/100/100 98/98/98 104/104/104
f 103/103/103 104/104/104 105/105/105
f 98/98/98 99/99/99 106/106/106
f 104/104/104 98/98/98 106/106/106
f 107/107/107 106/106/106 99/99/99
f 108/108/108 106/106/106 107/107/107
f 108/108/108 109/109/109 106/106/106
f 106/106/106 109/109/109 104/104/104
f 109/109/109 105/105/105 104/104/104
f 110/110/110 105/105/105 109/109/109
