v 0.02741785 0.5173415 0.102688
v -0.05734546 0.5173415 0.05724844
v -0.07526994 0.5173415 0.07517292
v 0.02085703 0.5173415 0.07820266
v 0.02741785 0.5173415 0.102688
v 0.0781053 0.5173415 0.02095439
v 0.1025906 0.5173415 0.02751521
v 0.05715108 0.5173415 -0.05724871
v 0.02741785 0.5173415 0.102688
v 0.07507556 0.5173415 -0.07517258
v 0.05715108 0.5173415 -0.05724871
v -0.02761224 0.5173415 -0.1026882
v -0.1027856 0.4929657 -0.02751548
v -0.02761224 0.4929657 -0.1026882
v -0.09101494 0.4868717 -0.02436116
v -0.02761224 0.4929657 -0.1026882
v -0.02445852 0.4868717 -0.09091818
v 0.06645923 0.4868717 -0.06655625
v 0.07507556 0.4929657 -0.07517258
v 0.1025906 0.4929657 0.02751521
v 0.09082056 0.4868717 0.0243615
v 0.02426413 0.4868717 0.09091792
v 0.02741785 0.4929657 0.102688
v -0.06665362 0.4868717 0.06655659
v -0.07526994 0.4929657 0.07517292
v 0.06645923 0.4564019 -0.06655625
v -0.02445852 0.4868717 -0.09091818
v 0.06645923 0.4868717 -0.06655625
v -0.02445852 0.4564019 -0.09091818
v 0.08531561 0.4189679 -0.08541264
v -0.03136041 0.4189679 -0.1166759
v 0.06213534 0.007510429 -0.06223297
v -0.02287592 0.007510429 -0.08501169
v 0.05313621 -0.006122214 -0.05323324
v -0.0195819 -0.006122214 -0.07271794
v 0.02426413 0.4564019 0.09091792
v 0.09082056 0.4868717 0.0243615
v 0.02426413 0.4868717 0.09091792
v 0.09082056 0.4564019 0.0243615
v 0.06645923 0.4564019 -0.06655625
v 0.06645923 0.4868717 -0.06655625
v 0.1165788 0.4189679 0.03126339
v 0.08531561 0.4189679 -0.08541264
v 0.03116602 0.4189679 0.1166762
v 0.06213534 0.007510429 -0.06223297
v 0.08491467 0.007510429 0.02277889
v 0.05313621 -0.006122214 -0.05323324
v 0.02268153 0.007510429 0.08501143
v 0.07262092 -0.006122214 0.01948488
v 0.01938751 -0.006122214 0.07271829
v -0.06665362 0.4564019 0.06655659
v 0.02426413 0.4868717 0.09091792
v -0.06665362 0.4868717 0.06655659
v 0.02426413 0.4564019 0.09091792
v 0.03116602 0.4189679 0.1166762
v -0.08551 0.4189679 0.08541297
v 0.02268153 0.007510429 0.08501143
v -0.06233033 0.007510429 0.0622327
v -0.0533306 -0.006122214 0.05323297
v 0.01938751 -0.006122214 0.07271829
v -0.02445852 0.4564019 -0.09091818
v -0.09101494 0.4868717 -0.02436116
v -0.02445852 0.4868717 -0.09091818
v -0.09101494 0.4564019 -0.02436116
v -0.03136041 0.4189679 -0.1166759
v -0.1167732 0.4189679 -0.03126305
v -0.08510906 0.007510429 -0.02277855
v -0.02287592 0.007510429 -0.08501169
v -0.0195819 -0.006122214 -0.07271794
v -0.07281531 -0.006122214 -0.01948454
v 0.07507556 0.4929657 -0.07517258
v -0.02761224 0.5173415 -0.1026882
v 0.07507556 0.5173415 -0.07517258
v -0.02761224 0.4929657 -0.1026882
v 0.1025906 0.4929657 0.02751521
v 0.07507556 0.5173415 -0.07517258
v 0.1025906 0.5173415 0.02751521
v 0.07507556 0.4929657 -0.07517258
v 0.02741785 0.4929657 0.102688
v 0.1025906 0.5173415 0.02751521
v 0.02741785 0.5173415 0.102688
v 0.1025906 0.4929657 0.02751521
v -0.07526994 0.4929657 0.07517292
v 0.02741785 0.5173415 0.102688
v -0.07526994 0.5173415 0.07517292
v 0.02741785 0.4929657 0.102688
v -0.1027856 0.4929657 -0.02751548
v -0.07526994 0.5173415 0.07517292
v -0.1027856 0.5173415 -0.02751548
v -0.07526994 0.4929657 0.07517292
v -0.02761224 0.4929657 -0.1026882
v -0.1027856 0.5173415 -0.02751548
v -0.02761224 0.5173415 -0.1026882
v -0.1027856 0.4929657 -0.02751548
v 0.05715108 0.5173415 -0.05724871
v -0.02105142 0.4469759 -0.07820293
v 0.05715108 0.4469759 -0.05724871
v -0.02105142 0.5173415 -0.07820293
v 0.0781053 0.5173415 0.02095439
v 0.05715108 0.4469759 -0.05724871
v 0.0781053 0.4469759 0.02095439
v 0.05715108 0.5173415 -0.05724871
v 0.02085703 0.5173415 0.07820266
v 0.0781053 0.4469759 0.02095439
v 0.02085703 0.4469759 0.07820266
v 0.0781053 0.5173415 0.02095439
v -0.05734546 0.5173415 0.05724844
v 0.02085703 0.4469759 0.07820266
v -0.05734546 0.4469759 0.05724844
v 0.02085703 0.5173415 0.07820266
v -0.05734546 0.5173415 0.05724844
v -0.0783003 0.4469759 -0.02095466
v -0.0783003 0.5173415 -0.02095466
v -0.05734546 0.4469759 0.05724844
v -0.0783003 0.5173415 -0.02095466
v -0.02105142 0.4469759 -0.07820293
v -0.02105142 0.5173415 -0.07820293
v -0.0783003 0.4469759 -0.02095466
v -0.07526994 0.4929657 0.07517292
v -0.1027856 0.4929657 -0.02751548
v -0.06665362 0.4868717 0.06655659
v -0.09101494 0.4868717 -0.02436116
v -0.09101494 0.4564019 -0.02436116
v -0.06665362 0.4564019 0.06655659
v -0.1167732 0.4189679 -0.03126305
v -0.08551 0.4189679 0.08541297
v -0.06233033 0.007510429 0.0622327
v -0.08510906 0.007510429 -0.02277855
v -0.0533306 -0.006122214 0.05323297
v -0.07281531 -0.006122214 -0.01948454
v -0.02105142 0.5173415 -0.07820293
v 0.05715108 0.5173415 -0.05724871
v -0.02761224 0.5173415 -0.1026882
v -0.0783003 0.5173415 -0.02095466
v -0.1027856 0.5173415 -0.02751548
v -0.02761224 0.5173415 -0.1026882
v -0.05734546 0.5173415 0.05724844
v -0.07526994 0.5173415 0.07517292
v -0.0783003 0.4469759 -0.02095466
v 0.05715108 0.4469759 -0.05724871
v -0.02105142 0.4469759 -0.07820293
v 0.02085703 0.4469759 0.07820266
v 0.0781053 0.4469759 0.02095439
v -0.05734546 0.4469759 0.05724844
v 0.05313621 -0.006122214 -0.05323324
v -0.07281531 -0.006122214 -0.01948454
v -0.0195819 -0.006122214 -0.07271794
v -0.0533306 -0.006122214 0.05323297
v 0.01938751 -0.006122214 0.07271829
v 0.07262092 -0.006122214 0.01948488
vn 0.00070012 0.9999998 0
vn 0.00070012 0.9999998 0
vn 0.00070012 0.9999998 0
vn 0.00070012 0.9999998 0
vn 0.00070012 0.9999998 0
vn 0.00070012 0.9999998 0
vn 0.00070012 0.9999998 0
vn 0.00070012 0.9999998 0
vn 0.00070012 0.9999998 0
vn 0.00070012 0.9999998 0
vn 0.00070012 0.9999998 0
vn 0.00070012 0.9999998 0
vn -0.4316892 -0.8948262 -0.1137119
vn -0.1165254 -0.8948262 -0.4309383
vn -0.7603051 -0.6180971 -0.1997302
vn -0.1165254 -0.8948262 -0.4309383
vn -0.2030033 -0.6180971 -0.7594377
vn 0.5560802 -0.6180971 -0.5556355
vn 0.3158639 -0.8948262 -0.3154615
vn 0.4311677 -0.8948262 0.1156737
vn 0.7597836 -0.6180971 0.2017049
vn 0.2044035 -0.6180971 0.7590621
vn 0.1160039 -0.8948262 0.4310789
vn -0.5566017 -0.6180971 0.5551131
vn -0.3163854 -0.8948262 0.3149386
vn 0.6656188 0.3370029 -0.6658683
vn -0.2030033 -0.6180971 -0.7594377
vn 0.5560802 -0.6180971 -0.5556355
vn -0.2433596 0.3370029 -0.9095082
vn 0.6867579 0.2428382 -0.6851228
vn -0.2510466 0.2428382 -0.9370193
vn 0.6579319 -0.3682721 -0.6568875
vn -0.2414379 -0.3682721 -0.8978215
vn 0.3523768 -0.867922 -0.35006
vn -0.1280558 -0.867922 -0.4799094
vn 0.2428382 0.3370029 0.9096475
vn 0.7597836 -0.6180971 0.2017049
vn 0.2044035 -0.6180971 0.7590621
vn 0.9096786 0.3370029 0.2427216
vn 0.6656188 0.3370029 -0.6658683
vn 0.5560802 -0.6180971 -0.5556355
vn 0.9365829 0.2428382 0.2526701
vn 0.6867579 0.2428382 -0.6851228
vn 0.2505251 0.2428382 0.9371589
vn 0.6579319 -0.3682721 -0.6568875
vn 0.8981482 -0.3682721 0.2402195
vn 0.3523768 -0.867922 -0.35006
vn 0.2409164 -0.3682721 0.8979616
vn 0.4811327 -0.867922 0.1233802
vn 0.1294561 -0.867922 0.4795336
vn -0.6661403 0.3370029 0.6653466
vn 0.2044035 -0.6180971 0.7590621
vn -0.5566017 -0.6180971 0.5551131
vn 0.2428382 0.3370029 0.9096475
vn 0.2505251 0.2428382 0.9371589
vn -0.6853576 0.2428382 0.6865235
vn 0.2409164 -0.3682721 0.8979616
vn -0.6565317 -0.3682721 0.658287
vn -0.3509766 -0.867922 0.3514638
vn 0.1294561 -0.867922 0.4795336
vn -0.2433596 0.3370029 -0.9095082
vn -0.7603051 -0.6180971 -0.1997302
vn -0.2030033 -0.6180971 -0.7594377
vn -0.9102001 0.3370029 -0.2407587
vn -0.2510466 0.2428382 -0.9370193
vn -0.9371043 0.2428382 -0.2507291
vn -0.8986697 -0.3682721 -0.2382611
vn -0.2414379 -0.3682721 -0.8978215
vn -0.1280558 -0.867922 -0.4799094
vn -0.4797325 -0.867922 -0.1287172
vn 0.7078969 0.0007001201 -0.7063155
vn -0.2587335 0.0007001201 -0.9659485
vn 0.7078969 0.0007001201 -0.7063155
vn -0.2587335 0.0007001201 -0.9659485
vn 0.9654088 0.0007001201 0.26074
vn 0.7078969 0.0007001201 -0.7063155
vn 0.9654088 0.0007001201 0.26074
vn 0.7078969 0.0007001201 -0.7063155
vn 0.258212 0.0007001201 0.966088
vn 0.9654088 0.0007001201 0.26074
vn 0.258212 0.0007001201 0.966088
vn 0.9654088 0.0007001201 0.26074
vn -0.7064967 0.0007001201 0.707716
vn 0.258212 0.0007001201 0.966088
vn -0.7064967 0.0007001201 0.707716
vn 0.258212 0.0007001201 0.966088
vn -0.9659303 0.0007001201 -0.2588015
vn -0.7064967 0.0007001201 0.707716
vn -0.9659303 0.0007001201 -0.2588015
vn -0.7064967 0.0007001201 0.707716
vn -0.2587335 0.0007001201 -0.9659485
vn -0.9659303 0.0007001201 -0.2588015
vn -0.2587335 0.0007001201 -0.9659485
vn -0.9659303 0.0007001201 -0.2588015
vn -0.7064967 0.0007001201 0.707716
vn 0.2044035 0.6098887 0.7656729
vn -0.5604452 0.6098887 0.5603008
vn 0.258212 0.0007001201 0.966088
vn -0.9659303 0.0007001201 -0.2588015
vn -0.5604452 0.6098887 0.5603008
vn -0.7660703 0.6098887 -0.2029091
vn -0.7064967 0.0007001201 0.707716
vn -0.2587335 0.0007001201 -0.9659485
vn -0.7660703 0.6098887 -0.2029091
vn -0.204925 0.6098887 -0.7655335
vn -0.9659303 0.0007001201 -0.2588015
vn 0.7078969 0.0007001201 -0.7063155
vn -0.204925 0.6098887 -0.7655335
vn 0.5599236 0.6098887 -0.560822
vn -0.2587335 0.0007001201 -0.9659485
vn 0.7078969 0.0007001201 -0.7063155
vn 0.7655488 0.6098887 0.2048678
vn 0.9654088 0.0007001201 0.26074
vn 0.5599236 0.6098887 -0.560822
vn 0.9654088 0.0007001201 0.26074
vn 0.2044035 0.6098887 0.7656729
vn 0.258212 0.0007001201 0.966088
vn 0.7655488 0.6098887 0.2048678
vn -0.3163854 -0.8948262 0.3149386
vn -0.4316892 -0.8948262 -0.1137119
vn -0.5566017 -0.6180971 0.5551131
vn -0.7603051 -0.6180971 -0.1997302
vn -0.9102001 0.3370029 -0.2407587
vn -0.6661403 0.3370029 0.6653466
vn -0.9371043 0.2428382 -0.2507291
vn -0.6853576 0.2428382 0.6865235
vn -0.6565317 -0.3682721 0.658287
vn -0.8986697 -0.3682721 -0.2382611
vn -0.3509766 -0.867922 0.3514638
vn -0.4797325 -0.867922 -0.1287172
vn 0.00070012 0.9999998 0
vn 0.00070012 0.9999998 0
vn 0.00070012 0.9999998 0
vn 0.00070012 0.9999998 0
vn 0.00070012 0.9999998 0
vn 0.00070012 0.9999998 0
vn 0.00070012 0.9999998 0
vn 0.00070012 0.9999998 0
vn 0.7655488 0.6098887 0.2048678
vn -0.5604452 0.6098887 0.5603008
vn 0.2044035 0.6098887 0.7656729
vn -0.204925 0.6098887 -0.7655335
vn -0.7660703 0.6098887 -0.2029091
vn 0.5599236 0.6098887 -0.560822
vn 0.3523768 -0.867922 -0.35006
vn -0.4797325 -0.867922 -0.1287172
vn -0.1280558 -0.867922 -0.4799094
vn -0.3509766 -0.867922 0.3514638
vn 0.1294561 -0.867922 0.4795336
vn 0.4811327 -0.867922 0.1233802
vt 0.4636169 0.7514796
vt 0.472087 0.7173275
vt 0.4636169 0.7173275
vt 0.472087 0.7514796
vt 0.4636169 0.7514796
vt 0.472087 0.7970008
vt 0.4636169 0.7970008
vt 0.472087 0.8425219
vt 0.4636169 0.7514796
vt 0.4636169 0.8425219
vt 0.472087 0.8425219
vt 0.4636169 0.8880582
vt 0.4557658 0.9335793
vt 0.4557658 0.8880582
vt 0.4512364 0.9335793
vt 0.4557658 0.8880582
vt 0.4512364 0.8880582
vt 0.4512364 0.8425219
vt 0.4557658 0.8425219
vt 0.4557658 0.7970008
vt 0.4512364 0.7970008
vt 0.4512364 0.7514796
vt 0.4557658 0.7514796
vt 0.4512364 0.7173275
vt 0.4557658 0.7173275
vt 0.4414074 0.8425219
vt 0.4512364 0.8880582
vt 0.4512364 0.8425219
vt 0.4414074 0.8880582
vt 0.4263998 0.8425219
vt 0.4263998 0.8880582
vt 0.2931882 0.8425219
vt 0.2931882 0.8880582
vt 0.2870734 0.8425219
vt 0.2870734 0.8880582
vt 0.4414074 0.7514796
vt 0.4512364 0.7970008
vt 0.4512364 0.7514796
vt 0.4414074 0.7970008
vt 0.4414074 0.8425219
vt 0.4512364 0.8425219
vt 0.4263998 0.7970008
vt 0.4263998 0.8425219
vt 0.4263998 0.7514796
vt 0.2931882 0.8425219
vt 0.2931882 0.7970008
vt 0.2870734 0.8425219
vt 0.2931882 0.7514796
vt 0.2870734 0.7970008
vt 0.2870734 0.7514796
vt 0.4414074 0.7173275
vt 0.4512364 0.7514796
vt 0.4512364 0.7173275
vt 0.4414074 0.7514796
vt 0.4263998 0.7514796
vt 0.4263998 0.7173275
vt 0.2931882 0.7514796
vt 0.2931882 0.7173275
vt 0.2870734 0.7173275
vt 0.2870734 0.7514796
vt 0.4414074 0.8880582
vt 0.4512364 0.9335793
vt 0.4512364 0.8880582
vt 0.4414074 0.9335793
vt 0.4263998 0.8880582
vt 0.4263998 0.9335793
vt 0.2931882 0.9335793
vt 0.2931882 0.8880582
vt 0.2870734 0.8880582
vt 0.2870734 0.9335793
vt 0.4557658 0.8425219
vt 0.4636169 0.8880582
vt 0.4636169 0.8425219
vt 0.4557658 0.8880582
vt 0.4557658 0.7970008
vt 0.4636169 0.8425219
vt 0.4636169 0.7970008
vt 0.4557658 0.8425219
vt 0.4557658 0.7514796
vt 0.4636169 0.7970008
vt 0.4636169 0.7514796
vt 0.4557658 0.7970008
vt 0.4557658 0.7173275
vt 0.4636169 0.7514796
vt 0.4636169 0.7173275
vt 0.4557658 0.7514796
vt 0.4557658 0.9335793
vt 0.4636169 0.9791155
vt 0.4636169 0.9335793
vt 0.4557658 0.9791155
vt 0.4557658 0.8880582
vt 0.4636169 0.9335793
vt 0.4636169 0.8880582
vt 0.4557658 0.9335793
vt 0.472087 0.8425219
vt 0.4947948 0.8880582
vt 0.4947948 0.8425219
vt 0.472087 0.8880582
vt 0.472087 0.7970008
vt 0.4947948 0.8425219
vt 0.4947948 0.7970008
vt 0.472087 0.8425219
vt 0.472087 0.7514796
vt 0.4947948 0.7970008
vt 0.4947948 0.7514796
vt 0.472087 0.7970008
vt 0.472087 0.7173275
vt 0.4947948 0.7514796
vt 0.4947948 0.7173275
vt 0.472087 0.7514796
vt 0.472087 0.9791155
vt 0.4947948 0.9335793
vt 0.472087 0.9335793
vt 0.4947948 0.9791155
vt 0.472087 0.9335793
vt 0.4947948 0.8880582
vt 0.472087 0.8880582
vt 0.4947948 0.9335793
vt 0.4557658 0.9791155
vt 0.4557658 0.9335793
vt 0.4512364 0.9791155
vt 0.4512364 0.9335793
vt 0.4414074 0.9335793
vt 0.4414074 0.9791155
vt 0.4263998 0.9335793
vt 0.4263998 0.9791155
vt 0.2931882 0.9791155
vt 0.2931882 0.9335793
vt 0.2870734 0.9791155
vt 0.2870734 0.9335793
vt 0.472087 0.8880582
vt 0.472087 0.8425219
vt 0.4636169 0.8880582
vt 0.472087 0.9335793
vt 0.4636169 0.9335793
vt 0.4636169 0.8880582
vt 0.472087 0.9791155
vt 0.4636169 0.9791155
vt 0.2147076 0.9587783
vt 0.1971333 0.9892012
vt 0.2147076 0.9790702
vt 0.1795741 0.9587783
vt 0.1795741 0.9790702
vt 0.1971333 0.9486322
vt 0.2492524 0.9870874
vt 0.2329161 0.9587933
vt 0.2329161 0.9776661
vt 0.2492524 0.9493721
vt 0.2655886 0.9587933
vt 0.2655886 0.9776661
f 1/1/1 2/2/2 3/3/3
f 4/4/4 2/2/2 5/5/5
f 5/5/5 6/6/6 4/4/4
f 7/7/7 8/8/8 6/6/6
f 7/7/7 6/6/6 9/9/9
f 10/10/10 11/11/11 7/7/7
f 12/12/12 11/11/11 10/10/10
f 13/13/13 14/14/14 15/15/15
f 15/15/15 16/16/16 17/17/17
f 17/17/17 16/16/16 18/18/18
f 18/18/18 16/16/16 19/19/19
f 19/19/19 20/20/20 18/18/18
f 18/18/18 20/20/20 21/21/21
f 21/21/21 20/20/20 22/22/22
f 22/22/22 20/20/20 23/23/23
f 22/22/22 23/23/23 24/24/24
f 24/24/24 23/23/23 25/25/25
f 26/26/26 27/27/27 28/28/28
f 29/29/29 27/27/27 26/26/26
f 30/30/30 29/29/29 26/26/26
f 31/31/31 29/29/29 30/30/30
f 32/32/32 31/31/31 30/30/30
f 33/33/33 31/31/31 32/32/32
f 34/34/34 33/33/33 32/32/32
f 35/35/35 33/33/33 34/34/34
f 36/36/36 37/37/37 38/38/38
f 39/39/39 37/37/37 36/36/36
f 40/40/40 37/37/37 39/39/39
f 41/41/41 37/37/37 40/40/40
f 39/39/39 36/36/36 42/42/42
f 42/42/42 40/40/40 39/39/39
f 43/43/43 40/40/40 42/42/42
f 42/42/42 36/36/36 44/44/44
f 42/42/42 45/45/45 43/43/43
f 44/44/44 46/46/46 42/42/42
f 46/46/46 45/45/45 42/42/42
f 46/46/46 47/47/47 45/45/45
f 48/48/48 46/46/46 44/44/44
f 49/49/49 47/47/47 46/46/46
f 48/48/48 49/49/49 46/46/46
f 50/50/50 49/49/49 48/48/48
f 51/51/51 52/52/52 53/53/53
f 54/54/54 52/52/52 51/51/51
f 54/54/54 51/51/51 55/55/55
f 55/55/55 51/51/51 56/56/56
f 56/56/56 57/57/57 55/55/55
f 58/58/58 57/57/57 56/56/56
f 59/59/59 57/57/57 58/58/58
f 60/60/60 57/57/57 59/59/59
f 61/61/61 62/62/62 63/63/63
f 64/64/64 62/62/62 61/61/61
f 65/65/65 64/64/64 61/61/61
f 66/66/66 64/64/64 65/65/65
f 65/65/65 67/67/67 66/66/66
f 68/68/68 67/67/67 65/65/65
f 69/69/69 67/67/67 68/68/68
f 70/70/70 67/67/67 69/69/69
f 71/71/71 72/72/72 73/73/73
f 74/74/74 72/72/72 71/71/71
f 75/75/75 76/76/76 77/77/77
f 78/78/78 76/76/76 75/75/75
f 79/79/79 80/80/80 81/81/81
f 82/82/82 80/80/80 79/79/79
f 83/83/83 84/84/84 85/85/85
f 86/86/86 84/84/84 83/83/83
f 87/87/87 88/88/88 89/89/89
f 90/90/90 88/88/88 87/87/87
f 91/91/91 92/92/92 93/93/93
f 94/94/94 92/92/92 91/91/91
f 95/95/95 96/96/96 97/97/97
f 98/98/98 96/96/96 95/95/95
f 99/99/99 100/100/100 101/101/101
f 102/102/102 100/100/100 99/99/99
f 103/103/103 104/104/104 105/105/105
f 106/106/106 104/104/104 103/103/103
f 107/107/107 108/108/108 109/109/109
f 110/110/110 108/108/108 107/107/107
f 111/111/111 112/112/112 113/113/113
f 114/114/114 112/112/112 111/111/111
f 115/115/115 116/116/116 117/117/117
f 118/118/118 116/116/116 115/115/115
f 119/119/119 120/120/120 121/121/121
f 121/121/121 120/120/120 122/122/122
f 123/123/123 121/121/121 122/122/122
f 124/124/124 121/121/121 123/123/123
f 125/125/125 124/124/124 123/123/123
f 126/126/126 124/124/124 125/125/125
f 125/125/125 127/127/127 126/126/126
f 128/128/128 127/127/127 125/125/125
f 128/128/128 129/129/129 127/127/127
f 130/130/130 129/129/129 128/128/128
f 131/131/131 132/132/132 133/133/133
f 133/133/133 134/134/134 131/131/131
f 135/135/135 134/134/134 136/136/136
f 135/135/135 137/137/137 134/134/134
f 138/138/138 137/137/137 135/135/135
f 139/139/139 140/140/140 141/141/141
f 140/140/140 139/139/139 142/142/142
f 140/140/140 142/142/142 143/143/143
f 142/142/142 139/139/139 144/144/144
f 145/145/145 146/146/146 147/147/147
f 146/146/146 145/145/145 148/148/148
f 145/145/145 149/149/149 148/148/148
f 149/149/149 145/145/145 150/150/150
