v -0.5239407 0.3004728 -0.4475798
v -0.4877611 0.2512788 -0.4809111
v -0.5239407 0.2512788 -0.4475798
v -0.4877611 0.3004728 -0.4809111
v 0.4687074 0.3004728 0.4751257
v -0.5239407 0.2512788 -0.4475798
v 0.4687074 0.2512788 0.4751257
v -0.5239407 0.3004728 -0.4475798
v 0.5033618 0.3004728 0.4402106
v 0.4687074 0.2512788 0.4751257
v 0.5033618 0.2512788 0.4402106
v 0.4687074 0.3004728 0.4751257
v -0.4877611 0.3004728 -0.4809111
v 0.5033618 0.2512788 0.4402106
v -0.4877611 0.2512788 -0.4809111
v 0.5033618 0.3004728 0.4402106
v -0.4877611 0.2512788 -0.4809111
v 0.4687074 0.2512788 0.4751257
v -0.5239407 0.2512788 -0.4475798
v 0.5033618 0.2512788 0.4402106
v 0.4687074 0.3004728 0.4751257
v -0.4877611 0.3004728 -0.4809111
v -0.5239407 0.3004728 -0.4475798
v 0.5033618 0.3004728 0.4402106
v 0.5237103 0.6779492 0.4960299
v 0.5237103 -0.000323399 0.4284502
v 0.5237103 0.6779492 0.4284502
v 0.5237103 -0.000323399 0.4960299
v 0.457374 0.6779492 0.4284502
v 0.5237103 -0.000323399 0.4284502
v 0.457374 -0.000323399 0.4284502
v 0.5237103 0.6779492 0.4284502
v 0.457374 0.6779492 0.4960299
v 0.457374 -0.000323399 0.4284502
v 0.457374 -0.000323399 0.4960299
v 0.457374 0.6779492 0.4284502
v 0.5237103 0.6779492 0.4960299
v 0.457374 -0.000323399 0.4960299
v 0.5237103 -0.000323399 0.4960299
v 0.457374 0.6779492 0.4960299
v 0.5237103 -0.000323399 0.4284502
v 0.457374 -0.000323399 0.4960299
v 0.457374 -0.000323399 0.4284502
v 0.5237103 -0.000323399 0.4960299
v 8.600503E-05 0.660601 0.5050544
v -0.5281914 0.6961372 0.5028377
v -0.5304081 0.660601 0.5050544
v 8.600503E-05 0.6961372 0.5028377
v 0.5283635 0.6961372 0.5028377
v 0.5305801 0.660601 0.5050544
v -0.5281914 0.6961372 -0.5031102
v 8.600503E-05 0.660601 -0.505328
v -0.5304081 0.660601 -0.505328
v 8.600503E-05 0.6961372 -0.5031102
v 0.5283635 0.6961372 -0.5031102
v 0.5305801 0.660601 -0.505328
v 8.600503E-05 0.660601 -0.505328
v -0.5304081 0.660601 -0.0001362429
v -0.5304081 0.660601 -0.505328
v 8.600503E-05 0.660601 -0.0001362429
v 0.5305801 0.660601 -0.505328
v -0.5304081 0.660601 0.5050544
v 0.5305801 0.660601 -0.0001362429
v 8.600503E-05 0.660601 0.5050544
v 0.5305801 0.660601 0.5050544
v -0.5281914 0.6961372 0.5028377
v -0.5304081 0.660601 -0.0001362429
v -0.5304081 0.660601 0.5050544
v -0.5281914 0.6961372 -0.0001362429
v -0.5281914 0.6961372 -0.5031102
v -0.5304081 0.660601 -0.505328
v -0.5281914 0.6961372 -0.0001362429
v 8.600503E-05 0.6961372 -0.5031102
v -0.5281914 0.6961372 -0.5031102
v 8.600503E-05 0.6961372 -0.0001362429
v 0.5283635 0.6961372 -0.5031102
v -0.5281914 0.6961372 0.5028377
v 0.5283635 0.6961372 -0.0001362429
v 8.600503E-05 0.6961372 0.5028377
v 0.5283635 0.6961372 0.5028377
v 0.5283635 0.6961372 -0.5031102
v 0.5305801 0.660601 -0.0001362429
v 0.5305801 0.660601 -0.505328
v 0.5283635 0.6961372 -0.0001362429
v 0.5283635 0.6961372 0.5028377
v 0.5305801 0.660601 0.5050544
v -0.4572183 0.6779492 0.4960299
v -0.4572183 -0.000323399 0.4284502
v -0.4572183 0.6779492 0.4284502
v -0.4572183 -0.000323399 0.4960299
v -0.5235558 0.6779492 0.4284502
v -0.4572183 -0.000323399 0.4284502
v -0.5235558 -0.000323399 0.4284502
v -0.4572183 0.6779492 0.4284502
v -0.5235558 0.6779492 0.4960299
v -0.5235558 -0.000323399 0.4284502
v -0.5235558 -0.000323399 0.4960299
v -0.5235558 0.6779492 0.4284502
v -0.4572183 0.6779492 0.4960299
v -0.5235558 -0.000323399 0.4960299
v -0.4572183 -0.000323399 0.4960299
v -0.5235558 0.6779492 0.4960299
v -0.4572183 -0.000323399 0.4284502
v -0.5235558 -0.000323399 0.4960299
v -0.5235558 -0.000323399 0.4284502
v -0.4572183 -0.000323399 0.4960299
v 0.5237103 0.6779492 -0.5015498
v 0.5237103 -0.000323399 -0.43397
v 0.5237103 -0.000323399 -0.5015498
v 0.5237103 0.6779492 -0.43397
v 0.457374 0.6779492 -0.5015498
v 0.5237103 -0.000323399 -0.5015498
v 0.457374 -0.000323399 -0.5015498
v 0.5237103 0.6779492 -0.5015498
v 0.457374 0.6779492 -0.43397
v 0.457374 -0.000323399 -0.5015498
v 0.457374 -0.000323399 -0.43397
v 0.457374 0.6779492 -0.5015498
v 0.5237103 0.6779492 -0.43397
v 0.457374 -0.000323399 -0.43397
v 0.5237103 -0.000323399 -0.43397
v 0.457374 0.6779492 -0.43397
v 0.5237103 -0.000323399 -0.5015498
v 0.457374 -0.000323399 -0.43397
v 0.457374 -0.000323399 -0.5015498
v 0.5237103 -0.000323399 -0.43397
v -0.4572183 0.6779492 -0.5015498
v -0.4572183 -0.000323399 -0.43397
v -0.4572183 -0.000323399 -0.5015498
v -0.4572183 0.6779492 -0.43397
v -0.5235558 0.6779492 -0.5015498
v -0.4572183 -0.000323399 -0.5015498
v -0.5235558 -0.000323399 -0.5015498
v -0.4572183 0.6779492 -0.5015498
v -0.5235558 0.6779492 -0.43397
v -0.5235558 -0.000323399 -0.5015498
v -0.5235558 -0.000323399 -0.43397
v -0.5235558 0.6779492 -0.5015498
v -0.4572183 0.6779492 -0.43397
v -0.5235558 -0.000323399 -0.43397
v -0.4572183 -0.000323399 -0.43397
v -0.5235558 0.6779492 -0.43397
v -0.4572183 -0.000323399 -0.5015498
v -0.5235558 -0.000323399 -0.43397
v -0.5235558 -0.000323399 -0.5015498
v -0.4572183 -0.000323399 -0.43397
v -0.4950075 0.3004728 0.4731664
v -0.5253081 0.2512788 0.4344134
v -0.4950075 0.2512788 0.4731664
v -0.5253081 0.3004728 0.4344134
v 0.5048543 0.3004728 -0.4417183
v -0.4950075 0.2512788 0.4731664
v 0.5048543 0.2512788 -0.4417183
v -0.4950075 0.3004728 0.4731664
v 0.4728518 0.3004728 -0.4790793
v 0.5048543 0.2512788 -0.4417183
v 0.4728518 0.2512788 -0.4790793
v 0.5048543 0.3004728 -0.4417183
v -0.5253081 0.3004728 0.4344134
v 0.4728518 0.2512788 -0.4790793
v -0.5253081 0.2512788 0.4344134
v 0.4728518 0.3004728 -0.4790793
v -0.5253081 0.2512788 0.4344134
v 0.5048543 0.2512788 -0.4417183
v -0.4950075 0.2512788 0.4731664
v 0.4728518 0.2512788 -0.4790793
v 0.5048543 0.3004728 -0.4417183
v -0.5253081 0.3004728 0.4344134
v -0.4950075 0.3004728 0.4731664
v 0.4728518 0.3004728 -0.4790793
vn -0.6774194 0.0009775171 -0.7355964
vn -0.6774194 0.0009775171 -0.7355964
vn -0.6774194 0.0009775171 -0.7355964
vn -0.6774194 0.0009775171 -0.7355964
vn -0.6813294 0.0009775171 0.7319763
vn -0.6813294 0.0009775171 0.7319763
vn -0.6813294 0.0009775171 0.7319763
vn -0.6813294 0.0009775171 0.7319763
vn 0.7106549 0.0009775171 0.7035401
vn 0.7106549 0.0009775171 0.7035401
vn 0.7106549 0.0009775171 0.7035401
vn 0.7106549 0.0009775171 0.7035401
vn 0.6813294 0.0009775171 -0.7319763
vn 0.6813294 0.0009775171 -0.7319763
vn 0.6813294 0.0009775171 -0.7319763
vn 0.6813294 0.0009775171 -0.7319763
vn 0.0009775166 -0.9999995 0
vn 0.0009775166 -0.9999995 0
vn 0.0009775166 -0.9999995 0
vn 0.0009775166 -0.9999995 0
vn 0.0009775166 0.9999995 0
vn 0.0009775166 0.9999995 0
vn 0.0009775166 0.9999995 0
vn 0.0009775166 0.9999995 0
vn 0.9999995 0.0009775166 0
vn 0.9999995 0.0009775166 0
vn 0.9999995 0.0009775166 0
vn 0.9999995 0.0009775166 0
vn 0.0009775171 0.0009775171 -0.999999
vn 0.0009775171 0.0009775171 -0.999999
vn 0.0009775171 0.0009775171 -0.999999
vn 0.0009775171 0.0009775171 -0.999999
vn -0.9999995 0.0009775166 0
vn -0.9999995 0.0009775166 0
vn -0.9999995 0.0009775166 0
vn -0.9999995 0.0009775166 0
vn 0.0009775171 0.0009775171 0.999999
vn 0.0009775171 0.0009775171 0.999999
vn 0.0009775171 0.0009775171 0.999999
vn 0.0009775171 0.0009775171 0.999999
vn 0.0009775166 -0.9999995 0
vn 0.0009775166 -0.9999995 0
vn 0.0009775166 -0.9999995 0
vn 0.0009775166 -0.9999995 0
vn 0.0009775171 0.06158358 0.9981015
vn 0.0009775171 0.06158358 0.9981015
vn 0.0009775171 0.06158358 0.9981015
vn 0.0009775171 0.06158358 0.9981015
vn 0.0009775171 0.06158358 0.9981015
vn 0.0009775171 0.06158358 0.9981015
vn 0.0009775171 0.06158358 -0.9981015
vn 0.0009775171 0.06158358 -0.9981015
vn 0.0009775171 0.06158358 -0.9981015
vn 0.0009775171 0.06158358 -0.9981015
vn 0.0009775171 0.06158358 -0.9981015
vn 0.0009775171 0.06158358 -0.9981015
vn 0.0009775166 -0.9999995 0
vn 0.0009775166 -0.9999995 0
vn 0.0009775166 -0.9999995 0
vn 0.0009775166 -0.9999995 0
vn 0.0009775166 -0.9999995 0
vn 0.0009775166 -0.9999995 0
vn 0.0009775166 -0.9999995 0
vn 0.0009775166 -0.9999995 0
vn 0.0009775166 -0.9999995 0
vn -0.998045 0.06158358 -0.01066362
vn -0.998045 0.06158358 -0.01066362
vn -0.998045 0.06158358 -0.01066362
vn -0.998045 0.06158358 -0.01066362
vn -0.998045 0.06158358 -0.01066362
vn -0.998045 0.06158358 -0.01066362
vn 0.0009775166 0.9999995 0
vn 0.0009775166 0.9999995 0
vn 0.0009775166 0.9999995 0
vn 0.0009775166 0.9999995 0
vn 0.0009775166 0.9999995 0
vn 0.0009775166 0.9999995 0
vn 0.0009775166 0.9999995 0
vn 0.0009775166 0.9999995 0
vn 0.0009775166 0.9999995 0
vn 0.998045 0.06158358 -0.01066362
vn 0.998045 0.06158358 -0.01066362
vn 0.998045 0.06158358 -0.01066362
vn 0.998045 0.06158358 -0.01066362
vn 0.998045 0.06158358 -0.01066362
vn 0.998045 0.06158358 -0.01066362
vn 0.9999995 0.0009775166 0
vn 0.9999995 0.0009775166 0
vn 0.9999995 0.0009775166 0
vn 0.9999995 0.0009775166 0
vn 0.0009775171 0.0009775171 -0.999999
vn 0.0009775171 0.0009775171 -0.999999
vn 0.0009775171 0.0009775171 -0.999999
vn 0.0009775171 0.0009775171 -0.999999
vn -0.9999995 0.0009775166 0
vn -0.9999995 0.0009775166 0
vn -0.9999995 0.0009775166 0
vn -0.9999995 0.0009775166 0
vn 0.0009775171 0.0009775171 0.999999
vn 0.0009775171 0.0009775171 0.999999
vn 0.0009775171 0.0009775171 0.999999
vn 0.0009775171 0.0009775171 0.999999
vn 0.0009775166 -0.9999995 0
vn 0.0009775166 -0.9999995 0
vn 0.0009775166 -0.9999995 0
vn 0.0009775166 -0.9999995 0
vn 0.9999995 0.0009775166 0
vn 0.9999995 0.0009775166 0
vn 0.9999995 0.0009775166 0
vn 0.9999995 0.0009775166 0
vn 0.0009775171 0.0009775171 -0.999999
vn 0.0009775171 0.0009775171 -0.999999
vn 0.0009775171 0.0009775171 -0.999999
vn 0.0009775171 0.0009775171 -0.999999
vn -0.9999995 0.0009775166 0
vn -0.9999995 0.0009775166 0
vn -0.9999995 0.0009775166 0
vn -0.9999995 0.0009775166 0
vn 0.0009775171 0.0009775171 0.999999
vn 0.0009775171 0.0009775171 0.999999
vn 0.0009775171 0.0009775171 0.999999
vn 0.0009775171 0.0009775171 0.999999
vn 0.0009775166 -0.9999995 0
vn 0.0009775166 -0.9999995 0
vn 0.0009775166 -0.9999995 0
vn 0.0009775166 -0.9999995 0
vn 0.9999995 0.0009775166 0
vn 0.9999995 0.0009775166 0
vn 0.9999995 0.0009775166 0
vn 0.9999995 0.0009775166 0
vn 0.0009775171 0.0009775171 -0.999999
vn 0.0009775171 0.0009775171 -0.999999
vn 0.0009775171 0.0009775171 -0.999999
vn 0.0009775171 0.0009775171 -0.999999
vn -0.9999995 0.0009775166 0
vn -0.9999995 0.0009775166 0
vn -0.9999995 0.0009775166 0
vn -0.9999995 0.0009775166 0
vn 0.0009775171 0.0009775171 0.999999
vn 0.0009775171 0.0009775171 0.999999
vn 0.0009775171 0.0009775171 0.999999
vn 0.0009775171 0.0009775171 0.999999
vn 0.0009775166 -0.9999995 0
vn 0.0009775166 -0.9999995 0
vn 0.0009775166 -0.9999995 0
vn 0.0009775166 -0.9999995 0
vn -0.7869013 0.0009775171 0.6170781
vn -0.7869013 0.0009775171 0.6170781
vn -0.7869013 0.0009775171 0.6170781
vn -0.7869013 0.0009775171 0.6170781
vn 0.6754643 0.0009775171 0.737392
vn 0.6754643 0.0009775171 0.737392
vn 0.6754643 0.0009775171 0.737392
vn 0.6754643 0.0009775171 0.737392
vn 0.7595308 0.0009775171 -0.6504706
vn 0.7595308 0.0009775171 -0.6504706
vn 0.7595308 0.0009775171 -0.6504706
vn 0.7595308 0.0009775171 -0.6504706
vn -0.6754643 0.0009775171 -0.737392
vn -0.6754643 0.0009775171 -0.737392
vn -0.6754643 0.0009775171 -0.737392
vn -0.6754643 0.0009775171 -0.737392
vn 0.0009775166 -0.9999995 0
vn 0.0009775166 -0.9999995 0
vn 0.0009775166 -0.9999995 0
vn 0.0009775166 -0.9999995 0
vn 0.0009775166 0.9999995 0
vn 0.0009775166 0.9999995 0
vn 0.0009775166 0.9999995 0
vn 0.0009775166 0.9999995 0
vt 0.5119069 0.6736876
vt 0.5001268 0.6846112
vt 0.5119069 0.6846112
vt 0.5001268 0.6736876
vt 0.8119682 0.6736876
vt 0.5119069 0.6846112
vt 0.8119682 0.6846112
vt 0.5119069 0.6736876
vt 0.8232374 0.6951742
vt 0.8119682 0.6846112
vt 0.8123288 0.6955197
vt 0.8228768 0.6842506
vt 0.5119069 0.7064283
vt 0.8123288 0.6955197
vt 0.5119069 0.6955047
vt 0.8123288 0.7064434
vt 0.5119069 0.6955047
vt 0.8119682 0.6846112
vt 0.5119069 0.6846112
vt 0.8123288 0.6955197
vt 0.8119682 0.717367
vt 0.5119069 0.7064283
vt 0.5119069 0.7173069
vt 0.8123288 0.7064434
vt 0.9879481 0.7128744
vt 0.8373464 0.7278849
vt 0.9879481 0.7278849
vt 0.8373464 0.7128744
vt 0.9879481 0.74261
vt 0.8373464 0.7278849
vt 0.8373464 0.74261
vt 0.9879481 0.7278849
vt 0.9879481 0.6981493
vt 0.8373464 0.6831387
vt 0.8373464 0.6981493
vt 0.9879481 0.6831387
vt 0.9879481 0.7128744
vt 0.8373464 0.6981493
vt 0.8373464 0.7128744
vt 0.9879481 0.6981493
vt 0.8373464 0.7278849
vt 0.8226213 0.7128744
vt 0.8226213 0.7278699
vt 0.8373464 0.7128744
vt 0.7569294 0.8634008
vt 0.7490259 0.9807057
vt 0.7569294 0.9812016
vt 0.7490259 0.8634008
vt 0.7490259 0.746111
vt 0.7569294 0.7456151
vt 0.5256703 0.9807057
vt 0.5177519 0.8634008
vt 0.5177519 0.9812016
vt 0.5256703 0.8634008
vt 0.5256703 0.746111
vt 0.5177519 0.7456151
vt 0.8767285 0.7667261
vt 0.9854689 0.8702826
vt 0.9854689 0.7667261
vt 0.8767285 0.8702826
vt 0.7680033 0.7667261
vt 0.9854689 0.973824
vt 0.7680033 0.8702826
vt 0.8767285 0.973824
vt 0.7680033 0.973824
vt 0.7490259 0.9807057
vt 0.6373406 0.9886092
vt 0.7495218 0.9886092
vt 0.6373406 0.9807057
vt 0.5256703 0.9807057
vt 0.5251745 0.9886092
vt 0.6373406 0.9807057
vt 0.5256703 0.8634008
vt 0.5256703 0.9807057
vt 0.6373406 0.8634008
vt 0.5256703 0.746111
vt 0.7490259 0.9807057
vt 0.6373406 0.746111
vt 0.7490259 0.8634008
vt 0.7490259 0.746111
vt 0.5256703 0.746111
vt 0.6373406 0.7382075
vt 0.5251745 0.7382075
vt 0.6373406 0.746111
vt 0.7490259 0.746111
vt 0.7495218 0.7382075
vt 0.9879481 0.7128744
vt 0.8373464 0.7278849
vt 0.9879481 0.7278849
vt 0.8373464 0.7128744
vt 0.9879481 0.74261
vt 0.8373464 0.7278849
vt 0.8373464 0.74261
vt 0.9879481 0.7278849
vt 0.9879481 0.6981493
vt 0.8373464 0.6831387
vt 0.8373464 0.6981493
vt 0.9879481 0.6831387
vt 0.9879481 0.7128744
vt 0.8373464 0.6981493
vt 0.8373464 0.7128744
vt 0.9879481 0.6981493
vt 0.8373464 0.7278849
vt 0.8226213 0.7128744
vt 0.8226213 0.7278699
vt 0.8373464 0.7128744
vt 0.9879481 0.7278849
vt 0.8373464 0.7128744
vt 0.8373464 0.7278849
vt 0.9879481 0.7128744
vt 0.9879481 0.74261
vt 0.8373464 0.7278849
vt 0.8373464 0.74261
vt 0.9879481 0.7278849
vt 0.9879481 0.6981493
vt 0.8373464 0.6831387
vt 0.8373464 0.6981493
vt 0.9879481 0.6831387
vt 0.9879481 0.7128744
vt 0.8373464 0.6981493
vt 0.8373464 0.7128744
vt 0.9879481 0.6981493
vt 0.8373464 0.7278849
vt 0.8226213 0.7128744
vt 0.8226213 0.7278699
vt 0.8373464 0.7128744
vt 0.9879481 0.7278849
vt 0.8373464 0.7128744
vt 0.8373464 0.7278849
vt 0.9879481 0.7128744
vt 0.9879481 0.74261
vt 0.8373464 0.7278849
vt 0.8373464 0.74261
vt 0.9879481 0.7278849
vt 0.9879481 0.6981493
vt 0.8373464 0.6831387
vt 0.8373464 0.6981493
vt 0.9879481 0.6831387
vt 0.9879481 0.7128744
vt 0.8373464 0.6981493
vt 0.8373464 0.7128744
vt 0.9879481 0.6981493
vt 0.8373464 0.7278849
vt 0.8226213 0.7128744
vt 0.8226213 0.7278699
vt 0.8373464 0.7128744
vt 0.5119069 0.6736876
vt 0.5001268 0.6846112
vt 0.5119069 0.6846112
vt 0.5001268 0.6736876
vt 0.8119682 0.6736876
vt 0.5119069 0.6846112
vt 0.8119682 0.6846112
vt 0.5119069 0.6736876
vt 0.8232374 0.6951742
vt 0.8119682 0.6846112
vt 0.8123288 0.6955197
vt 0.8228768 0.6842506
vt 0.5119069 0.7064283
vt 0.8123288 0.6955197
vt 0.5119069 0.6955047
vt 0.8123288 0.7064434
vt 0.5119069 0.6955047
vt 0.8119682 0.6846112
vt 0.5119069 0.6846112
vt 0.8123288 0.6955197
vt 0.8119682 0.717367
vt 0.5119069 0.7064283
vt 0.5119069 0.7173069
vt 0.8123288 0.7064434
f 1/1/1 2/2/2 3/3/3
f 4/4/4 2/2/2 1/1/1
f 5/5/5 6/6/6 7/7/7
f 8/8/8 6/6/6 5/5/5
f 9/9/9 10/10/10 11/11/11
f 12/12/12 10/10/10 9/9/9
f 13/13/13 14/14/14 15/15/15
f 16/16/16 14/14/14 13/13/13
f 17/17/17 18/18/18 19/19/19
f 20/20/20 18/18/18 17/17/17
f 21/21/21 22/22/22 23/23/23
f 24/24/24 22/22/22 21/21/21
f 25/25/25 26/26/26 27/27/27
f 28/28/28 26/26/26 25/25/25
f 29/29/29 30/30/30 31/31/31
f 32/32/32 30/30/30 29/29/29
f 33/33/33 34/34/34 35/35/35
f 36/36/36 34/34/34 33/33/33
f 37/37/37 38/38/38 39/39/39
f 40/40/40 38/38/38 37/37/37
f 41/41/41 42/42/42 43/43/43
f 44/44/44 42/42/42 41/41/41
f 45/45/45 46/46/46 47/47/47
f 48/48/48 46/46/46 45/45/45
f 48/48/48 45/45/45 49/49/49
f 49/49/49 45/45/45 50/50/50
f 51/51/51 52/52/52 53/53/53
f 54/54/54 52/52/52 51/51/51
f 55/55/55 52/52/52 54/54/54
f 56/56/56 52/52/52 55/55/55
f 57/57/57 58/58/58 59/59/59
f 60/60/60 58/58/58 57/57/57
f 61/61/61 60/60/60 57/57/57
f 60/60/60 62/62/62 58/58/58
f 63/63/63 60/60/60 61/61/61
f 64/64/64 62/62/62 60/60/60
f 63/63/63 64/64/64 60/60/60
f 65/65/65 64/64/64 63/63/63
f 66/66/66 67/67/67 68/68/68
f 69/69/69 67/67/67 66/66/66
f 70/70/70 67/67/67 69/69/69
f 71/71/71 67/67/67 70/70/70
f 72/72/72 73/73/73 74/74/74
f 75/75/75 73/73/73 72/72/72
f 75/75/75 76/76/76 73/73/73
f 77/77/77 75/75/75 72/72/72
f 78/78/78 76/76/76 75/75/75
f 79/79/79 75/75/75 77/77/77
f 79/79/79 78/78/78 75/75/75
f 80/80/80 78/78/78 79/79/79
f 81/81/81 82/82/82 83/83/83
f 84/84/84 82/82/82 81/81/81
f 85/85/85 82/82/82 84/84/84
f 86/86/86 82/82/82 85/85/85
f 87/87/87 88/88/88 89/89/89
f 90/90/90 88/88/88 87/87/87
f 91/91/91 92/92/92 93/93/93
f 94/94/94 92/92/92 91/91/91
f 95/95/95 96/96/96 97/97/97
f 98/98/98 96/96/96 95/95/95
f 99/99/99 100/100/100 101/101/101
f 102/102/102 100/100/100 99/99/99
f 103/103/103 104/104/104 105/105/105
f 106/106/106 104/104/104 103/103/103
f 107/107/107 108/108/108 109/109/109
f 110/110/110 108/108/108 107/107/107
f 111/111/111 112/112/112 113/113/113
f 114/114/114 112/112/112 111/111/111
f 115/115/115 116/116/116 117/117/117
f 118/118/118 116/116/116 115/115/115
f 119/119/119 120/120/120 121/121/121
f 122/122/122 120/120/120 119/119/119
f 123/123/123 124/124/124 125/125/125
f 126/126/126 124/124/124 123/123/123
f 127/127/127 128/128/128 129/129/129
f 130/130/130 128/128/128 127/127/127
f 131/131/131 132/132/132 133/133/133
f 134/134/134 132/132/132 131/131/131
f 135/135/135 136/136/136 137/137/137
f 138/138/138 136/136/136 135/135/135
f 139/139/139 140/140/140 141/141/141
f 142/142/142 140/140/140 139/139/139
f 143/143/143 144/144/144 145/145/145
f 146/146/146 144/144/144 143/143/143
f 147/147/147 148/148/148 149/149/149
f 150/150/150 148/148/148 147/147/147
f 151/151/151 152/152/152 153/153/153
f 154/154/154 152/152/152 151/151/151
f 155/155/155 156/156/156 157/157/157
f 158/158/158 156/156/156 155/155/155
f 159/159/159 160/160/160 161/161/161
f 162/162/162 160/160/160 159/159/159
f 163/163/163 164/164/164 165/165/165
f 166/166/166 164/164/164 163/163/163
f 167/167/167 168/168/168 169/169/169
f 170/170/170 168/168/168 167/167/167
