v -2.454984 2.867671 1.1365
v -2.351013 0.7906738 0.4269309
v -1.903104 1.337627 1.422842
v -2.679383 1.370042 -0.1333523
v -2.020745 0.1469442 -0.104874
v -2.698858 3.465946 -0.3268948
v -2.102522 3.65669 0.9151989
v -2.454034 1.351307 -1.038892
v -1.655912 0.6421369 -1.34462
v -1.001761 0.3058831 -1.249842
v -2.475428 2.80463 -1.108909
v -2.569466 3.852122 -0.4582947
v -2.218564 4.270752 1.287525
v -1.860457 3.126384 -1.296416
v -2.677294 5.051308 0.5801342
v -2.364952 6.607842 0.9736244
v -2.615341 4.573822 -0.8868383
v -1.560965 4.475626 -1.566281
v -2.098095 5.789666 -1.346478
v -2.733971 6.536507 -0.2249026
v -1.922339 7.563075 0.3208017
v -1.940006 7.150589 -0.9220715
v -2.593398 6.24321 -0.862267
v -1.940006 7.150589 -0.9220715
v -1.136208 6.927269 -1.453966
v 2.557908 3.037612 -0.9197133
v 2.106241 6.054974 -1.327083
v 2.402156 6.843453 -1.02887
v 1.72795 2.063294 -1.577722
v 1.624179 5.043064 -1.543438
v 2.028871 0.9275995 -1.06811
v 2.690187 0.8381876 -0.1856824
v 1.72795 2.063294 -1.577722
v 2.028871 0.9275995 -1.06811
v 0.7756952 0.6533184 -0.8895962
v 1.663579 0.3277864 -0.1152561
v 2.690187 0.8381876 -0.1856824
v 0.6206433 0.4041582 -0.3186112
v 0.0397958 0.1549781 -0.7713463
v 2.523174 1.103605 0.5437219
v 1.663579 0.3277864 -0.1152561
v 2.690187 0.8381876 -0.1856824
v 1.828443 0.9259807 0.9963571
v 0.7618857 0.6369908 0.9075248
v 0.6206433 0.4041582 -0.3186112
v 0.2817415 0.4381923 1.082911
v 0.0397958 0.1549781 -0.7713463
v -1.730595 0.1153283 0.3844932
v -1.001761 0.3058831 -1.249842
v -2.020745 0.1469442 -0.104874
v -2.351013 0.7906738 0.4269309
v -1.903104 1.337627 1.422842
v -1.408641 1.890136 1.615585
v 1.956825 7.117014 -0.9938768
v 1.711822 7.478209 0.281042
v 2.402156 6.843453 -1.02887
v 1.24224 7.237143 -0.6104088
v 1.196694 7.367613 0.1469042
v 0.9331552 7.611028 0.06130941
v 1.176939 6.771777 -1.209572
v 0.6886315 7.743797 -0.07174923
v 0.6529687 7.056271 -1.438488
v -0.8656744 7.554531 -0.696803
v -1.922339 7.563075 0.3208017
v -1.940006 7.150589 -0.9220715
v -1.136208 6.927269 -1.453966
v -0.8656744 7.554531 -0.696803
v 0.6529687 7.056271 -1.438488
v -1.940006 7.150589 -0.9220715
v -1.860457 3.126384 -1.296416
v -2.454034 1.351307 -1.038892
v -2.475428 2.80463 -1.108909
v -1.655912 0.6421369 -1.34462
v -0.3295228 1.405096 -1.248713
v -1.001761 0.3058831 -1.249842
v 0.0397958 0.1549781 -0.7713463
v 0.7756952 0.6533184 -0.8895962
v 0.1893519 3.351293 -1.582578
v -1.560965 4.475626 -1.566281
v 0.9844861 2.185601 -1.318759
v 1.72795 2.063294 -1.577722
v 1.624179 5.043064 -1.543438
v 0.6843647 6.235586 -1.58062
v 1.403967 5.567595 -1.358509
v 2.106241 6.054974 -1.327083
v -1.136208 6.927269 -1.453966
v -2.098095 5.789666 -1.346478
v 0.6529687 7.056271 -1.438488
v 1.176939 6.771777 -1.209572
v 1.956825 7.117014 -0.9938768
v 2.402156 6.843453 -1.02887
v 1.925449 7.100687 0.5767468
v 2.402156 6.843453 -1.02887
v 1.711822 7.478209 0.281042
v 2.289752 6.150391 1.038925
v 2.76427 5.076339 0.3614408
v 2.557908 3.037612 -0.9197133
v 2.690187 0.8381876 -0.1856824
v 2.189858 2.297716 1.256139
v 2.523174 1.103605 0.5437219
v 1.828443 0.9259807 0.9963571
v -2.364952 6.607842 0.9736244
v -0.4222122 6.924291 1.39976
v -1.922339 7.563075 0.3208017
v 0.6886315 7.743797 -0.07174923
v -1.568449 4.205013 1.506638
v -2.218564 4.270752 1.287525
v -2.102522 3.65669 0.9151989
v 0.6085425 7.129775 1.105084
v 1.224743 6.521438 1.157644
v 0.9331552 7.611028 0.06130941
v 1.196694 7.367613 0.1469042
v 1.711822 7.478209 0.281042
v 1.925449 7.100687 0.5767468
v 2.289752 6.150391 1.038925
v 0.6023772 4.363982 1.33347
v 1.794909 2.985432 1.374859
v 2.189858 2.297716 1.256139
v -1.075734 3.518606 1.170255
v -1.360977 2.977828 1.43831
v -2.454984 2.867671 1.1365
v -1.903104 1.337627 1.422842
v -1.408641 1.890136 1.615585
v -0.4979445 2.928885 1.094792
v 0.2800028 1.47859 1.304552
v 0.2817415 0.4381923 1.082911
v 0.7886353 1.655715 1.302194
v 1.828443 0.9259807 0.9963571
v 0.7618857 0.6369908 0.9075248
vn -0.7345482 0.1691069 0.6571468
vn -0.8191456 -0.4499929 0.355678
vn -0.4596063 -0.3307874 0.8242219
vn -0.9729593 -0.2308085 0.008811921
vn -0.5268998 -0.846063 -0.08095682
vn -0.9768046 0.2114057 -0.03406407
vn -0.7191668 -0.003933398 0.6948264
vn -0.7595428 -0.2269632 -0.6095756
vn -0.326942 -0.4307662 -0.8411595
vn 0.028752 -0.6711 -0.7408091
vn -0.694172 0.09604546 -0.7133726
vn -0.9883406 -0.01162408 -0.1518147
vn -0.6461053 -0.2346538 0.726282
vn -0.3307874 -0.007778739 -0.9436733
vn -0.9556552 -0.06930419 0.2862167
vn -0.6518733 0.355606 0.6697803
vn -0.8729804 -0.1000669 -0.4773802
vn -0.2731073 -0.04623215 -0.960872
vn -0.4711423 0.1018135 -0.8761615
vn -0.9345058 0.3479153 -0.07519189
vn -0.4403796 0.868959 0.2257791
vn -0.501905 0.6651559 -0.5528644
vn -0.8076096 0.2287097 -0.543561
vn -0.501905 0.6651559 -0.5528644
vn -0.1808191 0.4536622 -0.8726369
vn 0.8612683 -0.02508277 -0.507531
vn 0.361374 0.1248855 -0.9240198
vn 0.722836 0.4728889 -0.5038692
vn 0.186411 -0.1539017 -0.9703428
vn -0.1058349 0.07681876 -0.991412
vn 0.4132861 -0.5422811 -0.731523
vn 0.8285829 -0.5538171 -0.08207937
vn 0.186411 -0.1539017 -0.9703428
vn 0.4132861 -0.5422811 -0.731523
vn 0.1171948 -0.6461053 -0.7541971
vn 0.2190964 -0.9748819 -0.04002492
vn 0.8285829 -0.5538171 -0.08207937
vn 0.2248644 -0.9729593 -0.05278465
vn 0.2479364 -0.8556764 -0.4542527
vn 0.7651348 -0.4269209 0.4819827
vn 0.2190964 -0.9748819 -0.04002492
vn 0.8285829 -0.5538171 -0.08207937
vn 0.3229206 -0.5807345 0.7473084
vn 0.2863898 -0.7422388 0.6058567
vn 0.2248644 -0.9729593 -0.05278465
vn 0.2306324 -0.7287801 0.6447389
vn 0.2479364 -0.8556764 -0.4542527
vn -0.2769526 -0.8883618 0.3662113
vn 0.028752 -0.6711 -0.7408091
vn -0.5268998 -0.846063 -0.08095682
vn -0.8191456 -0.4499929 0.355678
vn -0.4596063 -0.3307874 0.8242219
vn -0.134675 0.003757283 0.9908827
vn 0.215251 0.7670574 -0.6043922
vn 0.2306324 0.9304844 0.2846181
vn 0.722836 0.4728889 -0.5038692
vn -0.123139 0.8824176 -0.4540661
vn 0.2479364 0.9304844 0.2696781
vn 0.4959609 0.8593456 0.1246911
vn 0.2806218 0.4863475 -0.8274766
vn 0.2537044 0.9670151 -0.02271033
vn 0.2748538 0.5747904 -0.7707603
vn -0.1019896 0.9189484 -0.380962
vn -0.4403796 0.868959 0.2257791
vn -0.501905 0.6651559 -0.5528644
vn -0.1808191 0.4536622 -0.8726369
vn -0.1019896 0.9189484 -0.380962
vn 0.2748538 0.5747904 -0.7707603
vn -0.501905 0.6651559 -0.5528644
vn -0.3307874 -0.007778739 -0.9436733
vn -0.7595428 -0.2269632 -0.6095756
vn -0.694172 0.09604546 -0.7133726
vn -0.326942 -0.4307662 -0.8411595
vn 0.09220012 -0.1654377 -0.981901
vn 0.028752 -0.6711 -0.7408091
vn 0.2479364 -0.8556764 -0.4542527
vn 0.1171948 -0.6461053 -0.7541971
vn 0.06720541 -0.08660822 -0.9939731
vn -0.2731073 -0.04623215 -0.960872
vn -0.1212163 -0.146211 -0.9817988
vn 0.186411 -0.1539017 -0.9703428
vn -0.1058349 0.07681876 -0.991412
vn 0.2056377 0.1037361 -0.9731146
vn 0.04028802 0.1152722 -0.9925166
vn 0.361374 0.1248855 -0.9240198
vn -0.1808191 0.4536622 -0.8726369
vn -0.4711423 0.1018135 -0.8761615
vn 0.2748538 0.5747904 -0.7707603
vn 0.2806218 0.4863475 -0.8274766
vn 0.215251 0.7670574 -0.6043922
vn 0.722836 0.4728889 -0.5038692
vn 0.565177 0.6170892 0.5475179
vn 0.722836 0.4728889 -0.5038692
vn 0.2306324 0.9304844 0.2846181
vn 0.6459292 0.2960032 0.7036744
vn 0.9785511 0.07874142 0.1903614
vn 0.8612683 -0.02508277 -0.507531
vn 0.8285829 -0.5538171 -0.08207937
vn 0.547873 -0.1096803 0.8293403
vn 0.7651348 -0.4269209 0.4819827
vn 0.3229206 -0.5807345 0.7473084
vn -0.6518733 0.355606 0.6697803
vn -0.02123743 0.4844249 0.874575
vn -0.4403796 0.868959 0.2257791
vn 0.2537044 0.9670151 -0.02271033
vn -0.163515 -0.2327312 0.9586965
vn -0.6461053 -0.2346538 0.726282
vn -0.7191668 -0.003933398 0.6948264
vn 0.2498591 0.6670786 0.7018381
vn 0.2190964 0.3421473 0.9137462
vn 0.4959609 0.8593456 0.1246911
vn 0.2479364 0.9304844 0.2696781
vn 0.2306324 0.9304844 0.2846181
vn 0.565177 0.6170892 0.5475179
vn 0.6459292 0.2960032 0.7036744
vn 0.02682933 -0.0231601 0.9993717
vn 0.1383442 0.001834613 0.9903826
vn 0.547873 -0.1096803 0.8293403
vn 0.02682933 -0.06738152 0.9973665
vn -0.005856069 0.2863898 0.9580953
vn -0.7345482 0.1691069 0.6571468
vn -0.4596063 -0.3307874 0.8242219
vn -0.134675 0.003757283 0.9908827
vn 0.1268082 0.1114268 0.9856489
vn 0.07874142 -0.08084022 0.9936119
vn 0.2306324 -0.7287801 0.6447389
vn 0.08450944 -0.1827417 0.9795221
vn 0.3229206 -0.5807345 0.7473084
vn 0.2863898 -0.7422388 0.6058567
vt 0.7172083 0.1645139
vt 0.6985857 0.1125829
vt 0.72387 0.1244831
vt 0.682628 0.1296156
vt 0.6868672 0.08949401
vt 0.6785553 0.1827579
vt 0.7270343 0.1886626
vt 0.6586458 0.1286921
vt 0.6392663 0.1017273
vt 0.6232933 0.08236296
vt 0.6546942 0.1703883
vt 0.6740737 0.1986551
vt 0.7316823 0.2106008
vt 0.6351179 0.18191
vt 0.7092899 0.2345526
vt 0.7397823 0.2789135
vt 0.6669578 0.2337048
vt 0.6218853 0.2253625
vt 0.6482748 0.2691481
vt 0.6975713 0.2900567
vt 0.7539839 0.3157043
vt 0.7431586 0.3496033
vt 0.673559 0.2816691
vt 0.663521 0.3178391
vt 0.6248376 0.3179602
vt 0.4465008 0.1639083
vt 0.4850327 0.3053635
vt 0.4668796 0.3485132
vt 0.4972055 0.1301607
vt 0.4968118 0.2576566
vt 0.490029 0.07877472
vt 0.4522844 0.0581083
vt 0.4972055 0.1301607
vt 0.490029 0.07877472
vt 0.5444582 0.06654141
vt 0.4996279 0.03064391
vt 0.4522844 0.0581083
vt 0.5532849 0.03503458
vt 0.5835805 0.05214304
vt 0.8578459 0.07506537
vt 0.830972 0.02757044
vt 0.8754237 0.05318772
vt 0.8315322 0.07956202
vt 0.7916982 0.07388443
vt 0.7773907 0.02124182
vt 0.7701839 0.08060669
vt 0.741902 0.01544311
vt 0.7079273 0.08891869
vt 0.7011747 0.03759328
vt 0.6868672 0.08949401
vt 0.6985857 0.1125829
vt 0.72387 0.1244831
vt 0.7436582 0.1377459
vt 0.9126687 0.3119041
vt 0.8733193 0.2891181
vt 0.9291413 0.2953255
vt 0.8793602 0.3236226
vt 0.8606923 0.3000039
vt 0.8536369 0.3086489
vt 0.8989668 0.3474685
vt 0.8457791 0.3245462
vt 0.8562865 0.3658791
vt 0.7938482 0.3584603
vt 0.7539839 0.3157043
vt 0.7431586 0.3496033
vt 0.6248376 0.3179602
vt 0.6303638 0.3491188
vt 0.5558285 0.3422754
vt 0.663521 0.3178391
vt 0.6351179 0.18191
vt 0.6586458 0.1286921
vt 0.6546942 0.1703883
vt 0.6392663 0.1017273
vt 0.5936942 0.1132642
vt 0.6232933 0.08236296
vt 0.5835805 0.05214304
vt 0.5444582 0.06654141
vt 0.5595681 0.1848321
vt 0.6218853 0.2253625
vt 0.5309379 0.1365802
vt 0.4972055 0.1301607
vt 0.4968118 0.2576566
vt 0.5452 0.3036527
vt 0.5090905 0.2819264
vt 0.4850327 0.3053635
vt 0.6248376 0.3179602
vt 0.6482748 0.2691481
vt 0.5558285 0.3422754
vt 0.5250787 0.3344782
vt 0.4936475 0.3466812
vt 0.4668796 0.3485132
vt 0.8740308 0.2729634
vt 0.9291413 0.2953255
vt 0.8733193 0.2891181
vt 0.8734555 0.2418956
vt 0.8947427 0.2165509
vt 0.9411626 0.1142634
vt 0.8754237 0.05318772
vt 0.8497156 0.1180031
vt 0.8578459 0.07506537
vt 0.8315322 0.07956202
vt 0.7397823 0.2789135
vt 0.7949988 0.2765365
vt 0.7539839 0.3157043
vt 0.8457791 0.3245462
vt 0.7531209 0.2048323
vt 0.7316823 0.2106008
vt 0.7270343 0.1886626
vt 0.8302755 0.2794132
vt 0.8408889 0.2607906
vt 0.8536369 0.3086489
vt 0.8606923 0.3000039
vt 0.8733193 0.2891181
vt 0.8740308 0.2729634
vt 0.8734555 0.2418956
vt 0.8088521 0.1966566
vt 0.8432508 0.1519172
vt 0.8497156 0.1180031
vt 0.759177 0.1802446
vt 0.7466711 0.1672845
vt 0.7172083 0.1645139
vt 0.72387 0.1244831
vt 0.7436582 0.1377459
vt 0.7800251 0.1567015
vt 0.7817208 0.1139758
vt 0.7701839 0.08060669
vt 0.8057635 0.1067085
vt 0.8315322 0.07956202
vt 0.7916982 0.07388443
f 1/1/1 2/2/2 3/3/3
f 4/4/4 2/2/2 1/1/1
f 2/2/2 4/4/4 5/5/5
f 6/6/6 4/4/4 1/1/1
f 7/7/7 6/6/6 1/1/1
f 8/8/8 5/5/5 4/4/4
f 6/6/6 8/8/8 4/4/4
f 9/9/9 5/5/5 8/8/8
f 10/10/10 5/5/5 9/9/9
f 11/11/11 8/8/8 6/6/6
f 12/12/12 6/6/6 7/7/7
f 12/12/12 11/11/11 6/6/6
f 13/13/13 12/12/12 7/7/7
f 14/14/14 11/11/11 12/12/12
f 15/15/15 12/12/12 13/13/13
f 13/13/13 16/16/16 15/15/15
f 12/12/12 17/17/17 14/14/14
f 17/17/17 12/12/12 15/15/15
f 14/14/14 17/17/17 18/18/18
f 18/18/18 17/17/17 19/19/19
f 15/15/15 16/16/16 20/20/20
f 17/17/17 15/15/15 20/20/20
f 16/16/16 21/21/21 20/20/20
f 21/21/21 22/22/22 20/20/20
f 23/23/23 17/17/17 20/20/20
f 23/23/23 19/19/19 17/17/17
f 24/24/24 23/23/23 20/20/20
f 24/24/24 19/19/19 23/23/23
f 25/25/25 19/19/19 24/24/24
f 26/26/26 27/27/27 28/28/28
f 26/26/26 29/29/29 27/27/27
f 27/27/27 29/29/29 30/30/30
f 26/26/26 31/31/31 29/29/29
f 26/26/26 32/32/32 31/31/31
f 33/33/33 34/34/34 35/35/35
f 34/34/34 36/36/36 35/35/35
f 37/37/37 36/36/36 34/34/34
f 36/36/36 38/38/38 35/35/35
f 38/38/38 39/39/39 35/35/35
f 40/40/40 41/41/41 42/42/42
f 43/43/43 41/41/41 40/40/40
f 44/44/44 41/41/41 43/43/43
f 45/45/45 41/41/41 44/44/44
f 44/44/44 46/46/46 45/45/45
f 46/46/46 47/47/47 45/45/45
f 46/46/46 48/48/48 47/47/47
f 48/48/48 49/49/49 47/47/47
f 50/50/50 49/49/49 48/48/48
f 48/48/48 51/51/51 50/50/50
f 52/52/52 51/51/51 48/48/48
f 48/48/48 46/46/46 52/52/52
f 46/46/46 53/53/53 52/52/52
f 54/54/54 55/55/55 56/56/56
f 57/57/57 55/55/55 54/54/54
f 57/57/57 58/58/58 55/55/55
f 59/59/59 58/58/58 57/57/57
f 60/60/60 57/57/57 54/54/54
f 59/59/59 57/57/57 60/60/60
f 60/60/60 61/61/61 59/59/59
f 61/61/61 60/60/60 62/62/62
f 62/62/62 63/63/63 61/61/61
f 64/64/64 61/61/61 63/63/63
f 64/64/64 63/63/63 65/65/65
f 66/66/66 67/67/67 68/68/68
f 69/69/69 67/67/67 66/66/66
f 70/70/70 71/71/71 72/72/72
f 73/73/73 71/71/71 70/70/70
f 74/74/74 73/73/73 70/70/70
f 73/73/73 74/74/74 75/75/75
f 74/74/74 76/76/76 75/75/75
f 76/76/76 74/74/74 77/77/77
f 70/70/70 78/78/78 74/74/74
f 79/79/79 78/78/78 70/70/70
f 80/80/80 77/77/77 74/74/74
f 74/74/74 78/78/78 80/80/80
f 81/81/81 77/77/77 80/80/80
f 81/81/81 80/80/80 82/82/82
f 79/79/79 83/83/83 78/78/78
f 83/83/83 80/80/80 78/78/78
f 84/84/84 82/82/82 80/80/80
f 84/84/84 80/80/80 83/83/83
f 85/85/85 82/82/82 84/84/84
f 83/83/83 79/79/79 86/86/86
f 86/86/86 79/79/79 87/87/87
f 88/88/88 83/83/83 86/86/86
f 88/88/88 89/89/89 83/83/83
f 89/89/89 84/84/84 83/83/83
f 85/85/85 84/84/84 89/89/89
f 90/90/90 85/85/85 89/89/89
f 90/90/90 91/91/91 85/85/85
f 92/92/92 93/93/93 94/94/94
f 95/95/95 93/93/93 92/92/92
f 95/95/95 96/96/96 93/93/93
f 93/93/93 96/96/96 97/97/97
f 96/96/96 98/98/98 97/97/97
f 96/96/96 95/95/95 99/99/99
f 96/96/96 100/100/100 98/98/98
f 100/100/100 96/96/96 99/99/99
f 99/99/99 101/101/101 100/100/100
f 102/102/102 103/103/103 104/104/104
f 103/103/103 105/105/105 104/104/104
f 102/102/102 106/106/106 103/103/103
f 107/107/107 106/106/106 102/102/102
f 107/107/107 108/108/108 106/106/106
f 103/103/103 109/109/109 105/105/105
f 103/103/103 110/110/110 109/109/109
f 105/105/105 109/109/109 111/111/111
f 109/109/109 112/112/112 111/111/111
f 112/112/112 109/109/109 110/110/110
f 112/112/112 110/110/110 113/113/113
f 113/113/113 110/110/110 114/114/114
f 110/110/110 115/115/115 114/114/114
f 103/103/103 106/106/106 116/116/116
f 116/116/116 110/110/110 103/103/103
f 110/110/110 117/117/117 115/115/115
f 110/110/110 116/116/116 117/117/117
f 118/118/118 115/115/115 117/117/117
f 106/106/106 108/108/108 119/119/119
f 106/106/106 119/119/119 116/116/116
f 108/108/108 120/120/120 119/119/119
f 108/108/108 121/121/121 120/120/120
f 122/122/122 120/120/120 121/121/121
f 123/123/123 120/120/120 122/122/122
f 116/116/116 119/119/119 124/124/124
f 124/124/124 119/119/119 120/120/120
f 117/117/117 116/116/116 124/124/124
f 120/120/120 123/123/123 125/125/125
f 120/120/120 125/125/125 124/124/124
f 124/124/124 125/125/125 117/117/117
f 125/125/125 123/123/123 126/126/126
f 127/127/127 118/118/118 117/117/117
f 117/117/117 125/125/125 127/127/127
f 125/125/125 126/126/126 127/127/127
f 118/118/118 127/127/127 128/128/128
f 127/127/127 126/126/126 129/129/129
f 127/127/127 129/129/129 128/128/128
