v -2.932983 10.3773 0.3279456
v -2.325982 10.18893 -1.170296
v -2.820546 10.04722 -0.9389225
v -0.3787391 1.282034 0.8799918
v 0.07977479 0.8423558 0.319251
v 0.8346022 1.448399 1.186167
v -2.892995 10.78086 1.150605
v -2.932983 10.3773 0.3279456
v -1.823716 10.1104 1.407104
v 1.825682 0.9975345 -0.2635313
v 3.024074 2.041148 0.6883969
v 1.822354 2.111593 1.266527
v -2.909739 2.334639 -0.9028372
v -2.258934 0.7871216 -1.010344
v -2.580076 0.8961265 0.4516215
v -2.975951 4.052093 -1.121387
v -3.178349 3.538937 0.08784212
v -2.580076 0.8961265 0.4516215
v -2.20079 1.850076 1.165659
v -2.577411 6.01033 -1.214083
v -2.909652 6.863516 0.3379993
v -2.993497 7.60883 -0.1960131
v -2.244838 8.413019 -1.226384
v -3.095515 9.431229 0.7974715
v -3.019685 8.666819 -0.4757214
v -2.820546 10.04722 -0.9389225
v -2.932983 10.3773 0.3279456
v -2.886513 13.78512 -0.1678558
v -0.9655464 15.09208 -0.7741606
v -2.201103 13.38266 -1.518917
v -0.9655464 15.09208 -0.7741606
v -0.4239197 14.17092 -1.566275
v 0.2078242 13.9715 -1.290383
v 0.1469968 14.90499 -0.233318
v 1.413342 14.97405 -0.825335
v -0.4967871 11.58083 -1.420715
v -2.245622 12.17543 -1.3065
v 1.235059 13.74234 -1.567216
v 2.697303 14.52423 -1.049931
v 2.682353 11.07867 -1.327113
v 0.4142992 12.59544 -1.330755
v 1.659927 11.43625 -1.652071
v 2.309043 9.996081 -1.280521
v 0.6378672 10.34293 -1.413223
v 0.1858176 8.70942 -1.554427
v 0.5513568 9.27734 -1.29791
v 1.33009 8.56102 -1.361212
v -1.033918 10.48281 -1.436919
v -2.325982 10.18893 -1.170296
v -3.102328 10.6867 -0.4378415
v -0.8720664 9.130821 -1.455615
v -2.820546 10.04722 -0.9389225
v -2.244838 8.413019 -1.226384
v 1.797159 8.243431 -1.613826
v 2.549843 8.589682 -0.8591202
v -0.8189404 8.564505 -1.312372
v -0.5520213 7.572692 -1.497921
v -0.8469931 7.149584 -1.15336
v -0.4762964 5.378342 -1.390414
v -1.49231 6.425963 -1.409128
v -2.577411 6.01033 -1.214083
v -2.975951 4.052093 -1.121387
v -0.3876603 5.922861 -1.555159
v 1.868267 5.360325 -1.413327
v 2.414929 5.091455 -1.278204
v -0.04750792 4.810126 -1.644788
v 1.978509 2.760814 -1.538014
v -2.169095 2.124139 -1.39031
v -2.909739 2.334639 -0.9028372
v -2.258934 0.7871216 -1.010344
v -0.5685045 1.009609 -0.9516594
v -0.481663 2.207861 -1.313923
v 0.5103754 1.406582 -1.609888
v 1.362551 0.9530334 -1.224869
v 2.683573 1.7843 -0.9125599
v 2.414929 5.091455 -1.278204
v 2.683573 1.7843 -0.9125599
v 1.978509 2.760814 -1.538014
v 3.264787 4.487903 0.4192302
v 3.024074 2.041148 0.6883969
v 2.903151 5.238165 0.2463662
v 3.254489 6.144634 0.334044
v 2.549843 8.589682 -0.8591202
v 1.797159 8.243431 -1.613826
v 1.33009 8.56102 -1.361212
v 2.309043 9.996081 -1.280521
v 2.918885 8.296714 0.7196906
v 2.997014 10.4025 0.1378143
v 2.682353 11.07867 -1.327113
v 3.171621 12.94263 0.3435401
v 2.697303 14.52423 -1.049931
v -0.5685045 1.009609 -0.9516594
v -2.580076 0.8961265 0.4516215
v -2.258934 0.7871216 -1.010344
v -0.3787391 1.282034 0.8799918
v 0.07977479 0.8423558 0.319251
v 0.07977479 0.8423558 0.319251
v 1.825682 0.9975345 -0.2635313
v 1.362551 0.9530334 -1.224869
v 2.683573 1.7843 -0.9125599
v 3.024074 2.041148 0.6883969
v 0.07977479 0.8423558 0.319251
v 0.8346022 1.448399 1.186167
v 1.822354 2.111593 1.266527
v 2.668414 14.16609 1.476243
v 2.697303 14.52423 -1.049931
v 1.97708 14.79878 1.483212
v 1.413342 14.97405 -0.825335
v 0.7008029 14.41836 1.687875
v 0.1469968 14.90499 -0.233318
v 0.2895081 14.32737 1.415172
v -1.027384 14.69439 1.495566
v -0.9655464 15.09208 -0.7741606
v -1.651183 14.87102 1.367029
v -3.102328 10.6867 -0.4378415
v -2.325982 10.18893 -1.170296
v -2.932983 10.3773 0.3279456
v -2.892995 10.78086 1.150605
v -2.949223 12.87119 1.259662
v -3.09656 12.43325 -0.02729601
v -2.245622 12.17543 -1.3065
v -2.201103 13.38266 -1.518917
v -2.886513 13.78512 -0.1678558
v -1.651183 14.87102 1.367029
v -0.9655464 15.09208 -0.7741606
v 2.903151 5.238165 0.2463662
v 2.469327 5.322864 1.39252
v 3.264787 4.487903 0.4192302
v 3.254489 6.144634 0.334044
v 2.039615 6.926556 1.818887
v 2.423763 8.226164 1.39942
v 2.918885 8.296714 0.7196906
v 2.549843 8.589682 -0.8591202
v 2.890309 10.33639 1.200333
v 2.997014 10.4025 0.1378143
v 3.171621 12.94263 0.3435401
v 2.730095 12.0052 1.493719
v 2.668414 14.16609 1.476243
v 2.697303 14.52423 -1.049931
v 2.668414 14.16609 1.476243
v 1.97708 14.79878 1.483212
v 0.7008029 14.41836 1.687875
v 2.730095 12.0052 1.493719
v 0.9163558 10.19282 1.392677
v 2.890309 10.33639 1.200333
v 2.423763 8.226164 1.39942
v 0.3573225 11.65834 1.337443
v 0.2895081 14.32737 1.415172
v 0.7750816 8.090919 1.274246
v 2.039615 6.926556 1.818887
v 0.1891804 8.015281 1.259087
v 0.2714568 9.635404 1.064112
v -0.418797 12.88025 1.617744
v -1.027384 14.69439 1.495566
v -0.4615208 10.11434 1.478804
v -1.710111 13.31374 1.576013
v -1.651183 14.87102 1.367029
v -2.949223 12.87119 1.259662
v -2.892995 10.78086 1.150605
v -1.823716 10.1104 1.407104
v -1.833351 7.506725 1.24459
v -3.095515 9.431229 0.7974715
v -2.932983 10.3773 0.3279456
v -2.909652 6.863516 0.3379993
v -2.265555 4.153292 1.108369
v -3.178349 3.538937 0.08784212
v -2.20079 1.850076 1.165659
v -0.8053845 6.798786 1.140778
v -1.188452 2.135447 1.405832
v -2.580076 0.8961265 0.4516215
v -0.3787391 1.282034 0.8799918
v -0.4224038 2.499122 1.277138
v 0.8346022 1.448399 1.186167
v -0.6499097 4.65047 1.094342
v -0.235165 6.065146 1.238213
v 0.8222659 5.680893 1.541932
v 2.469327 5.322864 1.39252
v 2.27862 3.228632 1.486854
v 1.822354 2.111593 1.266527
v 3.264787 4.487903 0.4192302
v 3.024074 2.041148 0.6883969
vn -0.9752471 -0.1165625 0.1878996
vn -0.453074 -0.0527414 -0.8899114
vn -0.7102926 0.3959406 -0.5819927
vn -0.08175101 -0.7276984 0.6810079
vn -0.1417042 -0.9617093 0.2345959
vn 0.1155144 -0.5865183 0.8016562
vn -0.7276984 -0.2906202 0.6212849
vn -0.9752471 -0.1165625 0.1878996
vn -0.2674125 -0.07014716 0.9610255
vn 0.3843368 -0.9152939 0.1205088
vn 0.7885373 -0.4685458 0.3983387
vn 0.2566945 -0.4743478 0.842082
vn -0.8688785 -0.2055254 -0.4503438
vn -0.3563753 -0.7721798 -0.5260561
vn -0.5613766 -0.7373682 0.375692
vn -0.7431701 0.07876884 -0.6644498
vn -0.9675112 -0.01986384 0.2520467
vn -0.5613766 -0.7373682 0.375692
vn -0.4318003 -0.2809503 0.857097
vn -0.6426035 0.02074962 -0.7659178
vn -0.9307656 -0.06047729 0.3605798
vn -0.9694451 -0.06627922 -0.2361848
vn -0.4143946 -0.02373178 -0.9097879
vn -0.8553407 0.1000426 0.5083147
vn -0.9172279 -0.07014716 -0.3921382
vn -0.7102926 0.3959406 -0.5819927
vn -0.9752471 -0.1165625 0.1878996
vn -0.8611426 0.4752336 -0.1805174
vn -0.1165625 0.9103777 -0.3970208
vn -0.5130273 0.2064111 -0.8331851
vn -0.1165625 0.9103777 -0.3970208
vn 0.1774015 0.4191483 -0.8904175
vn 0.1329201 0.4249502 -0.8954047
vn 0.07876884 0.9896706 -0.119781
vn 0.007211801 0.9065098 -0.4221232
vn 0.01301372 0.003343853 -0.9999097
vn -0.5130273 -0.05080742 -0.8568673
vn -0.01212794 0.2257509 -0.9741095
vn 0.6396213 0.5603284 -0.5262287
vn 0.7131124 -0.1010908 -0.6937228
vn -0.04887345 -0.01019397 -0.998753
vn 0.06329705 -0.02953371 -0.9975576
vn 0.5545265 -0.1803837 -0.8123805
vn 0.04589128 -0.04307153 -0.9980175
vn 0.02074962 0.07103295 -0.9972581
vn 0.3611291 0.007211801 -0.932488
vn 0.2044772 0.4752336 -0.8557699
vn -0.1126946 0.005277827 -0.9936157
vn -0.453074 -0.0527414 -0.8899114
vn -0.907558 -0.2886862 -0.3049571
vn -0.1397702 -0.08755293 -0.9863056
vn -0.7102926 0.3959406 -0.5819927
vn -0.4143946 -0.02373178 -0.9097879
vn 0.3224496 0.3359874 -0.8849512
vn 0.8291508 0.09810858 -0.5503486
vn -0.1687799 -0.1301004 -0.9770298
vn -0.4201965 -0.008259992 -0.9073955
vn -0.2906202 0.02848552 -0.9564144
vn -0.1494401 -0.004392044 -0.988761
vn -0.0005240953 0.03622141 -0.9993436
vn -0.6426035 0.02074962 -0.7659178
vn -0.7431701 0.07876884 -0.6644498
vn -0.3950548 -0.1146286 -0.9114779
vn 0.140656 -0.08755293 -0.9861797
vn 0.6280175 0.003343853 -0.778192
vn -0.1939215 0.1290522 -0.9724916
vn 0.3572611 -0.06821319 -0.9315103
vn -0.2461388 -0.1455722 -0.9582403
vn -0.8688785 -0.2055254 -0.4503438
vn -0.3563753 -0.7721798 -0.5260561
vn -0.07788306 -0.8476048 -0.5248814
vn -0.1784497 -0.1378363 -0.9742468
vn -0.09528883 -0.381517 -0.9194372
vn 0.2392887 -0.8069913 -0.5399128
vn 0.7595277 -0.4259984 -0.4915719
vn 0.6280175 0.003343853 -0.778192
vn 0.7595277 -0.4259984 -0.4915719
vn 0.3572611 -0.06821319 -0.9315103
vn 0.9838687 0.1367881 0.1152881
vn 0.7885373 -0.4685458 0.3983387
vn 0.9993405 0.03428744 -0.01195349
vn 0.9935386 -0.08175101 0.07872619
vn 0.8291508 0.09810858 -0.5503486
vn 0.3224496 0.3359874 -0.8849512
vn 0.2044772 0.4752336 -0.8557699
vn 0.5545265 -0.1803837 -0.8123805
vn 0.9780668 0.01881565 0.2074399
vn 0.9838687 -0.1049587 -0.1448655
vn 0.7131124 -0.1010908 -0.6937228
vn 0.9954726 0.08457077 0.04338274
vn 0.6396213 0.5603284 -0.5262287
vn -0.07788306 -0.8476048 -0.5248814
vn -0.5613766 -0.7373682 0.375692
vn -0.3563753 -0.7721798 -0.5260561
vn -0.08175101 -0.7276984 0.6810079
vn -0.1417042 -0.9617093 0.2345959
vn -0.1417042 -0.9617093 0.2345959
vn 0.3843368 -0.9152939 0.1205088
vn 0.2392887 -0.8069913 -0.5399128
vn 0.7595277 -0.4259984 -0.4915719
vn 0.7885373 -0.4685458 0.3983387
vn -0.1417042 -0.9617093 0.2345959
vn 0.1155144 -0.5865183 0.8016562
vn 0.2566945 -0.4743478 0.842082
vn 0.6705649 0.3533932 0.6522698
vn 0.6396213 0.5603284 -0.5262287
vn 0.2218829 0.7749996 0.5917294
vn 0.007211801 0.9065098 -0.4221232
vn -0.2712805 0.513913 0.8138184
vn 0.07876884 0.9896706 -0.119781
vn -0.2035914 0.5699983 0.796023
vn 0.09810858 0.6318855 0.7688273
vn -0.1165625 0.9103777 -0.3970208
vn -0.3292997 0.7614617 0.5583348
vn -0.907558 -0.2886862 -0.3049571
vn -0.453074 -0.0527414 -0.8899114
vn -0.9752471 -0.1165625 0.1878996
vn -0.7276984 -0.2906202 0.6212849
vn -0.760576 0.140656 0.6338297
vn -0.979115 0.06136308 -0.1938256
vn -0.5130273 -0.05080742 -0.8568673
vn -0.5130273 0.2064111 -0.8331851
vn -0.8611426 0.4752336 -0.1805174
vn -0.3292997 0.7614617 0.5583348
vn -0.1165625 0.9103777 -0.3970208
vn 0.9993405 0.03428744 -0.01195349
vn 0.5603284 -0.02759973 0.8278105
vn 0.9838687 0.1367881 0.1152881
vn 0.9935386 -0.08175101 0.07872619
vn 0.2741002 0.04589128 0.9606056
vn 0.4520259 0.04782526 0.8907219
vn 0.9780668 0.01881565 0.2074399
vn 0.8291508 0.09810858 -0.5503486
vn 0.7266502 -0.05854332 0.6845087
vn 0.9838687 -0.1049587 -0.1448655
vn 0.9954726 0.08457077 0.04338274
vn 0.5622624 -0.03340166 0.8262841
vn 0.6705649 0.3533932 0.6522698
vn 0.6396213 0.5603284 -0.5262287
vn 0.6705649 0.3533932 0.6522698
vn 0.2218829 0.7749996 0.5917294
vn -0.2712805 0.513913 0.8138184
vn 0.5622624 -0.03340166 0.8262841
vn -0.1707138 -0.06241127 0.9833421
vn 0.7266502 -0.05854332 0.6845087
vn 0.4520259 0.04782526 0.8907219
vn -0.02373178 -0.07594909 0.9968293
vn -0.2035914 0.5699983 0.796023
vn -0.09528883 0.1890054 0.9773418
vn 0.2741002 0.04589128 0.9606056
vn -0.03920358 0.04782526 0.9980861
vn 0.0594291 -0.01406191 0.9981335
vn 0.1251842 -0.006326018 0.9921134
vn 0.09810858 0.6318855 0.7688273
vn 0.1754676 -0.06821319 0.9821192
vn -0.15911 0.04589128 0.9861937
vn -0.3292997 0.7614617 0.5583348
vn -0.760576 0.140656 0.6338297
vn -0.7276984 -0.2906202 0.6212849
vn -0.2674125 -0.07014716 0.9610255
vn -0.2770824 -0.08368498 0.9571949
vn -0.8553407 0.1000426 0.5083147
vn -0.9752471 -0.1165625 0.1878996
vn -0.9307656 -0.06047729 0.3605798
vn -0.4298663 0.02848552 0.9024431
vn -0.9675112 -0.01986384 0.2520467
vn -0.4318003 -0.2809503 0.857097
vn -0.0372696 -0.04307153 0.9983766
vn 0.01107975 -0.1977895 0.9801819
vn -0.5613766 -0.7373682 0.375692
vn -0.08175101 -0.7276984 0.6810079
vn 0.001409879 -0.08175101 0.9966518
vn 0.1155144 -0.5865183 0.8016562
vn -0.1494401 0.02461757 0.9884643
vn -0.232601 -0.0005240953 0.9725721
vn -0.1494401 -0.02759973 0.9883855
vn 0.5603284 -0.02759973 0.8278105
vn 0.366931 -0.09722281 0.9251537
vn 0.2566945 -0.4743478 0.842082
vn 0.9838687 0.1367881 0.1152881
vn 0.7885373 -0.4685458 0.3983387
vt 0.3153671 0.7710189
vt 0.365028 0.7709583
vt 0.3502131 0.7523677
vt 0.2020797 0.4377528
vt 0.1797133 0.4066673
vt 0.1490676 0.4486403
vt 0.2963065 0.7882296
vt 0.3153671 0.7710189
vt 0.2686632 0.7648625
vt 0.09375074 0.4316418
vt 0.06493985 0.4717344
vt 0.109718 0.4776179
vt 0.3471804 0.5019404
vt 0.3675452 0.4622269
vt 0.3208261 0.4466842
vt 0.3511836 0.5544369
vt 0.3127135 0.5388638
vt 0.2936225 0.4381622
vt 0.2746679 0.4804232
vt 0.3612978 0.6209748
vt 0.3096353 0.6531066
vt 0.3299697 0.6874219
vt 0.3737168 0.705512
vt 0.3039641 0.7400093
vt 0.3375667 0.7159295
vt 0.3502131 0.7523677
vt 0.3153671 0.7710189
vt 0.3209322 0.8622736
vt 0.3006584 0.9288723
vt 0.3647399 0.8652002
vt 0.3787511 0.939411
vt 0.4018453 0.910494
vt 0.4330975 0.916984
vt 0.42174 0.9465834
vt 0.475586 0.9663113
vt 0.4279722 0.8230453
vt 0.3698652 0.8308395
vt 0.4733418 0.9184397
vt 0.5166946 0.9585475
vt 0.5524353 0.8248498
vt 0.4508845 0.8648666
vt 0.5070505 0.830703
vt 0.5451719 0.7756742
vt 0.4766323 0.7839535
vt 0.4676403 0.7253006
vt 0.481333 0.7434666
vt 0.509128 0.7180524
vt 0.4129754 0.7882448
vt 0.365028 0.7709583
vt 0.3404174 0.7849088
vt 0.4212396 0.7334738
vt 0.3502131 0.7523677
vt 0.3737168 0.705512
vt 0.5299628 0.6986581
vt 0.5639141 0.7135791
vt 0.4214822 0.7075288
vt 0.4429691 0.6745934
vt 0.425076 0.660188
vt 0.4365852 0.6004584
vt 0.4002531 0.637018
vt 0.3612978 0.6209748
vt 0.3511836 0.5544369
vt 0.4452284 0.6173962
vt 0.5242764 0.5926189
vt 0.5472645 0.5770003
vt 0.4596339 0.5618822
vt 0.5020465 0.4952987
vt 0.3764159 0.4982405
vt 0.3471804 0.5019404
vt 0.3675452 0.4622269
vt 0.4201933 0.4447129
vt 0.4251518 0.4981191
vt 0.4563282 0.4682923
vt 0.4821519 0.4520672
vt 0.525444 0.4620297
vt 0.5472645 0.5770003
vt 0.525444 0.4620297
vt 0.5020465 0.4952987
vt 0.5993819 0.548887
vt 0.5653092 0.4332947
vt 0.6072366 0.5729061
vt 0.6109669 0.6096931
vt 0.5639141 0.7135791
vt 0.5299628 0.6986581
vt 0.509128 0.7180524
vt 0.5451719 0.7756742
vt 0.5952119 0.7373102
vt 0.6026723 0.7976463
vt 0.5524353 0.8248498
vt 0.5907083 0.8722968
vt 0.5166946 0.9585475
vt 0.4201933 0.4447129
vt 0.3208261 0.4466842
vt 0.3675452 0.4622269
vt 0.412384 0.4083808
vt 0.4452891 0.3977208
vt 0.4452891 0.3977208
vt 0.5015916 0.4273505
vt 0.4821519 0.4520672
vt 0.525444 0.4620297
vt 0.5653092 0.4332947
vt 0.4452891 0.3977208
vt 0.4936459 0.390139
vt 0.5146475 0.3950217
vt 0.1776208 0.9051715
vt 0.1654292 0.9756672
vt 0.1967421 0.911889
vt 0.217031 0.972119
vt 0.2189416 0.8936472
vt 0.258822 0.9429138
vt 0.2330741 0.889553
vt 0.2639169 0.8787868
vt 0.3006584 0.9288723
vt 0.2777613 0.8769369
vt 0.3404174 0.7849088
vt 0.365028 0.7709583
vt 0.3153671 0.7710189
vt 0.2963065 0.7882296
vt 0.2964278 0.8356918
vt 0.3249505 0.8267149
vt 0.3698652 0.8308395
vt 0.3647399 0.8652002
vt 0.3209322 0.8622736
vt 0.2777613 0.8769369
vt 0.3006584 0.9288723
vt 0.03267165 0.6105271
vt 0.08804921 0.6072366
vt 0.03954077 0.5759844
vt 0.03981372 0.6564881
vt 0.1091115 0.6734562
vt 0.09796622 0.7300165
vt 0.06542508 0.7502145
vt 0.02231489 0.7585999
vt 0.1142974 0.816343
vt 0.07484169 0.8300813
vt 0.1323725 0.9018962
vt 0.1452919 0.8616368
vt 0.1776208 0.9051715
vt 0.1654292 0.9756672
vt 0.1776208 0.9051715
vt 0.1967421 0.911889
vt 0.2189416 0.8936472
vt 0.1452919 0.8616368
vt 0.1696144 0.7870014
vt 0.1142974 0.816343
vt 0.09796622 0.7300165
vt 0.2058403 0.8232576
vt 0.2330741 0.889553
vt 0.1644436 0.7142463
vt 0.1091115 0.6734562
vt 0.1952712 0.7029343
vt 0.1915258 0.7624212
vt 0.2439464 0.8404532
vt 0.2639169 0.8787868
vt 0.2223838 0.7732177
vt 0.2716807 0.8453207
vt 0.2777613 0.8769369
vt 0.2964278 0.8356918
vt 0.2963065 0.7882296
vt 0.2686632 0.7648625
vt 0.2535299 0.6813868
vt 0.3039641 0.7400093
vt 0.3153671 0.7710189
vt 0.3096353 0.6531066
vt 0.267723 0.5538303
vt 0.3127135 0.5388638
vt 0.2746679 0.4804232
vt 0.2190781 0.656109
vt 0.2307389 0.4852452
vt 0.2936225 0.4381622
vt 0.2020797 0.4377528
vt 0.1994867 0.4947377
vt 0.1490676 0.4486403
vt 0.2075537 0.5798056
vt 0.1911922 0.6295726
vt 0.1457923 0.6174266
vt 0.08804921 0.6072366
vt 0.0907635 0.5233818
vt 0.109718 0.4776179
vt 0.03954077 0.5759844
vt 0.06493985 0.4717344
f 1/1/1 2/2/2 3/3/3
f 4/4/4 5/5/5 6/6/6
f 7/7/7 8/8/8 9/9/9
f 10/10/10 11/11/11 12/12/12
f 13/13/13 14/14/14 15/15/15
f 16/16/16 13/13/13 17/17/17
f 13/13/13 18/18/18 17/17/17
f 18/18/18 19/19/19 17/17/17
f 20/20/20 16/16/16 17/17/17
f 20/20/20 17/17/17 21/21/21
f 22/22/22 20/20/20 21/21/21
f 23/23/23 20/20/20 22/22/22
f 22/22/22 21/21/21 24/24/24
f 22/22/22 25/25/25 23/23/23
f 22/22/22 24/24/24 25/25/25
f 25/25/25 26/26/26 23/23/23
f 26/26/26 25/25/25 24/24/24
f 27/27/27 26/26/26 24/24/24
f 28/28/28 29/29/29 30/30/30
f 31/31/31 32/32/32 30/30/30
f 31/31/31 33/33/33 32/32/32
f 34/34/34 33/33/33 31/31/31
f 35/35/35 33/33/33 34/34/34
f 36/36/36 30/30/30 32/32/32
f 30/30/30 36/36/36 37/37/37
f 35/35/35 38/38/38 33/33/33
f 39/39/39 38/38/38 35/35/35
f 40/40/40 38/38/38 39/39/39
f 41/41/41 32/32/32 33/33/33
f 38/38/38 41/41/41 33/33/33
f 41/41/41 36/36/36 32/32/32
f 38/38/38 40/40/40 42/42/42
f 38/38/38 42/42/42 41/41/41
f 42/42/42 40/40/40 43/43/43
f 44/44/44 41/41/41 42/42/42
f 43/43/43 44/44/44 42/42/42
f 44/44/44 36/36/36 41/41/41
f 44/44/44 45/45/45 36/36/36
f 44/44/44 46/46/46 45/45/45
f 44/44/44 43/43/43 46/46/46
f 43/43/43 47/47/47 46/46/46
f 46/46/46 47/47/47 45/45/45
f 36/36/36 48/48/48 37/37/37
f 45/45/45 48/48/48 36/36/36
f 37/37/37 48/48/48 49/49/49
f 37/37/37 49/49/49 50/50/50
f 49/49/49 48/48/48 51/51/51
f 45/45/45 51/51/51 48/48/48
f 49/49/49 51/51/51 52/52/52
f 51/51/51 53/53/53 52/52/52
f 47/47/47 54/54/54 45/45/45
f 55/55/55 54/54/54 47/47/47
f 51/51/51 45/45/45 56/56/56
f 53/53/53 51/51/51 56/56/56
f 45/45/45 57/57/57 56/56/56
f 54/54/54 57/57/57 45/45/45
f 58/58/58 53/53/53 56/56/56
f 57/57/57 58/58/58 56/56/56
f 58/58/58 57/57/57 59/59/59
f 59/59/59 60/60/60 58/58/58
f 60/60/60 53/53/53 58/58/58
f 61/61/61 60/60/60 59/59/59
f 61/61/61 53/53/53 60/60/60
f 59/59/59 62/62/62 61/61/61
f 57/57/57 54/54/54 63/63/63
f 59/59/59 57/57/57 63/63/63
f 54/54/54 64/64/64 63/63/63
f 63/63/63 64/64/64 59/59/59
f 54/54/54 65/65/65 64/64/64
f 64/64/64 65/65/65 66/66/66
f 64/64/64 66/66/66 59/59/59
f 65/65/65 67/67/67 66/66/66
f 68/68/68 62/62/62 59/59/59
f 62/62/62 68/68/68 69/69/69
f 68/68/68 70/70/70 69/69/69
f 68/68/68 71/71/71 70/70/70
f 68/68/68 59/59/59 72/72/72
f 72/72/72 59/59/59 66/66/66
f 72/72/72 71/71/71 68/68/68
f 66/66/66 73/73/73 72/72/72
f 73/73/73 71/71/71 72/72/72
f 66/66/66 67/67/67 73/73/73
f 71/71/71 73/73/73 74/74/74
f 73/73/73 67/67/67 74/74/74
f 74/74/74 67/67/67 75/75/75
f 76/76/76 77/77/77 78/78/78
f 79/79/79 77/77/77 76/76/76
f 77/77/77 79/79/79 80/80/80
f 76/76/76 81/81/81 79/79/79
f 81/81/81 76/76/76 82/82/82
f 83/83/83 82/82/82 76/76/76
f 83/83/83 76/76/76 84/84/84
f 85/85/85 86/86/86 83/83/83
f 86/86/86 87/87/87 83/83/83
f 88/88/88 87/87/87 86/86/86
f 86/86/86 89/89/89 88/88/88
f 90/90/90 88/88/88 89/89/89
f 90/90/90 89/89/89 91/91/91
f 92/92/92 93/93/93 94/94/94
f 92/92/92 95/95/95 93/93/93
f 95/95/95 92/92/92 96/96/96
f 97/97/97 92/92/92 98/98/98
f 98/98/98 92/92/92 99/99/99
f 100/100/100 98/98/98 99/99/99
f 101/101/101 98/98/98 100/100/100
f 102/102/102 98/98/98 103/103/103
f 104/104/104 103/103/103 98/98/98
f 105/105/105 106/106/106 107/107/107
f 107/107/107 106/106/106 108/108/108
f 107/107/107 108/108/108 109/109/109
f 108/108/108 110/110/110 109/109/109
f 111/111/111 109/109/109 110/110/110
f 111/111/111 110/110/110 112/112/112
f 110/110/110 113/113/113 112/112/112
f 112/112/112 113/113/113 114/114/114
f 115/115/115 116/116/116 117/117/117
f 115/115/115 117/117/117 118/118/118
f 118/118/118 119/119/119 115/115/115
f 115/115/115 119/119/119 120/120/120
f 115/115/115 120/120/120 121/121/121
f 120/120/120 122/122/122 121/121/121
f 123/123/123 122/122/122 120/120/120
f 120/120/120 119/119/119 123/123/123
f 123/123/123 119/119/119 124/124/124
f 123/123/123 124/124/124 125/125/125
f 126/126/126 127/127/127 128/128/128
f 126/126/126 129/129/129 127/127/127
f 129/129/129 130/130/130 127/127/127
f 129/129/129 131/131/131 130/130/130
f 129/129/129 132/132/132 131/131/131
f 133/133/133 132/132/132 129/129/129
f 132/132/132 134/134/134 131/131/131
f 135/135/135 134/134/134 132/132/132
f 136/136/136 134/134/134 135/135/135
f 134/134/134 136/136/136 137/137/137
f 136/136/136 138/138/138 137/137/137
f 136/136/136 139/139/139 138/138/138
f 140/140/140 141/141/141 142/142/142
f 140/140/140 142/142/142 143/143/143
f 142/142/142 144/144/144 143/143/143
f 145/145/145 143/143/143 144/144/144
f 144/144/144 146/146/146 145/145/145
f 147/147/147 144/144/144 142/142/142
f 142/142/142 148/148/148 147/147/147
f 149/149/149 146/146/146 144/144/144
f 149/149/149 150/150/150 146/146/146
f 149/149/149 151/151/151 150/150/150
f 144/144/144 152/152/152 149/149/149
f 147/147/147 152/152/152 144/144/144
f 152/152/152 151/151/151 149/149/149
f 147/147/147 148/148/148 153/153/153
f 154/154/154 153/153/153 148/148/148
f 155/155/155 152/152/152 147/147/147
f 151/151/151 152/152/152 155/155/155
f 155/155/155 147/147/147 153/153/153
f 154/154/154 156/156/156 153/153/153
f 157/157/157 156/156/156 154/154/154
f 157/157/157 158/158/158 156/156/156
f 156/156/156 158/158/158 159/159/159
f 160/160/160 156/156/156 159/159/159
f 160/160/160 153/153/153 156/156/156
f 153/153/153 160/160/160 155/155/155
f 155/155/155 160/160/160 161/161/161
f 161/161/161 151/151/151 155/155/155
f 162/162/162 161/161/161 160/160/160
f 163/163/163 162/162/162 160/160/160
f 162/162/162 164/164/164 161/161/161
f 165/165/165 161/161/161 164/164/164
f 164/164/164 166/166/166 165/165/165
f 165/165/165 166/166/166 167/167/167
f 151/151/151 161/161/161 168/168/168
f 165/165/165 168/168/168 161/161/161
f 167/167/167 169/169/169 165/165/165
f 169/169/169 167/167/167 170/170/170
f 170/170/170 171/171/171 169/169/169
f 171/171/171 172/172/172 169/169/169
f 169/169/169 172/172/172 165/165/165
f 173/173/173 172/172/172 171/171/171
f 165/165/165 174/174/174 168/168/168
f 165/165/165 172/172/172 174/174/174
f 151/151/151 168/168/168 175/175/175
f 174/174/174 175/175/175 168/168/168
f 175/175/175 176/176/176 151/151/151
f 174/174/174 176/176/176 175/175/175
f 176/176/176 174/174/174 172/172/172
f 176/176/176 150/150/150 151/151/151
f 150/150/150 176/176/176 177/177/177
f 172/172/172 173/173/173 178/178/178
f 172/172/172 178/178/178 176/176/176
f 176/176/176 178/178/178 177/177/177
f 179/179/179 178/178/178 173/173/173
f 180/180/180 177/177/177 178/178/178
f 178/178/178 179/179/179 181/181/181
f 181/181/181 180/180/180 178/178/178
