v -1.978528 0.9000084 9.975376
v -1.978528 0.8753846 10
v -1.055923 0.8332512 10
v -9.497802 0.8659622 9.975376
v -10.00001 0.9000084 9.724617
v -10.00001 0.9000084 9.975376
v -9.497802 0.8659622 9.724617
v -8.995597 0.886657 9.975376
v -8.995597 0.886657 9.724617
v -7.991204 0.8732865 9.975376
v -7.991204 0.8732865 9.724617
v -5.996134 0.9000084 9.975376
v -5.996134 0.9000084 9.724617
v -5.964491 0.9000084 9.975376
v -5.964491 0.9000084 9.724617
v -4.037723 0.9000084 9.975376
v -4.037723 0.9000084 9.724617
v -10.00001 0.8753846 10
v -10.00001 5.722059E-06 9.699993
v -10.00001 5.722059E-06 10
v -10.00001 0.8753846 9.699993
v -10.00001 0.9000084 9.975376
v -10.00001 0.9000084 9.724617
v -1.055923 5.722059E-06 9.699993
v -1.335145E-05 0.8753846 9.699993
v -1.335145E-05 5.722059E-06 9.699993
v -1.055923 0.8332512 9.699993
v -1.978528 5.722059E-06 9.699993
v -1.978528 0.8753846 9.699993
v -1.998307 5.722059E-06 9.699993
v -1.998307 0.8534691 9.699993
v -3.994407 5.722059E-06 9.699993
v -3.994407 0.8534691 9.699993
v -4.037723 5.722059E-06 9.699993
v -4.037723 0.8753846 9.699993
v -5.964491 5.722059E-06 9.699993
v -5.964491 0.8753846 9.699993
v -5.996134 5.722059E-06 9.699993
v -5.996134 0.8753846 9.699993
v -7.991204 5.722059E-06 9.699993
v -7.991204 0.8486626 9.699993
v -8.995597 5.722059E-06 9.699993
v -8.995597 0.8620331 9.699993
v -9.497802 5.722059E-06 9.699993
v -9.497802 0.8413383 9.699993
v -10.00001 5.722059E-06 9.699993
v -10.00001 0.8753846 9.699993
v -1.335145E-05 0.8753846 10
v -1.335145E-05 0.9000084 9.724617
v -1.335145E-05 0.9000084 9.975376
v -1.335145E-05 0.8753846 9.699993
v -1.335145E-05 5.722059E-06 10
v -1.335145E-05 5.722059E-06 9.699993
v 5.722059E-06 0.800006 4.90001
v 5.722059E-06 5.722059E-06 5.722059E-06
v 5.722059E-06 0.800006 5.722059E-06
v 5.722059E-06 5.722059E-06 4.90001
v 5.722059E-06 0.800006 9.799995
v 5.722059E-06 5.722059E-06 9.799995
v -5.000001 0.800006 5.722059E-06
v -10.00001 5.722059E-06 5.722059E-06
v -10.00001 0.800006 5.722059E-06
v -5.000001 5.722059E-06 5.722059E-06
v 5.722059E-06 0.800006 5.722059E-06
v 5.722059E-06 5.722059E-06 5.722059E-06
v -10.00001 0.800006 4.90001
v -10.00001 5.722059E-06 9.799995
v -10.00001 0.800006 9.799995
v -10.00001 5.722059E-06 4.90001
v -10.00001 0.800006 5.722059E-06
v -10.00001 5.722059E-06 5.722059E-06
v -5.000001 0.800006 4.90001
v 5.722059E-06 0.800006 4.90001
v 5.722059E-06 0.800006 5.722059E-06
v -5.000001 0.800006 5.722059E-06
v -1.055923 0.857875 9.975376
v -1.335145E-05 0.8753846 10
v -1.335145E-05 0.9000084 9.975376
v -1.055923 0.8332512 10
v -1.978528 0.9000084 9.975376
v -1.055923 0.8332512 9.699993
v -1.335145E-05 0.9000084 9.724617
v -1.335145E-05 0.8753846 9.699993
v -1.055923 0.857875 9.724617
v -1.978528 0.8753846 9.699993
v -1.978528 0.9000084 9.724617
v -1.055923 0.8332512 10
v -1.335145E-05 5.722059E-06 10
v -1.335145E-05 0.8753846 10
v -1.055923 5.722059E-06 10
v -1.978528 0.8753846 10
v -1.978528 5.722059E-06 10
v -1.998307 0.8534691 10
v -1.998307 5.722059E-06 10
v -3.994407 0.8534691 10
v -3.994407 5.722059E-06 10
v -4.037723 0.8753846 10
v -4.037723 5.722059E-06 10
v -5.964491 0.8753846 10
v -5.964491 5.722059E-06 10
v -5.996134 0.8753846 10
v -5.996134 5.722059E-06 10
v -7.991204 0.8486626 10
v -7.991204 5.722059E-06 10
v -8.995597 0.8620331 10
v -8.995597 5.722059E-06 10
v -9.497802 0.8413383 10
v -9.497802 5.722059E-06 10
v -10.00001 0.8753846 10
v -10.00001 5.722059E-06 10
v -10.00001 0.800006 4.90001
v -5.000001 0.800006 4.90001
v -5.000001 0.800006 5.722059E-06
v -10.00001 0.800006 5.722059E-06
v -10.00001 0.800006 9.799995
v -5.000001 0.800006 9.799995
v -5.000001 0.800006 4.90001
v -10.00001 0.800006 4.90001
v -5.000001 0.800006 9.799995
v 5.722059E-06 0.800006 9.799995
v 5.722059E-06 0.800006 4.90001
v -5.000001 0.800006 4.90001
v -1.055923 0.857875 9.975376
v -1.978528 0.9000084 9.724617
v -1.978528 0.9000084 9.975376
v -1.055923 0.857875 9.724617
v -1.335145E-05 0.9000084 9.975376
v -1.335145E-05 0.9000084 9.724617
v -1.998307 0.8534691 9.699993
v -1.978528 0.9000084 9.724617
v -1.978528 0.8753846 9.699993
v -1.998307 0.878093 9.724617
v -3.994407 0.8534691 9.699993
v -3.994407 0.878093 9.724617
v -4.037723 0.8753846 9.699993
v -4.037723 0.9000084 9.724617
v -1.998307 0.878093 9.975376
v -1.978528 0.8753846 10
v -1.978528 0.9000084 9.975376
v -1.998307 0.8534691 10
v -3.994407 0.878093 9.975376
v -3.994407 0.8534691 10
v -4.037723 0.9000084 9.975376
v -4.037723 0.8753846 10
v -1.998307 0.878093 9.975376
v -3.994407 0.878093 9.724617
v -3.994407 0.878093 9.975376
v -1.998307 0.878093 9.724617
v -1.978528 0.9000084 9.975376
v -1.978528 0.9000084 9.724617
v -5.964491 0.8753846 9.699993
v -4.037723 0.9000084 9.724617
v -4.037723 0.8753846 9.699993
v -5.964491 0.9000084 9.724617
v -5.996134 0.8753846 9.699993
v -5.996134 0.9000084 9.724617
v -7.991204 0.8486626 9.699993
v -7.991204 0.8732865 9.724617
v -8.995597 0.8620331 9.699993
v -8.995597 0.886657 9.724617
v -9.497802 0.8413383 9.699993
v -9.497802 0.8659622 9.724617
v -10.00001 0.8753846 9.699993
v -10.00001 0.9000084 9.724617
v -5.964491 0.9000084 9.975376
v -4.037723 0.8753846 10
v -4.037723 0.9000084 9.975376
v -5.964491 0.8753846 10
v -5.996134 0.9000084 9.975376
v -5.996134 0.8753846 10
v -7.991204 0.8732865 9.975376
v -7.991204 0.8486626 10
v -8.995597 0.886657 9.975376
v -8.995597 0.8620331 10
v -9.497802 0.8659622 9.975376
v -9.497802 0.8413383 10
v -10.00001 0.9000084 9.975376
v -10.00001 0.8753846 10
v -3.994407 0.878093 9.975376
v -3.994407 0.878093 9.724617
v -4.037723 0.9000084 9.724617
v -4.037723 0.9000084 9.975376
vn 0.03225806 0.7067448 0.7067327
vn 0.03225806 0.7067448 0.7067327
vn 0.002932551 0.7067448 0.7074624
vn 0.0127067 0.9999193 0
vn 0.067427 0.9977242 0
vn 0.067427 0.9977242 0
vn 0.0127067 0.9999193 0
vn -0.01466118 0.9998925 0
vn -0.01466118 0.9998925 0
vn -0.0009775166 0.9999995 0
vn -0.0009775166 0.9999995 0
vn -0.00684246 0.9999766 0
vn -0.00684246 0.9999766 0
vn 0.0009775166 0.9999995 0
vn 0.0009775166 0.9999995 0
vn 0.0009775166 0.9999995 0
vn 0.0009775166 0.9999995 0
vn -0.9999995 0.0009775166 0
vn -0.9999995 0.0009775166 0
vn -0.9999995 0.0009775166 0
vn -0.9999995 0.0009775166 0
vn -0.9999995 0.0009775166 0
vn -0.9999995 0.0009775166 0
vn 0.0009775171 0.0009775171 -0.999999
vn 0.0009775171 0.0009775171 -0.999999
vn 0.0009775171 0.0009775171 -0.999999
vn 0.0009775171 0.0009775171 -0.999999
vn 0.0009775171 0.0009775171 -0.999999
vn 0.0009775171 0.0009775171 -0.999999
vn 0.0009775171 0.0009775171 -0.999999
vn 0.0009775171 0.0009775171 -0.999999
vn 0.0009775171 0.0009775171 -0.999999
vn 0.0009775171 0.0009775171 -0.999999
vn 0.0009775171 0.0009775171 -0.999999
vn 0.0009775171 0.0009775171 -0.999999
vn 0.0009775171 0.0009775171 -0.999999
vn 0.0009775171 0.0009775171 -0.999999
vn 0.0009775171 0.0009775171 -0.999999
vn 0.0009775171 0.0009775171 -0.999999
vn 0.0009775171 0.0009775171 -0.999999
vn 0.0009775171 0.0009775171 -0.999999
vn 0.0009775171 0.0009775171 -0.999999
vn 0.0009775171 0.0009775171 -0.999999
vn 0.0009775171 0.0009775171 -0.999999
vn 0.0009775171 0.0009775171 -0.999999
vn 0.0009775171 0.0009775171 -0.999999
vn 0.0009775171 0.0009775171 -0.999999
vn 0.9999995 0.0009775166 0
vn 0.9999995 0.0009775166 0
vn 0.9999995 0.0009775166 0
vn 0.9999995 0.0009775166 0
vn 0.9999995 0.0009775166 0
vn 0.9999995 0.0009775166 0
vn 0.9999995 0.0009775166 0
vn 0.9999995 0.0009775166 0
vn 0.9999995 0.0009775166 0
vn 0.9999995 0.0009775166 0
vn 0.9999995 0.0009775166 0
vn 0.9999995 0.0009775166 0
vn 0.0009775171 0.0009775171 -0.999999
vn 0.0009775171 0.0009775171 -0.999999
vn 0.0009775171 0.0009775171 -0.999999
vn 0.0009775171 0.0009775171 -0.999999
vn 0.0009775171 0.0009775171 -0.999999
vn 0.0009775171 0.0009775171 -0.999999
vn -0.9999995 0.0009775166 0
vn -0.9999995 0.0009775166 0
vn -0.9999995 0.0009775166 0
vn -0.9999995 0.0009775166 0
vn -0.9999995 0.0009775166 0
vn -0.9999995 0.0009775166 0
vn 0.0009775166 0.9999995 0
vn 0.0009775166 0.9999995 0
vn 0.0009775166 0.9999995 0
vn 0.0009775166 0.9999995 0
vn 0.002932551 0.7067448 0.7074624
vn -0.028348 0.7067448 0.7069004
vn -0.028348 0.7067448 0.7069004
vn 0.002932551 0.7067448 0.7074624
vn 0.03225806 0.7067448 0.7067327
vn 0.002932551 0.7067448 -0.7074624
vn -0.028348 0.7067448 -0.7069004
vn -0.028348 0.7067448 -0.7069004
vn 0.002932551 0.7067448 -0.7074624
vn 0.03225806 0.7067448 -0.7067327
vn 0.03225806 0.7067448 -0.7067327
vn 0.0009775171 0.0009775171 0.999999
vn 0.0009775171 0.0009775171 0.999999
vn 0.0009775171 0.0009775171 0.999999
vn 0.0009775171 0.0009775171 0.999999
vn 0.0009775171 0.0009775171 0.999999
vn 0.0009775171 0.0009775171 0.999999
vn 0.0009775171 0.0009775171 0.999999
vn 0.0009775171 0.0009775171 0.999999
vn 0.0009775171 0.0009775171 0.999999
vn 0.0009775171 0.0009775171 0.999999
vn 0.0009775171 0.0009775171 0.999999
vn 0.0009775171 0.0009775171 0.999999
vn 0.0009775171 0.0009775171 0.999999
vn 0.0009775171 0.0009775171 0.999999
vn 0.0009775171 0.0009775171 0.999999
vn 0.0009775171 0.0009775171 0.999999
vn 0.0009775171 0.0009775171 0.999999
vn 0.0009775171 0.0009775171 0.999999
vn 0.0009775171 0.0009775171 0.999999
vn 0.0009775171 0.0009775171 0.999999
vn 0.0009775171 0.0009775171 0.999999
vn 0.0009775171 0.0009775171 0.999999
vn 0.0009775171 0.0009775171 0.999999
vn 0.0009775171 0.0009775171 0.999999
vn 0.0009775166 0.9999995 0
vn 0.0009775166 0.9999995 0
vn 0.0009775166 0.9999995 0
vn 0.0009775166 0.9999995 0
vn 0.0009775166 0.9999995 0
vn 0.0009775166 0.9999995 0
vn 0.0009775166 0.9999995 0
vn 0.0009775166 0.9999995 0
vn 0.0009775166 0.9999995 0
vn 0.0009775166 0.9999995 0
vn 0.0009775166 0.9999995 0
vn 0.0009775166 0.9999995 0
vn 0.002932539 0.9999957 0
vn 0.0459433 0.998045 -0.04237299
vn 0.0459433 0.998045 -0.04237299
vn 0.002932539 0.9999957 0
vn -0.04004605 0.9991979 0
vn -0.04004605 0.9991979 0
vn -0.255132 0.6832845 -0.6841272
vn -0.6168133 0.5562072 -0.5569335
vn -0.6168133 0.5562072 -0.5569335
vn -0.3743891 0.6559139 -0.6554462
vn 0.1515152 0.6989247 -0.6989617
vn 0.1867058 0.6950147 -0.694331
vn 0.3372434 0.6656892 -0.6656762
vn 0.3372434 0.6656892 -0.6656762
vn -0.3743891 0.6559139 0.6554462
vn -0.6168133 0.5562072 0.5569335
vn -0.6168133 0.5562072 0.5569335
vn -0.255132 0.6832845 0.6841272
vn 0.1867058 0.6950147 0.694331
vn 0.1515152 0.6989247 0.6989617
vn 0.3372434 0.6656892 0.6656762
vn 0.3372434 0.6656892 0.6656762
vn -0.4056696 0.9139785 -0.008686742
vn 0.2316716 0.9726295 -0.01788903
vn 0.2316716 0.9726295 -0.01788903
vn -0.4056696 0.9139785 -0.008686742
vn -0.7419355 0.6695992 -0.03418492
vn -0.7419355 0.6695992 -0.03418492
vn 0.0009775171 0.7067448 -0.7074679
vn 0.0009775171 0.7067448 -0.7074679
vn 0.0009775171 0.7067448 -0.7074679
vn 0.0009775171 0.7067448 -0.7074679
vn -0.004887586 0.7067448 -0.7074516
vn -0.004887586 0.7067448 -0.7074516
vn -0.0009775171 0.7067448 -0.7074679
vn -0.0009775171 0.7067448 -0.7074679
vn -0.01075269 0.7067448 -0.7073868
vn -0.008797654 0.7067448 -0.7074138
vn 0.008797654 0.7067448 -0.7074138
vn 0.008797654 0.7067448 -0.7074138
vn 0.04789834 0.7067448 -0.7058452
vn 0.04789834 0.7067448 -0.7058452
vn 0.0009775171 0.7067448 0.7074679
vn 0.0009775171 0.7067448 0.7074679
vn 0.0009775171 0.7067448 0.7074679
vn 0.0009775171 0.7067448 0.7074679
vn -0.004887586 0.7067448 0.7074516
vn -0.004887586 0.7067448 0.7074516
vn -0.0009775171 0.7067448 0.7074679
vn -0.0009775171 0.7067448 0.7074679
vn -0.008797654 0.7067448 0.7074138
vn -0.01075269 0.7067448 0.7073868
vn 0.008797654 0.7067448 0.7074138
vn 0.008797654 0.7067448 0.7074138
vn 0.04789834 0.7067448 0.7058452
vn 0.04789834 0.7067448 0.7058452
vn 0.2316716 0.9726295 -0.01788903
vn 0.2316716 0.9726295 -0.01788903
vn 0.4506354 0.8924731 -0.02048164
vn 0.4506354 0.8924731 -0.02048164
vt 0.4434341 0.6498361
vt 0.4434341 0.6476693
vt 0.3921502 0.6476693
vt 0.8613039 0.6498361
vt 0.8892117 0.6648352
vt 0.8892117 0.6498361
vt 0.8613039 0.6648352
vt 0.833396 0.6498361
vt 0.833396 0.6648352
vt 0.7775651 0.6498361
vt 0.7775651 0.6648352
vt 0.6666967 0.6498361
vt 0.6666967 0.6648352
vt 0.664942 0.6498361
vt 0.664942 0.6648352
vt 0.5578577 0.6498361
vt 0.5578577 0.6648352
vt 0.6293286 0.6933076
vt 0.5570337 0.6685277
vt 0.5570337 0.6933076
vt 0.6293286 0.6685277
vt 0.631358 0.6912629
vt 0.631358 0.6705571
vt 0.3921502 0.6941621
vt 0.3334659 0.6670629
vt 0.3334659 0.6941621
vt 0.3921502 0.6670629
vt 0.4434341 0.6941621
vt 0.4434341 0.6670629
vt 0.4445327 0.6941621
vt 0.4445327 0.6670629
vt 0.5554621 0.6941621
vt 0.5554621 0.6670629
vt 0.5578577 0.6941621
vt 0.5578577 0.6670629
vt 0.664942 0.6941621
vt 0.664942 0.6670629
vt 0.6666967 0.6941621
vt 0.6666967 0.6670629
vt 0.7775651 0.6941621
vt 0.7775651 0.6670629
vt 0.833396 0.6941621
vt 0.833396 0.6670629
vt 0.8613039 0.6941621
vt 0.8613039 0.6670629
vt 0.8892117 0.6941621
vt 0.8892117 0.6670629
vt 0.628291 0.6234694
vt 0.6303356 0.6462045
vt 0.6303356 0.6254987
vt 0.628291 0.6482339
vt 0.5560114 0.6234694
vt 0.5560114 0.6482339
vt 0.16579 0.6943299
vt 0.3313144 0.6673071
vt 0.3313144 0.6943299
vt 0.16579 0.6673071
vt 0.0002503395 0.6943299
vt 0.0002503395 0.6673071
vt 0.5002263 0.6943299
vt 0.6691533 0.6673071
vt 0.6691533 0.6943299
vt 0.5002263 0.6673071
vt 0.3313144 0.6943299
vt 0.3313144 0.6673071
vt 0.8346778 0.6943299
vt 1.000217 0.6673071
vt 1.000217 0.6943299
vt 0.8346778 0.6673071
vt 0.6691533 0.6943299
vt 0.6691533 0.6673071
vt 0.4633312 0.09265593
vt 0.0004944758 0.09265593
vt 0.0004944758 0.5549433
vt 0.4633312 0.5549433
vt 0.3921502 0.6498361
vt 0.3334659 0.6476693
vt 0.3334659 0.6498361
vt 0.3921502 0.6476693
vt 0.4434341 0.6498361
vt 0.3921502 0.6670629
vt 0.3334659 0.6648352
vt 0.3334659 0.6670629
vt 0.3921502 0.6648352
vt 0.4434341 0.6670629
vt 0.4434341 0.6648352
vt 0.3921502 0.6476693
vt 0.3334659 0.6228743
vt 0.3334659 0.6476693
vt 0.3921502 0.6228743
vt 0.4434341 0.6476693
vt 0.4434341 0.6228743
vt 0.4445327 0.6476693
vt 0.4445327 0.6228743
vt 0.5554621 0.6476693
vt 0.5554621 0.6228743
vt 0.5578577 0.6476693
vt 0.5578577 0.6228743
vt 0.664942 0.6476693
vt 0.664942 0.6228743
vt 0.6666967 0.6476693
vt 0.6666967 0.6228743
vt 0.7775651 0.6476693
vt 0.7775651 0.6228743
vt 0.833396 0.6476693
vt 0.833396 0.6228743
vt 0.8613039 0.6476693
vt 0.8613039 0.6228743
vt 0.8892117 0.6476693
vt 0.8892117 0.6228743
vt 0.4633312 0.09265593
vt 0.0004944758 0.09265593
vt 0.0004944758 0.5549433
vt 0.4633312 0.5549433
vt 0.4633312 0.09265593
vt 0.0004944758 0.09265593
vt 0.0004944758 0.5549433
vt 0.4633312 0.5549433
vt 0.4633312 0.09265593
vt 0.0004944758 0.09265593
vt 0.0004944758 0.5549433
vt 0.4633312 0.5549433
vt 0.3921502 0.6498361
vt 0.4434341 0.6648352
vt 0.4434341 0.6498361
vt 0.3921502 0.6648352
vt 0.3334659 0.6498361
vt 0.3334659 0.6648352
vt 0.4445327 0.6670629
vt 0.4434341 0.6648352
vt 0.4434341 0.6670629
vt 0.4445327 0.6648352
vt 0.5554621 0.6670629
vt 0.5554621 0.6648352
vt 0.5578577 0.6670629
vt 0.5578577 0.6648352
vt 0.4445327 0.6498361
vt 0.4434341 0.6476693
vt 0.4434341 0.6498361
vt 0.4445327 0.6476693
vt 0.5554621 0.6498361
vt 0.5554621 0.6476693
vt 0.5578577 0.6498361
vt 0.5578577 0.6476693
vt 0.4445327 0.6498361
vt 0.5554621 0.6648352
vt 0.5554621 0.6498361
vt 0.4445327 0.6648352
vt 0.4434341 0.6498361
vt 0.4434341 0.6648352
vt 0.664942 0.6670629
vt 0.5578577 0.6648352
vt 0.5578577 0.6670629
vt 0.664942 0.6648352
vt 0.6666967 0.6670629
vt 0.6666967 0.6648352
vt 0.7775651 0.6670629
vt 0.7775651 0.6648352
vt 0.833396 0.6670629
vt 0.833396 0.6648352
vt 0.8613039 0.6670629
vt 0.8613039 0.6648352
vt 0.8892117 0.6670629
vt 0.8892117 0.6648352
vt 0.664942 0.6498361
vt 0.5578577 0.6476693
vt 0.5578577 0.6498361
vt 0.664942 0.6476693
vt 0.6666967 0.6498361
vt 0.6666967 0.6476693
vt 0.7775651 0.6498361
vt 0.7775651 0.6476693
vt 0.833396 0.6498361
vt 0.833396 0.6476693
vt 0.8613039 0.6498361
vt 0.8613039 0.6476693
vt 0.8892117 0.6498361
vt 0.8892117 0.6476693
vt 0.5554621 0.6498361
vt 0.5554621 0.6648352
vt 0.5578577 0.6648352
vt 0.5578577 0.6498361
f 1/1/1 2/2/2 3/3/3
f 4/4/4 5/5/5 6/6/6
f 4/4/4 7/7/7 5/5/5
f 8/8/8 7/7/7 4/4/4
f 8/8/8 9/9/9 7/7/7
f 10/10/10 9/9/9 8/8/8
f 10/10/10 11/11/11 9/9/9
f 12/12/12 11/11/11 10/10/10
f 12/12/12 13/13/13 11/11/11
f 14/14/14 13/13/13 12/12/12
f 14/14/14 15/15/15 13/13/13
f 16/16/16 15/15/15 14/14/14
f 16/16/16 17/17/17 15/15/15
f 18/18/18 19/19/19 20/20/20
f 18/18/18 21/21/21 19/19/19
f 22/22/22 21/21/21 18/18/18
f 22/22/22 23/23/23 21/21/21
f 24/24/24 25/25/25 26/26/26
f 24/24/24 27/27/27 25/25/25
f 28/28/28 27/27/27 24/24/24
f 28/28/28 29/29/29 27/27/27
f 30/30/30 29/29/29 28/28/28
f 30/30/30 31/31/31 29/29/29
f 32/32/32 31/31/31 30/30/30
f 32/32/32 33/33/33 31/31/31
f 34/34/34 33/33/33 32/32/32
f 34/34/34 35/35/35 33/33/33
f 36/36/36 35/35/35 34/34/34
f 36/36/36 37/37/37 35/35/35
f 38/38/38 37/37/37 36/36/36
f 38/38/38 39/39/39 37/37/37
f 40/40/40 39/39/39 38/38/38
f 40/40/40 41/41/41 39/39/39
f 42/42/42 41/41/41 40/40/40
f 42/42/42 43/43/43 41/41/41
f 44/44/44 43/43/43 42/42/42
f 44/44/44 45/45/45 43/43/43
f 46/46/46 45/45/45 44/44/44
f 46/46/46 47/47/47 45/45/45
f 48/48/48 49/49/49 50/50/50
f 48/48/48 51/51/51 49/49/49
f 52/52/52 51/51/51 48/48/48
f 52/52/52 53/53/53 51/51/51
f 54/54/54 55/55/55 56/56/56
f 54/54/54 57/57/57 55/55/55
f 58/58/58 57/57/57 54/54/54
f 58/58/58 59/59/59 57/57/57
f 60/60/60 61/61/61 62/62/62
f 60/60/60 63/63/63 61/61/61
f 64/64/64 63/63/63 60/60/60
f 64/64/64 65/65/65 63/63/63
f 66/66/66 67/67/67 68/68/68
f 66/66/66 69/69/69 67/67/67
f 70/70/70 69/69/69 66/66/66
f 70/70/70 71/71/71 69/69/69
f 72/72/72 73/73/73 74/74/74
f 72/72/72 74/74/74 75/75/75
f 76/76/76 77/77/77 78/78/78
f 76/76/76 79/79/79 77/77/77
f 80/80/80 79/79/79 76/76/76
f 81/81/81 82/82/82 83/83/83
f 81/81/81 84/84/84 82/82/82
f 85/85/85 84/84/84 81/81/81
f 85/85/85 86/86/86 84/84/84
f 87/87/87 88/88/88 89/89/89
f 87/87/87 90/90/90 88/88/88
f 91/91/91 90/90/90 87/87/87
f 91/91/91 92/92/92 90/90/90
f 93/93/93 92/92/92 91/91/91
f 93/93/93 94/94/94 92/92/92
f 95/95/95 94/94/94 93/93/93
f 95/95/95 96/96/96 94/94/94
f 97/97/97 96/96/96 95/95/95
f 97/97/97 98/98/98 96/96/96
f 99/99/99 98/98/98 97/97/97
f 99/99/99 100/100/100 98/98/98
f 101/101/101 100/100/100 99/99/99
f 101/101/101 102/102/102 100/100/100
f 103/103/103 102/102/102 101/101/101
f 103/103/103 104/104/104 102/102/102
f 105/105/105 104/104/104 103/103/103
f 105/105/105 106/106/106 104/104/104
f 107/107/107 106/106/106 105/105/105
f 107/107/107 108/108/108 106/106/106
f 109/109/109 108/108/108 107/107/107
f 109/109/109 110/110/110 108/108/108
f 111/111/111 112/112/112 113/113/113
f 111/111/111 113/113/113 114/114/114
f 115/115/115 116/116/116 117/117/117
f 115/115/115 117/117/117 118/118/118
f 119/119/119 120/120/120 121/121/121
f 119/119/119 121/121/121 122/122/122
f 123/123/123 124/124/124 125/125/125
f 123/123/123 126/126/126 124/124/124
f 127/127/127 126/126/126 123/123/123
f 127/127/127 128/128/128 126/126/126
f 129/129/129 130/130/130 131/131/131
f 129/129/129 132/132/132 130/130/130
f 133/133/133 132/132/132 129/129/129
f 133/133/133 134/134/134 132/132/132
f 135/135/135 134/134/134 133/133/133
f 135/135/135 136/136/136 134/134/134
f 137/137/137 138/138/138 139/139/139
f 137/137/137 140/140/140 138/138/138
f 141/141/141 140/140/140 137/137/137
f 141/141/141 142/142/142 140/140/140
f 143/143/143 142/142/142 141/141/141
f 143/143/143 144/144/144 142/142/142
f 145/145/145 146/146/146 147/147/147
f 145/145/145 148/148/148 146/146/146
f 149/149/149 148/148/148 145/145/145
f 149/149/149 150/150/150 148/148/148
f 151/151/151 152/152/152 153/153/153
f 151/151/151 154/154/154 152/152/152
f 155/155/155 154/154/154 151/151/151
f 155/155/155 156/156/156 154/154/154
f 157/157/157 156/156/156 155/155/155
f 157/157/157 158/158/158 156/156/156
f 159/159/159 158/158/158 157/157/157
f 159/159/159 160/160/160 158/158/158
f 161/161/161 160/160/160 159/159/159
f 161/161/161 162/162/162 160/160/160
f 163/163/163 162/162/162 161/161/161
f 163/163/163 164/164/164 162/162/162
f 165/165/165 166/166/166 167/167/167
f 165/165/165 168/168/168 166/166/166
f 169/169/169 168/168/168 165/165/165
f 169/169/169 170/170/170 168/168/168
f 171/171/171 170/170/170 169/169/169
f 171/171/171 172/172/172 170/170/170
f 173/173/173 172/172/172 171/171/171
f 173/173/173 174/174/174 172/172/172
f 175/175/175 174/174/174 173/173/173
f 175/175/175 176/176/176 174/174/174
f 177/177/177 176/176/176 175/175/175
f 177/177/177 178/178/178 176/176/176
f 179/179/179 180/180/180 181/181/181
f 179/179/179 181/181/181 182/182/182
