v -2.227168 0.0130002 0.01069429
v -2.949006 0.0130002 -0.8544632
v -2.970106 0.0130002 0.01069429
v -2.227168 0.0130002 -0.8544632
v -2.120198 0.05608535 0.03927149
v -2.970106 0.0130002 -1.286928
v -2.120198 0.03165533 -0.8544632
v -1.932281 0.0130002 0.01069429
v -2.227168 0.0130002 -1.286928
v -2.970106 0.0130002 -1.780688
v -2.227168 0.0130002 -1.780688
v -2.120198 0.0130002 -1.286928
v -2.120198 0.0130002 -1.780688
v -2.002951 0.0130002 -0.8544632
v -1.484227 0.0130002 0.01069429
v -2.002951 0.0130002 -1.286928
v -2.002951 0.0130002 -1.780688
v -1.484227 0.0130002 -0.8544632
v -1.238916 0.0130002 0.01069429
v -1.484227 0.0130002 -1.286928
v -1.484227 0.0130002 -1.758726
v -1.238916 0.0130002 -0.8544632
v -1.144296 0.0130002 0.01069429
v -1.238916 0.0130002 -1.286928
v -1.279055 0.0130002 -1.758726
v -1.144296 0.02750237 -0.8544632
v -1.049678 0.0130002 0.01069429
v -1.144296 0.05051247 -1.286928
v -1.144296 0.05051247 -1.758726
v -1.049678 0.0130002 -0.8544632
v -0.7412885 0.0130002 0.01069429
v -1.049678 0.0130002 -1.286928
v -1.016821 0.0130002 -1.758726
v -0.7412885 0.0130002 -0.8544632
v -0.3332336 0.0130002 0.01069429
v -0.7412885 0.0130002 -1.286928
v -0.7412885 0.0130002 -1.758726
v -0.342463 0.0130002 -0.8544632
v 0.001652438 0.0130002 -0.02736055
v -0.01514987 0.0130002 -0.8544632
v -0.342463 0.0130002 -1.286928
v -0.3332336 0.0130002 -1.780688
v -0.01514987 0.0130002 -1.286928
v 0.001652438 0.0130002 -1.780688
vn -0.149602 0.9887463 0
vn -0.000144625 1 0
vn -0.000144625 1 0
vn -0.09116902 0.995505 -0.0256522
vn -0.03160985 0.9988762 -0.03531441
vn -0.000144625 1 0
vn -0.022614 0.9997442 0
vn 0.09870754 0.9951165 0
vn -0.02149106 0.999769 0
vn -0.000144625 1 0
vn -0.000144625 1 0
vn -0.002392134 0.9999971 0
vn -0.000144625 1 0
vn 0.07175215 0.9974224 0
vn -0.000144625 1 0
vn 0.02007897 0.9997985 0
vn -0.000144625 1 0
vn -0.000144625 1 0
vn -0.0383524 0.9988762 0.02784595
vn -0.000144625 1 0
vn -0.000144625 1 0
vn -0.08552511 0.996336 0
vn -0.000144625 1 0
vn -0.149602 0.9887463 0
vn -0.1484807 0.9887624 0.0173872
vn -0.000144625 1 0
vn 0.03806315 0.9988762 0.02824022
vn 0.002102887 0.9999979 0
vn 0.004350366 0.9999906 0
vn 0.08635318 0.9962646 0
vn -0.000144625 1 0
vn 0.1515156 0.9884549 0
vn 0.154934 0.9876387 0.02377709
vn -0.000144625 1 0
vn -0.000144625 1 0
vn -0.000144625 1 0
vn -0.000144625 1 0
vn -0.000144625 1 0
vn -0.000144625 1 0
vn -0.000144625 1 0
vn -0.000144625 1 0
vn -0.000144625 1 0
vn -0.000144625 1 0
vn -0.000144625 1 0
vt 0.698652 0.4713652
vt 0.7843218 0.5741447
vt 0.7843218 0.4713652
vt 0.698652 0.5741447
vt 0.6863118 0.4713652
vt 0.7843218 0.6255193
vt 0.6863118 0.5741447
vt 0.6728057 0.4713652
vt 0.698652 0.6255193
vt 0.7843218 0.684192
vt 0.698652 0.684192
vt 0.6863118 0.6255193
vt 0.6863118 0.684192
vt 0.6728057 0.5741447
vt 0.6129823 0.4713652
vt 0.6728057 0.6255193
vt 0.6728057 0.684192
vt 0.6129823 0.5741447
vt 0.5846982 0.4713652
vt 0.6129823 0.6255193
vt 0.6129823 0.684192
vt 0.5846982 0.5741447
vt 0.5737813 0.4713652
vt 0.5846982 0.6255193
vt 0.5846982 0.684192
vt 0.5737813 0.5741447
vt 0.5628795 0.4713652
vt 0.5737813 0.6255193
vt 0.5737813 0.684192
vt 0.5628795 0.5741447
vt 0.5273125 0.4713652
vt 0.5628795 0.6255193
vt 0.5628795 0.684192
vt 0.5273125 0.5741447
vt 0.4802683 0.4713652
vt 0.5273125 0.6255193
vt 0.5273125 0.684192
vt 0.4802683 0.5741447
vt 0.4416427 0.4713652
vt 0.4416427 0.5741447
vt 0.4802683 0.6255193
vt 0.4802683 0.684192
vt 0.4416427 0.6255193
vt 0.4416427 0.684192
f 1/1/1 2/2/2 3/3/3
f 1/1/1 4/4/4 2/2/2
f 5/5/5 4/4/4 1/1/1
f 4/4/4 6/6/6 2/2/2
f 5/5/5 7/7/7 4/4/4
f 8/8/8 7/7/7 5/5/5
f 4/4/4 9/9/9 6/6/6
f 7/7/7 9/9/9 4/4/4
f 9/9/9 10/10/10 6/6/6
f 9/9/9 11/11/11 10/10/10
f 12/12/12 11/11/11 9/9/9
f 7/7/7 12/12/12 9/9/9
f 12/12/12 13/13/13 11/11/11
f 8/8/8 14/14/14 7/7/7
f 14/14/14 12/12/12 7/7/7
f 15/15/15 14/14/14 8/8/8
f 16/16/16 13/13/13 12/12/12
f 14/14/14 16/16/16 12/12/12
f 16/16/16 17/17/17 13/13/13
f 15/15/15 18/18/18 14/14/14
f 18/18/18 16/16/16 14/14/14
f 19/19/19 18/18/18 15/15/15
f 20/20/20 17/17/17 16/16/16
f 18/18/18 20/20/20 16/16/16
f 20/20/20 21/21/21 17/17/17
f 19/19/19 22/22/22 18/18/18
f 22/22/22 20/20/20 18/18/18
f 23/23/23 22/22/22 19/19/19
f 24/24/24 21/21/21 20/20/20
f 22/22/22 24/24/24 20/20/20
f 24/24/24 25/25/25 21/21/21
f 23/23/23 26/26/26 22/22/22
f 26/26/26 24/24/24 22/22/22
f 27/27/27 26/26/26 23/23/23
f 28/28/28 25/25/25 24/24/24
f 26/26/26 28/28/28 24/24/24
f 28/28/28 29/29/29 25/25/25
f 27/27/27 30/30/30 26/26/26
f 30/30/30 28/28/28 26/26/26
f 31/31/31 30/30/30 27/27/27
f 32/32/32 29/29/29 28/28/28
f 30/30/30 32/32/32 28/28/28
f 32/32/32 33/33/33 29/29/29
f 31/31/31 34/34/34 30/30/30
f 34/34/34 32/32/32 30/30/30
f 35/35/35 34/34/34 31/31/31
f 36/36/36 33/33/33 32/32/32
f 34/34/34 36/36/36 32/32/32
f 36/36/36 37/37/37 33/33/33
f 35/35/35 38/38/38 34/34/34
f 38/38/38 36/36/36 34/34/34
f 39/39/39 38/38/38 35/35/35
f 39/39/39 40/40/40 38/38/38
f 41/41/41 37/37/37 36/36/36
f 38/38/38 41/41/41 36/36/36
f 40/40/40 41/41/41 38/38/38
f 41/41/41 42/42/42 37/37/37
f 40/40/40 43/43/43 41/41/41
f 43/43/43 42/42/42 41/41/41
f 43/43/43 44/44/44 42/42/42
