v -0.7368381 0.06052016 -1.61834
v 0.03121647 0.01300129 -0.7927443
v 0.002785139 0.01299839 -1.593737
v -0.7368381 0.06052016 -0.7927443
v 0.002785139 0.01300129 0.008251143
v -1.476464 0.01299839 -1.61834
v -0.7368381 0.01300129 0.008251143
v -1.476464 0.01300129 -0.7927443
v -1.973955 0.01299839 -1.593737
v -1.476464 0.01300129 0.008251143
v -1.973955 0.01300129 -0.7927443
v -2.095024 0.01299839 -1.593737
v -1.973955 0.01300129 0.02933844
v -2.095024 0.01300129 -0.7927443
v -2.21609 0.01299839 -1.593737
v -2.095024 0.06306767 0.02933844
v -2.21609 0.01300129 -0.7927443
v -2.955714 0.01299839 -1.593737
v -2.21609 0.01300129 0.02933844
v -2.975911 0.01300129 -0.7927443
v -2.955714 0.01300129 0.008251143
vn -0.001344472 0.9999992 0
vn 0.0471582 0.9988875 0
vn 0.06332794 0.9978443 -0.01721494
vn -0.0002666 1 0
vn 0.03099173 0.9989221 0.0345569
vn -0.03258549 0.999469 0
vn -0.0002666 1 0
vn -0.02397292 0.9997125 0
vn -0.0002666 1 0
vn -0.01535502 0.9998821 0
vn 0.05038376 0.9987299 0
vn -0.0002666 1 0
vn 0.1032093 0.9946107 -0.009874878
vn -0.0002666 1 0
vn -0.0002666 1 0
vn -0.0002666 1 0
vn -0.05091548 0.9987029 0
vn -0.0002666 1 0
vn -0.1026646 0.9946107 -0.01447859
vn -0.0002666 1 0
vn -0.0002666 1 0
vt 0.1104174 0.6841803
vt 0 0.5696588
vt 0 0.6841803
vt 0.1104174 0.5696588
vt 0 0.4551524
vt 0.2208195 0.6841803
vt 0.1104174 0.4551524
vt 0.2208195 0.5696588
vt 0.2950898 0.6841803
vt 0.2208195 0.4551524
vt 0.2950898 0.5696588
vt 0.3131633 0.6841803
vt 0.2950898 0.4551524
vt 0.3131633 0.5696588
vt 0.3312369 0.6841803
vt 0.3131633 0.4551524
vt 0.3312369 0.5696588
vt 0.4416543 0.6841803
vt 0.3312369 0.4551524
vt 0.4416543 0.5696588
vt 0.4416543 0.4551524
f 1/1/1 2/2/2 3/3/3
f 1/1/1 4/4/4 2/2/2
f 4/4/4 5/5/5 2/2/2
f 6/6/6 4/4/4 1/1/1
f 4/4/4 7/7/7 5/5/5
f 6/6/6 8/8/8 4/4/4
f 8/8/8 7/7/7 4/4/4
f 9/9/9 8/8/8 6/6/6
f 8/8/8 10/10/10 7/7/7
f 9/9/9 11/11/11 8/8/8
f 11/11/11 10/10/10 8/8/8
f 12/12/12 11/11/11 9/9/9
f 11/11/11 13/13/13 10/10/10
f 12/12/12 14/14/14 11/11/11
f 14/14/14 13/13/13 11/11/11
f 15/15/15 14/14/14 12/12/12
f 14/14/14 16/16/16 13/13/13
f 15/15/15 17/17/17 14/14/14
f 17/17/17 16/16/16 14/14/14
f 18/18/18 17/17/17 15/15/15
f 17/17/17 19/19/19 16/16/16
f 18/18/18 20/20/20 17/17/17
f 20/20/20 19/19/19 17/17/17
f 20/20/20 21/21/21 19/19/19
