v -0.7325717 1.234799 0.01846377
v -0.6847501 1.195502 0.02660213
v 0.02803616 1.195502 0.02660213
v -0.7325717 1.234799 0.01846377
v 0.07585771 1.234799 0.01846377
v 0.103855 -0.1083276 -0.03190824
v 0.07585771 -0.08532154 0.01846569
v -0.7325717 -0.08532154 0.01846569
v -0.7605689 -0.1083276 -0.03190824
v 0.01995747 1.188866 3.852969E-07
v 0.01995747 -0.03939022 3.852969E-07
v 0.02803616 -0.04602718 0.02660213
v 0.02803616 1.195502 0.02660213
v -0.6766734 -0.03939022 3.852969E-07
v -0.6766734 1.188866 3.852969E-07
v -0.6847501 1.195502 0.02660213
v -0.6847501 -0.04602718 0.02660213
v -0.6847501 -0.04602718 0.02660213
v 0.02803616 -0.04602718 0.02660213
v 0.01995747 -0.03939022 3.852969E-07
v -0.6766734 -0.03939022 3.852969E-07
v -0.7325717 -0.08532154 0.01846569
v -0.7325717 1.234799 0.01846377
v -0.7605689 1.257805 -0.03190824
v -0.7605689 -0.1083276 -0.03190824
v 0.07585771 1.234799 0.01846377
v 0.07585771 -0.08532154 0.01846569
v 0.103855 -0.1083276 -0.03190824
v 0.103855 1.257805 -0.03190824
v -0.7605689 1.257805 -0.03190824
v -0.7325717 1.234799 0.01846377
v 0.07585771 1.234799 0.01846377
v 0.103855 1.257805 -0.03190824
v -0.6847501 -0.04602718 0.02660213
v -0.6847501 1.195502 0.02660213
v -0.7325717 1.234799 0.01846377
v -0.7325717 -0.08532154 0.01846569
v 0.02803616 1.195502 0.02660213
v 0.02803616 -0.04602718 0.02660213
v 0.07585771 -0.08532154 0.01846569
v 0.07585771 1.234799 0.01846377
v 0.02803616 1.195502 0.02660213
v -0.6847501 1.195502 0.02660213
v -0.6766734 1.188866 3.852969E-07
v 0.01995747 1.188866 3.852969E-07
v 0.103855 1.257805 -0.03190824
v 0.103855 -0.1083276 -0.03190824
v -0.7605689 -0.1083276 -0.03190824
v -0.7605689 1.257805 -0.03190824
v 0.07585771 -0.08532154 0.01846569
v 0.02803616 -0.04602718 0.02660213
v -0.6847501 -0.04602718 0.02660213
v -0.7325717 -0.08532154 0.01846569
v 0.01995747 1.188866 3.852969E-07
v -0.6766734 1.188866 3.852969E-07
v -0.6766734 -0.03939022 3.852969E-07
v 0.01995747 -0.03939022 3.852969E-07
vn 0.0009484431 0.7938469 0.6081169
vn 0.0009484431 -0.2684094 0.9633045
vn 0.0009484431 -0.2684094 0.9633045
vn 0.0009484431 0.7938469 0.6081169
vn 0.0009484431 0.7938469 0.6081169
vn 0.0009484431 -0.909557 0.4155781
vn 0.0009484431 -0.7938469 0.6081169
vn 0.0009484431 -0.7938469 0.6081169
vn 0.0009484431 -0.909557 0.4155781
vn -0.9569792 0.0009484431 0.2901551
vn -0.9569792 0.0009484431 0.2901551
vn -0.3272129 0.0009484431 0.9449502
vn -0.3272129 0.0009484431 0.9449502
vn 0.9569792 0.0009484431 0.2901551
vn 0.9569792 0.0009484431 0.2901551
vn 0.3272129 0.0009484431 0.9449502
vn 0.3272129 0.0009484431 0.9449502
vn 0.0009484431 0.2684094 0.9633045
vn 0.0009484431 0.2684094 0.9633045
vn 0.0009484431 0.9702573 0.2420739
vn 0.0009484431 0.9702573 0.2420739
vn -0.7122808 0.0009484431 0.701894
vn -0.7122808 0.0009484431 0.701894
vn -0.8735161 0.0009484431 0.4867942
vn -0.8735161 0.0009484431 0.4867942
vn 0.7122808 0.0009484431 0.701894
vn 0.7122808 0.0009484431 0.701894
vn 0.8735161 0.0009484431 0.4867942
vn 0.8735161 0.0009484431 0.4867942
vn 0.0009484431 0.909557 0.4155781
vn 0.0009484431 0.7938469 0.6081169
vn 0.0009484431 0.7938469 0.6081169
vn 0.0009484431 0.909557 0.4155781
vn 0.3272129 0.0009484431 0.9449502
vn 0.3272129 0.0009484431 0.9449502
vn -0.7122808 0.0009484431 0.701894
vn -0.7122808 0.0009484431 0.701894
vn -0.3272129 0.0009484431 0.9449502
vn -0.3272129 0.0009484431 0.9449502
vn 0.7122808 0.0009484431 0.701894
vn 0.7122808 0.0009484431 0.701894
vn 0.0009484431 -0.2684094 0.9633045
vn 0.0009484431 -0.2684094 0.9633045
vn 0.0009484431 -0.9702573 0.2420739
vn 0.0009484431 -0.9702573 0.2420739
vn 0.0009484431 0.0009484431 -0.9999991
vn 0.0009484431 0.0009484431 -0.9999991
vn 0.0009484431 0.0009484431 -0.9999991
vn 0.0009484431 0.0009484431 -0.9999991
vn 0.0009484431 -0.7938469 0.6081169
vn 0.0009484431 0.2684094 0.9633045
vn 0.0009484431 0.2684094 0.9633045
vn 0.0009484431 -0.7938469 0.6081169
vn 0.0009484431 0.0009484431 0.9999991
vn 0.0009484431 0.0009484431 0.9999991
vn 0.0009484431 0.0009484431 0.9999991
vn 0.0009484431 0.0009484431 0.9999991
vt 0.9107704 0.9850604
vt 0.9248782 0.9706641
vt 0.9248782 0.4945972
vt 0.9107704 0.9850604
vt 0.9107704 0.4811576
vt 0.9025244 0.9919701
vt 0.9107704 0.9840885
vt 0.9107704 0.4811576
vt 0.9025244 0.4732912
vt 0.9272472 0.9745213
vt 0.9272472 0.6258197
vt 0.9248478 0.6241341
vt 0.9248478 0.976207
vt 0.9272472 0.6258197
vt 0.9272472 0.9745213
vt 0.9248478 0.976207
vt 0.9248478 0.6241341
vt 0.9248782 0.4945972
vt 0.9248782 0.9706641
vt 0.9272624 0.9683862
vt 0.9272624 0.4968751
vt 0.9106641 0.6142024
vt 0.9107704 0.9850604
vt 0.9025244 0.9919701
vt 0.9023421 0.6083862
vt 0.9106641 0.9861386
vt 0.9106641 0.6142024
vt 0.9023421 0.6083862
vt 0.9023421 0.9919701
vt 0.9025244 0.9919701
vt 0.9107704 0.9850604
vt 0.9107704 0.4811576
vt 0.9025244 0.4732912
vt 0.9248478 0.6241341
vt 0.9248478 0.976207
vt 0.9107704 0.9850604
vt 0.9106641 0.6142024
vt 0.9248478 0.976207
vt 0.9248478 0.6241341
vt 0.9106641 0.6142024
vt 0.9106641 0.9861386
vt 0.9248782 0.4945972
vt 0.9248782 0.9706641
vt 0.9272624 0.9683862
vt 0.9272624 0.4968751
vt 0.3579381 0.02282804
vt 0.3579381 0.1773459
vt 0.5668827 0.1773459
vt 0.5668827 0.02282804
vt 0.9107704 0.9840885
vt 0.9248782 0.9706641
vt 0.9248782 0.4945972
vt 0.9107704 0.4811576
vt 0.8543239 0.4547339
vt 0.9991227 0.4547339
vt 0.9991227 0.2248174
vt 0.8543239 0.2248174
f 1/1/1 2/2/2 3/3/3
f 4/4/4 3/3/3 5/5/5
f 6/6/6 7/7/7 8/8/8
f 6/6/6 8/8/8 9/9/9
f 10/10/10 11/11/11 12/12/12
f 10/10/10 12/12/12 13/13/13
f 14/14/14 15/15/15 16/16/16
f 14/14/14 16/16/16 17/17/17
f 18/18/18 19/19/19 20/20/20
f 18/18/18 20/20/20 21/21/21
f 22/22/22 23/23/23 24/24/24
f 22/22/22 24/24/24 25/25/25
f 26/26/26 27/27/27 28/28/28
f 26/26/26 28/28/28 29/29/29
f 30/30/30 31/31/31 32/32/32
f 30/30/30 32/32/32 33/33/33
f 34/34/34 35/35/35 36/36/36
f 34/34/34 36/36/36 37/37/37
f 38/38/38 39/39/39 40/40/40
f 38/38/38 40/40/40 41/41/41
f 42/42/42 43/43/43 44/44/44
f 42/42/42 44/44/44 45/45/45
f 46/46/46 47/47/47 48/48/48
f 46/46/46 48/48/48 49/49/49
f 50/50/50 51/51/51 52/52/52
f 50/50/50 52/52/52 53/53/53
f 54/54/54 55/55/55 56/56/56
f 54/54/54 56/56/56 57/57/57
