v -1.464834 1.166362 0.01420382
v -1.423964 1.136136 0.02046418
v 0.02396142 1.136136 0.02046418
v -1.464834 1.166362 0.01420382
v 0.06483474 1.166362 0.01420382
v 0.08876482 -0.08332882 -0.02454363
v 0.06483474 -0.06563362 0.01420382
v -1.464834 -0.06563362 0.01420382
v -1.488764 -0.08332882 -0.02454363
v 0.01705871 1.131031 7.56788E-07
v 0.01705871 -0.03029929 7.56788E-07
v 0.02396142 -0.03540495 0.02046418
v 0.02396142 1.136136 0.02046418
v -1.417058 -0.03029929 7.56788E-07
v -1.417058 1.131031 7.56788E-07
v -1.423964 1.136136 0.02046418
v -1.423964 -0.03540495 0.02046418
v -1.423964 -0.03540495 0.02046418
v 0.02396142 -0.03540495 0.02046418
v 0.01705871 -0.03029929 7.56788E-07
v -1.417058 -0.03029929 7.56788E-07
v -1.464834 -0.06563362 0.01420382
v -1.464834 1.166362 0.01420382
v -1.488764 1.18406 -0.02454618
v -1.488764 -0.08332882 -0.02454363
v 0.06483474 1.166362 0.01420382
v 0.06483474 -0.06563362 0.01420382
v 0.08876482 -0.08332882 -0.02454363
v 0.08876482 1.18406 -0.02454618
v -1.488764 1.18406 -0.02454618
v -1.464834 1.166362 0.01420382
v 0.06483474 1.166362 0.01420382
v 0.08876482 1.18406 -0.02454618
v -1.423964 -0.03540495 0.02046418
v -1.423964 1.136136 0.02046418
v -1.464834 1.166362 0.01420382
v -1.464834 -0.06563362 0.01420382
v 0.02396142 1.136136 0.02046418
v 0.02396142 -0.03540495 0.02046418
v 0.06483474 -0.06563362 0.01420382
v 0.06483474 1.166362 0.01420382
v 0.02396142 1.136136 0.02046418
v -1.423964 1.136136 0.02046418
v -1.417058 1.131031 7.56788E-07
v 0.01705871 1.131031 7.56788E-07
v 0.08876482 1.18406 -0.02454618
v 0.08876482 -0.08332882 -0.02454363
v -1.488764 -0.08332882 -0.02454363
v -1.488764 1.18406 -0.02454618
v 0.06483474 -0.06563362 0.01420382
v 0.02396142 -0.03540495 0.02046418
v -1.423964 -0.03540495 0.02046418
v -1.464834 -0.06563362 0.01420382
v 0.01705871 1.131031 7.56788E-07
v -1.417058 1.131031 7.56788E-07
v -1.417058 -0.03029929 7.56788E-07
v 0.01705871 -0.03029929 7.56788E-07
vn 0.0009484431 0.8033314 0.5955315
vn 0.0009484431 -0.2513374 0.9678991
vn 0.0009484431 -0.2513374 0.9678991
vn 0.0009484431 0.8033314 0.5955315
vn 0.0009484431 0.8033314 0.5955315
vn 0.0009484431 -0.909557 0.4155781
vn 0.0009484431 -0.8033314 0.5955315
vn 0.0009484431 -0.8033314 0.5955315
vn 0.0009484431 -0.909557 0.4155781
vn -0.9474947 0.0009484431 0.3197701
vn -0.9474947 0.0009484431 0.3197701
vn -0.3385942 0.0009484431 0.940932
vn -0.3385942 0.0009484431 0.940932
vn 0.9474947 0.0009484431 0.3197701
vn 0.9474947 0.0009484431 0.3197701
vn 0.3385942 0.0009484431 0.940932
vn 0.3385942 0.0009484431 0.940932
vn 0.0009484431 0.2513374 0.9678991
vn 0.0009484431 0.2513374 0.9678991
vn 0.0009484431 0.9702573 0.2420739
vn 0.0009484431 0.9702573 0.2420739
vn -0.6781368 0.0009484431 0.734935
vn -0.6781368 0.0009484431 0.734935
vn -0.8507535 0.0009484431 0.5255641
vn -0.8507535 0.0009484431 0.5255641
vn 0.6781368 0.0009484431 0.734935
vn 0.6781368 0.0009484431 0.734935
vn 0.8507535 0.0009484431 0.5255641
vn 0.8507535 0.0009484431 0.5255641
vn 0.0009484431 0.909557 0.4155781
vn 0.0009484431 0.8033314 0.5955315
vn 0.0009484431 0.8033314 0.5955315
vn 0.0009484431 0.909557 0.4155781
vn 0.3385942 0.0009484431 0.940932
vn 0.3385942 0.0009484431 0.940932
vn -0.6781368 0.0009484431 0.734935
vn -0.6781368 0.0009484431 0.734935
vn -0.3385942 0.0009484431 0.940932
vn -0.3385942 0.0009484431 0.940932
vn 0.6781368 0.0009484431 0.734935
vn 0.6781368 0.0009484431 0.734935
vn 0.0009484431 -0.2513374 0.9678991
vn 0.0009484431 -0.2513374 0.9678991
vn 0.0009484431 -0.9702573 0.2420739
vn 0.0009484431 -0.9702573 0.2420739
vn 0.0009484431 0.0009484431 -0.9999991
vn 0.0009484431 0.0009484431 -0.9999991
vn 0.0009484431 0.0009484431 -0.9999991
vn 0.0009484431 0.0009484431 -0.9999991
vn 0.0009484431 -0.8033314 0.5955315
vn 0.0009484431 0.2513374 0.9678991
vn 0.0009484431 0.2513374 0.9678991
vn 0.0009484431 -0.8033314 0.5955315
vn 0.0009484431 0.0009484431 0.9999991
vn 0.0009484431 0.0009484431 0.9999991
vn 0.0009484431 0.0009484431 0.9999991
vn 0.0009484431 0.0009484431 0.9999991
vt 0.9804862 0.9850674
vt 0.9955193 0.9706562
vt 0.9955193 0.4946006
vt 0.9804862 0.9850674
vt 0.9804862 0.4811602
vt 0.9716877 0.9919696
vt 0.9804862 0.9840965
vt 0.9804862 0.4811602
vt 0.9716877 0.4733023
vt 0.9980375 0.9745244
vt 0.9980375 0.6258185
vt 0.995489 0.6241347
vt 0.995489 0.9762083
vt 0.9980375 0.6258185
vt 0.9980375 0.9745244
vt 0.995489 0.9762083
vt 0.995489 0.6241347
vt 0.9955193 0.4946006
vt 0.9955193 0.9706562
vt 0.9980527 0.9683807
vt 0.9980527 0.4968761
vt 0.9803648 0.6141985
vt 0.9804862 0.9850674
vt 0.9716877 0.9919696
vt 0.9715057 0.6083885
vt 0.9803648 0.9861444
vt 0.9803648 0.6141985
vt 0.9715057 0.6083885
vt 0.9715057 0.9919696
vt 0.9716877 0.9919696
vt 0.9804862 0.9850674
vt 0.9804862 0.4811602
vt 0.9716877 0.4733023
vt 0.995489 0.6241347
vt 0.995489 0.9762083
vt 0.9804862 0.9850674
vt 0.9803648 0.6141985
vt 0.995489 0.9762083
vt 0.995489 0.6241347
vt 0.9803648 0.6141985
vt 0.9803648 0.9861444
vt 0.9955193 0.4946006
vt 0.9955193 0.9706562
vt 0.9980527 0.9683807
vt 0.9980527 0.4968761
vt 0.3579367 0.02282287
vt 0.3579367 0.1773414
vt 0.5668842 0.1773414
vt 0.5668842 0.02282287
vt 0.9804862 0.9840965
vt 0.9955193 0.9706562
vt 0.9955193 0.4946006
vt 0.9804862 0.4811602
vt 0.3508525 0.4478476
vt 0.6733452 0.4478476
vt 0.6733452 0.1935882
vt 0.3508525 0.1935882
f 1/1/1 2/2/2 3/3/3
f 4/4/4 3/3/3 5/5/5
f 6/6/6 7/7/7 8/8/8
f 6/6/6 8/8/8 9/9/9
f 10/10/10 11/11/11 12/12/12
f 10/10/10 12/12/12 13/13/13
f 14/14/14 15/15/15 16/16/16
f 14/14/14 16/16/16 17/17/17
f 18/18/18 19/19/19 20/20/20
f 18/18/18 20/20/20 21/21/21
f 22/22/22 23/23/23 24/24/24
f 22/22/22 24/24/24 25/25/25
f 26/26/26 27/27/27 28/28/28
f 26/26/26 28/28/28 29/29/29
f 30/30/30 31/31/31 32/32/32
f 30/30/30 32/32/32 33/33/33
f 34/34/34 35/35/35 36/36/36
f 34/34/34 36/36/36 37/37/37
f 38/38/38 39/39/39 40/40/40
f 38/38/38 40/40/40 41/41/41
f 42/42/42 43/43/43 44/44/44
f 42/42/42 44/44/44 45/45/45
f 46/46/46 47/47/47 48/48/48
f 46/46/46 48/48/48 49/49/49
f 50/50/50 51/51/51 52/52/52
f 50/50/50 52/52/52 53/53/53
f 54/54/54 55/55/55 56/56/56
f 54/54/54 56/56/56 57/57/57
