v -6.196749 0.7334588 2.45352
v -6.196749 0.6030512 2.45352
v -0.4429815 0.6030512 2.45352
v -0.4429815 0.7334588 2.45352
v -6.196749 0.7530558 2.433923
v -0.4429815 0.7530558 2.433923
v -6.196749 0.7530558 2.433923
v -0.4429815 0.7530558 2.433923
v -0.4429815 0.7530558 2.203516
v -6.196749 0.7530558 2.203516
v -6.196749 0.4530569 3.083915
v -0.4429815 0.4530569 3.083915
v -0.4429815 0.4530569 2.753519
v -6.196749 0.4530569 2.753519
v -6.196749 0.6030512 2.733922
v -0.4429815 0.6030512 2.45352
v -6.196749 0.6030512 2.45352
v -0.4429815 0.6030512 2.733922
v -0.4429815 0.5834543 2.753519
v -6.196749 0.5834543 2.753519
v -6.196749 0.2834554 3.40344
v -6.196749 0.153058 3.402938
v -0.4429815 0.153058 3.402938
v -0.4429815 0.2834554 3.40344
v -6.196749 0.153058 3.633919
v -0.4429815 0.153058 3.633919
v -0.4429815 0.153058 3.402938
v -6.196749 0.153058 3.402938
v -6.196749 0.3030523 3.383914
v -0.4429815 0.3030523 3.097202
v -6.196749 0.3030523 3.097202
v -0.4429815 0.3030523 3.383914
v -0.4429815 0.2834554 3.40344
v -6.196749 0.2834554 3.40344
v -6.196749 0.4334702 3.102694
v -6.196749 0.3030523 3.097202
v -0.4429815 0.3030523 3.097202
v -0.4429815 0.4334702 3.102694
v -6.196749 0.4530569 3.083915
v -0.4429815 0.4530569 3.083915
v -6.196749 0.1334509 3.653515
v -6.196749 0.003053467 3.653515
v -0.4429815 0.003053467 3.653515
v -0.4429815 0.1334509 3.653515
v -6.196749 0.153058 3.633919
v -0.4429815 0.153058 3.633919
v -6.196749 0.8834531 2.203516
v -6.196749 0.7530558 2.203516
v -0.4429815 0.7530558 2.203516
v -0.4429815 0.8834531 2.203516
v -6.196749 0.9030501 2.183919
v -0.4429815 0.9030501 2.183919
v -6.196749 0.5834543 2.753519
v -6.196749 0.4530569 2.753519
v -0.4429815 0.4530569 2.753519
v -0.4429815 0.5834543 2.753519
v -6.196749 0.9030501 2.183919
v -0.4429815 0.9030501 2.183919
v -0.4429815 0.9030501 1.897881
v -6.196749 0.9030501 1.897881
v -0.6000025 -4.718848E-06 -4.718848E-06
v -0.6000025 1.100001 -4.718848E-06
v 5.5092E-06 1.100001 -4.718848E-06
v 5.5092E-06 -4.718848E-06 -4.718848E-06
v -6.6 1.100001 -4.718848E-06
v -6.6 -4.718848E-06 -4.718848E-06
v -6.6 -4.718848E-06 1.999998
v -6.6 1.100001 1.999998
v -6.6 -4.718848E-06 3.900001
v -6.6 0.2000048 3.900001
v -6.000003 1.100001 -4.718848E-06
v -6.000003 -4.718848E-06 1.999998
v -6.000003 -4.718848E-06 -4.718848E-06
v -6.000003 1.100001 1.999998
v -6.000003 -4.718848E-06 3.900001
v -6.000003 0.2000048 3.900001
v -6.6 -4.718848E-06 3.900001
v -6.000003 -4.718848E-06 1.999998
v -6.000003 -4.718848E-06 3.900001
v -6.6 -4.718848E-06 1.999998
v -6.000003 -4.718848E-06 -4.718848E-06
v -6.6 -4.718848E-06 -4.718848E-06
v -6.6 0.2000048 3.900001
v -6.6 -4.718848E-06 3.900001
v -6.000003 -4.718848E-06 3.900001
v -6.000003 0.2000048 3.900001
v -6.6 -4.718848E-06 -4.718848E-06
v -6.6 1.100001 -4.718848E-06
v -6.000003 1.100001 -4.718848E-06
v -6.000003 -4.718848E-06 -4.718848E-06
v -5.97566 0.2000048 4.1
v -5.97566 0.03221363 4.018268
v -5.97566 1.018136 1.958063
v -5.97566 1.200001 1.999998
v -5.97566 1.01336 -0.0106112
v -5.97566 1.200001 -0.0106112
v -6.624875 1.200001 1.999998
v -6.624875 0.2000048 4.1
v -5.97566 0.2000048 4.1
v -5.97566 1.200001 1.999998
v -6.624875 1.200001 -0.0106112
v -5.97566 1.200001 -0.0106112
v -6.624875 1.018136 1.958063
v -6.624875 1.01336 -0.0106112
v -5.97566 1.01336 -0.0106112
v -5.97566 1.018136 1.958063
v -6.624875 0.03221363 4.018268
v -5.97566 0.03221363 4.018268
v -6.624875 1.200001 -0.0106112
v -6.624875 1.01336 -0.0106112
v -6.624875 1.018136 1.958063
v -6.624875 1.200001 1.999998
v -6.624875 0.03221363 4.018268
v -6.624875 0.2000048 4.1
v -6.624875 0.2000048 4.1
v -6.624875 0.03221363 4.018268
v -5.97566 0.03221363 4.018268
v -5.97566 0.2000048 4.1
v -5.97566 1.200001 -0.0106112
v -5.97566 1.01336 -0.0106112
v -6.624875 1.01336 -0.0106112
v -6.624875 1.200001 -0.0106112
v -6.196749 1.000544 0.01833417
v -0.4429815 1.000544 0.01833417
v -0.4429815 -0.002132153 0.01833417
v -6.196749 -0.002132153 0.01833417
v -0.6000025 1.100001 -4.718848E-06
v -0.6000025 -4.718848E-06 -4.718848E-06
v -0.6000025 -4.718848E-06 1.999998
v -0.6000025 1.100001 1.999998
v -0.6000025 -4.718848E-06 3.900001
v -0.6000025 0.2000048 3.900001
v 5.5092E-06 1.100001 -4.718848E-06
v 5.5092E-06 -4.718848E-06 1.999998
v 5.5092E-06 -4.718848E-06 -4.718848E-06
v 5.5092E-06 1.100001 1.999998
v 5.5092E-06 -4.718848E-06 3.900001
v 5.5092E-06 0.2000048 3.900001
v -0.6000025 -4.718848E-06 3.900001
v 5.5092E-06 -4.718848E-06 1.999998
v 5.5092E-06 -4.718848E-06 3.900001
v -0.6000025 -4.718848E-06 1.999998
v 5.5092E-06 -4.718848E-06 -4.718848E-06
v -0.6000025 -4.718848E-06 -4.718848E-06
v -0.6000025 0.2000048 3.900001
v -0.6000025 -4.718848E-06 3.900001
v 5.5092E-06 -4.718848E-06 3.900001
v 5.5092E-06 0.2000048 3.900001
v 0.02433803 0.2000048 4.1
v 0.02433803 0.03221363 4.018268
v 0.02433803 1.018136 1.958063
v 0.02433803 1.200001 1.999998
v 0.02433803 1.01336 -0.0106112
v 0.02433803 1.200001 -0.0106112
v -0.6248771 1.200001 1.999998
v -0.6248771 0.2000048 4.1
v 0.02433803 0.2000048 4.1
v 0.02433803 1.200001 1.999998
v -0.6248771 1.200001 -0.0106112
v 0.02433803 1.200001 -0.0106112
v -0.6248771 1.018136 1.958063
v -0.6248771 1.01336 -0.0106112
v 0.02433803 1.01336 -0.0106112
v 0.02433803 1.018136 1.958063
v -0.6248771 0.03221363 4.018268
v 0.02433803 0.03221363 4.018268
v -0.6248771 1.200001 -0.0106112
v -0.6248771 1.01336 -0.0106112
v -0.6248771 1.018136 1.958063
v -0.6248771 1.200001 1.999998
v -0.6248771 0.03221363 4.018268
v -0.6248771 0.2000048 4.1
v -0.6248771 0.2000048 4.1
v -0.6248771 0.03221363 4.018268
v 0.02433803 0.03221363 4.018268
v 0.02433803 0.2000048 4.1
v 0.02433803 1.200001 -0.0106112
v 0.02433803 1.01336 -0.0106112
v -0.6248771 1.01336 -0.0106112
v -0.6248771 1.200001 -0.0106112
v -6.196749 1.000544 1.692461
v -0.4429815 1.000544 1.692461
v -0.4429815 1.000544 0.01833417
v -6.196749 1.000544 0.01833417
v -6.196749 1.000544 1.692461
v -6.196749 1.000544 1.978488
v -0.4429815 1.000544 1.978488
v -0.4429815 1.000544 1.692461
v -6.196749 0.9809469 1.998096
v -6.196749 0.8505393 1.998096
v -0.4429815 0.8505393 1.998096
v -0.4429815 0.9809469 1.998096
v -6.196749 1.000544 1.978488
v -0.4429815 1.000544 1.978488
vn 0.0009775171 0.3822092 0.9240753
vn 0.0009775171 0.0009775171 0.999999
vn 0.0009775171 0.0009775171 0.999999
vn 0.0009775171 0.3822092 0.9240753
vn 0.0009775171 0.9237537 0.3829859
vn 0.0009775171 0.9237537 0.3829859
vn 0.0009775171 0.9237537 0.3829859
vn 0.0009775171 0.9237537 0.3829859
vn 0.0009775166 0.9999995 0
vn 0.0009775166 0.9999995 0
vn 0.0009775171 0.9198436 0.3922841
vn 0.0009775171 0.9198436 0.3922841
vn 0.0009775166 0.9999995 0
vn 0.0009775166 0.9999995 0
vn 0.0009775171 0.9237537 0.3829859
vn 0.0009775166 0.9999995 0
vn 0.0009775166 0.9999995 0
vn 0.0009775171 0.9237537 0.3829859
vn 0.0009775171 0.3822092 0.9240753
vn 0.0009775171 0.3822092 0.9240753
vn 0.0009775171 0.3802541 0.9248815
vn 0.0009775171 -0.002932551 0.9999952
vn 0.0009775171 -0.002932551 0.9999952
vn 0.0009775171 0.3802541 0.9248815
vn 0.0009775171 0.9237537 0.3829859
vn 0.0009775171 0.9237537 0.3829859
vn 0.0009775166 0.9999995 0
vn 0.0009775166 0.9999995 0
vn 0.0009775171 0.9237537 0.3829859
vn 0.0009775166 0.9999995 0
vn 0.0009775166 0.9999995 0
vn 0.0009775171 0.9237537 0.3829859
vn 0.0009775171 0.3802541 0.9248815
vn 0.0009775171 0.3802541 0.9248815
vn 0.0009775171 0.3528837 0.9356667
vn 0.0009775171 -0.04203324 0.9991157
vn 0.0009775171 -0.04203324 0.9991157
vn 0.0009775171 0.3528837 0.9356667
vn 0.0009775171 0.9198436 0.3922841
vn 0.0009775171 0.9198436 0.3922841
vn 0.0009775171 0.3822092 0.9240753
vn 0.0009775171 0.0009775171 0.999999
vn 0.0009775171 0.0009775171 0.999999
vn 0.0009775171 0.3822092 0.9240753
vn 0.0009775171 0.9237537 0.3829859
vn 0.0009775171 0.9237537 0.3829859
vn 0.0009775171 0.3822092 0.9240753
vn 0.0009775171 0.0009775171 0.999999
vn 0.0009775171 0.0009775171 0.999999
vn 0.0009775171 0.3822092 0.9240753
vn 0.0009775171 0.9237537 0.3829859
vn 0.0009775171 0.9237537 0.3829859
vn 0.0009775171 0.3822092 0.9240753
vn 0.0009775171 0.0009775171 0.999999
vn 0.0009775171 0.0009775171 0.999999
vn 0.0009775171 0.3822092 0.9240753
vn 0.0009775171 0.9237537 0.3829859
vn 0.0009775171 0.9237537 0.3829859
vn 0.0009775166 0.9999995 0
vn 0.0009775166 0.9999995 0
vn 0.0009775171 0.0009775171 -0.999999
vn 0.0009775171 0.0009775171 -0.999999
vn 0.0009775171 0.0009775171 -0.999999
vn 0.0009775171 0.0009775171 -0.999999
vn -0.9999995 0.0009775166 0
vn -0.9999995 0.0009775166 0
vn -0.9999995 0.0009775166 0
vn -0.9999995 0.0009775166 0
vn -0.9999995 0.0009775166 0
vn -0.9999995 0.0009775166 0
vn 0.9999995 0.0009775166 0
vn 0.9999995 0.0009775166 0
vn 0.9999995 0.0009775166 0
vn 0.9999995 0.0009775166 0
vn 0.9999995 0.0009775166 0
vn 0.9999995 0.0009775166 0
vn 0.0009775166 -0.9999995 0
vn 0.0009775166 -0.9999995 0
vn 0.0009775166 -0.9999995 0
vn 0.0009775166 -0.9999995 0
vn 0.0009775166 -0.9999995 0
vn 0.0009775166 -0.9999995 0
vn 0.0009775171 0.0009775171 0.999999
vn 0.0009775171 0.0009775171 0.999999
vn 0.0009775171 0.0009775171 0.999999
vn 0.0009775171 0.0009775171 0.999999
vn 0.0009775171 0.0009775171 -0.999999
vn 0.0009775171 0.0009775171 -0.999999
vn 0.0009775171 0.0009775171 -0.999999
vn 0.0009775171 0.0009775171 -0.999999
vn 0.9999995 0.0009775166 0
vn 0.9999995 0.0009775166 0
vn 0.9999995 0.0009775166 0
vn 0.9999995 0.0009775166 0
vn 0.9999995 0.0009775166 0
vn 0.9999995 0.0009775166 0
vn 0.0009775171 0.9745846 0.2240178
vn 0.0009775171 0.9022483 0.4312159
vn 0.0009775171 0.9022483 0.4312159
vn 0.0009775171 0.9745846 0.2240178
vn 0.0009775166 0.9999995 0
vn 0.0009775166 0.9999995 0
vn 0.0009775171 -0.9745846 -0.2240178
vn 0.0009775166 -0.9999995 0
vn 0.0009775166 -0.9999995 0
vn 0.0009775171 -0.9745846 -0.2240178
vn 0.0009775171 -0.9022483 -0.4312159
vn 0.0009775171 -0.9022483 -0.4312159
vn -0.9999995 0.0009775166 0
vn -0.9999995 0.0009775166 0
vn -0.9999995 0.0009775166 0
vn -0.9999995 0.0009775166 0
vn -0.9999995 0.0009775166 0
vn -0.9999995 0.0009775166 0
vn 0.0009775171 -0.4389052 0.8985329
vn 0.0009775171 -0.4389052 0.8985329
vn 0.0009775171 -0.4389052 0.8985329
vn 0.0009775171 -0.4389052 0.8985329
vn 0.0009775171 0.0009775171 -0.999999
vn 0.0009775171 0.0009775171 -0.999999
vn 0.0009775171 0.0009775171 -0.999999
vn 0.0009775171 0.0009775171 -0.999999
vn 0.0009775171 0.0009775171 -0.999999
vn 0.0009775171 0.0009775171 -0.999999
vn 0.0009775171 0.0009775171 -0.999999
vn 0.0009775171 0.0009775171 -0.999999
vn -0.9999995 0.0009775166 0
vn -0.9999995 0.0009775166 0
vn -0.9999995 0.0009775166 0
vn -0.9999995 0.0009775166 0
vn -0.9999995 0.0009775166 0
vn -0.9999995 0.0009775166 0
vn 0.9999995 0.0009775166 0
vn 0.9999995 0.0009775166 0
vn 0.9999995 0.0009775166 0
vn 0.9999995 0.0009775166 0
vn 0.9999995 0.0009775166 0
vn 0.9999995 0.0009775166 0
vn 0.0009775166 -0.9999995 0
vn 0.0009775166 -0.9999995 0
vn 0.0009775166 -0.9999995 0
vn 0.0009775166 -0.9999995 0
vn 0.0009775166 -0.9999995 0
vn 0.0009775166 -0.9999995 0
vn 0.0009775171 0.0009775171 0.999999
vn 0.0009775171 0.0009775171 0.999999
vn 0.0009775171 0.0009775171 0.999999
vn 0.0009775171 0.0009775171 0.999999
vn 0.9999995 0.0009775166 0
vn 0.9999995 0.0009775166 0
vn 0.9999995 0.0009775166 0
vn 0.9999995 0.0009775166 0
vn 0.9999995 0.0009775166 0
vn 0.9999995 0.0009775166 0
vn 0.0009775171 0.9745846 0.2240178
vn 0.0009775171 0.9022483 0.4312159
vn 0.0009775171 0.9022483 0.4312159
vn 0.0009775171 0.9745846 0.2240178
vn 0.0009775166 0.9999995 0
vn 0.0009775166 0.9999995 0
vn 0.0009775171 -0.9745846 -0.2240178
vn 0.0009775166 -0.9999995 0
vn 0.0009775166 -0.9999995 0
vn 0.0009775171 -0.9745846 -0.2240178
vn 0.0009775171 -0.9022483 -0.4312159
vn 0.0009775171 -0.9022483 -0.4312159
vn -0.9999995 0.0009775166 0
vn -0.9999995 0.0009775166 0
vn -0.9999995 0.0009775166 0
vn -0.9999995 0.0009775166 0
vn -0.9999995 0.0009775166 0
vn -0.9999995 0.0009775166 0
vn 0.0009775171 -0.4389052 0.8985329
vn 0.0009775171 -0.4389052 0.8985329
vn 0.0009775171 -0.4389052 0.8985329
vn 0.0009775171 -0.4389052 0.8985329
vn 0.0009775171 0.0009775171 -0.999999
vn 0.0009775171 0.0009775171 -0.999999
vn 0.0009775171 0.0009775171 -0.999999
vn 0.0009775171 0.0009775171 -0.999999
vn 0.0009775166 0.9999995 0
vn 0.0009775166 0.9999995 0
vn 0.0009775166 0.9999995 0
vn 0.0009775166 0.9999995 0
vn 0.0009775166 0.9999995 0
vn 0.0009775171 0.9237537 0.3829859
vn 0.0009775171 0.9237537 0.3829859
vn 0.0009775166 0.9999995 0
vn 0.0009775171 0.3822092 0.9240753
vn 0.0009775171 0.0009775171 0.999999
vn 0.0009775171 0.0009775171 0.999999
vn 0.0009775171 0.3822092 0.9240753
vn 0.0009775171 0.9237537 0.3829859
vn 0.0009775171 0.9237537 0.3829859
vt 0.2575006 0.7831361
vt 0.2575006 0.7934681
vt 0.7718236 0.7934681
vt 0.7718236 0.7831361
vt 0.2575006 0.7799836
vt 0.7718236 0.7799836
vt 0.2575006 0.7799836
vt 0.7718236 0.7799836
vt 0.7718236 0.7622156
vt 0.2575006 0.7622156
vt 0.3405036 0.7804512
vt 0.8548266 0.7804512
vt 0.8548266 0.7622156
vt 0.3405036 0.7622156
vt 0.08538585 0.7802551
vt 0.5997089 0.7622156
vt 0.08538585 0.7622156
vt 0.5997089 0.7802551
vt 0.5997089 0.7831361
vt 0.08538585 0.7831361
vt 0.2575006 0.7831361
vt 0.2575006 0.7934681
vt 0.7718236 0.7934681
vt 0.7718236 0.7831361
vt 0.08538585 0.7799987
vt 0.5997089 0.7799987
vt 0.5997089 0.7622156
vt 0.08538585 0.7622156
vt 0.2575006 0.7802853
vt 0.7718236 0.7622156
vt 0.2575006 0.7622156
vt 0.7718236 0.7802853
vt 0.7718236 0.7831361
vt 0.2575006 0.7831361
vt 0.3405036 0.7831361
vt 0.3405036 0.7934681
vt 0.8548266 0.7934681
vt 0.8548266 0.7831361
vt 0.3405036 0.7804512
vt 0.8548266 0.7804512
vt 0.08538585 0.7831361
vt 0.08538585 0.7934681
vt 0.5997089 0.7934681
vt 0.5997089 0.7831361
vt 0.08538585 0.7799987
vt 0.5997089 0.7799987
vt 0.08538585 0.7831361
vt 0.08538585 0.7934681
vt 0.5997089 0.7934681
vt 0.5997089 0.7831361
vt 0.08538585 0.7802853
vt 0.5997089 0.7802853
vt 0.08538585 0.7831361
vt 0.08538585 0.7934681
vt 0.5997089 0.7934681
vt 0.5997089 0.7831361
vt 0.08538585 0.7802853
vt 0.5997089 0.7802853
vt 0.5997089 0.7622156
vt 0.08538585 0.7622156
vt 0.4268702 0.6947483
vt 0.342208 0.6947483
vt 0.342208 0.7491686
vt 0.4268702 0.7491686
vt 0.4276847 0.7615067
vt 0.4276847 0.6947483
vt 0.5136892 0.6947483
vt 0.5136892 0.7615067
vt 0.5992112 0.6947483
vt 0.5992112 0.7068903
vt 0.4276847 0.7615067
vt 0.5136892 0.6947483
vt 0.4276847 0.6947483
vt 0.5136892 0.7615067
vt 0.5992112 0.6947483
vt 0.5992112 0.7068903
vt 0.9410574 0.6947483
vt 0.6849141 0.7491686
vt 0.9410574 0.7491686
vt 0.6849141 0.6947483
vt 0.4268702 0.7491686
vt 0.4268702 0.6947483
vt 0.5981553 0.7609788
vt 0.5981553 0.7496663
vt 0.5134177 0.7496663
vt 0.5134177 0.7609788
vt 0.4268702 0.6947483
vt 0.342208 0.6947483
vt 0.342208 0.7491686
vt 0.4268702 0.7491686
vt 0.5985324 0.7616425
vt 0.5985324 0.7498474
vt 0.4270059 0.7498474
vt 0.4270059 0.7616425
vt 0.2567766 0.7498474
vt 0.2567766 0.7616425
vt 0.4270059 0.7498474
vt 0.598834 0.7498474
vt 0.598834 0.6947182
vt 0.4270059 0.6947182
vt 0.2569425 0.7498474
vt 0.2569425 0.6947182
vt 0.4270662 0.6947182
vt 0.2569425 0.6947182
vt 0.2569425 0.7498021
vt 0.4270662 0.7498021
vt 0.598834 0.6947182
vt 0.598834 0.7498021
vt 0.2567766 0.7616425
vt 0.2567766 0.7498474
vt 0.4270059 0.7498474
vt 0.4270059 0.7616425
vt 0.5985324 0.7498474
vt 0.5985324 0.7616425
vt 0.5126787 0.7617933
vt 0.5126787 0.7498172
vt 0.428107 0.7498172
vt 0.428107 0.7617933
vt 0.428107 0.7498172
vt 0.428107 0.7617933
vt 0.5126787 0.7617933
vt 0.5126787 0.7498172
vt 0.5570987 0.1901841
vt 0.8894125 0.1901841
vt 0.8894125 0.254861
vt 0.5570987 0.254861
vt 0.4276847 0.7615067
vt 0.4276847 0.6947483
vt 0.5136892 0.6947483
vt 0.5136892 0.7615067
vt 0.5992112 0.6947483
vt 0.5992112 0.7068903
vt 0.4276847 0.7615067
vt 0.5136892 0.6947483
vt 0.4276847 0.6947483
vt 0.5136892 0.7615067
vt 0.5992112 0.6947483
vt 0.5992112 0.7068903
vt 0.9410574 0.6947483
vt 0.6849141 0.7491686
vt 0.9410574 0.7491686
vt 0.6849141 0.6947483
vt 0.4268702 0.7491686
vt 0.4268702 0.6947483
vt 0.5981553 0.7609788
vt 0.5981553 0.7496663
vt 0.5134177 0.7496663
vt 0.5134177 0.7609788
vt 0.5985324 0.7616425
vt 0.5985324 0.7498474
vt 0.4270059 0.7498474
vt 0.4270059 0.7616425
vt 0.2567766 0.7498474
vt 0.2567766 0.7616425
vt 0.4270059 0.7498474
vt 0.598834 0.7498474
vt 0.598834 0.6947182
vt 0.4270059 0.6947182
vt 0.2569425 0.7498474
vt 0.2569425 0.6947182
vt 0.4270662 0.6947182
vt 0.2569425 0.6947182
vt 0.2569425 0.7498021
vt 0.4270662 0.7498021
vt 0.598834 0.6947182
vt 0.598834 0.7498021
vt 0.2567766 0.7616425
vt 0.2567766 0.7498474
vt 0.4270059 0.7498474
vt 0.4270059 0.7616425
vt 0.5985324 0.7498474
vt 0.5985324 0.7616425
vt 0.5126787 0.7617933
vt 0.5126787 0.7498172
vt 0.428107 0.7498172
vt 0.428107 0.7617933
vt 0.428107 0.7498172
vt 0.428107 0.7617933
vt 0.5126787 0.7617933
vt 0.5126787 0.7498172
vt 0.5576267 0.1897618
vt 0.8899404 0.1897618
vt 0.8899404 0.09306322
vt 0.5576267 0.09306322
vt 0.08538585 0.7622156
vt 0.08538585 0.7802853
vt 0.5997089 0.7802853
vt 0.5997089 0.7622156
vt 0.08538585 0.7831361
vt 0.08538585 0.7934681
vt 0.5997089 0.7934681
vt 0.5997089 0.7831361
vt 0.08538585 0.7802853
vt 0.5997089 0.7802853
f 1/1/1 2/2/2 3/3/3
f 1/1/1 3/3/3 4/4/4
f 5/5/5 1/1/1 4/4/4
f 5/5/5 4/4/4 6/6/6
f 7/7/7 8/8/8 9/9/9
f 7/7/7 9/9/9 10/10/10
f 11/11/11 12/12/12 13/13/13
f 11/11/11 13/13/13 14/14/14
f 15/15/15 16/16/16 17/17/17
f 15/15/15 18/18/18 16/16/16
f 15/15/15 19/19/19 18/18/18
f 15/15/15 20/20/20 19/19/19
f 21/21/21 22/22/22 23/23/23
f 21/21/21 23/23/23 24/24/24
f 25/25/25 26/26/26 27/27/27
f 25/25/25 27/27/27 28/28/28
f 29/29/29 30/30/30 31/31/31
f 29/29/29 32/32/32 30/30/30
f 29/29/29 33/33/33 32/32/32
f 29/29/29 34/34/34 33/33/33
f 35/35/35 36/36/36 37/37/37
f 35/35/35 37/37/37 38/38/38
f 39/39/39 35/35/35 38/38/38
f 39/39/39 38/38/38 40/40/40
f 41/41/41 42/42/42 43/43/43
f 41/41/41 43/43/43 44/44/44
f 45/45/45 41/41/41 44/44/44
f 45/45/45 44/44/44 46/46/46
f 47/47/47 48/48/48 49/49/49
f 47/47/47 49/49/49 50/50/50
f 51/51/51 47/47/47 50/50/50
f 51/51/51 50/50/50 52/52/52
f 53/53/53 54/54/54 55/55/55
f 53/53/53 55/55/55 56/56/56
f 57/57/57 58/58/58 59/59/59
f 57/57/57 59/59/59 60/60/60
f 61/61/61 62/62/62 63/63/63
f 61/61/61 63/63/63 64/64/64
f 65/65/65 66/66/66 67/67/67
f 65/65/65 67/67/67 68/68/68
f 68/68/68 67/67/67 69/69/69
f 68/68/68 69/69/69 70/70/70
f 71/71/71 72/72/72 73/73/73
f 71/71/71 74/74/74 72/72/72
f 74/74/74 75/75/75 72/72/72
f 74/74/74 76/76/76 75/75/75
f 77/77/77 78/78/78 79/79/79
f 77/77/77 80/80/80 78/78/78
f 80/80/80 81/81/81 78/78/78
f 80/80/80 82/82/82 81/81/81
f 83/83/83 84/84/84 85/85/85
f 83/83/83 85/85/85 86/86/86
f 87/87/87 88/88/88 89/89/89
f 87/87/87 89/89/89 90/90/90
f 91/91/91 92/92/92 93/93/93
f 91/91/91 93/93/93 94/94/94
f 94/94/94 93/93/93 95/95/95
f 94/94/94 95/95/95 96/96/96
f 97/97/97 98/98/98 99/99/99
f 97/97/97 99/99/99 100/100/100
f 101/101/101 97/97/97 100/100/100
f 101/101/101 100/100/100 102/102/102
f 103/103/103 104/104/104 105/105/105
f 103/103/103 105/105/105 106/106/106
f 107/107/107 103/103/103 106/106/106
f 107/107/107 106/106/106 108/108/108
f 109/109/109 110/110/110 111/111/111
f 109/109/109 111/111/111 112/112/112
f 112/112/112 111/111/111 113/113/113
f 112/112/112 113/113/113 114/114/114
f 115/115/115 116/116/116 117/117/117
f 115/115/115 117/117/117 118/118/118
f 119/119/119 120/120/120 121/121/121
f 119/119/119 121/121/121 122/122/122
f 123/123/123 124/124/124 125/125/125
f 123/123/123 125/125/125 126/126/126
f 127/127/127 128/128/128 129/129/129
f 127/127/127 129/129/129 130/130/130
f 130/130/130 129/129/129 131/131/131
f 130/130/130 131/131/131 132/132/132
f 133/133/133 134/134/134 135/135/135
f 133/133/133 136/136/136 134/134/134
f 136/136/136 137/137/137 134/134/134
f 136/136/136 138/138/138 137/137/137
f 139/139/139 140/140/140 141/141/141
f 139/139/139 142/142/142 140/140/140
f 142/142/142 143/143/143 140/140/140
f 142/142/142 144/144/144 143/143/143
f 145/145/145 146/146/146 147/147/147
f 145/145/145 147/147/147 148/148/148
f 149/149/149 150/150/150 151/151/151
f 149/149/149 151/151/151 152/152/152
f 152/152/152 151/151/151 153/153/153
f 152/152/152 153/153/153 154/154/154
f 155/155/155 156/156/156 157/157/157
f 155/155/155 157/157/157 158/158/158
f 159/159/159 155/155/155 158/158/158
f 159/159/159 158/158/158 160/160/160
f 161/161/161 162/162/162 163/163/163
f 161/161/161 163/163/163 164/164/164
f 165/165/165 161/161/161 164/164/164
f 165/165/165 164/164/164 166/166/166
f 167/167/167 168/168/168 169/169/169
f 167/167/167 169/169/169 170/170/170
f 170/170/170 169/169/169 171/171/171
f 170/170/170 171/171/171 172/172/172
f 173/173/173 174/174/174 175/175/175
f 173/173/173 175/175/175 176/176/176
f 177/177/177 178/178/178 179/179/179
f 177/177/177 179/179/179 180/180/180
f 181/181/181 182/182/182 183/183/183
f 181/181/181 183/183/183 184/184/184
f 185/185/185 186/186/186 187/187/187
f 185/185/185 187/187/187 188/188/188
f 189/189/189 190/190/190 191/191/191
f 189/189/189 191/191/191 192/192/192
f 193/193/193 189/189/189 192/192/192
f 193/193/193 192/192/192 194/194/194
