v 5.048347 0.07956506 -1.541843
v 5.283317 0.1049929 -0.8562205
v 5.283317 0.07956506 -1.474349
v 5.048347 0.1049929 -0.8467082
v 5.048347 0.07956506 1.139831
v 5.291255 0.07956506 1.158347
v 5.048347 0.06654318 1.658819
v 5.283268 0.06931962 1.539471
v 4.682551 0.1078769 -0.8781582
v 4.675698 0.0810217 1.022898
v 4.929898 0.0810217 1.056987
v 4.929898 0.1078769 -0.9220435
v 4.929898 0.106606 -1.945326
v 4.676441 0.1058728 -1.91108
v 6.48347 0.07558615 -0.9511178
v 6.535039 0.06471504 1.220318
v 6.741131 0.06471504 1.254407
v 6.73767 0.07558615 -0.9614121
v 6.424168 0.0737189 -1.573293
v 6.678358 0.07465741 -1.63938
v 6.108964 0.08965407 -1.888956
v 6.363154 0.1249656 -0.9612948
v 6.363154 0.08965407 -1.850458
v 6.108964 0.1249656 -0.9510005
v 6.414724 0.08965407 1.073225
v 6.160533 0.08965407 1.039136
v 3.495469 0.09032863 0.9696078
v 3.243371 0.09032863 1.182073
v 3.495469 0.09032863 1.322293
v 3.241269 0.09032863 0.9355183
v 3.241269 0.1099103 -0.7995284
v 3.495469 0.1099103 -0.8098227
v 3.495469 0.09032863 -1.288904
v 3.241269 0.09032863 -1.247346
v 4.550505 0.1243791 1.077097
v 4.241167 0.08936079 1.639354
v 4.49481 0.08936079 1.714034
v 4.300244 0.1243791 1.020991
v 4.322495 0.07152904 -0.7887355
v 4.576685 0.07152904 -0.7990298
v 4.571465 0.08300627 -1.681819
v 4.317333 0.08275209 -1.668191
v 1.342061 0.123421 1.099455
v 1.083168 0.08887198 1.776798
v 1.342061 0.08887198 1.802959
v 1.08786 0.123421 1.065366
v 1.094714 0.07057097 -0.7855778
v 1.348904 0.07057097 -0.7958721
v 1.34472 0.0676479 -1.504772
v 1.090676 0.06745237 -1.474593
v 0.633933 0.08025917 1.143301
v 0.3711396 0.06995507 1.27091
v 0.6294262 0.06995507 1.336136
v 0.3711396 0.08025917 1.12326
v 0.3711396 0.1063811 -0.8632789
v 0.6253397 0.1063811 -0.8735732
v 0.6301985 0.08025917 -1.618909
v 0.3758615 0.08025917 -1.635939
v 7.92878 0.05938702 -1.496648
v 8.196188 0.06504743 -1.018544
v 8.206482 0.05938702 -1.399424
v 7.941988 0.06504743 -1.00825
v 8.135664 0.04272842 0.6893541
v 7.872596 0.04182901 0.6817971
v 4.19645 0.1246137 1.051835
v 3.937225 0.06633788 1.809763
v 4.191269 0.06566333 1.841037
v 3.94225 0.1246137 1.017746
v 3.94225 0.1246137 -0.8148966
v 4.203294 0.1246137 -0.7915999
v 4.243357 0.0894781 -1.489922
v 3.987455 0.0894781 -1.492415
v 5.656669 0.1139088 -0.8671014
v 5.418072 0.06739371 1.361163
v 5.669368 0.06668983 1.318696
v 5.402469 0.1139088 -0.8568168
v 5.65401 0.08407187 -1.511479
v 5.402469 0.08407187 -1.68702
v 3.867961 0.07755116 1.006171
v 3.613761 0.08218507 1.764392
v 3.863092 0.08326045 1.773992
v 3.613761 0.07755116 0.9720812
v 3.613761 0.126041 -0.8148575
v 3.867961 0.126041 -0.8251518
v 3.867961 0.1180343 -1.972464
v 3.613761 0.1180343 -1.972464
v 2.804538 0.1137524 1.10972
v 2.542448 0.08398389 1.796242
v 2.808556 0.08398389 1.780297
v 2.556399 0.1137524 1.075631
v 2.547796 0.06089256 -0.8682159
v 2.801996 0.06089256 -0.8785102
v 2.833739 0.1048463 -1.875671
v 2.585424 0.04971838 -1.791224
v 2.423971 0.08321157 -1.648169
v 2.174698 0.08321157 -1.620327
v 2.174698 0.1122175 -0.8470407
v 2.428888 0.1122175 -0.857335
v 2.437481 0.06372765 1.208841
v 2.183291 0.06372765 1.174761
v 2.161099 0.05193758 2.119873
v 2.415289 0.05193758 2.119873
v 2.083359 0.1063811 1.152227
v 1.820575 0.08025917 1.670726
v 2.06802 0.08025917 1.808228
v 1.820575 0.1063811 1.132186
v 1.820575 0.1063811 -0.8543532
v 2.074766 0.1063811 -0.8646475
v 2.074766 0.08025917 -1.96567
v 1.820575 0.08025917 -1.96567
v 0.7247244 0.09032863 -2.044574
v 0.9755126 0.126305 -0.7923136
v 0.9722474 0.09032863 -1.986728
v 0.7144691 0.126305 -0.8156102
v 0.9686694 0.126305 1.051122
v 0.7144691 0.126305 1.017032
v 0.7076747 0.09032863 2.087504
v 0.9618651 0.09032863 2.087504
v 6.829273 0.1139088 -0.9747761
v 6.878799 0.06054061 1.157692
v 7.081743 0.0603842 1.219546
v 7.031063 0.1139088 -0.9544711
v 6.829273 0.08407187 -2.028609
v 7.057918 0.08407187 -1.955493
v 7.172202 0.08398389 -1.806123
v 7.399537 0.06089256 -0.9573159
v 7.426392 0.08398389 -1.806123
v 7.145347 0.06089256 -0.9470216
v 7.451947 0.08398389 1.342804
v 7.197747 0.08398389 1.308714
v 7.541917 0.09738703 -1.612955
v 7.818104 0.1165386 -0.9191106
v 7.803479 0.09463014 -1.461219
v 7.552241 0.1165386 -0.8782169
v 7.818104 0.08540143 1.611199
v 7.563913 0.08540143 1.744272
v 0.1649697 0.08025917 -1.978438
v -0.08923043 0.08025917 -1.978438
v 0.005344313 0.1063811 -0.8214955
v 0.2526914 0.1063811 -0.865371
v -0.006220906 0.08025917 0.9554324
v 0.2479695 0.08025917 1.019613
vn 0.004841957 0.9989184 -0.0462458
vn 0.002678561 0.9999964 0
vn 0.004841957 0.9989184 -0.0462458
vn 0.002678561 0.9999964 0
vn -0.0005665104 0.9999999 0
vn -0.0005665104 0.9999999 0
vn -0.0005665104 0.9999999 0
vn -0.0005665104 0.9999999 0
vn -0.0005665104 0.9999999 0
vn 0.0005151831 0.9999999 0
vn 0.0005151831 0.9999999 0
vn -0.0005665104 0.9999999 0
vn -0.001648202 0.9999987 0
vn -0.001648202 0.9999987 0
vn -0.001648202 0.9999987 0
vn -0.0005665104 0.9999999 0
vn -0.0005665104 0.9999999 0
vn -0.001648202 0.9999987 0
vn -0.001648202 0.9999987 0
vn -0.001648202 0.9999987 0
vn 0.001596877 0.9989184 -0.04647081
vn 0.0005151831 0.9999999 0
vn 0.001596877 0.9989184 -0.04647081
vn 0.0005151831 0.9999999 0
vn -0.0005665104 0.9999999 0
vn -0.0005665104 0.9999999 0
vn -0.0005665104 0.9999999 0
vn 0.0005151831 0.9999999 0
vn 0.0005151831 0.9999999 0
vn -0.0005665104 0.9999999 0
vn -0.002729888 0.9999963 0
vn -0.002729888 0.9999963 0
vn -0.003811591 0.9989184 -0.04634172
vn -0.003811591 0.9989184 -0.04634172
vn -0.007056496 0.9999751 0
vn -0.01462853 0.9989184 0.04413749
vn -0.01462853 0.9989184 0.04413749
vn -0.004893227 0.9999881 0
vn 0.001596875 0.9999988 0
vn 0.001596875 0.9999988 0
vn 0.0005151831 0.9999999 0
vn 0.0005151831 0.9999999 0
vn -0.002729888 0.9999963 0
vn -0.005974978 0.9989184 0.04611286
vn -0.005974978 0.9989184 0.04611286
vn -0.001648202 0.9999987 0
vn 0.0005151831 0.9999999 0
vn 0.0005151831 0.9999999 0
vn -0.0005665104 0.9999999 0
vn -0.0005665104 0.9999999 0
vn -0.004893285 0.9989184 0.04624
vn -0.01030175 0.9978366 0.06492947
vn -0.01030175 0.9978366 0.06492947
vn -0.004893285 0.9989184 0.04624
vn 0.0005151831 0.9999999 0
vn 0.0005151831 0.9999999 0
vn 0.0005151831 0.9989184 -0.04649581
vn 0.0005151831 0.9989184 -0.04649581
vn 0.001596875 0.9999988 0
vn 0.0005151831 0.9999999 0
vn 0.001596875 0.9999988 0
vn 0.0005151831 0.9999999 0
vn -0.001648202 0.9999987 0
vn -0.001648202 0.9999987 0
vn -0.004893285 0.9989184 0.04624
vn -0.008138365 0.9967549 0.08008333
vn -0.008138365 0.9967549 0.08008333
vn -0.003811591 0.9989184 0.04634172
vn 0.001596875 0.9999988 0
vn 0.001596875 0.9999988 0
vn 0.00267857 0.9989184 -0.0464214
vn 0.00267857 0.9989184 -0.0464214
vn 0.008086774 0.9999673 0
vn 0.003760237 0.999993 0
vn 0.003760237 0.999993 0
vn 0.008086774 0.9999673 0
vn 0.01349551 0.9989184 -0.0444966
vn 0.01349551 0.9989184 -0.0444966
vn -0.001648202 0.9999987 0
vn -0.001648202 0.9999987 0
vn -0.001648202 0.9999987 0
vn -0.001648202 0.9999987 0
vn -0.0005665104 0.9999999 0
vn -0.0005665104 0.9999999 0
vn -0.0005665104 0.9999999 0
vn -0.0005665104 0.9999999 0
vn -0.0005665104 0.9999999 0
vn -0.001648204 0.9989184 0.04646888
vn -0.001648204 0.9989184 0.04646888
vn 0.0005151831 0.9999999 0
vn -0.05031509 0.9987333 0
vn -0.05462867 0.9985067 0
vn -0.1065421 0.9943081 0
vn -0.1065421 0.9943081 0
vn -0.002729898 0.9989184 -0.04641819
vn -0.002729898 0.9989184 -0.04641819
vn -0.001648202 0.9999987 0
vn -0.001648202 0.9999987 0
vn -0.0005665104 0.9999999 0
vn -0.0005665104 0.9999999 0
vn -0.0005665104 0.9999999 0
vn -0.0005665104 0.9999999 0
vn -0.007056496 0.9999751 0
vn -0.01354683 0.9989184 0.04448119
vn -0.01354683 0.9989184 0.04448119
vn -0.005974872 0.9999822 0
vn -0.0005665104 0.9999999 0
vn -0.0005665104 0.9999999 0
vn -0.0005665104 0.9999999 0
vn -0.0005665104 0.9999999 0
vn 0.004841901 0.9999883 0
vn 0.002678561 0.9999964 0
vn 0.004841901 0.9999883 0
vn 0.002678561 0.9999964 0
vn -0.001648202 0.9999987 0
vn -0.0005665104 0.9999999 0
vn -0.002729898 0.9989184 0.04641819
vn -0.002729898 0.9989184 0.04641819
vn 0.001596875 0.9999988 0
vn -0.004893227 0.9999881 0
vn -0.004893227 0.9999881 0
vn 0.0005151831 0.9999999 0
vn 0.005923547 0.9999825 0
vn 0.005923547 0.9999825 0
vn 0.0005151831 0.9999999 0
vn 0.0005151831 0.9999999 0
vn 0.0005151831 0.9999999 0
vn 0.0005151831 0.9999999 0
vn 0.0005151831 0.9999999 0
vn 0.0005151831 0.9999999 0
vn 0.01241381 0.9989184 -0.04481095
vn 0.008086774 0.9999673 0
vn 0.01241381 0.9989184 -0.04481095
vn 0.008086774 0.9999673 0
vn 0.003760237 0.999993 0
vn 0.003760237 0.999993 0
vn -0.001648202 0.9999987 0
vn -0.001648202 0.9999987 0
vn -0.001648202 0.9999987 0
vn -0.001648202 0.9999987 0
vn -0.0005665104 0.9999999 0
vn -0.0005665104 0.9999999 0
vt 0.4540984 0.5746047
vt 0.4414589 0.5434513
vt 0.4414589 0.5714033
vt 0.4540984 0.5434513
vt 0.4540984 0.4545968
vt 0.4405679 0.4541437
vt 0.4540984 0.4315828
vt 0.4412625 0.4372759
vt 0.4716761 0.54102
vt 0.4716761 0.4565448
vt 0.4580096 0.45508
vt 0.4580096 0.5434513
vt 0.4580096 0.5892376
vt 0.4716761 0.5876671
vt 0.389164 0.5449161
vt 0.3862344 0.4487376
vt 0.3749992 0.4472728
vt 0.3749992 0.5454144
vt 0.389164 0.5719318
vt 0.3749992 0.5749369
vt 0.4062432 0.5869423
vt 0.39306 0.5449161
vt 0.39306 0.5852057
vt 0.4062432 0.5444329
vt 0.3906288 0.4492208
vt 0.403812 0.4506856
vt 0.5239257 0.4619208
vt 0.5375015 0.4524071
vt 0.5239257 0.4462006
vt 0.5375921 0.4633856
vt 0.5375921 0.5405217
vt 0.5239257 0.54102
vt 0.5239257 0.5625994
vt 0.5375921 0.5607118
vt 0.4736392 0.457028
vt 0.487668 0.4247873
vt 0.4736392 0.422341
vt 0.4873056 0.4584928
vt 0.4873056 0.5405217
vt 0.4731408 0.54102
vt 0.4735184 0.5808415
vt 0.4873056 0.5802223
vt 0.6211008 0.457028
vt 0.6352505 0.4268109
vt 0.6211008 0.4255273
vt 0.6352505 0.4584928
vt 0.6347673 0.5405217
vt 0.6211008 0.54102
vt 0.6211008 0.5729889
vt 0.6350542 0.5716147
vt 0.4394504 0.4540984
vt 0.4540984 0.4480429
vt 0.4398431 0.4455664
vt 0.4540984 0.4545968
vt 0.4540984 0.5434513
vt 0.440432 0.5434513
vt 0.440432 0.5902192
vt 0.4540984 0.5893887
vt 0.3420638 0.5700442
vt 0.3276423 0.5488272
vt 0.3272497 0.5655592
vt 0.3413088 0.548344
vt 0.3276423 0.4754362
vt 0.3413088 0.4723707
vt 0.4912168 0.4584928
vt 0.5053664 0.4249232
vt 0.4915792 0.423549
vt 0.5053664 0.4599576
vt 0.5053664 0.5415033
vt 0.4907185 0.5405217
vt 0.491096 0.5801015
vt 0.5053664 0.5801921
vt 0.4252856 0.5444329
vt 0.4391182 0.4406887
vt 0.4250893 0.4408699
vt 0.4394504 0.5434513
vt 0.4254971 0.563143
vt 0.4394504 0.5712372
vt 0.5058648 0.4599576
vt 0.519048 0.4262823
vt 0.5058648 0.4260256
vt 0.519048 0.4614224
vt 0.519048 0.54102
vt 0.5058648 0.5415033
vt 0.5058648 0.5932545
vt 0.519048 0.5932545
vt 0.5546865 0.4506856
vt 0.5691079 0.4215406
vt 0.5546865 0.4193207
vt 0.5683529 0.4521504
vt 0.5683529 0.5444329
vt 0.5546865 0.5444329
vt 0.5546865 0.5932545
vt 0.5688512 0.5893584
vt 0.57166 0.5790293
vt 0.584964 0.5784706
vt 0.584964 0.5434513
vt 0.5712825 0.5444329
vt 0.5712825 0.4526336
vt 0.584964 0.4540984
vt 0.5854473 0.4121024
vt 0.5722641 0.4121024
vt 0.5883769 0.4540984
vt 0.6030249 0.430722
vt 0.589736 0.4250742
vt 0.6030249 0.4545968
vt 0.6030249 0.5434513
vt 0.5888601 0.5434513
vt 0.5888601 0.5932545
vt 0.6030249 0.5932545
vt 0.6513633 0.5932545
vt 0.6372136 0.5405217
vt 0.6376969 0.5932545
vt 0.6513633 0.5415033
vt 0.6376969 0.4584928
vt 0.6513633 0.4599576
vt 0.6518617 0.4126008
vt 0.6376969 0.4126008
vt 0.3740176 0.5454144
vt 0.3712088 0.4511537
vt 0.3604267 0.4481184
vt 0.3627976 0.5444329
vt 0.3740176 0.5932545
vt 0.3613327 0.5893584
vt 0.3584031 0.5903249
vt 0.3457032 0.5463809
vt 0.3442384 0.5903249
vt 0.3593696 0.5458977
vt 0.3427736 0.4438448
vt 0.3569384 0.445808
vt 0.3421544 0.5790746
vt 0.327144 0.548344
vt 0.3282615 0.5723849
vt 0.341792 0.5463809
vt 0.327144 0.4361131
vt 0.3413088 0.4297405
vt 0.4580096 0.5932545
vt 0.4716761 0.5932545
vt 0.4716761 0.54102
vt 0.4580096 0.5434513
vt 0.4716761 0.4524071
vt 0.4580096 0.4495983
f 1/1/1 2/2/2 3/3/3
f 1/1/1 4/4/4 2/2/2
f 5/5/5 2/2/2 4/4/4
f 5/5/5 6/6/6 2/2/2
f 7/7/7 6/6/6 5/5/5
f 7/7/7 8/8/8 6/6/6
f 9/9/9 10/10/10 11/11/11
f 9/9/9 11/11/11 12/12/12
f 13/13/13 9/9/9 12/12/12
f 13/13/13 14/14/14 9/9/9
f 15/15/15 16/16/16 17/17/17
f 15/15/15 17/17/17 18/18/18
f 19/19/19 15/15/15 18/18/18
f 19/19/19 18/18/18 20/20/20
f 21/21/21 22/22/22 23/23/23
f 21/21/21 24/24/24 22/22/22
f 24/24/24 25/25/25 22/22/22
f 24/24/24 26/26/26 25/25/25
f 27/27/27 28/28/28 29/29/29
f 27/27/27 30/30/30 28/28/28
f 31/31/31 30/30/30 27/27/27
f 31/31/31 27/27/27 32/32/32
f 33/33/33 31/31/31 32/32/32
f 33/33/33 34/34/34 31/31/31
f 35/35/35 36/36/36 37/37/37
f 35/35/35 38/38/38 36/36/36
f 39/39/39 38/38/38 35/35/35
f 39/39/39 35/35/35 40/40/40
f 41/41/41 39/39/39 40/40/40
f 41/41/41 42/42/42 39/39/39
f 43/43/43 44/44/44 45/45/45
f 43/43/43 46/46/46 44/44/44
f 47/47/47 46/46/46 43/43/43
f 47/47/47 43/43/43 48/48/48
f 49/49/49 47/47/47 48/48/48
f 49/49/49 50/50/50 47/47/47
f 51/51/51 52/52/52 53/53/53
f 51/51/51 54/54/54 52/52/52
f 55/55/55 54/54/54 51/51/51
f 55/55/55 51/51/51 56/56/56
f 57/57/57 55/55/55 56/56/56
f 57/57/57 58/58/58 55/55/55
f 59/59/59 60/60/60 61/61/61
f 59/59/59 62/62/62 60/60/60
f 62/62/62 63/63/63 60/60/60
f 62/62/62 64/64/64 63/63/63
f 65/65/65 66/66/66 67/67/67
f 65/65/65 68/68/68 66/66/66
f 69/69/69 68/68/68 65/65/65
f 69/69/69 65/65/65 70/70/70
f 71/71/71 69/69/69 70/70/70
f 71/71/71 72/72/72 69/69/69
f 73/73/73 74/74/74 75/75/75
f 73/73/73 76/76/76 74/74/74
f 77/77/77 76/76/76 73/73/73
f 77/77/77 78/78/78 76/76/76
f 79/79/79 80/80/80 81/81/81
f 79/79/79 82/82/82 80/80/80
f 83/83/83 82/82/82 79/79/79
f 83/83/83 79/79/79 84/84/84
f 85/85/85 83/83/83 84/84/84
f 85/85/85 86/86/86 83/83/83
f 87/87/87 88/88/88 89/89/89
f 87/87/87 90/90/90 88/88/88
f 91/91/91 90/90/90 87/87/87
f 91/91/91 87/87/87 92/92/92
f 93/93/93 91/91/91 92/92/92
f 93/93/93 94/94/94 91/91/91
f 95/95/95 96/96/96 97/97/97
f 95/95/95 97/97/97 98/98/98
f 97/97/97 99/99/99 98/98/98
f 97/97/97 100/100/100 99/99/99
f 99/99/99 100/100/100 101/101/101
f 99/99/99 101/101/101 102/102/102
f 103/103/103 104/104/104 105/105/105
f 103/103/103 106/106/106 104/104/104
f 107/107/107 106/106/106 103/103/103
f 107/107/107 103/103/103 108/108/108
f 109/109/109 107/107/107 108/108/108
f 109/109/109 110/110/110 107/107/107
f 111/111/111 112/112/112 113/113/113
f 111/111/111 114/114/114 112/112/112
f 114/114/114 115/115/115 112/112/112
f 114/114/114 116/116/116 115/115/115
f 115/115/115 116/116/116 117/117/117
f 115/115/115 117/117/117 118/118/118
f 119/119/119 120/120/120 121/121/121
f 119/119/119 121/121/121 122/122/122
f 123/123/123 119/119/119 122/122/122
f 123/123/123 122/122/122 124/124/124
f 125/125/125 126/126/126 127/127/127
f 125/125/125 128/128/128 126/126/126
f 128/128/128 129/129/129 126/126/126
f 128/128/128 130/130/130 129/129/129
f 131/131/131 132/132/132 133/133/133
f 131/131/131 134/134/134 132/132/132
f 134/134/134 135/135/135 132/132/132
f 134/134/134 136/136/136 135/135/135
f 137/137/137 138/138/138 139/139/139
f 137/137/137 139/139/139 140/140/140
f 140/140/140 139/139/139 141/141/141
f 140/140/140 141/141/141 142/142/142
