v -6.32759 -0.00836529 0.1698013
v -6.527603 -0.00836529 0.1698013
v -6.53213 -0.00836529 -0.03392813
v -6.323874 -0.00836529 -0.03392813
v -6.53213 1.305512 -0.03392813
v -6.323874 1.305512 -0.03392813
v -6.323874 -0.00836529 -0.03392813
v -6.53213 -0.00836529 -0.03392813
v 0.003466439 1.054013 0.1107178
v -1.648043 0.8756886 0.07689673
v 0.003466439 0.9132859 0.1107178
v -1.597278 1.016416 0.07689673
v -3.256205 0.881229 0.1107178
v -3.257526 1.021956 0.1107178
v -3.257526 1.021956 0.1107178
v -4.881348 0.8557488 0.08243722
v -3.256205 0.881229 0.1107178
v -4.881957 0.9964758 0.08243722
v -6.466034 0.9132859 0.1107178
v -6.466034 1.054013 0.1107178
v 0.003466439 0.9132859 0.1107178
v -1.648043 0.8756886 -0.0298591
v 0.003466439 0.9132859 0.00396193
v -1.648043 0.8756886 0.07689673
v -3.256205 0.881229 0.1107178
v -3.256205 0.881229 0.00396193
v -1.597278 1.016416 0.07689673
v 0.003466439 1.054013 0.1107178
v 0.003466439 1.054013 0.00396193
v -1.597278 1.016416 -0.0298591
v -3.257526 1.021956 0.1107178
v -3.257526 1.021956 0.00396193
v 0.01039581 0.5898352 0.1107178
v -1.598209 0.4354447 0.1003575
v 0.01039581 0.4491082 0.1107178
v -1.591993 0.5788068 0.1003575
v -2.705039 0.396466 0.1406199
v -2.692876 0.5387396 0.1406199
v -3.258465 0.5766146 0.1107178
v -3.245334 0.4351969 0.1107178
v -6.462889 0.5930859 0.00396193
v -5.855432 0.394942 -0.01647333
v -6.462889 0.4523589 0.00396193
v -5.830462 0.5353987 -0.01645081
v -4.652063 0.4255273 0.03352624
v -4.659451 0.5666447 0.03352624
v -3.258465 0.5766146 0.00396193
v -3.245334 0.4351969 0.00396193
v -1.597278 1.016416 -0.0298591
v 0.003466439 1.054013 0.00396193
v 0.003466439 0.9132859 0.00396193
v -1.648043 0.8756886 -0.0298591
v -3.257526 1.021956 0.00396193
v -3.256205 0.881229 0.00396193
v -6.32759 1.305512 0.1698013
v -6.527603 1.305512 0.1698013
v -6.527603 -0.00836529 0.1698013
v -6.32759 -0.00836529 0.1698013
v -6.32759 1.305512 0.1698013
v -6.32759 -0.00836529 0.1698013
v -6.323874 -0.00836529 -0.03392813
v -6.323874 1.305512 -0.03392813
v -6.527603 1.305512 0.1698013
v -6.53213 1.305512 -0.03392813
v -6.53213 -0.00836529 -0.03392813
v -6.527603 -0.00836529 0.1698013
v -3.156123 -0.00836529 0.1660776
v -3.359853 -0.00836529 0.1698013
v -3.359853 -0.00836529 -0.03845512
v -3.156123 -0.00836529 -0.03392813
v -3.359853 -0.00836529 -0.03845512
v -3.359853 -0.00836529 0.1698013
v -3.359853 1.305512 0.1698013
v -3.359853 1.305512 -0.03845512
v -3.156123 1.305512 -0.03392813
v -3.156123 1.305512 0.1660776
v -3.156123 -0.00836529 0.1660776
v -3.156123 -0.00836529 -0.03392813
v -3.359853 -0.00836529 0.1698013
v -3.156123 -0.00836529 0.1660776
v -3.156123 1.305512 0.1660776
v -3.359853 1.305512 0.1698013
v -3.156123 1.305512 -0.03392813
v -3.156123 -0.00836529 -0.03392813
v -3.359853 -0.00836529 -0.03845512
v -3.359853 1.305512 -0.03845512
v -0.110489 -0.00836529 0.1698013
v 0.09324043 -0.00836529 0.1660776
v 0.09324043 1.305512 0.1660776
v -0.110489 1.305512 0.1698013
v 0.09324043 -0.00836529 0.1660776
v -0.110489 -0.00836529 0.1698013
v -0.110489 -0.00836529 -0.03845512
v 0.09324043 -0.00836529 -0.03392813
v 0.09324043 1.305512 0.1660776
v 0.09324043 -0.00836529 0.1660776
v 0.09324043 -0.00836529 -0.03392813
v 0.09324043 1.305512 -0.03392813
v 0.09324043 1.305512 -0.03392813
v 0.09324043 -0.00836529 -0.03392813
v -0.110489 -0.00836529 -0.03845512
v -0.110489 1.305512 -0.03845512
v -0.110489 1.305512 -0.03845512
v -0.110489 -0.00836529 -0.03845512
v -0.110489 -0.00836529 0.1698013
v -0.110489 1.305512 0.1698013
v -4.881957 0.9964758 0.0003808802
v -3.257526 1.021956 0.00396193
v -3.256205 0.881229 0.00396193
v -4.881348 0.8557488 0.0003808802
v -6.466034 1.054013 0.00396193
v -6.466034 0.9132859 0.00396193
v -3.245334 0.4351969 0.00396193
v -3.258465 0.5766146 0.00396193
v -2.692876 0.5387396 0.04787296
v -2.705039 0.396466 0.04787296
v -1.591993 0.5788068 0.01435223
v -1.598209 0.4354447 0.01435223
v 0.01039581 0.4491082 0.00396193
v 0.01039581 0.5898352 0.00396193
v -4.881348 0.8557488 0.0003808802
v -3.256205 0.881229 0.00396193
v -3.256205 0.881229 0.1107178
v -4.881348 0.8557488 0.08243722
v -6.466034 0.9132859 0.00396193
v -6.466034 0.9132859 0.1107178
v -4.652063 0.4255273 0.03352624
v -3.245334 0.4351969 0.00396193
v -3.245334 0.4351969 0.1107178
v -4.652063 0.4255273 0.1311005
v -5.855432 0.394942 -0.01647333
v -5.855432 0.394942 0.09029001
v -6.462889 0.4523589 0.00396193
v -6.462889 0.4523589 0.1107178
v -3.258465 0.5766146 0.1107178
v -2.692876 0.5387396 0.04787296
v -3.258465 0.5766146 0.00396193
v -2.692876 0.5387396 0.1406199
v -1.591993 0.5788068 0.01435223
v -1.591993 0.5788068 0.1003575
v 0.01039581 0.5898352 0.00396193
v 0.01039581 0.5898352 0.1107178
v -5.830462 0.5353987 -0.01645081
v -6.462889 0.5930859 0.00396193
v -6.462889 0.5930859 0.1107178
v -5.830462 0.5353987 0.09031253
v -4.659451 0.5666447 0.1311005
v -4.659451 0.5666447 0.03352624
v -3.258465 0.5766146 0.1107178
v -3.258465 0.5766146 0.00396193
v -6.462889 0.5930859 0.1107178
v -6.462889 0.4523589 0.1107178
v -5.855432 0.394942 0.09029001
v -5.830462 0.5353987 0.09031253
v -4.659451 0.5666447 0.1311005
v -4.652063 0.4255273 0.1311005
v -3.258465 0.5766146 0.1107178
v -3.245334 0.4351969 0.1107178
v -4.881957 0.9964758 0.08243722
v -6.466034 1.054013 0.00396193
v -6.466034 1.054013 0.1107178
v -4.881957 0.9964758 0.0003808802
v -3.257526 1.021956 0.1107178
v -3.257526 1.021956 0.00396193
v -2.705039 0.396466 0.1406199
v -3.245334 0.4351969 0.1107178
v -3.245334 0.4351969 0.00396193
v -2.705039 0.396466 0.04787296
v -1.598209 0.4354447 0.01435223
v -1.598209 0.4354447 0.1003575
v 0.01039581 0.4491082 0.1107178
v 0.01039581 0.4491082 0.00396193
v 0.09324043 1.305512 -0.03392813
v -0.110489 1.305512 -0.03845512
v -0.006766205 1.339986 0.06607851
v 0.09324043 1.305512 0.1660776
v -0.110489 1.305512 0.1698013
v -3.359853 1.305512 -0.03845512
v -3.359853 1.305512 0.1698013
v -3.25613 1.339986 0.06607851
v -3.156123 1.305512 -0.03392813
v -3.156123 1.305512 0.1660776
v -6.323874 1.305512 -0.03392813
v -6.53213 1.305512 -0.03392813
v -6.427596 1.339986 0.06979469
v -6.32759 1.305512 0.1698013
v -6.527603 1.305512 0.1698013
vn 0.0009775166 -0.9999995 0
vn 0.0009775166 -0.9999995 0
vn 0.0009775166 -0.9999995 0
vn 0.0009775166 -0.9999995 0
vn 0.0009775171 0.0009775171 -0.999999
vn 0.0009775171 0.0009775171 -0.999999
vn 0.0009775171 0.0009775171 -0.999999
vn 0.0009775171 0.0009775171 -0.999999
vn -0.02052786 0.002932551 0.999785
vn 0.004887586 -0.0009775171 0.9999875
vn -0.02052786 0.002932551 0.999785
vn -0.004887586 0.0009775171 0.9999875
vn 0.0009775171 -0.0009775171 0.999999
vn 0.0009775171 -0.0009775171 0.999999
vn 0.0009775171 -0.0009775171 0.999999
vn 0.0009775171 -0.0009775171 0.999999
vn 0.0009775171 -0.0009775171 0.999999
vn 0.0009775171 -0.0009775171 0.999999
vn 0.01857283 0.0009775171 0.999827
vn 0.01857283 0.0009775171 0.999827
vn 0.02247721 -0.9997473 0
vn 0.008797314 -0.9999614 0
vn 0.02247721 -0.9997473 0
vn 0.008797314 -0.9999614 0
vn 0.00684246 -0.9999766 0
vn 0.00684246 -0.9999766 0
vn -0.01075207 0.9999422 0
vn -0.02443063 0.9997014 0
vn -0.02443063 0.9997014 0
vn -0.01075207 0.9999422 0
vn -0.00684246 0.9999766 0
vn -0.00684246 0.9999766 0
vn -0.00684262 0.0009775171 0.9999761
vn 0.01661779 -0.0009775171 0.9998614
vn -0.00684262 0.0009775171 0.9999761
vn 0.01466276 -0.0009775171 0.999892
vn -0.01075269 -0.0009775171 0.9999417
vn -0.00684262 -0.0009775171 0.9999761
vn -0.01661779 0.0009775171 0.9998614
vn -0.02248289 0.0009775171 0.9997467
vn -0.03225806 0.002932551 -0.9994753
vn 0.0009775171 0.0009775171 -0.999999
vn -0.03225806 0.002932551 -0.9994753
vn 0.008797654 -0.0009775171 -0.9999608
vn 0.01075269 -0.002932551 -0.9999379
vn 0.01075269 -0.002932551 -0.9999379
vn 0.02443793 -0.0009775171 -0.9997008
vn 0.03225806 -0.0009775171 -0.9994791
vn 0.004887586 -0.0009775171 -0.9999875
vn 0.02052786 -0.002932551 -0.999785
vn 0.02052786 -0.002932551 -0.999785
vn -0.004887586 0.0009775171 -0.9999875
vn -0.008797654 0.0009775171 -0.9999608
vn -0.008797654 0.0009775171 -0.9999608
vn 0.0009775171 0.0009775171 0.999999
vn 0.0009775171 0.0009775171 0.999999
vn 0.0009775171 0.0009775171 0.999999
vn 0.0009775171 0.0009775171 0.999999
vn 0.9999995 0.0009775166 0
vn 0.9999995 0.0009775166 0
vn 0.9999995 0.0009775166 0
vn 0.9999995 0.0009775166 0
vn -0.9999995 0.0009775166 0
vn -0.9999995 0.0009775166 0
vn -0.9999995 0.0009775166 0
vn -0.9999995 0.0009775166 0
vn 0.0009775166 -0.9999995 0
vn 0.0009775166 -0.9999995 0
vn 0.0009775166 -0.9999995 0
vn 0.0009775166 -0.9999995 0
vn -0.9999995 0.0009775166 0
vn -0.9999995 0.0009775166 0
vn -0.9999995 0.0009775166 0
vn -0.9999995 0.0009775166 0
vn 0.9999995 0.0009775166 0
vn 0.9999995 0.0009775166 0
vn 0.9999995 0.0009775166 0
vn 0.9999995 0.0009775166 0
vn 0.01857283 0.0009775171 0.999827
vn 0.01857283 0.0009775171 0.999827
vn 0.01857283 0.0009775171 0.999827
vn 0.01857283 0.0009775171 0.999827
vn 0.02248289 0.0009775171 -0.9997467
vn 0.02248289 0.0009775171 -0.9997467
vn 0.02248289 0.0009775171 -0.9997467
vn 0.02248289 0.0009775171 -0.9997467
vn 0.01857283 0.0009775171 0.999827
vn 0.01857283 0.0009775171 0.999827
vn 0.01857283 0.0009775171 0.999827
vn 0.01857283 0.0009775171 0.999827
vn 0.0009775166 -0.9999995 0
vn 0.0009775166 -0.9999995 0
vn 0.0009775166 -0.9999995 0
vn 0.0009775166 -0.9999995 0
vn 0.9999995 0.0009775166 0
vn 0.9999995 0.0009775166 0
vn 0.9999995 0.0009775166 0
vn 0.9999995 0.0009775166 0
vn 0.02248289 0.0009775171 -0.9997467
vn 0.02248289 0.0009775171 -0.9997467
vn 0.02248289 0.0009775171 -0.9997467
vn 0.02248289 0.0009775171 -0.9997467
vn -0.9999995 0.0009775166 0
vn -0.9999995 0.0009775166 0
vn -0.9999995 0.0009775166 0
vn -0.9999995 0.0009775166 0
vn -0.0009775171 0.0009775171 -0.999999
vn -0.008797654 0.0009775171 -0.9999608
vn -0.008797654 0.0009775171 -0.9999608
vn 0.0009775171 0.0009775171 -0.999999
vn -0.002932551 0.0009775171 -0.9999952
vn -0.002932551 0.0009775171 -0.9999952
vn 0.03225806 -0.0009775171 -0.9994791
vn 0.02443793 -0.0009775171 -0.9997008
vn 0.02248289 0.0009775171 -0.9997467
vn 0.02639296 0.0009775171 -0.9996511
vn -0.01857283 0.0009775171 -0.999827
vn -0.01857283 0.0009775171 -0.999827
vn -0.00684262 0.0009775171 -0.9999761
vn -0.00684262 0.0009775171 -0.9999761
vn -0.01075207 -0.9999422 0
vn 0.00684246 -0.9999766 0
vn 0.00684246 -0.9999766 0
vn -0.01075207 -0.9999422 0
vn -0.0361445 -0.9993466 0
vn -0.0361445 -0.9993466 0
vn 0.0166155 -0.999862 0
vn -0.0322413 -0.9994802 0
vn -0.0322413 -0.9994802 0
vn 0.0166155 -0.999862 0
vn -0.03419309 -0.9994153 0
vn -0.03419309 -0.9994153 0
vn -0.09476298 -0.9954998 0
vn -0.09476298 -0.9954998 0
vn 0.03028913 0.9995412 0
vn 0.0166155 0.999862 0
vn 0.02833661 0.9995984 0
vn 0.01466118 0.9998925 0
vn -0.02052354 0.9997894 0
vn -0.02247721 0.9997473 0
vn -0.00684246 0.9999766 0
vn -0.00684246 0.9999766 0
vn 0.0322413 0.9994802 0
vn 0.0908882 0.9958611 0
vn 0.0908882 0.9958611 0
vn 0.0322413 0.9994802 0
vn -0.0166155 0.999862 0
vn -0.0166155 0.999862 0
vn 0.03028913 0.9995412 0
vn 0.02833661 0.9995984 0
vn 0.03225806 -0.002932551 0.9994753
vn 0.03225806 -0.002932551 0.9994753
vn 0.002932551 -0.0009775171 0.9999952
vn -0.002932551 -0.0009775171 0.9999952
vn -0.01075269 0.0009775171 0.9999417
vn -0.008797654 0.0009775171 0.9999608
vn -0.01661779 0.0009775171 0.9998614
vn -0.02248289 0.0009775171 0.9997467
vn 0.01075207 0.9999422 0
vn 0.0361445 0.9993466 0
vn 0.0361445 0.9993466 0
vn 0.01075207 0.9999422 0
vn -0.00684246 0.9999766 0
vn -0.00684246 0.9999766 0
vn -0.01856962 -0.9998275 0
vn -0.0322413 -0.9994802 0
vn -0.0322413 -0.9994802 0
vn -0.01856962 -0.9998275 0
vn 0.02247721 -0.9997473 0
vn 0.02247721 -0.9997473 0
vn 0.008797314 -0.9999614 0
vn 0.008797314 -0.9999614 0
vn 0.1691105 0.9706745 -0.1708585
vn -0.1593353 0.9745846 -0.1574713
vn 0.004887527 0.9999881 0
vn 0.1691105 0.9706745 0.1708585
vn -0.1612903 0.9726295 0.1672638
vn -0.1593353 0.9745846 -0.1574713
vn -0.1612903 0.9726295 0.1672638
vn 0.004887527 0.9999881 0
vn 0.1691105 0.9706745 -0.1708585
vn 0.1691105 0.9706745 0.1708585
vn 0.1632454 0.9726295 -0.1653562
vn -0.1632454 0.9745846 -0.153414
vn 0.0009775166 0.9999995 0
vn 0.1671554 0.9706745 0.1727717
vn -0.1652004 0.9706745 0.174642
vt 0.8891661 0.6591732
vt 0.9047886 0.6591732
vt 0.9047886 0.6748109
vt 0.8886665 0.6748109
vt 0.9306445 0.7055714
vt 0.9072712 0.7055714
vt 0.9072712 0.5756867
vt 0.9306445 0.5756867
vt 0.8872133 0.9897435
vt 0.8671856 0.7788095
vt 0.8671856 0.9897435
vt 0.8872133 0.7851523
vt 0.8671856 0.5776395
vt 0.8872133 0.5776395
vt 0.8872133 0.5776395
vt 0.8671856 0.7900419
vt 0.8671856 0.5776395
vt 0.8872133 0.7905263
vt 0.8671856 0.9897435
vt 0.8872133 0.9897435
vt 0.9516561 0.9897435
vt 0.932128 0.7788095
vt 0.932128 0.9897435
vt 0.9516561 0.7788095
vt 0.9516561 0.5776395
vt 0.9326124 0.5776395
vt 0.8872133 0.7851523
vt 0.8872133 0.9897435
vt 0.9082098 0.9897435
vt 0.9082098 0.7851523
vt 0.8872133 0.5776395
vt 0.9082098 0.5776395
vt 0.8872133 0.9897435
vt 0.8671856 0.7817311
vt 0.8671856 0.9897435
vt 0.8872133 0.7817311
vt 0.8671856 0.6457458
vt 0.8872133 0.6481224
vt 0.8872133 0.5776395
vt 0.8671856 0.5776395
vt 0.9077103 0.9897435
vt 0.9316435 0.9133113
vt 0.9316435 0.9897435
vt 0.9077103 0.9101172
vt 0.9316435 0.7582974
vt 0.9077103 0.7592813
vt 0.9077103 0.5776395
vt 0.9316435 0.5776395
vt 0.9082098 0.7851523
vt 0.9082098 0.9897435
vt 0.932128 0.9897435
vt 0.932128 0.7788095
vt 0.9082098 0.5776395
vt 0.9326124 0.5776395
vt 0.8868499 0.7055714
vt 0.8676246 0.7055714
vt 0.8676246 0.5756867
vt 0.8868499 0.5756867
vt 0.8868499 0.7055714
vt 0.8868499 0.5756867
vt 0.9072712 0.5756867
vt 0.9072712 0.7055714
vt 0.8676246 0.7055714
vt 0.9306445 0.7055714
vt 0.9306445 0.5756867
vt 0.8676246 0.5756867
vt 0.8886665 0.6591732
vt 0.9047886 0.6591732
vt 0.9047886 0.6757797
vt 0.8886665 0.6748109
vt 0.9296907 0.5756867
vt 0.8676246 0.5756867
vt 0.8676246 0.7055714
vt 0.9296907 0.7055714
vt 0.9072712 0.7055714
vt 0.8875766 0.7055714
vt 0.8875766 0.5756867
vt 0.9072712 0.5756867
vt 0.8676246 0.5756867
vt 0.8875766 0.5756867
vt 0.8875766 0.7055714
vt 0.8676246 0.7055714
vt 0.9072712 0.7055714
vt 0.9072712 0.5756867
vt 0.9296907 0.5756867
vt 0.9296907 0.7055714
vt 0.8676246 0.5756867
vt 0.8875766 0.5756867
vt 0.8875766 0.7055714
vt 0.8676246 0.7055714
vt 0.8886665 0.6591732
vt 0.9047886 0.6591732
vt 0.9047886 0.6757797
vt 0.8886665 0.6748109
vt 0.8875766 0.7055714
vt 0.8875766 0.5756867
vt 0.9072712 0.5756867
vt 0.9072712 0.7055714
vt 0.9072712 0.7055714
vt 0.9072712 0.5756867
vt 0.9296907 0.5756867
vt 0.9296907 0.7055714
vt 0.9296907 0.7055714
vt 0.9296907 0.5756867
vt 0.8676246 0.5756867
vt 0.8676246 0.7055714
vt 0.9082098 0.7905263
vt 0.9082098 0.5776395
vt 0.9326124 0.5776395
vt 0.9326124 0.7900419
vt 0.9082098 0.9897435
vt 0.9326124 0.9897435
vt 0.9316435 0.5776395
vt 0.9077103 0.5776395
vt 0.9077103 0.6481224
vt 0.9318101 0.6457458
vt 0.9077103 0.7817311
vt 0.932128 0.7817311
vt 0.9316435 0.9897435
vt 0.9077103 0.9897435
vt 0.9326124 0.7900419
vt 0.9326124 0.5776395
vt 0.9516561 0.5776395
vt 0.9516561 0.7900419
vt 0.9326124 0.9897435
vt 0.9516561 0.9897435
vt 0.9316435 0.7582974
vt 0.9316435 0.5776395
vt 0.9511716 0.5776395
vt 0.9511716 0.7582974
vt 0.9316435 0.9133113
vt 0.9511716 0.9133113
vt 0.9316435 0.9897435
vt 0.9511716 0.9897435
vt 0.8872133 0.5776395
vt 0.9077103 0.6481224
vt 0.9077103 0.5776395
vt 0.8872133 0.6481224
vt 0.9077103 0.7817311
vt 0.8872133 0.7817311
vt 0.9077103 0.9897435
vt 0.8872133 0.9897435
vt 0.9077103 0.9101172
vt 0.9077103 0.9897435
vt 0.8872133 0.9897435
vt 0.8872133 0.9101172
vt 0.8872133 0.7592813
vt 0.9077103 0.7592813
vt 0.8872133 0.5776395
vt 0.9077103 0.5776395
vt 0.8872133 0.9897435
vt 0.8671856 0.9897435
vt 0.8671856 0.9133113
vt 0.8872133 0.9101172
vt 0.8872133 0.7592813
vt 0.8671856 0.7582974
vt 0.8872133 0.5776395
vt 0.8671856 0.5776395
vt 0.8872133 0.7905263
vt 0.9082098 0.9897435
vt 0.8872133 0.9897435
vt 0.9082098 0.7905263
vt 0.8872133 0.5776395
vt 0.9082098 0.5776395
vt 0.9513382 0.6457458
vt 0.9511716 0.5776395
vt 0.9316435 0.5776395
vt 0.9318101 0.6457458
vt 0.932128 0.7817311
vt 0.9516561 0.7817311
vt 0.9511716 0.9897435
vt 0.9316435 0.9897435
vt 0.8891661 0.6700423
vt 0.9053941 0.6704057
vt 0.897598 0.6620798
vt 0.8891661 0.654102
vt 0.9053941 0.6538143
vt 0.9053941 0.6704057
vt 0.9053941 0.6538143
vt 0.897598 0.6620798
vt 0.8891661 0.6700423
vt 0.8891661 0.654102
vt 0.8891661 0.6700423
vt 0.9057574 0.6700423
vt 0.8979008 0.661777
vt 0.8894537 0.6538143
vt 0.9053941 0.6538143
f 1/1/1 2/2/2 3/3/3
f 1/1/1 3/3/3 4/4/4
f 5/5/5 6/6/6 7/7/7
f 5/5/5 7/7/7 8/8/8
f 9/9/9 10/10/10 11/11/11
f 9/9/9 12/12/12 10/10/10
f 12/12/12 13/13/13 10/10/10
f 12/12/12 14/14/14 13/13/13
f 15/15/15 16/16/16 17/17/17
f 15/15/15 18/18/18 16/16/16
f 18/18/18 19/19/19 16/16/16
f 18/18/18 20/20/20 19/19/19
f 21/21/21 22/22/22 23/23/23
f 21/21/21 24/24/24 22/22/22
f 22/22/22 24/24/24 25/25/25
f 22/22/22 25/25/25 26/26/26
f 27/27/27 28/28/28 29/29/29
f 27/27/27 29/29/29 30/30/30
f 31/31/31 27/27/27 30/30/30
f 31/31/31 30/30/30 32/32/32
f 33/33/33 34/34/34 35/35/35
f 33/33/33 36/36/36 34/34/34
f 36/36/36 37/37/37 34/34/34
f 36/36/36 38/38/38 37/37/37
f 39/39/39 37/37/37 38/38/38
f 39/39/39 40/40/40 37/37/37
f 41/41/41 42/42/42 43/43/43
f 41/41/41 44/44/44 42/42/42
f 44/44/44 45/45/45 42/42/42
f 44/44/44 46/46/46 45/45/45
f 45/45/45 46/46/46 47/47/47
f 45/45/45 47/47/47 48/48/48
f 49/49/49 50/50/50 51/51/51
f 49/49/49 51/51/51 52/52/52
f 53/53/53 49/49/49 52/52/52
f 53/53/53 52/52/52 54/54/54
f 55/55/55 56/56/56 57/57/57
f 55/55/55 57/57/57 58/58/58
f 59/59/59 60/60/60 61/61/61
f 59/59/59 61/61/61 62/62/62
f 63/63/63 64/64/64 65/65/65
f 63/63/63 65/65/65 66/66/66
f 67/67/67 68/68/68 69/69/69
f 67/67/67 69/69/69 70/70/70
f 71/71/71 72/72/72 73/73/73
f 71/71/71 73/73/73 74/74/74
f 75/75/75 76/76/76 77/77/77
f 75/75/75 77/77/77 78/78/78
f 79/79/79 80/80/80 81/81/81
f 79/79/79 81/81/81 82/82/82
f 83/83/83 84/84/84 85/85/85
f 83/83/83 85/85/85 86/86/86
f 87/87/87 88/88/88 89/89/89
f 87/87/87 89/89/89 90/90/90
f 91/91/91 92/92/92 93/93/93
f 91/91/91 93/93/93 94/94/94
f 95/95/95 96/96/96 97/97/97
f 95/95/95 97/97/97 98/98/98
f 99/99/99 100/100/100 101/101/101
f 99/99/99 101/101/101 102/102/102
f 103/103/103 104/104/104 105/105/105
f 103/103/103 105/105/105 106/106/106
f 107/107/107 108/108/108 109/109/109
f 107/107/107 109/109/109 110/110/110
f 111/111/111 107/107/107 110/110/110
f 111/111/111 110/110/110 112/112/112
f 113/113/113 114/114/114 115/115/115
f 113/113/113 115/115/115 116/116/116
f 116/116/116 115/115/115 117/117/117
f 116/116/116 117/117/117 118/118/118
f 117/117/117 119/119/119 118/118/118
f 117/117/117 120/120/120 119/119/119
f 121/121/121 122/122/122 123/123/123
f 121/121/121 123/123/123 124/124/124
f 125/125/125 121/121/121 124/124/124
f 125/125/125 124/124/124 126/126/126
f 127/127/127 128/128/128 129/129/129
f 127/127/127 129/129/129 130/130/130
f 131/131/131 127/127/127 130/130/130
f 131/131/131 130/130/130 132/132/132
f 133/133/133 131/131/131 132/132/132
f 133/133/133 132/132/132 134/134/134
f 135/135/135 136/136/136 137/137/137
f 135/135/135 138/138/138 136/136/136
f 138/138/138 139/139/139 136/136/136
f 138/138/138 140/140/140 139/139/139
f 140/140/140 141/141/141 139/139/139
f 140/140/140 142/142/142 141/141/141
f 143/143/143 144/144/144 145/145/145
f 143/143/143 145/145/145 146/146/146
f 147/147/147 143/143/143 146/146/146
f 147/147/147 148/148/148 143/143/143
f 149/149/149 148/148/148 147/147/147
f 149/149/149 150/150/150 148/148/148
f 151/151/151 152/152/152 153/153/153
f 151/151/151 153/153/153 154/154/154
f 155/155/155 154/154/154 153/153/153
f 155/155/155 153/153/153 156/156/156
f 157/157/157 155/155/155 156/156/156
f 157/157/157 156/156/156 158/158/158
f 159/159/159 160/160/160 161/161/161
f 159/159/159 162/162/162 160/160/160
f 163/163/163 162/162/162 159/159/159
f 163/163/163 164/164/164 162/162/162
f 165/165/165 166/166/166 167/167/167
f 165/165/165 167/167/167 168/168/168
f 169/169/169 165/165/165 168/168/168
f 169/169/169 170/170/170 165/165/165
f 171/171/171 170/170/170 169/169/169
f 171/171/171 169/169/169 172/172/172
f 173/173/173 174/174/174 175/175/175
f 173/173/173 175/175/175 176/176/176
f 174/174/174 177/177/177 175/175/175
f 175/175/175 177/177/177 176/176/176
f 178/178/178 179/179/179 180/180/180
f 181/181/181 178/178/178 180/180/180
f 180/180/180 179/179/179 182/182/182
f 181/181/181 180/180/180 182/182/182
f 183/183/183 184/184/184 185/185/185
f 186/186/186 183/183/183 185/185/185
f 185/185/185 184/184/184 187/187/187
f 186/186/186 185/185/185 187/187/187
