v 3.699999 0.8 -0.4
v 4 0.8 -0.4
v 4 -2.709302E-08 -0.4
v 3.699999 -2.709302E-08 -0.4
v 0.300001 0.8 -0.4
v 0.300001 -2.709302E-08 -0.4
v -2.709302E-08 0.8 -0.4
v -2.709302E-08 -2.709302E-08 -0.4
v 4 0.8 0.5999979
v 4 -2.709302E-08 -0.4
v 4 0.8 -0.4
v 4 -2.709302E-08 0.5999979
v 4 -2.709302E-08 0.7000011
v 4 0.8 0.7000011
v -2.709302E-08 -2.709302E-08 0.7000011
v -2.709302E-08 0.8 0.7000011
v -2.709302E-08 0.8 -0.4
v -2.709302E-08 -2.709302E-08 -0.4
v -2.709302E-08 1.000002 0.7903697
v 4 1.000002 -0.4
v -2.709302E-08 1.000002 -0.4
v 4 1.000002 0.7903697
v 4 0.9903719 0.8
v -2.709302E-08 0.9903719 0.8
v -2.709302E-08 1.000002 -0.4
v 4 1.000002 -0.4
v 4 0.8 -0.4
v -2.709302E-08 0.8 -0.4
v 4 0.8 0.8
v -2.709302E-08 0.8 0.8
v -2.709302E-08 0.8 -0.4
v 4 0.8 -0.4
v 4 0.9903719 0.8
v 4 0.8 0.8
v 4 0.8 -0.4
v 4 1.000002 -0.4
v 4 1.000002 0.7903697
v -2.709302E-08 0.9903719 0.8
v -2.709302E-08 0.8 0.8
v 4 0.8 0.8
v 4 0.9903719 0.8
v -2.709302E-08 0.8 0.7000011
v -2.709302E-08 -2.709302E-08 0.7000011
v 0.1792814 -2.709302E-08 0.7000011
v 0.1792814 0.8 0.7000011
v 0.2000021 -2.709302E-08 0.7000011
v 0.2000021 0.8 0.7000011
v 0.211038 -2.709302E-08 0.6889651
v 0.211038 0.8 0.6889651
v 0.281219 -2.709302E-08 0.61878
v 0.281219 0.8 0.61878
v 0.300001 -2.709302E-08 0.5999979
v 0.300001 0.8 0.5999979
v 0.3392436 -2.709302E-08 0.5999979
v 0.3392436 0.8 0.5999979
v 3.664587 -2.709302E-08 0.5999979
v 3.664587 0.8 0.5999979
v 3.699999 -2.709302E-08 0.5999979
v 3.699999 0.8 0.5999979
v 3.717535 0.8 0.6175337
v 3.717535 -2.709302E-08 0.6175337
v 3.791098 0.8 0.6910968
v 3.791098 -2.709302E-08 0.6910968
v 3.800002 0.8 0.7000011
v 3.800002 -2.709302E-08 0.7000011
v 3.815989 -2.709302E-08 0.7000011
v 3.815989 0.8 0.7000011
v 4 -2.709302E-08 0.7000011
v 4 0.8 0.7000011
v -2.709302E-08 1.000002 -0.4
v -2.709302E-08 0.8 -0.4
v -2.709302E-08 0.8 0.8
v -2.709302E-08 0.9903719 0.8
v -2.709302E-08 1.000002 0.7903697
vn 0.0009775171 0.0009775171 -0.999999
vn 0.0009775171 0.0009775171 -0.999999
vn 0.0009775171 0.0009775171 -0.999999
vn 0.0009775171 0.0009775171 -0.999999
vn 0.0009775171 0.0009775171 -0.999999
vn 0.0009775171 0.0009775171 -0.999999
vn 0.0009775171 0.0009775171 -0.999999
vn 0.0009775171 0.0009775171 -0.999999
vn 0.9999995 0.0009775166 0
vn 0.9999995 0.0009775166 0
vn 0.9999995 0.0009775166 0
vn 0.9999995 0.0009775166 0
vn 0.7067448 0.0009775171 0.7074679
vn 0.7067448 0.0009775171 0.7074679
vn -0.9999995 0.0009775166 0
vn -0.9999995 0.0009775166 0
vn -0.9999995 0.0009775166 0
vn -0.9999995 0.0009775166 0
vn 0.0009775171 0.9237537 0.3829859
vn 0.0009775166 0.9999995 0
vn 0.0009775166 0.9999995 0
vn 0.0009775171 0.9237537 0.3829859
vn 0.0009775171 0.3822092 0.9240753
vn 0.0009775171 0.3822092 0.9240753
vn 0.0009775171 0.0009775171 -0.999999
vn 0.0009775171 0.0009775171 -0.999999
vn 0.0009775171 0.0009775171 -0.999999
vn 0.0009775171 0.0009775171 -0.999999
vn 0.0009775171 -0.7067448 0.7074679
vn 0.0009775171 -0.7067448 0.7074679
vn 0.0009775166 -0.9999995 0
vn 0.0009775166 -0.9999995 0
vn 0.9999995 0.0009775166 0
vn 0.9999995 0.0009775166 0
vn 0.9999995 0.0009775166 0
vn 0.9999995 0.0009775166 0
vn 0.9999995 0.0009775166 0
vn 0.0009775171 0.3822092 0.9240753
vn 0.0009775171 -0.7067448 0.7074679
vn 0.0009775171 -0.7067448 0.7074679
vn 0.0009775171 0.3822092 0.9240753
vn 0.0009775171 0.0009775171 0.999999
vn 0.0009775171 0.0009775171 0.999999
vn 0.0009775171 0.0009775171 0.999999
vn 0.0009775171 0.0009775171 0.999999
vn 0.3822092 0.0009775171 0.9240753
vn 0.3822092 0.0009775171 0.9240753
vn 0.7067448 0.0009775171 0.7074679
vn 0.7067448 0.0009775171 0.7074679
vn 0.7067448 0.0009775171 0.7074679
vn 0.7067448 0.0009775171 0.7074679
vn 0.3822092 0.0009775171 0.9240753
vn 0.3822092 0.0009775171 0.9240753
vn 0.0009775171 0.0009775171 0.999999
vn 0.0009775171 0.0009775171 0.999999
vn 0.0009775171 0.0009775171 0.999999
vn 0.0009775171 0.0009775171 0.999999
vn -0.3822092 0.0009775171 0.9240753
vn -0.3822092 0.0009775171 0.9240753
vn -0.7067448 0.0009775171 0.7074679
vn -0.7067448 0.0009775171 0.7074679
vn -0.7067448 0.0009775171 0.7074679
vn -0.7067448 0.0009775171 0.7074679
vn -0.3822092 0.0009775171 0.9240753
vn -0.3822092 0.0009775171 0.9240753
vn 0.0009775171 0.0009775171 0.999999
vn 0.0009775171 0.0009775171 0.999999
vn 0.7067448 0.0009775171 0.7074679
vn 0.7067448 0.0009775171 0.7074679
vn -0.9999995 0.0009775166 0
vn -0.9999995 0.0009775166 0
vn -0.9999995 0.0009775166 0
vn -0.9999995 0.0009775166 0
vn -0.9999995 0.0009775166 0
vt 0.2158198 0.1303748
vt 0.2016568 0.1303748
vt 0.2016568 0.09082393
vt 0.2158198 0.09082393
vt 0.3847662 0.1303748
vt 0.3847662 0.09082393
vt 0.3999085 0.1303748
vt 0.3999085 0.09082393
vt 0.2040977 0.1865296
vt 0.136718 0.1318363
vt 0.136718 0.1865296
vt 0.2040977 0.1318363
vt 0.2109381 0.1318363
vt 0.2109381 0.1865296
vt 0.2109381 0.1318363
vt 0.2109381 0.1865296
vt 0.136718 0.1865296
vt 0.136718 0.1318363
vt 0.4003907 0.1411176
vt 0 0.2001954
vt 0.4003907 0.2001954
vt 0 0.1411176
vt 0 0.1401383
vt 0.4003907 0.1401383
vt 0.4003907 0.1401383
vt 0 0.1401383
vt 0 0.1303748
vt 0.4003907 0.1303748
vt 0 0.1411176
vt 0.4003907 0.1411176
vt 0.4003907 0.2001954
vt 0 0.2001954
vt 0.2177785 0.199216
vt 0.2177785 0.1865296
vt 0.136718 0.1865296
vt 0.136718 0.1997132
vt 0.2172813 0.1997132
vt 0.4003907 0.1401383
vt 0.4003907 0.1298776
vt 0 0.1298776
vt 0 0.1401383
vt 0.1997132 0.1298776
vt 0.1997132 0.09032672
vt 0.1905223 0.09032672
vt 0.1905223 0.1298776
vt 0.1894526 0.09032672
vt 0.1894526 0.1298776
vt 0.1889704 0.09032672
vt 0.1889704 0.1298776
vt 0.1858817 0.09032672
vt 0.1858817 0.1298776
vt 0.185053 0.09032672
vt 0.185053 0.1298776
vt 0.1830943 0.09032672
vt 0.1830943 0.1298776
vt 0.01690518 0.09032672
vt 0.01690518 0.1298776
vt 0.01514234 0.09032672
vt 0.01514234 0.1298776
vt 0.01428352 0.1298776
vt 0.01428352 0.09032672
vt 0.01068251 0.1298776
vt 0.01068251 0.09032672
vt 0.01026063 0.1298776
vt 0.01026063 0.09032672
vt 0.009477149 0.09032672
vt 0.009477149 0.1298776
vt 0.0004821443 0.09032672
vt 0.0004821443 0.1298776
vt 0.136718 0.1997132
vt 0.136718 0.1865296
vt 0.2177785 0.1865296
vt 0.2177785 0.199216
vt 0.2172813 0.1997132
f 1/1/1 2/2/2 3/3/3
f 1/1/1 3/3/3 4/4/4
f 5/5/5 1/1/1 4/4/4
f 5/5/5 4/4/4 6/6/6
f 7/7/7 5/5/5 6/6/6
f 7/7/7 6/6/6 8/8/8
f 9/9/9 10/10/10 11/11/11
f 9/9/9 12/12/12 10/10/10
f 9/9/9 13/13/13 12/12/12
f 9/9/9 14/14/14 13/13/13
f 15/15/15 16/16/16 17/17/17
f 15/15/15 17/17/17 18/18/18
f 19/19/19 20/20/20 21/21/21
f 19/19/19 22/22/22 20/20/20
f 23/23/23 22/22/22 19/19/19
f 23/23/23 19/19/19 24/24/24
f 25/25/25 26/26/26 27/27/27
f 25/25/25 27/27/27 28/28/28
f 29/29/29 30/30/30 31/31/31
f 29/29/29 31/31/31 32/32/32
f 33/33/33 34/34/34 35/35/35
f 35/35/35 36/36/36 33/33/33
f 36/36/36 37/37/37 33/33/33
f 38/38/38 39/39/39 40/40/40
f 38/38/38 40/40/40 41/41/41
f 42/42/42 43/43/43 44/44/44
f 42/42/42 44/44/44 45/45/45
f 45/45/45 44/44/44 46/46/46
f 45/45/45 46/46/46 47/47/47
f 47/47/47 46/46/46 48/48/48
f 47/47/47 48/48/48 49/49/49
f 49/49/49 48/48/48 50/50/50
f 49/49/49 50/50/50 51/51/51
f 51/51/51 50/50/50 52/52/52
f 51/51/51 52/52/52 53/53/53
f 53/53/53 52/52/52 54/54/54
f 53/53/53 54/54/54 55/55/55
f 55/55/55 54/54/54 56/56/56
f 55/55/55 56/56/56 57/57/57
f 57/57/57 56/56/56 58/58/58
f 57/57/57 58/58/58 59/59/59
f 58/58/58 60/60/60 59/59/59
f 58/58/58 61/61/61 60/60/60
f 61/61/61 62/62/62 60/60/60
f 61/61/61 63/63/63 62/62/62
f 63/63/63 64/64/64 62/62/62
f 63/63/63 65/65/65 64/64/64
f 64/64/64 65/65/65 66/66/66
f 64/64/64 66/66/66 67/67/67
f 67/67/67 66/66/66 68/68/68
f 67/67/67 68/68/68 69/69/69
f 70/70/70 71/71/71 72/72/72
f 72/72/72 73/73/73 70/70/70
f 73/73/73 74/74/74 70/70/70
