v 0.1000024 -0.4999967 -3.900002
v 3.900002 -0.4999967 -3.900002
v 3.900002 -0.4999967 -0.09999476
v 0.1000024 -0.4999967 -0.09999476
v 0.1000024 -0.4999967 -3.900002
v 3.814701E-06 -0.4999967 -4
v 4 -0.4999967 -4
v 3.900002 -0.4999967 -3.900002
v 4 3.814701E-06 3.814701E-06
v 3.814701E-06 3.814701E-06 3.814701E-06
v 3.814701E-06 -0.4999967 3.814701E-06
v 4 -0.4999967 3.814701E-06
v 4 -3.814701E-06 -4
v 4 3.814701E-06 3.814701E-06
v 4 -0.4999967 3.814701E-06
v 4 -0.4999967 -4
v 3.814701E-06 -3.814701E-06 -4
v 4 -3.814701E-06 -4
v 4 -0.4999967 -4
v 3.814701E-06 -0.4999967 -4
v 4 3.814701E-06 3.814701E-06
v 4 -3.814701E-06 -4
v 3.814701E-06 -3.814701E-06 -4
v 3.814701E-06 3.814701E-06 3.814701E-06
v 3.814701E-06 3.814701E-06 3.814701E-06
v 3.814701E-06 -3.814701E-06 -4
v 3.814701E-06 -0.4999967 -4
v 3.814701E-06 -0.4999967 3.814701E-06
v 3.900002 -0.4999967 -0.09999476
v 4 -0.4999967 3.814701E-06
v 3.814701E-06 -0.4999967 3.814701E-06
v 0.1000024 -0.4999967 -0.09999476
v 3.900002 -0.4999967 -3.900002
v 4 -0.4999967 -4
v 4 -0.4999967 3.814701E-06
v 3.900002 -0.4999967 -0.09999476
v 0.1000024 -0.4999967 -0.09999476
v 3.814701E-06 -0.4999967 3.814701E-06
v 3.814701E-06 -0.4999967 -4
v 0.1000024 -0.4999967 -3.900002
vn 0.0009775166 -0.9999995 0
vn 0.0009775166 -0.9999995 0
vn 0.0009775166 -0.9999995 0
vn 0.0009775166 -0.9999995 0
vn 0.0009775166 -0.9999995 0
vn 0.0009775166 -0.9999995 0
vn 0.0009775166 -0.9999995 0
vn 0.0009775166 -0.9999995 0
vn 0.0009775171 0.0009775171 0.999999
vn 0.0009775171 0.0009775171 0.999999
vn 0.0009775171 0.0009775171 0.999999
vn 0.0009775171 0.0009775171 0.999999
vn 0.9999995 0.0009775166 0
vn 0.9999995 0.0009775166 0
vn 0.9999995 0.0009775166 0
vn 0.9999995 0.0009775166 0
vn 0.0009775171 0.0009775171 -0.999999
vn 0.0009775171 0.0009775171 -0.999999
vn 0.0009775171 0.0009775171 -0.999999
vn 0.0009775171 0.0009775171 -0.999999
vn 0.0009775166 0.9999995 0
vn 0.0009775166 0.9999995 0
vn 0.0009775166 0.9999995 0
vn 0.0009775166 0.9999995 0
vn -0.9999995 0.0009775166 0
vn -0.9999995 0.0009775166 0
vn -0.9999995 0.0009775166 0
vn -0.9999995 0.0009775166 0
vn 0.0009775166 -0.9999995 0
vn 0.0009775166 -0.9999995 0
vn 0.0009775166 -0.9999995 0
vn 0.0009775166 -0.9999995 0
vn 0.0009775166 -0.9999995 0
vn 0.0009775166 -0.9999995 0
vn 0.0009775166 -0.9999995 0
vn 0.0009775166 -0.9999995 0
vn 0.0009775166 -0.9999995 0
vn 0.0009775166 -0.9999995 0
vn 0.0009775166 -0.9999995 0
vn 0.0009775166 -0.9999995 0
vt 0.3898972 0.5825123
vt 0.2111852 0.5825123
vt 0.2111852 0.4035617
vt 0.3901359 0.4035617
vt 0.2788064 0.5532292
vt 0.2678271 0.5576149
vt 0.2678271 0.403323
vt 0.2788064 0.4091856
vt 0.5367005 0.3420567
vt 0.4015329 0.3420567
vt 0.4015329 0.3740249
vt 0.5367005 0.3740249
vt 0.4017715 0.3723094
vt 0.5367005 0.3723094
vt 0.5367005 0.3403262
vt 0.4017715 0.3403262
vt 0.4017715 0.3723094
vt 0.5367005 0.3723094
vt 0.5367005 0.3403262
vt 0.4017715 0.3403262
vt 0.600279 0.3853175
vt 0.600279 0.5850035
vt 0.799965 0.5850035
vt 0.799965 0.3853175
vt 0.5369392 0.3723094
vt 0.4017715 0.3723094
vt 0.4017715 0.3403262
vt 0.5369392 0.3403262
vt 0.298587 0.408201
vt 0.3102973 0.403323
vt 0.3102973 0.5590768
vt 0.298587 0.5532292
vt 0.2409606 0.408201
vt 0.2504929 0.403323
vt 0.2504929 0.5576149
vt 0.2409606 0.5532292
vt 0.3100586 0.4077087
vt 0.319576 0.4023384
vt 0.319576 0.5576149
vt 0.3100586 0.5527369
f 1/1/1 2/2/2 3/3/3
f 1/1/1 3/3/3 4/4/4
f 5/5/5 6/6/6 7/7/7
f 5/5/5 7/7/7 8/8/8
f 9/9/9 10/10/10 11/11/11
f 9/9/9 11/11/11 12/12/12
f 13/13/13 14/14/14 15/15/15
f 13/13/13 15/15/15 16/16/16
f 17/17/17 18/18/18 19/19/19
f 17/17/17 19/19/19 20/20/20
f 21/21/21 22/22/22 23/23/23
f 21/21/21 23/23/23 24/24/24
f 25/25/25 26/26/26 27/27/27
f 25/25/25 27/27/27 28/28/28
f 29/29/29 30/30/30 31/31/31
f 29/29/29 31/31/31 32/32/32
f 33/33/33 34/34/34 35/35/35
f 33/33/33 35/35/35 36/36/36
f 37/37/37 38/38/38 39/39/39
f 37/37/37 39/39/39 40/40/40
