v -2.288376 0.9887297 2.517311
v -2.316612 0.9604935 2.517311
v -2.316612 0.7887298 2.517311
v -1.516613 0.7887298 2.517311
v -1.544849 0.9887297 2.517311
v -1.516613 0.9604935 2.517311
v -2.316612 0.9604935 2.517311
v -2.288376 0.9887297 -0.0008468436
v -2.316612 0.9604935 -0.0008468436
v -2.288376 0.9887297 2.517311
v -1.544849 0.9887297 -0.0008468436
v -1.544849 0.9887297 2.517311
v -2.316612 0.7887298 2.517311
v -2.316612 0.9604935 2.517311
v -2.316612 0.9604935 -0.0008468436
v -2.316612 0.7887298 -0.0008468436
v -2.316612 0.7887298 2.517311
v -2.316612 0.7887298 -0.0008468436
v -1.516613 0.7887298 -0.0008468436
v -1.516613 0.7887298 2.517311
v 1.484064 0.9604935 2.517311
v 1.5123 0.9887297 2.517311
v 1.5123 0.9887297 -0.0008468436
v 1.484064 0.9604935 -0.0008468436
v -2.216613 0.7887298 2.405136
v -2.216613 -0.001270963 2.244856
v -2.216613 -0.001270963 2.405136
v -2.216613 0.7887298 2.244856
v -2.216613 -0.001270963 2.223881
v -2.216613 0.7887298 2.223881
v -2.211463 -0.001270963 2.218731
v -2.211463 0.7887298 2.218731
v -2.126856 -0.001270963 2.134124
v -2.126856 0.7887298 2.134124
v -2.116612 -0.001270963 2.123881
v -2.116612 0.7887298 2.123881
v -2.116612 -0.001270963 2.10758
v -2.116612 0.7887298 2.10758
v -2.116612 -0.001270963 2.001361
v -2.116612 0.7887298 2.001361
v -2.116612 -0.001270963 -0.0008468436
v -2.116612 0.7887298 -0.0008468436
v -2.197873 -0.001270963 2.423881
v -1.593203 -0.001270963 2.423881
v -1.593203 0.7887298 2.423881
v -2.197873 0.7887298 2.423881
v -2.216613 0.7887298 2.405136
v -2.216613 -0.001270963 2.405136
v -1.566613 -0.001270963 2.39729
v -1.566613 0.7887298 2.39729
v -1.593203 0.7887298 2.423881
v -1.593203 -0.001270963 2.423881
v -1.566613 0.7887298 2.39729
v -1.566613 -0.001270963 2.39729
v -1.566613 -0.001270963 2.223881
v -1.566613 0.7887298 2.223881
v -1.616613 -0.001270963 2.123881
v -1.616613 0.7887298 2.123881
v -1.616613 -0.001270963 -0.0008468436
v -1.616613 0.7887298 -0.0008468436
v 1.5123 0.9887297 2.517311
v 1.484064 0.9604935 2.517311
v 1.484064 0.7887298 2.517311
v 2.284064 0.7887298 2.517311
v 2.255828 0.9887297 2.517311
v 2.284064 0.9604935 2.517311
v 1.484064 0.7887298 -0.0008468436
v 2.284064 0.7887298 -0.0008468436
v 2.284064 0.7887298 2.517311
v 1.484064 0.7887298 2.517311
v 1.484064 0.7887298 2.517311
v 1.484064 0.9604935 2.517311
v 1.484064 0.9604935 -0.0008468436
v 1.484064 0.7887298 -0.0008468436
v 2.184064 0.7887298 2.405136
v 2.184064 -0.001270963 2.405136
v 2.184064 -0.001270963 2.244856
v 2.184064 0.7887298 2.244856
v 2.184064 -0.001270963 2.223881
v 2.184064 0.7887298 2.223881
v 2.178919 -0.001270963 2.218731
v 2.178919 0.7887298 2.218731
v 2.094312 -0.001270963 2.134124
v 2.094312 0.7887298 2.134124
v 2.084064 -0.001270963 2.123881
v 2.084064 0.7887298 2.123881
v 2.084064 -0.001270963 2.10758
v 2.084064 0.7887298 2.10758
v 2.084064 -0.001270963 2.001361
v 2.084064 0.7887298 2.001361
v 2.084069 -0.001270963 -0.0008468436
v 2.084064 0.7887298 -0.0008468436
v 2.165324 -0.001270963 2.423881
v 1.560655 0.7887298 2.423881
v 1.560655 -0.001270963 2.423881
v 2.165324 0.7887298 2.423881
v 2.184064 0.7887298 2.405136
v 2.184064 -0.001270963 2.405136
v 1.584064 0.7887298 2.123881
v 1.584064 0.7887298 -0.0008468436
v 1.584064 -0.001270963 -0.0008468436
v 1.584064 -0.001270963 2.123881
v 1.534064 0.7887298 2.223881
v 1.534064 -0.001270963 2.223881
v 1.534064 0.7887298 2.39729
v 1.534064 -0.001270963 2.39729
v 1.534064 -0.001270963 2.39729
v 1.560655 -0.001270963 2.423881
v 1.560655 0.7887298 2.423881
v 1.534064 0.7887298 2.39729
v 2.284064 0.7887298 -0.0008468436
v 1.484064 0.7887298 -0.0008468436
v 1.484064 0.9604935 -0.0008468436
v 1.5123 0.9887297 -0.0008468436
v 2.255828 0.9887297 -0.0008468436
v 2.284064 0.9604935 -0.0008468436
v -1.629682 0.7899883 0.9313676
v -1.629682 0.6869826 0.9067364
v 1.693598 0.6869826 0.9067364
v 1.693598 0.7899883 0.9313676
v -1.629682 0.7899883 0.9313676
v 1.693598 0.7899883 0.9313676
v 1.693598 0.7899883 0.7091936
v -1.629682 0.7899883 0.7091936
v -1.629682 0.6899883 1.131368
v -1.629682 0.5820915 1.10581
v 1.693598 0.5820915 1.10581
v 1.693598 0.6899883 1.131368
v -1.629682 0.5812156 1.370433
v -1.629682 0.4767807 1.342634
v 1.693598 0.4767807 1.342634
v 1.693598 0.5812156 1.370433
v -1.629682 0.4812156 1.570433
v -1.629682 0.3696215 1.540435
v 1.693598 0.3696215 1.540435
v 1.693598 0.4812156 1.570433
v -1.629682 0.3745956 1.777218
v -1.629682 0.2691236 1.747217
v 1.693598 0.2691236 1.747217
v 1.693598 0.3745956 1.777218
v -1.629682 0.1578476 2.16207
v -1.629682 -0.01205374 2.132068
v 1.693598 -0.01205374 2.132068
v 1.693598 0.1578476 2.16207
v -1.629682 0.1578476 2.16207
v 1.693598 0.1578476 2.16207
v 1.693598 0.1578476 1.941357
v -1.629682 0.1578476 1.941357
v -1.629682 0.8923025 0.7331932
v -1.629682 0.7899883 0.7091936
v 1.693598 0.7899883 0.7091936
v 1.693598 0.8923025 0.7331932
v -1.629682 0.6899883 1.131368
v 1.693598 0.6899883 1.131368
v 1.693598 0.6869826 0.9067364
v -1.629682 0.6869826 0.9067364
v -1.629682 0.5812156 1.370433
v 1.693598 0.5812156 1.370433
v 1.693598 0.5820915 1.10581
v -1.629682 0.5820915 1.10581
v -1.629682 0.4812156 1.570433
v 1.693598 0.4812156 1.570433
v 1.693598 0.4767807 1.342634
v -1.629682 0.4767807 1.342634
v -1.629682 0.3745956 1.777218
v 1.693598 0.3745956 1.777218
v 1.693598 0.3696215 1.540435
v -1.629682 0.3696215 1.540435
v -1.629682 0.2745956 1.977214
v -1.629682 0.1578476 1.941357
v 1.693598 0.1578476 1.941357
v 1.693598 0.2745956 1.977214
v -1.629682 0.2745956 1.977214
v 1.693598 0.2745956 1.977214
v 1.693598 0.2691236 1.747217
v -1.629682 0.2691236 1.747217
v 1.5123 0.9887297 2.517311
v 2.255828 0.9887297 2.517311
v 2.255828 0.9887297 -0.0008468436
v 1.5123 0.9887297 -0.0008468436
v -1.516613 0.7887298 -0.0008468436
v -2.316612 0.7887298 -0.0008468436
v -2.316612 0.9604935 -0.0008468436
v -2.288376 0.9887297 -0.0008468436
v -1.544849 0.9887297 -0.0008468436
v -1.516613 0.9604935 -0.0008468436
v -1.629682 0.8923025 0.7331932
v 1.693598 0.8923025 0.7331932
v 1.693598 0.8923025 -0.0008468436
v -1.629682 0.8923025 -0.0008468436
v -1.544849 0.9887297 2.517311
v -1.516613 0.9604935 -0.0008468436
v -1.544849 0.9887297 -0.0008468436
v -1.516613 0.9604935 2.517311
v -1.516613 0.7887298 -0.0008468436
v -1.516613 0.7887298 2.517311
v 2.255828 0.9887297 2.517311
v 2.284064 0.9604935 -0.0008468436
v 2.255828 0.9887297 -0.0008468436
v 2.284064 0.9604935 2.517311
v 2.284064 0.7887298 -0.0008468436
v 2.284064 0.7887298 2.517311
vn 0.0009775171 0.0009775171 0.999999
vn 0.0009775171 0.0009775171 0.999999
vn 0.0009775171 0.0009775171 0.999999
vn 0.0009775171 0.0009775171 0.999999
vn 0.0009775171 0.0009775171 0.999999
vn 0.0009775171 0.0009775171 0.999999
vn -0.9237537 0.3822092 -0.0243988
vn -0.3822092 0.9237537 -0.02439941
vn -0.9237537 0.3822092 -0.0243988
vn -0.3822092 0.9237537 -0.02439941
vn 0.3822092 0.9237537 -0.02439941
vn 0.3822092 0.9237537 -0.02439941
vn -0.9999995 0.0009775166 0
vn -0.9237537 0.3822092 -0.0243988
vn -0.9237537 0.3822092 -0.0243988
vn -0.9999995 0.0009775166 0
vn 0.0009775166 -0.9999995 0
vn 0.0009775166 -0.9999995 0
vn 0.0009775166 -0.9999995 0
vn 0.0009775166 -0.9999995 0
vn -0.9237537 0.3822092 -0.0243988
vn -0.3822092 0.9237537 -0.02439941
vn -0.3822092 0.9237537 -0.02439941
vn -0.9237537 0.3822092 -0.0243988
vn -0.9237537 0.0009775171 0.3829859
vn -0.9999995 0.0009775166 0
vn -0.9237537 0.0009775171 0.3829859
vn -0.9999995 0.0009775166 0
vn -0.9237537 0.0009775171 -0.3829859
vn -0.9237537 0.0009775171 -0.3829859
vn -0.7067448 0.0009775171 -0.7074679
vn -0.7067448 0.0009775171 -0.7074679
vn -0.7067448 0.0009775171 -0.7074679
vn -0.7067448 0.0009775171 -0.7074679
vn -0.9237537 0.0009775171 -0.3829859
vn -0.9237537 0.0009775171 -0.3829859
vn -0.9999995 0.0009775166 0
vn -0.9999995 0.0009775166 0
vn -0.9999995 0.0009775166 0
vn -0.9999995 0.0009775166 0
vn -0.9999995 0.0009775166 0
vn -0.9999995 0.0009775166 0
vn -0.3822092 0.0009775171 0.9240753
vn 0.3822092 0.0009775171 0.9240753
vn 0.3822092 0.0009775171 0.9240753
vn -0.3822092 0.0009775171 0.9240753
vn -0.9237537 0.0009775171 0.3829859
vn -0.9237537 0.0009775171 0.3829859
vn 0.9237537 0.0009775171 0.3829859
vn 0.9237537 0.0009775171 0.3829859
vn 0.3822092 0.0009775171 0.9240753
vn 0.3822092 0.0009775171 0.9240753
vn 0.9237537 0.0009775171 0.3829859
vn 0.9237537 0.0009775171 0.3829859
vn 0.9726295 0.0009775171 -0.2323592
vn 0.9726295 0.0009775171 -0.2323592
vn 0.9726295 0.0009775171 -0.2323592
vn 0.9726295 0.0009775171 -0.2323592
vn 0.9999995 0.0009775166 0
vn 0.9999995 0.0009775166 0
vn 0.0009775171 0.0009775171 0.999999
vn 0.0009775171 0.0009775171 0.999999
vn 0.0009775171 0.0009775171 0.999999
vn 0.0009775171 0.0009775171 0.999999
vn 0.0009775171 0.0009775171 0.999999
vn 0.0009775171 0.0009775171 0.999999
vn 0.0009775166 -0.9999995 0
vn 0.0009775166 -0.9999995 0
vn 0.0009775166 -0.9999995 0
vn 0.0009775166 -0.9999995 0
vn -0.9999995 0.0009775166 0
vn -0.9237537 0.3822092 -0.0243988
vn -0.9237537 0.3822092 -0.0243988
vn -0.9999995 0.0009775166 0
vn 0.9237537 0.0009775171 0.3829859
vn 0.9237537 0.0009775171 0.3829859
vn 0.9999995 0.0009775166 0
vn 0.9999995 0.0009775166 0
vn 0.9237537 0.0009775171 -0.3829859
vn 0.9237537 0.0009775171 -0.3829859
vn 0.7067448 0.0009775171 -0.7074679
vn 0.7067448 0.0009775171 -0.7074679
vn 0.7067448 0.0009775171 -0.7074679
vn 0.7067448 0.0009775171 -0.7074679
vn 0.9237537 0.0009775171 -0.3829859
vn 0.9237537 0.0009775171 -0.3829859
vn 0.9999995 0.0009775166 0
vn 0.9999995 0.0009775166 0
vn 0.9999995 0.0009775166 0
vn 0.9999995 0.0009775166 0
vn 0.9999995 0.0009775166 0
vn 0.9999995 0.0009775166 0
vn 0.3822092 0.0009775171 0.9240753
vn -0.3822092 0.0009775171 0.9240753
vn -0.3822092 0.0009775171 0.9240753
vn 0.3822092 0.0009775171 0.9240753
vn 0.9237537 0.0009775171 0.3829859
vn 0.9237537 0.0009775171 0.3829859
vn -0.9726295 0.0009775171 -0.2323592
vn -0.9999995 0.0009775166 0
vn -0.9999995 0.0009775166 0
vn -0.9726295 0.0009775171 -0.2323592
vn -0.9726295 0.0009775171 -0.2323592
vn -0.9726295 0.0009775171 -0.2323592
vn -0.9237537 0.0009775171 0.3829859
vn -0.9237537 0.0009775171 0.3829859
vn -0.9237537 0.0009775171 0.3829859
vn -0.3822092 0.0009775171 0.9240753
vn -0.3822092 0.0009775171 0.9240753
vn -0.9237537 0.0009775171 0.3829859
vn 0.0009775171 0.0009775171 -0.999999
vn 0.0009775171 0.0009775171 -0.999999
vn 0.0009775171 0.0009775171 -0.999999
vn 0.0009775171 0.0009775171 -0.999999
vn 0.0009775171 0.0009775171 -0.999999
vn 0.0009775171 0.0009775171 -0.999999
vn 0.0009775171 0.6187683 0.7855729
vn 0.0009775171 -0.2316716 0.9727936
vn 0.0009775171 -0.2316716 0.9727936
vn 0.0009775171 0.6187683 0.7855729
vn 0.0009775171 0.6187683 0.7855729
vn 0.0009775171 0.6187683 0.7855729
vn 0.0009775166 0.9999995 0
vn 0.0009775166 0.9999995 0
vn 0.0009775171 0.6246334 0.7809175
vn 0.0009775171 -0.2297165 0.9732571
vn 0.0009775171 -0.2297165 0.9732571
vn 0.0009775171 0.6246334 0.7809175
vn 0.0009775171 0.6089932 0.7931749
vn 0.0009775171 -0.257087 0.9663877
vn 0.0009775171 -0.257087 0.9663877
vn 0.0009775171 0.6089932 0.7931749
vn 0.0009775171 0.6168133 0.7871089
vn 0.0009775171 -0.259042 0.9658656
vn 0.0009775171 -0.259042 0.9658656
vn 0.0009775171 0.6168133 0.7871089
vn 0.0009775171 0.6109482 0.79167
vn 0.0009775171 -0.2727273 0.9620909
vn 0.0009775171 -0.2727273 0.9620909
vn 0.0009775171 0.6109482 0.79167
vn 0.0009775171 0.6422287 0.7665125
vn 0.0009775171 -0.1730205 0.9849178
vn 0.0009775171 -0.1730205 0.9849178
vn 0.0009775171 0.6422287 0.7665125
vn 0.0009775171 0.6422287 0.7665125
vn 0.0009775171 0.6422287 0.7665125
vn 0.0009775166 0.9999995 0
vn 0.0009775166 0.9999995 0
vn 0.0009775171 0.6207234 0.784029
vn 0.0009775171 -0.2277615 0.9737164
vn 0.0009775171 -0.2277615 0.9737164
vn 0.0009775171 0.6207234 0.784029
vn 0.0009775171 0.6246334 0.7809175
vn 0.0009775171 0.6246334 0.7809175
vn 0.0009775166 0.9999995 0
vn 0.0009775166 0.9999995 0
vn 0.0009775171 0.6089932 0.7931749
vn 0.0009775171 0.6089932 0.7931749
vn 0.0009775166 0.9999995 0
vn 0.0009775166 0.9999995 0
vn 0.0009775171 0.6168133 0.7871089
vn 0.0009775171 0.6168133 0.7871089
vn 0.0009775166 0.9999995 0
vn 0.0009775166 0.9999995 0
vn 0.0009775171 0.6109482 0.79167
vn 0.0009775171 0.6109482 0.79167
vn 0.0009775166 0.9999995 0
vn 0.0009775166 0.9999995 0
vn 0.0009775171 0.6031281 0.7976438
vn 0.0009775171 -0.2942326 0.9557334
vn 0.0009775171 -0.2942326 0.9557334
vn 0.0009775171 0.6031281 0.7976438
vn 0.0009775171 0.6031281 0.7976438
vn 0.0009775171 0.6031281 0.7976438
vn 0.0009775166 0.9999995 0
vn 0.0009775166 0.9999995 0
vn -0.3822092 0.9237537 -0.02439941
vn 0.3822092 0.9237537 -0.02439941
vn 0.3822092 0.9237537 -0.02439941
vn -0.3822092 0.9237537 -0.02439941
vn 0.0009775171 0.0009775171 -0.999999
vn 0.0009775171 0.0009775171 -0.999999
vn 0.0009775171 0.0009775171 -0.999999
vn 0.0009775171 0.0009775171 -0.999999
vn 0.0009775171 0.0009775171 -0.999999
vn 0.0009775171 0.0009775171 -0.999999
vn 0.0009775171 0.6207234 0.784029
vn 0.0009775171 0.6207234 0.784029
vn 0.0009775166 0.9999995 0
vn 0.0009775166 0.9999995 0
vn 0.3822092 0.9237537 -0.02439941
vn 0.9237537 0.3822092 -0.0243988
vn 0.3822092 0.9237537 -0.02439941
vn 0.9237537 0.3822092 -0.0243988
vn 0.9999995 0.0009775166 0
vn 0.9999995 0.0009775166 0
vn 0.3822092 0.9237537 -0.02439941
vn 0.9237537 0.3822092 -0.0243988
vn 0.3822092 0.9237537 -0.02439941
vn 0.9237537 0.3822092 -0.0243988
vn 0.9999995 0.0009775166 0
vn 0.9999995 0.0009775166 0
vt 0.136924 0.1401421
vt 0.1337965 0.1387521
vt 0.1337965 0.1303668
vt 0.2670861 0.1303668
vt 0.2639586 0.1401421
vt 0.2670861 0.1387521
vt 0.2666026 0.1396435
vt 0.1350656 0.1420912
vt 0.1350656 0.1396435
vt 0.2666026 0.1420912
vt 0.1350656 0.1962864
vt 0.2666026 0.1962864
vt 0.2666026 0.1313488
vt 0.2666026 0.1396435
vt 0.1350656 0.1396435
vt 0.1350656 0.1313488
vt 0.1332979 0.2001995
vt 0.2658019 0.2001995
vt 0.2658019 0.1406256
vt 0.1332979 0.1406256
vt 0.2666026 0.1938539
vt 0.2666026 0.1962864
vt 0.1350656 0.1962864
vt 0.1350656 0.1938539
vt 0.3989405 0.1298833
vt 0.3907213 0.09082707
vt 0.3989405 0.09082707
vt 0.3907213 0.1298833
vt 0.3896486 0.09082707
vt 0.3896486 0.1298833
vt 0.3893917 0.09082707
vt 0.3893917 0.1298833
vt 0.385267 0.09082707
vt 0.385267 0.1298833
vt 0.3847684 0.09082707
vt 0.3847684 0.1298833
vt 0.3839526 0.09082707
vt 0.3839526 0.1298833
vt 0.3787098 0.09082707
vt 0.3787098 0.1298833
vt 0.2748218 0.09082707
vt 0.2748218 0.1298833
vt 0.151368 0.1411091
vt 0.230961 0.1411091
vt 0.230961 0.1748017
vt 0.151368 0.1748017
vt 0.1499024 0.1748017
vt 0.1499024 0.1411091
vt 0.2329101 0.1411091
vt 0.2329101 0.1748017
vt 0.230961 0.1748017
vt 0.230961 0.1411091
vt 0.3985325 0.1298833
vt 0.3985325 0.09082707
vt 0.3896486 0.09082707
vt 0.3896486 0.1298833
vt 0.3847684 0.09082707
vt 0.3847684 0.1298833
vt 0.2748218 0.09082707
vt 0.2748218 0.1298833
vt 0.2639586 0.1401421
vt 0.2670861 0.1387521
vt 0.2670861 0.1303668
vt 0.1337965 0.1303668
vt 0.136924 0.1401421
vt 0.1337965 0.1387521
vt 0.2658019 0.1406256
vt 0.2658019 0.2001995
vt 0.1332979 0.2001995
vt 0.1332979 0.1406256
vt 0.2666026 0.185544
vt 0.2666026 0.1938539
vt 0.1350656 0.1938539
vt 0.1350656 0.185544
vt 0.3989405 0.1298833
vt 0.3989405 0.09082707
vt 0.3907213 0.09082707
vt 0.3907213 0.1298833
vt 0.3896486 0.09082707
vt 0.3896486 0.1298833
vt 0.3893917 0.09082707
vt 0.3893917 0.1298833
vt 0.385267 0.09082707
vt 0.385267 0.1298833
vt 0.3847684 0.09082707
vt 0.3847684 0.1298833
vt 0.3839526 0.09082707
vt 0.3839526 0.1298833
vt 0.3787098 0.09082707
vt 0.3787098 0.1298833
vt 0.2748218 0.09082707
vt 0.2748218 0.1298833
vt 0.151368 0.1411091
vt 0.230961 0.1748017
vt 0.230961 0.1411091
vt 0.151368 0.1748017
vt 0.1499024 0.1748017
vt 0.1499024 0.1411091
vt 0.3847684 0.1298833
vt 0.2748218 0.1298833
vt 0.2748218 0.09082707
vt 0.3847684 0.09082707
vt 0.3896486 0.1298833
vt 0.3896486 0.09082707
vt 0.3985325 0.1298833
vt 0.3985325 0.09082707
vt 0.2329101 0.1411091
vt 0.230961 0.1411091
vt 0.230961 0.1748017
vt 0.2329101 0.1748017
vt 0.1010708 0.5375938
vt 0.1499024 0.5375938
vt 0.1499024 0.5483361
vt 0.1479534 0.5498016
vt 0.1030199 0.5498016
vt 0.1010708 0.5483361
vt 0.3598692 0.06249811
vt 0.3598692 0.05175576
vt 0.200683 0.05175576
vt 0.200683 0.06249811
vt 0.3598692 0.06249811
vt 0.200683 0.06249811
vt 0.200683 0.074706
vt 0.3598692 0.074706
vt 0.200683 0.06249811
vt 0.200683 0.05175576
vt 0.3598692 0.05175576
vt 0.3598692 0.06249811
vt 0.3598692 0.02733997
vt 0.3598692 0.01659763
vt 0.200683 0.01659763
vt 0.200683 0.02733997
vt 0.3598692 0.06249811
vt 0.3598692 0.05175576
vt 0.200683 0.05175576
vt 0.200683 0.06249811
vt 0.3598692 0.02733997
vt 0.3598692 0.01659763
vt 0.200683 0.01659763
vt 0.200683 0.02733997
vt 0.3598692 0.06249811
vt 0.3598692 0.05175576
vt 0.200683 0.05175576
vt 0.200683 0.06249811
vt 0.3598692 0.06249811
vt 0.200683 0.06249811
vt 0.200683 0.074706
vt 0.3598692 0.074706
vt 0.279294 0.06201462
vt 0.279294 0.05566894
vt 0.200683 0.05566894
vt 0.200683 0.06201462
vt 0.200683 0.06249811
vt 0.3598692 0.06249811
vt 0.3598692 0.074706
vt 0.200683 0.074706
vt 0.3598692 0.02733997
vt 0.200683 0.02733997
vt 0.200683 0.03954787
vt 0.3598692 0.03954787
vt 0.3598692 0.06249811
vt 0.200683 0.06249811
vt 0.200683 0.074706
vt 0.3598692 0.074706
vt 0.3598692 0.02733997
vt 0.200683 0.02733997
vt 0.200683 0.03954787
vt 0.3598692 0.03954787
vt 0.200683 0.06249811
vt 0.200683 0.05175576
vt 0.3598692 0.05175576
vt 0.3598692 0.06249811
vt 0.200683 0.06249811
vt 0.3598692 0.06249811
vt 0.3598692 0.074706
vt 0.200683 0.074706
vt 0.2666026 0.1962864
vt 0.2666026 0.1420912
vt 0.1350656 0.1420912
vt 0.1350656 0.1962864
vt 0.1010708 0.5375938
vt 0.1499024 0.5375938
vt 0.1499024 0.5483361
vt 0.1479534 0.5498016
vt 0.1030199 0.5498016
vt 0.1010708 0.5483361
vt 0.279294 0.06201462
vt 0.200683 0.06201462
vt 0.200683 0.07981277
vt 0.279294 0.07981277
vt 0.2666026 0.1962864
vt 0.1350656 0.1938539
vt 0.1350656 0.1962864
vt 0.2666026 0.1938539
vt 0.1350656 0.185544
vt 0.2666026 0.185544
vt 0.2666026 0.1420912
vt 0.1350656 0.1396435
vt 0.1350656 0.1420912
vt 0.2666026 0.1396435
vt 0.1350656 0.1313488
vt 0.2666026 0.1313488
f 1/1/1 2/2/2 3/3/3
f 3/3/3 4/4/4 1/1/1
f 4/4/4 5/5/5 1/1/1
f 4/4/4 6/6/6 5/5/5
f 7/7/7 8/8/8 9/9/9
f 7/7/7 10/10/10 8/8/8
f 10/10/10 11/11/11 8/8/8
f 10/10/10 12/12/12 11/11/11
f 13/13/13 14/14/14 15/15/15
f 13/13/13 15/15/15 16/16/16
f 17/17/17 18/18/18 19/19/19
f 17/17/17 19/19/19 20/20/20
f 21/21/21 22/22/22 23/23/23
f 21/21/21 23/23/23 24/24/24
f 25/25/25 26/26/26 27/27/27
f 25/25/25 28/28/28 26/26/26
f 28/28/28 29/29/29 26/26/26
f 28/28/28 30/30/30 29/29/29
f 30/30/30 31/31/31 29/29/29
f 30/30/30 32/32/32 31/31/31
f 32/32/32 33/33/33 31/31/31
f 32/32/32 34/34/34 33/33/33
f 34/34/34 35/35/35 33/33/33
f 34/34/34 36/36/36 35/35/35
f 36/36/36 37/37/37 35/35/35
f 36/36/36 38/38/38 37/37/37
f 38/38/38 39/39/39 37/37/37
f 38/38/38 40/40/40 39/39/39
f 40/40/40 41/41/41 39/39/39
f 40/40/40 42/42/42 41/41/41
f 43/43/43 44/44/44 45/45/45
f 43/43/43 45/45/45 46/46/46
f 47/47/47 43/43/43 46/46/46
f 47/47/47 48/48/48 43/43/43
f 49/49/49 50/50/50 51/51/51
f 49/49/49 51/51/51 52/52/52
f 53/53/53 54/54/54 55/55/55
f 53/53/53 55/55/55 56/56/56
f 56/56/56 55/55/55 57/57/57
f 56/56/56 57/57/57 58/58/58
f 58/58/58 57/57/57 59/59/59
f 58/58/58 59/59/59 60/60/60
f 61/61/61 62/62/62 63/63/63
f 63/63/63 64/64/64 61/61/61
f 64/64/64 65/65/65 61/61/61
f 64/64/64 66/66/66 65/65/65
f 67/67/67 68/68/68 69/69/69
f 67/67/67 69/69/69 70/70/70
f 71/71/71 72/72/72 73/73/73
f 71/71/71 73/73/73 74/74/74
f 75/75/75 76/76/76 77/77/77
f 75/75/75 77/77/77 78/78/78
f 78/78/78 77/77/77 79/79/79
f 78/78/78 79/79/79 80/80/80
f 80/80/80 79/79/79 81/81/81
f 80/80/80 81/81/81 82/82/82
f 82/82/82 81/81/81 83/83/83
f 82/82/82 83/83/83 84/84/84
f 84/84/84 83/83/83 85/85/85
f 84/84/84 85/85/85 86/86/86
f 86/86/86 85/85/85 87/87/87
f 86/86/86 87/87/87 88/88/88
f 88/88/88 87/87/87 89/89/89
f 88/88/88 89/89/89 90/90/90
f 90/90/90 89/89/89 91/91/91
f 90/90/90 91/91/91 92/92/92
f 93/93/93 94/94/94 95/95/95
f 93/93/93 96/96/96 94/94/94
f 97/97/97 96/96/96 93/93/93
f 97/97/97 93/93/93 98/98/98
f 99/99/99 100/100/100 101/101/101
f 99/99/99 101/101/101 102/102/102
f 103/103/103 99/99/99 102/102/102
f 103/103/103 102/102/102 104/104/104
f 105/105/105 103/103/103 104/104/104
f 105/105/105 104/104/104 106/106/106
f 107/107/107 108/108/108 109/109/109
f 107/107/107 109/109/109 110/110/110
f 111/111/111 112/112/112 113/113/113
f 113/113/113 114/114/114 111/111/111
f 114/114/114 115/115/115 111/111/111
f 115/115/115 116/116/116 111/111/111
f 117/117/117 118/118/118 119/119/119
f 117/117/117 119/119/119 120/120/120
f 121/121/121 122/122/122 123/123/123
f 121/121/121 123/123/123 124/124/124
f 125/125/125 126/126/126 127/127/127
f 125/125/125 127/127/127 128/128/128
f 129/129/129 130/130/130 131/131/131
f 129/129/129 131/131/131 132/132/132
f 133/133/133 134/134/134 135/135/135
f 133/133/133 135/135/135 136/136/136
f 137/137/137 138/138/138 139/139/139
f 137/137/137 139/139/139 140/140/140
f 141/141/141 142/142/142 143/143/143
f 141/141/141 143/143/143 144/144/144
f 145/145/145 146/146/146 147/147/147
f 145/145/145 147/147/147 148/148/148
f 149/149/149 150/150/150 151/151/151
f 149/149/149 151/151/151 152/152/152
f 153/153/153 154/154/154 155/155/155
f 153/153/153 155/155/155 156/156/156
f 157/157/157 158/158/158 159/159/159
f 157/157/157 159/159/159 160/160/160
f 161/161/161 162/162/162 163/163/163
f 161/161/161 163/163/163 164/164/164
f 165/165/165 166/166/166 167/167/167
f 165/165/165 167/167/167 168/168/168
f 169/169/169 170/170/170 171/171/171
f 169/169/169 171/171/171 172/172/172
f 173/173/173 174/174/174 175/175/175
f 173/173/173 175/175/175 176/176/176
f 177/177/177 178/178/178 179/179/179
f 177/177/177 179/179/179 180/180/180
f 181/181/181 182/182/182 183/183/183
f 183/183/183 184/184/184 181/181/181
f 184/184/184 185/185/185 181/181/181
f 185/185/185 186/186/186 181/181/181
f 187/187/187 188/188/188 189/189/189
f 187/187/187 189/189/189 190/190/190
f 191/191/191 192/192/192 193/193/193
f 191/191/191 194/194/194 192/192/192
f 194/194/194 195/195/195 192/192/192
f 194/194/194 196/196/196 195/195/195
f 197/197/197 198/198/198 199/199/199
f 197/197/197 200/200/200 198/198/198
f 200/200/200 201/201/201 198/198/198
f 200/200/200 202/202/202 201/201/201
