v 4.400002 3.984486 -4
v 4.400002 3.800003 -4
v 4.300002 3.700003 -4
v 3.700003 3.976723 -4
v 3.700003 4.000002 -4
v 4.400002 4.000002 -4
v 3.700003 3.700003 -4
v 3.700003 0.04421731 -4
v 4.300002 0.04421731 -4
v 3.700003 -2.706622E-06 -4
v 4.300002 -2.706622E-06 -4
v 4.358914 3.984486 0.4000042
v 4.358914 4.000002 0.4000042
v -2.706622E-06 4.000002 0.3999962
v -2.706622E-06 3.984486 0.3999962
v 4.358914 3.800003 0.3999962
v -2.706622E-06 3.800003 0.3999962
v 4.259859 3.700003 0.2999965
v -2.706622E-06 3.700003 0.2999965
v 4.300002 3.700003 -4
v 4.400002 3.800003 0.3588924
v 4.300947 3.700003 0.2588927
v 4.400002 3.800003 -4
v 4.400002 3.984486 0.3589004
v 4.358914 3.800003 0.3999962
v 4.400002 3.984486 -4
v 4.358914 3.984486 0.4000042
v 4.400002 4.000002 0.3589004
v 4.400002 4.000002 -4
v 4.358914 4.000002 0.4000042
v -2.706622E-06 4.000002 -0.3000019
v -2.706622E-06 3.984486 0.3999962
v -2.706622E-06 4.000002 0.3999962
v -2.706622E-06 3.976723 -0.3000019
v -2.706622E-06 3.800003 0.3999962
v -2.706622E-06 3.700003 0.2999965
v -2.706622E-06 3.700003 -0.3000019
v -2.706622E-06 0.04421731 0.3000045
v -2.706622E-06 0.04421731 -0.3000019
v -2.706622E-06 -2.706622E-06 0.3000045
v -2.706622E-06 -2.706622E-06 -0.3000019
v 3.659861 -2.706622E-06 -0.3000019
v -2.706622E-06 -2.706622E-06 -0.3000019
v -2.706622E-06 0.04421731 -0.3000019
v 3.659861 0.04421731 -0.3000019
v 3.659861 3.700003 -0.3000019
v -2.706622E-06 3.700003 -0.3000019
v 0.02327689 3.976723 -0.3000019
v -2.706622E-06 3.976723 -0.3000019
v 3.659861 3.976723 -0.3000019
v -2.706622E-06 4.000002 -0.3000019
v 3.659861 4.000002 -0.3000019
v 3.700941 3.976723 -0.3411137
v 3.700941 4.000002 -0.3411137
v 3.700003 4.000002 -4
v 3.700003 3.976723 -4
v 3.700003 3.700003 -4
v 3.700941 3.700003 -0.3411137
v 3.700941 0.04421731 -0.3411137
v 3.700003 0.04421731 -4
v 3.659861 3.700003 -0.3000019
v 3.659861 0.04421731 -0.3000019
v 3.700003 -2.706622E-06 -4
v 3.700941 -2.706622E-06 -0.3411137
v 4.300002 -2.706622E-06 -4
v 3.700941 -2.706622E-06 -0.3411137
v 3.700003 -2.706622E-06 -4
v 4.300947 -2.706622E-06 0.2588927
v 3.659861 -2.706622E-06 -0.3000019
v 4.259859 -2.706622E-06 0.3000045
v -2.706622E-06 -2.706622E-06 -0.3000019
v -2.706622E-06 -2.706622E-06 0.3000045
v 4.300947 3.700003 0.2588927
v 4.300002 0.04421731 -4
v 4.300002 3.700003 -4
v 4.300947 0.04421731 0.2588927
v 4.300002 -2.706622E-06 -4
v 4.300947 -2.706622E-06 0.2588927
v 4.259859 -2.706622E-06 0.3000045
v 4.358914 4.000002 0.4000042
v 3.659861 4.000002 -0.3000019
v -2.706622E-06 4.000002 -0.3000019
v -2.706622E-06 4.000002 0.3999962
v 4.259859 -2.706622E-06 0.3000045
v -2.706622E-06 0.04421731 0.3000045
v -2.706622E-06 -2.706622E-06 0.3000045
v 4.259859 0.04421731 0.3000045
v 4.300947 0.04421731 0.2588927
v -2.706622E-06 3.700003 0.2999965
v 4.300947 3.700003 0.2588927
v 4.259859 3.700003 0.2999965
v 3.700003 4.000002 -4
v 4.400002 4.000002 0.3589004
v 4.400002 4.000002 -4
v 3.700941 4.000002 -0.3411137
v 4.358914 4.000002 0.4000042
v 3.659861 4.000002 -0.3000019
v 4.349998 3.515393 -3.978667
v 4.300002 3.500004 -4
v 4.349998 3.515393 -4
v 4.300002 3.500004 -3.978667
v 4.349998 3.515201 0.3310547
v 4.300002 3.500004 0.2815314
v 4.281649 3.500004 0.2998363
v 4.331653 3.515201 0.3493675
v 4.349998 3.584607 -3.978667
v 4.349998 3.515393 -4
v 4.349998 3.584607 -4
v 4.349998 3.515393 -3.978667
v 4.349998 3.584799 0.3310547
v 4.349998 3.515201 0.3310547
v 4.349998 3.584607 -4
v 4.349998 3.515393 -4
v 4.300002 3.500004 -4
v 4.300002 3.600004 -4
v 4.349998 3.584607 -4
v 4.300002 3.600004 -4
v 4.300002 3.600004 -3.978667
v 4.349998 3.584607 -3.978667
v 4.300002 3.600004 0.2815314
v 4.349998 3.584799 0.3310547
v -2.706622E-06 3.600004 0.2999965
v -2.706622E-06 3.500004 0.2999965
v -2.706622E-06 3.515393 0.3500004
v -2.706622E-06 3.584607 0.3500004
v 0.03422775 3.584607 0.3500004
v -2.706622E-06 3.600004 0.2999965
v -2.706622E-06 3.584607 0.3500004
v 0.03422775 3.600004 0.2999965
v 4.331653 3.584799 0.3493675
v 4.281649 3.600004 0.2998363
v 4.300002 3.600004 0.2815314
v 4.349998 3.584799 0.3310547
v -2.706622E-06 3.515393 0.3500004
v -2.706622E-06 3.500004 0.2999965
v 0.03422775 3.500004 0.2999965
v 0.03422775 3.515393 0.3500004
v 4.281649 3.500004 0.2998363
v 4.331653 3.515201 0.3493675
v -2.706622E-06 3.584607 0.3500004
v -2.706622E-06 3.515393 0.3500004
v 0.03422775 3.515393 0.3500004
v 0.03422775 3.584607 0.3500004
v 4.331653 3.515201 0.3493675
v 4.331653 3.584799 0.3493675
v 4.349998 3.584799 0.3310547
v 4.331653 3.584799 0.3493675
v 4.331653 3.515201 0.3493675
v 4.349998 3.515201 0.3310547
v 3.659861 3.976723 -0.3000019
v 3.700941 3.700003 -0.3411137
v 3.659861 3.700003 -0.3000019
v 3.700941 3.976723 -0.3411137
v 3.659861 4.000002 -0.3000019
v 3.700941 4.000002 -0.3411137
v 3.659861 0.04421731 -0.3000019
v 3.700941 0.04421731 -0.3411137
v 3.700941 -2.706622E-06 -0.3411137
v 3.659861 -2.706622E-06 -0.3000019
v 4.259859 3.700003 0.2999965
v 4.300947 3.700003 0.2588927
v 4.400002 3.800003 0.3588924
v 4.358914 3.800003 0.3999962
vn 0.0009775171 0.0009775171 -0.999999
vn 0.0009775171 0.0009775171 -0.999999
vn 0.0009775171 0.0009775171 -0.999999
vn 0.0009775171 0.0009775171 -0.999999
vn 0.0009775171 0.0009775171 -0.999999
vn 0.0009775171 0.0009775171 -0.999999
vn 0.0009775171 0.0009775171 -0.999999
vn 0.0009775171 0.0009775171 -0.999999
vn 0.0009775171 0.0009775171 -0.999999
vn 0.0009775171 0.0009775171 -0.999999
vn 0.0009775171 0.0009775171 -0.999999
vn 0.3822092 0.0009775171 0.9240753
vn 0.2981427 0.6304985 0.7166468
vn 0.0009775171 0.7067448 0.7074679
vn 0.0009775171 0.0009775171 0.999999
vn 0.3665689 -0.4095797 0.8353872
vn 0.0009775171 -0.3822092 0.9240753
vn 0.1769306 -0.7790811 0.6014385
vn 0.0009775171 -0.7067448 0.7074679
vn 0.7086999 -0.7047898 -0.03187181
vn 0.8357771 -0.4076246 0.3678571
vn 0.6031281 -0.7771261 0.1797543
vn 0.9237537 -0.3822092 -0.0243988
vn 0.9237537 0.0009775171 0.3829859
vn 0.3665689 -0.4095797 0.8353872
vn 0.9999995 0.0009775166 0
vn 0.3822092 0.0009775171 0.9240753
vn 0.71652 0.6304985 0.2984472
vn 0.7067448 0.7067448 -0.03199081
vn 0.2981427 0.6304985 0.7166468
vn -0.9999995 0.0009775166 0
vn -0.9999995 0.0009775166 0
vn -0.9999995 0.0009775166 0
vn -0.9999995 0.0009775166 0
vn -0.9999995 0.0009775166 0
vn -0.9999995 0.0009775166 0
vn -0.9999995 0.0009775166 0
vn -0.9999995 0.0009775166 0
vn -0.9999995 0.0009775166 0
vn -0.9999995 0.0009775166 0
vn -0.9999995 0.0009775166 0
vn -0.2277615 -0.8044966 -0.5485526
vn 0.0009775171 -0.7067448 -0.7074679
vn 0.0009775171 0.0009775171 -0.999999
vn -0.3822092 0.0009775171 -0.9240753
vn -0.3822092 0.0009775171 -0.9240753
vn 0.0009775171 0.0009775171 -0.999999
vn 0.0009775171 0.0009775171 -0.999999
vn 0.0009775171 0.0009775171 -0.999999
vn -0.3822092 0.0009775171 -0.9240753
vn 0.0009775171 0.7067448 -0.7074679
vn -0.2277615 0.8044966 -0.5485526
vn -0.9237537 0.0009775171 -0.3829859
vn -0.5483871 0.8044966 -0.2281596
vn -0.7067448 0.7067448 0.03199081
vn -0.9999995 0.0009775166 0
vn -0.9999995 0.0009775166 0
vn -0.9237537 0.0009775171 -0.3829859
vn -0.9237537 0.0009775171 -0.3829859
vn -0.9999995 0.0009775166 0
vn -0.3822092 0.0009775171 -0.9240753
vn -0.3822092 0.0009775171 -0.9240753
vn -0.7067448 -0.7067448 0.03199081
vn -0.5483871 -0.8044966 -0.2281596
vn 0.7067448 -0.7067448 -0.03199081
vn -0.5483871 -0.8044966 -0.2281596
vn -0.7067448 -0.7067448 0.03199081
vn 0.71652 -0.6304985 0.2984472
vn -0.2277615 -0.8044966 -0.5485526
vn 0.2981427 -0.6304985 0.7166468
vn 0.0009775171 -0.7067448 -0.7074679
vn 0.0009775171 -0.7067448 0.7074679
vn 0.9237537 0.0009775171 0.3829859
vn 0.9999995 0.0009775166 0
vn 0.9999995 0.0009775166 0
vn 0.9237537 0.0009775171 0.3829859
vn 0.7067448 -0.7067448 -0.03199081
vn 0.71652 -0.6304985 0.2984472
vn 0.2981427 -0.6304985 0.7166468
vn 0.2981427 0.6304985 0.7166468
vn -0.2277615 0.8044966 -0.5485526
vn 0.0009775171 0.7067448 -0.7074679
vn 0.0009775171 0.7067448 0.7074679
vn 0.2981427 -0.6304985 0.7166468
vn 0.0009775171 0.0009775171 0.999999
vn 0.0009775171 -0.7067448 0.7074679
vn 0.3822092 0.0009775171 0.9240753
vn 0.9237537 0.0009775171 0.3829859
vn 0.0009775171 0.0009775171 0.999999
vn 0.9237537 0.0009775171 0.3829859
vn 0.3822092 0.0009775171 0.9240753
vn -0.7067448 0.7067448 0.03199081
vn 0.71652 0.6304985 0.2984472
vn 0.7067448 0.7067448 -0.03199081
vn -0.5483871 0.8044966 -0.2281596
vn 0.2981427 0.6304985 0.7166468
vn -0.2277615 0.8044966 -0.5485526
vn 0.8038512 -0.5948304 0
vn 0.2277615 -0.7419355 -0.6306
vn 0.6461388 -0.4780059 -0.5949916
vn 0.2942326 -0.9550342 -0.03656327
vn 0.7634408 -0.5581623 0.3249814
vn 0.2355816 -0.9706745 0.04787771
vn 0.05962854 -0.9687194 0.2408883
vn 0.3255132 -0.5581623 0.7632143
vn 0.8038512 0.5948304 0
vn 0.6461388 -0.4780059 -0.5949916
vn 0.6461388 0.4780059 -0.5949916
vn 0.8038512 -0.5948304 0
vn 0.7634408 0.5581623 0.3249814
vn 0.7634408 -0.5581623 0.3249814
vn 0.6461388 0.4780059 -0.5949916
vn 0.6461388 -0.4780059 -0.5949916
vn 0.2277615 -0.7419355 -0.6306
vn 0.2277615 0.7419355 -0.6306
vn 0.6461388 0.4780059 -0.5949916
vn 0.2277615 0.7419355 -0.6306
vn 0.2942326 0.9550342 -0.03656327
vn 0.8038512 0.5948304 0
vn 0.2355816 0.9706745 0.04787771
vn 0.7634408 0.5581623 0.3249814
vn -0.6285435 0.7419355 0.233377
vn -0.6285435 -0.7419355 0.233377
vn -0.5953079 -0.4780059 0.6458474
vn -0.5953079 0.4780059 0.6458474
vn 0.0009775171 0.5933529 0.8049419
vn -0.6285435 0.7419355 0.233377
vn -0.5953079 0.4780059 0.6458474
vn 0.0009775171 0.9550342 0.2964941
vn 0.3255132 0.5581623 0.7632143
vn 0.05962854 0.9687194 0.2408883
vn 0.2355816 0.9706745 0.04787771
vn 0.7634408 0.5581623 0.3249814
vn -0.5953079 -0.4780059 0.6458474
vn -0.6285435 -0.7419355 0.233377
vn 0.0009775171 -0.9550342 0.2964941
vn 0.0009775171 -0.5933529 0.8049419
vn 0.05962854 -0.9687194 0.2408883
vn 0.3255132 -0.5581623 0.7632143
vn -0.5953079 0.4780059 0.6458474
vn -0.5953079 -0.4780059 0.6458474
vn 0.0009775171 -0.5933529 0.8049419
vn 0.0009775171 0.5933529 0.8049419
vn 0.3255132 -0.5581623 0.7632143
vn 0.3255132 0.5581623 0.7632143
vn 0.7634408 0.5581623 0.3249814
vn 0.3255132 0.5581623 0.7632143
vn 0.3255132 -0.5581623 0.7632143
vn 0.7634408 -0.5581623 0.3249814
vn -0.3822092 0.0009775171 -0.9240753
vn -0.9237537 0.0009775171 -0.3829859
vn -0.3822092 0.0009775171 -0.9240753
vn -0.9237537 0.0009775171 -0.3829859
vn -0.2277615 0.8044966 -0.5485526
vn -0.5483871 0.8044966 -0.2281596
vn -0.3822092 0.0009775171 -0.9240753
vn -0.9237537 0.0009775171 -0.3829859
vn -0.5483871 -0.8044966 -0.2281596
vn -0.2277615 -0.8044966 -0.5485526
vn 0.1769306 -0.7790811 0.6014385
vn 0.6031281 -0.7771261 0.1797543
vn 0.8357771 -0.4076246 0.3678571
vn 0.3665689 -0.4095797 0.8353872
vt 0.7534138 0.1591842
vt 0.7382798 0.1591842
vt 0.7299854 0.1508747
vt 0.7524388 0.1015581
vt 0.7543887 0.1015581
vt 0.7543887 0.1591842
vt 0.7299854 0.1015581
vt 0.4301708 0.1015581
vt 0.4301708 0.1508747
vt 0.426751 0.1015581
vt 0.426751 0.1508747
vt 0.2010913 0.1987365
vt 0.2010913 0.2001914
vt 0.3994079 0.2001914
vt 0.3994079 0.1987365
vt 0.2010913 0.1894521
vt 0.3994079 0.1894521
vt 0.2011363 0.1821326
vt 0.3994079 0.1821326
vt 0 0.1821326
vt 0.1973566 0.1894521
vt 0.1973116 0.1821326
vt 0 0.1894521
vt 0.1973566 0.1987365
vt 0.2010913 0.1894521
vt 0 0.1987365
vt 0.2010913 0.1987365
vt 0.1973566 0.2001914
vt 0 0.2001914
vt 0.2010913 0.2001914
vt 0.7543887 0.1015581
vt 0.7534138 0.1591842
vt 0.7543887 0.1591842
vt 0.7524388 0.1015581
vt 0.7382798 0.1591842
vt 0.7299854 0.1508747
vt 0.7299854 0.1015581
vt 0.4301708 0.1508747
vt 0.4301708 0.1015581
vt 0.426751 0.1508747
vt 0.426751 0.1015581
vt 0.2342391 0.0007349501
vt 0.4001428 0.0007349501
vt 0.4001428 0.0029398
vt 0.2342391 0.0029398
vt 0.2342391 0.1850574
vt 0.4001428 0.1850574
vt 0.3989729 0.1990215
vt 0.4001428 0.1990215
vt 0.2342091 0.1990215
vt 0.4001428 0.2001914
vt 0.2342391 0.2001914
vt 0.3634853 0.1990215
vt 0.3635003 0.2001914
vt 0.2006864 0.2001914
vt 0.2006864 0.1990215
vt 0.2006864 0.1850574
vt 0.3635003 0.1850574
vt 0.3635003 0.0029398
vt 0.2006864 0.0029398
vt 0.3653302 0.1850574
vt 0.3653302 0.0029398
vt 0.2006864 0.0007349501
vt 0.3635003 0.0007349501
vt 0 0
vt 0 0
vt 0 0
vt 0 0
vt 0 0
vt 0 0
vt 0 0
vt 0 0
vt 0.1973116 0.1821326
vt 0 0.002444834
vt 0 0.1821326
vt 0.1973116 0.002444834
vt 0 0.0004949663
vt 0.1973116 0.0004949663
vt 0.2011363 0.0004949663
vt 0.2025462 0.2001914
vt 0.2342841 0.235844
vt 0.4003978 0.235844
vt 0.4003978 0.2001914
vt 0.2011363 0.0004949663
vt 0.3994079 0.002444834
vt 0.3994079 0.0004949663
vt 0.2011363 0.002444834
vt 0.1973116 0.002444834
vt 0.3994079 0.1821326
vt 0.1973116 0.1821326
vt 0.2011363 0.1821326
vt 0.2006864 0.235844
vt 0.3985229 0.2001914
vt 0.2006864 0.2001914
vt 0.3636953 0.235844
vt 0.4002028 0.2022913
vt 0.3653752 0.2379288
vt 0.2014963 0.176268
vt 0.2004464 0.1752931
vt 0.2004464 0.176268
vt 0.2014963 0.1752931
vt 0.3988229 0.176268
vt 0.3965281 0.1752931
vt 0.397353 0.1749631
vt 0.3996478 0.175938
vt 0.2014963 0.1794478
vt 0.2004464 0.176268
vt 0.2004464 0.1794478
vt 0.2014963 0.176268
vt 0.3988229 0.1794478
vt 0.3988229 0.176268
vt 0 0
vt 0 0
vt 0 0
vt 0 0
vt 0.2004464 0.1794478
vt 0.2004464 0.1801828
vt 0.2014963 0.1801828
vt 0.2014963 0.1794478
vt 0.3965281 0.1801828
vt 0.3988229 0.1794478
vt 0 0
vt 0 0
vt 0 0
vt 0 0
vt 0.3979529 0.1794478
vt 0.3996629 0.1801828
vt 0.3996629 0.1794478
vt 0.3979529 0.1801828
vt 0.2012863 0.1794478
vt 0.2035362 0.1801828
vt 0.2026962 0.1804227
vt 0.2004314 0.1796878
vt 0.3996629 0.176268
vt 0.3996629 0.1752931
vt 0.3979529 0.1752931
vt 0.3979529 0.176268
vt 0.2035362 0.1752931
vt 0.2012863 0.176253
vt 0.3996629 0.1794478
vt 0.3996629 0.176268
vt 0.3979529 0.176268
vt 0.3979529 0.1794478
vt 0.2012863 0.176268
vt 0.2012863 0.1794478
vt 0.3988229 0.1794478
vt 0.3996629 0.1794478
vt 0.3996629 0.176268
vt 0.3988229 0.176268
vt 0.2342091 0.1990215
vt 0.2323792 0.1850574
vt 0.2342391 0.1850574
vt 0.2323492 0.1990215
vt 0.2342391 0.2001914
vt 0.2323792 0.2001914
vt 0.2342391 0.0029398
vt 0.2323792 0.0029398
vt 0.2323792 0.0007349501
vt 0.2342391 0.0007349501
vt 0.2011363 0.1821326
vt 0.1973116 0.1821326
vt 0.1973566 0.1894521
vt 0.2010913 0.1894521
f 1/1/1 2/2/2 3/3/3
f 4/4/4 1/1/1 3/3/3
f 5/5/5 1/1/1 4/4/4
f 5/5/5 6/6/6 1/1/1
f 3/3/3 7/7/7 4/4/4
f 3/3/3 8/8/8 7/7/7
f 3/3/3 9/9/9 8/8/8
f 9/9/9 10/10/10 8/8/8
f 9/9/9 11/11/11 10/10/10
f 12/12/12 13/13/13 14/14/14
f 12/12/12 14/14/14 15/15/15
f 16/16/16 12/12/12 15/15/15
f 16/16/16 15/15/15 17/17/17
f 18/18/18 16/16/16 17/17/17
f 18/18/18 17/17/17 19/19/19
f 20/20/20 21/21/21 22/22/22
f 20/20/20 23/23/23 21/21/21
f 23/23/23 24/24/24 21/21/21
f 24/24/24 25/25/25 21/21/21
f 23/23/23 26/26/26 24/24/24
f 24/24/24 27/27/27 25/25/25
f 26/26/26 28/28/28 24/24/24
f 28/28/28 27/27/27 24/24/24
f 26/26/26 29/29/29 28/28/28
f 28/28/28 30/30/30 27/27/27
f 31/31/31 32/32/32 33/33/33
f 31/31/31 34/34/34 32/32/32
f 35/35/35 32/32/32 34/34/34
f 36/36/36 35/35/35 34/34/34
f 34/34/34 37/37/37 36/36/36
f 37/37/37 38/38/38 36/36/36
f 37/37/37 39/39/39 38/38/38
f 39/39/39 40/40/40 38/38/38
f 39/39/39 41/41/41 40/40/40
f 42/42/42 43/43/43 44/44/44
f 42/42/42 44/44/44 45/45/45
f 44/44/44 46/46/46 45/45/45
f 44/44/44 47/47/47 46/46/46
f 48/48/48 46/46/46 47/47/47
f 47/47/47 49/49/49 48/48/48
f 48/48/48 50/50/50 46/46/46
f 49/49/49 51/51/51 48/48/48
f 48/48/48 52/52/52 50/50/50
f 48/48/48 51/51/51 52/52/52
f 53/53/53 54/54/54 55/55/55
f 53/53/53 55/55/55 56/56/56
f 57/57/57 53/53/53 56/56/56
f 57/57/57 58/58/58 53/53/53
f 59/59/59 58/58/58 57/57/57
f 59/59/59 57/57/57 60/60/60
f 59/59/59 61/61/61 58/58/58
f 59/59/59 62/62/62 61/61/61
f 63/63/63 59/59/59 60/60/60
f 63/63/63 64/64/64 59/59/59
f 65/65/65 66/66/66 67/67/67
f 65/65/65 68/68/68 66/66/66
f 69/69/69 66/66/66 68/68/68
f 69/69/69 68/68/68 70/70/70
f 70/70/70 71/71/71 69/69/69
f 70/70/70 72/72/72 71/71/71
f 73/73/73 74/74/74 75/75/75
f 73/73/73 76/76/76 74/74/74
f 77/77/77 74/74/74 76/76/76
f 77/77/77 76/76/76 78/78/78
f 76/76/76 79/79/79 78/78/78
f 80/80/80 81/81/81 82/82/82
f 80/80/80 82/82/82 83/83/83
f 84/84/84 85/85/85 86/86/86
f 84/84/84 87/87/87 85/85/85
f 88/88/88 87/87/87 84/84/84
f 89/89/89 85/85/85 87/87/87
f 90/90/90 87/87/87 88/88/88
f 89/89/89 87/87/87 91/91/91
f 90/90/90 91/91/91 87/87/87
f 92/92/92 93/93/93 94/94/94
f 92/92/92 95/95/95 93/93/93
f 95/95/95 96/96/96 93/93/93
f 95/95/95 97/97/97 96/96/96
f 98/98/98 99/99/99 100/100/100
f 98/98/98 101/101/101 99/99/99
f 102/102/102 101/101/101 98/98/98
f 102/102/102 103/103/103 101/101/101
f 102/102/102 104/104/104 103/103/103
f 102/102/102 105/105/105 104/104/104
f 106/106/106 107/107/107 108/108/108
f 106/106/106 109/109/109 107/107/107
f 110/110/110 109/109/109 106/106/106
f 110/110/110 111/111/111 109/109/109
f 112/112/112 113/113/113 114/114/114
f 112/112/112 114/114/114 115/115/115
f 116/116/116 117/117/117 118/118/118
f 116/116/116 118/118/118 119/119/119
f 119/119/119 118/118/118 120/120/120
f 119/119/119 120/120/120 121/121/121
f 122/122/122 123/123/123 124/124/124
f 122/122/122 124/124/124 125/125/125
f 126/126/126 127/127/127 128/128/128
f 126/126/126 129/129/129 127/127/127
f 130/130/130 129/129/129 126/126/126
f 130/130/130 131/131/131 129/129/129
f 130/130/130 132/132/132 131/131/131
f 130/130/130 133/133/133 132/132/132
f 134/134/134 135/135/135 136/136/136
f 134/134/134 136/136/136 137/137/137
f 137/137/137 136/136/136 138/138/138
f 137/137/137 138/138/138 139/139/139
f 140/140/140 141/141/141 142/142/142
f 140/140/140 142/142/142 143/143/143
f 143/143/143 142/142/142 144/144/144
f 143/143/143 144/144/144 145/145/145
f 146/146/146 147/147/147 148/148/148
f 146/146/146 148/148/148 149/149/149
f 150/150/150 151/151/151 152/152/152
f 150/150/150 153/153/153 151/151/151
f 154/154/154 153/153/153 150/150/150
f 154/154/154 155/155/155 153/153/153
f 156/156/156 157/157/157 158/158/158
f 156/156/156 158/158/158 159/159/159
f 160/160/160 161/161/161 162/162/162
f 160/160/160 162/162/162 163/163/163
