v 4.000001 0.01000074 4.000001
v 4.000001 -0.2030002 4.000001
v 4.000001 -0.2030002 3.197346E-08
v 4.000001 0.01000074 3.197346E-08
v 4.000001 0.01000074 3.197346E-08
v 4.000001 -0.2030002 3.197346E-08
v 3.197346E-08 -0.2030002 3.197346E-08
v 3.197346E-08 0.01000074 3.197346E-08
v 3.197346E-08 0.01000074 3.197346E-08
v 3.197346E-08 -0.2030002 3.197346E-08
v 3.197346E-08 -0.2030002 4.000001
v 3.197346E-08 0.01000074 4.000001
v 3.197346E-08 0.01000074 4.000001
v 3.197346E-08 -0.2030002 4.000001
v 4.000001 -0.2030002 4.000001
v 4.000001 0.01000074 4.000001
v 0.1599993 -0.2030002 3.840002
v 0.1599993 -0.2030002 0.1599993
v 3.839998 -0.2030002 0.1599993
v 3.839998 -0.2030002 3.840002
v 0.1599993 0.01000074 3.840002
v 3.840002 0.01000074 3.840002
v 3.840002 0.01000074 0.1599993
v 0.1599993 0.01000074 0.1599993
v 3.840002 0.01000074 3.840002
v 4.000001 0.01000074 4.000001
v 4.000001 0.01000074 3.197346E-08
v 3.840002 0.01000074 0.1599993
v 3.840002 0.01000074 0.1599993
v 4.000001 0.01000074 3.197346E-08
v 3.197346E-08 0.01000074 3.197346E-08
v 0.1599993 0.01000074 0.1599993
v 0.1599993 0.01000074 0.1599993
v 3.197346E-08 0.01000074 3.197346E-08
v 3.197346E-08 0.01000074 4.000001
v 0.1599993 0.01000074 3.840002
v 0.1599993 0.01000074 3.840002
v 3.197346E-08 0.01000074 4.000001
v 4.000001 0.01000074 4.000001
v 3.840002 0.01000074 3.840002
v 3.839998 -0.2030002 3.840002
v 3.839998 -0.2030002 0.1599993
v 4.000001 -0.2030002 3.197346E-08
v 4.000001 -0.2030002 4.000001
v 3.839998 -0.2030002 0.1599993
v 0.1599993 -0.2030002 0.1599993
v 3.197346E-08 -0.2030002 3.197346E-08
v 4.000001 -0.2030002 3.197346E-08
v 0.1599993 -0.2030002 0.1599993
v 0.1599993 -0.2030002 3.840002
v 3.197346E-08 -0.2030002 4.000001
v 3.197346E-08 -0.2030002 3.197346E-08
v 0.1599993 -0.2030002 3.840002
v 3.839998 -0.2030002 3.840002
v 4.000001 -0.2030002 4.000001
v 3.197346E-08 -0.2030002 4.000001
vn 0.9999995 0.0009775166 0
vn 0.9999995 0.0009775166 0
vn 0.9999995 0.0009775166 0
vn 0.9999995 0.0009775166 0
vn 0.0009775171 0.0009775171 -0.999999
vn 0.0009775171 0.0009775171 -0.999999
vn 0.0009775171 0.0009775171 -0.999999
vn 0.0009775171 0.0009775171 -0.999999
vn -0.9999995 0.0009775166 0
vn -0.9999995 0.0009775166 0
vn -0.9999995 0.0009775166 0
vn -0.9999995 0.0009775166 0
vn 0.0009775171 0.0009775171 0.999999
vn 0.0009775171 0.0009775171 0.999999
vn 0.0009775171 0.0009775171 0.999999
vn 0.0009775171 0.0009775171 0.999999
vn 0.0009775166 -0.9999995 0
vn 0.0009775166 -0.9999995 0
vn 0.0009775166 -0.9999995 0
vn 0.0009775166 -0.9999995 0
vn 0.0009775166 0.9999995 0
vn 0.0009775166 0.9999995 0
vn 0.0009775166 0.9999995 0
vn 0.0009775166 0.9999995 0
vn 0.0009775166 0.9999995 0
vn 0.0009775166 0.9999995 0
vn 0.0009775166 0.9999995 0
vn 0.0009775166 0.9999995 0
vn 0.0009775166 0.9999995 0
vn 0.0009775166 0.9999995 0
vn 0.0009775166 0.9999995 0
vn 0.0009775166 0.9999995 0
vn 0.0009775166 0.9999995 0
vn 0.0009775166 0.9999995 0
vn 0.0009775166 0.9999995 0
vn 0.0009775166 0.9999995 0
vn 0.0009775166 0.9999995 0
vn 0.0009775166 0.9999995 0
vn 0.0009775166 0.9999995 0
vn 0.0009775166 0.9999995 0
vn 0.0009775166 -0.9999995 0
vn 0.0009775166 -0.9999995 0
vn 0.0009775166 -0.9999995 0
vn 0.0009775166 -0.9999995 0
vn 0.0009775166 -0.9999995 0
vn 0.0009775166 -0.9999995 0
vn 0.0009775166 -0.9999995 0
vn 0.0009775166 -0.9999995 0
vn 0.0009775166 -0.9999995 0
vn 0.0009775166 -0.9999995 0
vn 0.0009775166 -0.9999995 0
vn 0.0009775166 -0.9999995 0
vn 0.0009775166 -0.9999995 0
vn 0.0009775166 -0.9999995 0
vn 0.0009775166 -0.9999995 0
vn 0.0009775166 -0.9999995 0
vt 0.599606 0.5498101
vt 0.599606 0.535149
vt 0.4003919 0.535149
vt 0.4003919 0.5498101
vt 0.599606 0.5498101
vt 0.599606 0.535149
vt 0.4003919 0.535149
vt 0.4003919 0.5498101
vt 0.599606 0.5498101
vt 0.599606 0.535149
vt 0.4003919 0.535149
vt 0.4003919 0.5498101
vt 0.4003919 0.535149
vt 0.4003919 0.5498101
vt 0.599606 0.5498101
vt 0.599606 0.535149
vt 0.5826836 0.8245301
vt 0.5826836 0.9884576
vt 0.4183008 0.9884576
vt 0.4183008 0.8245301
vt 0.5826836 0.8245301
vt 0.4183008 0.8245301
vt 0.4183008 0.9884576
vt 0.5826836 0.9884576
vt 0.4316415 0.8217831
vt 0.4213817 0.8139669
vt 0.4213817 0.9985352
vt 0.4316415 0.9912046
vt 0.4316415 0.8212822
vt 0.4213817 0.8134812
vt 0.4213817 0.9985352
vt 0.4316415 0.9912046
vt 0.4316415 0.9912046
vt 0.4213817 0.9985352
vt 0.4213817 0.8139669
vt 0.4316415 0.8217831
vt 0.4316415 0.8207965
vt 0.4213817 0.8134812
vt 0.4213817 0.9985352
vt 0.4316415 0.9912046
vt 0.4316415 0.8217831
vt 0.4316415 0.9912046
vt 0.4213817 0.9985352
vt 0.4213817 0.8139669
vt 0.4316415 0.8212822
vt 0.4316415 0.9912046
vt 0.4213817 0.9985352
vt 0.4213817 0.8134812
vt 0.4316415 0.9912046
vt 0.4316415 0.8217831
vt 0.4213817 0.8139669
vt 0.4213817 0.9985352
vt 0.4316415 0.8207965
vt 0.4316415 0.9912046
vt 0.4213817 0.9985352
vt 0.4213817 0.8134812
f 1/1/1 2/2/2 3/3/3
f 1/1/1 3/3/3 4/4/4
f 5/5/5 6/6/6 7/7/7
f 5/5/5 7/7/7 8/8/8
f 9/9/9 10/10/10 11/11/11
f 9/9/9 11/11/11 12/12/12
f 13/13/13 14/14/14 15/15/15
f 13/13/13 15/15/15 16/16/16
f 17/17/17 18/18/18 19/19/19
f 17/17/17 19/19/19 20/20/20
f 21/21/21 22/22/22 23/23/23
f 21/21/21 23/23/23 24/24/24
f 25/25/25 26/26/26 27/27/27
f 25/25/25 27/27/27 28/28/28
f 29/29/29 30/30/30 31/31/31
f 29/29/29 31/31/31 32/32/32
f 33/33/33 34/34/34 35/35/35
f 33/33/33 35/35/35 36/36/36
f 37/37/37 38/38/38 39/39/39
f 37/37/37 39/39/39 40/40/40
f 41/41/41 42/42/42 43/43/43
f 41/41/41 43/43/43 44/44/44
f 45/45/45 46/46/46 47/47/47
f 45/45/45 47/47/47 48/48/48
f 49/49/49 50/50/50 51/51/51
f 49/49/49 51/51/51 52/52/52
f 53/53/53 54/54/54 55/55/55
f 53/53/53 55/55/55 56/56/56
