v 0.3000002 0.1300014 1.798676E-06
v -0.3000007 0.1300014 1.798676E-06
v -0.3000007 -0.01999782 1.798676E-06
v -0.2499996 -0.06999892 1.798676E-06
v -0.2196167 -0.06999892 1.798676E-06
v 0.2183286 -0.06999892 1.798676E-06
v 0.2499991 -0.06999892 1.798676E-06
v 0.3000002 -0.01999782 1.798676E-06
v -0.3000007 -0.01999782 1.798676E-06
v -0.3000007 0.1300014 1.798676E-06
v -0.3000007 0.1300014 -4
v -0.3000007 -0.02000192 -4
v -0.3000007 0.1300014 1.798676E-06
v 0.3000002 0.1300014 1.798676E-06
v 0.3000002 0.1300014 -4
v -0.3000007 0.1300014 -4
v 0.2183286 -0.06999892 -4
v 0.2499991 -0.06999892 -4
v 0.2499991 -0.06999892 1.798676E-06
v 0.2183286 -0.06999892 1.798676E-06
v -0.2196167 -0.06999892 -4
v -0.2196167 -0.06999892 1.798676E-06
v -0.2499996 -0.06999892 -4
v -0.2499996 -0.06999892 1.798676E-06
v 0.3000002 -0.02000192 -4
v 0.3000002 0.1300014 -4
v 0.3000002 0.1300014 1.798676E-06
v 0.3000002 -0.01999782 1.798676E-06
v 0.2499991 -0.06999892 -4
v 0.2499991 -0.06999892 1.798676E-06
v -0.2499996 -0.06999892 1.798676E-06
v -0.3000007 -0.01999782 1.798676E-06
v -0.3000007 -0.02000192 -4
v -0.2499996 -0.06999892 -4
v -0.2499996 -0.06999892 -4
v -0.3000007 -0.02000192 -4
v -0.3000007 0.1300014 -4
v 0.3000002 0.1300014 -4
v -0.2196167 -0.06999892 -4
v 0.2183286 -0.06999892 -4
v 0.2499991 -0.06999892 -4
v 0.3000002 -0.02000192 -4
vn 0.0009775171 0.0009775171 0.999999
vn 0.0009775171 0.0009775171 0.999999
vn 0.0009775171 0.0009775171 0.999999
vn 0.0009775171 0.0009775171 0.999999
vn 0.0009775171 0.0009775171 0.999999
vn 0.0009775171 0.0009775171 0.999999
vn 0.0009775171 0.0009775171 0.999999
vn 0.0009775171 0.0009775171 0.999999
vn -0.9237537 -0.3822092 -0.0243988
vn -0.9999995 0.0009775166 0
vn -0.9999995 0.0009775166 0
vn -0.9237537 -0.3822092 -0.0243988
vn 0.0009775166 0.9999995 0
vn 0.0009775166 0.9999995 0
vn 0.0009775166 0.9999995 0
vn 0.0009775166 0.9999995 0
vn 0.0009775166 -0.9999995 0
vn 0.3822092 -0.9237537 -0.02439941
vn 0.3822092 -0.9237537 -0.02439941
vn 0.0009775166 -0.9999995 0
vn 0.0009775166 -0.9999995 0
vn 0.0009775166 -0.9999995 0
vn -0.3822092 -0.9237537 -0.02439941
vn -0.3822092 -0.9237537 -0.02439941
vn 0.9237537 -0.3822092 -0.0243988
vn 0.9999995 0.0009775166 0
vn 0.9999995 0.0009775166 0
vn 0.9237537 -0.3822092 -0.0243988
vn 0.3822092 -0.9237537 -0.02439941
vn 0.3822092 -0.9237537 -0.02439941
vn -0.3822092 -0.9237537 -0.02439941
vn -0.9237537 -0.3822092 -0.0243988
vn -0.9237537 -0.3822092 -0.0243988
vn -0.3822092 -0.9237537 -0.02439941
vn 0.0009775171 0.0009775171 -0.999999
vn 0.0009775171 0.0009775171 -0.999999
vn 0.0009775171 0.0009775171 -0.999999
vn 0.0009775171 0.0009775171 -0.999999
vn 0.0009775171 0.0009775171 -0.999999
vn 0.0009775171 0.0009775171 -0.999999
vn 0.0009775171 0.0009775171 -0.999999
vn 0.0009775171 0.0009775171 -0.999999
vt 0.9548321 0.5002429
vt 0.9091803 0.5002429
vt 0.9095449 0.5088568
vt 0.9133733 0.5117129
vt 0.9156217 0.5117129
vt 0.9480565 0.5117129
vt 0.9503961 0.5117129
vt 0.9542853 0.5088568
vt 0.831048 0.8754845
vt 0.8647438 0.8754845
vt 0.8647438 0.6083946
vt 0.831048 0.6083946
vt 0.8647438 0.8754845
vt 0.9096664 0.8754845
vt 0.9096664 0.6083946
vt 0.8647438 0.6083946
vt 0.961547 0.6083946
vt 0.9592226 0.6083946
vt 0.9592226 0.8754845
vt 0.961547 0.8754845
vt 0.9936172 0.6083946
vt 0.9936172 0.8754845
vt 0.9958504 0.6083946
vt 0.9958504 0.8754845
vt 0.9440914 0.6083946
vt 0.9096664 0.6083946
vt 0.9096664 0.8754845
vt 0.9440914 0.8754845
vt 0.9592226 0.6083946
vt 0.9592226 0.8754845
vt 0.9958504 0.8754845
vt 0.9995117 0.8754845
vt 0.9995117 0.6083946
vt 0.9958504 0.6083946
vt 0.9060051 0.5700653
vt 0.9096664 0.5661609
vt 0.9096664 0.5551771
vt 0.865473 0.5551771
vt 0.9035593 0.5700653
vt 0.8715802 0.5700653
vt 0.8691342 0.5700653
vt 0.865473 0.5661609
f 1/1/1 2/2/2 3/3/3
f 3/3/3 4/4/4 1/1/1
f 4/4/4 5/5/5 1/1/1
f 5/5/5 6/6/6 1/1/1
f 6/6/6 7/7/7 1/1/1
f 7/7/7 8/8/8 1/1/1
f 9/9/9 10/10/10 11/11/11
f 9/9/9 11/11/11 12/12/12
f 13/13/13 14/14/14 15/15/15
f 13/13/13 15/15/15 16/16/16
f 17/17/17 18/18/18 19/19/19
f 17/17/17 19/19/19 20/20/20
f 21/21/21 17/17/17 20/20/20
f 21/21/21 20/20/20 22/22/22
f 23/23/23 21/21/21 22/22/22
f 23/23/23 22/22/22 24/24/24
f 25/25/25 26/26/26 27/27/27
f 25/25/25 27/27/27 28/28/28
f 29/29/29 25/25/25 28/28/28
f 29/29/29 28/28/28 30/30/30
f 31/31/31 32/32/32 33/33/33
f 31/31/31 33/33/33 34/34/34
f 35/35/35 36/36/36 37/37/37
f 37/37/37 38/38/38 35/35/35
f 38/38/38 39/39/39 35/35/35
f 38/38/38 40/40/40 39/39/39
f 38/38/38 41/41/41 40/40/40
f 38/38/38 42/42/42 41/41/41
