v 4.600003 0.8000006 -4
v 3.600005 5.20186E-07 -4
v 3.600005 0.8000006 -4
v 4.600003 5.20186E-07 -4
v 4.699998 5.20186E-07 -4
v 4.699998 0.8000006 -4
v 5.20186E-07 0.9999986 -0.4000037
v 5.20186E-07 0.8000006 -0.4000037
v 5.20186E-07 0.8000006 0.8000006
v 5.20186E-07 0.9893067 0.8000006
v 5.20186E-07 0.9999986 0.7913901
v 5.20186E-07 0.9893067 0.8000006
v 5.20186E-07 0.8000006 0.8000006
v 4.782453 0.8000006 0.8000006
v 4.782453 0.9893067 0.8000006
v 5.20186E-07 0.9999986 0.7913901
v 4.773842 0.9999986 0.7913901
v 4.699998 0.8000006 -3.977475
v 4.699998 5.20186E-07 -4
v 4.699998 0.8000006 -4
v 4.699998 5.20186E-07 -3.977475
v 4.699998 0.8000006 -3.803183
v 4.699998 5.20186E-07 -3.803183
v 4.699998 0.8000006 -3.800002
v 4.699998 5.20186E-07 -3.800002
v 4.690666 5.20186E-07 -3.790661
v 4.690666 0.8000006 -3.790661
v 4.60498 5.20186E-07 -3.704976
v 4.60498 0.8000006 -3.704976
v 4.600003 5.20186E-07 -3.699999
v 4.600003 0.8000006 -3.699999
v 4.600003 0.8000006 -3.686076
v 4.600003 5.20186E-07 -3.686076
v 4.600003 0.8000006 -3.651088
v 4.600003 5.20186E-07 -3.651088
v 4.600003 0.8000006 0.3000016
v 4.600003 5.20186E-07 0.3000016
v 4.608077 0.8000006 0.308075
v 4.608077 5.20186E-07 0.308075
v 4.688903 0.8000006 0.3889017
v 4.688903 5.20186E-07 0.3889017
v 4.699998 0.8000006 0.3999964
v 4.699998 5.20186E-07 0.3999964
v 4.699998 0.8000006 0.4146578
v 4.699998 5.20186E-07 0.4146578
v 4.699998 0.8000006 0.6933256
v 4.699998 5.20186E-07 0.6933256
v 4.693326 5.20186E-07 0.6999975
v 4.693326 0.8000006 0.6999975
v 5.20186E-07 0.9999986 0.7913901
v 4.773842 0.9999986 0.7913901
v 3.582448 0.9999986 -0.4000037
v 5.20186E-07 0.9999986 -0.4000037
v 5.20186E-07 0.8000006 -0.4000037
v 3.600005 0.8000006 -0.4000037
v 3.600005 5.20186E-07 -0.4000037
v 5.20186E-07 5.20186E-07 -0.4000037
v 5.20186E-07 0.9999986 -0.4000037
v 3.582448 0.9999986 -0.4000037
v 3.582448 0.8000006 -0.4000037
v 5.20186E-07 0.8000006 -0.4000037
v 4.79139 0.9999986 0.7738417
v 4.79139 0.9999986 -4
v 3.600005 0.9999986 -4
v 3.600005 0.9999986 -0.4175521
v 4.773842 0.9999986 0.7913901
v 3.582448 0.9999986 -0.4000037
v 4.800001 0.9893067 0.7824522
v 4.782453 0.9893067 0.8000006
v 4.782453 0.8000006 0.8000006
v 5.20186E-07 0.8000006 0.8000006
v 5.20186E-07 0.8000006 -0.4000037
v 3.582448 0.8000006 -0.4000037
v 5.20186E-07 5.20186E-07 0.6999975
v 5.20186E-07 0.8000006 0.6999975
v 5.20186E-07 0.8000006 -0.4000037
v 5.20186E-07 5.20186E-07 -0.4000037
v 4.800001 0.8000006 -4
v 3.600005 0.8000006 -4
v 3.600005 0.9999986 -4
v 4.79139 0.9999986 -4
v 4.800001 0.9893067 -4
v 3.600005 0.9999986 -0.4175521
v 3.600005 0.9999986 -4
v 3.600005 0.8000006 -4
v 3.600005 0.8000006 -0.4175521
v 4.800001 0.8000006 -4
v 3.600005 0.8000006 -0.4175521
v 3.600005 0.8000006 -4
v 4.800001 0.8000006 0.7824522
v 3.582448 0.8000006 -0.4000037
v 4.782453 0.8000006 0.8000006
v 3.600005 0.8000006 -0.4000037
v 3.600005 0.8000006 -4
v 3.600005 5.20186E-07 -4
v 3.600005 5.20186E-07 -0.4000037
v 4.399997 0.8000006 0.6999975
v 4.693326 5.20186E-07 0.6999975
v 4.693326 0.8000006 0.6999975
v 4.399997 5.20186E-07 0.6999975
v 4.396548 5.20186E-07 0.6965482
v 4.396548 0.8000006 0.6965482
v 4.307354 5.20186E-07 0.6073544
v 4.307354 0.8000006 0.6073544
v 4.300002 5.20186E-07 0.6000027
v 4.300002 0.8000006 0.6000027
v 1.610827 0.8000006 0.6000027
v 1.610827 5.20186E-07 0.6000027
v 0.3255563 0.8000006 0.6000027
v 0.3255563 5.20186E-07 0.6000027
v 0.3000016 0.8000006 0.6000027
v 0.3000016 5.20186E-07 0.6000027
v 0.2793816 0.8000006 0.6206227
v 0.2793816 5.20186E-07 0.6206227
v 0.2067207 0.8000006 0.6932836
v 0.2067207 5.20186E-07 0.6932836
v 0.1999985 0.8000006 0.6999975
v 0.1999985 5.20186E-07 0.6999975
v 0.1806457 0.8000006 0.6999975
v 0.1806457 5.20186E-07 0.6999975
v 0.01771676 0.8000006 0.6999975
v 0.01771676 5.20186E-07 0.6999975
v 5.20186E-07 0.8000006 0.6999975
v 5.20186E-07 5.20186E-07 0.6999975
v 3.582448 0.9999986 -0.4000037
v 3.600005 0.9999986 -0.4175521
v 3.600005 0.8000006 -0.4175521
v 3.582448 0.8000006 -0.4000037
v 4.800001 0.9893067 0.7824522
v 4.782453 0.9893067 0.8000006
v 4.782453 0.8000006 0.8000006
v 4.800001 0.8000006 0.7824522
v 4.79139 0.9999986 0.7738417
v 4.800001 0.9893067 -4
v 4.79139 0.9999986 -4
v 4.800001 0.9893067 0.7824522
v 4.800001 0.8000006 -4
v 4.800001 0.8000006 0.7824522
vn 0.0009775171 0.0009775171 -0.999999
vn 0.0009775171 0.0009775171 -0.999999
vn 0.0009775171 0.0009775171 -0.999999
vn 0.0009775171 0.0009775171 -0.999999
vn 0.0009775171 0.0009775171 -0.999999
vn 0.0009775171 0.0009775171 -0.999999
vn -0.9999995 0.0009775166 0
vn -0.9999995 0.0009775166 0
vn -0.9999995 0.0009775166 0
vn -0.9999995 0.0009775166 0
vn -0.9999995 0.0009775166 0
vn 0.0009775171 0.3313783 0.9434975
vn 0.0009775171 0.0009775171 0.999999
vn 0.3822092 0.0009775171 0.9240753
vn 0.3743891 0.368524 0.8508953
vn 0.0009775171 0.9022483 0.4312159
vn 0.1339198 0.888563 0.4387724
vn 0.9999995 0.0009775166 0
vn 0.9999995 0.0009775166 0
vn 0.9999995 0.0009775166 0
vn 0.9999995 0.0009775166 0
vn 0.9999995 0.0009775166 0
vn 0.9999995 0.0009775166 0
vn 0.9237537 0.0009775171 0.3829859
vn 0.9237537 0.0009775171 0.3829859
vn 0.7067448 0.0009775171 0.7074679
vn 0.7067448 0.0009775171 0.7074679
vn 0.7067448 0.0009775171 0.7074679
vn 0.7067448 0.0009775171 0.7074679
vn 0.9237537 0.0009775171 0.3829859
vn 0.9237537 0.0009775171 0.3829859
vn 0.9999995 0.0009775166 0
vn 0.9999995 0.0009775166 0
vn 0.9999995 0.0009775166 0
vn 0.9999995 0.0009775166 0
vn 0.9237537 0.0009775171 -0.3829859
vn 0.9237537 0.0009775171 -0.3829859
vn 0.7067448 0.0009775171 -0.7074679
vn 0.7067448 0.0009775171 -0.7074679
vn 0.7067448 0.0009775171 -0.7074679
vn 0.7067448 0.0009775171 -0.7074679
vn 0.9237537 0.0009775171 -0.3829859
vn 0.9237537 0.0009775171 -0.3829859
vn 0.9999995 0.0009775166 0
vn 0.9999995 0.0009775166 0
vn 0.9237537 0.0009775171 0.3829859
vn 0.9237537 0.0009775171 0.3829859
vn 0.3822092 0.0009775171 0.9240753
vn 0.3822092 0.0009775171 0.9240753
vn 0.0009775171 0.9022483 0.4312159
vn 0.1339198 0.888563 0.4387724
vn 0.0009775166 0.9999995 0
vn 0.0009775166 0.9999995 0
vn 0.0009775171 0.0009775171 -0.999999
vn 0.0009775171 0.0009775171 -0.999999
vn 0.0009775171 0.0009775171 -0.999999
vn 0.0009775171 0.0009775171 -0.999999
vn 0.0009775171 0.0009775171 -0.999999
vn -0.3822092 0.0009775171 -0.9240753
vn -0.3822092 0.0009775171 -0.9240753
vn 0.0009775171 0.0009775171 -0.999999
vn 0.4369501 0.888563 0.1397508
vn 0.4310851 0.9022483 -0.01066702
vn 0.0009775166 0.9999995 0
vn 0.0009775166 0.9999995 0
vn 0.1339198 0.888563 0.4387724
vn 0.0009775166 0.9999995 0
vn 0.8514174 0.368524 0.3732003
vn 0.3743891 0.368524 0.8508953
vn 0.0009775166 -0.9999995 0
vn 0.0009775166 -0.9999995 0
vn 0.0009775166 -0.9999995 0
vn 0.0009775166 -0.9999995 0
vn -0.9999995 0.0009775166 0
vn -0.9999995 0.0009775166 0
vn -0.9999995 0.0009775166 0
vn -0.9999995 0.0009775166 0
vn 0.0009775171 0.0009775171 -0.999999
vn 0.0009775171 0.0009775171 -0.999999
vn 0.0009775171 0.0009775171 -0.999999
vn 0.0009775171 0.0009775171 -0.999999
vn 0.0009775171 0.0009775171 -0.999999
vn -0.9237537 0.0009775171 -0.3829859
vn -0.9999995 0.0009775166 0
vn -0.9999995 0.0009775166 0
vn -0.9237537 0.0009775171 -0.3829859
vn 0.0009775166 -0.9999995 0
vn 0.0009775166 -0.9999995 0
vn 0.0009775166 -0.9999995 0
vn 0.0009775166 -0.9999995 0
vn 0.0009775166 -0.9999995 0
vn 0.0009775166 -0.9999995 0
vn -0.9999995 0.0009775166 0
vn -0.9999995 0.0009775166 0
vn -0.9999995 0.0009775166 0
vn -0.9999995 0.0009775166 0
vn -0.3822092 0.0009775171 0.9240753
vn 0.3822092 0.0009775171 0.9240753
vn 0.3822092 0.0009775171 0.9240753
vn -0.3822092 0.0009775171 0.9240753
vn -0.7067448 0.0009775171 0.7074679
vn -0.7067448 0.0009775171 0.7074679
vn -0.7067448 0.0009775171 0.7074679
vn -0.7067448 0.0009775171 0.7074679
vn -0.3822092 0.0009775171 0.9240753
vn -0.3822092 0.0009775171 0.9240753
vn 0.0009775171 0.0009775171 0.999999
vn 0.0009775171 0.0009775171 0.999999
vn 0.0009775171 0.0009775171 0.999999
vn 0.0009775171 0.0009775171 0.999999
vn 0.3822092 0.0009775171 0.9240753
vn 0.3822092 0.0009775171 0.9240753
vn 0.7067448 0.0009775171 0.7074679
vn 0.7067448 0.0009775171 0.7074679
vn 0.7067448 0.0009775171 0.7074679
vn 0.7067448 0.0009775171 0.7074679
vn 0.3822092 0.0009775171 0.9240753
vn 0.3822092 0.0009775171 0.9240753
vn 0.0009775171 0.0009775171 0.999999
vn 0.0009775171 0.0009775171 0.999999
vn 0.0009775171 0.0009775171 0.999999
vn 0.0009775171 0.0009775171 0.999999
vn 0.0009775171 0.0009775171 0.999999
vn 0.0009775171 0.0009775171 0.999999
vn -0.3822092 0.0009775171 -0.9240753
vn -0.9237537 0.0009775171 -0.3829859
vn -0.9237537 0.0009775171 -0.3829859
vn -0.3822092 0.0009775171 -0.9240753
vn 0.8514174 0.368524 0.3732003
vn 0.3743891 0.368524 0.8508953
vn 0.3822092 0.0009775171 0.9240753
vn 0.9237537 0.0009775171 0.3829859
vn 0.4369501 0.888563 0.1397508
vn 0.943304 0.3313783 -0.01913099
vn 0.4310851 0.9022483 -0.01066702
vn 0.8514174 0.368524 0.3732003
vn 0.9999995 0.0009775166 0
vn 0.9237537 0.0009775171 0.3829859
vt 0.1655242 0.186038
vt 0.216801 0.1445239
vt 0.216801 0.186038
vt 0.1655242 0.1445239
vt 0.1601563 0.1445239
vt 0.1601563 0.186038
vt 0.2080116 0.1865246
vt 0.2080116 0.1772486
vt 0.155275 0.1772486
vt 0.155275 0.186038
vt 0.1557616 0.1865246
vt 0.0004866124 0.1396121
vt 0.0004866124 0.1303665
vt 0.2661161 0.1303665
vt 0.2661161 0.1396121
vt 0.0004866124 0.1405549
vt 0.2656295 0.1405549
vt 0.0009276049 0.1293933
vt 0 0.09081404
vt 0 0.1293933
vt 0.0009276049 0.09081404
vt 0.008165964 0.1293933
vt 0.008165964 0.09081404
vt 0.008302824 0.1293933
vt 0.008302824 0.09081404
vt 0.008895882 0.09081404
vt 0.008895882 0.1293933
vt 0.01433986 0.09081404
vt 0.01433986 0.1293933
vt 0.01464399 0.09081404
vt 0.01464399 0.1293933
vt 0.01522184 0.1293933
vt 0.01522184 0.09081404
vt 0.01668168 0.1293933
vt 0.01668168 0.09081404
vt 0.1811567 0.1293933
vt 0.1811567 0.09081404
vt 0.1816585 0.1293933
vt 0.1816585 0.09081404
vt 0.1867983 0.1293933
vt 0.1867983 0.09081404
vt 0.1874978 0.1293933
vt 0.1874978 0.09081404
vt 0.1881213 0.1293933
vt 0.1881213 0.09081404
vt 0.1999065 0.1293933
vt 0.1999065 0.09081404
vt 0.2004691 0.09081404
vt 0.2004691 0.1293933
vt 0.0004866124 0.1405549
vt 0.2656295 0.1405549
vt 0.1992221 0.1989788
vt 0.0004866124 0.1989788
vt 0.02539508 0.1435506
vt 0.267576 0.1435506
vt 0.267576 0.1972605
vt 0.02539508 0.1972605
vt 0.0004866124 0.1989788
vt 0.1992221 0.1989788
vt 0.1992221 0.1884711
vt 0.0004866124 0.1884711
vt 0.00194645 0.1405549
vt 0.2670894 0.1405549
vt 0.2670894 0.1989788
vt 0.06786722 0.1989788
vt 0.0009580181 0.1414217
vt 0.06689399 0.1998304
vt 0.001459837 0.1396121
vt 0.0004866124 0.1396121
vt 0.1749219 0.7904714
vt 0.1732188 0.7707484
vt 0.1732188 0.7707484
vt 0.1749219 0.790441
vt 0.1596697 0.1425774
vt 0.1596697 0.1772486
vt 0.2080116 0.1772486
vt 0.2080116 0.1425774
vt 0.1547884 0.186038
vt 0.216801 0.186038
vt 0.216801 0.1958007
vt 0.1557616 0.1958007
vt 0.1547884 0.1958007
vt 0.06786722 0.1989788
vt 0.2670894 0.1989788
vt 0.2670894 0.1884711
vt 0.06786722 0.1884711
vt 0.1749371 0.7905474
vt 0.173234 0.7708396
vt 0.1749371 0.7905474
vt 0.1732188 0.7708244
vt 0.1732188 0.7706876
vt 0.1732188 0.7706724
vt 0.267576 0.1435506
vt 0.02539508 0.1435506
vt 0.02539508 0.1972605
vt 0.267576 0.1972605
vt 0.2084982 0.1293933
vt 0.2004691 0.09081404
vt 0.2004691 0.1293933
vt 0.2084982 0.09081404
vt 0.2086807 0.09081404
vt 0.2086807 0.1293933
vt 0.2134708 0.09081404
vt 0.2134708 0.1293933
vt 0.2138661 0.09081404
vt 0.2138661 0.1293933
vt 0.33079 0.1293933
vt 0.33079 0.09081404
vt 0.3846671 0.1293933
vt 0.3846671 0.09081404
vt 0.3857467 0.1293933
vt 0.3857467 0.09081404
vt 0.3869481 0.1293933
vt 0.3869481 0.09081404
vt 0.3912059 0.1293933
vt 0.3912059 0.09081404
vt 0.3916013 0.1293933
vt 0.3916013 0.09081404
vt 0.3924073 0.1293933
vt 0.3924073 0.09081404
vt 0.3991742 0.1293933
vt 0.3991742 0.09081404
vt 0.3999041 0.1293933
vt 0.3999041 0.09081404
vt 0.1992221 0.1989788
vt 0.2001954 0.1989788
vt 0.2001954 0.1884711
vt 0.1992221 0.1884711
vt 0.001459837 0.1396121
vt 0.0004866124 0.1396121
vt 0.0004866124 0.1303665
vt 0.001459837 0.1303665
vt 0.00194645 0.1405549
vt 0.2670894 0.1396121
vt 0.2670894 0.1405549
vt 0.001459837 0.1396121
vt 0.2670894 0.1303665
vt 0.001459837 0.1303665
f 1/1/1 2/2/2 3/3/3
f 1/1/1 4/4/4 2/2/2
f 1/1/1 5/5/5 4/4/4
f 1/1/1 6/6/6 5/5/5
f 7/7/7 8/8/8 9/9/9
f 9/9/9 10/10/10 7/7/7
f 10/10/10 11/11/11 7/7/7
f 12/12/12 13/13/13 14/14/14
f 12/12/12 14/14/14 15/15/15
f 16/16/16 12/12/12 15/15/15
f 16/16/16 15/15/15 17/17/17
f 18/18/18 19/19/19 20/20/20
f 18/18/18 21/21/21 19/19/19
f 22/22/22 21/21/21 18/18/18
f 22/22/22 23/23/23 21/21/21
f 24/24/24 23/23/23 22/22/22
f 24/24/24 25/25/25 23/23/23
f 26/26/26 25/25/25 24/24/24
f 26/26/26 24/24/24 27/27/27
f 28/28/28 26/26/26 27/27/27
f 28/28/28 27/27/27 29/29/29
f 30/30/30 28/28/28 29/29/29
f 30/30/30 29/29/29 31/31/31
f 32/32/32 30/30/30 31/31/31
f 32/32/32 33/33/33 30/30/30
f 34/34/34 33/33/33 32/32/32
f 34/34/34 35/35/35 33/33/33
f 36/36/36 35/35/35 34/34/34
f 36/36/36 37/37/37 35/35/35
f 38/38/38 37/37/37 36/36/36
f 38/38/38 39/39/39 37/37/37
f 40/40/40 39/39/39 38/38/38
f 40/40/40 41/41/41 39/39/39
f 42/42/42 41/41/41 40/40/40
f 42/42/42 43/43/43 41/41/41
f 44/44/44 43/43/43 42/42/42
f 44/44/44 45/45/45 43/43/43
f 46/46/46 45/45/45 44/44/44
f 46/46/46 47/47/47 45/45/45
f 46/46/46 48/48/48 47/47/47
f 46/46/46 49/49/49 48/48/48
f 50/50/50 51/51/51 52/52/52
f 50/50/50 52/52/52 53/53/53
f 54/54/54 55/55/55 56/56/56
f 54/54/54 56/56/56 57/57/57
f 58/58/58 59/59/59 60/60/60
f 58/58/58 60/60/60 61/61/61
f 62/62/62 63/63/63 64/64/64
f 62/62/62 64/64/64 65/65/65
f 65/65/65 66/66/66 62/62/62
f 65/65/65 67/67/67 66/66/66
f 66/66/66 68/68/68 62/62/62
f 66/66/66 69/69/69 68/68/68
f 70/70/70 71/71/71 72/72/72
f 70/70/70 72/72/72 73/73/73
f 74/74/74 75/75/75 76/76/76
f 74/74/74 76/76/76 77/77/77
f 78/78/78 79/79/79 80/80/80
f 80/80/80 81/81/81 78/78/78
f 81/81/81 82/82/82 78/78/78
f 83/83/83 84/84/84 85/85/85
f 83/83/83 85/85/85 86/86/86
f 87/87/87 88/88/88 89/89/89
f 87/87/87 90/90/90 88/88/88
f 90/90/90 91/91/91 88/88/88
f 90/90/90 92/92/92 91/91/91
f 93/93/93 94/94/94 95/95/95
f 93/93/93 95/95/95 96/96/96
f 97/97/97 98/98/98 99/99/99
f 97/97/97 100/100/100 98/98/98
f 101/101/101 100/100/100 97/97/97
f 101/101/101 97/97/97 102/102/102
f 103/103/103 101/101/101 102/102/102
f 103/103/103 102/102/102 104/104/104
f 105/105/105 103/103/103 104/104/104
f 105/105/105 104/104/104 106/106/106
f 107/107/107 105/105/105 106/106/106
f 107/107/107 108/108/108 105/105/105
f 109/109/109 108/108/108 107/107/107
f 109/109/109 110/110/110 108/108/108
f 111/111/111 110/110/110 109/109/109
f 111/111/111 112/112/112 110/110/110
f 113/113/113 112/112/112 111/111/111
f 113/113/113 114/114/114 112/112/112
f 115/115/115 114/114/114 113/113/113
f 115/115/115 116/116/116 114/114/114
f 117/117/117 116/116/116 115/115/115
f 117/117/117 118/118/118 116/116/116
f 119/119/119 118/118/118 117/117/117
f 119/119/119 120/120/120 118/118/118
f 121/121/121 120/120/120 119/119/119
f 121/121/121 122/122/122 120/120/120
f 123/123/123 122/122/122 121/121/121
f 123/123/123 124/124/124 122/122/122
f 125/125/125 126/126/126 127/127/127
f 125/125/125 127/127/127 128/128/128
f 129/129/129 130/130/130 131/131/131
f 129/129/129 131/131/131 132/132/132
f 133/133/133 134/134/134 135/135/135
f 133/133/133 136/136/136 134/134/134
f 136/136/136 137/137/137 134/134/134
f 136/136/136 138/138/138 137/137/137
