v -0.3955437 0.6851027 -0.02138313
v -0.6851027 0.3955437 -0.02138313
v -0.6851027 0.3955437 0.02138313
v -0.3955437 0.6851027 0.02138313
v 7.544411E-07 0.7910881 -0.02138313
v 7.544411E-07 0.7910881 0.02138313
v 0.3955452 0.6851027 -0.02138313
v 0.3955452 0.6851027 0.02138313
v -0.6851027 0.3955437 -0.02138313
v -0.7910881 7.544411E-07 0.02138313
v -0.6851027 0.3955437 0.02138313
v -0.7910881 -7.544411E-07 -0.02138313
v -0.6851027 -0.3955437 0.02138313
v -0.6851027 -0.3955437 -0.02138313
v -0.3955437 -0.6851027 0.02138463
v -0.3955437 -0.6851027 -0.02138313
v -0.3955437 -0.6851027 -0.02138313
v -7.544411E-07 -0.7910881 0.02138463
v -0.3955437 -0.6851027 0.02138463
v -7.544411E-07 -0.7910881 -0.02138313
v 0.3955437 -0.6851027 0.02138463
v 0.3955437 -0.6851027 -0.02138313
v 0.6851027 -0.3955437 0.02138313
v 0.6851027 -0.3955437 -0.02138313
v 0.6851027 -0.3955437 -0.02138313
v 0.7910881 -7.544411E-07 0.02138313
v 0.6851027 -0.3955437 0.02138313
v 0.7910881 -7.544411E-07 -0.02138313
v 0.6851027 0.3955437 0.02138313
v 0.6851027 0.3955437 -0.02138313
v 0.3955452 0.6851027 0.02138313
v 0.3955452 0.6851027 -0.02138313
v -0.6851027 0.3955437 0.02138313
v -0.7910881 7.544411E-07 0.02138313
v -0.6851027 -0.3955437 0.02138313
v -0.3955437 0.6851027 0.02138313
v -0.3955437 -0.6851027 0.02138463
v -7.544411E-07 -0.7910881 0.02138463
v 7.544411E-07 0.7910881 0.02138313
v 0.3955437 -0.6851027 0.02138463
v 0.3955452 0.6851027 0.02138313
v 0.6851027 -0.3955437 0.02138313
v 0.6851027 0.3955437 0.02138313
v 0.7910881 -7.544411E-07 0.02138313
v -0.6851027 -0.3955437 -0.02138313
v -0.7910881 -7.544411E-07 -0.02138313
v -0.6851027 0.3955437 -0.02138313
v -0.3955437 -0.6851027 -0.02138313
v -0.3955437 0.6851027 -0.02138313
v -7.544411E-07 -0.7910881 -0.02138313
v 7.544411E-07 0.7910881 -0.02138313
v 0.3955437 -0.6851027 -0.02138313
v 0.3955452 0.6851027 -0.02138313
v 0.6851027 -0.3955437 -0.02138313
v 0.6851027 0.3955437 -0.02138313
v 0.7910881 -7.544411E-07 -0.02138313
vn -0.4995112 0.8651026 -0.04567192
vn -0.8651026 0.4995112 -0.04567192
vn -0.8651026 0.4995112 -0.04567192
vn -0.4995112 0.8651026 -0.04567192
vn 0.0009775166 0.9999995 0
vn 0.0009775166 0.9999995 0
vn 0.4995112 0.8651026 -0.04567192
vn 0.4995112 0.8651026 -0.04567192
vn -0.8651026 0.4995112 -0.04567192
vn -0.9999995 0.0009775166 0
vn -0.8651026 0.4995112 -0.04567192
vn -0.9999995 0.0009775166 0
vn -0.8651026 -0.4995112 -0.04567192
vn -0.8651026 -0.4995112 -0.04567192
vn -0.4995112 -0.8651026 -0.04567192
vn -0.4995112 -0.8651026 -0.04567192
vn -0.4995112 -0.8651026 -0.04567192
vn 0.0009775166 -0.9999995 0
vn -0.4995112 -0.8651026 -0.04567192
vn 0.0009775166 -0.9999995 0
vn 0.4995112 -0.8651026 -0.04567192
vn 0.4995112 -0.8651026 -0.04567192
vn 0.8651026 -0.4995112 -0.04567192
vn 0.8651026 -0.4995112 -0.04567192
vn 0.8651026 -0.4995112 -0.04567192
vn 0.9999995 0.0009775166 0
vn 0.8651026 -0.4995112 -0.04567192
vn 0.9999995 0.0009775166 0
vn 0.8651026 0.4995112 -0.04567192
vn 0.8651026 0.4995112 -0.04567192
vn 0.4995112 0.8651026 -0.04567192
vn 0.4995112 0.8651026 -0.04567192
vn 0.0009775171 0.0009775171 0.999999
vn 0.0009775171 0.0009775171 0.999999
vn 0.0009775171 0.0009775171 0.999999
vn 0.0009775171 0.0009775171 0.999999
vn 0.0009775171 0.0009775171 0.999999
vn 0.0009775171 0.0009775171 0.999999
vn 0.0009775171 0.0009775171 0.999999
vn 0.0009775171 0.0009775171 0.999999
vn 0.0009775171 0.0009775171 0.999999
vn 0.0009775171 0.0009775171 0.999999
vn 0.0009775171 0.0009775171 0.999999
vn 0.0009775171 0.0009775171 0.999999
vn 0.0009775171 0.0009775171 -0.999999
vn 0.0009775171 0.0009775171 -0.999999
vn 0.0009775171 0.0009775171 -0.999999
vn 0.0009775171 0.0009775171 -0.999999
vn 0.0009775171 0.0009775171 -0.999999
vn 0.0009775171 0.0009775171 -0.999999
vn 0.0009775171 0.0009775171 -0.999999
vn 0.0009775171 0.0009775171 -0.999999
vn 0.0009775171 0.0009775171 -0.999999
vn 0.0009775171 0.0009775171 -0.999999
vn 0.0009775171 0.0009775171 -0.999999
vn 0.0009775171 0.0009775171 -0.999999
vt 0.7563826 0.9621737
vt 0.9390621 0.7794942
vt 0.9390621 0.7794942
vt 0.7563826 0.9621737
vt 0.5068398 1.029037
vt 0.5068398 1.029037
vt 0.257297 0.9621737
vt 0.257297 0.9621737
vt 0.9390621 0.7794942
vt 1.005925 0.5299515
vt 0.9390621 0.7794942
vt 1.005925 0.5299515
vt 0.9390621 0.2804008
vt 0.9390621 0.2804008
vt 0.7563826 0.09772138
vt 0.7563826 0.09772138
vt 0.7563826 0.09772138
vt 0.5068398 0.03085806
vt 0.7563826 0.09772138
vt 0.5068398 0.03085806
vt 0.257297 0.09772138
vt 0.257297 0.09772138
vt 0.07461759 0.2804008
vt 0.07461759 0.2804008
vt 0.07461759 0.2804008
vt 0.007746452 0.5299515
vt 0.07461759 0.2804008
vt 0.007746452 0.5299515
vt 0.07460978 0.7794942
vt 0.07460978 0.7794942
vt 0.257297 0.9621737
vt 0.257297 0.9621737
vt 0.9390621 0.7794942
vt 1.005925 0.5299515
vt 0.9390621 0.2804008
vt 0.7563826 0.9621737
vt 0.7563826 0.09772138
vt 0.5068398 0.03085806
vt 0.5068398 1.029037
vt 0.257297 0.09772138
vt 0.257297 0.9621737
vt 0.07461759 0.2804008
vt 0.07460978 0.7794942
vt 0.007746452 0.5299515
vt 0.9390621 0.2804008
vt 1.005925 0.5299515
vt 0.9390621 0.7794942
vt 0.7563826 0.09772138
vt 0.7563826 0.9621737
vt 0.5068398 0.03085806
vt 0.5068398 1.029037
vt 0.257297 0.09772138
vt 0.257297 0.9621737
vt 0.07461759 0.2804008
vt 0.07460978 0.7794942
vt 0.007746452 0.5299515
f 1/1/1 2/2/2 3/3/3
f 1/1/1 3/3/3 4/4/4
f 5/5/5 1/1/1 4/4/4
f 5/5/5 4/4/4 6/6/6
f 7/7/7 5/5/5 6/6/6
f 7/7/7 6/6/6 8/8/8
f 9/9/9 10/10/10 11/11/11
f 9/9/9 12/12/12 10/10/10
f 12/12/12 13/13/13 10/10/10
f 12/12/12 14/14/14 13/13/13
f 14/14/14 15/15/15 13/13/13
f 14/14/14 16/16/16 15/15/15
f 17/17/17 18/18/18 19/19/19
f 17/17/17 20/20/20 18/18/18
f 20/20/20 21/21/21 18/18/18
f 20/20/20 22/22/22 21/21/21
f 22/22/22 23/23/23 21/21/21
f 22/22/22 24/24/24 23/23/23
f 25/25/25 26/26/26 27/27/27
f 25/25/25 28/28/28 26/26/26
f 28/28/28 29/29/29 26/26/26
f 28/28/28 30/30/30 29/29/29
f 30/30/30 31/31/31 29/29/29
f 30/30/30 32/32/32 31/31/31
f 33/33/33 34/34/34 35/35/35
f 35/35/35 36/36/36 33/33/33
f 35/35/35 37/37/37 36/36/36
f 37/37/37 38/38/38 36/36/36
f 38/38/38 39/39/39 36/36/36
f 38/38/38 40/40/40 39/39/39
f 40/40/40 41/41/41 39/39/39
f 40/40/40 42/42/42 41/41/41
f 42/42/42 43/43/43 41/41/41
f 42/42/42 44/44/44 43/43/43
f 45/45/45 46/46/46 47/47/47
f 47/47/47 48/48/48 45/45/45
f 47/47/47 49/49/49 48/48/48
f 49/49/49 50/50/50 48/48/48
f 49/49/49 51/51/51 50/50/50
f 51/51/51 52/52/52 50/50/50
f 51/51/51 53/53/53 52/52/52
f 53/53/53 54/54/54 52/52/52
f 53/53/53 55/55/55 54/54/54
f 55/55/55 56/56/56 54/54/54
