v 0.09999857 -0.4999928 -3.900005
v 3.900005 -0.4999928 -3.900005
v 3.900005 -0.4999928 -0.09999857
v 0.09999857 -0.4999928 -0.09999857
v 3.900005 -0.4999928 -0.09999857
v 3.999996 -0.4999928 7.629402E-06
v 7.629402E-06 -0.4999928 7.629402E-06
v 0.09999857 -0.4999928 -0.09999857
v 7.629402E-06 7.629402E-06 7.629402E-06
v 7.629402E-06 7.629402E-06 -3.999996
v 7.629402E-06 -0.4999928 -3.999996
v 7.629402E-06 -0.4999928 7.629402E-06
v 0.09999857 -0.4999928 -0.09999857
v 7.629402E-06 -0.4999928 7.629402E-06
v 7.629402E-06 -0.4999928 -3.999996
v 0.09999857 -0.4999928 -3.900005
v 4.100002 -0.4999928 -3.900005
v 7.899994 -0.4999928 -3.900005
v 7.899994 -0.4999928 -0.09999857
v 4.100002 -0.4999928 -0.09999857
v 8 7.629402E-06 7.629402E-06
v 3.999996 7.629402E-06 7.629402E-06
v 3.999996 -0.4999928 7.629402E-06
v 8 -0.4999928 7.629402E-06
v 7.899994 -0.4999928 -0.09999857
v 8 -0.4999928 7.629402E-06
v 3.999996 -0.4999928 7.629402E-06
v 4.100002 -0.4999928 -0.09999857
v 0.09999857 -0.4999928 -7.900009
v 3.900005 -0.4999928 -7.900009
v 3.900005 -0.4999928 -4.100002
v 0.09999857 -0.4999928 -4.100002
v 3.999996 7.629402E-06 7.629402E-06
v 7.629402E-06 7.629402E-06 7.629402E-06
v 7.629402E-06 -0.4999928 7.629402E-06
v 3.999996 -0.4999928 7.629402E-06
v 4.100002 -0.4999928 -7.900009
v 7.899994 -0.4999928 -7.900009
v 7.899994 -0.4999928 -4.100002
v 4.100002 -0.4999928 -4.100002
v 4.100002 -0.4999928 -7.900009
v 3.999996 -0.4999928 -8
v 8 -0.4999928 -8
v 7.899994 -0.4999928 -7.900009
v 8 -7.629402E-06 -8
v 8 7.629402E-06 -3.999996
v 8 -0.4999928 -3.999996
v 8 -0.4999928 -8
v 0.09999857 -0.4999928 -3.900005
v 7.629402E-06 -0.4999928 -3.999996
v 3.999996 -0.4999928 -3.999996
v 3.900005 -0.4999928 -3.900005
v 7.899994 -0.4999928 -7.900009
v 8 -0.4999928 -8
v 8 -0.4999928 -3.999996
v 7.899994 -0.4999928 -4.100002
v 3.900005 -0.4999928 -3.900005
v 3.999996 -0.4999928 -3.999996
v 3.999996 -0.4999928 7.629402E-06
v 3.900005 -0.4999928 -0.09999857
v 4.100002 -0.4999928 -3.900005
v 3.999996 -0.4999928 -3.999996
v 8 -0.4999928 -3.999996
v 7.899994 -0.4999928 -3.900005
v 8 7.629402E-06 -3.999996
v 8 7.629402E-06 7.629402E-06
v 8 -0.4999928 7.629402E-06
v 8 -0.4999928 -3.999996
v 7.899994 -0.4999928 -3.900005
v 8 -0.4999928 -3.999996
v 8 -0.4999928 7.629402E-06
v 7.899994 -0.4999928 -0.09999857
v 4.100002 -0.4999928 -0.09999857
v 3.999996 -0.4999928 7.629402E-06
v 3.999996 -0.4999928 -3.999996
v 4.100002 -0.4999928 -3.900005
v 0.09999857 -0.4999928 -7.900009
v 7.629402E-06 -0.4999928 -8
v 3.999996 -0.4999928 -8
v 3.900005 -0.4999928 -7.900009
v 7.629402E-06 7.629402E-06 -8
v 3.999996 -7.629402E-06 -8
v 3.999996 -0.4999928 -8
v 7.629402E-06 -0.4999928 -8
v 7.629402E-06 7.629402E-06 -3.999996
v 7.629402E-06 7.629402E-06 -8
v 7.629402E-06 -0.4999928 -8
v 7.629402E-06 -0.4999928 -3.999996
v 3.900005 -0.4999928 -4.100002
v 3.999996 -0.4999928 -3.999996
v 7.629402E-06 -0.4999928 -3.999996
v 0.09999857 -0.4999928 -4.100002
v 3.900005 -0.4999928 -7.900009
v 3.999996 -0.4999928 -8
v 3.999996 -0.4999928 -3.999996
v 3.900005 -0.4999928 -4.100002
v 0.09999857 -0.4999928 -4.100002
v 7.629402E-06 -0.4999928 -3.999996
v 7.629402E-06 -0.4999928 -8
v 0.09999857 -0.4999928 -7.900009
v 3.999996 -7.629402E-06 -8
v 8 -7.629402E-06 -8
v 8 -0.4999928 -8
v 3.999996 -0.4999928 -8
v 7.899994 -0.4999928 -4.100002
v 8 -0.4999928 -3.999996
v 3.999996 -0.4999928 -3.999996
v 4.100002 -0.4999928 -4.100002
v 4.100002 -0.4999928 -4.100002
v 3.999996 -0.4999928 -3.999996
v 3.999996 -0.4999928 -8
v 4.100002 -0.4999928 -7.900009
v 3.999996 7.629402E-06 -3.999996
v 3.999996 -7.629402E-06 -8
v 1.999994 0.2000048 -5.999998
v 7.629402E-06 7.629402E-06 -3.999996
v 7.629402E-06 7.629402E-06 -8
v 8 7.629402E-06 7.629402E-06
v 8 7.629402E-06 -3.999996
v 5.999998 0.2000048 -1.999994
v 3.999996 7.629402E-06 7.629402E-06
v 3.999996 7.629402E-06 -3.999996
v 3.999996 -7.629402E-06 -8
v 3.999996 7.629402E-06 -3.999996
v 5.999998 0.2000048 -5.999998
v 8 -7.629402E-06 -8
v 8 7.629402E-06 -3.999996
v 3.999996 7.629402E-06 -3.999996
v 7.629402E-06 7.629402E-06 -3.999996
v 1.999994 0.2000048 -1.999994
v 3.999996 7.629402E-06 7.629402E-06
v 7.629402E-06 7.629402E-06 7.629402E-06
vn 0.0009775166 -0.9999995 0
vn 0.0009775166 -0.9999995 0
vn 0.0009775166 -0.9999995 0
vn 0.0009775166 -0.9999995 0
vn 0.0009775166 -0.9999995 0
vn 0.0009775166 -0.9999995 0
vn 0.0009775166 -0.9999995 0
vn 0.0009775166 -0.9999995 0
vn -0.9999995 0.0009775166 0
vn -0.9999995 0.0009775166 0
vn -0.9999995 0.0009775166 0
vn -0.9999995 0.0009775166 0
vn 0.0009775166 -0.9999995 0
vn 0.0009775166 -0.9999995 0
vn 0.0009775166 -0.9999995 0
vn 0.0009775166 -0.9999995 0
vn 0.0009775166 -0.9999995 0
vn 0.0009775166 -0.9999995 0
vn 0.0009775166 -0.9999995 0
vn 0.0009775166 -0.9999995 0
vn 0.0009775171 0.0009775171 0.999999
vn 0.0009775171 0.0009775171 0.999999
vn 0.0009775171 0.0009775171 0.999999
vn 0.0009775171 0.0009775171 0.999999
vn 0.0009775166 -0.9999995 0
vn 0.0009775166 -0.9999995 0
vn 0.0009775166 -0.9999995 0
vn 0.0009775166 -0.9999995 0
vn 0.0009775166 -0.9999995 0
vn 0.0009775166 -0.9999995 0
vn 0.0009775166 -0.9999995 0
vn 0.0009775166 -0.9999995 0
vn 0.0009775171 0.0009775171 0.999999
vn 0.0009775171 0.0009775171 0.999999
vn 0.0009775171 0.0009775171 0.999999
vn 0.0009775171 0.0009775171 0.999999
vn 0.0009775166 -0.9999995 0
vn 0.0009775166 -0.9999995 0
vn 0.0009775166 -0.9999995 0
vn 0.0009775166 -0.9999995 0
vn 0.0009775166 -0.9999995 0
vn 0.0009775166 -0.9999995 0
vn 0.0009775166 -0.9999995 0
vn 0.0009775166 -0.9999995 0
vn 0.9999995 0.0009775166 0
vn 0.9999995 0.0009775166 0
vn 0.9999995 0.0009775166 0
vn 0.9999995 0.0009775166 0
vn 0.0009775166 -0.9999995 0
vn 0.0009775166 -0.9999995 0
vn 0.0009775166 -0.9999995 0
vn 0.0009775166 -0.9999995 0
vn 0.0009775166 -0.9999995 0
vn 0.0009775166 -0.9999995 0
vn 0.0009775166 -0.9999995 0
vn 0.0009775166 -0.9999995 0
vn 0.0009775166 -0.9999995 0
vn 0.0009775166 -0.9999995 0
vn 0.0009775166 -0.9999995 0
vn 0.0009775166 -0.9999995 0
vn 0.0009775166 -0.9999995 0
vn 0.0009775166 -0.9999995 0
vn 0.0009775166 -0.9999995 0
vn 0.0009775166 -0.9999995 0
vn 0.9999995 0.0009775166 0
vn 0.9999995 0.0009775166 0
vn 0.9999995 0.0009775166 0
vn 0.9999995 0.0009775166 0
vn 0.0009775166 -0.9999995 0
vn 0.0009775166 -0.9999995 0
vn 0.0009775166 -0.9999995 0
vn 0.0009775166 -0.9999995 0
vn 0.0009775166 -0.9999995 0
vn 0.0009775166 -0.9999995 0
vn 0.0009775166 -0.9999995 0
vn 0.0009775166 -0.9999995 0
vn 0.0009775166 -0.9999995 0
vn 0.0009775166 -0.9999995 0
vn 0.0009775166 -0.9999995 0
vn 0.0009775166 -0.9999995 0
vn 0.0009775171 0.0009775171 -0.999999
vn 0.0009775171 0.0009775171 -0.999999
vn 0.0009775171 0.0009775171 -0.999999
vn 0.0009775171 0.0009775171 -0.999999
vn -0.9999995 0.0009775166 0
vn -0.9999995 0.0009775166 0
vn -0.9999995 0.0009775166 0
vn -0.9999995 0.0009775166 0
vn 0.0009775166 -0.9999995 0
vn 0.0009775166 -0.9999995 0
vn 0.0009775166 -0.9999995 0
vn 0.0009775166 -0.9999995 0
vn 0.0009775166 -0.9999995 0
vn 0.0009775166 -0.9999995 0
vn 0.0009775166 -0.9999995 0
vn 0.0009775166 -0.9999995 0
vn 0.0009775166 -0.9999995 0
vn 0.0009775166 -0.9999995 0
vn 0.0009775166 -0.9999995 0
vn 0.0009775166 -0.9999995 0
vn 0.0009775171 0.0009775171 -0.999999
vn 0.0009775171 0.0009775171 -0.999999
vn 0.0009775171 0.0009775171 -0.999999
vn 0.0009775171 0.0009775171 -0.999999
vn 0.0009775166 -0.9999995 0
vn 0.0009775166 -0.9999995 0
vn 0.0009775166 -0.9999995 0
vn 0.0009775166 -0.9999995 0
vn 0.0009775166 -0.9999995 0
vn 0.0009775166 -0.9999995 0
vn 0.0009775166 -0.9999995 0
vn 0.0009775166 -0.9999995 0
vn 0.0009775166 0.9999995 0
vn 0.0009775171 0.998045 -0.06249237
vn 0.0009775166 0.9999995 0
vn -0.04985337 0.998045 -0.03769503
vn -0.04985337 0.998045 -0.03769503
vn 0.04985337 0.998045 0.03769503
vn 0.04985337 0.998045 -0.03769503
vn 0.0009775166 0.9999995 0
vn 0.0009775171 0.998045 0.06249237
vn 0.0009775166 0.9999995 0
vn 0.0009775171 0.998045 -0.06249237
vn 0.0009775166 0.9999995 0
vn 0.0009775166 0.9999995 0
vn 0.04985337 0.998045 -0.03769503
vn 0.04985337 0.998045 -0.03769503
vn 0.0009775166 0.9999995 0
vn -0.04985337 0.998045 -0.03769503
vn 0.0009775166 0.9999995 0
vn 0.0009775171 0.998045 0.06249237
vn -0.04985337 0.998045 0.03769503
vt 0.3898931 0.5825139
vt 0.2111789 0.5825139
vt 0.2111789 0.4035612
vt 0.3901316 0.4035612
vt 0.2985834 0.4081967
vt 0.3102989 0.4033227
vt 0.3102989 0.5590828
vt 0.2985834 0.553225
vt 0.5369484 0.3723049
vt 0.4017726 0.3723049
vt 0.4017726 0.3403331
vt 0.5369484 0.3403331
vt 0.3100605 0.4077198
vt 0.3195849 0.402339
vt 0.3195849 0.5576221
vt 0.3100605 0.5527331
vt 0.3898931 0.5825139
vt 0.2111789 0.5825139
vt 0.2111789 0.4035612
vt 0.3901316 0.4035612
vt 0.53671 0.3420472
vt 0.4015341 0.3420472
vt 0.4015341 0.374019
vt 0.53671 0.374019
vt 0.2985834 0.4081967
vt 0.3102989 0.4033227
vt 0.3102989 0.5590828
vt 0.2985834 0.553225
vt 0.3898931 0.5825139
vt 0.2111789 0.5825139
vt 0.2111789 0.4035612
vt 0.3901316 0.4035612
vt 0.53671 0.3420472
vt 0.4015341 0.3420472
vt 0.4015341 0.374019
vt 0.53671 0.374019
vt 0.3898931 0.5825139
vt 0.2111789 0.5825139
vt 0.2111789 0.4035612
vt 0.3901316 0.4035612
vt 0.2788041 0.553225
vt 0.2678189 0.5576221
vt 0.2678189 0.4033227
vt 0.2788041 0.4091805
vt 0.4017726 0.3723049
vt 0.53671 0.3723049
vt 0.53671 0.3403331
vt 0.4017726 0.3403331
vt 0.2788041 0.553225
vt 0.2678189 0.5576221
vt 0.2678189 0.4033227
vt 0.2788041 0.4091805
vt 0.2409596 0.4081967
vt 0.2504841 0.4033227
vt 0.2504841 0.5576221
vt 0.2409596 0.553225
vt 0.2409596 0.4081967
vt 0.2504841 0.4033227
vt 0.2504841 0.5576221
vt 0.2409596 0.553225
vt 0.2788041 0.553225
vt 0.2678189 0.5576221
vt 0.2678189 0.4033227
vt 0.2788041 0.4091805
vt 0.4017726 0.3723049
vt 0.53671 0.3723049
vt 0.53671 0.3403331
vt 0.4017726 0.3403331
vt 0.2409596 0.4081967
vt 0.2504841 0.4033227
vt 0.2504841 0.5576221
vt 0.2409596 0.553225
vt 0.3100605 0.4077198
vt 0.3195849 0.402339
vt 0.3195849 0.5576221
vt 0.3100605 0.5527331
vt 0.2788041 0.553225
vt 0.2678189 0.5576221
vt 0.2678189 0.4033227
vt 0.2788041 0.4091805
vt 0.4017726 0.3723049
vt 0.53671 0.3723049
vt 0.53671 0.3403331
vt 0.4017726 0.3403331
vt 0.5369484 0.3723049
vt 0.4017726 0.3723049
vt 0.4017726 0.3403331
vt 0.5369484 0.3403331
vt 0.2985834 0.4081967
vt 0.3102989 0.4033227
vt 0.3102989 0.5590828
vt 0.2985834 0.553225
vt 0.2409596 0.4081967
vt 0.2504841 0.4033227
vt 0.2504841 0.5576221
vt 0.2409596 0.553225
vt 0.3100605 0.4077198
vt 0.3195849 0.402339
vt 0.3195849 0.5576221
vt 0.3100605 0.5527331
vt 0.4017726 0.3723049
vt 0.53671 0.3723049
vt 0.53671 0.3403331
vt 0.4017726 0.3403331
vt 0.2985834 0.4081967
vt 0.3102989 0.4033227
vt 0.3102989 0.5590828
vt 0.2985834 0.553225
vt 0.3100605 0.4077198
vt 0.3195849 0.402339
vt 0.3195849 0.5576221
vt 0.3100605 0.5527331
vt 0.6002809 0.3853172
vt 0.6002809 0.585018
vt 0.7001165 0.4851676
vt 0.7999668 0.3853172
vt 0.7999668 0.585018
vt 0.6002809 0.3853172
vt 0.6002809 0.585018
vt 0.7001165 0.4851676
vt 0.7999668 0.3853172
vt 0.7999668 0.585018
vt 0.7996836 0.3844378
vt 0.5999978 0.3844378
vt 0.6998332 0.4842733
vt 0.7996836 0.5841236
vt 0.5999978 0.5841236
vt 0.7996836 0.5841236
vt 0.7996836 0.3844378
vt 0.6998332 0.4842733
vt 0.5999978 0.5841236
vt 0.5999978 0.3844378
f 1/1/1 2/2/2 3/3/3
f 1/1/1 3/3/3 4/4/4
f 5/5/5 6/6/6 7/7/7
f 5/5/5 7/7/7 8/8/8
f 9/9/9 10/10/10 11/11/11
f 9/9/9 11/11/11 12/12/12
f 13/13/13 14/14/14 15/15/15
f 13/13/13 15/15/15 16/16/16
f 17/17/17 18/18/18 19/19/19
f 17/17/17 19/19/19 20/20/20
f 21/21/21 22/22/22 23/23/23
f 21/21/21 23/23/23 24/24/24
f 25/25/25 26/26/26 27/27/27
f 25/25/25 27/27/27 28/28/28
f 29/29/29 30/30/30 31/31/31
f 29/29/29 31/31/31 32/32/32
f 33/33/33 34/34/34 35/35/35
f 33/33/33 35/35/35 36/36/36
f 37/37/37 38/38/38 39/39/39
f 37/37/37 39/39/39 40/40/40
f 41/41/41 42/42/42 43/43/43
f 41/41/41 43/43/43 44/44/44
f 45/45/45 46/46/46 47/47/47
f 45/45/45 47/47/47 48/48/48
f 49/49/49 50/50/50 51/51/51
f 49/49/49 51/51/51 52/52/52
f 53/53/53 54/54/54 55/55/55
f 53/53/53 55/55/55 56/56/56
f 57/57/57 58/58/58 59/59/59
f 57/57/57 59/59/59 60/60/60
f 61/61/61 62/62/62 63/63/63
f 61/61/61 63/63/63 64/64/64
f 65/65/65 66/66/66 67/67/67
f 65/65/65 67/67/67 68/68/68
f 69/69/69 70/70/70 71/71/71
f 69/69/69 71/71/71 72/72/72
f 73/73/73 74/74/74 75/75/75
f 73/73/73 75/75/75 76/76/76
f 77/77/77 78/78/78 79/79/79
f 77/77/77 79/79/79 80/80/80
f 81/81/81 82/82/82 83/83/83
f 81/81/81 83/83/83 84/84/84
f 85/85/85 86/86/86 87/87/87
f 85/85/85 87/87/87 88/88/88
f 89/89/89 90/90/90 91/91/91
f 89/89/89 91/91/91 92/92/92
f 93/93/93 94/94/94 95/95/95
f 93/93/93 95/95/95 96/96/96
f 97/97/97 98/98/98 99/99/99
f 97/97/97 99/99/99 100/100/100
f 101/101/101 102/102/102 103/103/103
f 101/101/101 103/103/103 104/104/104
f 105/105/105 106/106/106 107/107/107
f 105/105/105 107/107/107 108/108/108
f 109/109/109 110/110/110 111/111/111
f 109/109/109 111/111/111 112/112/112
f 113/113/113 114/114/114 115/115/115
f 116/116/116 113/113/113 115/115/115
f 114/114/114 117/117/117 115/115/115
f 117/117/117 116/116/116 115/115/115
f 118/118/118 119/119/119 120/120/120
f 121/121/121 118/118/118 120/120/120
f 119/119/119 122/122/122 120/120/120
f 122/122/122 121/121/121 120/120/120
f 123/123/123 124/124/124 125/125/125
f 126/126/126 123/123/123 125/125/125
f 124/124/124 127/127/127 125/125/125
f 127/127/127 126/126/126 125/125/125
f 128/128/128 129/129/129 130/130/130
f 131/131/131 128/128/128 130/130/130
f 129/129/129 132/132/132 130/130/130
f 132/132/132 131/131/131 130/130/130
