v 0.1702844 0.009998331 -0.1702844
v 3.829712 0.009998331 -0.1702844
v 3.829712 0.009998331 -3.829712
v 0.1702844 0.009998331 -3.829712
v 3.829712 0.009998331 -0.1702844
v 4 0.009998331 3.814701E-06
v 4 0.009998331 -4
v 3.829712 0.009998331 -3.829712
v 3.829712 0.009998331 -3.829712
v 4 0.009998331 -4
v 3.814701E-06 0.009998331 -4
v 0.1702844 0.009998331 -3.829712
v 0.1702844 0.009998331 -3.829712
v 3.814701E-06 0.009998331 -4
v 3.814701E-06 0.009998331 3.814701E-06
v 0.1702844 0.009998331 -0.1702844
v 0.1702844 0.009998331 -0.1702844
v 3.814701E-06 0.009998331 3.814701E-06
v 4 0.009998331 3.814701E-06
v 3.829712 0.009998331 -0.1702844
v 0.1702844 -0.2999995 -0.1702844
v 0.1702844 -0.2999995 -3.829712
v 3.829712 -0.2999995 -3.829712
v 3.829712 -0.2999995 -0.1702844
v 4 0.009998331 3.814701E-06
v 4 -0.2999995 3.814701E-06
v 4 -0.2999995 -4
v 4 0.009998331 -4
v 4 0.009998331 -4
v 4 -0.2999995 -4
v 3.814701E-06 -0.2999995 -4
v 3.814701E-06 0.009998331 -4
v 3.814701E-06 0.009998331 -4
v 3.814701E-06 -0.2999995 -4
v 3.814701E-06 -0.2999995 3.814701E-06
v 3.814701E-06 0.009998331 3.814701E-06
v 3.814701E-06 0.009998331 3.814701E-06
v 3.814701E-06 -0.2999995 3.814701E-06
v 4 -0.2999995 3.814701E-06
v 4 0.009998331 3.814701E-06
v 3.829712 -0.2999995 -0.1702844
v 3.829712 -0.2999995 -3.829712
v 4 -0.2999995 -4
v 4 -0.2999995 3.814701E-06
v 3.829712 -0.2999995 -3.829712
v 0.1702844 -0.2999995 -3.829712
v 3.814701E-06 -0.2999995 -4
v 4 -0.2999995 -4
v 0.1702844 -0.2999995 -3.829712
v 0.1702844 -0.2999995 -0.1702844
v 3.814701E-06 -0.2999995 3.814701E-06
v 3.814701E-06 -0.2999995 -4
v 0.1702844 -0.2999995 -0.1702844
v 3.829712 -0.2999995 -0.1702844
v 4 -0.2999995 3.814701E-06
v 3.814701E-06 -0.2999995 3.814701E-06
vn 0.0009775166 0.9999995 0
vn 0.0009775166 0.9999995 0
vn 0.0009775166 0.9999995 0
vn 0.0009775166 0.9999995 0
vn 0.0009775166 0.9999995 0
vn 0.0009775166 0.9999995 0
vn 0.0009775166 0.9999995 0
vn 0.0009775166 0.9999995 0
vn 0.0009775166 0.9999995 0
vn 0.0009775166 0.9999995 0
vn 0.0009775166 0.9999995 0
vn 0.0009775166 0.9999995 0
vn 0.0009775166 0.9999995 0
vn 0.0009775166 0.9999995 0
vn 0.0009775166 0.9999995 0
vn 0.0009775166 0.9999995 0
vn 0.0009775166 0.9999995 0
vn 0.0009775166 0.9999995 0
vn 0.0009775166 0.9999995 0
vn 0.0009775166 0.9999995 0
vn 0.0009775166 -0.9999995 0
vn 0.0009775166 -0.9999995 0
vn 0.0009775166 -0.9999995 0
vn 0.0009775166 -0.9999995 0
vn 0.9999995 0.0009775166 0
vn 0.9999995 0.0009775166 0
vn 0.9999995 0.0009775166 0
vn 0.9999995 0.0009775166 0
vn 0.0009775171 0.0009775171 -0.999999
vn 0.0009775171 0.0009775171 -0.999999
vn 0.0009775171 0.0009775171 -0.999999
vn 0.0009775171 0.0009775171 -0.999999
vn -0.9999995 0.0009775166 0
vn -0.9999995 0.0009775166 0
vn -0.9999995 0.0009775166 0
vn -0.9999995 0.0009775166 0
vn 0.0009775171 0.0009775171 0.999999
vn 0.0009775171 0.0009775171 0.999999
vn 0.0009775171 0.0009775171 0.999999
vn 0.0009775171 0.0009775171 0.999999
vn 0.0009775166 -0.9999995 0
vn 0.0009775166 -0.9999995 0
vn 0.0009775166 -0.9999995 0
vn 0.0009775166 -0.9999995 0
vn 0.0009775166 -0.9999995 0
vn 0.0009775166 -0.9999995 0
vn 0.0009775166 -0.9999995 0
vn 0.0009775166 -0.9999995 0
vn 0.0009775166 -0.9999995 0
vn 0.0009775166 -0.9999995 0
vn 0.0009775166 -0.9999995 0
vn 0.0009775166 -0.9999995 0
vn 0.0009775166 -0.9999995 0
vn 0.0009775166 -0.9999995 0
vn 0.0009775166 -0.9999995 0
vn 0.0009775166 -0.9999995 0
vt 0.1899471 0.3935585
vt 0.01123237 0.3935585
vt 0.01123237 0.5761795
vt 0.1899471 0.5761795
vt 0.09862901 0.5751915
vt 0.1084022 0.5834904
vt 0.1084022 0.3876915
vt 0.09862901 0.395504
vt 0.09862901 0.5751915
vt 0.1084022 0.5834904
vt 0.1084022 0.3876915
vt 0.09862901 0.395504
vt 0.1494103 0.395504
vt 0.1396522 0.3876915
vt 0.1396522 0.5834904
vt 0.1494103 0.5751915
vt 0.1494103 0.395504
vt 0.1396522 0.3876915
vt 0.1396522 0.5834904
vt 0.1494103 0.5751915
vt 0.1899471 0.3935585
vt 0.1899471 0.5761795
vt 0.01123237 0.5761795
vt 0.01123237 0.3935585
vt 0.2006779 1
vt 0.2006779 0.9799824
vt 0.3998967 0.9799824
vt 0.3998967 1
vt 0.3998967 1
vt 0.3998967 0.9799824
vt 0.2006779 0.9799824
vt 0.2006779 1
vt 0.2006779 1
vt 0.2006779 0.9799824
vt 0.3998967 0.9799824
vt 0.3998967 1
vt 0.3998967 1
vt 0.3998967 0.9799824
vt 0.2006779 0.9799824
vt 0.2006779 1
vt 0.09862901 0.5751915
vt 0.09862901 0.395504
vt 0.1084022 0.3876915
vt 0.1084022 0.5834904
vt 0.09862901 0.5751915
vt 0.09862901 0.395504
vt 0.1084022 0.3876915
vt 0.1084022 0.5834904
vt 0.1494103 0.395504
vt 0.1494103 0.5751915
vt 0.1396522 0.5834904
vt 0.1396522 0.3876915
vt 0.1494103 0.395504
vt 0.1494103 0.5751915
vt 0.1396522 0.5834904
vt 0.1396522 0.3876915
f 1/1/1 2/2/2 3/3/3
f 1/1/1 3/3/3 4/4/4
f 5/5/5 6/6/6 7/7/7
f 5/5/5 7/7/7 8/8/8
f 9/9/9 10/10/10 11/11/11
f 9/9/9 11/11/11 12/12/12
f 13/13/13 14/14/14 15/15/15
f 13/13/13 15/15/15 16/16/16
f 17/17/17 18/18/18 19/19/19
f 17/17/17 19/19/19 20/20/20
f 21/21/21 22/22/22 23/23/23
f 21/21/21 23/23/23 24/24/24
f 25/25/25 26/26/26 27/27/27
f 25/25/25 27/27/27 28/28/28
f 29/29/29 30/30/30 31/31/31
f 29/29/29 31/31/31 32/32/32
f 33/33/33 34/34/34 35/35/35
f 33/33/33 35/35/35 36/36/36
f 37/37/37 38/38/38 39/39/39
f 37/37/37 39/39/39 40/40/40
f 41/41/41 42/42/42 43/43/43
f 41/41/41 43/43/43 44/44/44
f 45/45/45 46/46/46 47/47/47
f 45/45/45 47/47/47 48/48/48
f 49/49/49 50/50/50 51/51/51
f 49/49/49 51/51/51 52/52/52
f 53/53/53 54/54/54 55/55/55
f 53/53/53 55/55/55 56/56/56
