v -0.1200013 -3.557353E-07 -0.1864295
v -0.1106595 -3.557353E-07 -0.2000001
v 0.1106588 -3.557353E-07 -0.2000001
v 0.1200006 -3.557353E-07 -0.1864295
v -0.1200013 -3.557353E-07 0.1864288
v 0.1200006 -3.557353E-07 0.1915782
v -0.1106595 -3.557353E-07 0.1999994
v 0.1111519 -3.557353E-07 0.1999994
v 0.1106588 1.192475 -0.2000001
v 0.1106588 -3.557353E-07 -0.2000001
v -0.1106595 -3.557353E-07 -0.2000001
v -0.1106595 1.192475 -0.2000001
v 0.1200006 1.192475 0.1915782
v 0.1200006 -3.557353E-07 0.1915782
v 0.1200006 -3.557353E-07 -0.1864295
v 0.1200006 1.192475 -0.1864295
v -0.1200013 1.192475 -0.1864295
v -0.1200013 -3.557353E-07 -0.1864295
v -0.1200013 -3.557353E-07 0.1864288
v -0.1200013 1.192475 0.1864288
v 0.1111519 -3.557353E-07 0.1999994
v 0.1200006 -3.557353E-07 0.1915782
v 0.1200006 1.192475 0.1915782
v 0.1111519 1.192475 0.1999994
v -0.1106595 1.192475 0.1999994
v -0.1200013 1.192475 0.1864288
v -0.1200013 -3.557353E-07 0.1864288
v -0.1106595 -3.557353E-07 0.1999994
v -0.1200013 1.192475 -0.1864295
v -0.1106595 1.192475 -0.2000001
v -0.1106595 -3.557353E-07 -0.2000001
v -0.1200013 -3.557353E-07 -0.1864295
v 0.1106588 1.192475 -0.2000001
v 0.1200006 1.192475 -0.1864295
v 0.1200006 -3.557353E-07 -0.1864295
v 0.1106588 -3.557353E-07 -0.2000001
v -0.1106595 1.192475 0.1999994
v -0.1106595 -3.557353E-07 0.1999994
v 0.1111519 -3.557353E-07 0.1999994
v 0.1111519 1.192475 0.1999994
v 0.1062316 1.202816 0.1917975
v 0.1111519 1.192475 0.1999994
v 0.1200006 1.192475 0.1915782
v 0.1150789 1.202816 0.1833749
v 0.1150789 1.202816 -0.1782262
v 0.1200006 1.192475 -0.1864295
v 0.1106588 1.192475 -0.2000001
v 0.1057371 1.202816 -0.1917982
v -0.1057378 1.202816 -0.1917982
v -0.1106595 1.192475 -0.2000001
v -0.1200013 1.192475 -0.1864295
v -0.1150796 1.202816 -0.1782262
v -0.1150796 1.202816 0.1782255
v -0.1200013 1.192475 0.1864288
v -0.1106595 1.192475 0.1999994
v -0.1057378 1.202816 0.1917975
v 0.1150789 1.202816 0.1833749
v 0.1200006 1.192475 0.1915782
v 0.1200006 1.192475 -0.1864295
v 0.1150789 1.202816 -0.1782262
v -0.1057378 1.202816 0.1917975
v -0.1106595 1.192475 0.1999994
v 0.1111519 1.192475 0.1999994
v 0.1062316 1.202816 0.1917975
v 0.1057371 1.202816 -0.1917982
v 0.1106588 1.192475 -0.2000001
v -0.1106595 1.192475 -0.2000001
v -0.1057378 1.202816 -0.1917982
v -0.1150796 1.202816 -0.1782262
v -0.1200013 1.192475 -0.1864295
v -0.1200013 1.192475 0.1864288
v -0.1150796 1.202816 0.1782255
v -0.1057378 1.202816 -0.1917982
v -0.1150796 1.202816 -0.1782262
v -0.008142171 1.263993 -3.557353E-07
v -0.1150796 1.202816 0.1782255
v -3.557353E-07 1.263307 -0.01557011
v 0.1057371 1.202816 -0.1917982
v 0.1150789 1.202816 -0.1782262
v 0.0002469163 1.263448 0.01515868
v -0.1057378 1.202816 0.1917975
v 0.1062316 1.202816 0.1917975
v 0.006597755 1.264877 0.002574347
v 0.1150789 1.202816 0.1833749
vn 0.0009775166 -0.9999995 0
vn 0.0009775166 -0.9999995 0
vn 0.0009775166 -0.9999995 0
vn 0.0009775166 -0.9999995 0
vn 0.0009775166 -0.9999995 0
vn 0.0009775166 -0.9999995 0
vn 0.0009775166 -0.9999995 0
vn 0.0009775166 -0.9999995 0
vn 0.0009775171 0.0009775171 -0.999999
vn 0.0009775171 0.0009775171 -0.999999
vn 0.0009775171 0.0009775171 -0.999999
vn 0.0009775171 0.0009775171 -0.999999
vn 0.9862615 0.1651915 0
vn 0.9999995 0.0009775166 0
vn 0.9999995 0.0009775166 0
vn 0.9862615 0.1651915 0
vn -0.9862615 0.1651915 0
vn -0.9999995 0.0009775166 0
vn -0.9999995 0.0009775166 0
vn -0.9862615 0.1651915 0
vn 0.6891496 0.0009775171 0.7246184
vn 0.6891496 0.0009775171 0.7246184
vn 0.6891496 0.0009775171 0.7246184
vn 0.6891496 0.0009775171 0.7246184
vn -0.8240469 0.0009775171 0.5665208
vn -0.8240469 0.0009775171 0.5665208
vn -0.8240469 0.0009775171 0.5665208
vn -0.8240469 0.0009775171 0.5665208
vn -0.8240469 0.0009775171 -0.5665208
vn -0.8240469 0.0009775171 -0.5665208
vn -0.8240469 0.0009775171 -0.5665208
vn -0.8240469 0.0009775171 -0.5665208
vn 0.8240469 0.0009775171 -0.5665208
vn 0.8240469 0.0009775171 -0.5665208
vn 0.8240469 0.0009775171 -0.5665208
vn 0.8240469 0.0009775171 -0.5665208
vn 0.0009775171 0.0009775171 0.999999
vn 0.0009775171 0.0009775171 0.999999
vn 0.0009775171 0.0009775171 0.999999
vn 0.0009775171 0.0009775171 0.999999
vn 0.5112414 0.6695992 0.5387663
vn 0.5112414 0.6695992 0.5387663
vn 0.5112414 0.6695992 0.5387663
vn 0.5112414 0.6695992 0.5387663
vn 0.6304985 0.6441838 -0.4330114
vn 0.6304985 0.6441838 -0.4330114
vn 0.6304985 0.6441838 -0.4330114
vn 0.6304985 0.6441838 -0.4330114
vn -0.6304985 0.6441838 -0.4330114
vn -0.6304985 0.6441838 -0.4330114
vn -0.6304985 0.6441838 -0.4330114
vn -0.6304985 0.6441838 -0.4330114
vn -0.6304985 0.6441838 0.4330114
vn -0.6304985 0.6441838 0.4330114
vn -0.6304985 0.6441838 0.4330114
vn -0.6304985 0.6441838 0.4330114
vn 0.9022483 0.42913 -0.04237335
vn 0.9862615 0.1651915 0
vn 0.9862615 0.1651915 0
vn 0.9022483 0.42913 -0.04237335
vn 0.0009775171 0.6207234 0.784029
vn 0.0009775171 0.6207234 0.784029
vn 0.0009775171 0.6207234 0.784029
vn 0.0009775171 0.6207234 0.784029
vn 0.0009775171 0.6207234 -0.784029
vn 0.0009775171 0.6207234 -0.784029
vn 0.0009775171 0.6207234 -0.784029
vn 0.0009775171 0.6207234 -0.784029
vn -0.9022483 0.42913 -0.04237335
vn -0.9862615 0.1651915 0
vn -0.9862615 0.1651915 0
vn -0.9022483 0.42913 -0.04237335
vn -0.1339198 0.9589443 -0.2499828
vn -0.313783 0.9393939 -0.1381277
vn -0.2688172 0.9628543 -0.02547266
vn -0.313783 0.9393939 0.1381277
vn -0.002932551 0.9824047 -0.1867416
vn 0.1339198 0.9589443 -0.2499828
vn 0.313783 0.9393939 -0.1381277
vn -0.02639296 0.9824047 0.1848902
vn -0.1339198 0.9589443 0.2499828
vn 0.1124145 0.9589443 0.260363
vn 0.2101662 0.9765396 0.04690995
vn 0.2785924 0.9472141 0.1586563
vt 0.4632905 0.002676419
vt 0.4651564 0.003753507
vt 0.4651564 0.029194
vt 0.4632905 0.03027109
vt 0.4118482 0.002676419
vt 0.4111352 0.03027109
vt 0.4099671 0.003753507
vt 0.4099671 0.02925468
vt 0.4999115 0.2879073
vt 0.4999115 0.2011184
vt 0.4864858 0.2011335
vt 0.4864858 0.2879073
vt 0.4416426 0.2879073
vt 0.4416426 0.2011335
vt 0.4141389 0.2011335
vt 0.4141389 0.2879073
vt 0.4849384 0.2879073
vt 0.4849384 0.2011335
vt 0.4577988 0.2011335
vt 0.4577988 0.2879073
vt 0.4427955 0.2011335
vt 0.4416426 0.2011335
vt 0.4416426 0.2879073
vt 0.4427955 0.2879073
vt 0.4562515 0.2879073
vt 0.4577988 0.2879073
vt 0.4577988 0.2011335
vt 0.4562515 0.2011335
vt 0.4849384 0.2879073
vt 0.4864858 0.2879073
vt 0.4864858 0.2011335
vt 0.4849384 0.2011335
vt 0.4999115 0.2879073
vt 0.5004727 0.2879073
vt 0.5004727 0.2011184
vt 0.4999115 0.2011184
vt 0.4562515 0.2879073
vt 0.4562515 0.2011335
vt 0.4427955 0.2011335
vt 0.4427955 0.2879073
vt 0.4111049 0.02869339
vt 0.4097699 0.02948224
vt 0.4109228 0.03049864
vt 0.4122578 0.02970979
vt 0.4621527 0.02970979
vt 0.4634573 0.03055932
vt 0.4653233 0.02948224
vt 0.4640338 0.0286327
vt 0.4640338 0.004314806
vt 0.4653233 0.003450102
vt 0.4634573 0.002388185
vt 0.4621527 0.003237718
vt 0.4129708 0.003237718
vt 0.4116813 0.002388185
vt 0.4098002 0.003450102
vt 0.4111049 0.004314806
vt 0.4122578 0.02970979
vt 0.4111352 0.03075654
vt 0.4632905 0.03075654
vt 0.4621527 0.02970979
vt 0.4111049 0.004314806
vt 0.4096485 0.003753507
vt 0.4096485 0.02925468
vt 0.4111049 0.02869339
vt 0.4640338 0.0286327
vt 0.465475 0.029194
vt 0.465475 0.003753507
vt 0.4640338 0.004314806
vt 0.4621527 0.003237718
vt 0.4632905 0.002190972
vt 0.4118482 0.002190972
vt 0.4129708 0.003237718
vt 0.4640338 0.004314806
vt 0.4621527 0.003237718
vt 0.4375618 0.01554079
vt 0.4129708 0.003237718
vt 0.4397159 0.01646617
vt 0.4640338 0.0286327
vt 0.4621527 0.02970979
vt 0.4354683 0.01649651
vt 0.4111049 0.004314806
vt 0.4111049 0.02869339
vt 0.4372128 0.01722468
vt 0.4122578 0.02970979
f 1/1/1 2/2/2 3/3/3
f 3/3/3 4/4/4 1/1/1
f 4/4/4 5/5/5 1/1/1
f 4/4/4 6/6/6 5/5/5
f 6/6/6 7/7/7 5/5/5
f 6/6/6 8/8/8 7/7/7
f 9/9/9 10/10/10 11/11/11
f 9/9/9 11/11/11 12/12/12
f 13/13/13 14/14/14 15/15/15
f 13/13/13 15/15/15 16/16/16
f 17/17/17 18/18/18 19/19/19
f 17/17/17 19/19/19 20/20/20
f 21/21/21 22/22/22 23/23/23
f 21/21/21 23/23/23 24/24/24
f 25/25/25 26/26/26 27/27/27
f 25/25/25 27/27/27 28/28/28
f 29/29/29 30/30/30 31/31/31
f 29/29/29 31/31/31 32/32/32
f 33/33/33 34/34/34 35/35/35
f 33/33/33 35/35/35 36/36/36
f 37/37/37 38/38/38 39/39/39
f 37/37/37 39/39/39 40/40/40
f 41/41/41 42/42/42 43/43/43
f 41/41/41 43/43/43 44/44/44
f 45/45/45 46/46/46 47/47/47
f 45/45/45 47/47/47 48/48/48
f 49/49/49 50/50/50 51/51/51
f 49/49/49 51/51/51 52/52/52
f 53/53/53 54/54/54 55/55/55
f 53/53/53 55/55/55 56/56/56
f 57/57/57 58/58/58 59/59/59
f 57/57/57 59/59/59 60/60/60
f 61/61/61 62/62/62 63/63/63
f 61/61/61 63/63/63 64/64/64
f 65/65/65 66/66/66 67/67/67
f 65/65/65 67/67/67 68/68/68
f 69/69/69 70/70/70 71/71/71
f 69/69/69 71/71/71 72/72/72
f 73/73/73 74/74/74 75/75/75
f 76/76/76 75/75/75 74/74/74
f 73/73/73 75/75/75 77/77/77
f 73/73/73 77/77/77 78/78/78
f 79/79/79 78/78/78 77/77/77
f 76/76/76 80/80/80 75/75/75
f 77/77/77 75/75/75 80/80/80
f 76/76/76 81/81/81 80/80/80
f 82/82/82 80/80/80 81/81/81
f 79/79/79 77/77/77 83/83/83
f 77/77/77 80/80/80 83/83/83
f 83/83/83 80/80/80 82/82/82
f 79/79/79 83/83/83 84/84/84
f 83/83/83 82/82/82 84/84/84
