v 0.01730431 2.10178 0.0009969498
v 0.03461237 0.2099985 0.0009969498
v -3.9 0.2099985 0.0009969498
v -3.899584 -0.2999967 0.001149056
v 0.03461237 -0.2950012 0.0009969498
v 3.999999 0.2099985 0.0009969498
v 0.01730431 2.10178 0.0009969498
v 3.99975 -0.2999967 -6.779181E-05
v -3.9 0.2099985 0.0009969498
v -3.899584 -0.2999967 0.001149056
v -3.899672 -0.2999967 4.000215
v -3.9 0.1999996 3.999999
v 3.999999 0.1999996 3.999999
v 3.999398 -0.2999967 4.000215
v 3.99975 -0.2999967 -6.779181E-05
v 3.999999 0.2099985 0.0009969498
v -3.9 0.1999996 3.999999
v -3.899672 -0.2999967 4.000215
v 0.03461237 -0.2950012 3.999999
v 0.03461237 0.1999996 3.999999
v 0.03461237 2.08356 3.999999
v 3.999398 -0.2999967 4.000215
v 3.999999 0.1999996 3.999999
v -0.1962525 2.106063 -0.007064666
v -0.1962525 2.106063 3.899961
v -0.1335448 2.141296 3.899961
v -0.1335448 2.141296 -0.007064666
v 0.003742862 2.181332 -0.007064666
v 0.003742862 2.181332 3.899961
v 0.1410385 2.141296 -0.007064666
v 0.1410385 2.141296 3.899961
v 0.2037462 2.106063 3.899961
v 0.2037462 2.106063 -0.007064666
v 0.2037462 2.106063 3.899961
v 0.2037462 1.90606 3.899961
v 0.2037462 1.90606 -0.007064666
v 0.2037462 2.106063 -0.007064666
v 0.2037462 2.106063 -0.007064666
v 0.2037462 1.90606 -0.007064666
v 0.1410385 1.90606 -0.007064666
v 0.1410385 2.141296 -0.007064666
v 0.003742862 2.181332 -0.007064666
v 0.003742862 1.90606 -0.007064666
v -0.1335448 2.141296 -0.007064666
v -0.1335448 1.90606 -0.007064666
v -0.1962525 1.90606 -0.007064666
v -0.1962525 2.106063 -0.007064666
v -0.1962525 2.106063 -0.007064666
v -0.1962525 1.90606 -0.007064666
v -0.1962525 1.90606 3.899961
v -0.1962525 2.106063 3.899961
v -0.1962525 2.106063 3.899961
v -0.1962525 1.90606 3.899961
v -0.1335448 1.90606 3.899961
v -0.1335448 2.141296 3.899961
v 0.003742862 2.181332 3.899961
v 0.003742862 1.90606 3.899961
v 0.1410385 2.141296 3.899961
v 0.003742862 2.181332 3.899961
v 0.003742862 1.90606 3.899961
v 0.1410385 1.90606 3.899961
v 0.2037462 1.90606 3.899961
v 0.2037462 2.106063 3.899961
v 4.258379E-06 2.189137 3.900001
v 4.258379E-06 1.9 3.900001
v -4.04286 -0.03284262 3.900001
v -4.139999 0.179137 3.900001
v 4.239998 0.179137 3.900001
v 4.152865 -0.01284469 3.900001
v 4.258379E-06 1.9 3.900001
v 4.258379E-06 2.189137 3.900001
v -4.139999 0.179137 4.200002
v -4.04286 -0.03284262 4.200002
v 4.258379E-06 1.9 4.200002
v 4.258379E-06 2.189137 4.200002
v 4.035415 0.2299324 3.999999
v 4.100004 0.1999996 3.999999
v 4.099996 0.1999996 -3.747197E-06
v 4.035415 0.2299324 -3.747197E-06
v 4.258379E-06 2.100003 3.999999
v -3.747197E-06 2.100003 -3.747197E-06
v -3.946345 0.2254893 4.258379E-06
v -3.999998 0.1999996 4.258379E-06
v -3.999998 0.1999996 3.999999
v -3.946345 0.2254893 3.999999
v -3.747197E-06 2.100003 -3.747197E-06
v 4.258379E-06 2.100003 3.999999
v 3.998862 0.1369717 3.999999
v 4.258379E-06 1.999997 3.999999
v -3.747197E-06 1.999997 -3.747197E-06
v 3.998862 0.1369717 -3.747197E-06
v 4.062866 0.1071509 3.999999
v 4.062858 0.1071509 -3.747197E-06
v -3.909703 0.1325446 4.258379E-06
v -3.747197E-06 1.999997 -3.747197E-06
v 4.258379E-06 1.999997 3.999999
v -3.909703 0.1325446 3.999999
v -3.96286 0.1071509 4.258379E-06
v -3.96286 0.1071509 3.999999
v 4.035415 0.2299324 -3.747197E-06
v -3.747197E-06 1.999997 -3.747197E-06
v -3.747197E-06 2.100003 -3.747197E-06
v 3.998862 0.1369717 -3.747197E-06
v 4.099996 0.1999996 -3.747197E-06
v 4.062858 0.1071509 -3.747197E-06
v 4.100004 0.1999996 3.999999
v 4.062866 0.1071509 3.999999
v 4.062858 0.1071509 -3.747197E-06
v 4.099996 0.1999996 -3.747197E-06
v -3.999998 0.1999996 4.258379E-06
v -3.96286 0.1071509 4.258379E-06
v -3.96286 0.1071509 3.999999
v -3.999998 0.1999996 3.999999
v -3.946345 0.2254893 4.258379E-06
v -3.96286 0.1071509 4.258379E-06
v -3.999998 0.1999996 4.258379E-06
v -3.909703 0.1325446 4.258379E-06
v -3.747197E-06 2.100003 -3.747197E-06
v -3.747197E-06 1.999997 -3.747197E-06
v 4.258379E-06 2.189137 4.200002
v 4.258379E-06 1.9 4.200002
v 4.152865 -0.01284469 4.200002
v 4.239998 0.179137 4.200002
v -4.14919 0.1959968 4.09428
v -4.04286 -0.03284262 4.200002
v -4.139999 0.179137 4.200002
v -4.04286 -0.03284262 4.09071
v -4.04286 -0.03284262 4.009293
v -4.14919 0.1959968 4.005714
v -4.139999 0.179137 3.900001
v -4.04286 -0.03284262 3.900001
v 4.239998 0.179137 4.200002
v 4.152865 -0.01284469 4.200002
v 4.152865 -0.01284469 4.091086
v 4.245257 0.1903849 4.095113
v 4.245257 0.1903849 4.00489
v 4.152865 -0.01284469 4.008917
v 4.152865 -0.01284469 3.900001
v 4.239998 0.179137 3.900001
v 4.152865 -0.01284469 4.008917
v 4.258379E-06 1.9 3.900001
v 4.152865 -0.01284469 3.900001
v 4.258379E-06 1.9 4.008917
v 4.258379E-06 1.9 4.091086
v 4.152865 -0.01284469 4.091086
v 4.152865 -0.01284469 4.200002
v 4.258379E-06 1.9 4.200002
v -4.04286 -0.03284262 3.900001
v 4.258379E-06 1.9 3.900001
v 4.258379E-06 1.9 4.008917
v -4.04286 -0.03284262 4.009293
v -4.04286 -0.03284262 4.09071
v 4.258379E-06 1.9 4.091086
v 4.258379E-06 1.9 4.200002
v -4.04286 -0.03284262 4.200002
v 4.258379E-06 2.206501 4.094745
v -4.139999 0.179137 4.200002
v 4.258379E-06 2.189137 4.200002
v -4.14919 0.1959968 4.09428
v -4.14919 0.1959968 4.005714
v 4.258379E-06 2.206501 4.005258
v 4.258379E-06 2.189137 3.900001
v -4.139999 0.179137 3.900001
v 4.258379E-06 2.189137 4.200002
v 4.239998 0.179137 4.200002
v 4.245257 0.1903849 4.095113
v 4.258379E-06 2.206501 4.094745
v 4.258379E-06 2.206501 4.005258
v 4.245257 0.1903849 4.00489
v 4.239998 0.179137 3.900001
v 4.258379E-06 2.189137 3.900001
vn 0.0009775171 0.0009775171 -0.999999
vn -0.0009775171 0.0009775171 -0.999999
vn 0.0009775171 -0.0009775171 -0.999999
vn 0.0009775171 -0.0009775171 -0.999999
vn -0.0009775171 0.0009775171 -0.999999
vn -0.0009775171 0.0009775171 -0.999999
vn 0.0009775171 0.0009775171 -0.999999
vn -0.0009775171 0.0009775171 -0.999999
vn -0.9999995 -0.0009775166 0
vn -0.9999995 -0.0009775166 0
vn -0.9999995 -0.0009775166 0
vn -0.9999995 -0.0009775166 0
vn 0.9999995 -0.0009775166 0
vn 0.9999995 -0.0009775166 0
vn 0.9999995 -0.0009775166 0
vn 0.9999995 -0.0009775166 0
vn 0.0009775171 0.0009775171 0.999999
vn 0.0009775171 0.0009775171 0.999999
vn 0.0009775171 0.0009775171 0.999999
vn 0.0009775171 0.0009775171 0.999999
vn 0.0009775171 0.0009775171 0.999999
vn 0.0009775171 0.0009775171 0.999999
vn 0.0009775171 0.0009775171 0.999999
vn -0.8629625 0.505268 0
vn -0.8629625 0.505268 0
vn -0.3880133 0.9216539 0
vn -0.3880133 0.9216539 0
vn 0.0009775166 0.9999995 0
vn 0.0009775166 0.9999995 0
vn 0.3880133 0.9216539 0
vn 0.3880133 0.9216539 0
vn 0.8629625 0.505268 0
vn 0.8629625 0.505268 0
vn 0.8629625 0.505268 0
vn 0.9999995 0.0009775166 0
vn 0.9999995 0.0009775166 0
vn 0.8629625 0.505268 0
vn 0.0009775171 0.0009775171 -0.999999
vn 0.0009775171 0.0009775171 -0.999999
vn 0.0009775171 0.0009775171 -0.999999
vn 0.0009775171 0.0009775171 -0.999999
vn 0.0009775171 0.0009775171 -0.999999
vn 0.0009775171 0.0009775171 -0.999999
vn 0.0009775171 0.0009775171 -0.999999
vn 0.0009775171 0.0009775171 -0.999999
vn 0.0009775171 0.0009775171 -0.999999
vn 0.0009775171 0.0009775171 -0.999999
vn -0.8629625 0.505268 0
vn -0.9999995 0.0009775166 0
vn -0.9999995 0.0009775166 0
vn -0.8629625 0.505268 0
vn 0.0009775171 0.0009775171 0.999999
vn 0.0009775171 0.0009775171 0.999999
vn 0.0009775171 0.0009775171 0.999999
vn 0.0009775171 0.0009775171 0.999999
vn 0.0009775171 0.0009775171 0.999999
vn 0.0009775171 0.0009775171 0.999999
vn 0.0009775171 0.0009775171 0.999999
vn 0.0009775171 0.0009775171 0.999999
vn 0.0009775171 0.0009775171 0.999999
vn 0.0009775171 0.0009775171 0.999999
vn 0.0009775171 0.0009775171 0.999999
vn 0.0009775171 0.0009775171 0.999999
vn -0.3313783 0.6832845 -0.6506233
vn 0.2649071 -0.5542522 -0.7890682
vn 0.3059629 -0.6422287 -0.7028008
vn -0.2805474 0.5796676 -0.765035
vn 0.2805474 0.5913978 -0.7560038
vn -0.2961877 -0.6441838 -0.7051951
vn -0.259042 -0.5601173 -0.7868709
vn 0.3294233 0.6969697 -0.6369565
vn -0.2805474 0.5796676 0.765035
vn 0.3059629 -0.6422287 0.7028008
vn 0.2649071 -0.5542522 0.7890682
vn -0.3313783 0.6832845 0.6506233
vn 0.4208531 0.9071288 0
vn 0.9296184 0.3685238 0
vn 0.7575758 0.3000978 -0.5796726
vn 0.4208531 0.9071288 0
vn 0.4208531 0.9071288 0
vn 0.4208531 0.9071288 0
vn -0.428758 0.9034194 0
vn -0.7575758 0.2961877 -0.5816802
vn -0.9312139 0.364473 0
vn -0.428758 0.9034194 0
vn -0.428758 0.9034194 0
vn -0.428758 0.9034194 0
vn -0.4232065 -0.9060333 0
vn -0.4232065 -0.9060333 0
vn -0.2609971 -0.5581623 -0.7876137
vn -0.2981427 -0.6402737 -0.7079269
vn 0.3685238 -0.9296184 0
vn 0.3020528 -0.7614858 -0.5735011
vn 0.3040078 -0.6383187 -0.7071977
vn 0.2649071 -0.5542522 -0.7890682
vn 0.4310851 -0.9022483 -0.01066702
vn 0.4310851 -0.9022483 -0.01066702
vn -0.2981427 -0.7634408 -0.5729476
vn -0.364473 -0.9312139 0
vn 0.0009775171 0.0009775171 -0.999999
vn -0.2609971 -0.5581623 -0.7876137
vn 0.0009775171 0.0009775171 -0.999999
vn -0.2981427 -0.6402737 -0.7079269
vn 0.7575758 0.3000978 -0.5796726
vn 0.3020528 -0.7614858 -0.5735011
vn 0.9296184 0.3685238 0
vn 0.3685238 -0.9296184 0
vn 0.3020528 -0.7614858 -0.5735011
vn 0.7575758 0.3000978 -0.5796726
vn -0.7575758 0.2961877 -0.5816802
vn -0.2981427 -0.7634408 -0.5729476
vn -0.364473 -0.9312139 0
vn -0.9312139 0.364473 0
vn 0.0009775171 0.0009775171 -0.999999
vn -0.2981427 -0.7634408 -0.5729476
vn -0.7575758 0.2961877 -0.5816802
vn 0.3040078 -0.6383187 -0.7071977
vn 0.0009775171 0.0009775171 -0.999999
vn 0.2649071 -0.5542522 -0.7890682
vn 0.3294233 0.6969697 0.6369565
vn -0.259042 -0.5601173 0.7868709
vn -0.2961877 -0.6441838 0.7051951
vn 0.2805474 0.5913978 0.7560038
vn -0.9078736 -0.4192441 0
vn -0.9078736 -0.4192441 0
vn -0.9078736 -0.4192441 0
vn -0.9078736 -0.4192441 0
vn -0.9078736 -0.4192441 0
vn -0.9078736 -0.4192441 0
vn -0.9078736 -0.4192441 0
vn -0.9078736 -0.4192441 0
vn 0.9100685 -0.4134897 0.02831321
vn 0.9100685 -0.4134897 0.02831321
vn 0.9100685 -0.4134897 0.02831321
vn 0.9100685 -0.4134897 0.02831321
vn 0.9100685 -0.4134897 -0.02831321
vn 0.9100685 -0.4134897 -0.02831321
vn 0.9100685 -0.4134897 -0.02831321
vn 0.9100685 -0.4134897 -0.02831321
vn -0.4173998 -0.9081134 -0.03327844
vn -0.259042 -0.5601173 -0.7868709
vn -0.2961877 -0.6441838 -0.7051951
vn -0.4173998 -0.9081134 -0.03327844
vn -0.4173998 -0.9081134 -0.03327844
vn -0.4173998 -0.9081134 -0.03327844
vn -0.2961877 -0.6441838 0.7051951
vn -0.259042 -0.5601173 0.7868709
vn 0.3059629 -0.6422287 -0.7028008
vn 0.2649071 -0.5542522 -0.7890682
vn 0.4310851 -0.9022483 -0.01066702
vn 0.4310851 -0.9022483 -0.01066702
vn 0.4310851 -0.9022483 -0.01066702
vn 0.4310851 -0.9022483 -0.01066702
vn 0.2649071 -0.5542522 0.7890682
vn 0.3059629 -0.6422287 0.7028008
vn -0.4349951 0.8963832 0.08530191
vn -0.2805474 0.5796676 0.765035
vn -0.3313783 0.6832845 0.6506233
vn -0.4349951 0.8963832 0.08530191
vn -0.4349951 0.8963832 -0.08530191
vn -0.4349951 0.8963832 -0.08530191
vn -0.3313783 0.6832845 -0.6506233
vn -0.2805474 0.5796676 -0.765035
vn 0.3294233 0.6969697 0.6369565
vn 0.2805474 0.5913978 0.7560038
vn 0.427175 0.9022483 0.05890319
vn 0.427175 0.9022483 0.05890319
vn 0.427175 0.9022483 -0.05890319
vn 0.427175 0.9022483 -0.05890319
vn 0.2805474 0.5913978 -0.7560038
vn 0.3294233 0.6969697 -0.6369565
vt 0.6220645 0.1059586
vt 0.6207523 0.02685588
vt 0.7841764 0.02685588
vt 0.7841764 0.005859464
vt 0.6207523 0.005859464
vt 0.4560617 0.02685588
vt 0.6206302 0.105272
vt 0.4560617 0.005859464
vt 0.5683528 0.3256886
vt 0.5683528 0.3051804
vt 0.4072328 0.3051804
vt 0.4072328 0.3256886
vt 0.4072328 0.3256886
vt 0.4072328 0.3051804
vt 0.5683528 0.3051804
vt 0.5683528 0.3256886
vt 0.7841764 0.02685588
vt 0.7841764 0.005859464
vt 0.6207523 0.005859464
vt 0.6207523 0.02685588
vt 0.6206302 0.105272
vt 0.4560617 0.005859464
vt 0.4560617 0.02685588
vt 0.5234302 0.3750057
vt 0.4155337 0.3750057
vt 0.4155337 0.3765316
vt 0.5234302 0.3765316
vt 0.5234302 0.3798886
vt 0.4155337 0.3798886
vt 0.5234302 0.3832303
vt 0.4155337 0.3832303
vt 0.4155337 0.3847715
vt 0.5234302 0.3847715
vt 0.4155337 0.3847715
vt 0.4155337 0.3798886
vt 0.5234302 0.3798886
vt 0.5234302 0.3847715
vt 0.4536202 0.353521
vt 0.4536202 0.3447318
vt 0.4511788 0.3447318
vt 0.4511788 0.3549859
vt 0.4458076 0.3564508
vt 0.4458076 0.3447318
vt 0.4389715 0.3549859
vt 0.4389715 0.3447318
vt 0.4365301 0.3447318
vt 0.4365301 0.353521
vt 0.5234302 0.3750057
vt 0.5234302 0.378912
vt 0.4155337 0.378912
vt 0.4155337 0.3750057
vt 0 0
vt 0 1
vt 0.3135577 1
vt 0.3135577 0
vt 1 0.1340352
vt 1 1
vt 0.6864424 0
vt 0 0.1340352
vt 0 1
vt 0.6864424 1
vt 1 1
vt 1 0
vt 0.5971618 0.3613336
vt 0.5971618 0.3710994
vt 0.4047913 0.3710994
vt 0.4047913 0.3613336
vt 0.4047913 0.3613336
vt 0.4047913 0.3710994
vt 0.5971618 0.3710994
vt 0.5971618 0.3613336
vt 0.4047913 0.3613336
vt 0.4047913 0.3710994
vt 0.5971618 0.3710994
vt 0.5971618 0.3613336
vt 0.4493019 0.4321355
vt 0.4472724 0.4321355
vt 0.4472724 0.5595636
vt 0.4493019 0.5595636
vt 0.5766537 0.4321355
vt 0.5766537 0.5595636
vt 0.4489967 0.5595636
vt 0.4472724 0.5595636
vt 0.4472724 0.4321355
vt 0.4489967 0.4321355
vt 0.5766537 0.5595636
vt 0.5766537 0.4321355
vt 0.442237 0.4326238
vt 0.5854429 0.4326238
vt 0.5854429 0.5781186
vt 0.442237 0.5781186
vt 0.4399481 0.4326238
vt 0.4399481 0.5781186
vt 0.441886 0.5781186
vt 0.5854429 0.5781186
vt 0.5854429 0.4326238
vt 0.441886 0.4326238
vt 0.4399481 0.5781186
vt 0.4399481 0.4326238
vt 0.4073701 0.3476616
vt 0.599115 0.3408255
vt 0.599115 0.3476616
vt 0.4073701 0.3408255
vt 0.404303 0.3476616
vt 0.404303 0.3408255
vt 0.5864195 0.3637751
vt 0.5864195 0.3588922
vt 0.3994202 0.3588922
vt 0.3994202 0.3637751
vt 0.3994202 0.3637751
vt 0.3994202 0.3681697
vt 0.5864195 0.3681697
vt 0.5864195 0.3637751
vt 0.4069123 0.3476616
vt 0.404303 0.3408255
vt 0.404303 0.3476616
vt 0.4069123 0.3408255
vt 0.599115 0.3476616
vt 0.599115 0.3408255
vt 0.5971618 0.3613336
vt 0.5971618 0.3710994
vt 0.4047913 0.3710994
vt 0.4047913 0.3613336
vt 0.4843824 0.3510796
vt 0.5102465 0.3398489
vt 0.4863355 0.3398489
vt 0.5102465 0.3510796
vt 0.5102465 0.3598688
vt 0.4843824 0.3598688
vt 0.4863355 0.3710994
vt 0.5102465 0.3710994
vt 0.5224537 0.3662165
vt 0.5224537 0.3447318
vt 0.5107347 0.3447318
vt 0.511223 0.3676814
vt 0.5019608 0.3676814
vt 0.5024338 0.3447318
vt 0.4912184 0.3447318
vt 0.4912184 0.3662165
vt 0.4013733 0.3642634
vt 0.5927672 0.3588922
vt 0.4013733 0.3588922
vt 0.5927672 0.3642634
vt 0.5927672 0.3671931
vt 0.4013733 0.3671931
vt 0.4013733 0.372076
vt 0.5927672 0.372076
vt 0.4013733 0.3588922
vt 0.5927672 0.3588922
vt 0.5927672 0.3642634
vt 0.4013733 0.3642634
vt 0.4013733 0.3671931
vt 0.5927672 0.3671931
vt 0.5927672 0.372076
vt 0.4013733 0.372076
vt 0.5693294 0.378912
vt 0.3994202 0.3750057
vt 0.5693294 0.3750057
vt 0.3994202 0.378912
vt 0.3994202 0.3818418
vt 0.5693294 0.3818418
vt 0.5693294 0.3852598
vt 0.3994202 0.3852598
vt 0.5693294 0.3750057
vt 0.3994202 0.3750057
vt 0.3994202 0.378912
vt 0.5693294 0.378912
vt 0.5693294 0.3818418
vt 0.3994202 0.3818418
vt 0.3994202 0.3852598
vt 0.5693294 0.3852598
f 1/1/1 2/2/2 3/3/3
f 2/2/2 4/4/4 3/3/3
f 2/2/2 5/5/5 4/4/4
f 6/6/6 5/5/5 2/2/2
f 7/7/7 6/6/6 2/2/2
f 6/6/6 8/8/8 5/5/5
f 9/9/9 10/10/10 11/11/11
f 9/9/9 11/11/11 12/12/12
f 13/13/13 14/14/14 15/15/15
f 13/13/13 15/15/15 16/16/16
f 17/17/17 18/18/18 19/19/19
f 17/17/17 19/19/19 20/20/20
f 21/21/21 17/17/17 20/20/20
f 20/20/20 19/19/19 22/22/22
f 21/21/21 20/20/20 23/23/23
f 20/20/20 22/22/22 23/23/23
f 24/24/24 25/25/25 26/26/26
f 24/24/24 26/26/26 27/27/27
f 28/28/28 27/27/27 26/26/26
f 28/28/28 26/26/26 29/29/29
f 30/30/30 28/28/28 29/29/29
f 30/30/30 29/29/29 31/31/31
f 30/30/30 31/31/31 32/32/32
f 30/30/30 32/32/32 33/33/33
f 34/34/34 35/35/35 36/36/36
f 34/34/34 36/36/36 37/37/37
f 38/38/38 39/39/39 40/40/40
f 38/38/38 40/40/40 41/41/41
f 42/42/42 41/41/41 40/40/40
f 42/42/42 40/40/40 43/43/43
f 44/44/44 42/42/42 43/43/43
f 44/44/44 43/43/43 45/45/45
f 44/44/44 45/45/45 46/46/46
f 44/44/44 46/46/46 47/47/47
f 48/48/48 49/49/49 50/50/50
f 48/48/48 50/50/50 51/51/51
f 52/52/52 53/53/53 54/54/54
f 52/52/52 54/54/54 55/55/55
f 56/56/56 55/55/55 54/54/54
f 56/56/56 54/54/54 57/57/57
f 58/58/58 59/59/59 60/60/60
f 58/58/58 60/60/60 61/61/61
f 58/58/58 61/61/61 62/62/62
f 58/58/58 62/62/62 63/63/63
f 64/64/64 65/65/65 66/66/66
f 64/64/64 66/66/66 67/67/67
f 68/68/68 69/69/69 70/70/70
f 68/68/68 70/70/70 71/71/71
f 72/72/72 73/73/73 74/74/74
f 72/72/72 74/74/74 75/75/75
f 76/76/76 77/77/77 78/78/78
f 76/76/76 78/78/78 79/79/79
f 80/80/80 76/76/76 79/79/79
f 80/80/80 79/79/79 81/81/81
f 82/82/82 83/83/83 84/84/84
f 82/82/82 84/84/84 85/85/85
f 86/86/86 82/82/82 85/85/85
f 86/86/86 85/85/85 87/87/87
f 88/88/88 89/89/89 90/90/90
f 88/88/88 90/90/90 91/91/91
f 92/92/92 88/88/88 91/91/91
f 92/92/92 91/91/91 93/93/93
f 94/94/94 95/95/95 96/96/96
f 94/94/94 96/96/96 97/97/97
f 98/98/98 94/94/94 97/97/97
f 98/98/98 97/97/97 99/99/99
f 100/100/100 101/101/101 102/102/102
f 100/100/100 103/103/103 101/101/101
f 104/104/104 103/103/103 100/100/100
f 104/104/104 105/105/105 103/103/103
f 106/106/106 107/107/107 108/108/108
f 106/106/106 108/108/108 109/109/109
f 110/110/110 111/111/111 112/112/112
f 110/110/110 112/112/112 113/113/113
f 114/114/114 115/115/115 116/116/116
f 114/114/114 117/117/117 115/115/115
f 118/118/118 117/117/117 114/114/114
f 118/118/118 119/119/119 117/117/117
f 120/120/120 121/121/121 122/122/122
f 120/120/120 122/122/122 123/123/123
f 124/124/124 125/125/125 126/126/126
f 124/124/124 127/127/127 125/125/125
f 124/124/124 128/128/128 127/127/127
f 124/124/124 129/129/129 128/128/128
f 130/130/130 128/128/128 129/129/129
f 130/130/130 131/131/131 128/128/128
f 132/132/132 133/133/133 134/134/134
f 132/132/132 134/134/134 135/135/135
f 136/136/136 135/135/135 134/134/134
f 136/136/136 134/134/134 137/137/137
f 136/136/136 137/137/137 138/138/138
f 136/136/136 138/138/138 139/139/139
f 140/140/140 141/141/141 142/142/142
f 140/140/140 143/143/143 141/141/141
f 140/140/140 144/144/144 143/143/143
f 140/140/140 145/145/145 144/144/144
f 146/146/146 144/144/144 145/145/145
f 146/146/146 147/147/147 144/144/144
f 148/148/148 149/149/149 150/150/150
f 148/148/148 150/150/150 151/151/151
f 152/152/152 151/151/151 150/150/150
f 152/152/152 150/150/150 153/153/153
f 152/152/152 153/153/153 154/154/154
f 152/152/152 154/154/154 155/155/155
f 156/156/156 157/157/157 158/158/158
f 156/156/156 159/159/159 157/157/157
f 156/156/156 160/160/160 159/159/159
f 156/156/156 161/161/161 160/160/160
f 162/162/162 160/160/160 161/161/161
f 162/162/162 163/163/163 160/160/160
f 164/164/164 165/165/165 166/166/166
f 164/164/164 166/166/166 167/167/167
f 168/168/168 167/167/167 166/166/166
f 168/168/168 166/166/166 169/169/169
f 168/168/168 169/169/169 170/170/170
f 168/168/168 170/170/170 171/171/171
