v -0.4264908 1.744747 -0.3839575
v 0.4274679 1.695088 -0.343302
v -0.4274681 1.695088 -0.343302
v 0.4264906 1.744747 -0.3839575
v 0.4830542 1.749163 -0.4661075
v -0.4830543 1.749163 -0.4661075
v -0.4264908 1.744747 0.5839573
v -0.4274681 1.695088 -0.343302
v -0.4274681 1.695088 0.6052661
v -0.4264908 1.744747 -0.3839575
v 0.4828162 1.854957 -0.4569587
v -0.5826679 2.04674 -0.4917503
v 0.5826678 2.04674 -0.4917503
v -0.4828215 1.854965 -0.4569612
v -0.477564 1.844872 -0.4551294
v 0.4775639 1.844872 -0.4551294
v -0.4818519 1.770129 -0.4637026
v 0.4818518 1.770121 -0.4637052
v 0.4830542 1.749163 0.6661073
v -0.4818519 1.770129 0.6637024
v -0.4830543 1.749163 0.6661073
v 0.4818518 1.770121 0.6637049
v 0.4264906 1.744747 0.5839573
v 0.4274679 1.695088 -0.343302
v 0.4264906 1.744747 -0.3839575
v 0.4274679 1.695088 0.6052661
v 0.4590053 1.6702 0.6185391
v 0.4590053 1.6702 -0.3862268
v 0.4598444 1.6151 0.5955289
v 0.4598444 1.6151 -0.3968083
v 0.3999985 1.5 -0.3000012
v 0.3999985 1.5 0.500001
v 0.400001 1.438927 0.500001
v 0.400001 1.438927 -0.3000012
v 0.400001 1.413514 0.500001
v 0.400001 1.413514 -0.3000012
v 0.400001 0.001339258 0.500001
v 0.400001 0.001339258 -0.3000012
v 0.4830542 1.749163 0.6661073
v -0.4264908 1.744747 0.5839573
v 0.4264906 1.744747 0.5839573
v -0.4830543 1.749163 0.6661073
v 0.4830542 1.749163 -0.4661075
v 0.4264906 1.744747 0.5839573
v 0.4264906 1.744747 -0.3839575
v 0.4830542 1.749163 0.6661073
v -0.4830543 1.749163 0.6661073
v -0.4264908 1.744747 -0.3839575
v -0.4264908 1.744747 0.5839573
v -0.4830543 1.749163 -0.4661075
v -0.4590079 1.6702 0.6185391
v -0.4274681 1.695088 -0.343302
v -0.4590079 1.6702 -0.3862268
v -0.4274681 1.695088 0.6052661
v 0.4590053 1.6702 -0.3862268
v -0.4274681 1.695088 -0.343302
v 0.4274679 1.695088 -0.343302
v -0.4590079 1.6702 -0.3862268
v -0.5680928 2.077351 0.6680926
v 0.5826678 2.04674 0.69175
v 0.5680926 2.077351 0.6680926
v -0.5826679 2.04674 0.69175
v 0.4828162 1.854957 0.6569585
v -0.4828215 1.854965 0.656961
v -0.477564 1.844872 0.6551292
v 0.4775639 1.844872 0.6551292
v -0.4818519 1.770129 0.6637024
v 0.4818518 1.770121 0.6637049
v -0.5680928 2.077351 -0.4680928
v 0.5826678 2.04674 -0.4917503
v -0.5826679 2.04674 -0.4917503
v 0.5680926 2.077351 -0.4680928
v 0.400001 1.413514 0.500001
v -0.4000012 0.001341816 0.500001
v 0.400001 0.001339258 0.500001
v -0.4000012 1.413522 0.500001
v 0.400001 1.438927 0.500001
v -0.4000012 1.438927 0.500001
v 0.3999985 1.5 0.500001
v -0.4000012 1.5 0.500001
v 0.4598444 1.6151 0.5955289
v -0.4598446 1.6151 0.5955289
v 0.4590053 1.6702 0.6185391
v -0.4590079 1.6702 0.6185391
v 0.4274679 1.695088 0.6052661
v -0.4274681 1.695088 0.6052661
v 0.4264906 1.744747 0.5839573
v -0.4264908 1.744747 0.5839573
v -0.4000012 1.413522 0.500001
v -0.4000012 0.001341816 -0.3000012
v -0.4000012 0.001341816 0.500001
v -0.4000012 1.413522 -0.3000012
v -0.4000012 1.438927 0.500001
v -0.4000012 1.438927 -0.3000012
v -0.4000012 1.5 0.500001
v -0.4000012 1.5 -0.3000012
v -0.4598446 1.6151 0.5955289
v -0.4598446 1.6151 -0.3968083
v -0.4590079 1.6702 -0.3862268
v -0.4590079 1.6702 0.6185391
v 0.4830542 1.749163 -0.4661075
v -0.4818519 1.770129 -0.4637026
v 0.4818518 1.770121 -0.4637052
v -0.4830543 1.749163 -0.4661075
v -0.4590079 1.6702 -0.3862268
v 0.4590053 1.6702 -0.3862268
v -0.4598446 1.6151 -0.3968083
v 0.4598444 1.6151 -0.3968083
v 0.3999985 1.5 -0.3000012
v -0.4000012 1.5 -0.3000012
v -0.4000012 1.438927 -0.3000012
v 0.400001 1.438927 -0.3000012
v -0.4000012 1.413522 -0.3000012
v 0.400001 1.413514 -0.3000012
v -0.4000012 0.001341816 -0.3000012
v 0.400001 0.001339258 -0.3000012
v -0.5680928 2.077351 -0.4680928
v -0.5826679 2.04674 -0.4917503
v -0.5680928 2.077351 0.6680926
v -0.5826679 2.04674 0.69175
v -0.4828215 1.854965 -0.4569612
v -0.4828215 1.854965 0.656961
v -0.477564 1.844872 -0.4551294
v -0.477564 1.844872 0.6551292
v -0.4818519 1.770129 -0.4637026
v -0.4818519 1.770129 0.6637024
v -0.4830543 1.749163 -0.4661075
v -0.4830543 1.749163 0.6661073
v 0.5680926 2.077351 0.6680926
v 0.5826678 2.04674 0.69175
v 0.5680926 2.077351 -0.4680928
v 0.5826678 2.04674 -0.4917503
v 0.4828162 1.854957 -0.4569587
v 0.4828162 1.854957 0.6569585
v 0.4775639 1.844872 0.6551292
v 0.4775639 1.844872 -0.4551294
v 0.4818518 1.770121 0.6637049
v 0.4818518 1.770121 -0.4637052
v 0.4830542 1.749163 0.6661073
v 0.4830542 1.749163 -0.4661075
v -0.4000012 2.1 -0.3000012
v 0.5680926 2.077351 -0.4680928
v -0.5680928 2.077351 -0.4680928
v -0.5680928 2.077351 0.6680926
v 0.400001 2.1 -0.3000012
v 0.5680926 2.077351 0.6680926
v -0.4000012 2.1 0.500001
v 0.400001 2.1 0.500001
vn -0.1812839 -0.9569318 -0.2267545
vn 0.7204547 0.5370502 -0.4387734
vn -0.7200344 0.5370502 -0.4394627
vn 0.1817041 -0.9569318 -0.2264179
vn 0.5943641 -0.5194358 -0.6139362
vn -0.5939438 -0.5194358 -0.6143429
vn -0.4487487 -0.8327518 0.3242671
vn -0.7200344 0.5370502 -0.4394627
vn -0.4353754 0.6077374 0.6641563
vn -0.1812839 -0.9569318 -0.2267545
vn 0.602006 -0.4353754 -0.6693558
vn -0.7162135 0.1033751 -0.6901824
vn 0.7166337 0.1033751 -0.6897461
vn -0.6034962 -0.4353754 -0.6680124
vn -0.6531682 -0.1793734 -0.7356606
vn 0.6535885 -0.1793734 -0.7352872
vn -0.7028403 0.1205693 -0.7010553
vn 0.7032605 0.1205693 -0.7006338
vn 0.5943641 -0.5194358 0.6139362
vn -0.7028403 0.1205693 0.7010553
vn -0.5939438 -0.5194358 0.6143429
vn 0.7032605 0.1205693 0.7006338
vn 0.4491689 -0.8327518 0.3236847
vn 0.7204547 0.5370502 -0.4387734
vn 0.1817041 -0.9569318 -0.2264179
vn 0.4357957 0.6077374 0.6638805
vn 0.6574094 0.2466599 0.7120196
vn 0.6325734 0.5064828 -0.5859403
vn 0.6898873 -0.433465 0.5797962
vn 0.6478571 -0.2596128 -0.7161581
vn 0.6803349 -0.4372859 -0.5881543
vn 0.6784245 -0.4353754 0.5917672
vn 0.7070814 0.0002101286 0.7071321
vn 0.7070814 0.0002101286 -0.7071321
vn 0.7070814 0.0002101286 0.7071321
vn 0.7070814 0.0002101286 -0.7071321
vn 0.7070814 0.0002101286 0.7071321
vn 0.7070814 0.0002101286 -0.7071321
vn 0.5943641 -0.5194358 0.6139362
vn -0.4487487 -0.8327518 0.3242671
vn 0.4491689 -0.8327518 0.3236847
vn -0.5939438 -0.5194358 0.6143429
vn 0.5943641 -0.5194358 -0.6139362
vn 0.4491689 -0.8327518 0.3236847
vn 0.1817041 -0.9569318 -0.2264179
vn 0.5943641 -0.5194358 0.6139362
vn -0.5939438 -0.5194358 0.6143429
vn -0.1812839 -0.9569318 -0.2267545
vn -0.4487487 -0.8327518 0.3242671
vn -0.5939438 -0.5194358 -0.6143429
vn -0.6588996 0.2466599 0.7106407
vn -0.7200344 0.5370502 -0.4394627
vn -0.6321531 0.5064828 -0.5863937
vn -0.4353754 0.6077374 0.6641563
vn 0.6325734 0.5064828 -0.5859403
vn -0.7200344 0.5370502 -0.4394627
vn 0.7204547 0.5370502 -0.4387734
vn -0.6321531 0.5064828 -0.5863937
vn -0.458301 0.8121569 0.3610559
vn 0.7166337 0.1033751 0.6897461
vn 0.4568108 0.8121569 0.3629395
vn -0.7162135 0.1033751 0.6901824
vn 0.602006 -0.4353754 0.6693558
vn -0.6034962 -0.4353754 0.6680124
vn -0.6531682 -0.1793734 0.7356606
vn 0.6535885 -0.1793734 0.7352872
vn -0.7028403 0.1205693 0.7010553
vn 0.7032605 0.1205693 0.7006338
vn -0.458301 0.8121569 -0.3610559
vn 0.7166337 0.1033751 -0.6897461
vn -0.7162135 0.1033751 -0.6901824
vn 0.4568108 0.8121569 -0.3629395
vn 0.7070814 0.0002101286 0.7071321
vn -0.7066612 0.0002101286 0.7075521
vn 0.7070814 0.0002101286 0.7071321
vn -0.7066612 0.0002101286 0.7075521
vn 0.7070814 0.0002101286 0.7071321
vn -0.7066612 0.0002101286 0.7075521
vn 0.6784245 -0.4353754 0.5917672
vn -0.6780042 -0.4353754 0.5922487
vn 0.6898873 -0.433465 0.5797962
vn -0.689467 -0.433465 0.5802959
vn 0.6574094 0.2466599 0.7120196
vn -0.6588996 0.2466599 0.7106407
vn 0.4357957 0.6077374 0.6638805
vn -0.4353754 0.6077374 0.6641563
vn 0.4491689 -0.8327518 0.3236847
vn -0.4487487 -0.8327518 0.3242671
vn -0.7066612 0.0002101286 0.7075521
vn -0.7066612 0.0002101286 -0.7075521
vn -0.7066612 0.0002101286 0.7075521
vn -0.7066612 0.0002101286 -0.7075521
vn -0.7066612 0.0002101286 0.7075521
vn -0.7066612 0.0002101286 -0.7075521
vn -0.6780042 -0.4353754 0.5922487
vn -0.6799147 -0.4372859 -0.58864
vn -0.689467 -0.433465 0.5802959
vn -0.6474368 -0.2596128 -0.716538
vn -0.6321531 0.5064828 -0.5863937
vn -0.6588996 0.2466599 0.7106407
vn 0.5943641 -0.5194358 -0.6139362
vn -0.7028403 0.1205693 -0.7010553
vn 0.7032605 0.1205693 -0.7006338
vn -0.5939438 -0.5194358 -0.6143429
vn -0.6321531 0.5064828 -0.5863937
vn 0.6325734 0.5064828 -0.5859403
vn -0.6474368 -0.2596128 -0.716538
vn 0.6478571 -0.2596128 -0.7161581
vn 0.6803349 -0.4372859 -0.5881543
vn -0.6799147 -0.4372859 -0.58864
vn -0.7066612 0.0002101286 -0.7075521
vn 0.7070814 0.0002101286 -0.7071321
vn -0.7066612 0.0002101286 -0.7075521
vn 0.7070814 0.0002101286 -0.7071321
vn -0.7066612 0.0002101286 -0.7075521
vn 0.7070814 0.0002101286 -0.7071321
vn -0.458301 0.8121569 -0.3610559
vn -0.7162135 0.1033751 -0.6901824
vn -0.458301 0.8121569 0.3610559
vn -0.7162135 0.1033751 0.6901824
vn -0.6034962 -0.4353754 -0.6680124
vn -0.6034962 -0.4353754 0.6680124
vn -0.6531682 -0.1793734 -0.7356606
vn -0.6531682 -0.1793734 0.7356606
vn -0.7028403 0.1205693 -0.7010553
vn -0.7028403 0.1205693 0.7010553
vn -0.5939438 -0.5194358 -0.6143429
vn -0.5939438 -0.5194358 0.6143429
vn 0.4568108 0.8121569 0.3629395
vn 0.7166337 0.1033751 0.6897461
vn 0.4568108 0.8121569 -0.3629395
vn 0.7166337 0.1033751 -0.6897461
vn 0.602006 -0.4353754 -0.6693558
vn 0.602006 -0.4353754 0.6693558
vn 0.6535885 -0.1793734 0.7352872
vn 0.6535885 -0.1793734 -0.7352872
vn 0.7032605 0.1205693 0.7006338
vn 0.7032605 0.1205693 -0.7006338
vn 0.5943641 -0.5194358 0.6139362
vn 0.5943641 -0.5194358 -0.6139362
vn -0.04946191 0.9974718 -0.05102481
vn 0.4568108 0.8121569 -0.3629395
vn -0.458301 0.8121569 -0.3610559
vn -0.458301 0.8121569 0.3610559
vn 0.04988217 0.9974718 -0.05061371
vn 0.4568108 0.8121569 0.3629395
vn -0.04946191 0.9974718 0.05102481
vn 0.04988217 0.9974718 0.05061371
vt 0.8588808 0.2641561
vt 0.8911163 0.260743
vt 0.8588808 0.260743
vt 0.8911163 0.2641561
vt 0.8935586 0.2670839
vt 0.8564385 0.2670839
vt 0.9057549 0.260743
vt 0.9414035 0.2587861
vt 0.9042987 0.2587861
vt 0.9423895 0.260743
vt 0.8935586 0.2714831
vt 0.8520545 0.2797808
vt 0.8984432 0.2797808
vt 0.8564385 0.2714831
vt 0.8564385 0.2705122
vt 0.8935586 0.2705122
vt 0.8564385 0.2670839
vt 0.8935586 0.2670839
vt 0.8061513 0.2690408
vt 0.8432561 0.2690408
vt 0.8442422 0.2690408
vt 0.8061513 0.2690408
vt 0.9936477 0.2641561
vt 0.9580142 0.2622144
vt 0.9565428 0.2641561
vt 0.9951192 0.2622144
vt 0.9951192 0.2612284
vt 0.9565428 0.2612284
vt 0.9936477 0.2587861
vt 0.9555719 0.2587861
vt 0.959956 0.2534161
vt 0.9902346 0.2534161
vt 0.9902346 0.2509737
vt 0.959956 0.2509737
vt 0.9902346 0.2504883
vt 0.959956 0.2504883
vt 0.9902346 0.194831
vt 0.959956 0.194831
vt 0.8061513 0.2690408
vt 0.8422853 0.2651422
vt 0.8085936 0.2651422
vt 0.8442422 0.2690408
vt 0.9536151 0.2665984
vt 0.9936477 0.2641561
vt 0.9565428 0.2641561
vt 0.997076 0.2665984
vt 0.9023418 0.2631853
vt 0.9423895 0.260743
vt 0.9057549 0.260743
vt 0.9458027 0.2631853
vt 0.9028272 0.2578152
vt 0.9414035 0.2587861
vt 0.9423895 0.2578152
vt 0.9042987 0.2587861
vt 0.8920871 0.2597721
vt 0.8588808 0.260743
vt 0.8911163 0.260743
vt 0.8574246 0.2597721
vt 0.8471699 0.2822231
vt 0.803709 0.2797808
vt 0.803709 0.2822231
vt 0.8471699 0.2797808
vt 0.8061513 0.2729545
vt 0.8442422 0.2729545
vt 0.8432561 0.2719685
vt 0.8061513 0.2719685
vt 0.8432561 0.2690408
vt 0.8061513 0.2690408
vt 0.8540114 0.2802663
vt 0.8984432 0.2797808
vt 0.8520545 0.2797808
vt 0.8964863 0.2802663
vt 0.810065 0.2504883
vt 0.8408138 0.194831
vt 0.810065 0.194831
vt 0.8408138 0.2504883
vt 0.810065 0.2509737
vt 0.8408138 0.2509737
vt 0.810065 0.2534161
vt 0.8408138 0.2534161
vt 0.8076227 0.2602575
vt 0.8432561 0.2602575
vt 0.8076227 0.2622144
vt 0.8432561 0.2622144
vt 0.8085936 0.2631853
vt 0.8422853 0.2631853
vt 0.8085936 0.2651422
vt 0.8422853 0.2651422
vt 0.9086978 0.2470752
vt 0.9394466 0.1914027
vt 0.9086978 0.1914027
vt 0.9394466 0.2470752
vt 0.9086978 0.2475606
vt 0.9394466 0.2475606
vt 0.9086978 0.2500029
vt 0.9394466 0.2500029
vt 0.9042987 0.2553729
vt 0.9423895 0.2553729
vt 0.9423895 0.2578152
vt 0.9028272 0.2578152
vt 0.8935586 0.2670839
vt 0.8564385 0.2670839
vt 0.8935586 0.2670839
vt 0.8564385 0.2670839
vt 0.8574246 0.2597721
vt 0.8920871 0.2597721
vt 0.8574246 0.2578152
vt 0.8920871 0.2578152
vt 0.8901302 0.2509737
vt 0.8603523 0.2509737
vt 0.8603523 0.2485314
vt 0.8901302 0.2485314
vt 0.8603523 0.248046
vt 0.8901302 0.248046
vt 0.8603523 0.1923887
vt 0.8901302 0.1923887
vt 0.9458027 0.2768531
vt 0.947259 0.2763677
vt 0.9023418 0.2768531
vt 0.9018564 0.2763677
vt 0.9458027 0.2680699
vt 0.9023418 0.2680699
vt 0.9443313 0.266113
vt 0.9023418 0.266113
vt 0.9458027 0.2636707
vt 0.9023418 0.2636707
vt 0.9458027 0.2631853
vt 0.9023418 0.2631853
vt 0.997076 0.2802663
vt 0.9980469 0.2797808
vt 0.9536151 0.2802663
vt 0.9531296 0.2797808
vt 0.9536151 0.2714831
vt 0.997076 0.2714831
vt 0.997076 0.2695262
vt 0.9536151 0.2695262
vt 0.997076 0.2670839
vt 0.9536151 0.2670839
vt 0.997076 0.2665984
vt 0.9536151 0.2665984
vt 0.791012 0.0717751
vt 0.7529362 0.07763057
vt 0.797368 0.07763057
vt 0.797368 0.03467023
vt 0.7587917 0.0717751
vt 0.7529362 0.03467023
vt 0.791012 0.04149655
vt 0.7587917 0.04149655
f 1/1/1 2/2/2 3/3/3
f 4/4/4 2/2/2 1/1/1
f 4/4/4 1/1/1 5/5/5
f 5/5/5 1/1/1 6/6/6
f 7/7/7 8/8/8 9/9/9
f 10/10/10 8/8/8 7/7/7
f 11/11/11 12/12/12 13/13/13
f 14/14/14 12/12/12 11/11/11
f 14/14/14 11/11/11 15/15/15
f 15/15/15 11/11/11 16/16/16
f 15/15/15 16/16/16 17/17/17
f 17/17/17 16/16/16 18/18/18
f 19/19/19 20/20/20 21/21/21
f 22/22/22 20/20/20 19/19/19
f 23/23/23 24/24/24 25/25/25
f 26/26/26 24/24/24 23/23/23
f 27/27/27 24/24/24 26/26/26
f 28/28/28 24/24/24 27/27/27
f 29/29/29 28/28/28 27/27/27
f 30/30/30 28/28/28 29/29/29
f 29/29/29 31/31/31 30/30/30
f 32/32/32 31/31/31 29/29/29
f 32/32/32 33/33/33 31/31/31
f 31/31/31 33/33/33 34/34/34
f 33/33/33 35/35/35 34/34/34
f 34/34/34 35/35/35 36/36/36
f 35/35/35 37/37/37 36/36/36
f 36/36/36 37/37/37 38/38/38
f 39/39/39 40/40/40 41/41/41
f 42/42/42 40/40/40 39/39/39
f 43/43/43 44/44/44 45/45/45
f 46/46/46 44/44/44 43/43/43
f 47/47/47 48/48/48 49/49/49
f 50/50/50 48/48/48 47/47/47
f 51/51/51 52/52/52 53/53/53
f 54/54/54 52/52/52 51/51/51
f 55/55/55 56/56/56 57/57/57
f 58/58/58 56/56/56 55/55/55
f 59/59/59 60/60/60 61/61/61
f 62/62/62 60/60/60 59/59/59
f 60/60/60 62/62/62 63/63/63
f 63/63/63 62/62/62 64/64/64
f 65/65/65 63/63/63 64/64/64
f 66/66/66 63/63/63 65/65/65
f 67/67/67 66/66/66 65/65/65
f 68/68/68 66/66/66 67/67/67
f 69/69/69 70/70/70 71/71/71
f 72/72/72 70/70/70 69/69/69
f 73/73/73 74/74/74 75/75/75
f 76/76/76 74/74/74 73/73/73
f 77/77/77 76/76/76 73/73/73
f 78/78/78 76/76/76 77/77/77
f 79/79/79 78/78/78 77/77/77
f 80/80/80 78/78/78 79/79/79
f 81/81/81 80/80/80 79/79/79
f 82/82/82 80/80/80 81/81/81
f 81/81/81 83/83/83 82/82/82
f 82/82/82 83/83/83 84/84/84
f 83/83/83 85/85/85 84/84/84
f 84/84/84 85/85/85 86/86/86
f 87/87/87 86/86/86 85/85/85
f 88/88/88 86/86/86 87/87/87
f 89/89/89 90/90/90 91/91/91
f 92/92/92 90/90/90 89/89/89
f 93/93/93 92/92/92 89/89/89
f 94/94/94 92/92/92 93/93/93
f 95/95/95 94/94/94 93/93/93
f 96/96/96 94/94/94 95/95/95
f 97/97/97 96/96/96 95/95/95
f 98/98/98 96/96/96 97/97/97
f 97/97/97 99/99/99 98/98/98
f 100/100/100 99/99/99 97/97/97
f 101/101/101 102/102/102 103/103/103
f 104/104/104 102/102/102 101/101/101
f 105/105/105 106/106/106 107/107/107
f 107/107/107 106/106/106 108/108/108
f 108/108/108 109/109/109 107/107/107
f 107/107/107 109/109/109 110/110/110
f 109/109/109 111/111/111 110/110/110
f 112/112/112 111/111/111 109/109/109
f 112/112/112 113/113/113 111/111/111
f 114/114/114 113/113/113 112/112/112
f 114/114/114 115/115/115 113/113/113
f 116/116/116 115/115/115 114/114/114
f 117/117/117 118/118/118 119/119/119
f 119/119/119 118/118/118 120/120/120
f 121/121/121 120/120/120 118/118/118
f 122/122/122 120/120/120 121/121/121
f 123/123/123 122/122/122 121/121/121
f 124/124/124 122/122/122 123/123/123
f 125/125/125 124/124/124 123/123/123
f 126/126/126 124/124/124 125/125/125
f 127/127/127 126/126/126 125/125/125
f 128/128/128 126/126/126 127/127/127
f 129/129/129 130/130/130 131/131/131
f 131/131/131 130/130/130 132/132/132
f 132/132/132 130/130/130 133/133/133
f 133/133/133 130/130/130 134/134/134
f 135/135/135 133/133/133 134/134/134
f 136/136/136 133/133/133 135/135/135
f 137/137/137 136/136/136 135/135/135
f 138/138/138 136/136/136 137/137/137
f 139/139/139 138/138/138 137/137/137
f 140/140/140 138/138/138 139/139/139
f 141/141/141 142/142/142 143/143/143
f 143/143/143 144/144/144 141/141/141
f 145/145/145 142/142/142 141/141/141
f 145/145/145 146/146/146 142/142/142
f 141/141/141 144/144/144 147/147/147
f 144/144/144 146/146/146 147/147/147
f 141/141/141 148/148/148 145/145/145
f 148/148/148 146/146/146 145/145/145
f 147/147/147 146/146/146 148/148/148
f 147/147/147 148/148/148 141/141/141
