v 0.1900006 5.700001 0.2600016
v 0.1900006 -1.248576E-06 0.2600016
v 0.1999982 -1.248576E-06 0.1900006
v 0.1999982 5.700001 0.1900006
v 0.01000233 5.700001 0.1900006
v 0.01000233 -1.248576E-06 0.1900006
v 0.0199999 -1.248576E-06 0.2600016
v 0.0199999 5.700001 0.2600016
v 0.0199999 5.700001 0.2600016
v 0.0199999 -1.248576E-06 0.2600016
v 0.1900006 -1.248576E-06 0.2600016
v 0.1900006 5.700001 0.2600016
v 0.1900006 -1.248576E-06 0.2600016
v 0.0199999 -1.248576E-06 0.2600016
v 0.01000233 -1.248576E-06 0.1900006
v 0.1999982 -1.248576E-06 0.1900006
v 1.999999 5.600001 0.1999982
v 4 4.499998 0.1999982
v 4 5.600001 0.1999982
v 1.999146 4.499998 0.1999982
v -1.248576E-06 5.600001 0.1999982
v 4 1.000002 0.1999982
v -1.248576E-06 4.499998 0.1999982
v 1.999146 1.000002 0.1999982
v 4 0.2418089 0.1999982
v -1.248576E-06 1.000002 0.1999982
v 1.999957 0.2418089 0.1999982
v 4 0.1999982 0.1999982
v -1.248576E-06 0.2418089 0.1999982
v 1.999999 0.1999982 0.1999982
v 4 0.02608616 0.1999982
v -1.248576E-06 0.1999982 0.1999982
v 1.999999 0.02608616 0.1999982
v 4 -1.248576E-06 0.1999982
v -1.248576E-06 0.02608616 0.1999982
v 1.999999 -1.248576E-06 0.1999982
v -1.248576E-06 -1.248576E-06 0.1999982
v -1.248576E-06 0.02608616 0.1999982
v -1.248576E-06 -1.248576E-06 -0.2000007
v -1.248576E-06 -1.248576E-06 0.1999982
v -1.248576E-06 0.02608616 -0.2000007
v -1.248576E-06 0.1999982 0.1999982
v -1.248576E-06 0.1999982 -0.2000007
v -1.248576E-06 0.2418089 0.1999982
v -1.248576E-06 0.2418089 -0.2000007
v -1.248576E-06 1.000002 0.1999982
v -1.248576E-06 1.000002 -0.2000007
v -1.248576E-06 4.499998 0.1999982
v -1.248576E-06 4.499998 -0.2000007
v -1.248576E-06 5.600001 0.1999982
v -1.248576E-06 5.600001 -0.2000007
v -1.248576E-06 5.700001 0.1999982
v -1.248576E-06 5.700001 0.2999979
v -1.248576E-06 5.976562 0.2999979
v -1.248576E-06 5.700001 -0.2000007
v -1.248576E-06 5.700001 -0.3000004
v -1.248576E-06 5.968751 0.1999982
v -1.248576E-06 6 0.2999979
v -1.248576E-06 6 0.1999982
v -1.248576E-06 5.968751 -0.2000007
v -1.248576E-06 5.976562 -0.3000004
v -1.248576E-06 6 -0.2000007
v -1.248576E-06 6 -0.3000004
v 1.999999 -1.248576E-06 0.1999982
v 4 -1.248576E-06 -0.2000007
v 4 -1.248576E-06 0.1999982
v 1.999999 -1.248576E-06 -0.2000007
v -1.248576E-06 -1.248576E-06 0.1999982
v 4 -1.248576E-06 -0.3000004
v -1.248576E-06 -1.248576E-06 -0.2000007
v 1.999999 -1.248576E-06 -0.3000004
v -1.248576E-06 -1.248576E-06 -0.3000004
v 1.999999 5.600001 -0.2000007
v 4 5.700001 -0.3000004
v 4 5.600001 -0.2000007
v 1.999999 5.700001 -0.3000004
v -1.248576E-06 5.600001 -0.2000007
v 4 5.976562 -0.3000004
v -1.248576E-06 5.700001 -0.3000004
v 1.999999 5.976562 -0.3000004
v 4 6 -0.3000004
v -1.248576E-06 5.976562 -0.3000004
v 1.999999 6 -0.3000004
v -1.248576E-06 6 -0.3000004
v 4 6 -0.2000007
v 4 6 -0.3000004
v 1.999999 6 -0.3000004
v 1.999999 6 -0.2000007
v -1.248576E-06 6 -0.3000004
v 4 6 0.1999982
v -1.248576E-06 6 -0.2000007
v 1.999999 6 0.1999982
v 4 6 0.2999979
v -1.248576E-06 6 0.1999982
v 1.999999 6 0.2999979
v -1.248576E-06 6 0.2999979
v -1.248576E-06 0.02608616 -0.2000007
v -1.248576E-06 -1.248576E-06 -0.3000004
v -1.248576E-06 -1.248576E-06 -0.2000007
v -1.248576E-06 0.02784054 -0.3000004
v -1.248576E-06 0.1999982 -0.2000007
v -1.248576E-06 0.179997 -0.3000004
v -1.248576E-06 0.1999982 -0.2799993
v 4 0.179997 -0.3000004
v 4 0.1999982 -0.2799993
v 4 0.1999982 -0.2000007
v 4 0.02784054 -0.3000004
v 4 0.02608616 -0.2000007
v 4 -1.248576E-06 -0.2000007
v 4 -1.248576E-06 -0.3000004
v 4 0.1999982 -0.2000007
v 4 0.1999982 -0.2799993
v 1.999999 0.1999982 -0.2799993
v 1.999999 0.1999982 -0.2000007
v -1.248576E-06 0.1999982 -0.2799993
v -1.248576E-06 0.1999982 -0.2000007
v 4 -1.248576E-06 0.1999982
v 4 -1.248576E-06 -0.2000007
v 4 0.02608616 -0.2000007
v 4 0.02608616 0.1999982
v 4 0.1999982 -0.2000007
v 4 0.1999982 0.1999982
v 4 0.2418089 -0.2000007
v 4 0.2418089 0.1999982
v 4 1.000002 -0.2000007
v 4 1.000002 0.1999982
v 4 4.499998 -0.2000007
v 4 4.499998 0.1999982
v 4 5.600001 -0.2000007
v 4 5.600001 0.1999982
v 4 5.700001 -0.2000007
v 4 5.700001 -0.3000004
v 4 5.976562 -0.3000004
v 4 5.700001 0.1999982
v 4 5.700001 0.2999979
v 4 5.968751 -0.2000007
v 4 6 -0.3000004
v 4 6 -0.2000007
v 4 5.968751 0.1999982
v 4 5.976562 0.2999979
v 4 6 0.1999982
v 4 6 0.2999979
v 1.999999 6 0.2999979
v 4 5.976562 0.2999979
v 4 6 0.2999979
v 1.999999 5.976562 0.2999979
v -1.248576E-06 6 0.2999979
v 4 5.700001 0.2999979
v -1.248576E-06 5.976562 0.2999979
v 1.999999 5.700001 0.2999979
v 4 5.600001 0.1999982
v -1.248576E-06 5.700001 0.2999979
v 1.999999 5.600001 0.1999982
v -1.248576E-06 5.600001 0.1999982
v 1.999999 -1.248576E-06 -0.3000004
v 4 0.02784054 -0.3000004
v 4 -1.248576E-06 -0.3000004
v 1.999999 0.02784054 -0.3000004
v -1.248576E-06 -1.248576E-06 -0.3000004
v 4 0.179997 -0.3000004
v -1.248576E-06 0.02784054 -0.3000004
v 1.999999 0.179997 -0.3000004
v 4 0.1999982 -0.2799993
v -1.248576E-06 0.179997 -0.3000004
v 1.999999 0.1999982 -0.2799993
v -1.248576E-06 0.1999982 -0.2799993
v 1.999999 0.1999982 -0.2000007
v 4 0.2418089 -0.2000007
v 4 0.1999982 -0.2000007
v 1.999957 0.2418089 -0.2000007
v -1.248576E-06 0.1999982 -0.2000007
v 4 1.000002 -0.2000007
v -1.248576E-06 0.2418089 -0.2000007
v 1.999146 1.000002 -0.2000007
v 4 4.499998 -0.2000007
v -1.248576E-06 1.000002 -0.2000007
v 1.999146 4.499998 -0.2000007
v 4 5.600001 -0.2000007
v -1.248576E-06 4.499998 -0.2000007
v 1.999999 5.600001 -0.2000007
v -1.248576E-06 5.600001 -0.2000007
vn 0.9902248 0.0009775171 0.139477
vn 0.9902248 0.0009775171 0.139477
vn 0.9902248 0.0009775171 0.139477
vn 0.9902248 0.0009775171 0.139477
vn -0.9902248 0.0009775171 0.139477
vn -0.9902248 0.0009775171 0.139477
vn -0.9902248 0.0009775171 0.139477
vn -0.9902248 0.0009775171 0.139477
vn 0.0009775171 0.0009775171 0.999999
vn 0.0009775171 0.0009775171 0.999999
vn 0.0009775171 0.0009775171 0.999999
vn 0.0009775171 0.0009775171 0.999999
vn 0.0009775166 -0.9999995 0
vn 0.0009775166 -0.9999995 0
vn 0.0009775166 -0.9999995 0
vn 0.0009775166 -0.9999995 0
vn 0.0009775171 0.0009775171 0.999999
vn 0.0009775171 0.0009775171 0.999999
vn 0.0009775171 0.0009775171 0.999999
vn 0.0009775171 0.0009775171 0.999999
vn 0.0009775171 0.0009775171 0.999999
vn 0.0009775171 0.0009775171 0.999999
vn 0.0009775171 0.0009775171 0.999999
vn 0.0009775171 0.0009775171 0.999999
vn 0.0009775171 0.0009775171 0.999999
vn 0.0009775171 0.0009775171 0.999999
vn 0.0009775171 0.0009775171 0.999999
vn 0.0009775171 0.0009775171 0.999999
vn 0.0009775171 0.0009775171 0.999999
vn 0.0009775171 0.0009775171 0.999999
vn 0.0009775171 0.0009775171 0.999999
vn 0.0009775171 0.0009775171 0.999999
vn 0.0009775171 0.0009775171 0.999999
vn 0.0009775171 -0.7067448 0.7074679
vn 0.0009775171 0.0009775171 0.999999
vn 0.0009775171 -0.7067448 0.7074679
vn 0.0009775171 -0.7067448 0.7074679
vn -0.9999995 0.0009775166 0
vn -0.9999995 0.0009775166 0
vn -0.9999995 0.0009775166 0
vn -0.9999995 0.0009775166 0
vn -0.9999995 0.0009775166 0
vn -0.9999995 0.0009775166 0
vn -0.9999995 0.0009775166 0
vn -0.9999995 0.0009775166 0
vn -0.9999995 0.0009775166 0
vn -0.9999995 0.0009775166 0
vn -0.9999995 0.0009775166 0
vn -0.9999995 0.0009775166 0
vn -0.9999995 0.0009775166 0
vn -0.9999995 0.0009775166 0
vn -0.9999995 0.0009775166 0
vn -0.9999995 0.0009775166 0
vn -0.9999995 0.0009775166 0
vn -0.9999995 0.0009775166 0
vn -0.9999995 0.0009775166 0
vn -0.9999995 0.0009775166 0
vn -0.9999995 0.0009775166 0
vn -0.9999995 0.0009775166 0
vn -0.9999995 0.0009775166 0
vn -0.9999995 0.0009775166 0
vn -0.9999995 0.0009775166 0
vn -0.9999995 0.0009775166 0
vn 0.0009775171 -0.7067448 0.7074679
vn 0.0009775166 -0.9999995 0
vn 0.0009775171 -0.7067448 0.7074679
vn 0.0009775166 -0.9999995 0
vn 0.0009775171 -0.7067448 0.7074679
vn 0.0009775171 -0.7067448 -0.7074679
vn 0.0009775166 -0.9999995 0
vn 0.0009775171 -0.7067448 -0.7074679
vn 0.0009775171 -0.7067448 -0.7074679
vn 0.0009775171 -0.7067448 -0.7074679
vn 0.0009775171 -0.3822092 -0.9240753
vn 0.0009775171 -0.7067448 -0.7074679
vn 0.0009775171 -0.3822092 -0.9240753
vn 0.0009775171 -0.7067448 -0.7074679
vn 0.0009775171 0.0009775171 -0.999999
vn 0.0009775171 -0.3822092 -0.9240753
vn 0.0009775171 0.0009775171 -0.999999
vn 0.0009775171 0.7067448 -0.7074679
vn 0.0009775171 0.0009775171 -0.999999
vn 0.0009775171 0.7067448 -0.7074679
vn 0.0009775171 0.7067448 -0.7074679
vn 0.0009775166 0.9999995 0
vn 0.0009775171 0.7067448 -0.7074679
vn 0.0009775171 0.7067448 -0.7074679
vn 0.0009775166 0.9999995 0
vn 0.0009775171 0.7067448 -0.7074679
vn 0.0009775166 0.9999995 0
vn 0.0009775166 0.9999995 0
vn 0.0009775166 0.9999995 0
vn 0.0009775171 0.7067448 0.7074679
vn 0.0009775166 0.9999995 0
vn 0.0009775171 0.7067448 0.7074679
vn 0.0009775171 0.7067448 0.7074679
vn -0.9999995 0.0009775166 0
vn -0.9999995 0.0009775166 0
vn -0.9999995 0.0009775166 0
vn -0.9999995 0.0009775166 0
vn -0.9999995 0.0009775166 0
vn -0.9999995 0.0009775166 0
vn -0.9999995 0.0009775166 0
vn 0.9999995 0.0009775166 0
vn 0.9999995 0.0009775166 0
vn 0.9999995 0.0009775166 0
vn 0.9999995 0.0009775166 0
vn 0.9999995 0.0009775166 0
vn 0.9999995 0.0009775166 0
vn 0.9999995 0.0009775166 0
vn 0.0009775171 0.7067448 -0.7074679
vn 0.0009775171 0.9237537 -0.3829859
vn 0.0009775171 0.9237537 -0.3829859
vn 0.0009775171 0.7067448 -0.7074679
vn 0.0009775171 0.9237537 -0.3829859
vn 0.0009775171 0.7067448 -0.7074679
vn 0.9999995 0.0009775166 0
vn 0.9999995 0.0009775166 0
vn 0.9999995 0.0009775166 0
vn 0.9999995 0.0009775166 0
vn 0.9999995 0.0009775166 0
vn 0.9999995 0.0009775166 0
vn 0.9999995 0.0009775166 0
vn 0.9999995 0.0009775166 0
vn 0.9999995 0.0009775166 0
vn 0.9999995 0.0009775166 0
vn 0.9999995 0.0009775166 0
vn 0.9999995 0.0009775166 0
vn 0.9999995 0.0009775166 0
vn 0.9999995 0.0009775166 0
vn 0.9999995 0.0009775166 0
vn 0.9999995 0.0009775166 0
vn 0.9999995 0.0009775166 0
vn 0.9999995 0.0009775166 0
vn 0.9999995 0.0009775166 0
vn 0.9999995 0.0009775166 0
vn 0.9999995 0.0009775166 0
vn 0.9999995 0.0009775166 0
vn 0.9999995 0.0009775166 0
vn 0.9999995 0.0009775166 0
vn 0.9999995 0.0009775166 0
vn 0.9999995 0.0009775166 0
vn 0.0009775171 0.7067448 0.7074679
vn 0.0009775171 0.0009775171 0.999999
vn 0.0009775171 0.7067448 0.7074679
vn 0.0009775171 0.0009775171 0.999999
vn 0.0009775171 0.7067448 0.7074679
vn 0.0009775171 -0.3822092 0.9240753
vn 0.0009775171 0.0009775171 0.999999
vn 0.0009775171 -0.3822092 0.9240753
vn 0.0009775171 -0.7067448 0.7074679
vn 0.0009775171 -0.3822092 0.9240753
vn 0.0009775171 -0.7067448 0.7074679
vn 0.0009775171 -0.7067448 0.7074679
vn 0.0009775171 -0.7067448 -0.7074679
vn 0.0009775171 0.0009775171 -0.999999
vn 0.0009775171 -0.7067448 -0.7074679
vn 0.0009775171 0.0009775171 -0.999999
vn 0.0009775171 -0.7067448 -0.7074679
vn 0.0009775171 0.3822092 -0.9240753
vn 0.0009775171 0.0009775171 -0.999999
vn 0.0009775171 0.3822092 -0.9240753
vn 0.0009775171 0.9237537 -0.3829859
vn 0.0009775171 0.3822092 -0.9240753
vn 0.0009775171 0.9237537 -0.3829859
vn 0.0009775171 0.9237537 -0.3829859
vn 0.0009775171 0.7067448 -0.7074679
vn 0.0009775171 0.0009775171 -0.999999
vn 0.0009775171 0.7067448 -0.7074679
vn 0.0009775171 0.0009775171 -0.999999
vn 0.0009775171 0.7067448 -0.7074679
vn 0.0009775171 0.0009775171 -0.999999
vn 0.0009775171 0.0009775171 -0.999999
vn 0.0009775171 0.0009775171 -0.999999
vn 0.0009775171 0.0009775171 -0.999999
vn 0.0009775171 0.0009775171 -0.999999
vn 0.0009775171 0.0009775171 -0.999999
vn 0.0009775171 0.0009775171 -0.999999
vn 0.0009775171 0.0009775171 -0.999999
vn 0.0009775171 0.0009775171 -0.999999
vn 0.0009775171 0.0009775171 -0.999999
vt 0.7900368 0.6909106
vt 0.4038089 0.6909106
vt 0.4038089 0.6977568
vt 0.7900368 0.6977568
vt 0.7900368 0.6767606
vt 0.4038089 0.6767606
vt 0.4038089 0.6840795
vt 0.7900368 0.6840795
vt 0.7900368 0.6840795
vt 0.4038089 0.6840795
vt 0.4038089 0.6909106
vt 0.7900368 0.6909106
vt 0.6142597 0.6298887
vt 0.627449 0.6298887
vt 0.627937 0.6245062
vt 0.6132838 0.6245062
vt 0.09985832 0.8647513
vt 0.0002441406 0.8103012
vt 0.0002441406 0.8647513
vt 0.0999803 0.8103012
vt 0.1997012 0.8647513
vt 0.0002441406 0.6354999
vt 0.1997012 0.8103012
vt 0.0999803 0.6354999
vt 0.0002441406 0.5977767
vt 0.1997012 0.6354999
vt 0.09985832 0.5977767
vt 0.0002441406 0.595703
vt 0.1997012 0.5977767
vt 0.09985832 0.595703
vt 0.0002441406 0.5869203
vt 0.1997012 0.595703
vt 0.09985832 0.5869203
vt 0.0002441406 0.5857005
vt 0.1997012 0.5869203
vt 0.09985832 0.5857005
vt 0.1997012 0.5857005
vt 0.4326121 0.9379867
vt 0.4311483 0.9174783
vt 0.4311483 0.9379867
vt 0.4326121 0.9174783
vt 0.4414101 0.9379867
vt 0.4414101 0.9174783
vt 0.4435753 0.9379867
vt 0.4435753 0.9174783
vt 0.4829147 0.9379867
vt 0.4829147 0.9174783
vt 0.6630833 0.9379867
vt 0.6630833 0.9174783
vt 0.719729 0.9379867
vt 0.719729 0.9174783
vt 0.7250962 0.9379867
vt 0.7250962 0.9433539
vt 0.7392615 0.9433539
vt 0.7250962 0.9174783
vt 0.7250962 0.912111
vt 0.7387736 0.9379867
vt 0.7402374 0.9433539
vt 0.7402374 0.9379867
vt 0.7387736 0.9174783
vt 0.7392615 0.912111
vt 0.7402374 0.9174783
vt 0.7402374 0.912111
vt 0.5739748 0.2377903
vt 0.4614305 0.2607383
vt 0.4614305 0.2377903
vt 0.5739748 0.2607383
vt 0.6865192 0.2377903
vt 0.4614305 0.2661208
vt 0.6865192 0.2607383
vt 0.5739748 0.2661208
vt 0.6865192 0.2661208
vt 0.3000473 0.8652392
vt 0.2004331 0.8698745
vt 0.2004331 0.8652392
vt 0.3000473 0.8698745
vt 0.3999054 0.8652392
vt 0.2006771 0.88282
vt 0.3999054 0.8698745
vt 0.3000473 0.88282
vt 0.2006771 0.8837958
vt 0.3999054 0.88282
vt 0.3000473 0.8837958
vt 0.3999054 0.8837958
vt 0.200921 0.9963402
vt 0.200921 0.9995117
vt 0.3000473 0.9995117
vt 0.3000473 0.9963402
vt 0.3991735 0.9995117
vt 0.200921 0.9838827
vt 0.3991735 0.9963402
vt 0.3000473 0.9838827
vt 0.200921 0.9804671
vt 0.3991735 0.9838827
vt 0.3000473 0.9804671
vt 0.3991735 0.9804671
vt 0.3823247 0.3388683
vt 0.3793971 0.3266548
vt 0.3793971 0.3388683
vt 0.3828126 0.3266548
vt 0.4033209 0.3388683
vt 0.4008813 0.3266548
vt 0.4033209 0.3290944
vt 0.3999054 0.3378924
vt 0.4023451 0.3354528
vt 0.4023451 0.3261668
vt 0.3818367 0.3378924
vt 0.3813488 0.3261668
vt 0.3784212 0.3261668
vt 0.3784212 0.3378924
vt 0.379885 0.3320373
vt 0.379885 0.3364286
vt 0.4887699 0.3364286
vt 0.4887699 0.3320373
vt 0.5971668 0.3364286
vt 0.5971668 0.3320373
vt 0.4311483 0.9379867
vt 0.4311483 0.9174783
vt 0.4326121 0.9174783
vt 0.4326121 0.9379867
vt 0.4414101 0.9174783
vt 0.4414101 0.9379867
vt 0.4435753 0.9174783
vt 0.4435753 0.9379867
vt 0.4829147 0.9174783
vt 0.4829147 0.9379867
vt 0.6630833 0.9174783
vt 0.6630833 0.9379867
vt 0.719729 0.9174783
vt 0.719729 0.9379867
vt 0.7250962 0.9174783
vt 0.7250962 0.912111
vt 0.7392615 0.912111
vt 0.7250962 0.9379867
vt 0.7250962 0.9433539
vt 0.7387736 0.9174783
vt 0.7402374 0.912111
vt 0.7402374 0.9174783
vt 0.7387736 0.9379867
vt 0.7392615 0.9433539
vt 0.7402374 0.9379867
vt 0.7402374 0.9433539
vt 0.09985832 0.8847717
vt 0.0002441406 0.8835518
vt 0.0002441406 0.8847717
vt 0.09985832 0.8835518
vt 0.1997012 0.8847717
vt 0.0002441406 0.8696306
vt 0.1997012 0.8835518
vt 0.09985832 0.8696306
vt 0.0002441406 0.8647513
vt 0.1997012 0.8696306
vt 0.09985832 0.8647513
vt 0.1997012 0.8647513
vt 0.3000473 0.5857005
vt 0.2004331 0.5870575
vt 0.2004331 0.5857005
vt 0.3000473 0.5870575
vt 0.3999054 0.5857005
vt 0.2004331 0.5944832
vt 0.3999054 0.5870575
vt 0.3000473 0.5944832
vt 0.2004331 0.595947
vt 0.3999054 0.5944832
vt 0.3000473 0.595947
vt 0.3999054 0.595947
vt 0.3000473 0.595947
vt 0.2004331 0.5980207
vt 0.2004331 0.595947
vt 0.3000625 0.5980207
vt 0.3999054 0.595947
vt 0.2004331 0.6357439
vt 0.3999054 0.5980207
vt 0.3001693 0.6357439
vt 0.2004331 0.8100572
vt 0.3999054 0.6357439
vt 0.3001693 0.8100572
vt 0.2004331 0.8652392
vt 0.3999054 0.8100572
vt 0.3000473 0.8652392
vt 0.3999054 0.8652392
f 1/1/1 2/2/2 3/3/3
f 1/1/1 3/3/3 4/4/4
f 5/5/5 6/6/6 7/7/7
f 5/5/5 7/7/7 8/8/8
f 9/9/9 10/10/10 11/11/11
f 9/9/9 11/11/11 12/12/12
f 13/13/13 14/14/14 15/15/15
f 13/13/13 15/15/15 16/16/16
f 17/17/17 18/18/18 19/19/19
f 17/17/17 20/20/20 18/18/18
f 21/21/21 20/20/20 17/17/17
f 20/20/20 22/22/22 18/18/18
f 21/21/21 23/23/23 20/20/20
f 20/20/20 24/24/24 22/22/22
f 23/23/23 24/24/24 20/20/20
f 24/24/24 25/25/25 22/22/22
f 23/23/23 26/26/26 24/24/24
f 24/24/24 27/27/27 25/25/25
f 26/26/26 27/27/27 24/24/24
f 27/27/27 28/28/28 25/25/25
f 26/26/26 29/29/29 27/27/27
f 27/27/27 30/30/30 28/28/28
f 29/29/29 30/30/30 27/27/27
f 30/30/30 31/31/31 28/28/28
f 29/29/29 32/32/32 30/30/30
f 30/30/30 33/33/33 31/31/31
f 32/32/32 33/33/33 30/30/30
f 33/33/33 34/34/34 31/31/31
f 32/32/32 35/35/35 33/33/33
f 33/33/33 36/36/36 34/34/34
f 35/35/35 36/36/36 33/33/33
f 35/35/35 37/37/37 36/36/36
f 38/38/38 39/39/39 40/40/40
f 38/38/38 41/41/41 39/39/39
f 42/42/42 41/41/41 38/38/38
f 42/42/42 43/43/43 41/41/41
f 44/44/44 43/43/43 42/42/42
f 44/44/44 45/45/45 43/43/43
f 46/46/46 45/45/45 44/44/44
f 46/46/46 47/47/47 45/45/45
f 48/48/48 47/47/47 46/46/46
f 48/48/48 49/49/49 47/47/47
f 50/50/50 49/49/49 48/48/48
f 50/50/50 51/51/51 49/49/49
f 52/52/52 51/51/51 50/50/50
f 50/50/50 53/53/53 52/52/52
f 52/52/52 53/53/53 54/54/54
f 52/52/52 55/55/55 51/51/51
f 55/55/55 56/56/56 51/51/51
f 52/52/52 54/54/54 57/57/57
f 57/57/57 55/55/55 52/52/52
f 57/57/57 54/54/54 58/58/58
f 57/57/57 58/58/58 59/59/59
f 60/60/60 56/56/56 55/55/55
f 57/57/57 60/60/60 55/55/55
f 59/59/59 60/60/60 57/57/57
f 60/60/60 61/61/61 56/56/56
f 59/59/59 62/62/62 60/60/60
f 62/62/62 61/61/61 60/60/60
f 62/62/62 63/63/63 61/61/61
f 64/64/64 65/65/65 66/66/66
f 64/64/64 67/67/67 65/65/65
f 68/68/68 67/67/67 64/64/64
f 67/67/67 69/69/69 65/65/65
f 68/68/68 70/70/70 67/67/67
f 67/67/67 71/71/71 69/69/69
f 70/70/70 71/71/71 67/67/67
f 70/70/70 72/72/72 71/71/71
f 73/73/73 74/74/74 75/75/75
f 73/73/73 76/76/76 74/74/74
f 77/77/77 76/76/76 73/73/73
f 76/76/76 78/78/78 74/74/74
f 77/77/77 79/79/79 76/76/76
f 76/76/76 80/80/80 78/78/78
f 79/79/79 80/80/80 76/76/76
f 80/80/80 81/81/81 78/78/78
f 79/79/79 82/82/82 80/80/80
f 80/80/80 83/83/83 81/81/81
f 82/82/82 83/83/83 80/80/80
f 82/82/82 84/84/84 83/83/83
f 85/85/85 86/86/86 87/87/87
f 85/85/85 87/87/87 88/88/88
f 88/88/88 87/87/87 89/89/89
f 90/90/90 85/85/85 88/88/88
f 88/88/88 89/89/89 91/91/91
f 90/90/90 88/88/88 92/92/92
f 92/92/92 88/88/88 91/91/91
f 92/92/92 93/93/93 90/90/90
f 92/92/92 91/91/91 94/94/94
f 92/92/92 95/95/95 93/93/93
f 94/94/94 95/95/95 92/92/92
f 94/94/94 96/96/96 95/95/95
f 97/97/97 98/98/98 99/99/99
f 97/97/97 100/100/100 98/98/98
f 100/100/100 97/97/97 101/101/101
f 101/101/101 102/102/102 100/100/100
f 101/101/101 103/103/103 102/102/102
f 104/104/104 105/105/105 106/106/106
f 107/107/107 104/104/104 106/106/106
f 106/106/106 108/108/108 107/107/107
f 109/109/109 107/107/107 108/108/108
f 109/109/109 110/110/110 107/107/107
f 111/111/111 112/112/112 113/113/113
f 111/111/111 113/113/113 114/114/114
f 114/114/114 113/113/113 115/115/115
f 114/114/114 115/115/115 116/116/116
f 117/117/117 118/118/118 119/119/119
f 117/117/117 119/119/119 120/120/120
f 120/120/120 119/119/119 121/121/121
f 120/120/120 121/121/121 122/122/122
f 122/122/122 121/121/121 123/123/123
f 122/122/122 123/123/123 124/124/124
f 124/124/124 123/123/123 125/125/125
f 124/124/124 125/125/125 126/126/126
f 126/126/126 125/125/125 127/127/127
f 126/126/126 127/127/127 128/128/128
f 128/128/128 127/127/127 129/129/129
f 128/128/128 129/129/129 130/130/130
f 130/130/130 129/129/129 131/131/131
f 129/129/129 132/132/132 131/131/131
f 131/131/131 132/132/132 133/133/133
f 130/130/130 131/131/131 134/134/134
f 134/134/134 135/135/135 130/130/130
f 131/131/131 133/133/133 136/136/136
f 134/134/134 131/131/131 136/136/136
f 136/136/136 133/133/133 137/137/137
f 136/136/136 137/137/137 138/138/138
f 139/139/139 135/135/135 134/134/134
f 134/134/134 136/136/136 139/139/139
f 139/139/139 136/136/136 138/138/138
f 139/139/139 140/140/140 135/135/135
f 139/139/139 138/138/138 141/141/141
f 141/141/141 140/140/140 139/139/139
f 141/141/141 142/142/142 140/140/140
f 143/143/143 144/144/144 145/145/145
f 143/143/143 146/146/146 144/144/144
f 147/147/147 146/146/146 143/143/143
f 146/146/146 148/148/148 144/144/144
f 147/147/147 149/149/149 146/146/146
f 146/146/146 150/150/150 148/148/148
f 149/149/149 150/150/150 146/146/146
f 151/151/151 148/148/148 150/150/150
f 149/149/149 152/152/152 150/150/150
f 151/151/151 150/150/150 153/153/153
f 153/153/153 150/150/150 152/152/152
f 153/153/153 152/152/152 154/154/154
f 155/155/155 156/156/156 157/157/157
f 155/155/155 158/158/158 156/156/156
f 159/159/159 158/158/158 155/155/155
f 158/158/158 160/160/160 156/156/156
f 159/159/159 161/161/161 158/158/158
f 158/158/158 162/162/162 160/160/160
f 161/161/161 162/162/162 158/158/158
f 163/163/163 160/160/160 162/162/162
f 161/161/161 164/164/164 162/162/162
f 163/163/163 162/162/162 165/165/165
f 165/165/165 162/162/162 164/164/164
f 165/165/165 164/164/164 166/166/166
f 167/167/167 168/168/168 169/169/169
f 167/167/167 170/170/170 168/168/168
f 171/171/171 170/170/170 167/167/167
f 170/170/170 172/172/172 168/168/168
f 171/171/171 173/173/173 170/170/170
f 170/170/170 174/174/174 172/172/172
f 173/173/173 174/174/174 170/170/170
f 174/174/174 175/175/175 172/172/172
f 173/173/173 176/176/176 174/174/174
f 174/174/174 177/177/177 175/175/175
f 176/176/176 177/177/177 174/174/174
f 177/177/177 178/178/178 175/175/175
f 176/176/176 179/179/179 177/177/177
f 177/177/177 180/180/180 178/178/178
f 179/179/179 180/180/180 177/177/177
f 179/179/179 181/181/181 180/180/180
